<?xml version="1.0" encoding="utf-8"?>
<!-- Generator: Adobe Illustrator 25.2.1, SVG Export Plug-In . SVG Version: 6.00 Build 0)  -->
<svg version="1.1" id="Слой_1" xmlns="http://www.w3.org/2000/svg" xmlns:xlink="http://www.w3.org/1999/xlink" x="0px" y="0px"
	 viewBox="0 0 500 500" style="enable-background:new 0 0 500 500;" xml:space="preserve">
<style type="text/css">
	.st0{fill:#E1E7EF;}
	.st1{fill:none;}
	.st2{fill:#9BBFCC;}
	.st3{fill:#C9D5E8;}
	.st4{fill:#CEDFEA;}
	.st5{fill:#2E3646;}
	.st6{fill:#627593;stroke:#627593;stroke-miterlimit:10;}
	.st7{fill:#627593;}
	.st8{fill-rule:evenodd;clip-rule:evenodd;fill:#E1E7EF;}
	.st9{fill:#FFFFFF;}
</style>
<image style="overflow:visible;" width="928" height="588" xlink:href="8911AA2A.jpg"  transform="matrix(1 0 0 1 -7942 -8462)">
</image>
<g>
	<path class="st0" d="M170.1,365.5l-28,20.4l38.3,26.8c14.6,10.2,32.1-13.4,16.6-24.3L170.1,365.5z"/>
	<path class="st1" d="M145,383.3l30.9,25.4c2.7,2.3,5.9,3.2,9,3.2c4.5,0,8.9-2.1,11.6-5.3c3.3-4,4-10.2-1.8-15l-26.4-21.7L145,383.3
		z"/>
	<path class="st1" d="M237.3,304.3c0.7,0,1.4,0,2.1-0.1c6,8.3,14.2,18.8,24.9,27c2.9,2.2,18,13.2,26.9,9.2c2.4-1.1,5.3-3.6,5.7-9.6
		v0c2.5-37.5-46.4-122.2-79.4-137.3c-3.6-1.6-6.6-1.8-9.2-0.6c-1.6,0.8-3.6,2.5-4.5,6.2c-1.1,4.6-1.5,9.7-1.1,15.9
		c0.6,9.9,2.9,20.4,7.1,33.2c0.9,2.8,1.9,5.6,2.9,8.2c-2.9,4.1-4.8,8.8-5.5,13.8c5,10.7,10.7,21.2,17,31.2
		C228.3,303.3,232.7,304.3,237.3,304.3z"/>
	<path class="st2" d="M97.6,390.4c-0.1,0-0.1,0-0.2,0C97.5,390.4,97.5,390.4,97.6,390.4z"/>
	<path class="st3" d="M207.1,274.4c-5.5-11.7-9.9-23.7-12.7-35.2l-2.6-10.3l-4.9,9.4c-3.4,6.6-6.9,12.3-10.6,17.5
		c-15.9,22.4-40.6,36.2-64.5,49.5c-3.5,1.9-6.9,3.9-10.4,5.8c-10.1,5.8-17.1,14.4-19.8,24.2c-2.4,8.9-1.1,18.1,3.9,26.6
		c3.5,6,8.5,10.7,14.6,13.9c13.5-14,29.9-27.1,48.8-38.3c26.1-15.4,53.2-25,78.1-28.8c-2.2-3-4-8-2.8-7.4c-6.3-10-12-20.5-17-31.2
		c-0.2,1.3-0.3,2.6-0.3,3.9C207.1,274.2,207.1,274.3,207.1,274.4z"/>
	<path class="st2" d="M90.7,388.6c-0.2-0.1-0.4-0.2-0.6-0.2C90.3,388.4,90.5,388.5,90.7,388.6z"/>
	<path class="st2" d="M105.3,390.9c-0.2,0-0.4,0-0.6,0C104.9,390.9,105.1,390.9,105.3,390.9z"/>
	<path class="st2" d="M94.3,389.7c-0.2,0-0.4-0.1-0.6-0.1C93.9,389.6,94.1,389.6,94.3,389.7z"/>
	<path class="st2" d="M101.5,390.8c-0.2,0-0.4,0-0.6-0.1C101.1,390.8,101.3,390.8,101.5,390.8z"/>
	<path class="st4" d="M93.7,389.5c-1-0.3-2-0.6-3-1C91.7,388.9,92.7,389.2,93.7,389.5z"/>
	<path class="st4" d="M97.4,390.3c-1-0.2-2.1-0.4-3.1-0.7C95.3,389.9,96.4,390.2,97.4,390.3z"/>
	<path class="st4" d="M100.9,390.8c-1.1-0.1-2.2-0.2-3.3-0.4C98.7,390.6,99.8,390.7,100.9,390.8z"/>
	<path class="st4" d="M89.4,388c0.2,0.1,0.5,0.2,0.7,0.3C89.8,388.2,89.6,388.1,89.4,388C89.4,388,89.4,388,89.4,388z"/>
	<path class="st4" d="M104.6,390.9c-1.1,0-2.1,0-3.2-0.1C102.5,390.9,103.6,390.9,104.6,390.9z"/>
	<path class="st4" d="M105.3,390.9c0.3,0,0.5,0,0.8,0c0,0-0.1,0-0.1,0C105.7,390.9,105.5,390.9,105.3,390.9z"/>
	<path class="st0" d="M117,380c6.2,0,12.3-1.6,17.8-4.8c4.3-2.5,8.6-5.1,13-7.7c23.5-14,47.8-28.5,75.1-31.1
		c5.7-0.5,11.6-0.7,18-0.5l9.9,0.3l-6.9-7.1c-5.8-6-11.5-12.9-16.8-20.4c-24.9,3.8-52,13.3-78.1,28.8
		c-18.9,11.2-35.4,24.3-48.8,38.3c2.3,1.2,4.7,2.2,7.3,2.9C110.6,379.6,113.8,380,117,380z"/>
	<path class="st5" d="M238.1,321c1.3,1.7,2.7,3.4,4.1,5.1C240.8,324.5,239.4,322.8,238.1,321z"/>
	<path class="st5" d="M233.6,314.9c1.4,1.9,2.7,3.7,4.1,5.6C236.3,318.7,234.9,316.8,233.6,314.9z"/>
	<path class="st5" d="M243,327.1c1.4,1.7,2.9,3.4,4.4,5.1C245.9,330.5,244.4,328.8,243,327.1z"/>
	<path class="st5" d="M248.2,333.2c1.5,1.7,3.1,3.4,4.6,5C251.3,336.5,249.8,334.9,248.2,333.2z"/>
	<path class="st5" d="M108.9,390.6c-0.1,0-0.2,0-0.4,0C108.7,390.6,108.8,390.6,108.9,390.6z"/>
	<path class="st5" d="M112.5,390c-0.1,0-0.3,0.1-0.4,0.1C112.2,390,112.3,390,112.5,390z"/>
	<path class="st5" d="M119.9,387.5c-0.2,0.1-0.3,0.2-0.5,0.2C119.6,387.6,119.7,387.5,119.9,387.5z"/>
	<path class="st5" d="M116.3,388.9c-0.2,0.1-0.4,0.1-0.6,0.2C115.9,389,116.1,389,116.3,388.9z"/>
	<path class="st5" d="M237.7,320.5c0.1,0.2,0.3,0.3,0.4,0.5C238,320.9,237.8,320.7,237.7,320.5z"/>
	<path class="st5" d="M115.7,389.1c-1.1,0.3-2.1,0.6-3.2,0.9C113.5,389.7,114.6,389.4,115.7,389.1z"/>
	<path class="st5" d="M119.4,387.7c-1,0.5-2.1,0.8-3.1,1.2C117.3,388.6,118.4,388.2,119.4,387.7z"/>
	<path class="st5" d="M123.1,385.8c-1,0.6-2.1,1.1-3.2,1.6C121,387,122,386.4,123.1,385.8z"/>
	<path class="st5" d="M112.1,390.1c-1,0.2-2.1,0.4-3.2,0.5C110,390.5,111,390.3,112.1,390.1z"/>
	<path class="st5" d="M106,390.8c0,0,0.1,0,0.1,0c0.8,0,1.7-0.1,2.5-0.2C107.7,390.8,106.8,390.8,106,390.8z"/>
	<path class="st5" d="M232.6,313.7c0.3,0.4,0.6,0.9,0.9,1.3C233.2,314.5,232.9,314.1,232.6,313.7z"/>
	<path class="st5" d="M247.4,332.2c0.3,0.3,0.6,0.7,0.9,1C247.9,332.8,247.6,332.5,247.4,332.2z"/>
	<path class="st5" d="M242.2,326.1c0.3,0.3,0.5,0.7,0.8,1C242.7,326.8,242.4,326.5,242.2,326.1z"/>
	<g>
		<g>
			<path class="st6" d="M205.2,117c0.6,1.6-0.2,3.5-2,4.1c-2.6,0.9-3.8-0.4-5.6-3.8c-1.4,4.1-4.3,7.5-9.9,9.4
				c-13.9,4.9-22.6-2.9-26.5-13.9c-4.7-13.3,1.1-23.6,13.3-27.8c10-3.5,17.4,0.6,18.6,4.1c1.1,3.1-0.9,4.8-2.8,5.4
				c-4.4,1.5-5-5.2-13.7-2.1c-6.2,2.2-9.7,7.9-6.2,17.9c2.7,7.8,8.4,11.8,15.8,9.2c4.8-1.7,7.8-6.4,6.6-11.3l-5.9,2.1
				c-1.9,0.7-4.3,0.7-5.3-2c-0.8-2.2,0.1-3.9,2.3-4.7l11.1-3.9c2.6-0.9,4.1,0,5,2.5L205.2,117z"/>
			<path class="st6" d="M211,104.1l-0.7,0.5c-0.6,0.5-1.2,0.7-1.7,0.7c-1.5,0.1-2.6-0.9-2.7-2.4c-0.1-1.3,0.5-2,2-3.1l2.6-1.9
				l-1.4-16.8c-0.2-2.8,1.5-4.9,4.4-5.1c2.9-0.2,4.9,1.5,5.1,4.4l1,11.9l8-5.7c0.6-0.5,1.2-0.7,1.8-0.7c1.3-0.1,2.6,0.8,2.7,2.5
				c0.1,1.2-0.6,2-2,3l-10,7.1l1,11.7l15.8-1.3c2.7-0.2,5,1,5.2,3.6c0.2,2.6-1.9,4.2-4.6,4.4l-19.8,1.6c-3.4,0.3-5.7-0.9-6-5.1
				L211,104.1z"/>
			<path class="st6" d="M271.6,77.4c13.5,2.4,19.2,12.7,17.1,24.7c-2.1,11.6-10.7,20.9-24.7,18.4c-14.7-2.6-19.1-13.3-16.9-25.8
				C249.2,82.6,258.1,75,271.6,77.4z M265.3,112.9c8.5,1.5,12.6-4.6,14-12.5c1.4-7.9-1.4-14.2-9-15.5c-7.7-1.4-12.4,3.6-13.8,11.5
				C255,104.2,256.5,111.3,265.3,112.9z"/>
			<path class="st6" d="M319.1,112.8c7,5.5,6.8,11.1,4.7,15.5c-3.2,6.8-10.8,9.4-21.2,4.5c-10.9-5.2-13.2-13-11.2-17.1
				c1-2.1,3.2-2.8,5.3-1.8c4.7,2.2,0.2,8.5,8.9,12.6c4.5,2.1,8.1,0.8,9.3-1.7c0.7-1.5,0.8-3.5-1.8-5.7l-8.5-7.1
				c-6.9-5.7-6.2-10.7-4.3-14.7c4-8.4,13.3-7.8,20.5-4.4c6.7,3.2,12.8,10.7,10.4,15.8c-1,2.1-3.5,2.5-5.6,1.5c-4-1.9-0.6-7.2-8.6-11
				c-4-1.9-7.1-1.1-8.3,1.5c-1.2,2.6,1.5,5,3.9,6.9L319.1,112.8z"/>
			<path class="st6" d="M364,125.9c2.8-2.6,5.2-1.2,7,0.7l1.9,2.1c2,2.2,2.1,4,0.3,6.9l-14.3,24.1l0.1,0.1l25.4-11.9
				c3-1.4,4.8-1.1,6.8,1l1.8,2c1.7,1.9,2.8,4.4,0,7l-25.2,22.7c-1.8,1.6-4.2,2.2-6.3,0c-2.1-2.3-1.2-4.7,0.6-6.3l19.2-17.3l-0.1-0.1
				l-26.5,12c-1.9,0.9-3.5,0.3-4.8-1.1c-1.3-1.5-1.7-3.1-0.7-4.9l14.6-25.2l-0.1-0.1L344.4,155c-1.8,1.6-4.2,2.2-6.3,0
				c-2.1-2.3-1.2-4.7,0.6-6.3L364,125.9z"/>
			<path class="st6" d="M380.5,182.3l-0.7-0.4c-0.6-0.4-1.1-0.8-1.3-1.3c-0.7-1.4-0.1-2.7,1.2-3.4c1.1-0.6,2.1-0.3,3.6,0.7l2.8,1.7
				l15.1-7.5c2.5-1.3,5.1-0.5,6.4,2.1c1.3,2.6,0.4,5.1-2.1,6.4l-10.6,5.3l8.3,5.3c0.6,0.4,1.1,0.8,1.4,1.4c0.6,1.2,0.2,2.7-1.3,3.4
				c-1.1,0.5-2.1,0.2-3.6-0.8l-10.3-6.6l-10.5,5.2l7.1,14.2c1.2,2.4,1,5-1.4,6.2c-2.3,1.2-4.6-0.2-5.8-2.6l-8.9-17.8
				c-1.5-3-1.3-5.6,2.5-7.5L380.5,182.3z"/>
			<path class="st6" d="M427.8,228.5c2.8,13.4-4.5,22.6-16.5,25.1c-11.5,2.4-23.3-2.1-26.3-16c-3.1-14.7,5.2-22.7,17.5-25.3
				C414.5,209.7,425,215.1,427.8,228.5z M392.5,236c1.8,8.5,9,10,16.8,8.3c7.8-1.7,12.6-6.6,11-14.2c-1.6-7.6-8-10.2-15.8-8.5
				C396.7,223.3,390.6,227.3,392.5,236z"/>
			<path class="st6" d="M426.3,265.2c4.2,0.3,5.4,2.6,5.1,6l-0.9,11.6c-0.8,10.4-6,19.5-22.3,18.3c-13.2-1-20.3-8.9-19.3-21.6
				l0.9-11.4c0.3-3.4,1.7-5.5,6-5.1L426.3,265.2z M397.1,272.6l-0.6,8c-0.6,7.6,6,10.5,12.5,11c8.2,0.6,13.4-2.1,13.9-9.1l0.6-7.9
				L397.1,272.6z"/>
			<path class="st6" d="M398.5,317.2l22.1-4.9c0.9-0.2,1.8-0.3,2.6,0c3.1,1,3.2,4.2,2.6,5.9c-0.7,2.1-1.9,2.8-4,3.2l-17.1,3
				l11.9,12.6c1.6,1.7,2,2.9,1.3,4.8c-0.6,1.6-2.5,4.1-5.6,3.1c-0.8-0.3-1.5-0.9-2.1-1.6l-14.7-17.2l-11.7-3.9c-2.7-0.9-3.9-3.3-3-6
				c0.9-2.8,3.3-3.9,6-3L398.5,317.2z"/>
			<path class="st6" d="M400.9,374.2c-5.8,9.2-14.8,10.7-18.2,8.5c-2.3-1.4-2.9-3.5-1.4-5.9c2.9-4.7,8.5,0.7,13.1-6.7
				c3.2-5.1,1.4-12-6.2-16.8c-6.4-4-13.7-5-18,2c-4,6.3,2.9,10.5,0.5,14.3c-1.2,2-3.6,3.2-5.6,2c-5.1-3.2-6.3-12.6-1.4-20.4
				c6.9-11.1,17.4-13.6,29.6-6C403.2,351.6,408.1,362.8,400.9,374.2z"/>
			<path class="st6" d="M378.9,396.2c1.9,2.1,1.8,4.8-0.3,6.7c-2.1,2-4.8,1.8-6.7-0.3l-8-8.7l-12.8,11.7l8,8.7
				c1.9,2.1,1.8,4.8-0.3,6.7c-2.1,2-4.8,1.8-6.7-0.3l-22.8-24.9c-1.9-2.1-1.8-4.8,0.3-6.7c2.1-2,4.8-1.8,6.7,0.3l9.4,10.3l12.8-11.7
				l-9.4-10.3c-1.9-2.1-1.8-4.8,0.3-6.7c2.1-2,4.8-1.8,6.7,0.3L378.9,396.2z"/>
		</g>
	</g>
	<path class="st5" d="M114.7,319.3c-1.9,0.8-3.7,1.6-5.6,2.3c-3.2,1.3-4.8,5-3.5,8.2c1.3,3.2,5,4.8,8.2,3.5c1.9-0.8,3.8-1.6,5.7-2.4
		c3.2-1.3,4.7-5,3.4-8.2C121.6,319.4,118,317.9,114.7,319.3z"/>
	<path class="st5" d="M175.4,283.1c-6.3,5.2-12.7,9.9-19.4,14.4c-6.6,4.4-13.5,8.5-21,12.3c-3.1,1.6-4.3,5.4-2.7,8.5
		c1.6,3.1,5.4,4.3,8.5,2.7c7.9-4.1,15.2-8.4,22.2-13c7-4.6,13.7-9.6,20.4-15.2c2.7-2.2,3.1-6.2,0.9-8.9
		C182.1,281.2,178.1,280.9,175.4,283.1z"/>
	<path class="st7" d="M114.7,319.3c-1.9,0.8-3.7,1.6-5.6,2.3c-3.2,1.3-4.8,5-3.5,8.2c1.3,3.2,5,4.8,8.2,3.5c1.9-0.8,3.8-1.6,5.7-2.4
		c3.2-1.3,4.7-5,3.4-8.2C121.6,319.4,118,317.9,114.7,319.3z"/>
	<path class="st7" d="M175.4,283.1c-6.3,5.2-12.7,9.9-19.4,14.4c-6.6,4.4-13.5,8.5-21,12.3c-3.1,1.6-4.3,5.4-2.7,8.5
		c1.6,3.1,5.4,4.3,8.5,2.7c7.9-4.1,15.2-8.4,22.2-13c7-4.6,13.7-9.6,20.4-15.2c2.7-2.2,3.1-6.2,0.9-8.9
		C182.1,281.2,178.1,280.9,175.4,283.1z"/>
	<path class="st1" d="M216,197.2c-3.6-1.7-7-1.7-8.1,2.9c-1.2,4.8-1.3,9.8-1,14.7c0.7,11,3.4,21.8,6.9,32.2
		c1.1,3.4,2.4,6.8,3.7,10.2c4.8-5.6,11.9-9.2,19.9-9.2c14.5,0,26.2,11.7,26.2,26.2c0,13.1-9.6,23.9-22.2,25.9
		c0.4,0.6,0.8,1.2,1.2,1.8c7,9.6,14.7,19,24.2,26.3c5.7,4.4,25.3,17,26.3,2.5C295.4,295.8,248.4,212.1,216,197.2z"/>
	<path class="st7" d="M222.7,182.5c-8.4-3.9-14.7-4.9-19.1-3.1c-5.5,2.2-9,9.2-13,19.7c-9,23.7-16,38.1-24.2,49.7
		c-14.5,20.4-39.4,34.2-61.3,46.4c-3.9,2.2-7.8,4.3-11.5,6.5c-11.7,6.7-20.1,17.4-23.5,30.1c-0.4,1.5-0.7,3.1-1,4.6
		c-1.8,10.8,0.2,21.9,5.9,31.7c4.1,7.2,10,12.9,16.7,17c4.4,2.6,9.2,4.6,14.2,5.7c0.9,0,1.7-0.1,2.6-0.2c-0.8,0.1-1.7,0.2-2.5,0.2
		c8.1,1.9,16.8,1.7,25.1-0.9l2.1-0.6l35,28.7c10.4,8.5,26.5,7.8,36-1.7c4.7-4.7,7.1-10.9,6.8-17.4c-0.3-6.6-3.4-12.5-8.6-16.8
		l-23-18.9l5.4-2.8c13.3-6.9,25.7-10.7,39.2-12c14.1-1.3,30.1-0.2,55.4,4l0.3,0.1c8,1.9,15.5,0.7,20.9-3.4c5.1-3.8,8.1-9.9,8.6-17.5
		C312.1,288,261.2,200.2,222.7,182.5z M194.7,391.6c5.8,4.8,5.1,11,1.8,15c-2.7,3.3-7.1,5.3-11.6,5.3c-3.1,0-6.3-1-9-3.2L145,383.3
		l23.3-13.5L194.7,391.6z M240.9,336c-6.4-0.2-12.3,0-18,0.5c-27.3,2.6-51.6,17.1-75.1,31.1c-4.3,2.6-8.7,5.2-13,7.7
		c-5.5,3.2-11.6,4.8-17.8,4.8c-3.2,0-6.4-0.4-9.5-1.3c-2.6-0.7-5-1.7-7.3-2.9C94.1,372.7,89,368,85.6,362
		c-4.9-8.5-6.3-17.7-3.9-26.6c2.7-9.8,9.7-18.4,19.8-24.2c3.4-2,6.9-3.9,10.4-5.8c23.9-13.3,48.6-27.1,64.5-49.5
		c3.7-5.2,7.2-11,10.6-17.5l4.9-9.4c0,0,2.6,10.3,2.6,10.3c2.1,8.6,4.9,17.1,8.3,25.3c3.3,7.9,7.5,15.2,11.5,22.8
		c4,7.3,8.1,14.7,12.9,21.5c5.3,7.5,10.9,14.3,16.8,20.4l6.9,7.1L240.9,336z M297,330.9L297,330.9c-0.4,5.9-3.3,8.5-5.7,9.6
		c-9,4-24-6.9-26.9-9.2c-10.7-8.2-18.9-18.7-24.9-27c-0.7,0.1-1.4,0.1-2.1,0.1c-2.9,0-5.6-0.4-8.2-1.2c-2.1-2.6-6.4-10.8-10.6-19.1
		c-4.6-9.2-9-18.4-9.7-19.9c1-2.7,2.3-5.3,4-7.7c-1-2.7-2-5.4-2.9-8.2c-4.2-12.8-6.4-23.4-7.1-33.2c-0.4-6.2-0.1-11.3,1.1-15.9
		c0.9-3.7,3-5.4,4.5-6.2c2.5-1.2,5.6-1,9.2,0.6C250.6,208.7,299.6,293.4,297,330.9z"/>
	<path class="st8" d="M282,253.9c-21.1-42.9-53-71.7-71.2-64.4c-14.1,5.7-15.8,31.3-6.1,62.5c6.6-6.4,15.7-10.4,25.7-10.2
		c20,0.3,35.9,16.7,35.6,36.7c-0.3,17.5-13,31.8-29.6,34.9c18,23.5,38,36.7,50.9,31.4C305.6,337.5,303.2,296.8,282,253.9z"/>
	<path class="st9" d="M266,278.5c0.3-20-15.6-36.4-35.6-36.7c-10-0.2-19.1,3.8-25.7,10.2c2.8,9.1,6.7,18.7,11.4,28.4
		c6.1,12.3,13,23.5,20.3,32.9C253,310.3,265.7,296,266,278.5z"/>
</g>
</svg>
