<?xml version="1.0" encoding="UTF-8" standalone="no"?>
<svg
   viewBox="0 0 425.88416 372.56"
   version="1.1"
   id="svg7218"
   width="425.88416"
   height="372.56"
   xmlns="http://www.w3.org/2000/svg"
   xmlns:svg="http://www.w3.org/2000/svg">
  <defs
     id="defs7222" />
  <g
     id="freepik--background-complete--inject-2"
     transform="translate(-38.21,-55)">
    <rect
       y="382.39999"
       width="419.17972"
       height="0.25"
       style="fill:#ebebeb;stroke-width:0.915619"
       id="rect6975"
       x="40.410133" />
    <rect
       x="416.78"
       y="398.48999"
       width="33.119999"
       height="0.25"
       style="fill:#ebebeb"
       id="rect6977" />
    <rect
       x="260.32999"
       y="395.35999"
       width="12.89"
       height="0.25"
       style="fill:#ebebeb"
       id="rect6979" />
    <rect
       x="322.53"
       y="396.42001"
       width="27.139999"
       height="0.25"
       style="fill:#ebebeb"
       id="rect6981" />
    <rect
       x="359.67001"
       y="389.20999"
       width="56.110001"
       height="0.25"
       style="fill:#ebebeb"
       id="rect6983" />
    <rect
       x="52.459999"
       y="400.78"
       width="26.530001"
       height="0.25"
       style="fill:#ebebeb"
       id="rect6985" />
    <rect
       x="87.889999"
       y="400.78"
       width="23"
       height="0.25"
       style="fill:#ebebeb"
       id="rect6987" />
    <rect
       x="131"
       y="395.23999"
       width="60.810001"
       height="0.25"
       style="fill:#ebebeb"
       id="rect6989" />
    <path
       d="M 237,337.8 H 43.92 a 5.71,5.71 0 0 1 -5.71,-5.71 V 60.66 A 5.71,5.71 0 0 1 43.92,55 H 237 a 5.71,5.71 0 0 1 5.71,5.71 V 332.09 A 5.71,5.71 0 0 1 237,337.8 Z M 43.92,55.2 a 5.47,5.47 0 0 0 -5.46,5.46 v 271.43 a 5.47,5.47 0 0 0 5.46,5.46 H 237 a 5.47,5.47 0 0 0 5.46,-5.46 V 60.66 A 5.47,5.47 0 0 0 237,55.2 Z"
       style="fill:#ebebeb"
       id="path6991" />
    <path
       d="m 453.31,337.8 h -193.1 a 5.72,5.72 0 0 1 -5.71,-5.71 V 60.66 A 5.72,5.72 0 0 1 260.21,55 h 193.1 a 5.71,5.71 0 0 1 5.69,5.66 v 271.43 a 5.71,5.71 0 0 1 -5.69,5.71 z M 260.21,55.2 a 5.47,5.47 0 0 0 -5.46,5.46 v 271.43 a 5.47,5.47 0 0 0 5.46,5.46 h 193.1 a 5.47,5.47 0 0 0 5.46,-5.46 V 60.66 a 5.47,5.47 0 0 0 -5.46,-5.46 z"
       style="fill:#ebebeb"
       id="path6993" />
    <rect
       x="74.660004"
       y="94.699997"
       width="148.38"
       height="156.58"
       transform="rotate(180,148.855,172.995)"
       style="fill:#e6e6e6"
       id="rect6995" />
    <rect
       x="68.370003"
       y="94.699997"
       width="151.74001"
       height="156.58"
       transform="rotate(180,144.235,172.995)"
       style="fill:#f0f0f0"
       id="rect6997" />
    <rect
       x="74.660004"
       y="251.28"
       width="148.38"
       height="5.8499999"
       transform="rotate(180,148.855,254.21)"
       style="fill:#e6e6e6"
       id="rect6999" />
    <rect
       x="57.880001"
       y="251.28"
       width="151.74001"
       height="5.8499999"
       transform="rotate(180,133.75,254.21)"
       style="fill:#f0f0f0"
       id="rect7001" />
    <rect
       x="74.760002"
       y="105.94"
       width="138.95"
       height="134.11"
       transform="rotate(90,144.235,172.995)"
       style="fill:#fafafa"
       id="rect7003" />
    <polygon
       points="165.62,242.47 144.34,103.52 119.92,103.52 141.2,242.47 "
       style="fill:#ffffff"
       id="polygon7005" />
    <polygon
       points="135.95,242.47 114.67,103.52 105.15,103.52 126.43,242.47 "
       style="fill:#ffffff"
       id="polygon7007" />
    <rect
       x="8.2700005"
       y="172.42999"
       width="138.95"
       height="1.12"
       transform="rotate(90,77.745,172.995)"
       style="fill:#e6e6e6"
       id="rect7009" />
    <rect
       x="74.269997"
       y="167.44"
       width="139.92999"
       height="11.11"
       style="fill:#f0f0f0"
       id="rect7011" />
    <rect
       x="273.22"
       y="175.92"
       width="17.059999"
       height="206.48"
       transform="rotate(180,281.755,279.16)"
       style="fill:#e6e6e6"
       id="rect7013" />
    <polygon
       points="277.71,382.4 273.22,382.4 273.22,374.02 282.41,374.02 "
       style="fill:#f0f0f0"
       id="polygon7015" />
    <rect
       x="411.29999"
       y="175.92"
       width="17.059999"
       height="206.48"
       transform="rotate(180,419.835,279.16)"
       style="fill:#e6e6e6"
       id="rect7017" />
    <rect
       x="273.22"
       y="175.92"
       width="142"
       height="203.55"
       transform="rotate(180,344.22,277.695)"
       style="fill:#f0f0f0"
       id="rect7019" />
    <rect
       x="276.70001"
       y="179.25"
       width="135.03999"
       height="58.98"
       rx="3.24"
       transform="rotate(180,344.22,208.74)"
       style="fill:#e6e6e6"
       id="rect7021" />
    <polygon
       points="410.73,382.4 415.22,382.4 415.22,374.02 406.03,374.02 "
       style="fill:#f0f0f0"
       id="polygon7023" />
    <rect
       x="276.70001"
       y="247.77"
       width="135.03999"
       height="58.98"
       rx="3.24"
       transform="rotate(180,344.22,277.255)"
       style="fill:#e6e6e6"
       id="rect7025" />
    <rect
       x="276.70001"
       y="316.28"
       width="135.03999"
       height="58.98"
       rx="3.24"
       transform="rotate(180,344.22,345.77)"
       style="fill:#e6e6e6"
       id="rect7027" />
    <path
       d="m 317.08,186.53 h 51.27 c 2.16,0 4.23,-3.22 5.71,-8.89 h -62.7 c 1.49,5.67 3.56,8.89 5.72,8.89 z"
       style="fill:#f0f0f0"
       id="path7029" />
    <path
       d="m 317.08,255 h 51.27 c 2.16,0 4.23,-3.21 5.71,-8.89 h -62.7 c 1.49,5.72 3.56,8.89 5.72,8.89 z"
       style="fill:#f0f0f0"
       id="path7031" />
    <path
       d="m 317.08,323.55 h 51.27 c 2.16,0 4.23,-3.21 5.71,-8.89 h -62.7 c 1.49,5.68 3.56,8.89 5.72,8.89 z"
       style="fill:#f0f0f0"
       id="path7033" />
    <path
       d="m 380.48,147.34 c 0,0 0.23,28.81 8.92,28.81 8.69,0 8.93,-28.81 8.93,-28.81 z"
       style="fill:#e6e6e6"
       id="path7035" />
    <path
       d="m 286.67,147.55 c 0,0 0.56,28.6 22.23,28.6 21.67,0 22.23,-28.6 22.23,-28.6 z"
       style="fill:#e6e6e6"
       id="path7037" />
    <path
       d="m 314.37,154.73 c 0,0 0.42,21.42 16.65,21.42 16.23,0 16.65,-21.42 16.65,-21.42 z"
       style="fill:#f0f0f0"
       id="path7039" />
    <path
       d="m 336,160.45 c 0,0 0.31,15.7 12.2,15.7 11.89,0 12.2,-15.7 12.2,-15.7 z"
       style="fill:#ebebeb"
       id="path7041" />
    <path
       d="m 395,151.57 a 0.71,0.71 0 0 1 -0.32,-0.07 c -1,-0.49 -9.25,-4.85 -8.69,-9.11 a 10.19,10.19 0 0 1 1.8,-4.12 c 1.16,-1.83 2,-3.14 0.55,-5.12 -2.22,-3 0.2,-5.49 2.34,-7.67 a 15.26,15.26 0 0 0 2.64,-3.18 c 0.88,-1.64 0.17,-2.89 -0.81,-4.62 a 11,11 0 0 1 -1.83,-5.41 12.38,12.38 0 0 1 5.94,-10.79 0.7,0.7 0 1 1 0.68,1.22 10.93,10.93 0 0 0 -5.22,9.55 9.7,9.7 0 0 0 1.64,4.74 c 1,1.79 2.07,3.65 0.82,6 a 16.44,16.44 0 0 1 -2.87,3.5 c -2.31,2.36 -3.65,3.9 -2.21,5.87 2,2.74 0.68,4.84 -0.49,6.68 a 8.88,8.88 0 0 0 -1.59,3.56 c -0.37,2.79 5.6,6.49 7.93,7.68 A 0.7,0.7 0 0 1 395,151.6 Z"
       style="fill:#e6e6e6"
       id="path7043" />
    <path
       d="m 400.12,83.67 c 0,0 -11.15,12 -3.6,19.52 13.67,0 3.6,-19.52 3.6,-19.52 z"
       style="fill:#f0f0f0"
       id="path7045" />
    <path
       d="m 384.27,87.12 c 0,0 1,16.33 11.66,16.06 9.43,-9.9 -11.66,-16.06 -11.66,-16.06 z"
       style="fill:#f0f0f0"
       id="path7047" />
    <path
       d="m 405,113.64 c 0,0 -11.53,-0.74 -12.27,6.77 6.15,7.47 12.27,-6.77 12.27,-6.77 z"
       style="fill:#f0f0f0"
       id="path7049" />
    <path
       d="m 383.41,102.75 c 0,0 1.36,11.47 8.88,10.85 6.24,-7.37 -8.88,-10.85 -8.88,-10.85 z"
       style="fill:#f0f0f0"
       id="path7051" />
    <path
       d="m 382.78,123.43 c 0,0 6.84,3 5.06,7.5 -5.71,2.49 -5.06,-7.5 -5.06,-7.5 z"
       style="fill:#f0f0f0"
       id="path7053" />
    <path
       d="m 394.08,131.33 c 0,0 -1.28,5.58 -4.95,4.88 -2.69,-3.97 4.95,-4.88 4.95,-4.88 z"
       style="fill:#f0f0f0"
       id="path7055" />
    <path
       d="m 398.39,125.75 c 0,0 -5.77,4.73 -9,1.08 0.41,-6.22 9,-1.08 9,-1.08 z"
       style="fill:#f0f0f0"
       id="path7057" />
    <rect
       x="72.199997"
       y="289.44"
       width="70.860001"
       height="92.959999"
       style="fill:#f5f5f5"
       id="rect7059" />
    <rect
       x="41.639999"
       y="335.29999"
       width="75.860001"
       height="1.23"
       transform="rotate(90,79.57,335.92)"
       style="fill:#e6e6e6"
       id="rect7061" />
    <rect
       x="78.949997"
       y="297.98999"
       width="56.240002"
       height="1.5599999"
       style="fill:#e6e6e6"
       id="rect7063" />
    <rect
       x="144.3"
       y="289.44"
       width="70.860001"
       height="92.959999"
       style="fill:#f5f5f5"
       id="rect7065" />
    <rect
       x="215.16"
       y="289.44"
       width="7.0599999"
       height="92.959999"
       transform="rotate(180,218.69,335.92)"
       style="fill:#e0e0e0"
       id="rect7067" />
    <rect
       x="113.73"
       y="335.29999"
       width="75.860001"
       height="1.23"
       transform="rotate(90,151.66,335.92)"
       style="fill:#e6e6e6"
       id="rect7069" />
    <rect
       x="97.82"
       y="335.92999"
       width="91.709999"
       height="1.23"
       transform="rotate(90,143.68,336.54)"
       style="fill:#e6e6e6"
       id="rect7071" />
    <rect
       x="151.03999"
       y="297.98999"
       width="56.240002"
       height="1.5599999"
       style="fill:#e6e6e6"
       id="rect7073" />
    <path
       d="m 139.4,298.77 v 0 a 1.33,1.33 0 0 1 1.33,1.32 v 21.6 A 1.33,1.33 0 0 1 139.4,323 v 0 a 1.33,1.33 0 0 1 -1.33,-1.32 v -21.6 a 1.33,1.33 0 0 1 1.33,-1.31 z"
       style="fill:#e0e0e0"
       id="path7075" />
    <path
       d="m 148,298.77 v 0 a 1.33,1.33 0 0 1 1.33,1.32 v 21.6 A 1.33,1.33 0 0 1 148,323 v 0 a 1.32,1.32 0 0 1 -1.32,-1.32 v -21.6 a 1.32,1.32 0 0 1 1.32,-1.31 z"
       style="fill:#e0e0e0"
       id="path7077" />
    <rect
       x="70"
       y="286.28"
       width="154.5"
       height="4.4099998"
       style="fill:#ebebeb"
       id="rect7079" />
    <rect
       x="212.17"
       y="286.28"
       width="12.33"
       height="4.4099998"
       style="fill:#e0e0e0"
       id="rect7081" />
  </g>
  <g
     id="freepik--Shadow--inject-2"
     transform="translate(-38.21,-55)">
    <ellipse
       id="freepik--path--inject-2"
       cx="250"
       cy="416.23999"
       rx="193.89"
       ry="11.32"
       style="fill:#f5f5f5" />
  </g>
  <g
     id="freepik--Application--inject-2"
     transform="translate(-38.21,-55)">
    <rect
       x="435.26001"
       y="98.279999"
       width="1"
       height="20.969999"
       transform="rotate(-69.92,435.77807,108.76281)"
       style="fill:#60a3ab"
       id="rect7086" />
    <rect
       x="417.26999"
       y="98.849998"
       width="1"
       height="6.6900001"
       transform="rotate(-69.92,417.78288,102.18618)"
       style="fill:#60a3ab"
       id="rect7088" />
    <path
       d="m 352.57,81.56 104.05,38 a 11.42,11.42 0 0 1 6.79,14.61 l -79.66,218 a 11.42,11.42 0 0 1 -14.61,6.79 l -104,-38 a 11.43,11.43 0 0 1 -6.79,-14.61 L 338,88.35 a 11.42,11.42 0 0 1 14.57,-6.79 z"
       style="fill:#60a3ab"
       id="path7090" />
    <path
       d="m 379.71,350.52 79.57,-217.68 a 7.73,7.73 0 0 0 -4.61,-9.92 L 349.22,84.38 A 7.73,7.73 0 0 0 339.3,89 l -79.56,217.67 a 7.72,7.72 0 0 0 4.61,9.92 l 105.44,38.55 a 7.73,7.73 0 0 0 9.92,-4.62 z"
       style="fill:#ffffff"
       id="path7092" />
    <path
       d="m 413.72,106.42 v 0 a 11.38,11.38 0 0 1 -13,3.89 l -2.1,-0.77 a 11.37,11.37 0 0 1 -7.44,-11.37 v 0 z"
       style="fill:#60a3ab"
       id="path7094" />
    <path
       d="m 376.65,349.45 v 0 a 1.91,1.91 0 0 0 2.44,-1.13 L 457.24,134.5 a 1.91,1.91 0 0 0 -1.13,-2.44 v 0 a 1.91,1.91 0 0 0 -2.44,1.13 L 375.52,347 a 1.91,1.91 0 0 0 1.13,2.45 z"
       style="opacity:0.1;fill:#263238"
       id="path7096" />
    <path
       d="m 262.77,307.82 v 0 a 1.91,1.91 0 0 0 2.44,-1.13 L 343.36,92.87 a 1.9,1.9 0 0 0 -1.13,-2.43 v 0 a 1.91,1.91 0 0 0 -2.44,1.13 l -78.15,213.82 a 1.9,1.9 0 0 0 1.13,2.43 z"
       style="opacity:0.1;fill:#263238"
       id="path7098" />
    <g
       style="opacity:0.9"
       id="g7118">
      <rect
         x="217.60001"
         y="160.45"
         width="229.21001"
         height="118.42"
         rx="9.3500004"
         transform="rotate(98.79,332.19564,219.64009)"
         style="fill:#ffffff"
         id="rect7100" />
      <path
         d="m 365.41,341.15 a 9.7,9.7 0 0 1 -1.51,-0.12 L 265.34,325.8 a 9.86,9.86 0 0 1 -8.23,-11.23 l 32.16,-208 a 9.85,9.85 0 0 1 11.23,-8.23 l 98.56,15.23 a 9.86,9.86 0 0 1 8.23,11.24 l -32.15,208 a 9.88,9.88 0 0 1 -9.73,8.34 z M 299,99.17 a 8.88,8.88 0 0 0 -8.73,7.5 L 258.1,314.72 a 8.85,8.85 0 0 0 7.39,10.09 L 364.05,340 a 8.86,8.86 0 0 0 10.1,-7.39 l 0.49,0.08 -0.49,-0.08 32.15,-208 a 8.86,8.86 0 0 0 -7.39,-10.1 L 300.35,99.28 A 9.14,9.14 0 0 0 299,99.17 Z"
         style="fill:#60a3ab"
         id="path7102" />
      <path
         d="m 383.27,196.15 a 10.64,10.64 0 0 1 -1.48,-0.11 l -89.74,-13.87 a 9.55,9.55 0 0 1 -8,-10.91 l 6.58,-42.53 a 9.41,9.41 0 0 1 3.79,-6.25 9.5,9.5 0 0 1 7.11,-1.74 l 89.74,13.87 a 9.58,9.58 0 0 1 8,10.9 l -6.57,42.54 a 9.57,9.57 0 0 1 -9.43,8.1 z m -83.2,-74.52 a 8.55,8.55 0 0 0 -8.44,7.25 l -6.57,42.54 a 8.55,8.55 0 0 0 7.15,9.76 L 382,195.05 a 8.55,8.55 0 0 0 9.76,-7.15 l 6.57,-42.54 a 8.57,8.57 0 0 0 -7.15,-9.76 l -89.74,-13.87 a 8.38,8.38 0 0 0 -1.37,-0.1 z"
         style="fill:#60a3ab"
         id="path7104" />
      <path
         d="m 371.32,260.81 a 12.5,12.5 0 0 1 -1.82,-0.14 L 284.26,247.5 a 11.833472,11.833472 0 0 1 3.61,-23.39 l 85.25,13.18 a 11.84,11.84 0 0 1 9.88,13.5 11.85,11.85 0 0 1 -11.68,10.02 z M 286.06,225 a 10.83,10.83 0 0 0 -1.65,21.54 l 85.24,13.17 A 10.84,10.84 0 0 0 382,250.63 v 0 a 10.81,10.81 0 0 0 -9,-12.35 L 287.72,225.1 a 11.72,11.72 0 0 0 -1.66,-0.1 z"
         style="fill:#60a3ab"
         id="path7106" />
      <path
         d="m 367,288.82 a 11.24,11.24 0 0 1 -1.82,-0.14 l -85.24,-13.17 a 11.83,11.83 0 1 1 3.61,-23.38 L 368.8,265.3 A 11.83,11.83 0 0 1 367,288.82 Z M 281.71,253 a 10.83,10.83 0 0 0 -1.63,21.53 l 85.25,13.18 a 10.831414,10.831414 0 0 0 3.3,-21.41 L 283.39,253.13 A 10.56,10.56 0 0 0 281.71,253 Z"
         style="fill:#60a3ab"
         id="path7108" />
      <path
         d="m 362.68,316.84 a 12.77,12.77 0 0 1 -1.84,-0.14 L 275.6,303.52 a 11.83,11.83 0 0 1 3.61,-23.38 l 85.25,13.17 a 11.85,11.85 0 0 1 9.88,13.5 l -0.49,-0.07 0.49,0.07 a 11.84,11.84 0 0 1 -11.66,10 z M 277.4,281 a 10.83,10.83 0 0 0 -1.65,21.54 L 361,315.71 a 10.83,10.83 0 0 0 12.35,-9 v 0 A 10.83,10.83 0 0 0 364.3,294.35 L 279.06,281.18 A 10.41,10.41 0 0 0 277.4,281 Z"
         style="fill:#60a3ab"
         id="path7110" />
      <path
         d="m 377.74,216.76 a 3.52,3.52 0 0 1 -0.64,0 l -42.64,-6.59 a 4.16,4.16 0 0 1 -3.48,-4.75 4.18,4.18 0 0 1 4.76,-3.49 l 42.64,6.6 a 4.09,4.09 0 0 1 2.72,1.65 4.14,4.14 0 0 1 0.76,3.1 v 0 a 4.17,4.17 0 0 1 -4.12,3.48 z M 335.1,202.84 a 3.17,3.17 0 0 0 -0.49,6.3 l 42.65,6.59 a 3.18,3.18 0 0 0 2.35,-0.58 3.13,3.13 0 0 0 1.26,-2.07 v 0 a 3.16,3.16 0 0 0 -2.64,-3.62 l -42.65,-6.59 a 3.87,3.87 0 0 0 -0.48,-0.03 z"
         style="fill:#263238"
         id="path7112" />
      <path
         d="m 375.88,228.82 a 4.72,4.72 0 0 1 -0.64,0 l -60.59,-9.36 a 4.17,4.17 0 0 1 1.28,-8.24 l 60.58,9.36 a 4.18,4.18 0 0 1 3.49,4.76 v 0 a 4.17,4.17 0 0 1 -4.12,3.48 z m -60.6,-16.7 a 3.17,3.17 0 0 0 -2.55,5 3.17,3.17 0 0 0 2.08,1.26 l 60.58,9.36 a 3.17,3.17 0 1 0 1,-6.26 l -60.59,-9.36 a 2.7,2.7 0 0 0 -0.52,0 z"
         style="fill:#263238"
         id="path7114" />
      <circle
         cx="308.79999"
         cy="153.31"
         r="13.67"
         transform="rotate(-47.48,308.82171,153.30931)"
         style="fill:#60a3ab"
         id="circle7116" />
    </g>
    <g
       style="opacity:0.9"
       id="g7138">
      <path
         d="M 299.34,337.81 305,127.37 a 9.36,9.36 0 0 0 -9.1,-9.59 l -99.7,-2.68 a 9.35,9.35 0 0 0 -9.6,9.09 L 181,334.63 a 9.36,9.36 0 0 0 9.1,9.6 l 99.69,2.68 a 9.36,9.36 0 0 0 9.55,-9.1 z"
         style="fill:#60a3ab"
         id="path7120" />
      <path
         d="M 299.34,337.81 305,127.37 a 9.36,9.36 0 0 0 -9.1,-9.59 l -99.7,-2.68 a 9.35,9.35 0 0 0 -9.6,9.09 L 181,334.63 a 9.36,9.36 0 0 0 9.1,9.6 l 99.69,2.68 a 9.36,9.36 0 0 0 9.55,-9.1 z"
         style="opacity:0.1"
         id="path7122" />
      <rect
         x="211.47"
         y="210.86"
         width="61.150002"
         height="108.91"
         rx="9.0600004"
         transform="rotate(91.54,242.04921,265.31158)"
         style="opacity:0.2;fill:#263238"
         id="rect7124" />
      <path
         d="m 263.8,322.62 a 11.73,11.73 0 1 0 12,-11.42 11.72,11.72 0 0 0 -12,11.42 z"
         style="fill:#ffffff"
         id="path7126" />
      <circle
         cx="205.53"
         cy="321.04999"
         r="11.73"
         transform="rotate(-43.46,205.53966,321.07053)"
         style="fill:#ffffff"
         id="circle7128" />
      <path
         d="m 228.8,321.68 a 11.73,11.73 0 1 0 12,-11.42 11.72,11.72 0 0 0 -12,11.42 z"
         style="fill:#ffffff"
         id="path7130" />
      <path
         d="m 299.59,151.25 v 0 a 11.32,11.32 0 0 0 -11,-11.63 l -86.23,-2.32 a 11.33,11.33 0 0 0 -11.63,11 v 0 a 11.33,11.33 0 0 0 11,11.63 l 86.27,2.34 a 11.33,11.33 0 0 0 11.59,-11.02 z"
         style="fill:#ffffff"
         id="path7132" />
      <path
         d="m 298.77,181.71 v 0 a 11.33,11.33 0 0 0 -11,-11.63 l -86.22,-2.32 a 11.33,11.33 0 0 0 -11.63,11 v 0 a 11.33,11.33 0 0 0 11,11.63 l 86.22,2.31 a 11.33,11.33 0 0 0 11.63,-10.99 z"
         style="fill:#ffffff"
         id="path7134" />
      <path
         d="m 298,212.17 v 0 a 11.32,11.32 0 0 0 -11,-11.63 l -86.22,-2.32 a 11.34,11.34 0 0 0 -11.63,11 v 0 a 11.33,11.33 0 0 0 11,11.63 l 86.22,2.31 A 11.33,11.33 0 0 0 298,212.17 Z"
         style="fill:#ffffff"
         id="path7136" />
    </g>
  </g>
  <g
     id="freepik--Character--inject-2"
     transform="translate(-38.21,-55)">
    <path
       d="m 113.69,163.14 -1.18,1.34 -1.25,1.45 -2.46,3 c -1.6,2 -3.18,4 -4.63,6.1 a 64.75,64.75 0 0 0 -7.31,12.67 32.9,32.9 0 0 0 -1.1,3.15 17,17 0 0 0 -0.58,2.89 39.24,39.24 0 0 0 -0.05,7 131.9,131.9 0 0 0 2.27,15.38 l -6.49,2.63 a 62.23,62.23 0 0 1 -3.85,-7.75 61,61 0 0 1 -2.79,-8.35 41.27,41.27 0 0 1 -1.36,-9.3 24.51,24.51 0 0 1 0.39,-5.25 43.77,43.77 0 0 1 1.18,-4.74 67.32,67.32 0 0 1 8,-16.25 c 1.63,-2.45 3.33,-4.82 5.15,-7.08 q 1.35,-1.71 2.79,-3.35 c 0.48,-0.55 1,-1.1 1.46,-1.64 0.46,-0.54 1,-1 1.6,-1.67 z"
       style="fill:#263238"
       id="path7141" />
    <path
       d="m 98.52,216.23 2.7,2.45 -9.49,5 a 11,11 0 0 1 -1,-2.53 4.9,4.9 0 0 1 3.71,-5.93 v 0 a 4.59,4.59 0 0 1 4.08,1.01 z"
       style="fill:#ffb573"
       id="path7143" />
    <polygon
       points="104.86,224.83 96.84,228.59 91.73,223.66 101.22,218.68 "
       style="fill:#ffb573"
       id="polygon7145" />
    <path
       d="m 139.5,126.51 c 0,0.67 0.28,1.22 0.71,1.22 0.43,0 0.82,-0.52 0.86,-1.18 0.04,-0.66 -0.27,-1.22 -0.71,-1.22 -0.44,0 -0.82,0.52 -0.86,1.18 z"
       style="fill:#263238"
       id="path7147" />
    <path
       d="m 139.72,127.72 a 22.67,22.67 0 0 0 2.82,5.76 3.86,3.86 0 0 1 -3.21,0.53 z"
       style="fill:#ff5652"
       id="path7149" />
    <path
       d="m 137.31,122.77 a 0.38,0.38 0 0 0 0.29,-0.06 3.1,3.1 0 0 1 2.81,-0.45 0.41,0.41 0 0 0 0.52,-0.22 0.38,0.38 0 0 0 -0.19,-0.51 4,4 0 0 0 -3.55,0.54 0.39,0.39 0 0 0 -0.13,0.54 0.38,0.38 0 0 0 0.25,0.16 z"
       style="fill:#263238"
       id="path7151" />
    <path
       d="m 120.26,129.05 c 0.8,6.14 1.07,18.53 -3.41,22 0,0 1.46,5 12.67,6.41 12.33,1.53 6.29,-5.34 6.29,-5.34 -6.63,-2.44 -6.14,-7.37 -4.66,-11.88 z"
       style="fill:#ffb573"
       id="path7153" />
    <path
       d="m 90.45,399.1 h 0.08 a 0.85,0.85 0 0 0 0.5,-0.8 0.87,0.87 0 0 0 -0.26,-0.71 c -0.85,-0.86 -3.62,-0.69 -3.73,-0.68 a 0.2,0.2 0 0 0 -0.18,0.12 0.2,0.2 0 0 0 0,0.21 c 0.62,0.57 2.57,2.14 3.59,1.86 z m -2.93,-1.84 c 0.93,0 2.46,0.08 3,0.59 a 0.5,0.5 0 0 1 0.15,0.41 c 0,0.37 -0.19,0.43 -0.24,0.45 -0.58,0.22 -1.99,-0.64 -2.91,-1.45 z"
       style="fill:#60a3ab"
       id="path7155" />
    <path
       d="m 88.43,397.06 c 1,-0.26 2.06,-0.76 2.29,-1.32 a 0.61,0.61 0 0 0 -0.23,-0.76 1.08,1.08 0 0 0 -0.84,-0.22 c -1.23,0.18 -2.7,2.12 -2.76,2.21 a 0.18,0.18 0 0 0 0,0.2 0.21,0.21 0 0 0 0.16,0.11 5.23,5.23 0 0 0 1.38,-0.22 z m 1.12,-1.88 h 0.14 a 0.66,0.66 0 0 1 0.54,0.13 c 0.2,0.16 0.15,0.27 0.13,0.32 -0.21,0.52 -1.84,1.15 -2.9,1.27 a 5.45,5.45 0 0 1 2.09,-1.72 z"
       style="fill:#60a3ab"
       id="path7157" />
    <path
       d="m 140.79,408.24 a 3.42,3.42 0 0 0 2.45,-0.62 0.74,0.74 0 0 0 0,-0.86 0.91,0.91 0 0 0 -0.6,-0.45 c -1.36,-0.38 -4.31,1.26 -4.43,1.33 a 0.24,0.24 0 0 0 -0.11,0.21 0.19,0.19 0 0 0 0.15,0.16 14.86,14.86 0 0 0 2.54,0.23 z m 1.38,-1.6 a 1.45,1.45 0 0 1 0.37,0 0.54,0.54 0 0 1 0.37,0.28 c 0.13,0.24 0.08,0.36 0,0.43 -0.41,0.53 -2.5,0.54 -4,0.33 a 9,9 0 0 1 3.26,-1.04 z"
       style="fill:#60a3ab"
       id="path7159" />
    <path
       d="m 138.31,408 h 0.08 c 1,-0.44 3.06,-2.23 3,-3.16 0,-0.22 -0.17,-0.49 -0.71,-0.55 a 1.52,1.52 0 0 0 -1.1,0.34 c -1.08,0.86 -1.39,3.08 -1.41,3.18 a 0.2,0.2 0 0 0 0.08,0.17 0.15,0.15 0 0 0 0.06,0.02 z m 2.15,-3.35 h 0.12 c 0.35,0 0.36,0.18 0.37,0.22 0.07,0.56 -1.33,2 -2.37,2.57 a 4.75,4.75 0 0 1 1.19,-2.54 1.1,1.1 0 0 1 0.69,-0.24 z"
       style="fill:#60a3ab"
       id="path7161" />
    <polygon
       points="129.25,407.81 137.5,407.81 139.09,388.71 130.84,388.71 "
       style="fill:#ffb573"
       id="polygon7163" />
    <polygon
       points="77.76,396.78 85.61,398.31 92.85,379.63 85,378.1 "
       style="fill:#ffb573"
       id="polygon7165" />
    <path
       d="m 87.05,395.94 -7.76,-4.76 a 0.73,0.73 0 0 0 -0.9,0.13 L 73,396.76 a 1.2,1.2 0 0 0 0.2,1.88 c 2.74,1.61 4.16,2.26 7.57,4.35 2.1,1.29 6.42,4.75 9.55,6.12 3.13,1.37 5,-1.59 3.87,-2.44 -5.14,-3.79 -5.61,-7 -6.31,-9.6 a 1.91,1.91 0 0 0 -0.83,-1.13 z"
       style="fill:#263238"
       id="path7167" />
    <path
       d="m 137.48,406.86 h -9 a 0.74,0.74 0 0 0 -0.72,0.56 l -1.93,7.34 a 1.14,1.14 0 0 0 1.13,1.46 c 3.25,-0.05 8,-0.24 12,-0.24 4.77,0 5.55,0.26 11.15,0.26 3.39,0 4.46,-3.43 3.06,-3.74 -6.4,-1.41 -8.32,-1.56 -13.76,-5 a 3.72,3.72 0 0 0 -1.93,-0.64 z"
       style="fill:#263238"
       id="path7169" />
    <path
       d="m 149.36,179.64 c -0.12,2.8 -0.31,5.89 -0.61,9.3 -0.78,9.25 -2.25,20.78 -4.77,35.11 H 99.86 c 0,-6.26 4.76,-35 1.33,-64.53 a 7.69,7.69 0 0 1 6.64,-8.41 c 2.24,-0.29 4.75,-0.54 7.21,-0.66 a 162.94,162.94 0 0 1 18.76,0 75.68,75.68 0 0 1 8.2,1.25 8.1,8.1 0 0 1 6.31,6.31 c 0.79,3.99 1.5,10.65 1.05,21.63 z"
       style="fill:#263238"
       id="path7171" />
    <path
       d="m 140.41,224.18 v 0 a 0.13,0.13 0 0 1 -0.1,-0.15 c 2.31,-13.19 3.92,-25 4.77,-35.1 0.28,-3.22 0.48,-6.35 0.6,-9.3 0.47,-11.36 -0.34,-18 -1.1,-21.6 a 0.12,0.12 0 0 1 0.1,-0.14 0.12,0.12 0 0 1 0.15,0.09 c 1.09,5.15 1.47,12.65 1.1,21.66 -0.12,3 -0.32,6.09 -0.6,9.31 -0.85,10.1 -2.46,21.92 -4.78,35.12 a 0.12,0.12 0 0 1 -0.14,0.11 z"
       style="opacity:0.3"
       id="path7173" />
    <path
       d="m 141.54,172.92 c -0.11,6.23 3.1,20.22 6.12,26.61 0.46,-3.83 0.83,-7.35 1.1,-10.59 0.23,-2.77 0.4,-5.32 0.52,-7.68 z"
       style="opacity:0.2"
       id="path7175" />
    <path
       d="m 177.48,188.16 7.37,-4.38 1.34,10.08 c 0,0 -5.84,1.63 -9.11,-0.34 z"
       style="fill:#ffb573"
       id="path7177" />
    <polygon
       points="194.54,184.5 192.11,192.55 186.19,193.86 184.85,183.78 "
       style="fill:#ffb573"
       id="polygon7179" />
    <path
       d="m 147.12,156 c 0.38,0.88 0.63,1.52 0.88,2.18 0.25,0.66 0.48,1.28 0.7,1.89 l 1.28,3.64 c 0.84,2.39 1.65,4.74 2.51,7 0.86,2.26 1.72,4.58 2.67,6.73 a 47.11,47.11 0 0 0 3,5.95 17.23,17.23 0 0 0 1.5,2.13 c 0.21,0.26 0.4,0.44 0.48,0.53 0.08,0.09 0.06,0.07 0,0.07 -0.06,0 0,0 0.06,0 l 0.15,0.09 a 7.31,7.31 0 0 0 2,0.67 21.2,21.2 0 0 0 3,0.29 80.25,80.25 0 0 0 14.06,-1.38 h 0.24 a 3.54,3.54 0 0 1 2.44,6.5 41.21,41.21 0 0 1 -3.66,2.07 c -1.23,0.63 -2.49,1.2 -3.79,1.72 a 40.25,40.25 0 0 1 -8.3,2.44 25.6,25.6 0 0 1 -4.75,0.42 18.32,18.32 0 0 1 -5.5,-0.78 l -0.75,-0.26 a 5.39,5.39 0 0 1 -0.82,-0.33 12.58,12.58 0 0 1 -1.64,-0.91 16.77,16.77 0 0 1 -2.46,-2 26.45,26.45 0 0 1 -3.33,-3.88 75.42,75.42 0 0 1 -7.79,-15 c -1,-2.49 -1.94,-5 -2.8,-7.44 l -1.26,-3.65 -0.6,-1.74 c -0.18,-0.54 -0.39,-1.11 -0.51,-1.41 l -0.07,-0.2 a 7.06,7.06 0 0 1 13,-5.43 z"
       style="fill:#263238"
       id="path7181" />
    <polygon
       points="139.09,388.71 138.27,398.56 130.02,398.56 130.84,388.71 "
       style="opacity:0.2"
       id="polygon7183" />
    <polygon
       points="85,378.11 92.85,379.64 89.11,389.26 81.26,387.73 "
       style="opacity:0.2"
       id="polygon7185" />
    <path
       d="m 117.42,124.64 c 0,8.18 -0.42,13 3.44,17.27 5.82,6.43 16.13,2.9 18.57,-5.21 2.21,-7.31 1.84,-19.46 -6,-22.88 -7.84,-3.42 -16.01,2.64 -16.01,10.82 z"
       style="fill:#ffb573"
       id="path7187" />
    <path
       d="m 135.91,128.75 c 0.7,-1.92 3.5,-10.17 -1.69,-12.75 -5.19,-2.58 -12,-3.37 -16.23,-1.54 -4.23,1.83 -7.3,8.54 -7.3,8.54 0,0 2,14.13 10.24,16.67 8.24,2.54 17.58,-7.25 14.98,-10.92 z"
       style="fill:#263238"
       id="path7189" />
    <path
       d="m 133.91,117.06 a 8.38,8.38 0 0 0 2.47,-1.28 c 3,-2.91 -2.31,-4.86 -7.57,-5.34 -6,-0.53 -14.48,1.84 -17.87,6.23 3.21,1.65 18.39,1.72 22.97,0.39 z"
       style="fill:#263238"
       id="path7191" />
    <path
       d="m 133.42,116.24 a 6.84,6.84 0 0 0 2.32,-0.42 c 4,-2 -0.61,-4.63 -4.73,-6.39 -4.67,-2 -12.18,-2.23 -16.06,0.53 2.17,2.2 14.42,6.2 18.47,6.28 z"
       style="fill:#263238"
       id="path7193" />
    <path
       d="m 132.32,127.62 a 8,8 0 0 0 1.73,4.95 c 1.49,1.81 3.24,0.76 3.67,-1.39 0.39,-1.94 0.09,-5.22 -1.81,-6.25 -1.9,-1.03 -3.57,0.49 -3.59,2.69 z"
       style="fill:#ffb573"
       id="path7195" />
    <path
       d="m 128.33,224.05 c 0,0 1.36,62.43 -7,85.45 -13.12,36.5 -27.41,78.78 -27.41,78.78 l -15.06,-3.35 c 0,0 12.14,-46.05 18.73,-76.76 6,-27.6 1.36,-61.58 2.27,-84.12 z"
       style="fill:#60a3ab"
       id="path7197" />
    <g
       style="opacity:0.3"
       id="g7201">
      <path
         d="m 128.33,224.05 c 0,0 1.36,62.43 -7,85.45 -13.12,36.5 -27.41,78.78 -27.41,78.78 l -15.06,-3.35 c 0,0 12.14,-46.05 18.73,-76.76 6,-27.6 1.36,-61.58 2.27,-84.12 z"
         style="fill:#ffffff"
         id="path7199" />
    </g>
    <path
       d="m 128.4,238 c -4.11,-1.21 -7.38,-0.75 -8.37,2.95 -2.59,9.67 3,35.18 5.79,46.85 2.01,-16.8 2.51,-36.8 2.58,-49.8 z"
       style="opacity:0.2"
       id="path7203" />
    <path
       d="m 98,383.71 c 0.07,0 -3.73,4.89 -3.73,4.89 l -16.47,-3.66 1.88,-5.65 z"
       style="fill:#60a3ab"
       id="path7205" />
    <path
       d="m 144,224.05 c 0,0 9.16,52.46 9,77.62 -0.17,28.21 -11.59,95 -11.59,95 h -14 c 0,0 1.76,-67.12 2.18,-92.82 0.46,-28 -14.65,-79.78 -14.65,-79.78 z"
       style="fill:#60a3ab"
       id="path7207" />
    <g
       style="opacity:0.3"
       id="g7211">
      <path
         d="m 144,224.05 c 0,0 9.16,52.46 9,77.62 -0.17,28.21 -11.59,95 -11.59,95 h -14 c 0,0 1.76,-67.12 2.18,-92.82 0.46,-28 -14.65,-79.78 -14.65,-79.78 z"
         style="fill:#ffffff"
         id="path7209" />
    </g>
    <path
       d="m 144.34,391.09 c 0.06,0 -1,5.8 -1,5.8 h -17 l -0.25,-5.18 z"
       style="fill:#60a3ab"
       id="path7213" />
    <path
       d="m 128.27,242 a 0.22,0.22 0 0 1 -0.13,0 l -5.82,-3.43 a 0.28,0.28 0 0 1 -0.12,-0.19 L 121,229 a 0.25,0.25 0 0 1 0.06,-0.2 0.26,0.26 0 0 1 0.19,-0.08 h 11.16 a 0.24,0.24 0 0 1 0.25,0.22 l 1.07,9.08 a 0.26,0.26 0 0 1 -0.11,0.24 l -5.22,3.66 a 0.24,0.24 0 0 1 -0.13,0.08 z m -5.59,-3.84 5.58,3.29 5,-3.49 -1,-8.71 h -10.72 z"
       style="fill:#ffffff"
       id="path7215" />
  </g>
</svg>
