<?xml version="1.0" encoding="UTF-8" standalone="no"?>
<svg
   viewBox="0 0 429.43304 372.56"
   version="1.1"
   id="svg32532"
   width="429.43304"
   height="372.56"
   xmlns="http://www.w3.org/2000/svg"
   xmlns:svg="http://www.w3.org/2000/svg">
  <defs
     id="defs32536" />
  <g
     id="freepik--background-complete--inject-45"
     transform="translate(-35.585041,-55)">
    <rect
       y="382.39999"
       width="429.43304"
       height="0.25"
       style="fill:#e0e0e0;stroke-width:0.92675"
       id="rect32302"
       x="35.585041" />
    <rect
       x="385.32999"
       y="390"
       width="10.48"
       height="0.25"
       style="fill:#e0e0e0"
       id="rect32304" />
    <rect
       x="405.32999"
       y="395"
       width="40.25"
       height="0.25"
       style="fill:#e0e0e0"
       id="rect32306" />
    <rect
       x="268.17001"
       y="394.26001"
       width="12.04"
       height="0.25"
       style="fill:#e0e0e0"
       id="rect32308" />
    <rect
       x="198.27"
       y="394.26001"
       width="64.139999"
       height="0.25"
       style="fill:#e0e0e0"
       id="rect32310" />
    <rect
       x="88.110001"
       y="392.67999"
       width="51.560001"
       height="0.25"
       style="fill:#e0e0e0"
       id="rect32312" />
    <rect
       x="320.57001"
       y="388.56"
       width="41.290001"
       height="0.25"
       style="fill:#e0e0e0"
       id="rect32314" />
    <rect
       x="64.93"
       y="392.56"
       width="14.31"
       height="0.25"
       style="fill:#e0e0e0"
       id="rect32316" />
    <path
       d="M 237,337.8 H 43.91 a 5.71,5.71 0 0 1 -5.7,-5.71 V 60.66 A 5.71,5.71 0 0 1 43.91,55 H 237 a 5.71,5.71 0 0 1 5.71,5.71 V 332.09 A 5.71,5.71 0 0 1 237,337.8 Z M 43.91,55.2 a 5.46,5.46 0 0 0 -5.45,5.46 v 271.43 a 5.46,5.46 0 0 0 5.45,5.46 H 237 a 5.47,5.47 0 0 0 5.46,-5.46 V 60.66 A 5.47,5.47 0 0 0 237,55.2 Z"
       style="fill:#e0e0e0"
       id="path32318" />
    <path
       d="m 453.31,337.8 h -193.1 a 5.72,5.72 0 0 1 -5.71,-5.71 V 60.66 A 5.72,5.72 0 0 1 260.21,55 h 193.1 a 5.71,5.71 0 0 1 5.69,5.66 v 271.43 a 5.71,5.71 0 0 1 -5.69,5.71 z M 260.21,55.2 a 5.47,5.47 0 0 0 -5.46,5.46 v 271.43 a 5.47,5.47 0 0 0 5.46,5.46 h 193.1 a 5.47,5.47 0 0 0 5.46,-5.46 V 60.66 a 5.47,5.47 0 0 0 -5.46,-5.46 z"
       style="fill:#e0e0e0"
       id="path32320" />
    <rect
       x="328.42999"
       y="92.949997"
       width="86.669998"
       height="99.739998"
       style="fill:#e0e0e0"
       id="rect32322" />
    <rect
       x="331.10999"
       y="92.949997"
       width="93.830002"
       height="99.739998"
       style="fill:#f0f0f0"
       id="rect32324" />
    <rect
       x="336.01001"
       y="103.77"
       width="84.019997"
       height="78.110001"
       transform="rotate(90,378.025,142.825)"
       style="fill:#fafafa"
       id="rect32326" />
    <circle
       cx="378.01999"
       cy="142.82001"
       r="24.370001"
       transform="rotate(-9.15,377.89588,142.80351)"
       style="fill:#f0f0f0"
       id="circle32328" />
    <rect
       x="410.23999"
       y="295.16"
       width="21.99"
       height="87.230003"
       style="fill:#e0e0e0"
       id="rect32330" />
    <polygon
       points="428.06,382.4 432.23,382.4 432.23,370.52 423.68,370.52 "
       style="fill:#ebebeb"
       id="polygon32332" />
    <rect
       x="313.89001"
       y="295.16"
       width="21.99"
       height="87.230003"
       style="fill:#e0e0e0"
       id="rect32334" />
    <rect
       x="332.23001"
       y="295.16"
       width="100"
       height="79.940002"
       style="fill:#ebebeb"
       id="rect32336" />
    <path
       d="m 429,298.71 h -93.53 v 21.92 H 429 Z"
       style="fill:#f5f5f5"
       id="path32338" />
    <polygon
       points="336.41,382.4 332.23,382.4 332.23,370.52 340.79,370.52 "
       style="fill:#ebebeb"
       id="polygon32340" />
    <path
       d="m 380,309.67 a 2.21,2.21 0 1 0 2.21,-2.21 2.21,2.21 0 0 0 -2.21,2.21 z"
       style="fill:#e0e0e0"
       id="path32342" />
    <path
       d="M 429,324.17 H 335.47 V 346.1 H 429 Z"
       style="fill:#f5f5f5"
       id="path32344" />
    <path
       d="m 380,335.14 a 2.21,2.21 0 1 0 2.21,-2.22 2.21,2.21 0 0 0 -2.21,2.22 z"
       style="fill:#e0e0e0"
       id="path32346" />
    <path
       d="m 429,349.64 h -93.53 v 21.92 H 429 Z"
       style="fill:#f5f5f5"
       id="path32348" />
    <path
       d="m 380,360.6 a 2.21,2.21 0 1 0 2.21,-2.21 2.21,2.21 0 0 0 -2.21,2.21 z"
       style="fill:#e0e0e0"
       id="path32350" />
    <path
       d="m 253.87,272.22 c 5.24,4.27 12.47,12.11 19.1,23.12 4.42,7.34 7.08,15 8.24,25.19 0,-11.5 -0.06,-23.86 -0.1,-35.52 -1.33,-3 -4.37,-9.91 -6.55,-15.38 -7.28,-18.23 -10,-22.71 -16.53,-38.44 -8.73,-21 -17.68,-45.86 -15.11,-43.87 5.21,4.06 25.22,41.51 27.38,46.87 A 150.31,150.31 0 0 1 281.09,279 c 0,-11 -0.08,-21 -0.12,-28.77 -0.14,-25.31 -0.57,-33.47 -0.78,-36 -0.81,-1.28 -1.76,-2.77 -2.32,-3.58 -4.7,-6.79 -6.51,-12.58 -10.94,-22.71 -6.27,-14.36 -11.67,-39.85 -10.09,-38.56 6.57,5.35 11.76,16.86 18.58,31.53 6.82,14.67 4.86,23.09 6.22,35.62 0.28,2.46 0.5,11.73 0.65,24.59 1.77,-13.7 5.09,-22.72 11.14,-30.93 7.44,-10.08 14.64,-16.9 19.92,-20.45 5.28,-3.55 -9.12,21.22 -16,32 -6.13,9.63 -11.78,18.13 -15,26.5 0.17,17.42 0.25,39.48 0.25,60 1.58,-9.35 4.16,-19.41 7.6,-27.2 4.14,-9.37 10.5,-23.73 15.57,-28.6 1.21,-1.17 -5.3,26.76 -9.48,34.19 -4.18,7.43 -7.25,14.43 -9.88,18.64 -0.61,1 -2.65,4.77 -3.81,6.94 0,25.07 -0.14,47.2 -0.36,54.73 h -1.08 c 0.07,-2 0.08,-14.7 0.06,-31.58 -2.61,-9.16 -8.57,-19.62 -13.49,-29.16 -5.36,-10.32 -19.1,-38.26 -13.86,-33.98 z"
       style="fill:#e0e0e0"
       id="path32352" />
    <polygon
       points="266.04,382.4 297.38,382.4 299.75,351.68 263.67,351.68 "
       style="fill:#ebebeb"
       id="polygon32354" />
    <polygon
       points="261.34,355.25 302.08,355.25 303.25,344.89 260.17,344.89 "
       style="fill:#ebebeb"
       id="polygon32356" />
    <rect
       x="75.440002"
       y="90.379997"
       width="56.049999"
       height="61.549999"
       style="fill:#e0e0e0"
       id="rect32358" />
    <rect
       x="79.669998"
       y="90.379997"
       width="57.900002"
       height="61.549999"
       style="fill:#f0f0f0"
       id="rect32360" />
    <rect
       x="82.690002"
       y="97.059998"
       width="51.849998"
       height="48.200001"
       transform="rotate(90,108.615,121.155)"
       style="fill:#fafafa"
       id="rect32362" />
    <rect
       x="95.260002"
       y="108.74"
       width="26.709999"
       height="24.83"
       transform="rotate(90,108.615,121.155)"
       style="fill:#f0f0f0"
       id="rect32364" />
    <rect
       x="148.14"
       y="127.08"
       width="41.580002"
       height="45.66"
       style="fill:#e0e0e0"
       id="rect32366" />
    <rect
       x="151.28"
       y="127.08"
       width="42.950001"
       height="45.66"
       style="fill:#f0f0f0"
       id="rect32368" />
    <rect
       x="153.52"
       y="132.03"
       width="38.459999"
       height="35.75"
       transform="rotate(90,172.75,149.91)"
       style="fill:#fafafa"
       id="rect32370" />
    <polygon
       points="182.53,157.12 172.75,140.19 162.97,157.12 "
       style="fill:#f0f0f0"
       id="polygon32372" />
    <rect
       x="71.540001"
       y="264.57001"
       width="27.32"
       height="112.52"
       style="fill:#ebebeb"
       id="rect32374" />
    <rect
       x="76.779999"
       y="377.09"
       width="189.82001"
       height="5.3099999"
       style="fill:#ebebeb"
       id="rect32376" />
    <rect
       x="98.860001"
       y="264.57001"
       width="173"
       height="112.52"
       transform="rotate(180,185.355,320.83)"
       style="fill:#f5f5f5"
       id="rect32378" />
    <rect
       x="109.6"
       y="307.09"
       width="151.52"
       height="27.48"
       transform="rotate(180,185.355,320.83)"
       style="fill:#ebebeb"
       id="rect32380" />
    <rect
       x="109.6"
       y="339.57999"
       width="151.52"
       height="27.48"
       transform="rotate(180,185.355,353.325)"
       style="fill:#ebebeb"
       id="rect32382" />
    <path
       d="M 224.51,310.1 H 146.2 a 1.89,1.89 0 0 1 -1.89,-1.88 v 0 a 1.89,1.89 0 0 1 1.89,-1.89 h 78.31 a 1.89,1.89 0 0 1 1.88,1.89 v 0 a 1.88,1.88 0 0 1 -1.88,1.88 z"
       style="fill:#f5f5f5"
       id="path32384" />
    <rect
       x="109.6"
       y="274.60001"
       width="151.52"
       height="27.48"
       transform="rotate(180,185.355,288.335)"
       style="fill:#ebebeb"
       id="rect32386" />
    <path
       d="M 224.51,277.61 H 146.2 a 1.89,1.89 0 0 1 -1.89,-1.89 v 0 a 1.89,1.89 0 0 1 1.89,-1.88 h 78.31 a 1.88,1.88 0 0 1 1.88,1.88 v 0 a 1.89,1.89 0 0 1 -1.88,1.89 z"
       style="fill:#f5f5f5"
       id="path32388" />
    <path
       d="M 224.51,342.6 H 146.2 a 1.89,1.89 0 0 1 -1.89,-1.89 v 0 a 1.89,1.89 0 0 1 1.89,-1.88 h 78.31 a 1.88,1.88 0 0 1 1.88,1.88 v 0 a 1.89,1.89 0 0 1 -1.88,1.89 z"
       style="fill:#f5f5f5"
       id="path32390" />
    <rect
       x="98.860001"
       y="255.33"
       width="176.64"
       height="9.2399998"
       style="fill:#ebebeb"
       id="rect32392" />
    <rect
       x="67.720001"
       y="255.33"
       width="31.139999"
       height="9.2399998"
       transform="rotate(180,83.29,259.955)"
       style="fill:#e0e0e0"
       id="rect32394" />
  </g>
  <g
     id="freepik--Shadow--inject-45"
     transform="translate(-35.585041,-55)">
    <ellipse
       cx="250"
       cy="416.23999"
       rx="193.89"
       ry="11.32"
       style="fill:#f5f5f5"
       id="ellipse32397" />
  </g>
  <g
     id="freepik--Picture--inject-45"
     transform="translate(-35.585041,-55)">
    <rect
       x="293.56"
       y="101.49"
       width="1"
       height="6.6700001"
       transform="rotate(-2.43,293.5452,104.57765)"
       style="fill:#60a3ab"
       id="rect32400" />
    <rect
       x="293.56"
       y="101.49"
       width="1"
       height="6.6700001"
       transform="rotate(-2.43,293.5452,104.57765)"
       style="opacity:0.3"
       id="rect32402" />
    <rect
       x="292.85999"
       y="81.199997"
       width="1"
       height="14.47"
       transform="rotate(-2.43,292.71145,88.285915)"
       style="fill:#60a3ab"
       id="rect32404" />
    <rect
       x="292.85999"
       y="81.199997"
       width="1"
       height="14.47"
       transform="rotate(-2.43,292.71145,88.285915)"
       style="opacity:0.3"
       id="rect32406" />
    <polygon
       points="300,315.89 289.69,72.52 46.33,82.83 54.44,274.46 64.98,325.85 "
       style="fill:#60a3ab"
       id="polygon32408" />
    <polygon
       points="300,315.89 289.69,72.52 46.33,82.83 54.44,274.46 64.98,325.85 "
       style="opacity:0.3"
       id="polygon32410" />
    <path
       d="m 291.56,307.88 v 0 l -0.46,-10.79 v 0 l -0.46,-10.79 v 0 l -0.45,-10.79 v 0 l -0.46,-10.79 v 0 l -0.46,-10.79 v 0 l -0.46,-10.79 v 0 l -0.45,-10.78 v 0 l -0.46,-10.79 v 0 l -0.46,-10.79 v 0 L 287,199.94 v 0 l -0.23,-5.4 -0.23,-5.39 v 0 l -0.46,-10.79 v 0 l -0.46,-10.79 v 0 l -0.45,-10.79 v 0 L 284.7,146 v 0 l -0.46,-10.79 v 0 l -0.46,-10.79 v 0 l -0.45,-10.79 v 0 l -0.46,-10.79 v 0 L 282.41,92 v 0 L 282,81.2 v 0 a 0.25,0.25 0 0 0 -0.25,-0.24 v 0 l -10.79,0.46 v 0 l -10.79,0.45 v 0 l -10.8,0.46 v 0 L 55,90.56 a 0.37,0.37 0 0 0 -0.18,0.08 0.28,0.28 0 0 0 -0.06,0.18 l 4.8,113.35 4,93.51 -9.09,-23.21 10.53,51.38 4.08,-8.29 6.37,-0.27 v 0 l 10.79,-0.46 v 0 L 97,316.38 v 0 l 10.79,-0.46 v 0 l 10.79,-0.46 v 0 l 10.78,-0.45 v 0 l 10.79,-0.46 v 0 l 10.78,-0.46 v 0 l 10.79,-0.46 v 0 l 10.79,-0.45 v 0 l 10.78,-0.46 v 0 l 10.79,-0.46 v 0 L 205,311.8 v 0 l 10.79,-0.45 v 0 l 10.78,-0.46 v 0 l 10.79,-0.46 v 0 l 10.78,-0.45 v 0 l 10.78,-0.45 v 0 l 10.78,-0.46 v 0 l 10.78,-0.46 v 0 l 10.78,-0.45 v 0 a 0.26,0.26 0 0 0 0.17,-0.09 0.23,0.23 0 0 0 0.13,-0.19 z m -228,-22.53 10.29,-0.43 0.44,10.29 -10.29,0.44 z m -0.46,-10.79 10.3,-0.44 0.43,10.3 -10.29,0.43 z m -0.45,-10.79 10.29,-0.44 0.44,10.29 -10.3,0.44 z M 62.14,253 l 10.29,-0.44 0.44,10.3 -10.3,0.44 z m -0.46,-10.79 10.3,-0.44 0.43,10.23 -10.29,0.44 z m -0.46,-10.8 10.3,-0.43 0.48,10.26 -10.29,0.44 z m -0.45,-10.79 10.29,-0.44 0.44,10.3 -10.3,0.43 z m -0.46,-10.8 10.29,-0.43 0.4,10.26 -10.29,0.44 z m -0.24,-5.64 -0.22,-5.18 10.3,-0.44 0.21,5.15 0.22,5.15 -10.29,0.43 z m -0.68,-16 10.3,-0.43 0.44,10.29 -10.3,0.44 z m -0.45,-10.79 10.29,-0.39 0.44,10.3 -10.3,0.43 z m -0.46,-10.8 10.29,-0.43 0.44,10.29 -10.29,0.44 z M 58,155.82 l 10.3,-0.44 0.43,10.3 -10.29,0.43 z M 57.57,145 67.86,144.57 68.3,154.86 58,155.3 Z m -0.46,-10.79 10.29,-0.44 0.44,10.3 -10.3,0.43 z M 56.65,123.42 67,123 l 0.43,10.29 -10.29,0.44 z m -0.46,-10.8 10.3,-0.44 0.43,10.3 -10.29,0.44 z m -0.45,-10.79 10.26,-0.42 0.44,10.29 -10.3,0.44 z M 55.28,91.03 65.57,90.6 66,100.91 55.71,101.35 Z m 226.62,0.72 -10.29,0.43 -0.44,-10.29 10.3,-0.44 z m 0.46,10.79 -10.3,0.44 -0.43,-10.3 10.29,-0.43 z m 0.46,10.79 -10.3,0.44 -0.43,-10.29 10.29,-0.44 z m 0.45,10.8 -10.29,0.43 -0.44,-10.29 10.3,-0.44 z m 0.46,10.79 -10.29,0.44 -0.44,-10.3 10.29,-0.43 z m 0.46,10.8 -10.3,0.43 -0.43,-10.29 10.29,-0.44 z m 0.46,10.79 -10.3,0.44 -0.44,-10.3 10.3,-0.43 z m 0.45,10.8 -10.29,0.43 -0.44,-10.29 10.3,-0.44 z m 0.46,10.79 -10.29,0.44 -0.44,-10.3 10.29,-0.43 z m 0.46,10.8 -10.3,0.43 -0.43,-10.29 10.29,-0.44 z m 0.24,5.64 0.21,5.15 -10.29,0.44 -0.18,-5.13 -0.22,-5.15 10.3,-0.43 z m 0.67,15.95 -10.29,0.43 -0.44,-10.29 10.3,-0.44 z m 0.46,10.79 -10.3,0.44 -0.43,-10.3 L 287,211 Z m 0.46,10.79 -10.3,0.44 -0.43,-10.29 10.29,-0.44 z m 0.45,10.8 -10.29,0.43 -0.44,-10.3 10.3,-0.44 z m 0.46,10.79 -10.29,0.44 -0.44,-10.3 10.3,-0.43 z m 0.46,10.8 -10.3,0.43 -0.43,-10.29 10.29,-0.44 z m 0.46,10.79 -10.3,0.44 -0.43,-10.3 10.29,-0.43 z m 0.45,10.8 -10.29,0.43 -0.44,-10.29 10.3,-0.44 z m 0.46,10.79 -10.29,0.44 -0.44,-10.3 10.29,-0.43 z m -219.73,-93.15 -0.21,-5.15 10.29,-0.44 0.22,5.15 0.22,5.15 -10.3,0.44 z m 204.6,-8.69 0.22,5.15 -10.29,0.43 -0.22,-5.14 -0.22,-5.15 10.29,-0.44 z m -193.8,8.21 -0.22,-5.15 10.3,-0.43 0.21,5.14 0.22,5.15 -10.29,0.44 z m 183,-7.75 0.22,5.15 -10.3,0.43 -0.22,-5.15 -0.22,-5.14 10.3,-0.44 z m -172.21,7.31 -0.21,-5.14 10.29,-0.44 0.22,5.15 0.22,5.14 -10.3,0.44 z m 161.42,-6.83 0.22,5.14 -10.29,0.44 -0.22,-5.15 -0.22,-5.15 10.29,-0.43 z m -150.62,6.38 -0.22,-5.15 10.29,-0.44 0.22,5.15 0.22,5.15 -10.29,0.43 z m 139.83,-5.93 0.22,5.15 -10.3,0.46 -0.22,-5.15 -0.21,-5.15 10.29,-0.43 z m -129,5.47 -0.22,-5.15 10.3,-0.43 0.22,5.14 0.22,5.15 -10.3,0.44 z m 118.24,-5 0.22,5.15 -10.29,0.43 -0.22,-5.14 -0.22,-5.15 10.3,-0.44 z m -107.48,4.54 -0.22,-5.15 10.29,-0.43 0.22,5.15 0.22,5.14 -10.29,0.44 z m 96.65,-4.09 0.22,5.14 -10.3,0.44 -0.22,-5.15 -0.19,-5.14 10.29,-0.44 z m -85.86,3.63 -0.22,-5.14 10.3,-0.44 0.22,5.15 0.22,5.15 -10.3,0.43 z m 75.06,-3.18 0.22,5.15 -10.29,0.44 -0.22,-5.15 -0.22,-5.15 10.3,-0.43 z m -64.26,2.73 -0.22,-5.15 10.29,-0.44 0.22,5.15 0.22,5.15 -10.29,0.43 z m 53.47,-2.27 0.22,5.15 -10.3,0.44 -0.21,-5.15 -0.22,-5.15 10.29,-0.44 z m -31.9,1.35 -0.22,-5.14 10.29,-0.44 0.22,5.15 0.22,5.14 -10.3,0.44 z m -0.68,-15.94 10.3,-0.44 0.43,10.3 -10.29,0.44 z m -0.04,10.37 -10.3,0.43 -0.43,-10.29 10.29,-0.44 z m 21.83,4.73 0.21,5.15 -10.29,0.43 -0.22,-5.14 -0.22,-5.15 10.3,-0.44 z m -10.54,-5.21 -0.43,-10.3 10.29,-0.43 0.44,10.29 z m 0,11.31 0.44,10.3 -10.3,0.43 -0.43,-10.29 z m 0.5,0 10.29,-0.43 0.44,10.29 -10.29,0.44 z m 10.79,-0.45 10.3,-0.44 0.44,10.29 -10.3,0.44 z m -0.47,-11.3 -0.44,-10.29 10.29,-0.44 0.44,10.29 z m -0.46,-10.79 -0.44,-10.3 10.3,-0.43 0.43,10.29 z m -0.5,0 -10.3,0.43 -0.43,-10.29 10.29,-0.44 z m -10.8,0.45 -10.29,0.44 -0.44,-10.29 10.3,-0.44 z m -10.79,0.46 -10.3,0.44 -0.43,-10.3 10.29,-0.43 z m -10.8,0.46 -10.29,0.44 -0.44,-10.3 10.3,-0.44 z m 0,0.5 0.43,10.29 -10.29,0.44 -0.44,-10.29 z m 1.18,15.84 -0.22,-5.15 10.3,-0.43 0.22,5.14 0.21,5.15 -10.29,0.44 z m 10.54,5.21 0.43,10.3 -10.29,0.49 -0.44,-10.29 z m 0.45,10.8 0.44,10.29 -10.3,0.44 -0.43,-10.3 z m 0.5,0 10.3,-0.43 0.43,10.29 -10.29,0.44 z m 10.8,-0.45 10.29,-0.44 0.44,10.3 -10.3,0.43 z m 10.79,-0.46 10.3,-0.44 0.4,10.34 -10.29,0.43 z m 10.8,-0.46 10.29,-0.43 0.44,10.29 -10.3,0.44 z m 0,-0.5 -0.44,-10.29 10.29,-0.44 0.44,10.3 z m -0.92,-21.59 -0.44,-10.29 10.3,-0.44 0.44,10.3 z m -0.46,-10.79 -0.43,-10.3 10.29,-0.43 0.44,10.29 z m -0.45,-10.8 -0.44,-10.29 10.29,-0.44 0.44,10.3 z m -0.5,0 -10.3,0.43 -0.47,-10.26 10.29,-0.44 z m -10.8,0.45 -10.29,0.44 -0.44,-10.3 10.3,-0.43 z m -10.79,0.46 -10.3,0.44 -0.43,-10.3 10.29,-0.43 z m -10.8,0.46 -10.29,0.43 -0.44,-10.29 10.3,-0.44 z m -10.79,0.45 -10.3,0.44 -0.45,-10.22 10.29,-0.44 z m -10.8,0.46 -10.29,0.44 -0.44,-10.3 10.3,-0.43 z m 0,0.5 0.44,10.3 -10.29,0.43 -0.44,-10.29 z m 0.46,10.8 0.44,10.29 -10.3,0.44 L 135,185 Z m 0.92,21.59 0.43,10.29 -10.29,0.44 -0.44,-10.3 z m 0.5,0 10.33,-0.43 0.4,10.3 -10.3,0.44 z m 10.75,10.36 0.43,10.3 -10.29,0.43 -0.44,-10.29 z m 0.46,10.8 0.43,10.29 L 148,238 147.56,227.7 Z m 0.5,0 10.29,-0.44 0.44,10.29 -10.3,0.44 z m 10.79,-0.46 10.29,-0.44 0.44,10.3 -10.29,0.43 z m 10.79,-0.46 10.3,-0.43 0.44,10.29 -10.3,0.44 z m 10.8,-0.46 10.29,-0.43 0.44,10.29 -10.29,0.44 z m 10.79,-0.45 10.3,-0.44 0.43,10.3 -10.29,0.43 z m 10.8,-0.46 10.29,-0.44 0.44,10.3 -10.3,0.43 z m 0,-0.5 -0.44,-10.29 10.3,-0.44 0.43,10.29 z m -0.46,-10.79 -0.44,-10.3 10.3,-0.44 0.43,10.3 z M 211,192.1 l -0.44,-10.3 10.29,-0.43 0.44,10.29 z m -0.46,-10.8 -0.48,-10.3 10.3,-0.44 0.43,10.3 z m -0.54,-10.79 -0.44,-10.3 10.3,-0.43 0.44,10.29 z m -0.46,-10.8 -0.43,-10.29 10.29,-0.44 0.44,10.3 z m -0.5,0 -10.29,0.44 -0.44,-10.3 10.3,-0.43 z m -10.79,0.46 -10.3,0.44 -0.43,-10.3 10.29,-0.43 z m -10.8,0.46 -10.29,0.43 -0.44,-10.29 10.3,-0.44 z m -10.79,0.46 -10.3,0.43 -0.36,-10.27 10.29,-0.44 z m -10.8,0.45 -10.29,0.44 -0.44,-10.3 10.3,-0.43 z m -10.79,0.46 -10.29,0.44 -0.44,-10.3 10.29,-0.43 z m -10.79,0.46 -10.3,0.43 -0.43,-10.29 10.29,-0.44 z m -10.8,0.45 -10.29,0.44 -0.44,-10.29 10.3,-0.44 z m 0,0.5 0.44,10.3 -10.3,0.43 -0.43,-10.29 z m 0.46,10.8 0.44,10.29 -10.3,0.44 -0.43,-10.3 z m 0.46,10.79 0.43,10.3 -10.29,0.43 -0.44,-10.29 z m 0.91,21.59 0.44,10.3 -10.3,0.43 -0.43,-10.29 z m 0.46,10.8 0.44,10.29 -10.3,0.44 -0.44,-10.3 z m 0.5,0 10.29,-0.44 0.44,10.29 -10.29,0.44 z m 10.75,10.35 0.44,10.3 -10.3,0.44 -0.43,-10.3 z m 0.46,10.8 0.43,10.29 -10.29,0.44 -0.38,-10.27 z m 0.5,0 10.29,-0.44 0.44,10.3 -10.3,0.43 z m 10.79,-0.46 10.3,-0.44 0.43,10.3 -10.29,0.44 z m 10.8,-0.46 10.29,-0.43 0.44,10.29 -10.3,0.44 z m 10.79,-0.45 10.3,-0.44 0.43,10.29 -10.29,0.44 z m 10.8,-0.46 10.29,-0.44 0.44,10.3 -10.3,0.43 z m 10.79,-0.46 10.3,-0.43 0.43,10.29 -10.29,0.44 z m 10.8,-0.46 10.29,-0.43 0.44,10.29 -10.3,0.44 z m 10.79,-0.45 10.3,-0.44 0.43,10.3 -10.29,0.43 z m 0,-0.5 -0.44,-10.3 10.3,-0.43 0.43,10.29 z m -0.46,-10.8 -0.43,-10.29 10.29,-0.44 0.44,10.3 z m -0.46,-10.79 -0.43,-10.3 10.29,-0.43 0.44,10.29 z m -0.91,-21.59 -0.44,-10.3 10.3,-0.43 0.43,10.27 z m -0.46,-10.8 -0.43,-10.29 10.29,-0.44 0.44,10.3 z m -0.45,-10.79 -0.44,-10.3 10.29,-0.43 0.44,10.29 z m -0.46,-10.8 -0.4,-10.27 10.3,-0.44 0.43,10.3 z m -0.46,-10.79 -0.44,-10.29 10.3,-0.44 0.44,10.29 z m -0.5,0 -10.29,0.44 -0.44,-10.3 10.29,-0.43 z m -10.79,0.46 -10.3,0.43 -0.43,-10.29 10.29,-0.44 z m -10.8,0.46 -10.29,0.43 -0.44,-10.29 10.3,-0.44 z m -10.79,0.45 -10.3,0.44 -0.43,-10.3 10.29,-0.43 z m -10.8,0.46 -10.29,0.44 -0.44,-10.3 10.3,-0.43 z m -10.79,0.46 -10.3,0.43 -0.43,-10.29 10.29,-0.44 z m -10.8,0.46 -10.29,0.43 -0.44,-10.29 10.3,-0.44 z m -10.79,0.45 -10.3,0.44 -0.43,-10.3 10.29,-0.43 z m -10.8,0.46 -10.29,0.44 -0.44,-10.3 10.3,-0.43 z m -10.79,0.46 -10.23,0.4 -0.43,-10.29 10.29,-0.44 z m 0,0.5 0.44,10.29 -10.3,0.44 -0.43,-10.3 z m 0.46,10.79 0.43,10.3 -10.29,0.43 -0.44,-10.29 z m 0.45,10.8 0.44,10.29 -10.29,0.44 -0.44,-10.3 z m 0.46,10.79 0.44,10.3 -10.3,0.43 -0.43,-10.29 z m 0.92,21.59 0.43,10.29 -10.29,0.44 -0.44,-10.29 z m 0.45,10.79 0.44,10.3 -10.29,0.44 -0.44,-10.3 z m 0.46,10.8 0.44,10.29 -10.3,0.44 -0.43,-10.29 z m 0.5,0 10.3,-0.44 0.43,10.3 -10.29,0.43 z m 10.81,10.34 0.44,10.29 -10.3,0.44 -0.43,-10.3 z m 0.46,10.79 0.44,10.3 -10.3,0.43 -0.43,-10.29 z m 0.5,0 10.3,-0.44 0.43,10.3 -10.29,0.43 z m 10.8,-0.46 10.29,-0.43 0.44,10.29 -10.3,0.44 z m 10.79,-0.45 10.29,-0.44 0.44,10.29 -10.29,0.44 z m 10.79,-0.46 10.3,-0.44 0.44,10.3 -10.3,0.43 z m 10.8,-0.46 10.29,-0.44 0.44,10.3 -10.29,0.44 z m 10.79,-0.46 10.3,-0.43 0.43,10.29 -10.29,0.44 z m 10.8,-0.45 10.29,-0.44 0.44,10.29 -10.3,0.44 z m 10.79,-0.46 10.3,-0.44 0.43,10.3 -10.29,0.43 z m 10.8,-0.46 10.29,-0.43 0.44,10.29 -10.3,0.44 z m 10.79,-0.46 10.3,-0.43 0.43,10.29 -10.29,0.44 z m 0,-0.5 -0.43,-10.29 10.29,-0.44 0.44,10.3 z m -0.46,-10.79 -0.43,-10.3 10.29,-0.43 0.44,10.29 z m -0.45,-10.8 -0.44,-10.29 10.29,-0.44 0.44,10.3 z m -0.46,-10.79 -0.48,-10.31 10.3,-0.44 0.43,10.29 z m -0.92,-21.59 -0.43,-10.29 10.29,-0.44 0.44,10.3 z m -0.45,-10.79 -0.44,-10.3 10.3,-0.43 0.43,10.29 z m -0.46,-10.8 -0.44,-10.29 10.3,-0.44 0.43,10.3 z m -0.46,-10.79 -0.43,-10.3 10.29,-0.43 0.44,10.29 z m -0.45,-10.8 -0.44,-10.29 10.29,-0.44 0.44,10.3 z m -0.46,-10.79 -0.44,-10.3 10.3,-0.43 0.43,10.29 z m -0.5,0 -10.3,0.44 -0.43,-10.3 10.29,-0.43 z m -10.8,0.46 -10.29,0.43 -0.44,-10.29 10.3,-0.44 z m -10.79,0.45 -10.3,0.44 -0.43,-10.29 10.29,-0.44 z m -10.8,0.46 -10.29,0.44 -0.44,-10.3 10.3,-0.43 z m -10.79,0.46 -10.3,0.43 -0.43,-10.29 10.29,-0.44 z m -10.8,0.46 -10.29,0.43 -0.44,-10.29 10.3,-0.44 z M 165,140 l -10.29,0.44 -0.44,-10.3 10.29,-0.43 z m -10.79,0.46 -10.3,0.44 -0.43,-10.3 10.29,-0.43 z m -10.8,0.46 -10.29,0.43 -0.45,-10.35 10.3,-0.44 z m -10.79,0.46 -10.3,0.43 -0.43,-10.29 10.29,-0.44 z m -10.8,0.45 -10.29,0.44 -0.44,-10.3 10.3,-0.43 z m -10.79,0.46 -10.3,0.44 -0.43,-10.3 10.29,-0.43 z m 0,0.5 0.43,10.29 -10.29,0.44 -0.44,-10.29 z m 0.46,10.79 0.43,10.3 -10.29,0.43 L 101.2,154 Z m 0.45,10.8 0.44,10.29 -10.3,0.44 -0.43,-10.3 z m 0.46,10.79 0.44,10.3 -10.3,0.43 -0.43,-10.29 z m 0.46,10.8 0.43,10.29 -10.29,0.44 -0.44,-10.3 z m 0.91,21.59 0.44,10.29 -10.3,0.44 -0.43,-10.3 z m 0.46,10.79 0.44,10.3 -10.3,0.43 -0.44,-10.29 z m 0.46,10.8 0.43,10.29 -10.29,0.44 -0.44,-10.3 z m 0.45,10.79 0.44,10.3 -10.29,0.43 -0.44,-10.29 z m 0.5,0 10.3,-0.44 0.43,10.3 -10.29,0.43 z m 10.76,10.36 0.43,10.29 -10.29,0.44 -0.44,-10.3 z m 0.45,10.79 0.44,10.3 -10.3,0.43 -0.43,-10.29 z m 0.5,0 10.3,-0.43 0.43,10.29 -10.29,0.44 z m 10.8,-0.46 10.29,-0.43 0.44,10.29 -10.3,0.44 z m 10.79,-0.45 10.3,-0.44 0.43,10.3 -10.29,0.43 z m 10.8,-0.46 10.29,-0.44 0.44,10.3 -10.3,0.43 z m 10.79,-0.46 10.3,-0.43 0.43,10.29 -10.29,0.44 z m 10.8,-0.45 10.29,-0.44 0.44,10.29 -10.3,0.44 z m 10.79,-0.46 10.3,-0.44 0.43,10.3 -10.29,0.43 z m 10.8,-0.46 10.29,-0.44 0.44,10.3 -10.3,0.44 z m 10.79,-0.46 10.3,-0.43 0.43,10.29 -10.29,0.44 z m 10.8,-0.45 10.29,-0.44 0.44,10.29 -10.3,0.44 z m 10.79,-0.46 10.3,-0.52 0.44,10.3 -10.29,0.43 z m 10.8,-0.52 10.3,-0.43 0.43,10.29 -10.29,0.44 z m 0,-0.5 -0.43,-10.29 10.29,-0.44 0.44,10.3 z m -0.45,-10.79 -0.44,-10.3 10.29,-0.43 0.44,10.29 z m -0.46,-10.8 -0.44,-10.29 10.3,-0.44 0.43,10.3 z m -0.46,-10.79 -0.44,-10.3 10.3,-0.43 0.44,10.29 z m -0.46,-10.8 -0.45,-10.32 10.29,-0.44 0.44,10.3 z m -0.91,-21.59 -0.44,-10.29 10.3,-0.44 0.43,10.3 z m -0.46,-10.79 -0.43,-10.3 10.29,-0.43 0.44,10.29 z m -0.46,-10.8 -0.44,-10.3 10.29,-0.44 0.44,10.3 z m -0.44,-10.8 -0.44,-10.29 10.3,-0.44 0.43,10.29 z m -0.46,-10.79 -0.44,-10.3 10.3,-0.43 0.43,10.29 z m -0.46,-10.8 -0.43,-10.29 10.29,-0.44 0.44,10.3 z M 240.6,126 l -0.44,-10.3 10.29,-0.43 0.44,10.29 z m -0.5,0 -10.3,0.43 -0.44,-10.29 10.3,-0.44 z m -10.8,0.46 -10.29,0.43 -0.44,-10.29 10.29,-0.44 z m -10.79,0.45 -10.3,0.44 -0.43,-10.3 10.29,-0.43 z m -10.8,0.46 -10.29,0.44 -0.44,-10.3 10.3,-0.43 z m -10.79,0.46 -10.3,0.43 -0.43,-10.26 10.29,-0.44 z m -10.8,0.45 -10.29,0.44 -0.44,-10.29 10.3,-0.44 z m -10.79,0.46 -10.3,0.44 -0.43,-10.3 10.29,-0.43 z m -10.8,0.46 -10.29,0.43 -0.44,-10.29 10.3,-0.44 z m -10.79,0.46 -10.3,0.43 -0.44,-10.31 10.29,-0.44 z m -10.8,0.45 -10.29,0.44 -0.44,-10.3 10.3,-0.43 z m -10.79,0.46 -10.3,0.44 -0.43,-10.3 10.29,-0.43 z m -10.8,0.46 -10.29,0.43 -0.44,-10.29 10.3,-0.44 z m -10.79,0.46 -10.29,0.43 -0.44,-10.29 10.29,-0.44 z m -10.79,0.45 -10.3,0.44 -0.47,-10.32 10.3,-0.43 z m 0,0.5 0.43,10.3 -10.29,0.43 -0.44,-10.29 z m 0.45,10.8 0.44,10.29 L 90.39,154 90,143.65 Z m 0.48,10.76 0.44,10.3 -10.3,0.43 -0.43,-10.29 z m 0.46,10.8 0.43,10.29 -10.29,0.44 -0.44,-10.3 z m 0.46,10.79 0.43,10.3 -10.29,0.43 L 91.32,176 Z m 0.45,10.8 0.44,10.29 -10.3,0.44 -0.43,-10.3 z M 103,208 l 0.43,10.3 -10.29,0.44 -0.44,-10.3 z m 0.45,10.8 0.44,10.29 -10.29,0.44 -0.44,-10.29 z m 0.46,10.79 0.44,10.3 L 94,240.3 93.61,230 Z m 0.46,10.8 0.44,10.29 -10.3,0.44 -0.44,-10.3 z m 0.46,10.79 0.43,10.3 L 95,261.89 94.56,251.6 Z m 0.5,0 10.29,-0.43 0.44,10.29 -10.3,0.44 z m 10.75,10.36 0.43,10.29 -10.29,0.44 -0.44,-10.29 z m 0.46,10.79 0.43,10.3 -10.29,0.44 -0.44,-10.3 z m 0.5,0 10.29,-0.43 0.44,10.29 -10.3,0.44 z m 10.79,-0.45 10.3,-0.44 0.43,10.29 -10.29,0.44 z m 10.8,-0.46 10.29,-0.44 0.44,10.3 -10.3,0.43 z m 10.79,-0.46 10.29,-0.43 0.44,10.29 -10.29,0.44 z m 10.79,-0.46 10.3,-0.43 0.44,10.29 -10.3,0.44 z M 171,270 l 10.29,-0.44 0.44,10.3 -10.29,0.43 z m 10.79,-0.46 10.3,-0.44 0.43,10.3 -10.29,0.43 z m 10.8,-0.46 10.29,-0.43 0.44,10.29 -10.3,0.44 z m 10.79,-0.45 10.3,-0.44 0.43,10.29 -10.29,0.44 z m 10.8,-0.46 10.29,-0.44 0.44,10.3 -10.3,0.43 z m 10.82,-0.47 10.3,-0.44 0.43,10.3 -10.29,0.44 z m 10.8,-0.46 10.29,-0.43 0.44,10.29 -10.3,0.44 z m 10.79,-0.45 10.3,-0.44 0.43,10.29 -10.29,0.44 z m 10.8,-0.46 10.29,-0.44 0.44,10.3 -10.3,0.43 z m 0,-0.5 -0.43,-10.3 10.29,-0.43 0.44,10.29 z m -0.45,-10.8 -0.44,-10.29 10.3,-0.44 0.43,10.3 z m -0.46,-10.79 -0.44,-10.3 10.3,-0.43 0.43,10.29 z m -0.46,-10.8 -0.43,-10.29 10.29,-0.44 0.44,10.3 z m -0.45,-10.79 -0.44,-10.29 10.29,-0.44 0.44,10.29 z m -0.46,-10.79 -0.44,-10.3 10.3,-0.43 0.43,10.29 z m -0.92,-21.59 -0.49,-10.27 10.29,-0.43 0.44,10.29 z m -0.45,-10.8 -0.44,-10.29 10.29,-0.44 L 264,179 Z m -0.46,-10.79 -0.44,-10.3 10.3,-0.43 0.43,10.29 z m -0.46,-10.8 -0.43,-10.29 10.29,-0.44 0.44,10.3 z m -0.46,-10.79 -0.43,-10.3 10.29,-0.43 0.44,10.29 z m -0.45,-10.8 -0.5,-10.29 10.3,-0.44 0.43,10.3 z m -0.46,-10.79 -0.45,-10.3 10.3,-0.43 0.43,10.29 z m -0.46,-10.8 -0.43,-10.29 10.29,-0.44 0.44,10.3 z m -0.5,0 -10.29,0.43 -0.44,-10.29 10.3,-0.44 z m -10.79,0.45 -10.3,0.44 -0.43,-10.3 10.29,-0.43 z m -10.8,0.46 -10.29,0.44 -0.44,-10.3 10.3,-0.43 z m -10.79,0.46 -10.3,0.43 -0.43,-10.29 10.29,-0.44 z m -10.8,0.46 -10.31,0.47 -0.44,-10.29 10.3,-0.44 z m -10.79,0.45 -10.3,0.44 -0.43,-10.3 10.29,-0.43 z m -10.8,0.46 -10.29,0.44 -0.44,-10.3 10.3,-0.43 z m -10.79,0.46 -10.29,0.43 -0.44,-10.29 10.29,-0.44 z m -10.79,0.45 -10.3,0.44 -0.43,-10.29 10.29,-0.44 z m -10.8,0.46 -10.29,0.44 -0.44,-10.3 10.3,-0.43 z m -10.79,0.46 -10.3,0.43 -0.43,-10.29 10.29,-0.44 z m -10.8,0.46 -10.29,0.43 -0.46,-10.26 10.3,-0.44 z m -10.79,0.45 -10.3,0.44 -0.43,-10.3 10.29,-0.43 z m -10.8,0.46 -10.29,0.44 -0.44,-10.3 10.3,-0.43 z m -10.79,0.46 -10.3,0.43 -0.43,-10.29 10.29,-0.44 z m -10.8,0.46 -10.35,0.44 -0.44,-10.29 10.3,-0.44 z m 0,0.5 0.43,10.32 -10.29,0.44 -0.44,-10.3 z m 0.43,10.82 0.44,10.29 -10.3,0.44 -0.43,-10.29 z m 0.46,10.79 0.44,10.3 -10.3,0.43 -0.44,-10.29 z m 0.46,10.8 0.43,10.29 -10.29,0.44 -0.44,-10.3 z m 0.45,10.79 0.44,10.3 -10.3,0.44 -0.44,-10.29 z m 0.46,10.8 0.44,10.29 -10.3,0.44 -0.43,-10.3 z m 0.46,10.79 0.43,10.3 -10.29,0.43 L 81,187.29 Z m 0.91,21.59 0.44,10.3 -10.3,0.43 -0.43,-10.29 z m 0.46,10.8 0.44,10.29 -10.3,0.44 -0.43,-10.3 z m 0.45,10.76 0.43,10.3 -10.29,0.43 -0.44,-10.29 z m 0.45,10.8 0.44,10.32 -10.29,0.44 -0.44,-10.3 z m 0.44,10.82 0.44,10.29 -10.3,0.44 -0.43,-10.29 z m 0.46,10.79 0.44,10.3 -10.3,0.44 -0.43,-10.3 z m 0.5,0 10.29,-0.43 0.44,10.29 -10.29,0.44 z m 10.75,10.36 0.44,10.3 -10.3,0.43 -0.43,-10.29 z m 0.46,10.8 0.43,10.29 -10.29,0.44 -0.42,-10.3 z m 0.5,0 10.29,-0.44 0.44,10.29 -10.3,0.44 z m 10.79,-0.46 10.3,-0.44 0.43,10.3 -10.29,0.43 z m 10.8,-0.46 10.29,-0.44 0.44,10.3 -10.3,0.44 z m 10.79,-0.46 10.3,-0.43 0.45,10.24 -10.29,0.44 z m 10.8,-0.45 10.29,-0.44 0.44,10.29 -10.3,0.44 z m 10.79,-0.46 10.3,-0.44 0.43,10.3 -10.29,0.43 z m 10.8,-0.46 10.29,-0.43 0.44,10.29 -10.3,0.44 z m 10.79,-0.46 10.3,-0.43 0.43,10.29 -10.29,0.44 z m 10.8,-0.45 10.29,-0.44 0.44,10.3 -10.3,0.43 z m 10.79,-0.46 10.29,-0.44 0.44,10.3 -10.29,0.43 z m 10.79,-0.46 10.3,-0.43 0.44,10.29 -10.3,0.44 z m 10.8,-0.45 10.29,-0.44 0.44,10.29 -10.29,0.44 z m 10.79,-0.46 10.3,-0.44 0.43,10.3 -10.29,0.43 z m 10.8,-0.46 10.29,-0.44 0.44,10.3 -10.3,0.44 z m 10.79,-0.46 10.3,-0.43 0.43,10.29 -10.29,0.44 z m 10.8,-0.45 10.29,-0.44 0.44,10.29 L 269,287 Z m 0,-0.5 -0.44,-10.3 10.3,-0.43 0.43,10.29 z m -0.46,-10.8 -0.44,-10.29 10.3,-0.44 0.43,10.3 z m -0.46,-10.79 -0.43,-10.3 10.29,-0.43 0.44,10.29 z m -0.46,-10.8 -0.43,-10.29 10.29,-0.44 0.44,10.3 z m -0.45,-10.82 -0.44,-10.3 10.3,-0.43 0.43,10.29 z m -0.46,-10.8 -0.44,-10.29 10.3,-0.44 0.43,10.3 z m -0.46,-10.79 -0.43,-10.3 10.29,-0.43 0.44,10.29 z m -0.91,-21.59 -0.44,-10.29 10.3,-0.44 0.43,10.29 z m -0.46,-10.8 -0.47,-10.3 10.3,-0.44 0.44,10.3 z m -0.47,-10.8 -0.43,-10.29 10.29,-0.44 0.44,10.29 z m -0.45,-10.79 -0.44,-10.3 10.29,-0.43 0.44,10.29 z m -0.46,-10.8 -0.44,-10.29 10.3,-0.44 0.43,10.3 z m -0.46,-10.79 -0.43,-10.3 10.29,-0.43 0.44,10.29 z m -0.46,-10.8 -0.43,-10.29 10.29,-0.44 0.44,10.3 z m -0.45,-10.79 -0.44,-10.3 10.3,-0.43 0.43,10.29 z m -0.46,-10.8 -0.44,-10.29 10.3,-0.44 0.43,10.3 z m -0.5,0 -10.29,0.44 -0.47,-10.27 10.29,-0.44 z m -10.79,0.46 -10.3,0.44 -0.44,-10.3 10.3,-0.43 z m -10.8,0.46 -10.29,0.43 -0.44,-10.29 10.29,-0.44 z m -10.79,0.46 -10.3,0.43 L 217.66,95 228,94.55 Z m -10.8,0.45 -10.29,0.44 -0.44,-10.3 10.3,-0.43 z m -10.79,0.46 -10.3,0.44 -0.43,-10.3 10.29,-0.43 z m -10.8,0.46 -10.29,0.43 -0.44,-10.29 10.3,-0.44 z m -10.79,0.46 -10.3,0.43 -0.43,-10.29 10.29,-0.44 z m -10.8,0.45 -10.29,0.44 -0.44,-10.3 10.3,-0.43 z m -10.79,0.46 -10.3,0.44 -0.43,-10.3 10.29,-0.43 z m -10.8,0.46 -10.29,0.43 -0.44,-10.29 10.3,-0.44 z m -10.81,0.47 -10.3,0.44 -0.43,-10.29 10.29,-0.44 z m -10.8,0.46 -10.29,0.44 -0.44,-10.3 10.3,-0.43 z m -10.79,0.46 -10.29,0.43 -0.44,-10.29 10.32,-0.44 z m -10.79,0.46 -10.3,0.43 -0.41,-10.31 10.3,-0.44 z m -10.8,0.45 -10.29,0.44 -0.44,-10.3 10.32,-0.47 z m -10.79,0.46 -10.3,0.44 -0.43,-10.3 10.29,-0.43 z m -10.8,0.46 -10.23,0.43 -0.44,-10.29 10.3,-0.44 z m 0,0.5 0.49,10.25 -10.3,0.44 L 67,112.18 Z m 0.46,10.79 0.44,10.3 -10.3,0.43 L 67.45,123 Z m 0.46,10.8 0.43,10.29 -10.29,0.44 -0.44,-10.3 z m 0.45,10.79 0.44,10.3 -10.29,0.43 -0.44,-10.29 z m 0.46,10.8 0.44,10.29 -10.3,0.44 -0.43,-10.3 z M 79.52,165.72 80,176 69.7,176.43 69.26,166.14 Z m 0.46,10.8 0.43,10.29 -10.29,0.44 L 69.73,177 Z m 0.45,10.79 0.44,10.29 -10.24,0.4 -0.44,-10.29 z m 0.92,21.59 0.43,10.29 -10.29,0.44 -0.44,-10.29 z m 0.46,10.79 0.43,10.3 -10.24,0.43 -0.44,-10.29 z m 0.45,10.8 0.44,10.29 -10.3,0.44 -0.4,-10.3 z m 0.46,10.79 0.44,10.3 -10.3,0.43 -0.43,-10.29 z m 0.46,10.8 0.43,10.29 -10.29,0.44 -0.44,-10.3 z m 0.45,10.79 0.44,10.3 -10.29,0.43 -0.44,-10.29 z m 0.46,10.8 0.49,10.33 -10.3,0.44 -0.43,-10.3 z m 0.5,0 10.3,-0.44 0.43,10.29 -10.29,0.44 z m 10.8,10.33 0.44,10.3 -10.29,0.43 -0.44,-10.29 z m 0.46,10.8 0.44,10.29 -10.3,0.44 -0.43,-10.3 z m 0.5,0 10.3,-0.44 0.43,10.3 -10.29,0.43 z m 10.8,-0.46 10.29,-0.44 0.44,10.3 -10.3,0.43 z m 10.79,-0.46 10.3,-0.43 0.43,10.29 -10.29,0.44 z m 10.8,-0.45 10.26,-0.43 0.44,10.29 -10.3,0.44 z m 10.79,-0.46 10.29,-0.44 0.44,10.3 -10.29,0.43 z m 10.79,-0.46 10.3,-0.44 0.44,10.3 -10.3,0.44 z m 10.8,-0.46 10.29,-0.43 0.44,10.29 -10.29,0.44 z m 10.79,-0.45 10.3,-0.44 0.43,10.29 -10.29,0.44 z m 10.8,-0.46 10.29,-0.44 0.44,10.3 -10.3,0.43 z m 10.79,-0.46 10.3,-0.43 0.43,10.29 -10.29,0.44 z m 10.8,-0.46 10.29,-0.43 0.44,10.29 -10.3,0.44 z m 10.79,-0.45 10.3,-0.44 0.43,10.3 -10.29,0.43 z m 10.8,-0.46 10.29,-0.44 0.44,10.3 -10.3,0.43 z m 10.79,-0.46 10.3,-0.43 0.43,10.29 -10.29,0.44 z m 10.8,-0.45 10.29,-0.44 0.44,10.29 -10.3,0.44 z m 10.79,-0.46 10.3,-0.44 0.43,10.3 -10.29,0.43 z m 10.8,-0.46 10.29,-0.44 0.44,10.3 -10.3,0.43 z m 2,-195.24 -10.3,0.44 -0.43,-10.3 10.29,-0.43 z m -10.8,0.46 -10.27,0.42 -0.44,-10.3 10.3,-0.43 z m -10.79,0.46 -10.3,0.43 -0.43,-10.29 10.29,-0.44 z M 238.68,93.61 228.43,94 228,83.74 238.3,83.3 Z m -10.79,0.46 -10.3,0.44 -0.43,-10.3 10.29,-0.43 z m -10.8,0.46 -10.29,0.43 -0.44,-10.29 10.3,-0.44 z M 206.34,95 196.05,95.43 195.61,85.14 205.9,84.7 Z m -10.79,0.45 -10.3,0.44 -0.44,-10.3 10.3,-0.43 z m -10.8,0.46 -10.29,0.44 L 174,86 184.29,85.57 Z M 174,96.34 163.7,96.77 163.27,86.48 173.52,86 Z m -10.8,0.46 -10.29,0.43 -0.44,-10.29 10.3,-0.44 z m -10.79,0.45 -10.3,0.44 -0.43,-10.3 10.25,-0.39 z m -10.8,0.46 -10.29,0.44 -0.44,-10.3 10.3,-0.44 z m -10.79,0.46 -10.3,0.43 -0.43,-10.29 10.29,-0.44 z m -10.8,0.45 -10.29,0.44 -0.44,-10.29 v 0 l 10.3,-0.44 z m -10.79,0.46 -10.3,0.44 -0.43,-10.27 v 0 l 10.29,-0.43 z M 98.43,99.54 88.1,100 87.66,89.75 v 0 L 98,89.24 Z M 87.6,100 77.3,100.43 76.87,90.19 v 0 l 10.29,-0.44 z m -10.8,0.45 -10.29,0.44 -0.43,-10.22 v -0.08 l 10.3,-0.43 z m -2.5,184.45 10.3,-0.44 0.44,10.3 -10.3,0.43 z m 10.76,10.36 0.43,10.29 L 75.2,306 74.76,295.7 Z m 0.45,10.79 0.49,10.29 -10.29,0.44 -0.44,-10.29 z m 0.5,0 10.3,-0.44 0.43,10.3 -10.29,0.43 z m 10.8,-0.46 10.29,-0.43 0.44,10.29 -10.3,0.44 z m 10.79,-0.46 10.3,-0.43 0.43,10.29 -10.29,0.44 z m 10.8,-0.45 10.29,-0.44 0.44,10.3 -10.3,0.43 z m 10.79,-0.46 10.3,-0.44 0.43,10.3 -10.29,0.43 z m 10.8,-0.46 10.29,-0.43 0.44,10.29 -10.3,0.44 z m 10.79,-0.45 10.3,-0.44 0.43,10.29 -10.29,0.44 z m 10.8,-0.46 10.29,-0.44 0.44,10.3 -10.3,0.43 z m 10.79,-0.46 10.3,-0.44 0.43,10.3 -10.29,0.44 z m 10.8,-0.46 10.29,-0.43 0.44,10.29 -10.3,0.44 z m 10.79,-0.45 10.29,-0.44 0.44,10.29 -10.29,0.44 z m 10.79,-0.46 10.3,-0.44 0.44,10.3 -10.3,0.43 z m 10.8,-0.46 10.29,-0.43 0.44,10.29 -10.29,0.44 z m 10.79,-0.46 10.3,-0.43 0.43,10.29 -10.29,0.44 z m 10.8,-0.45 10.29,-0.44 0.44,10.3 -10.3,0.43 z m 10.79,-0.46 10.3,-0.44 0.43,10.3 -10.29,0.43 z m 10.8,-0.46 10.29,-0.43 0.44,10.29 -10.3,0.44 z m 10.79,-0.46 10.3,-0.43 0.43,10.29 -10.29,0.44 z m 10.8,-0.45 10.29,-0.44 0.44,10.3 -10.3,0.43 z M 64,296.15 74.29,295.71 74.7,306 l -7.78,0.33 -2.83,-7.22 z m 3.14,10.68 7.61,-0.32 0.44,10.29 -5.85,0.25 1,-2 z"
       style="fill:#60a3ab"
       id="path32412" />
    <path
       d="m 291.56,307.88 v 0 l -0.46,-10.79 v 0 l -0.46,-10.79 v 0 l -0.45,-10.79 v 0 l -0.46,-10.79 v 0 l -0.46,-10.79 v 0 l -0.46,-10.79 v 0 l -0.45,-10.78 v 0 l -0.46,-10.79 v 0 l -0.46,-10.79 v 0 L 287,199.94 v 0 l -0.23,-5.4 -0.23,-5.39 v 0 l -0.46,-10.79 v 0 l -0.46,-10.79 v 0 l -0.45,-10.79 v 0 L 284.7,146 v 0 l -0.46,-10.79 v 0 l -0.46,-10.79 v 0 l -0.45,-10.79 v 0 l -0.46,-10.79 v 0 L 282.41,92 v 0 L 282,81.2 v 0 a 0.25,0.25 0 0 0 -0.25,-0.24 v 0 l -10.79,0.46 v 0 l -10.79,0.45 v 0 l -10.8,0.46 v 0 L 55,90.56 a 0.37,0.37 0 0 0 -0.18,0.08 0.28,0.28 0 0 0 -0.06,0.18 l 4.8,113.35 4,93.51 -9.09,-23.21 10.53,51.38 4.08,-8.29 6.37,-0.27 v 0 l 10.79,-0.46 v 0 L 97,316.38 v 0 l 10.79,-0.46 v 0 l 10.79,-0.46 v 0 l 10.78,-0.45 v 0 l 10.79,-0.46 v 0 l 10.78,-0.46 v 0 l 10.79,-0.46 v 0 l 10.79,-0.45 v 0 l 10.78,-0.46 v 0 l 10.79,-0.46 v 0 L 205,311.8 v 0 l 10.79,-0.45 v 0 l 10.78,-0.46 v 0 l 10.79,-0.46 v 0 l 10.78,-0.45 v 0 l 10.78,-0.45 v 0 l 10.78,-0.46 v 0 l 10.78,-0.46 v 0 l 10.78,-0.45 v 0 a 0.26,0.26 0 0 0 0.17,-0.09 0.23,0.23 0 0 0 0.13,-0.19 z m -228,-22.53 10.29,-0.43 0.44,10.29 -10.29,0.44 z m -0.46,-10.79 10.3,-0.44 0.43,10.3 -10.29,0.43 z m -0.45,-10.79 10.29,-0.44 0.44,10.29 -10.3,0.44 z M 62.14,253 l 10.29,-0.44 0.44,10.3 -10.3,0.44 z m -0.46,-10.79 10.3,-0.44 0.43,10.23 -10.29,0.44 z m -0.46,-10.8 10.3,-0.43 0.48,10.26 -10.29,0.44 z m -0.45,-10.79 10.29,-0.44 0.44,10.3 -10.3,0.43 z m -0.46,-10.8 10.29,-0.43 0.4,10.26 -10.29,0.44 z m -0.24,-5.64 -0.22,-5.18 10.3,-0.44 0.21,5.15 0.22,5.15 -10.29,0.43 z m -0.68,-16 10.3,-0.43 0.44,10.29 -10.3,0.44 z m -0.45,-10.79 10.29,-0.39 0.44,10.3 -10.3,0.43 z m -0.46,-10.8 10.29,-0.43 0.44,10.29 -10.29,0.44 z M 58,155.82 l 10.3,-0.44 0.43,10.3 -10.29,0.43 z M 57.57,145 67.86,144.57 68.3,154.86 58,155.3 Z m -0.46,-10.79 10.29,-0.44 0.44,10.3 -10.3,0.43 z M 56.65,123.42 67,123 l 0.43,10.29 -10.29,0.44 z m -0.46,-10.8 10.3,-0.44 0.43,10.3 -10.29,0.44 z m -0.45,-10.79 10.26,-0.42 0.44,10.29 -10.3,0.44 z M 55.28,91.03 65.57,90.6 66,100.91 55.71,101.35 Z m 226.62,0.72 -10.29,0.43 -0.44,-10.29 10.3,-0.44 z m 0.46,10.79 -10.3,0.44 -0.43,-10.3 10.29,-0.43 z m 0.46,10.79 -10.3,0.44 -0.43,-10.29 10.29,-0.44 z m 0.45,10.8 -10.29,0.43 -0.44,-10.29 10.3,-0.44 z m 0.46,10.79 -10.29,0.44 -0.44,-10.3 10.29,-0.43 z m 0.46,10.8 -10.3,0.43 -0.43,-10.29 10.29,-0.44 z m 0.46,10.79 -10.3,0.44 -0.44,-10.3 10.3,-0.43 z m 0.45,10.8 -10.29,0.43 -0.44,-10.29 10.3,-0.44 z m 0.46,10.79 -10.29,0.44 -0.44,-10.3 10.29,-0.43 z m 0.46,10.8 -10.3,0.43 -0.43,-10.29 10.29,-0.44 z m 0.24,5.64 0.21,5.15 -10.29,0.44 -0.18,-5.13 -0.22,-5.15 10.3,-0.43 z m 0.67,15.95 -10.29,0.43 -0.44,-10.29 10.3,-0.44 z m 0.46,10.79 -10.3,0.44 -0.43,-10.3 L 287,211 Z m 0.46,10.79 -10.3,0.44 -0.43,-10.29 10.29,-0.44 z m 0.45,10.8 -10.29,0.43 -0.44,-10.3 10.3,-0.44 z m 0.46,10.79 -10.29,0.44 -0.44,-10.3 10.3,-0.43 z m 0.46,10.8 -10.3,0.43 -0.43,-10.29 10.29,-0.44 z m 0.46,10.79 -10.3,0.44 -0.43,-10.3 10.29,-0.43 z m 0.45,10.8 -10.29,0.43 -0.44,-10.29 10.3,-0.44 z m 0.46,10.79 -10.29,0.44 -0.44,-10.3 10.29,-0.43 z m -219.73,-93.15 -0.21,-5.15 10.29,-0.44 0.22,5.15 0.22,5.15 -10.3,0.44 z m 204.6,-8.69 0.22,5.15 -10.29,0.43 -0.22,-5.14 -0.22,-5.15 10.29,-0.44 z m -193.8,8.21 -0.22,-5.15 10.3,-0.43 0.21,5.14 0.22,5.15 -10.29,0.44 z m 183,-7.75 0.22,5.15 -10.3,0.43 -0.22,-5.15 -0.22,-5.14 10.3,-0.44 z m -172.21,7.31 -0.21,-5.14 10.29,-0.44 0.22,5.15 0.22,5.14 -10.3,0.44 z m 161.42,-6.83 0.22,5.14 -10.29,0.44 -0.22,-5.15 -0.22,-5.15 10.29,-0.43 z m -150.62,6.38 -0.22,-5.15 10.29,-0.44 0.22,5.15 0.22,5.15 -10.29,0.43 z m 139.83,-5.93 0.22,5.15 -10.3,0.46 -0.22,-5.15 -0.21,-5.15 10.29,-0.43 z m -129,5.47 -0.22,-5.15 10.3,-0.43 0.22,5.14 0.22,5.15 -10.3,0.44 z m 118.24,-5 0.22,5.15 -10.29,0.43 -0.22,-5.14 -0.22,-5.15 10.3,-0.44 z m -107.48,4.54 -0.22,-5.15 10.29,-0.43 0.22,5.15 0.22,5.14 -10.29,0.44 z m 96.65,-4.09 0.22,5.14 -10.3,0.44 -0.22,-5.15 -0.19,-5.14 10.29,-0.44 z m -85.86,3.63 -0.22,-5.14 10.3,-0.44 0.22,5.15 0.22,5.15 -10.3,0.43 z m 75.06,-3.18 0.22,5.15 -10.29,0.44 -0.22,-5.15 -0.22,-5.15 10.3,-0.43 z m -64.26,2.73 -0.22,-5.15 10.29,-0.44 0.22,5.15 0.22,5.15 -10.29,0.43 z m 53.47,-2.27 0.22,5.15 -10.3,0.44 -0.21,-5.15 -0.22,-5.15 10.29,-0.44 z m -31.9,1.35 -0.22,-5.14 10.29,-0.44 0.22,5.15 0.22,5.14 -10.3,0.44 z m -0.68,-15.94 10.3,-0.44 0.43,10.3 -10.29,0.44 z m -0.04,10.37 -10.3,0.43 -0.43,-10.29 10.29,-0.44 z m 21.83,4.73 0.21,5.15 -10.29,0.43 -0.22,-5.14 -0.22,-5.15 10.3,-0.44 z m -10.54,-5.21 -0.43,-10.3 10.29,-0.43 0.44,10.29 z m 0,11.31 0.44,10.3 -10.3,0.43 -0.43,-10.29 z m 0.5,0 10.29,-0.43 0.44,10.29 -10.29,0.44 z m 10.79,-0.45 10.3,-0.44 0.44,10.29 -10.3,0.44 z m -0.47,-11.3 -0.44,-10.29 10.29,-0.44 0.44,10.29 z m -0.46,-10.79 -0.44,-10.3 10.3,-0.43 0.43,10.29 z m -0.5,0 -10.3,0.43 -0.43,-10.29 10.29,-0.44 z m -10.8,0.45 -10.29,0.44 -0.44,-10.29 10.3,-0.44 z m -10.79,0.46 -10.3,0.44 -0.43,-10.3 10.29,-0.43 z m -10.8,0.46 -10.29,0.44 -0.44,-10.3 10.3,-0.44 z m 0,0.5 0.43,10.29 -10.29,0.44 -0.44,-10.29 z m 1.18,15.84 -0.22,-5.15 10.3,-0.43 0.22,5.14 0.21,5.15 -10.29,0.44 z m 10.54,5.21 0.43,10.3 -10.29,0.49 -0.44,-10.29 z m 0.45,10.8 0.44,10.29 -10.3,0.44 -0.43,-10.3 z m 0.5,0 10.3,-0.43 0.43,10.29 -10.29,0.44 z m 10.8,-0.45 10.29,-0.44 0.44,10.3 -10.3,0.43 z m 10.79,-0.46 10.3,-0.44 0.4,10.34 -10.29,0.43 z m 10.8,-0.46 10.29,-0.43 0.44,10.29 -10.3,0.44 z m 0,-0.5 -0.44,-10.29 10.29,-0.44 0.44,10.3 z m -0.92,-21.59 -0.44,-10.29 10.3,-0.44 0.44,10.3 z m -0.46,-10.79 -0.43,-10.3 10.29,-0.43 0.44,10.29 z m -0.45,-10.8 -0.44,-10.29 10.29,-0.44 0.44,10.3 z m -0.5,0 -10.3,0.43 -0.47,-10.26 10.29,-0.44 z m -10.8,0.45 -10.29,0.44 -0.44,-10.3 10.3,-0.43 z m -10.79,0.46 -10.3,0.44 -0.43,-10.3 10.29,-0.43 z m -10.8,0.46 -10.29,0.43 -0.44,-10.29 10.3,-0.44 z m -10.79,0.45 -10.3,0.44 -0.45,-10.22 10.29,-0.44 z m -10.8,0.46 -10.29,0.44 -0.44,-10.3 10.3,-0.43 z m 0,0.5 0.44,10.3 -10.29,0.43 -0.44,-10.29 z m 0.46,10.8 0.44,10.29 -10.3,0.44 L 135,185 Z m 0.92,21.59 0.43,10.29 -10.29,0.44 -0.44,-10.3 z m 0.5,0 10.33,-0.43 0.4,10.3 -10.3,0.44 z m 10.75,10.36 0.43,10.3 -10.29,0.43 -0.44,-10.29 z m 0.46,10.8 0.43,10.29 L 148,238 147.56,227.7 Z m 0.5,0 10.29,-0.44 0.44,10.29 -10.3,0.44 z m 10.79,-0.46 10.29,-0.44 0.44,10.3 -10.29,0.43 z m 10.79,-0.46 10.3,-0.43 0.44,10.29 -10.3,0.44 z m 10.8,-0.46 10.29,-0.43 0.44,10.29 -10.29,0.44 z m 10.79,-0.45 10.3,-0.44 0.43,10.3 -10.29,0.43 z m 10.8,-0.46 10.29,-0.44 0.44,10.3 -10.3,0.43 z m 0,-0.5 -0.44,-10.29 10.3,-0.44 0.43,10.29 z m -0.46,-10.79 -0.44,-10.3 10.3,-0.44 0.43,10.3 z M 211,192.1 l -0.44,-10.3 10.29,-0.43 0.44,10.29 z m -0.46,-10.8 -0.48,-10.3 10.3,-0.44 0.43,10.3 z m -0.54,-10.79 -0.44,-10.3 10.3,-0.43 0.44,10.29 z m -0.46,-10.8 -0.43,-10.29 10.29,-0.44 0.44,10.3 z m -0.5,0 -10.29,0.44 -0.44,-10.3 10.3,-0.43 z m -10.79,0.46 -10.3,0.44 -0.43,-10.3 10.29,-0.43 z m -10.8,0.46 -10.29,0.43 -0.44,-10.29 10.3,-0.44 z m -10.79,0.46 -10.3,0.43 -0.36,-10.27 10.29,-0.44 z m -10.8,0.45 -10.29,0.44 -0.44,-10.3 10.3,-0.43 z m -10.79,0.46 -10.29,0.44 -0.44,-10.3 10.29,-0.43 z m -10.79,0.46 -10.3,0.43 -0.43,-10.29 10.29,-0.44 z m -10.8,0.45 -10.29,0.44 -0.44,-10.29 10.3,-0.44 z m 0,0.5 0.44,10.3 -10.3,0.43 -0.43,-10.29 z m 0.46,10.8 0.44,10.29 -10.3,0.44 -0.43,-10.3 z m 0.46,10.79 0.43,10.3 -10.29,0.43 -0.44,-10.29 z m 0.91,21.59 0.44,10.3 -10.3,0.43 -0.43,-10.29 z m 0.46,10.8 0.44,10.29 -10.3,0.44 -0.44,-10.3 z m 0.5,0 10.29,-0.44 0.44,10.29 -10.29,0.44 z m 10.75,10.35 0.44,10.3 -10.3,0.44 -0.43,-10.3 z m 0.46,10.8 0.43,10.29 -10.29,0.44 -0.38,-10.27 z m 0.5,0 10.29,-0.44 0.44,10.3 -10.3,0.43 z m 10.79,-0.46 10.3,-0.44 0.43,10.3 -10.29,0.44 z m 10.8,-0.46 10.29,-0.43 0.44,10.29 -10.3,0.44 z m 10.79,-0.45 10.3,-0.44 0.43,10.29 -10.29,0.44 z m 10.8,-0.46 10.29,-0.44 0.44,10.3 -10.3,0.43 z m 10.79,-0.46 10.3,-0.43 0.43,10.29 -10.29,0.44 z m 10.8,-0.46 10.29,-0.43 0.44,10.29 -10.3,0.44 z m 10.79,-0.45 10.3,-0.44 0.43,10.3 -10.29,0.43 z m 0,-0.5 -0.44,-10.3 10.3,-0.43 0.43,10.29 z m -0.46,-10.8 -0.43,-10.29 10.29,-0.44 0.44,10.3 z m -0.46,-10.79 -0.43,-10.3 10.29,-0.43 0.44,10.29 z m -0.91,-21.59 -0.44,-10.3 10.3,-0.43 0.43,10.27 z m -0.46,-10.8 -0.43,-10.29 10.29,-0.44 0.44,10.3 z m -0.45,-10.79 -0.44,-10.3 10.29,-0.43 0.44,10.29 z m -0.46,-10.8 -0.4,-10.27 10.3,-0.44 0.43,10.3 z m -0.46,-10.79 -0.44,-10.29 10.3,-0.44 0.44,10.29 z m -0.5,0 -10.29,0.44 -0.44,-10.3 10.29,-0.43 z m -10.79,0.46 -10.3,0.43 -0.43,-10.29 10.29,-0.44 z m -10.8,0.46 -10.29,0.43 -0.44,-10.29 10.3,-0.44 z m -10.79,0.45 -10.3,0.44 -0.43,-10.3 10.29,-0.43 z m -10.8,0.46 -10.29,0.44 -0.44,-10.3 10.3,-0.43 z m -10.79,0.46 -10.3,0.43 -0.43,-10.29 10.29,-0.44 z m -10.8,0.46 -10.29,0.43 -0.44,-10.29 10.3,-0.44 z m -10.79,0.45 -10.3,0.44 -0.43,-10.3 10.29,-0.43 z m -10.8,0.46 -10.29,0.44 -0.44,-10.3 10.3,-0.43 z m -10.79,0.46 -10.23,0.4 -0.43,-10.29 10.29,-0.44 z m 0,0.5 0.44,10.29 -10.3,0.44 -0.43,-10.3 z m 0.46,10.79 0.43,10.3 -10.29,0.43 -0.44,-10.29 z m 0.45,10.8 0.44,10.29 -10.29,0.44 -0.44,-10.3 z m 0.46,10.79 0.44,10.3 -10.3,0.43 -0.43,-10.29 z m 0.92,21.59 0.43,10.29 -10.29,0.44 -0.44,-10.29 z m 0.45,10.79 0.44,10.3 -10.29,0.44 -0.44,-10.3 z m 0.46,10.8 0.44,10.29 -10.3,0.44 -0.43,-10.29 z m 0.5,0 10.3,-0.44 0.43,10.3 -10.29,0.43 z m 10.81,10.34 0.44,10.29 -10.3,0.44 -0.43,-10.3 z m 0.46,10.79 0.44,10.3 -10.3,0.43 -0.43,-10.29 z m 0.5,0 10.3,-0.44 0.43,10.3 -10.29,0.43 z m 10.8,-0.46 10.29,-0.43 0.44,10.29 -10.3,0.44 z m 10.79,-0.45 10.29,-0.44 0.44,10.29 -10.29,0.44 z m 10.79,-0.46 10.3,-0.44 0.44,10.3 -10.3,0.43 z m 10.8,-0.46 10.29,-0.44 0.44,10.3 -10.29,0.44 z m 10.79,-0.46 10.3,-0.43 0.43,10.29 -10.29,0.44 z m 10.8,-0.45 10.29,-0.44 0.44,10.29 -10.3,0.44 z m 10.79,-0.46 10.3,-0.44 0.43,10.3 -10.29,0.43 z m 10.8,-0.46 10.29,-0.43 0.44,10.29 -10.3,0.44 z m 10.79,-0.46 10.3,-0.43 0.43,10.29 -10.29,0.44 z m 0,-0.5 -0.43,-10.29 10.29,-0.44 0.44,10.3 z m -0.46,-10.79 -0.43,-10.3 10.29,-0.43 0.44,10.29 z m -0.45,-10.8 -0.44,-10.29 10.29,-0.44 0.44,10.3 z m -0.46,-10.79 -0.48,-10.31 10.3,-0.44 0.43,10.29 z m -0.92,-21.59 -0.43,-10.29 10.29,-0.44 0.44,10.3 z m -0.45,-10.79 -0.44,-10.3 10.3,-0.43 0.43,10.29 z m -0.46,-10.8 -0.44,-10.29 10.3,-0.44 0.43,10.3 z m -0.46,-10.79 -0.43,-10.3 10.29,-0.43 0.44,10.29 z m -0.45,-10.8 -0.44,-10.29 10.29,-0.44 0.44,10.3 z m -0.46,-10.79 -0.44,-10.3 10.3,-0.43 0.43,10.29 z m -0.5,0 -10.3,0.44 -0.43,-10.3 10.29,-0.43 z m -10.8,0.46 -10.29,0.43 -0.44,-10.29 10.3,-0.44 z m -10.79,0.45 -10.3,0.44 -0.43,-10.29 10.29,-0.44 z m -10.8,0.46 -10.29,0.44 -0.44,-10.3 10.3,-0.43 z m -10.79,0.46 -10.3,0.43 -0.43,-10.29 10.29,-0.44 z m -10.8,0.46 -10.29,0.43 -0.44,-10.29 10.3,-0.44 z M 165,140 l -10.29,0.44 -0.44,-10.3 10.29,-0.43 z m -10.79,0.46 -10.3,0.44 -0.43,-10.3 10.29,-0.43 z m -10.8,0.46 -10.29,0.43 -0.45,-10.35 10.3,-0.44 z m -10.79,0.46 -10.3,0.43 -0.43,-10.29 10.29,-0.44 z m -10.8,0.45 -10.29,0.44 -0.44,-10.3 10.3,-0.43 z m -10.79,0.46 -10.3,0.44 -0.43,-10.3 10.29,-0.43 z m 0,0.5 0.43,10.29 -10.29,0.44 -0.44,-10.29 z m 0.46,10.79 0.43,10.3 -10.29,0.43 L 101.2,154 Z m 0.45,10.8 0.44,10.29 -10.3,0.44 -0.43,-10.3 z m 0.46,10.79 0.44,10.3 -10.3,0.43 -0.43,-10.29 z m 0.46,10.8 0.43,10.29 -10.29,0.44 -0.44,-10.3 z m 0.91,21.59 0.44,10.29 -10.3,0.44 -0.43,-10.3 z m 0.46,10.79 0.44,10.3 -10.3,0.43 -0.44,-10.29 z m 0.46,10.8 0.43,10.29 -10.29,0.44 -0.44,-10.3 z m 0.45,10.79 0.44,10.3 -10.29,0.43 -0.44,-10.29 z m 0.5,0 10.3,-0.44 0.43,10.3 -10.29,0.43 z m 10.76,10.36 0.43,10.29 -10.29,0.44 -0.44,-10.3 z m 0.45,10.79 0.44,10.3 -10.3,0.43 -0.43,-10.29 z m 0.5,0 10.3,-0.43 0.43,10.29 -10.29,0.44 z m 10.8,-0.46 10.29,-0.43 0.44,10.29 -10.3,0.44 z m 10.79,-0.45 10.3,-0.44 0.43,10.3 -10.29,0.43 z m 10.8,-0.46 10.29,-0.44 0.44,10.3 -10.3,0.43 z m 10.79,-0.46 10.3,-0.43 0.43,10.29 -10.29,0.44 z m 10.8,-0.45 10.29,-0.44 0.44,10.29 -10.3,0.44 z m 10.79,-0.46 10.3,-0.44 0.43,10.3 -10.29,0.43 z m 10.8,-0.46 10.29,-0.44 0.44,10.3 -10.3,0.44 z m 10.79,-0.46 10.3,-0.43 0.43,10.29 -10.29,0.44 z m 10.8,-0.45 10.29,-0.44 0.44,10.29 -10.3,0.44 z m 10.79,-0.46 10.3,-0.52 0.44,10.3 -10.29,0.43 z m 10.8,-0.52 10.3,-0.43 0.43,10.29 -10.29,0.44 z m 0,-0.5 -0.43,-10.29 10.29,-0.44 0.44,10.3 z m -0.45,-10.79 -0.44,-10.3 10.29,-0.43 0.44,10.29 z m -0.46,-10.8 -0.44,-10.29 10.3,-0.44 0.43,10.3 z m -0.46,-10.79 -0.44,-10.3 10.3,-0.43 0.44,10.29 z m -0.46,-10.8 -0.45,-10.32 10.29,-0.44 0.44,10.3 z m -0.91,-21.59 -0.44,-10.29 10.3,-0.44 0.43,10.3 z m -0.46,-10.79 -0.43,-10.3 10.29,-0.43 0.44,10.29 z m -0.46,-10.8 -0.44,-10.3 10.29,-0.44 0.44,10.3 z m -0.44,-10.8 -0.44,-10.29 10.3,-0.44 0.43,10.29 z m -0.46,-10.79 -0.44,-10.3 10.3,-0.43 0.43,10.29 z m -0.46,-10.8 -0.43,-10.29 10.29,-0.44 0.44,10.3 z M 240.6,126 l -0.44,-10.3 10.29,-0.43 0.44,10.29 z m -0.5,0 -10.3,0.43 -0.44,-10.29 10.3,-0.44 z m -10.8,0.46 -10.29,0.43 -0.44,-10.29 10.29,-0.44 z m -10.79,0.45 -10.3,0.44 -0.43,-10.3 10.29,-0.43 z m -10.8,0.46 -10.29,0.44 -0.44,-10.3 10.3,-0.43 z m -10.79,0.46 -10.3,0.43 -0.43,-10.26 10.29,-0.44 z m -10.8,0.45 -10.29,0.44 -0.44,-10.29 10.3,-0.44 z m -10.79,0.46 -10.3,0.44 -0.43,-10.3 10.29,-0.43 z m -10.8,0.46 -10.29,0.43 -0.44,-10.29 10.3,-0.44 z m -10.79,0.46 -10.3,0.43 -0.44,-10.31 10.29,-0.44 z m -10.8,0.45 -10.29,0.44 -0.44,-10.3 10.3,-0.43 z m -10.79,0.46 -10.3,0.44 -0.43,-10.3 10.29,-0.43 z m -10.8,0.46 -10.29,0.43 -0.44,-10.29 10.3,-0.44 z m -10.79,0.46 -10.29,0.43 -0.44,-10.29 10.29,-0.44 z m -10.79,0.45 -10.3,0.44 -0.47,-10.32 10.3,-0.43 z m 0,0.5 0.43,10.3 -10.29,0.43 -0.44,-10.29 z m 0.45,10.8 0.44,10.29 L 90.39,154 90,143.65 Z m 0.48,10.76 0.44,10.3 -10.3,0.43 -0.43,-10.29 z m 0.46,10.8 0.43,10.29 -10.29,0.44 -0.44,-10.3 z m 0.46,10.79 0.43,10.3 -10.29,0.43 L 91.32,176 Z m 0.45,10.8 0.44,10.29 -10.3,0.44 -0.43,-10.3 z M 103,208 l 0.43,10.3 -10.29,0.44 -0.44,-10.3 z m 0.45,10.8 0.44,10.29 -10.29,0.44 -0.44,-10.29 z m 0.46,10.79 0.44,10.3 L 94,240.3 93.61,230 Z m 0.46,10.8 0.44,10.29 -10.3,0.44 -0.44,-10.3 z m 0.46,10.79 0.43,10.3 L 95,261.89 94.56,251.6 Z m 0.5,0 10.29,-0.43 0.44,10.29 -10.3,0.44 z m 10.75,10.36 0.43,10.29 -10.29,0.44 -0.44,-10.29 z m 0.46,10.79 0.43,10.3 -10.29,0.44 -0.44,-10.3 z m 0.5,0 10.29,-0.43 0.44,10.29 -10.3,0.44 z m 10.79,-0.45 10.3,-0.44 0.43,10.29 -10.29,0.44 z m 10.8,-0.46 10.29,-0.44 0.44,10.3 -10.3,0.43 z m 10.79,-0.46 10.29,-0.43 0.44,10.29 -10.29,0.44 z m 10.79,-0.46 10.3,-0.43 0.44,10.29 -10.3,0.44 z M 171,270 l 10.29,-0.44 0.44,10.3 -10.29,0.43 z m 10.79,-0.46 10.3,-0.44 0.43,10.3 -10.29,0.43 z m 10.8,-0.46 10.29,-0.43 0.44,10.29 -10.3,0.44 z m 10.79,-0.45 10.3,-0.44 0.43,10.29 -10.29,0.44 z m 10.8,-0.46 10.29,-0.44 0.44,10.3 -10.3,0.43 z m 10.82,-0.47 10.3,-0.44 0.43,10.3 -10.29,0.44 z m 10.8,-0.46 10.29,-0.43 0.44,10.29 -10.3,0.44 z m 10.79,-0.45 10.3,-0.44 0.43,10.29 -10.29,0.44 z m 10.8,-0.46 10.29,-0.44 0.44,10.3 -10.3,0.43 z m 0,-0.5 -0.43,-10.3 10.29,-0.43 0.44,10.29 z m -0.45,-10.8 -0.44,-10.29 10.3,-0.44 0.43,10.3 z m -0.46,-10.79 -0.44,-10.3 10.3,-0.43 0.43,10.29 z m -0.46,-10.8 -0.43,-10.29 10.29,-0.44 0.44,10.3 z m -0.45,-10.79 -0.44,-10.29 10.29,-0.44 0.44,10.29 z m -0.46,-10.79 -0.44,-10.3 10.3,-0.43 0.43,10.29 z m -0.92,-21.59 -0.49,-10.27 10.29,-0.43 0.44,10.29 z m -0.45,-10.8 -0.44,-10.29 10.29,-0.44 L 264,179 Z m -0.46,-10.79 -0.44,-10.3 10.3,-0.43 0.43,10.29 z m -0.46,-10.8 -0.43,-10.29 10.29,-0.44 0.44,10.3 z m -0.46,-10.79 -0.43,-10.3 10.29,-0.43 0.44,10.29 z m -0.45,-10.8 -0.5,-10.29 10.3,-0.44 0.43,10.3 z m -0.46,-10.79 -0.45,-10.3 10.3,-0.43 0.43,10.29 z m -0.46,-10.8 -0.43,-10.29 10.29,-0.44 0.44,10.3 z m -0.5,0 -10.29,0.43 -0.44,-10.29 10.3,-0.44 z m -10.79,0.45 -10.3,0.44 -0.43,-10.3 10.29,-0.43 z m -10.8,0.46 -10.29,0.44 -0.44,-10.3 10.3,-0.43 z m -10.79,0.46 -10.3,0.43 -0.43,-10.29 10.29,-0.44 z m -10.8,0.46 -10.31,0.47 -0.44,-10.29 10.3,-0.44 z m -10.79,0.45 -10.3,0.44 -0.43,-10.3 10.29,-0.43 z m -10.8,0.46 -10.29,0.44 -0.44,-10.3 10.3,-0.43 z m -10.79,0.46 -10.29,0.43 -0.44,-10.29 10.29,-0.44 z m -10.79,0.45 -10.3,0.44 -0.43,-10.29 10.29,-0.44 z m -10.8,0.46 -10.29,0.44 -0.44,-10.3 10.3,-0.43 z m -10.79,0.46 -10.3,0.43 -0.43,-10.29 10.29,-0.44 z m -10.8,0.46 -10.29,0.43 -0.46,-10.26 10.3,-0.44 z m -10.79,0.45 -10.3,0.44 -0.43,-10.3 10.29,-0.43 z m -10.8,0.46 -10.29,0.44 -0.44,-10.3 10.3,-0.43 z m -10.79,0.46 -10.3,0.43 -0.43,-10.29 10.29,-0.44 z m -10.8,0.46 -10.35,0.44 -0.44,-10.29 10.3,-0.44 z m 0,0.5 0.43,10.32 -10.29,0.44 -0.44,-10.3 z m 0.43,10.82 0.44,10.29 -10.3,0.44 -0.43,-10.29 z m 0.46,10.79 0.44,10.3 -10.3,0.43 -0.44,-10.29 z m 0.46,10.8 0.43,10.29 -10.29,0.44 -0.44,-10.3 z m 0.45,10.79 0.44,10.3 -10.3,0.44 -0.44,-10.29 z m 0.46,10.8 0.44,10.29 -10.3,0.44 -0.43,-10.3 z m 0.46,10.79 0.43,10.3 -10.29,0.43 L 81,187.29 Z m 0.91,21.59 0.44,10.3 -10.3,0.43 -0.43,-10.29 z m 0.46,10.8 0.44,10.29 -10.3,0.44 -0.43,-10.3 z m 0.45,10.76 0.43,10.3 -10.29,0.43 -0.44,-10.29 z m 0.45,10.8 0.44,10.32 -10.29,0.44 -0.44,-10.3 z m 0.44,10.82 0.44,10.29 -10.3,0.44 -0.43,-10.29 z m 0.46,10.79 0.44,10.3 -10.3,0.44 -0.43,-10.3 z m 0.5,0 10.29,-0.43 0.44,10.29 -10.29,0.44 z m 10.75,10.36 0.44,10.3 -10.3,0.43 -0.43,-10.29 z m 0.46,10.8 0.43,10.29 -10.29,0.44 -0.42,-10.3 z m 0.5,0 10.29,-0.44 0.44,10.29 -10.3,0.44 z m 10.79,-0.46 10.3,-0.44 0.43,10.3 -10.29,0.43 z m 10.8,-0.46 10.29,-0.44 0.44,10.3 -10.3,0.44 z m 10.79,-0.46 10.3,-0.43 0.45,10.24 -10.29,0.44 z m 10.8,-0.45 10.29,-0.44 0.44,10.29 -10.3,0.44 z m 10.79,-0.46 10.3,-0.44 0.43,10.3 -10.29,0.43 z m 10.8,-0.46 10.29,-0.43 0.44,10.29 -10.3,0.44 z m 10.79,-0.46 10.3,-0.43 0.43,10.29 -10.29,0.44 z m 10.8,-0.45 10.29,-0.44 0.44,10.3 -10.3,0.43 z m 10.79,-0.46 10.29,-0.44 0.44,10.3 -10.29,0.43 z m 10.79,-0.46 10.3,-0.43 0.44,10.29 -10.3,0.44 z m 10.8,-0.45 10.29,-0.44 0.44,10.29 -10.29,0.44 z m 10.79,-0.46 10.3,-0.44 0.43,10.3 -10.29,0.43 z m 10.8,-0.46 10.29,-0.44 0.44,10.3 -10.3,0.44 z m 10.79,-0.46 10.3,-0.43 0.43,10.29 -10.29,0.44 z m 10.8,-0.45 10.29,-0.44 0.44,10.29 L 269,287 Z m 0,-0.5 -0.44,-10.3 10.3,-0.43 0.43,10.29 z m -0.46,-10.8 -0.44,-10.29 10.3,-0.44 0.43,10.3 z m -0.46,-10.79 -0.43,-10.3 10.29,-0.43 0.44,10.29 z m -0.46,-10.8 -0.43,-10.29 10.29,-0.44 0.44,10.3 z m -0.45,-10.82 -0.44,-10.3 10.3,-0.43 0.43,10.29 z m -0.46,-10.8 -0.44,-10.29 10.3,-0.44 0.43,10.3 z m -0.46,-10.79 -0.43,-10.3 10.29,-0.43 0.44,10.29 z m -0.91,-21.59 -0.44,-10.29 10.3,-0.44 0.43,10.29 z m -0.46,-10.8 -0.47,-10.3 10.3,-0.44 0.44,10.3 z m -0.47,-10.8 -0.43,-10.29 10.29,-0.44 0.44,10.29 z m -0.45,-10.79 -0.44,-10.3 10.29,-0.43 0.44,10.29 z m -0.46,-10.8 -0.44,-10.29 10.3,-0.44 0.43,10.3 z m -0.46,-10.79 -0.43,-10.3 10.29,-0.43 0.44,10.29 z m -0.46,-10.8 -0.43,-10.29 10.29,-0.44 0.44,10.3 z m -0.45,-10.79 -0.44,-10.3 10.3,-0.43 0.43,10.29 z m -0.46,-10.8 -0.44,-10.29 10.3,-0.44 0.43,10.3 z m -0.5,0 -10.29,0.44 -0.47,-10.27 10.29,-0.44 z m -10.79,0.46 -10.3,0.44 -0.44,-10.3 10.3,-0.43 z m -10.8,0.46 -10.29,0.43 -0.44,-10.29 10.29,-0.44 z m -10.79,0.46 -10.3,0.43 L 217.66,95 228,94.55 Z m -10.8,0.45 -10.29,0.44 -0.44,-10.3 10.3,-0.43 z m -10.79,0.46 -10.3,0.44 -0.43,-10.3 10.29,-0.43 z m -10.8,0.46 -10.29,0.43 -0.44,-10.29 10.3,-0.44 z m -10.79,0.46 -10.3,0.43 -0.43,-10.29 10.29,-0.44 z m -10.8,0.45 -10.29,0.44 -0.44,-10.3 10.3,-0.43 z m -10.79,0.46 -10.3,0.44 -0.43,-10.3 10.29,-0.43 z m -10.8,0.46 -10.29,0.43 -0.44,-10.29 10.3,-0.44 z m -10.81,0.47 -10.3,0.44 -0.43,-10.29 10.29,-0.44 z m -10.8,0.46 -10.29,0.44 -0.44,-10.3 10.3,-0.43 z m -10.79,0.46 -10.29,0.43 -0.44,-10.29 10.32,-0.44 z m -10.79,0.46 -10.3,0.43 -0.41,-10.31 10.3,-0.44 z m -10.8,0.45 -10.29,0.44 -0.44,-10.3 10.32,-0.47 z m -10.79,0.46 -10.3,0.44 -0.43,-10.3 10.29,-0.43 z m -10.8,0.46 -10.23,0.43 -0.44,-10.29 10.3,-0.44 z m 0,0.5 0.49,10.25 -10.3,0.44 L 67,112.18 Z m 0.46,10.79 0.44,10.3 -10.3,0.43 L 67.45,123 Z m 0.46,10.8 0.43,10.29 -10.29,0.44 -0.44,-10.3 z m 0.45,10.79 0.44,10.3 -10.29,0.43 -0.44,-10.29 z m 0.46,10.8 0.44,10.29 -10.3,0.44 -0.43,-10.3 z M 79.52,165.72 80,176 69.7,176.43 69.26,166.14 Z m 0.46,10.8 0.43,10.29 -10.29,0.44 L 69.73,177 Z m 0.45,10.79 0.44,10.29 -10.24,0.4 -0.44,-10.29 z m 0.92,21.59 0.43,10.29 -10.29,0.44 -0.44,-10.29 z m 0.46,10.79 0.43,10.3 -10.24,0.43 -0.44,-10.29 z m 0.45,10.8 0.44,10.29 -10.3,0.44 -0.4,-10.3 z m 0.46,10.79 0.44,10.3 -10.3,0.43 -0.43,-10.29 z m 0.46,10.8 0.43,10.29 -10.29,0.44 -0.44,-10.3 z m 0.45,10.79 0.44,10.3 -10.29,0.43 -0.44,-10.29 z m 0.46,10.8 0.49,10.33 -10.3,0.44 -0.43,-10.3 z m 0.5,0 10.3,-0.44 0.43,10.29 -10.29,0.44 z m 10.8,10.33 0.44,10.3 -10.29,0.43 -0.44,-10.29 z m 0.46,10.8 0.44,10.29 -10.3,0.44 -0.43,-10.3 z m 0.5,0 10.3,-0.44 0.43,10.3 -10.29,0.43 z m 10.8,-0.46 10.29,-0.44 0.44,10.3 -10.3,0.43 z m 10.79,-0.46 10.3,-0.43 0.43,10.29 -10.29,0.44 z m 10.8,-0.45 10.26,-0.43 0.44,10.29 -10.3,0.44 z m 10.79,-0.46 10.29,-0.44 0.44,10.3 -10.29,0.43 z m 10.79,-0.46 10.3,-0.44 0.44,10.3 -10.3,0.44 z m 10.8,-0.46 10.29,-0.43 0.44,10.29 -10.29,0.44 z m 10.79,-0.45 10.3,-0.44 0.43,10.29 -10.29,0.44 z m 10.8,-0.46 10.29,-0.44 0.44,10.3 -10.3,0.43 z m 10.79,-0.46 10.3,-0.43 0.43,10.29 -10.29,0.44 z m 10.8,-0.46 10.29,-0.43 0.44,10.29 -10.3,0.44 z m 10.79,-0.45 10.3,-0.44 0.43,10.3 -10.29,0.43 z m 10.8,-0.46 10.29,-0.44 0.44,10.3 -10.3,0.43 z m 10.79,-0.46 10.3,-0.43 0.43,10.29 -10.29,0.44 z m 10.8,-0.45 10.29,-0.44 0.44,10.29 -10.3,0.44 z m 10.79,-0.46 10.3,-0.44 0.43,10.3 -10.29,0.43 z m 10.8,-0.46 10.29,-0.44 0.44,10.3 -10.3,0.43 z m 2,-195.24 -10.3,0.44 -0.43,-10.3 10.29,-0.43 z m -10.8,0.46 -10.27,0.42 -0.44,-10.3 10.3,-0.43 z m -10.79,0.46 -10.3,0.43 -0.43,-10.29 10.29,-0.44 z M 238.68,93.61 228.43,94 228,83.74 238.3,83.3 Z m -10.79,0.46 -10.3,0.44 -0.43,-10.3 10.29,-0.43 z m -10.8,0.46 -10.29,0.43 -0.44,-10.29 10.3,-0.44 z M 206.34,95 196.05,95.43 195.61,85.14 205.9,84.7 Z m -10.79,0.45 -10.3,0.44 -0.44,-10.3 10.3,-0.43 z m -10.8,0.46 -10.29,0.44 L 174,86 184.29,85.57 Z M 174,96.34 163.7,96.77 163.27,86.48 173.52,86 Z m -10.8,0.46 -10.29,0.43 -0.44,-10.29 10.3,-0.44 z m -10.79,0.45 -10.3,0.44 -0.43,-10.3 10.25,-0.39 z m -10.8,0.46 -10.29,0.44 -0.44,-10.3 10.3,-0.44 z m -10.79,0.46 -10.3,0.43 -0.43,-10.29 10.29,-0.44 z m -10.8,0.45 -10.29,0.44 -0.44,-10.29 v 0 l 10.3,-0.44 z m -10.79,0.46 -10.3,0.44 -0.43,-10.27 v 0 l 10.29,-0.43 z M 98.43,99.54 88.1,100 87.66,89.75 v 0 L 98,89.24 Z M 87.6,100 77.3,100.43 76.87,90.19 v 0 l 10.29,-0.44 z m -10.8,0.45 -10.29,0.44 -0.43,-10.22 v -0.08 l 10.3,-0.43 z m -2.5,184.45 10.3,-0.44 0.44,10.3 -10.3,0.43 z m 10.76,10.36 0.43,10.29 L 75.2,306 74.76,295.7 Z m 0.45,10.79 0.49,10.29 -10.29,0.44 -0.44,-10.29 z m 0.5,0 10.3,-0.44 0.43,10.3 -10.29,0.43 z m 10.8,-0.46 10.29,-0.43 0.44,10.29 -10.3,0.44 z m 10.79,-0.46 10.3,-0.43 0.43,10.29 -10.29,0.44 z m 10.8,-0.45 10.29,-0.44 0.44,10.3 -10.3,0.43 z m 10.79,-0.46 10.3,-0.44 0.43,10.3 -10.29,0.43 z m 10.8,-0.46 10.29,-0.43 0.44,10.29 -10.3,0.44 z m 10.79,-0.45 10.3,-0.44 0.43,10.29 -10.29,0.44 z m 10.8,-0.46 10.29,-0.44 0.44,10.3 -10.3,0.43 z m 10.79,-0.46 10.3,-0.44 0.43,10.3 -10.29,0.44 z m 10.8,-0.46 10.29,-0.43 0.44,10.29 -10.3,0.44 z m 10.79,-0.45 10.29,-0.44 0.44,10.29 -10.29,0.44 z m 10.79,-0.46 10.3,-0.44 0.44,10.3 -10.3,0.43 z m 10.8,-0.46 10.29,-0.43 0.44,10.29 -10.29,0.44 z m 10.79,-0.46 10.3,-0.43 0.43,10.29 -10.29,0.44 z m 10.8,-0.45 10.29,-0.44 0.44,10.3 -10.3,0.43 z m 10.79,-0.46 10.3,-0.44 0.43,10.3 -10.29,0.43 z m 10.8,-0.46 10.29,-0.43 0.44,10.29 -10.3,0.44 z m 10.79,-0.46 10.3,-0.43 0.43,10.29 -10.29,0.44 z m 10.8,-0.45 10.29,-0.44 0.44,10.3 -10.3,0.43 z M 64,296.15 74.29,295.71 74.7,306 l -7.78,0.33 -2.83,-7.22 z m 3.14,10.68 7.61,-0.32 0.44,10.29 -5.85,0.25 1,-2 z"
       style="opacity:0.1;fill:#fafafa"
       id="path32414" />
    <path
       d="m 159,136.07 c -3.1,0 -6.18,-0.06 -9.22,-0.16 a 0.24,0.24 0 0 1 -0.19,-0.11 0.23,0.23 0 0 1 0,-0.21 255.35,255.35 0 0 1 17.82,-45.07 1.44,1.44 0 0 1 1.2,-0.76 1.4,1.4 0 0 1 1.25,0.66 255.61,255.61 0 0 1 21.57,43.39 0.24,0.24 0 0 1 0,0.22 0.23,0.23 0 0 1 -0.18,0.12 c -6.75,0.81 -13.71,1.38 -20.67,1.67 -3.96,0.18 -7.81,0.25 -11.58,0.25 z m -8.88,-0.65 c 6.69,0.22 13.54,0.19 20.37,-0.1 6.83,-0.29 13.68,-0.84 20.32,-1.63 a 258,258 0 0 0 -21.41,-43 0.92,0.92 0 0 0 -0.81,-0.43 0.94,0.94 0 0 0 -0.78,0.5 258.77,258.77 0 0 0 -17.74,44.66 z"
       style="fill:#fafafa"
       id="path32416" />
    <path
       d="m 141.84,230.68 a 0.24,0.24 0 0 1 -0.25,-0.22 c -1,-7.93 -1.59,-15 -1.86,-21.46 -1,-23.3 2.3,-48 9.77,-73.41 a 0.27,0.27 0 0 1 0.25,-0.18 c 6.79,0.24 13.75,0.21 20.69,-0.09 6.94,-0.3 13.9,-0.85 20.64,-1.66 a 0.24,0.24 0 0 1 0.26,0.15 246.08,246.08 0 0 1 12.78,44.5 0.25,0.25 0 0 1 -0.21,0.29 0.25,0.25 0 0 1 -0.29,-0.2 A 245.37,245.37 0 0 0 191,134.17 c -6.7,0.81 -13.59,1.36 -20.48,1.65 -6.89,0.29 -13.8,0.33 -20.55,0.09 -7.41,25.3 -10.68,49.88 -9.69,73.07 0.27,6.5 0.88,13.5 1.86,21.42 a 0.26,0.26 0 0 1 -0.22,0.28 z M 207,227.92 v 0 a 0.25,0.25 0 0 1 -0.24,-0.26 c 0.3,-8 0.32,-15 0,-21.5 a 0.25,0.25 0 0 1 0.24,-0.26 0.24,0.24 0 0 1 0.26,0.24 c 0.28,6.51 0.26,13.56 0,21.54 a 0.25,0.25 0 0 1 -0.26,0.24 z"
       style="fill:#fafafa"
       id="path32418" />
    <path
       d="m 172.22,200.38 a 22.05,22.05 0 0 1 -22.1,-20.71 v -0.19 c 0,-0.12 0,-0.24 0,-0.36 a 22.204905,22.204905 0 1 1 44.37,-1.88 c 0,0.12 0,0.25 0,0.38 v 0.17 a 22.07,22.07 0 0 1 -21.26,22.57 c -0.35,0.02 -0.68,0.02 -1.01,0.02 z m 0.07,-43.91 h -0.94 a 21.7,21.7 0 0 0 -20.77,22.61 c 0,0.11 0,0.23 0,0.35 v 0.19 A 21.729063,21.729063 0 0 0 194,177.8 v -0.18 c 0,-0.12 0,-0.24 0,-0.36 a 21.7,21.7 0 0 0 -21.66,-20.79 z m 0,37.92 a 16.11,16.11 0 1 1 0.7,0 z m 0.69,-0.26 z m -0.67,-31.67 h -0.67 a 15.714077,15.714077 0 1 0 1.33,31.4 v 0 a 15.72,15.72 0 0 0 -0.66,-31.42 z"
       style="fill:#fafafa"
       id="path32420" />
    <path
       d="m 172.25,194.39 a 16.11,16.11 0 1 1 0.7,0 z m 0.69,-0.26 z m -0.66,-31.67 h -0.68 a 15.714077,15.714077 0 1 0 1.33,31.4 v 0 a 15.73,15.73 0 0 0 15,-16.37 15.73,15.73 0 0 0 -15.68,-15 z"
       style="fill:#fafafa"
       id="path32422" />
    <path
       d="m 130.68,309.58 a 4.68,4.68 0 0 1 -1.62,-0.3 c -2.12,-0.8 -4.16,-3.27 -4,-7 l 1.77,-33.47 a 7.89,7.89 0 0 1 0.52,-2.47 l 14.21,-36 a 0.26,0.26 0 0 1 0.27,-0.16 0.28,0.28 0 0 1 0.22,0.22 c 1.35,10.95 3.19,21.89 5,32.46 0.56,3.29 1.11,6.55 1.63,9.75 l 18.62,-0.79 -1,-4.28 a 8.14,8.14 0 0 1 -0.09,-3.26 9.9,9.9 0 0 1 19.33,-0.82 8.1,8.1 0 0 1 0.18,3.25 l -0.62,4.36 18.62,-0.79 q 0.38,-4.86 0.8,-9.86 c 0.88,-10.68 1.79,-21.73 2.21,-32.76 a 0.24,0.24 0 0 1 0.2,-0.23 0.24,0.24 0 0 1 0.27,0.13 l 17.21,34.67 a 7.64,7.64 0 0 1 0.73,2.42 l 4.6,33.2 c 0.51,3.7 -1.32,6.33 -3.36,7.3 a 4.64,4.64 0 0 1 -5.57,-1.26 l -17.9,-19.24 -19.88,0.84 -0.75,5.23 a 5.35,5.35 0 0 1 -10.52,0.45 l -1.17,-5.17 -19.88,0.84 -16.21,20.71 a 4.85,4.85 0 0 1 -3.82,2.03 z m 11,-78.14 -13.85,35.09 a 7.39,7.39 0 0 0 -0.5,2.31 l -1.76,33.47 v 0 c -0.19,3.48 1.69,5.77 3.64,6.5 a 4.17,4.17 0 0 0 4.87,-1.57 l 16.28,-20.78 a 0.24,0.24 0 0 1 0.18,-0.09 l 20.2,-0.86 a 0.26,0.26 0 0 1 0.26,0.2 l 1.23,5.35 a 4.86,4.86 0 0 0 9.55,-0.41 l 0.78,-5.43 A 0.25,0.25 0 0 1 182.79,285 L 203,284.15 a 0.21,0.21 0 0 1 0.19,0.08 l 18,19.32 a 4.15,4.15 0 0 0 5,1.15 c 1.88,-0.89 3.56,-3.33 3.08,-6.78 l -4.59,-33.2 a 7.22,7.22 0 0 0 -0.69,-2.27 l -16.77,-33.79 c -0.43,10.71 -1.32,21.43 -2.18,31.81 q -0.42,5.1 -0.81,10.07 a 0.25,0.25 0 0 1 -0.24,0.23 l -19.14,0.81 a 0.28,0.28 0 0 1 -0.2,-0.08 0.25,0.25 0 0 1 -0.06,-0.2 l 0.67,-4.66 a 7.65,7.65 0 0 0 -0.17,-3.05 9.4,9.4 0 0 0 -18.36,0.78 7.64,7.64 0 0 0 0.08,3.05 l 1.06,4.58 a 0.25,0.25 0 0 1 0,0.21 0.26,0.26 0 0 1 -0.19,0.1 l -19.14,0.81 a 0.23,0.23 0 0 1 -0.25,-0.21 c -0.54,-3.27 -1.1,-6.6 -1.67,-10 -1.78,-10.23 -3.57,-20.84 -4.91,-31.47 z m -16.33,70.86 z"
       style="fill:#fafafa"
       id="path32424" />
  </g>
  <g
     id="freepik--Character--inject-45"
     transform="translate(-35.585041,-55)">
    <path
       d="m 381.26,214.79 -4.73,-0.21 2.14,9 a 24.77,24.77 0 0 0 4.58,-4.05 2.27,2.27 0 0 0 -0.24,-3.21 z"
       style="fill:#ebb376"
       id="path32427" />
    <polygon
       points="371.04,219.43 373.17,226.75 378.67,223.56 376.53,214.58 "
       style="fill:#ebb376"
       id="polygon32429" />
    <rect
       x="295.62"
       y="114.09"
       width="6.4699998"
       height="160.17999"
       transform="rotate(103.19,298.85233,194.18819)"
       style="fill:#60a3ab"
       id="rect32431" />
    <rect
       x="295.62"
       y="114.09"
       width="6.4699998"
       height="160.17999"
       transform="rotate(103.19,298.85233,194.18819)"
       style="opacity:0.6"
       id="rect32433" />
    <rect
       x="292.67001"
       y="126.69"
       width="6.4699998"
       height="160.17999"
       transform="rotate(103.19,295.90298,206.78279)"
       style="fill:#60a3ab"
       id="rect32435" />
    <rect
       x="292.67001"
       y="126.69"
       width="6.4699998"
       height="160.17999"
       transform="rotate(103.19,295.90298,206.78279)"
       style="opacity:0.6"
       id="rect32437" />
    <rect
       x="294.14999"
       y="120.39"
       width="6.4699998"
       height="160.17999"
       transform="rotate(103.19,297.38162,200.48049)"
       style="fill:#263238"
       id="rect32439" />
    <polygon
       points="207.8,182.48 209.13,176.81 221.62,172.76 217.19,191.65 "
       style="fill:#e4897b"
       id="polygon32441" />
    <polygon
       points="207.8,182.48 203.78,178.55 209.13,176.81 "
       style="fill:#fafafa"
       id="polygon32443" />
    <path
       d="m 304.66,172.25 c -3.35,4.5 -6.81,8.74 -10.5,12.91 -1.85,2.07 -3.72,4.13 -5.69,6.13 -1.97,2 -4,4 -6.13,5.88 l -0.4,0.36 -0.55,0.48 a 10.15,10.15 0 0 1 -1.77,1.16 10.81,10.81 0 0 1 -3.44,1.06 17.47,17.47 0 0 1 -5.54,-0.2 39.73,39.73 0 0 1 -8.69,-2.85 80.25,80.25 0 0 1 -14.59,-8.7 l 2.84,-4.73 c 2.39,1 4.88,2.07 7.34,3 2.46,0.93 4.93,1.82 7.37,2.53 a 35.77,35.77 0 0 0 7,1.46 7.89,7.89 0 0 0 2.58,-0.15 c 0.27,-0.08 0.42,-0.17 0.41,-0.19 -0.01,-0.02 0,0 -0.08,0 -0.08,0 0.09,-0.1 0.19,-0.21 l 0.34,-0.34 c 3.57,-3.71 7,-7.76 10.4,-11.86 3.4,-4.1 6.75,-8.32 10,-12.45 z"
       style="fill:#ebb376"
       id="path32445" />
    <polygon
       points="239.55,175.03 235.42,180.29 242.55,185.56 246.67,177.83 "
       style="fill:#ebb376"
       id="polygon32447" />
    <path
       d="m 250.48,183.9 -3.81,-6.07 -4.12,7.73 c 0,0 3.51,5.2 8,3.19 z"
       style="fill:#ebb376"
       id="path32449" />
    <path
       d="m 345.37,164.64 q 4.13,7.29 7.95,14.77 c 1.29,2.47 2.53,5 3.8,7.47 l 1.85,3.77 0.47,0.93 c 0.1,0.16 0.12,0.28 0.27,0.5 0.15,0.22 0.24,0.4 0.41,0.64 0.17,0.24 0.32,0.45 0.51,0.69 a 70.18,70.18 0 0 0 5.13,5.88 c 1.85,2 3.81,3.9 5.75,5.86 l 11.86,11.67 -3.43,4.32 c -4.76,-3.1 -9.36,-6.35 -13.83,-9.84 -2.26,-1.73 -4.45,-3.55 -6.64,-5.42 a 74.52,74.52 0 0 1 -6.44,-6.22 c -0.26,-0.29 -0.53,-0.61 -0.79,-0.95 -0.26,-0.34 -0.54,-0.68 -0.81,-1.06 -0.27,-0.38 -0.57,-0.85 -0.84,-1.28 l -0.54,-0.9 -2.15,-3.6 c -1.4,-2.41 -2.84,-4.8 -4.21,-7.23 q -4.2,-7.24 -8.08,-14.65 z"
       style="fill:#ebb376"
       id="path32451" />
    <path
       d="m 307.55,136.22 c 0.12,0.58 -0.09,1.13 -0.46,1.23 -0.37,0.1 -0.78,-0.3 -0.9,-0.88 -0.12,-0.58 0.08,-1.13 0.45,-1.23 0.37,-0.1 0.78,0.3 0.91,0.88 z"
       style="fill:#263238"
       id="path32453" />
    <path
       d="m 307.52,137.34 a 22.24,22.24 0 0 1 -1.7,5.65 3.39,3.39 0 0 0 2.86,-0.17 z"
       style="fill:#de5753"
       id="path32455" />
    <path
       d="m 306,132.7 a 0.35,0.35 0 0 1 -0.29,-0.15 0.34,0.34 0 0 1 0.09,-0.48 3.41,3.41 0 0 1 3.15,-0.24 0.36,0.36 0 0 1 0.19,0.46 0.35,0.35 0 0 1 -0.45,0.19 2.69,2.69 0 0 0 -2.49,0.16 0.36,0.36 0 0 1 -0.2,0.06 z"
       style="fill:#263238"
       id="path32457" />
    <path
       d="m 327.77,138.43 c -1.26,5.38 -2.69,15.22 0.93,18.81 0,0 -1.68,5.45 -11.67,5.45 -11,0 -5,-5.45 -5,-5.45 6.05,-1.43 6.07,-5.88 5.19,-10.05 z"
       style="fill:#ebb376"
       id="path32459" />
    <path
       d="m 330.06,159.11 c 0.86,-1.72 1.8,-3.7 0,-4.32 -1.94,-0.68 -12.71,-1.37 -16.48,-0.1 a 4,4 0 0 0 -2.85,4.78 z"
       style="fill:#60a3ab"
       id="path32461" />
    <path
       d="m 330.06,159.11 c 0.86,-1.72 1.8,-3.7 0,-4.32 -1.94,-0.68 -12.71,-1.37 -16.48,-0.1 a 4,4 0 0 0 -2.85,4.78 z"
       style="opacity:0.6;fill:#fafafa"
       id="path32463" />
    <path
       d="m 346.33,409.64 c 0,0 -2.79,-2 -3.45,-0.85 -0.78,1.33 2.27,1.14 3.45,0.85 z"
       style="fill:#60a3ab"
       id="path32465" />
    <path
       d="m 346.33,409.64 c 0,0 -0.12,-3.13 -1.47,-3 -1.35,0.13 0.54,2.49 1.47,3 z"
       style="fill:#60a3ab"
       id="path32467" />
    <path
       d="m 302.56,409.64 c 0,0 -3.46,-2 -4.18,-0.85 -0.72,1.15 2.76,1.14 4.18,0.85 z"
       style="fill:#60a3ab"
       id="path32469" />
    <path
       d="m 302.56,409.64 c 0,0 -0.18,-3.13 -1.8,-3 -1.62,0.13 0.67,2.49 1.8,3 z"
       style="fill:#60a3ab"
       id="path32471" />
    <polygon
       points="310.64,409.64 303.29,409.64 303.22,392.63 310.56,392.63 "
       style="fill:#ebb376"
       id="polygon32473" />
    <polygon
       points="354.75,409.64 347.4,409.64 344.37,392.63 351.71,392.63 "
       style="fill:#ebb376"
       id="polygon32475" />
    <path
       d="m 346.91,408.79 h 8.25 a 0.61,0.61 0 0 1 0.61,0.51 l 1.2,6.53 a 1.13,1.13 0 0 1 -1.13,1.3 c -2.88,-0.05 -4.27,-0.22 -7.9,-0.22 -2.23,0 -6.84,0.24 -9.92,0.24 -3.08,0 -3.37,-3 -2.1,-3.33 5.71,-1.24 7.91,-2.95 9.78,-4.57 a 1.83,1.83 0 0 1 1.21,-0.46 z"
       style="fill:#263238"
       id="path32477" />
    <path
       d="m 303.37,408.79 h 8 a 0.6,0.6 0 0 1 0.6,0.51 l 1.2,6.53 a 1.11,1.11 0 0 1 -1.11,1.3 c -2.89,-0.05 -7.06,-0.22 -10.7,-0.22 -4.25,0 -7.94,0.24 -12.92,0.24 -3,0 -3.74,-3 -2.47,-3.33 5.8,-1.26 10.5,-1.39 15.58,-4.45 a 3.46,3.46 0 0 1 1.82,-0.58 z"
       style="fill:#263238"
       id="path32479" />
    <path
       d="m 342.72,158.9 c 6.82,1.58 14,20.35 14,20.35 l -14.19,9.48 A 110.51,110.51 0 0 1 334,173.2 c -3.77,-8.59 1.74,-15.91 8.72,-14.3 z"
       style="fill:#60a3ab"
       id="path32481" />
    <path
       d="m 337.32,170.87 5.87,17.41 -0.67,0.45 c 0,0 -2.68,-4 -5.53,-9.33 z"
       style="fill:#60a3ab"
       id="path32483" />
    <path
       d="m 337.32,170.87 5.87,17.41 -0.67,0.45 c 0,0 -2.68,-4 -5.53,-9.33 z"
       style="opacity:0.2"
       id="path32485" />
    <path
       d="m 296.88,191.72 c 0.06,8.2 0.55,18.4 1.78,31.06 H 338 c 0.5,-6 -2.16,-35.46 4.75,-63.88 a 101.07,101.07 0 0 0 -13.08,-1.66 145.27,145.27 0 0 0 -16.7,0 75.12,75.12 0 0 0 -11.38,2 c 0,0 -3.36,3.64 -4.38,20.71 -0.21,3.41 -0.35,7.29 -0.33,11.77 z"
       style="fill:#60a3ab"
       id="path32487" />
    <path
       d="m 296.88,191.72 c 2.38,-4.34 6.7,-13.05 6.09,-18 l -5.8,6.28 c -0.17,3.36 -0.31,7.24 -0.29,11.72 z"
       style="fill:#60a3ab"
       id="path32489" />
    <path
       d="m 296.88,191.72 c 2.38,-4.34 6.7,-13.05 6.09,-18 l -5.8,6.28 c -0.17,3.36 -0.31,7.24 -0.29,11.72 z"
       style="opacity:0.2"
       id="path32491" />
    <path
       d="m 309.25,165.92 c 0.62,7 -15.25,23.84 -15.25,23.84 L 281.28,179.4 a 82,82 0 0 1 11.89,-15.5 c 7.44,-7.19 15.39,-5.82 16.08,2.02 z"
       style="fill:#60a3ab"
       id="path32493" />
    <polygon
       points="303.22,392.64 303.26,401.4 310.61,401.4 310.57,392.64 "
       style="fill:#da9d62"
       id="polygon32495" />
    <polygon
       points="351.71,392.64 344.36,392.64 345.93,401.4 353.28,401.4 "
       style="fill:#da9d62"
       id="polygon32497" />
    <path
       d="m 326.45,130.15 c 1.07,7.24 2.07,11.4 -0.72,16 a 9.49,9.49 0 0 1 -16.79,-0.89 c -2.87,-6 -4.15,-16.84 2.16,-21.42 a 9.58,9.58 0 0 1 15.35,6.31 z"
       style="fill:#ebb376"
       id="path32499" />
    <path
       d="m 333.67,133.72 c -2.52,6.48 -4.34,9.33 -7.36,10.38 -7.88,2.74 -12.75,-6.86 -14.58,-15.23 a 14.74,14.74 0 0 1 -7,-2.15 c -3.48,-2.22 -4.68,-6.16 1.31,-9.55 0.05,0.22 1.27,2.64 5.85,1 7.68,-2.75 22.39,-5.67 20.08,2.72 3.64,0.05 4.21,6.36 1.7,12.83 z"
       style="fill:#263238"
       id="path32501" />
    <path
       d="m 317.36,134.63 a 8.62,8.62 0 0 1 -1.76,5.09 c -1.49,1.92 -3.2,1 -3.61,-1.16 -0.36,-1.92 0,-5.24 1.86,-6.4 1.86,-1.16 3.52,0.27 3.51,2.47 z"
       style="fill:#ebb376"
       id="path32503" />
    <path
       d="m 330.66,120.78 a 6.17,6.17 0 0 0 4.14,-4 c 0,0 1.37,5.74 -4.14,4 z"
       style="fill:#263238"
       id="path32505" />
    <path
       d="m 312.6,222.78 c 0,0 6.17,56.14 9.93,77.17 4.12,23 20,99.76 20,99.76 H 356 c 0,0 -9.56,-74.87 -11.54,-97.67 -2.15,-24.75 -6.54,-79.26 -6.54,-79.26 z"
       style="fill:#60a3ab"
       id="path32507" />
    <path
       d="m 312.6,222.78 c 0,0 6.17,56.14 9.93,77.17 4.12,23 20,99.76 20,99.76 H 356 c 0,0 -9.56,-74.87 -11.54,-97.67 -2.15,-24.75 -6.54,-79.26 -6.54,-79.26 z"
       style="opacity:0.6;fill:#fafafa"
       id="path32509" />
    <path
       d="m 340.62,394.75 c -0.06,0 1.19,5.17 1.19,5.17 h 15.13 l -0.09,-4.61 z"
       style="fill:#60a3ab"
       id="path32511" />
    <path
       d="m 340.62,394.75 c -0.06,0 1.19,5.17 1.19,5.17 h 15.13 l -0.09,-4.61 z"
       style="opacity:0.1;fill:#fafafa"
       id="path32513" />
    <path
       d="m 317.09,242.78 c 9.57,1.89 7.16,37.84 5.29,56.33 C 320.1,286 317,260.89 314.91,243 a 3.35,3.35 0 0 1 2.18,-0.22 z"
       style="fill:#60a3ab"
       id="path32515" />
    <path
       d="m 317.09,242.78 c 9.57,1.89 7.16,37.84 5.29,56.33 C 320.1,286 317,260.89 314.91,243 a 3.35,3.35 0 0 1 2.18,-0.22 z"
       style="opacity:0.4;fill:#fafafa"
       id="path32517" />
    <path
       d="m 298.66,222.78 c 0,0 -3.13,54.92 -3.2,77.33 -0.07,23.3 5.12,99.6 5.12,99.6 H 313 c 0,0 3.35,-74.94 4.79,-97.82 1.56,-24.95 6.67,-79.11 6.67,-79.11 z"
       style="fill:#60a3ab"
       id="path32519" />
    <path
       d="m 298.66,222.78 c 0,0 -3.13,54.92 -3.2,77.33 -0.07,23.3 5.12,99.6 5.12,99.6 H 313 c 0,0 3.35,-74.94 4.79,-97.82 1.56,-24.95 6.67,-79.11 6.67,-79.11 z"
       style="opacity:0.6;fill:#fafafa"
       id="path32521" />
    <path
       d="m 303.53,390.77 a 0.13,0.13 0 0 1 -0.13,-0.12 c -1.38,-21.12 -4.58,-72.22 -4.52,-90.54 0.05,-18.76 2.28,-60.7 3,-73.11 a 0.13,0.13 0 1 1 0.25,0 c -0.68,12.41 -2.91,54.35 -3,73.1 -0.06,18.31 3.14,69.41 4.52,90.52 a 0.13,0.13 0 0 1 -0.12,0.14 z"
       style="fill:#60a3ab"
       id="path32523" />
    <path
       d="m 303.53,390.77 a 0.13,0.13 0 0 1 -0.13,-0.12 c -1.38,-21.12 -4.58,-72.22 -4.52,-90.54 0.05,-18.76 2.28,-60.7 3,-73.11 a 0.13,0.13 0 1 1 0.25,0 c -0.68,12.41 -2.91,54.35 -3,73.1 -0.06,18.31 3.14,69.41 4.52,90.52 a 0.13,0.13 0 0 1 -0.12,0.14 z"
       style="opacity:0.4;fill:#fafafa"
       id="path32525" />
    <path
       d="m 298.38,394.75 c -0.06,0 0.5,5.17 0.5,5.17 H 314 l 0.59,-4.61 z"
       style="fill:#60a3ab"
       id="path32527" />
    <path
       d="m 298.38,394.75 c -0.06,0 0.5,5.17 0.5,5.17 H 314 l 0.59,-4.61 z"
       style="opacity:0.1;fill:#fafafa"
       id="path32529" />
  </g>
</svg>
