<?xml version="1.0" encoding="UTF-8" standalone="no"?>
<svg
   viewBox="0 0 427.62363 372.56"
   version="1.1"
   id="svg28198"
   width="427.62363"
   height="372.56"
   xmlns="http://www.w3.org/2000/svg"
   xmlns:svg="http://www.w3.org/2000/svg">
  <defs
     id="defs28202" />
  <g
     id="freepik--background-complete--inject-27"
     transform="translate(-36.791313,-55)">
    <rect
       y="382.39999"
       width="427.62363"
       height="0.25"
       style="fill:#ebebeb;stroke-width:0.924796"
       id="rect27741"
       x="36.791313" />
    <rect
       x="416.78"
       y="398.48999"
       width="33.119999"
       height="0.25"
       style="fill:#ebebeb"
       id="rect27743" />
    <rect
       x="322.53"
       y="401.20999"
       width="8.6899996"
       height="0.25"
       style="fill:#ebebeb"
       id="rect27745" />
    <rect
       x="396.59"
       y="389.20999"
       width="19.190001"
       height="0.25"
       style="fill:#ebebeb"
       id="rect27747" />
    <rect
       x="52.459999"
       y="390.89001"
       width="43.189999"
       height="0.25"
       style="fill:#ebebeb"
       id="rect27749" />
    <rect
       x="104.56"
       y="390.89001"
       width="6.3299999"
       height="0.25"
       style="fill:#ebebeb"
       id="rect27751" />
    <rect
       x="131.47"
       y="395.10999"
       width="93.68"
       height="0.25"
       style="fill:#ebebeb"
       id="rect27753" />
    <path
       d="M 237,337.8 H 43.91 a 5.71,5.71 0 0 1 -5.7,-5.71 V 60.66 A 5.71,5.71 0 0 1 43.91,55 H 237 a 5.71,5.71 0 0 1 5.71,5.71 V 332.09 A 5.71,5.71 0 0 1 237,337.8 Z M 43.91,55.2 a 5.46,5.46 0 0 0 -5.45,5.46 v 271.43 a 5.46,5.46 0 0 0 5.45,5.46 H 237 a 5.47,5.47 0 0 0 5.46,-5.46 V 60.66 A 5.47,5.47 0 0 0 237,55.2 Z"
       style="fill:#ebebeb"
       id="path27755" />
    <path
       d="m 453.31,337.8 h -193.1 a 5.72,5.72 0 0 1 -5.71,-5.71 V 60.66 A 5.72,5.72 0 0 1 260.21,55 h 193.1 a 5.71,5.71 0 0 1 5.69,5.66 v 271.43 a 5.71,5.71 0 0 1 -5.69,5.71 z M 260.21,55.2 a 5.47,5.47 0 0 0 -5.46,5.46 v 271.43 a 5.47,5.47 0 0 0 5.46,5.46 h 193.1 a 5.47,5.47 0 0 0 5.46,-5.46 V 60.66 a 5.47,5.47 0 0 0 -5.46,-5.46 z"
       style="fill:#ebebeb"
       id="path27757" />
    <rect
       x="304.17999"
       y="126.61"
       width="116.7"
       height="129.13"
       style="fill:#e9e9e9"
       id="rect27759" />
    <rect
       x="309.32001"
       y="131.73"
       width="106.73"
       height="119.17"
       style="fill:#f5f5f5"
       id="rect27761" />
    <polygon
       points="309.32,183.54 323.12,131.73 339.48,131.73 309.32,244.7 "
       style="fill:#ffffff"
       id="polygon27763" />
    <polygon
       points="315.15,250.89 346.96,131.73 352.96,131.73 321.15,250.89 "
       style="fill:#ffffff"
       id="polygon27765" />
    <polygon
       points="409.29,250.89 392.93,250.89 416.05,164.22 416.05,225.39 "
       style="fill:#ffffff"
       id="polygon27767" />
    <rect
       x="360.45999"
       y="126.61"
       width="4.1500001"
       height="129.13"
       style="fill:#e9e9e9"
       id="rect27769" />
    <rect
       x="306.20999"
       y="152.82001"
       width="112.43"
       height="4.1500001"
       style="fill:#e9e9e9"
       id="rect27771" />
    <rect
       x="79.120003"
       y="126.61"
       width="116.7"
       height="129.13"
       style="fill:#e9e9e9"
       id="rect27773" />
    <rect
       x="84.260002"
       y="131.73"
       width="106.73"
       height="119.17"
       style="fill:#f5f5f5"
       id="rect27775" />
    <polygon
       points="84.26,183.54 98.06,131.73 114.42,131.73 84.26,244.7 "
       style="fill:#ffffff"
       id="polygon27777" />
    <polygon
       points="90.09,250.89 121.9,131.73 127.9,131.73 96.09,250.89 "
       style="fill:#ffffff"
       id="polygon27779" />
    <polygon
       points="184.23,250.89 167.87,250.89 190.99,164.22 190.99,225.39 "
       style="fill:#ffffff"
       id="polygon27781" />
    <rect
       x="135.39999"
       y="126.61"
       width="4.1500001"
       height="129.13"
       style="fill:#e9e9e9"
       id="rect27783" />
    <rect
       x="81.150002"
       y="152.82001"
       width="112.43"
       height="4.1500001"
       style="fill:#e9e9e9"
       id="rect27785" />
    <circle
       cx="250"
       cy="97.589996"
       r="19.290001"
       transform="rotate(-9.22,249.95823,97.545875)"
       style="fill:#e0e0e0"
       id="circle27787" />
    <circle
       cx="250"
       cy="97.589996"
       r="16.4"
       transform="rotate(-9.22,249.95823,97.545875)"
       style="fill:#f0f0f0"
       id="circle27789" />
    <polyline
       points="250.77 86.34 250.77 97.81 258.37 93.51"
       style="fill:#f0f0f0"
       id="polyline27791" />
    <path
       d="m 250.77,98.62 a 0.77,0.77 0 0 1 -0.41,-0.11 0.8,0.8 0 0 1 -0.4,-0.7 V 86.34 a 0.82,0.82 0 1 1 1.63,0 V 96.4 L 258,92.79 a 0.82173597,0.82173597 0 0 1 0.81,1.43 l -7.6,4.3 a 0.86,0.86 0 0 1 -0.44,0.1 z"
       style="fill:#e0e0e0"
       id="path27793" />
    <path
       d="m 247.87,346.61 c 0,-0.39 -1.33,-39 -7.61,-45.1 -6.1,-5.94 -13.11,-0.23 -13.41,0 l -0.63,-0.75 c 0.08,-0.07 8,-6.53 14.73,0 6.56,6.38 7.85,44.17 7.9,45.78 z"
       style="fill:#e0e0e0"
       id="path27795" />
    <path
       d="m 248.4,354.2 c 0,-0.46 -4.29,-46.35 12.47,-65.59 l 0.74,0.65 c -16.48,18.91 -12.27,64.39 -12.23,64.84 z"
       style="fill:#e0e0e0"
       id="path27797" />
    <path
       d="m 247.78,349.34 -1,-0.06 c 0,-0.52 3.28,-52.17 -9,-63.48 l 0.67,-0.72 c 12.64,11.62 9.48,62.12 9.33,64.26 z"
       style="fill:#e0e0e0"
       id="path27799" />
    <path
       d="m 249.38,349.32 h -1 c 0,-1.42 0.41,-34.89 9.91,-40.34 a 6.74,6.74 0 0 1 6.15,-0.6 c 5.75,2.38 8.6,12.61 8.72,13 l -0.95,0.26 c 0,-0.1 -2.84,-10.2 -8.14,-12.39 a 5.78,5.78 0 0 0 -5.29,0.55 c -9,5.2 -9.39,39.2 -9.4,39.52 z"
       style="fill:#e0e0e0"
       id="path27801" />
    <path
       d="m 245.68,349.34 -1,-0.06 c 0,-0.26 1.44,-26.44 -5.63,-35.67 -1.71,-2.23 -3.57,-3.3 -5.53,-3.16 -4.63,0.33 -8.52,7.1 -8.55,7.17 l -0.86,-0.49 c 0.17,-0.29 4.18,-7.3 9.34,-7.66 2.3,-0.16 4.45,1 6.38,3.55 7.31,9.51 5.92,35.23 5.85,36.32 z"
       style="fill:#e0e0e0"
       id="path27803" />
    <path
       d="m 247.23,352.9 c -0.19,-2.54 -4.62,-62.32 3.17,-72.85 l 0.79,0.58 c -7.57,10.24 -3,71.58 -3,72.2 z"
       style="fill:#e0e0e0"
       id="path27805" />
    <path
       d="m 266.58,314.43 c 0,0 -4.67,1.72 -3.28,5.79 1.39,4.07 16.16,10.78 16.16,10.78 0,0 6.19,-5.67 0.51,-14.9 -5.68,-9.23 -13.26,-4.58 -13.39,-1.67 z"
       style="fill:#ebebeb"
       id="path27807" />
    <path
       d="m 246.27,306.69 c 0,0 5,-0.21 5.26,4.08 0.26,4.29 -10.78,16.15 -10.78,16.15 0,0 -7.89,-2.85 -6.2,-13.55 1.69,-10.7 10.45,-9.32 11.72,-6.68 z"
       style="fill:#ebebeb"
       id="path27809" />
    <path
       d="m 242.06,286.16 c 0,0 3.31,-0.35 3.05,-2.37 -0.26,-2.02 -12.9,-7.22 -20.35,1.19 0,0 4.77,8.19 11.67,8.3 6.9,0.11 5.63,-7.12 5.63,-7.12 z"
       style="fill:#ebebeb"
       id="path27811" />
    <path
       d="m 248.24,281.26 c 0,0 -3,1.45 -3.85,-0.41 -0.85,-1.86 7.13,-12.94 17.9,-9.75 0,0 0.28,9.48 -5.51,13.22 -5.79,3.74 -8.54,-3.06 -8.54,-3.06 z"
       style="fill:#ebebeb"
       id="path27813" />
    <path
       d="m 232.53,312.8 c 0,0 2.29,-1.85 -0.18,-2.75 -2.47,-0.9 -14.59,-0.65 -14.72,11.36 0,0 14.12,2.35 15.87,-2.23 1.75,-4.58 -0.97,-6.38 -0.97,-6.38 z"
       style="fill:#ebebeb"
       id="path27815" />
    <path
       d="m 261.32,285.86 c 0,0 -2.28,-1.84 0.19,-2.75 2.47,-0.91 14.59,-0.64 14.72,11.37 0,0 -14.12,2.34 -15.87,-2.23 -1.75,-4.57 0.96,-6.39 0.96,-6.39 z"
       style="fill:#ebebeb"
       id="path27817" />
    <path
       d="m 253.86,295.54 c 0,0 -0.2,-2.25 1.61,-1.37 1.81,0.88 8.14,7.7 1.59,14.17 0,0 -8.82,-6.53 -7.23,-9.93 1.59,-3.4 4.03,-2.87 4.03,-2.87 z"
       style="fill:#ebebeb"
       id="path27819" />
    <path
       d="m 230.49,298.74 c 0,0 1.36,-1.79 -0.64,-2 -2,-0.21 -11,2.18 -8.89,11.15 0,0 10.94,-0.83 11.41,-4.55 0.47,-3.72 -1.88,-4.6 -1.88,-4.6 z"
       style="fill:#ebebeb"
       id="path27821" />
    <polygon
       points="225.86,341.49 271.51,341.49 267.45,382.6 229.91,382.6 "
       style="fill:#f0f0f0"
       id="polygon27823" />
    <rect
       x="223.85001"
       y="336.95999"
       width="49.66"
       height="9.0699997"
       style="fill:#e6e6e6"
       id="rect27825" />
  </g>
  <g
     id="freepik--Shadow--inject-27"
     transform="translate(-36.791313,-55)">
    <ellipse
       id="freepik--path--inject-27"
       cx="250"
       cy="416.23999"
       rx="193.89"
       ry="11.32"
       style="fill:#f5f5f5" />
  </g>
  <g
     id="freepik--speech-bubble-3--inject-27"
     transform="translate(-36.791313,-55)">
    <path
       d="m 326,176.18 h 27 a 9.27,9.27 0 0 1 9.27,9.27 v 11.19 A 9.26,9.26 0 0 1 353,205.9 h -4.54 l -0.11,9.79 -6.13,-9.79 H 326 a 9.26,9.26 0 0 1 -9.26,-9.26 v -11.19 a 9.27,9.27 0 0 1 9.26,-9.27 z"
       style="fill:#60a3ab"
       id="path27830" />
    <path
       d="m 350,190.4 a 1.88,1.88 0 1 0 1.88,-1.87 1.88,1.88 0 0 0 -1.88,1.87 z"
       style="fill:#ffffff"
       id="path27832" />
    <circle
       cx="343.60999"
       cy="190.39999"
       r="1.87"
       style="fill:#ffffff"
       id="circle27834" />
    <path
       d="m 333.48,190.4 a 1.88,1.88 0 1 0 1.88,-1.87 1.88,1.88 0 0 0 -1.88,1.87 z"
       style="fill:#ffffff"
       id="path27836" />
    <circle
       cx="327.10999"
       cy="190.39999"
       r="1.87"
       style="fill:#ffffff"
       id="circle27838" />
  </g>
  <g
     id="freepik--character-3--inject-27"
     transform="translate(-36.791313,-55)">
    <polygon
       points="401.84,402.69 403.02,417.39 385.08,405.12 "
       style="fill:#263238"
       id="polygon27841" />
    <polygon
       points="401.84,402.69 403.02,417.39 385.08,405.12 "
       style="opacity:0.7;fill:#ffffff"
       id="polygon27843" />
    <polygon
       points="395.41,403.62 403.02,417.39 385.08,405.12 "
       style="opacity:0.5;fill:#ffffff"
       id="polygon27845" />
    <rect
       x="298.79999"
       y="338.10001"
       width="121.9"
       height="68.470001"
       rx="17.110001"
       transform="rotate(180,359.745,372.34)"
       style="fill:#263238"
       id="rect27847" />
    <rect
       x="298.79999"
       y="338.10001"
       width="121.9"
       height="68.470001"
       rx="17.110001"
       transform="rotate(180,359.745,372.34)"
       style="opacity:0.7;fill:#ffffff"
       id="rect27849" />
    <rect
       x="298.79999"
       y="338.10001"
       width="112.49"
       height="68.470001"
       rx="17.110001"
       transform="rotate(180,355.045,372.34)"
       style="opacity:0.5;fill:#ffffff"
       id="rect27851" />
    <circle
       cx="365.76999"
       cy="372.34"
       r="4.6300001"
       style="opacity:0.2;isolation:isolate"
       id="circle27853" />
    <circle
       cx="345.88"
       cy="372.34"
       r="4.6300001"
       style="opacity:0.2;isolation:isolate"
       id="circle27855" />
    <path
       d="m 321.35,372.34 a 4.63,4.63 0 1 0 4.63,-4.63 4.63,4.63 0 0 0 -4.63,4.63 z"
       style="opacity:0.2;isolation:isolate"
       id="path27857" />
    <path
       d="m 306.63,296.05 -7.27,-1.68 1.8,8.08 c 0,0 7.16,-0.25 7.58,-3.66 z"
       style="fill:#ffb573"
       id="path27859" />
    <polygon
       points="301.16,302.45 299.36,294.38 292.35,296.71 296.26,303.12 "
       style="fill:#ffb573"
       id="polygon27861" />
    <path
       d="m 354.45,270.85 c -2.38,4.32 -4.89,8.44 -7.69,12.51 -1.39,2 -2.86,4 -4.48,6.05 a 38.13,38.13 0 0 1 -2.69,3 20,20 0 0 1 -1.74,1.58 12.52,12.52 0 0 1 -2.4,1.47 26,26 0 0 1 -4,1.41 c -1.25,0.35 -2.48,0.64 -3.7,0.91 -2.44,0.52 -4.86,0.94 -7.27,1.3 -4.83,0.73 -9.64,1.19 -14.51,1.46 a 2.45,2.45 0 0 1 -0.78,-4.81 v 0 L 319,291.94 c 2.27,-0.65 4.52,-1.3 6.7,-2 1.08,-0.35 2.16,-0.72 3.18,-1.11 a 24.57,24.57 0 0 0 2.69,-1.2 c 0.64,-0.25 2.1,-2.14 3.36,-3.88 1.26,-1.74 2.52,-3.74 3.76,-5.7 2.44,-3.93 4.88,-8 7.24,-12 v 0 a 4.92,4.92 0 0 1 8.54,4.88 z"
       style="fill:#e9b376"
       id="path27863" />
    <path
       d="m 350.55,262.26 c -9.74,1.67 -17.66,22.7 -17.66,22.7 l -6.36,3 4.19,10.78 c 0,0 7.7,-0.22 12.55,-3.09 4.85,-2.87 15.22,-22.73 15.22,-22.73 z"
       style="fill:#60a3ab"
       id="path27865" />
    <path
       d="m 358.49,272.93 a 181.9,181.9 0 0 1 -10.39,17.41 c -1.81,2.53 -3.52,4.54 -4.83,5.32 l -0.14,0.08 c -4.85,2.79 -12.41,3 -12.41,3 l -4.19,-10.74 6.36,-3 c 0,0 7.92,-21 17.66,-22.7 z"
       style="opacity:0.2"
       id="path27867" />
    <polygon
       points="327.2,287.18 333.04,299.12 329.12,299.29 323.99,288.53 "
       style="fill:#60a3ab"
       id="polygon27869" />
    <path
       d="m 348.1,290.34 c -1.81,2.53 -3.52,4.54 -4.83,5.32 l -0.14,0.08 a 33.08,33.08 0 0 1 1.74,-15.74 35.8,35.8 0 0 1 3.23,10.34 z"
       style="opacity:0.2"
       id="path27871" />
    <path
       d="m 350.94,312.6 c 8.12,-0.81 18.69,-1.46 32.44,-1.77 0,0 10.25,24.14 -1.91,31.35 -3.67,2.18 -9.73,3.05 -16.41,3.19 a 13.81,13.81 0 0 1 -14.12,-13.78 z"
       style="fill:#263238"
       id="path27873" />
    <path
       d="m 377.49,332.48 v 11.35 c -10.1,2.91 -31.09,1.8 -43.56,0.78 A 10.82,10.82 0 0 1 324,333.83 v -9.31 a 7.4,7.4 0 0 1 4.8,-6.93 c 6,-2.27 17,-5.66 28.56,-5.49 a 20.41,20.41 0 0 1 20.13,20.38 z"
       style="fill:#263238"
       id="path27875" />
    <path
       d="m 325.06,365.29 c 3.67,9.93 7.92,22.37 12.46,38.07 l 0.24,0.86 0.27,0.91 4.68,-1.14 1.76,-0.44 c 0,0 -0.06,-0.69 -0.21,-1.92 0,-0.26 -0.06,-0.53 -0.09,-0.83 v 0 c -1.26,-11 -6.12,-51.15 -10.94,-59.49 a 33.29,33.29 0 0 0 9.6,0.31 c 3,-0.5 6.6,-21.15 6.6,-21.15 A 63.67,63.67 0 0 0 334,318.27 h -0.11 c 0,0 -15.2,3.58 -18.12,7.88 -3.58,5.27 -0.26,13.35 9.29,39.14 z"
       style="fill:#ffb573"
       id="path27877" />
    <path
       d="m 331.12,417.39 11,-4.84 3.47,-3.87 1.07,1.46 1.31,-0.58 c 0.62,-4.87 -1.75,-7.14 -3,-8.18 -0.09,-0.08 -0.22,-0.16 -0.37,-0.28 l -0.15,-0.11 h -0.05 l -0.17,-0.13 v 0 0 l -0.1,-0.06 -6,2.66 c 0,0 -0.1,0.32 -0.29,0.83 -0.6,1.7 -2.09,5.56 -3.73,7.62 l -0.21,0.26 a 5.85,5.85 0 0 1 -0.61,0.61 c -4.7,3.63 -2.17,4.61 -2.17,4.61 z"
       style="fill:#60a3ab"
       id="path27879" />
    <path
       d="m 333.82,412.1 c 1.71,0.67 4.14,-1 6,-3.25 a 33.23,33.23 0 0 0 2.91,-4.86 10.26,10.26 0 0 1 1.55,-2.36 c 0.25,-0.23 0.49,-0.33 0.7,-0.23 v 0 c -0.09,-0.08 -0.22,-0.16 -0.37,-0.28 l -0.15,-0.11 h -0.05 l -0.17,-0.13 v 0 0 l -0.1,-0.06 c -0.63,-0.47 -1.33,-1 -1.33,-1 l -4.84,2.14 c 0,0 -0.14,0.57 -0.38,1.44 -0.64,2.24 -2,6.5 -3.49,8.48 z"
       style="fill:#ffb573"
       id="path27881" />
    <path
       d="m 325.06,365.29 c 3.67,9.93 7.92,22.37 12.46,38.07 -0.64,2.24 -2,6.5 -3.49,8.48 l -0.21,0.26 a 5.85,5.85 0 0 1 -0.61,0.61 c -4.62,3.7 -2.09,4.68 -2.09,4.68 l 11,-4.84 3.47,-3.87 1.07,1.46 1.31,-0.58 c 0.62,-4.87 -1.75,-7.14 -3,-8.18 -0.09,-0.08 -0.22,-0.16 -0.37,-0.28 l -0.15,-0.11 h -0.05 l -0.17,-0.13 v 0 0 c -1.26,-11 -6.12,-51.15 -10.94,-59.49 a 33.29,33.29 0 0 0 9.6,0.31 c 3,-0.5 6.6,-21.15 6.6,-21.15 A 63.67,63.67 0 0 0 334,318.27 h -0.11 c 0,0 1.84,0.18 4.34,3.32 0,0 -10.21,1.9 -13,7.31 -1.07,2.18 -0.84,18.1 -0.17,36.39 z"
       style="opacity:0.1;isolation:isolate"
       id="path27883" />
    <path
       d="m 349.43,320.46 c 0,0 -17.48,2.74 -20.4,7 -5,7.39 4,21.91 20.58,79.83 l 6.45,-1.58 c 0,0 -3.72,-52.56 -9.3,-62.25 0,0 7.46,1 11.59,0.31 5.32,-0.86 8.65,-18.6 -8.92,-23.31 z"
       style="fill:#ffb573"
       id="path27885" />
    <path
       d="m 357.11,417 h -1.43 l -0.39,-1.76 -4.74,2.13 h -12 c 0,0 -1.91,-1.91 3.8,-3.44 a 4.31,4.31 0 0 0 0.81,-0.31 c 3.05,-1.43 7.38,-6.25 7.38,-6.25 h 6.58 a 8.37,8.37 0 0 1 0.54,0.95 c 0.73,1.46 1.97,4.5 -0.55,8.68 z"
       style="fill:#60a3ab"
       id="path27887" />
    <path
       d="m 357.67,408.34 v 0 c -0.87,-1 -4.82,3.28 -7.72,4.73 -2.58,1.29 -5.49,1.86 -6.78,0.55 C 346.22,412.21 351,406 351,406 h 5.29 c 0,0 1.07,1.72 1.38,2.34 z"
       style="fill:#ffb573"
       id="path27889" />
    <path
       d="m 370.13,226.29 c 5.42,10 5.15,22.75 3.29,25.43 -1.86,2.68 -29.06,1.21 -29.06,1.21 0,0 2.64,-2.9 2.92,-19 0.28,-16.1 22.85,-7.64 22.85,-7.64 z"
       style="fill:#263238"
       id="path27891" />
    <path
       d="m 348,242.16 c -2.69,-4.18 -5.69,-15.64 4.49,-19.69 12.71,-5.06 18.88,2.91 20.37,11 1.49,8.09 -2.86,14.53 -11.38,14.29 -8.52,-0.24 -11.62,-2.71 -13.48,-5.6 z"
       style="fill:#263238"
       id="path27893" />
    <path
       d="m 364.37,244.27 c -0.57,4.88 -0.85,13.71 2.67,16.38 0,0 -4.54,0 -13.11,7.24 -3.31,-3.51 -1.47,-5.06 -1.47,-5.06 5.14,-2.05 4.71,-5.95 3.53,-9.5 z"
       style="fill:#ebb376"
       id="path27895" />
    <path
       d="m 361,248 -5,5.36 a 14.46,14.46 0 0 1 0.65,2.55 c 2,-0.6 4.55,-3.22 4.61,-5.37 A 6.9,6.9 0 0 0 361,248 Z"
       style="opacity:0.2"
       id="path27897" />
    <path
       d="m 367.71,235.16 c -0.58,7.77 -0.66,11.07 -4.63,15 -6,5.93 -15.4,3.52 -17.16,-4.26 -1.58,-7 -0.38,-18.54 7.27,-21.54 a 10.64,10.64 0 0 1 14.52,10.8 z"
       style="fill:#ffb573"
       id="path27899" />
    <path
       d="m 361.76,227.32 c -2.39,2.51 1.77,11.43 5.51,13.22 7.73,-1.82 1.62,-20.7 -5.51,-13.22 z"
       style="fill:#263238"
       id="path27901" />
    <path
       d="m 352.89,222.9 c -3,1 -6.11,6.14 -6.64,8.11 4.22,0.69 15.58,-3.26 15.58,-3.26 0,0 7.58,2.1 3.74,-1.75 -3.84,-3.85 -12.68,-3.1 -12.68,-3.1 z"
       style="fill:#263238"
       id="path27903" />
    <path
       d="m 348.2,238.22 c 0,0.63 -0.35,1.14 -0.77,1.13 -0.42,-0.01 -0.74,-0.52 -0.73,-1.15 0.01,-0.63 0.35,-1.15 0.76,-1.14 0.41,0.01 0.74,0.52 0.74,1.16 z"
       style="fill:#263238"
       id="path27905" />
    <path
       d="m 347.64,237.1 -1.51,-0.46 c 0,0 0.76,1.2 1.51,0.46 z"
       style="fill:#263238"
       id="path27907" />
    <path
       d="m 369.72,242.31 a 5.65,5.65 0 0 1 -3,3.14 c -1.84,0.8 -3,-0.78 -2.73,-2.65 0.25,-1.68 1.52,-4.12 3.46,-4.12 a 2.55,2.55 0 0 1 2.27,3.63 z"
       style="fill:#ffb573"
       id="path27909" />
    <path
       d="m 358.17,235.64 a 0.37,0.37 0 0 1 -0.39,-0.2 c -0.75,-1.55 -2.94,-1.91 -3,-1.92 a 0.37,0.37 0 0 1 -0.31,-0.42 0.39,0.39 0 0 1 0.43,-0.31 c 0.1,0 2.59,0.43 3.51,2.32 a 0.37,0.37 0 0 1 -0.17,0.5 0.2,0.2 0 0 1 -0.07,0.03 z"
       style="fill:#263238"
       id="path27911" />
    <path
       d="m 346,233.64 a 0.37,0.37 0 0 1 -0.28,-0.66 3.73,3.73 0 0 1 3.31,-0.75 0.39,0.39 0 0 1 0.24,0.47 0.38,0.38 0 0 1 -0.47,0.24 v 0 a 3,3 0 0 0 -2.62,0.62 0.3,0.3 0 0 1 -0.18,0.08 z"
       style="fill:#263238"
       id="path27913" />
    <path
       d="m 355.35,238.31 c 0,0.63 -0.35,1.14 -0.76,1.13 -0.41,-0.01 -0.74,-0.52 -0.74,-1.15 0,-0.63 0.35,-1.15 0.77,-1.14 0.42,0.01 0.74,0.52 0.73,1.16 z"
       style="fill:#263238"
       id="path27915" />
    <path
       d="m 354.8,237.19 -1.52,-0.46 c 0,0 0.77,1.2 1.52,0.46 z"
       style="fill:#263238"
       id="path27917" />
    <path
       d="m 351.68,246 a 21.54,21.54 0 0 1 1.8,2.6 l 0.52,-0.2 c 2.35,-1 3.13,-2.16 3.28,-3.22 a 3.21,3.21 0 0 0 -0.19,-1.53 2.88,2.88 0 0 0 -0.39,-0.79 12,12 0 0 1 -4.23,2.8 c -0.47,0.19 -0.79,0.34 -0.79,0.34 z"
       style="fill:#263238"
       id="path27919" />
    <path
       d="m 352.47,245.63 0.55,0.76 c 2.22,-0.9 3.65,-1.82 4.07,-2.77 a 2.88,2.88 0 0 0 -0.39,-0.79 12,12 0 0 1 -4.23,2.8 z"
       style="fill:#ffffff"
       id="path27921" />
    <path
       d="m 354,248.37 c 2.35,-1 3.13,-2.16 3.28,-3.22 a 8.07,8.07 0 0 0 -2.4,1.57 3,3 0 0 0 -0.88,1.65 z"
       style="fill:#de5753"
       id="path27923" />
    <path
       d="m 353.9,241.9 a 3.28,3.28 0 1 1 2.87,-3.25 3.08,3.08 0 0 1 -2.87,3.25 z m 0,-6 a 2.79,2.79 0 1 0 2.38,2.76 2.6,2.6 0 0 0 -2.38,-2.77 z"
       style="fill:#263238"
       id="path27925" />
    <path
       d="m 346.89,241.9 a 3.28,3.28 0 1 1 2.87,-3.25 3.09,3.09 0 0 1 -2.87,3.25 z m 0,-6 a 2.79,2.79 0 1 0 2.38,2.76 2.6,2.6 0 0 0 -2.38,-2.77 z"
       style="fill:#263238"
       id="path27927" />
    <path
       d="m 350.32,238.14 a 16.91,16.91 0 0 1 -2.31,4 2.72,2.72 0 0 0 2.25,0.45 z"
       style="fill:#ed893e"
       id="path27929" />
    <path
       d="m 351.14,238.86 c 0,0 -1,-0.61 -1.44,-0.05 l -0.38,-0.31 c 0.72,-0.89 2,-0.09 2.08,-0.06 z"
       style="fill:#263238"
       id="path27931" />
    <rect
       x="356.51999"
       y="238.41"
       width="9.4300003"
       height="0.49000001"
       style="fill:#263238"
       id="rect27933" />
    <path
       d="m 385.21,310.83 c -1.57,-2.07 -5.21,-7 -5.67,-12.25 v 0 c 0,-0.34 -0.05,-0.67 -0.05,-1 -0.08,-2.22 -0.07,-4.85 0.08,-8 0,-0.49 0.05,-1 0.08,-1.53 0.08,-1.66 0.21,-3.44 0.37,-5.38 0.29,-3.47 0.72,-7.44 1.29,-11.95 0.13,-1.05 0.27,-2.11 0.41,-3.21 a 7.57,7.57 0 0 0 -7.81,-8.82 c -1.28,0.05 -2.65,0.13 -4,0.27 a 102.56,102.56 0 0 0 -14.59,2.1 c -1.57,0.36 -3.18,0.81 -4.73,1.25 -5.55,1.6 -8.11,8.7 -8.18,14.42 -0.07,5.34 3.67,16.22 6.23,25.77 0.38,5.49 -2.62,8.47 -1.71,10.38 0.91,1.91 27.4,-3.28 38.32,3.23 -0.04,-0.05 1.63,-3.11 -0.04,-5.28 z"
       style="fill:#60a3ab"
       id="path27935" />
    <path
       d="m 385.21,310.83 c -1.57,-2.07 -5.21,-7 -5.67,-12.25 v 0 c 0,-0.34 -0.05,-0.67 -0.05,-1 -0.08,-2.22 -0.07,-4.85 0.08,-8 0,-0.49 0.05,-1 0.08,-1.53 0.08,-1.66 0.21,-3.44 0.37,-5.38 0.29,-3.47 0.72,-7.44 1.29,-11.95 0.13,-1.05 0.27,-2.11 0.41,-3.21 a 7.57,7.57 0 0 0 -7.81,-8.82 c -1.28,0.05 -2.65,0.13 -4,0.27 a 102.56,102.56 0 0 0 -14.59,2.1 c -1.57,0.36 -3.18,0.81 -4.73,1.25 -5.55,1.6 -8.11,8.7 -8.18,14.42 -0.07,5.34 3.67,16.22 6.23,25.77 0.38,5.49 -2.62,8.47 -1.71,10.38 0.91,1.91 27.4,-3.28 38.32,3.23 -0.04,-0.05 1.63,-3.11 -0.04,-5.28 z"
       style="opacity:0.2"
       id="path27937" />
    <path
       d="m 369.22,259 -1.48,-3.16 -14.46,2.2 -0.82,4.75 c 0,0 4.88,4.21 16.76,-3.79 z"
       style="fill:#60a3ab"
       id="path27939" />
    <path
       d="m 352.47,289.53 c 0,0 4,19.9 27.1,0 0,-0.49 0.05,-1 0.08,-1.53 0.08,-1.66 0.21,-3.44 0.37,-5.38 l -12,-16 a 32.84,32.84 0 0 0 -7.22,13.27 l -1.93,-0.38 z"
       style="opacity:0.2"
       id="path27941" />
    <path
       d="m 342.45,265 -2.94,-7.83 7.16,-1.45 c 0,0 2.83,5.18 -0.31,8.91 z"
       style="fill:#ffb573"
       id="path27943" />
    <polygon
       points="346.67,255.72 339.51,257.18 340.27,251.27 345.87,251.47 "
       style="fill:#ffb573"
       id="polygon27945" />
    <path
       d="m 380.86,266.25 a 85.78,85.78 0 0 1 -6.06,14.69 37.52,37.52 0 0 1 -4.8,7.16 13.8,13.8 0 0 1 -4.42,3.49 8.91,8.91 0 0 1 -1.85,0.64 8.14,8.14 0 0 1 -2.19,0.15 8.81,8.81 0 0 1 -3.49,-1 14.52,14.52 0 0 1 -4.07,-3.3 31,31 0 0 1 -2.65,-3.46 56.59,56.59 0 0 1 -3.88,-7.07 95,95 0 0 1 -5.37,-14.55 2.44,2.44 0 0 1 4.52,-1.78 v 0.06 c 2.24,4.36 4.67,8.75 7.21,12.85 a 60.88,60.88 0 0 0 4,5.78 23.91,23.91 0 0 0 2.15,2.36 6.74,6.74 0 0 0 1.86,1.31 c 0.19,0.07 0.26,0 0.12,0 a 1.07,1.07 0 0 0 -0.31,0 c -0.08,0 -0.11,0 -0.09,0 a 9.35,9.35 0 0 0 1.29,-1.38 34.61,34.61 0 0 0 3.25,-5.6 c 1,-2.09 1.94,-4.29 2.82,-6.53 0.88,-2.24 1.72,-4.56 2.5,-6.73 l 0.05,-0.16 a 4.92,4.92 0 0 1 9.32,3.14 z"
       style="fill:#e9b376"
       id="path27947" />
    <path
       d="m 376.17,258.63 c -7.84,-0.45 -14.92,22 -14.92,22 l -2.76,-1.35 -6,10.21 c 0,0 3.54,7.29 10.15,6.8 6.61,-0.49 16,-8.42 19.18,-20.58 3.18,-12.16 0.78,-16.71 -5.65,-17.08 z"
       style="fill:#60a3ab"
       id="path27949" />
    <path
       d="m 376.17,258.63 c -7.84,-0.45 -14.92,22 -14.92,22 l -2.76,-1.35 -6,10.21 c 0,0 3.54,7.29 10.15,6.8 6.61,-0.49 16,-8.42 19.18,-20.58 3.18,-12.16 0.78,-16.71 -5.65,-17.08 z"
       style="opacity:0.2"
       id="path27951" />
    <polygon
       points="359.98,279.89 352.98,291.19 350.75,287.97 357.13,277.89 "
       style="fill:#60a3ab"
       id="polygon27953" />
  </g>
  <g
     id="freepik--speech-bubble-2--inject-27"
     transform="translate(-36.791313,-55)">
    <path
       d="m 237.61,122.66 h -27 a 9.27,9.27 0 0 0 -9.26,9.27 v 11.18 a 9.27,9.27 0 0 0 9.26,9.27 h 11.54 l 3.11,9.79 3.13,-9.79 h 9.18 a 9.26,9.26 0 0 0 9.26,-9.27 v -11.18 a 9.26,9.26 0 0 0 -9.22,-9.27 z"
       style="fill:#263238"
       id="path27956" />
    <path
       d="m 213.63,136.88 a 1.88,1.88 0 1 1 -1.87,-1.87 1.87,1.87 0 0 1 1.87,1.87 z"
       style="fill:#ffffff"
       id="path27958" />
    <circle
       cx="220.00999"
       cy="136.88"
       r="1.87"
       style="fill:#ffffff"
       id="circle27960" />
    <path
       d="m 230.13,136.88 a 1.88,1.88 0 1 1 -1.88,-1.87 1.88,1.88 0 0 1 1.88,1.87 z"
       style="fill:#ffffff"
       id="path27962" />
    <circle
       cx="236.5"
       cy="136.88"
       r="1.87"
       style="fill:#ffffff"
       id="circle27964" />
    <g
       style="opacity:0.3"
       id="g27968">
      <path
         d="m 237.61,122.66 h -27 a 9.27,9.27 0 0 0 -9.26,9.27 v 11.18 a 9.27,9.27 0 0 0 9.26,9.27 h 11.54 l 3.11,9.79 3.13,-9.79 h 9.18 a 9.26,9.26 0 0 0 9.26,-9.27 v -11.18 a 9.26,9.26 0 0 0 -9.22,-9.27 z"
         style="fill:#ffffff"
         id="path27966" />
    </g>
  </g>
  <g
     id="freepik--character-2--inject-27"
     transform="translate(-36.791313,-55)">
    <path
       d="m 255.35,209.26 c 1.63,1.67 3.37,3.39 5.09,5 1.72,1.61 3.45,3.31 5.22,4.87 a 67.51,67.51 0 0 0 5.31,4.34 c 0.44,0.31 0.87,0.6 1.27,0.84 a 9.23,9.23 0 0 0 1,0.54 c 0.08,0 0.15,0.06 0,0.05 H 273 a 2,2 0 0 0 -0.33,0.05 2.23,2.23 0 0 0 -0.51,0.15 3.41,3.41 0 0 0 -0.62,0.33 l -0.3,0.25 -0.13,0.13 -0.16,0.21 a 0.56,0.56 0 0 0 -0.11,0.21 c 0,0 0,-0.05 0.08,-0.16 a 12.41,12.41 0 0 0 0.44,-2.74 c 0.08,-1.08 0.11,-2.23 0.1,-3.39 0,-2.33 -0.13,-4.72 -0.31,-7.12 -0.18,-2.4 -0.41,-4.8 -0.68,-7.21 -0.27,-2.41 -0.52,-4.83 -0.84,-7.21 v 0 a 2.47,2.47 0 0 1 4.85,-0.92 c 1.19,4.84 2.2,9.66 3,14.6 0.41,2.47 0.77,5 1,7.52 0.13,1.28 0.22,2.58 0.24,3.94 a 19.13,19.13 0 0 1 -0.39,4.55 9.12,9.12 0 0 1 -0.54,1.56 7.39,7.39 0 0 1 -0.58,1 6.39,6.39 0 0 1 -0.46,0.56 4,4 0 0 1 -0.29,0.29 q -0.24,0.21 -0.48,0.39 a 5.1,5.1 0 0 1 -2,0.82 5.63,5.63 0 0 1 -0.79,0.09 4.8,4.8 0 0 1 -0.66,0 7.89,7.89 0 0 1 -1.82,-0.34 15.13,15.13 0 0 1 -2.36,-1 c -0.68,-0.33 -1.3,-0.68 -1.89,-1 a 71.13,71.13 0 0 1 -6.47,-4.42 c -4.08,-3.06 -7.85,-6.23 -11.63,-9.63 a 5,5 0 1 1 6.68,-7.43 l 0.23,0.23 z"
       style="fill:#e9c0bb"
       id="path27971" />
    <path
       d="m 263.47,215.75 -6.87,10.48 -0.1,-0.08 -7.7,-6 -2.57,-2 a 13,13 0 0 1 -0.61,-6 14.92,14.92 0 0 1 2.38,-5.53 c 5.87,0.12 9.08,2.51 15.47,9.13 z"
       style="fill:#60a3ab"
       id="path27973" />
    <path
       d="m 256.5,226.15 -7.7,-6 c 0.27,-1.22 2.29,-3.92 3.08,-5.15 0,0 4.62,3.06 4.62,11.15 z"
       style="opacity:0.2"
       id="path27975" />
    <path
       d="m 233.29,171.19 c 0,0 -13.29,-3.19 -17.7,2.66 -9.6,12.74 2.73,56.49 0,65.5 0,0 15.67,3.18 30.64,-0.12 a 120.37,120.37 0 0 0 2,-39.49 c -2.53,-22.19 -6.76,-30.32 -14.94,-28.55 z"
       style="fill:#263238"
       id="path27977" />
    <path
       d="m 256,250.71 -31.79,3 a 157,157 0 0 0 -5.35,-23.27 c -0.8,-2.69 -1.68,-5.47 -2.65,-8.29 -0.41,-1.22 -0.85,-2.44 -1.29,-3.67 -1.68,-4.62 0.66,-10 0.66,-10 0,0 6.26,-0.4 6.89,-0.49 0.63,-0.09 1.4,-0.2 2.11,-0.29 a 101.72,101.72 0 0 1 14.56,-1 c 1.21,0 2.45,0.08 3.67,0.13 0.39,0 4.8,-0.1 5.18,-0.08 0,0 6.37,6.75 7,12.38 a 100.46,100.46 0 0 1 1,13.07 c 0.14,5.04 0.01,18.51 0.01,18.51 z"
       style="fill:#60a3ab"
       id="path27979" />
    <path
       d="M 240.09,215.62 C 230,216.93 223.48,208 223.48,208 a 5.06,5.06 0 0 0 2.82,-1.65 c 1.45,-1.72 1.54,-4.35 1.26,-6.53 0,-0.11 0,-0.22 -0.06,-0.33 a 41.48,41.48 0 0 0 -1.16,-5.39 c -0.3,-1 -0.62,-2 -0.91,-2.86 l 4,2.8 6,4.15 a 4.82,4.82 0 0 0 0,0.77 11.67,11.67 0 0 0 0.29,2.07 c 0.05,0.25 0.11,0.5 0.16,0.75 a 6.68,6.68 0 0 0 1.24,2.79 6.15,6.15 0 0 0 5,2.15 c 3.88,3.88 1.44,8.44 -2.03,8.9 z"
       style="fill:#ebc0bb"
       id="path27981" />
    <path
       d="m 235.75,201 a 11.69,11.69 0 0 1 -9.45,5.32 c 1.45,-1.72 1.54,-4.35 1.26,-6.53 0,-0.11 0,-0.22 -0.06,-0.33 a 41.48,41.48 0 0 0 -1.16,-5.39 c -0.3,-1 -0.62,-2 -0.91,-2.86 l 4,2.8 6,4.15 a 4.82,4.82 0 0 0 0,0.77 11.67,11.67 0 0 0 0.32,2.07 z"
       style="opacity:0.2"
       id="path27983" />
    <path
       d="m 235.47,182.15 c 1.75,7.24 2.64,10.27 0.26,15.18 -3.57,7.4 -12.59,8.4 -16.41,1.92 -3.43,-5.83 -5.71,-16.7 0.18,-22 a 9.55,9.55 0 0 1 15.97,4.9 z"
       style="fill:#ebc0bb"
       id="path27985" />
    <path
       d="m 219.94,189.62 c 0.17,0.6 0,1.2 -0.37,1.34 -0.37,0.14 -0.81,-0.24 -1,-0.85 -0.19,-0.61 0,-1.2 0.37,-1.33 0.37,-0.13 0.82,0.22 1,0.84 z"
       style="fill:#263238"
       id="path27987" />
    <path
       d="m 219.12,188.75 -1.49,0.08 c 0,0 1.03,0.88 1.49,-0.08 z"
       style="fill:#263238"
       id="path27989" />
    <path
       d="m 222.67,190 a 18.28,18.28 0 0 1 -0.93,4.59 2.5,2.5 0 0 0 2.15,-0.34 z"
       style="fill:#d4827d"
       id="path27991" />
    <path
       d="m 216,187 a 0.34,0.34 0 0 1 -0.26,-0.05 0.36,0.36 0 0 1 -0.07,-0.51 3.79,3.79 0 0 1 2.91,-1.74 0.32,0.32 0 0 1 0.33,0.36 0.4,0.4 0 0 1 -0.38,0.37 3.06,3.06 0 0 0 -2.29,1.41 A 0.43,0.43 0 0 1 216,187 Z"
       style="fill:#263238"
       id="path27993" />
    <path
       d="m 224.11,184.05 a 0.35,0.35 0 0 1 -0.21,-0.15 0.36,0.36 0 0 1 0.15,-0.49 3.84,3.84 0 0 1 3.38,-0.34 0.34,0.34 0 0 1 0.15,0.47 0.4,0.4 0 0 1 -0.5,0.18 3,3 0 0 0 -2.68,0.29 0.33,0.33 0 0 1 -0.29,0.04 z"
       style="fill:#263238"
       id="path27995" />
    <path
       d="m 227.3,187.2 c 0.17,0.6 0,1.2 -0.36,1.33 -0.36,0.13 -0.82,-0.24 -1,-0.84 -0.18,-0.6 0,-1.2 0.36,-1.34 0.36,-0.14 0.83,0.25 1,0.85 z"
       style="fill:#263238"
       id="path27997" />
    <path
       d="m 226.49,186.33 -1.5,0.08 c 0,0 1.01,0.87 1.5,-0.08 z"
       style="fill:#263238"
       id="path27999" />
    <path
       d="m 234,187.57 c 0,0 -5.5,-3.1 -6.45,-11.22 0,0 -9,0 -11.85,8.12 0,0 0.7,-11.49 13.5,-12.44 12.8,-0.95 9.8,13.27 8.8,14.77 -1,1.5 -4,0.77 -4,0.77 z"
       style="fill:#263238"
       id="path28001" />
    <path
       d="M 239.54,187.15 A 6,6 0 0 1 237,191 c -1.7,1.1 -3.11,-0.47 -3.11,-2.55 0,-1.87 0.88,-4.7 2.82,-4.95 1.94,-0.25 3.22,1.68 2.83,3.65 z"
       style="fill:#ebc0bb"
       id="path28003" />
    <path
       d="m 224,195.86 a 22.17,22.17 0 0 1 2.39,2.08 c 0.16,-0.1 0.31,-0.21 0.46,-0.32 2,-1.5 2.5,-2.86 2.38,-3.93 a 3.18,3.18 0 0 0 -0.56,-1.44 3.22,3.22 0 0 0 -0.57,-0.67 12,12 0 0 1 -3.41,3.76 c -0.41,0.33 -0.69,0.52 -0.69,0.52 z"
       style="fill:#263238"
       id="path28005" />
    <path
       d="m 224.69,195.34 0.72,0.6 c 1.92,-1.41 3.09,-2.67 3.26,-3.69 a 3.22,3.22 0 0 0 -0.57,-0.67 12,12 0 0 1 -3.41,3.76 z"
       style="fill:#ffffff"
       id="path28007" />
    <path
       d="m 226.85,197.62 c 2,-1.5 2.5,-2.86 2.38,-3.93 a 8.23,8.23 0 0 0 -1.94,2.11 3,3 0 0 0 -0.44,1.82 z"
       style="fill:#de5753"
       id="path28009" />
    <path
       d="M 224.23,253.67 256,250.31 c 0,0 1.32,9.52 1.09,9.39 -0.23,-0.13 -34,2.49 -34,2.49 z"
       style="fill:#60a3ab"
       id="path28011" />
    <path
       d="M 224.23,253.67 256,250.31 c 0,0 1.32,9.52 1.09,9.39 -0.23,-0.13 -34,2.49 -34,2.49 z"
       style="opacity:0.6;fill:#ffffff"
       id="path28013" />
    <path
       d="m 267.59,341.51 c -2.68,5.89 -5.36,12.23 -7.92,18.56 -3.37,8.36 -6.52,16.71 -9.18,24.18 -1.9,5.34 -4.39,12.07 -5.68,16.13 a 14.46,14.46 0 0 1 -8.54,-3.24 c 0.8,-7.26 3,-26.1 7.79,-42.79 2.53,-8.78 5.77,-17.48 9.9,-24.61 -22.59,-52.25 -19.38,-72.66 -19.38,-72.66 l 21.75,-2.5 c 0,0 4.7,19.72 8.78,40 v 0 c 2.13,10.63 4.08,21.41 5.1,29.59 v 0.08 a 32.05,32.05 0 0 1 -2.62,17.26 z"
       style="fill:#60a3ab"
       id="path28015" />
    <path
       d="m 247.6,314.17 c -3.4,-8.91 -5.94,-16.66 -7.82,-23.32 1,-5.39 2.69,-10.06 5.19,-13 0.03,0.03 4.91,14.5 2.63,36.32 z"
       style="opacity:0.2"
       id="path28017" />
    <path
       d="m 250.49,384.25 c -1.9,5.34 -4.39,12.07 -5.68,16.13 a 14.46,14.46 0 0 1 -8.54,-3.24 c 0.8,-7.26 3,-26.1 7.79,-42.79 2.21,8.76 4.78,19.84 6.43,29.9 z"
       style="opacity:0.2"
       id="path28019" />
    <path
       d="m 267.59,341.51 c -2.68,5.89 -5.36,12.23 -7.92,18.56 -3.37,8.36 -6.52,16.71 -9.18,24.18 -1.9,5.34 -4.39,12.07 -5.68,16.13 a 14.46,14.46 0 0 1 -8.54,-3.24 c 0.8,-7.26 3,-26.1 7.79,-42.79 2.53,-8.78 5.77,-17.48 9.9,-24.61 -22.59,-52.25 -19.38,-72.66 -19.38,-72.66 l 21.75,-2.5 c 0,0 4.7,19.72 8.78,40 v 0 c 2.13,10.63 4.08,21.41 5.1,29.59 v 0.08 a 32.05,32.05 0 0 1 -2.62,17.26 z"
       style="opacity:0.6;fill:#ffffff"
       id="path28021" />
    <path
       d="m 245.9,404 a 9.72,9.72 0 0 1 -1.89,-2.91 v 0 a 0.13,0.13 0 0 1 0,-0.06 0.28,0.28 0 0 1 0,-0.09 v 0 0 a 0.16,0.16 0 0 1 0.07,-0.07 c 0.08,0 1.79,-1 2.9,-0.68 a 1.22,1.22 0 0 1 0.77,0.69 0.75,0.75 0 0 1 0,0.85 c -0.29,0.3 -1,0.26 -1.71,0.1 a 3.26,3.26 0 0 1 1.23,1.3 0.87,0.87 0 0 1 0,0.69 c -0.21,0.44 -0.5,0.53 -0.69,0.52 A 1,1 0 0 1 245.9,404 Z m -1.25,-2.55 c 0.57,1.14 1.41,2.42 1.89,2.42 0,0 0.17,0 0.31,-0.29 a 0.39,0.39 0 0 0 0,-0.35 c -0.22,-0.67 -1.39,-1.39 -2.2,-1.82 z m 2.49,-0.76 a 1.06,1.06 0 0 0 -0.28,-0.15 3.46,3.46 0 0 0 -2.14,0.43 c 1.19,0.42 2.45,0.68 2.7,0.42 0.08,-0.08 0,-0.28 0,-0.39 a 0.83,0.83 0 0 0 -0.28,-0.35 z"
       style="fill:#60a3ab"
       id="path28023" />
    <path
       d="m 237.81,394.65 c 0.43,-0.49 6.18,5 6.18,5 0,0 0.53,7 3.44,10.89 2.91,3.89 -1,4.39 -5,1 l -10,-8.49 c -2.96,-2.44 0.92,-3.37 5.38,-8.4 z"
       style="fill:#60a3ab"
       id="path28025" />
    <path
       d="m 237.81,394.65 c 0.43,-0.49 6.18,5 6.18,5 0,0 0.53,7 3.44,10.89 2.91,3.89 -1,4.39 -5,1 l -10,-8.49 c -2.96,-2.44 0.92,-3.37 5.38,-8.4 z"
       style="opacity:0.3;fill:#ffffff"
       id="path28027" />
    <path
       d="m 237.81,394.65 c 0.43,-0.49 6.18,5 6.18,5 0,0 0.53,7 3.44,10.89 2.91,3.89 -1,4.39 -5,1 l -10,-8.49 c -2.96,-2.44 0.92,-3.37 5.38,-8.4 z"
       style="opacity:0.2"
       id="path28029" />
    <path
       d="m 243.94,409.33 a 9.75,9.75 0 0 1 -3.31,-1.05 v 0 h -0.05 a 0.22,0.22 0 0 1 0,-0.08 v 0 c 0,0 0,0 0,0 v 0 a 0.31,0.31 0 0 1 0,-0.1 c 0,-0.09 0.73,-1.93 1.81,-2.37 a 1.28,1.28 0 0 1 1,0 c 0.36,0.18 0.53,0.41 0.52,0.68 0,0.42 -0.61,0.83 -1.26,1.17 a 3.18,3.18 0 0 1 1.78,0.22 0.8,0.8 0 0 1 0.42,0.54 0.76,0.76 0 0 1 -0.2,0.85 1.08,1.08 0 0 1 -0.71,0.14 z m -2.58,-1.17 c 1.17,0.51 2.62,1 3,0.66 0,0 0.13,-0.11 0.06,-0.42 a 0.45,0.45 0 0 0 -0.23,-0.28 5.14,5.14 0 0 0 -2.83,0.04 z M 242.8,406 a 0.85,0.85 0 0 0 -0.31,0.06 3.51,3.51 0 0 0 -1.39,1.7 c 1.19,-0.44 2.33,-1 2.36,-1.4 0,-0.11 -0.18,-0.22 -0.28,-0.27 A 0.88,0.88 0 0 0 242.8,406 Z"
       style="fill:#60a3ab"
       id="path28031" />
    <path
       d="m 231.77,407.28 c 0,-0.64 8,0 8,0 0,0 4.84,5 9.58,6.22 4.74,1.22 2.06,4 -3.26,3.93 l -13.16,-0.16 c -3.79,-0.08 -1.39,-3.27 -1.16,-9.99 z"
       style="fill:#60a3ab"
       id="path28033" />
    <path
       d="m 231.77,407.28 c 0,-0.64 8,0 8,0 0,0 4.84,5 9.58,6.22 4.74,1.22 2.06,4 -3.26,3.93 l -13.16,-0.16 c -3.79,-0.08 -1.39,-3.27 -1.16,-9.99 z"
       style="opacity:0.3;fill:#ffffff"
       id="path28035" />
    <path
       d="m 247.46,252.78 c 0,0 -4.48,49.48 -7.23,73.31 -2.87,25 -1.84,65 -0.26,81.22 -1.36,0.86 -6.4,2 -9.18,1.28 0,0 -14.9,-49.83 -7.4,-79.39 -10,-57.28 0.77,-71.81 0.77,-71.81 z"
       style="fill:#60a3ab"
       id="path28037" />
    <g
       style="opacity:0.6"
       id="g28041">
      <path
         d="m 247.46,252.78 c 0,0 -4.48,49.48 -7.23,73.31 -2.87,25 -1.84,65 -0.26,81.22 -1.36,0.86 -6.4,2 -9.18,1.28 0,0 -14.9,-49.83 -7.4,-79.39 -10,-57.28 0.77,-71.81 0.77,-71.81 z"
         style="fill:#ffffff"
         id="path28039" />
    </g>
    <polygon
       points="256.06,254.22 224.36,257.13 224.53,254.18 255.95,251.24 "
       id="polygon28043" />
    <path
       d="m 242.32,256 a 0.9,0.9 0 0 1 -0.91,-0.81 l -0.2,-1.74 a 0.92,0.92 0 0 1 0.8,-1 l 3.44,-0.4 a 0.91,0.91 0 0 1 0.7,0.22 0.9,0.9 0 0 1 0.31,0.65 l 0.07,1.85 a 0.9,0.9 0 0 1 -0.82,0.94 l -3.31,0.3 z m -0.3,-0.88 a 0.31,0.31 0 0 0 0.33,0.26 l 3.3,-0.3 a 0.3,0.3 0 0 0 0.27,-0.31 l -0.07,-1.84 a 0.31,0.31 0 0 0 -0.11,-0.22 0.29,0.29 0 0 0 -0.22,-0.07 l -3.44,0.41 a 0.29,0.29 0 0 0 -0.26,0.32 z"
       style="fill:#ffffff"
       id="path28045" />
    <path
       d="m 274.5,200.47 5.67,-6.5 -6.69,-2.15 c 0,0 -5.31,5.83 -2.89,7.83 z"
       style="fill:#ebc0bb"
       id="path28047" />
    <polygon
       points="273.2,195.2 280.17,193.97 278.68,187.05 272.85,189 "
       style="fill:#ebc0bb"
       id="polygon28049" />
    <path
       d="m 228.13,174.1 a 9.56,9.56 0 0 0 -0.51,7 6.81,6.81 0 0 1 -1.41,-4.36 8.93,8.93 0 0 0 -1.41,4.64 c 0,0 -5.82,0.37 -9.45,2.76 0,-0.03 0.07,-12.14 12.78,-10.04 z"
       style="fill:#263238"
       id="path28051" />
    <path
       d="m 218.87,230.4 c -0.8,-2.69 -1.68,-5.47 -2.65,-8.29 a 9.62,9.62 0 0 1 4.27,-2.09 c 0,0 0.9,6.9 -1.62,10.38 z"
       style="opacity:0.2"
       id="path28053" />
    <path
       d="m 221.22,218.32 a 113,113 0 0 1 -6.27,13.6 55.37,55.37 0 0 1 -4.18,6.6 23,23 0 0 1 -3,3.27 12.12,12.12 0 0 1 -2.2,1.58 8.52,8.52 0 0 1 -1.48,0.65 10.72,10.72 0 0 1 -1.41,0.35 16,16 0 0 1 -4.63,0 33.17,33.17 0 0 1 -3.94,-0.74 66.58,66.58 0 0 1 -7.21,-2.24 121.48,121.48 0 0 1 -13.46,-5.92 2.48,2.48 0 0 1 2,-4.52 v 0 c 2.15,0.81 4.41,1.59 6.64,2.3 2.23,0.71 4.47,1.42 6.71,2 a 63.17,63.17 0 0 0 6.65,1.41 25.6,25.6 0 0 0 3.16,0.29 9.46,9.46 0 0 0 2.52,-0.21 1.69,1.69 0 0 0 0.33,-0.12 1.1,1.1 0 0 0 0.14,-0.11 4.45,4.45 0 0 0 0.63,-0.6 15.19,15.19 0 0 0 1.66,-2.23 47.75,47.75 0 0 0 3,-5.8 c 0.92,-2.06 1.76,-4.2 2.57,-6.37 0.81,-2.17 1.58,-4.38 2.23,-6.49 v -0.05 a 5,5 0 0 1 9.54,2.95 c 0.09,0.17 0.04,0.29 0,0.4 z"
       style="fill:#e9c0bb"
       id="path28055" />
    <path
       d="m 176.77,231.9 -5.25,-6.85 -3.43,6.13 c 0,0 4.65,6.36 7.09,4.39 z"
       style="fill:#ebc0bb"
       id="path28057" />
    <polygon
       points="171.34,232.12 171.52,225.05 164.44,225.13 165.19,231.24 "
       style="fill:#ebc0bb"
       id="polygon28059" />
    <path
       d="m 215.59,208.44 c -5.21,0.94 -9,12.43 -9,12.43 l 11,7.86 5.44,-7.94 a 7.26,7.26 0 0 0 -0.56,-6.64 c -2.13,-3.32 -6.88,-5.71 -6.88,-5.71 z"
       style="fill:#60a3ab"
       id="path28061" />
  </g>
  <g
     id="freepik--speech-bubble-1--inject-27"
     transform="translate(-36.791313,-55)">
    <path
       d="m 143.46,180.59 h -26.95 a 9.27,9.27 0 0 0 -9.27,9.27 v 11.19 a 9.27,9.27 0 0 0 9.27,9.27 h 4.54 l 0.1,9.78 6.13,-9.78 h 16.18 a 9.27,9.27 0 0 0 9.27,-9.27 v -11.19 a 9.27,9.27 0 0 0 -9.27,-9.27 z"
       style="fill:#60a3ab"
       id="path28064" />
    <path
       d="m 119.48,194.82 a 1.87,1.87 0 1 1 -1.87,-1.88 1.87,1.87 0 0 1 1.87,1.88 z"
       style="fill:#ffffff"
       id="path28066" />
    <path
       d="m 127.73,194.82 a 1.87,1.87 0 1 1 -1.87,-1.88 1.87,1.87 0 0 1 1.87,1.88 z"
       style="fill:#ffffff"
       id="path28068" />
    <path
       d="m 136,194.82 a 1.87,1.87 0 1 1 -1.87,-1.88 1.87,1.87 0 0 1 1.87,1.88 z"
       style="fill:#ffffff"
       id="path28070" />
    <path
       d="m 144.23,194.82 a 1.87,1.87 0 1 1 -1.87,-1.88 1.87,1.87 0 0 1 1.87,1.88 z"
       style="fill:#ffffff"
       id="path28072" />
  </g>
  <g
     id="freepik--character-1--inject-27"
     transform="translate(-36.791313,-55)">
    <polygon
       points="98.64,402.69 97.46,417.39 115.4,405.12 "
       style="fill:#263238"
       id="polygon28075" />
    <polygon
       points="98.64,402.69 97.46,417.39 115.4,405.12 "
       style="opacity:0.7;fill:#ffffff"
       id="polygon28077" />
    <polygon
       points="105.07,403.62 97.46,417.39 115.4,405.12 "
       style="opacity:0.5;fill:#ffffff"
       id="polygon28079" />
    <rect
       x="79.779999"
       y="338.10001"
       width="121.9"
       height="68.470001"
       rx="17.110001"
       style="fill:#263238"
       id="rect28081" />
    <rect
       x="79.779999"
       y="338.10001"
       width="121.9"
       height="68.470001"
       rx="17.110001"
       style="opacity:0.7;fill:#ffffff"
       id="rect28083" />
    <rect
       x="89.190002"
       y="338.10001"
       width="112.49"
       height="68.470001"
       rx="17.110001"
       style="opacity:0.5;fill:#ffffff"
       id="rect28085" />
    <circle
       cx="114.81"
       cy="372.34"
       r="4.6300001"
       style="opacity:0.2;isolation:isolate"
       id="circle28087" />
    <path
       d="m 139.33,372.34 a 4.63,4.63 0 1 1 -4.62,-4.63 4.62,4.62 0 0 1 4.62,4.63 z"
       style="opacity:0.2;isolation:isolate"
       id="path28089" />
    <circle
       cx="154.61"
       cy="372.34"
       r="4.6300001"
       style="opacity:0.2;isolation:isolate"
       id="circle28091" />
    <circle
       cx="174.5"
       cy="372.34"
       r="4.6300001"
       style="opacity:0.2;isolation:isolate"
       id="circle28093" />
    <path
       d="m 203.94,409.33 a 9.75,9.75 0 0 1 -3.31,-1.05 v 0 h -0.05 a 0.22,0.22 0 0 1 0,-0.08 v 0 c 0,0 0,0 0,0 v 0 a 0.31,0.31 0 0 1 0,-0.1 c 0,-0.09 0.72,-1.93 1.81,-2.37 a 1.28,1.28 0 0 1 1,0 c 0.36,0.18 0.53,0.41 0.51,0.68 0,0.42 -0.6,0.83 -1.25,1.17 a 3.21,3.21 0 0 1 1.78,0.22 0.83,0.83 0 0 1 0.42,0.54 0.78,0.78 0 0 1 -0.2,0.85 1.08,1.08 0 0 1 -0.71,0.14 z m -2.58,-1.17 c 1.16,0.51 2.62,1 3,0.66 0,0 0.13,-0.11 0,-0.42 a 0.41,0.41 0 0 0 -0.22,-0.28 5.14,5.14 0 0 0 -2.78,0.04 z M 202.8,406 a 0.91,0.91 0 0 0 -0.32,0.06 3.49,3.49 0 0 0 -1.38,1.7 c 1.18,-0.44 2.33,-1 2.35,-1.4 0,-0.11 -0.17,-0.22 -0.28,-0.27 A 0.84,0.84 0 0 0 202.8,406 Z"
       style="fill:#60a3ab"
       id="path28095" />
    <path
       d="m 191.77,407.28 c 0,-0.64 8,0 8,0 0,0 4.84,5 9.58,6.22 4.74,1.22 2,4 -3.26,3.93 l -13.16,-0.16 c -3.8,-0.08 -1.4,-3.27 -1.16,-9.99 z"
       style="fill:#263238"
       id="path28097" />
    <path
       d="m 139.06,309.31 0.52,5.55 c 0,0 32.49,4.94 37.68,10 5.19,5.06 23.84,82.86 23.84,82.86 0,0 -5.42,2.3 -9.66,1.1 0,0 -25.46,-49.24 -25.17,-65.4 0,0 -22.74,0.85 -38.26,0.85 -15.52,0 -17.37,-35 -17.37,-35 z"
       style="fill:#60a3ab"
       id="path28099" />
    <path
       d="m 164.66,343.5 c -3.71,0.13 -13.31,0.45 -23.17,0.64 l 2,-23.35 c 0,0 11.68,1.42 19,6.95 2.82,2.09 2.94,8.76 2.17,15.76 z"
       style="opacity:0.2;isolation:isolate"
       id="path28101" />
    <path
       d="m 132.94,409.33 a 9.82,9.82 0 0 1 -3.32,-1.05 v 0 h -0.05 a 0.2,0.2 0 0 1 0,-0.08 v 0 0 a 0.16,0.16 0 0 1 0,-0.1 c 0,-0.09 0.72,-1.93 1.8,-2.37 a 1.27,1.27 0 0 1 1,0 c 0.36,0.18 0.54,0.41 0.52,0.68 0,0.42 -0.6,0.83 -1.25,1.17 a 3.21,3.21 0 0 1 1.78,0.22 0.87,0.87 0 0 1 0.42,0.54 0.78,0.78 0 0 1 -0.21,0.85 1,1 0 0 1 -0.69,0.14 z m -2.59,-1.17 c 1.17,0.51 2.62,1 3,0.66 0,0 0.13,-0.11 0.06,-0.42 a 0.42,0.42 0 0 0 -0.23,-0.28 5.14,5.14 0 0 0 -2.83,0.04 z m 1.44,-2.18 a 0.89,0.89 0 0 0 -0.31,0.06 3.51,3.51 0 0 0 -1.39,1.7 c 1.19,-0.44 2.33,-1 2.36,-1.4 0,-0.11 -0.17,-0.22 -0.28,-0.27 A 0.88,0.88 0 0 0 131.79,406 Z"
       style="fill:#60a3ab"
       id="path28103" />
    <path
       d="m 120.77,407.28 c 0,-0.64 8,0 8,0 0,0 4.83,5 9.58,6.22 4.75,1.22 2,4 -3.27,3.93 l -13.15,-0.16 c -3.8,-0.08 -1.4,-3.27 -1.16,-9.99 z"
       style="fill:#263238"
       id="path28105" />
    <path
       d="m 110.64,309.31 c 0,0 -10,14.87 -4.58,27.09 5.42,12.22 32.83,6.7 32.83,6.7 -4.12,6.37 -8.8,12 -18.57,64.16 a 13.84,13.84 0 0 0 9.2,0.76 c 0,0 30.58,-62.9 31.37,-74.13 0.79,-11.23 -32.29,-18.44 -32.29,-18.44 z"
       style="fill:#60a3ab"
       id="path28107" />
    <path
       d="m 140.43,269.38 c 1.47,3.73 3.08,7.58 4.74,11.23 0.85,1.82 1.72,3.6 2.64,5.27 l 0.71,1.2 c 0.24,0.4 0.48,0.71 0.71,1.09 a 9.35,9.35 0 0 0 0.69,0.91 l 0.16,0.21 0.12,0.11 a 2.62,2.62 0 0 1 0.22,0.25 c 0,0 0,0 0,0 h -0.07 c 0,0 -0.13,0 -0.15,0 -0.02,0 -0.16,0 -0.14,0 0.02,0 0,0 0,0 h 0.08 c 0,0 0.17,0 0.28,0 a 7,7 0 0 0 2,-0.51 32.07,32.07 0 0 0 5,-2.57 c 3.37,-2.07 6.78,-4.52 10,-7 h 0.07 a 2.3,2.3 0 0 1 3.17,3.29 66.54,66.54 0 0 1 -9.22,9.4 33.35,33.35 0 0 1 -5.82,4 15.41,15.41 0 0 1 -4,1.45 8.4,8.4 0 0 1 -1.3,0.16 h -0.71 l -0.79,-0.06 a 7.46,7.46 0 0 1 -1.67,-0.4 4.53,4.53 0 0 1 -0.85,-0.38 l -0.42,-0.23 a 1.67,1.67 0 0 1 -0.34,-0.22 l -1,-0.77 -0.48,-0.4 -0.37,-0.38 a 18.27,18.27 0 0 1 -1.36,-1.5 c -0.38,-0.48 -0.8,-1 -1.13,-1.47 l -1,-1.47 c -1.25,-2 -2.34,-3.9 -3.35,-5.87 a 104.87,104.87 0 0 1 -5.17,-12 4.62,4.62 0 0 1 8.64,-3.26 z"
       style="fill:#b97863"
       id="path28109" />
    <path
       d="m 136.45,265.11 c 8.4,3 8.4,13.64 14.44,24.41 l -5,8.63 c 0,0 -9.89,-7 -13,-19.35 -3.11,-12.35 3.56,-13.69 3.56,-13.69 z"
       style="fill:#60a3ab"
       id="path28111" />
    <path
       d="m 150.89,289.52 -5,8.64 a 28.41,28.41 0 0 1 -3,-2.55 39.42,39.42 0 0 1 -5.88,-7.24 33.25,33.25 0 0 1 -4.14,-9.57 c -3.1,-12.39 3.58,-13.68 3.58,-13.68 8.41,2.96 8.41,13.63 14.44,24.4 z"
       style="opacity:0.7;fill:#ffffff"
       id="path28113" />
    <path
       d="m 150.89,288.32 1.69,0.79 -3.08,10.73 h -5.26 c 0,0 2.12,-9.06 6.65,-11.52 z"
       style="fill:#60a3ab"
       id="path28115" />
    <path
       d="m 150.89,288.32 1.69,0.79 -3.08,10.73 h -5.26 c 0,0 2.12,-9.06 6.65,-11.52 z"
       style="opacity:0.6;fill:#ffffff"
       id="path28117" />
    <path
       d="m 142.88,295.61 a 39.42,39.42 0 0 1 -5.88,-7.24 39.19,39.19 0 0 1 0.42,-8.87 c 0,0 5.08,7.38 5.46,16.11 z"
       style="opacity:0.1"
       id="path28119" />
    <path
       d="m 102.29,233.13 c -0.26,-2.35 7.33,-7.49 11.47,-7.2 4.14,0.29 2.4,2.53 5.12,1.9 2.72,-0.63 6.13,-0.55 7.36,1.71 1.23,2.26 -1.7,6.11 0.89,6.75 2.59,0.64 6.17,3.27 3.94,6.54 -2.23,3.27 -9.76,9.41 -18.48,10.78 -8.72,1.37 -12.51,-9.55 -12.09,-13.5 a 2.43,2.43 0 0 0 -2.79,2.8 c 0.09,3.2 4.32,5 2.84,8 -1.48,3 -2.82,4.37 0.08,6.21 2.9,1.84 0.24,5.86 -1.87,5.8 0,0 1,-0.37 0.37,-2 -0.63,-1.63 -3.88,0.27 -6.24,-3.74 -2.36,-4.01 0.79,-5.11 -0.62,-6.8 -1.41,-1.69 -4,-0.51 -4.76,-4.32 -0.59,-2.77 3,-5.86 3.76,-8 0.76,-2.14 -1.53,-2.64 -0.28,-6.48 0.84,-2.56 5,-3.15 7.16,-2.59 a 5.15,5.15 0 0 1 4.14,4.14 z"
       style="fill:#263238"
       id="path28121" />
    <path
       d="M 129.7,278.8 A 101.25,101.25 0 0 0 109,264.36 l 2.08,-0.2 a 100.24,100.24 0 0 1 14.29,-0.49 c 1.19,0.07 2.4,0.17 3.59,0.27 v 0 c 2.96,6.78 0.74,14.86 0.74,14.86 z"
       style="opacity:0.7;fill:#ffffff"
       id="path28123" />
    <path
       d="m 109,310.2 31.2,-2.1 c 0,0 0.94,9.37 0.72,9.23 -0.22,-0.14 -33.4,1.17 -33.4,1.17 z"
       style="fill:#60a3ab"
       id="path28125" />
    <polygon
       points="140.16,311.94 109,313.59 109.28,310.71 140.16,309.01 "
       style="fill:#263238"
       id="polygon28127" />
    <path
       d="m 126.66,313.19 a 0.89,0.89 0 0 1 -0.89,-0.83 l -0.14,-1.71 a 0.91,0.91 0 0 1 0.83,-1 l 3.38,-0.26 a 0.91,0.91 0 0 1 0.68,0.24 0.87,0.87 0 0 1 0.28,0.65 v 1.81 a 0.89,0.89 0 0 1 -0.84,0.89 l -3.25,0.18 z m 3.25,-3.17 v 0 l -3.39,0.27 a 0.28,0.28 0 0 0 -0.26,0.31 l 0.13,1.71 a 0.31,0.31 0 0 0 0.31,0.27 l 3.24,-0.17 a 0.29,0.29 0 0 0 0.28,-0.29 v -1.81 a 0.27,0.27 0 0 0 -0.09,-0.21 0.32,0.32 0 0 0 -0.22,-0.1 z"
       style="fill:#ffffff"
       id="path28129" />
    <path
       d="m 108.34,310.2 a 177,177 0 0 0 -7.13,-35.85 13.58,13.58 0 0 1 -0.46,-7.71 c 0,0 7.63,-2.21 8.25,-2.28 l 2.08,-0.2 a 100.24,100.24 0 0 1 14.29,-0.49 c 1.19,0.07 2.4,0.17 3.59,0.27 0.39,0 7.11,1.13 7.49,1.17 0,0 3.57,5.79 3.94,11.33 a 96.69,96.69 0 0 1 0.49,12.84 c 0,5 -0.42,19.25 -0.42,19.25 -0.91,2 -12.24,0.37 -12.24,0.37 -12.69,3.69 -19.88,1.3 -19.88,1.3 z"
       style="fill:#60a3ab"
       id="path28131" />
    <path
       d="m 108.34,310.2 a 177,177 0 0 0 -7.13,-35.85 13.58,13.58 0 0 1 -0.46,-7.71 c 0,0 7.63,-2.21 8.25,-2.28 l 2.08,-0.2 a 100.24,100.24 0 0 1 14.29,-0.49 c 1.19,0.07 2.4,0.17 3.59,0.27 0.39,0 7.11,1.13 7.49,1.17 0,0 3.57,5.79 3.94,11.33 a 96.69,96.69 0 0 1 0.49,12.84 c 0,5 -0.42,19.25 -0.42,19.25 -0.91,2 -12.24,0.37 -12.24,0.37 -12.69,3.69 -19.88,1.3 -19.88,1.3 z"
       style="opacity:0.7;fill:#ffffff"
       id="path28133" />
    <path
       d="m 126.46,277.54 a 0.48,0.48 0 0 1 -0.48,0.49 0.5,0.5 0 1 1 0,-1 0.48,0.48 0 0 1 0.48,0.51 z"
       style="opacity:0.2"
       id="path28135" />
    <path
       d="m 128.24,287.83 a 0.49,0.49 0 1 1 -0.49,-0.48 0.49,0.49 0 0 1 0.49,0.48 z"
       style="opacity:0.2"
       id="path28137" />
    <path
       d="m 128.73,297.65 a 0.49,0.49 0 1 1 -0.49,-0.49 0.49,0.49 0 0 1 0.49,0.49 z"
       style="opacity:0.2"
       id="path28139" />
    <path
       d="m 129.21,307.1 a 0.48,0.48 0 0 1 -0.48,0.48 0.5,0.5 0 1 1 0,-1 0.48,0.48 0 0 1 0.48,0.52 z"
       style="opacity:0.2"
       id="path28141" />
    <path
       d="m 118.37,260.74 c 12.71,0 16.82,9.63 16.82,9.63 l -6,-1.22 c 0,0 -1.79,5.41 -3.73,6.89 0,0 -7.65,-1.79 -11.46,-5.9 l -5.51,1.52 c 0,0 -2.9,-10.88 9.88,-10.92 z"
       style="fill:#60a3ab"
       id="path28143" />
    <path
       d="m 118.37,260.74 c 12.71,0 16.82,9.63 16.82,9.63 l -6,-1.22 c 0,0 -1.79,5.41 -3.73,6.89 0,0 -7.65,-1.79 -11.46,-5.9 l -5.51,1.52 c 0,0 -2.9,-10.88 9.88,-10.92 z"
       style="opacity:0.6;fill:#ffffff"
       id="path28145" />
    <path
       d="m 127.22,265.69 c 1.51,5.5 -1.74,10.35 -1.74,10.35 -9.63,-3 -13.61,-11.91 -13.61,-11.91 2.88,-3.17 1.06,-11.54 -0.34,-16.11 l 3.86,2.89 5.74,4.29 a 10.58,10.58 0 0 0 0.27,3.53 c 0.44,1.82 1.22,3.54 2.07,3.9 z"
       style="fill:#b97964"
       id="path28147" />
    <path
       d="m 121.4,258.73 c -2.29,-0.51 -5.28,-2.88 -5.77,-5.22 a 11.36,11.36 0 0 1 -0.24,-2.6 l 5.74,4.29 a 10.58,10.58 0 0 0 0.27,3.53 z"
       style="opacity:0.2"
       id="path28149" />
    <path
       d="m 106.31,243.62 c 3.13,6.88 4.31,9.86 9.28,12.3 7.48,3.68 15.31,-1.17 14.31,-8.73 -0.9,-6.8 -5.88,-16.91 -13.9,-17.46 a 9.68,9.68 0 0 0 -9.69,13.89 z"
       style="fill:#b97964"
       id="path28151" />
    <path
       d="m 115.82,242.55 c 0.24,0.59 0.74,1 1.12,0.84 0.38,-0.16 0.51,-0.7 0.27,-1.29 -0.24,-0.59 -0.75,-1 -1.13,-0.84 -0.38,0.16 -0.5,0.74 -0.26,1.29 z"
       style="fill:#263238"
       id="path28153" />
    <path
       d="m 123.22,239.88 c 0.23,0.59 0.74,1 1.12,0.84 0.38,-0.16 0.5,-0.7 0.27,-1.29 -0.23,-0.59 -0.75,-1 -1.13,-0.84 -0.38,0.16 -0.48,0.71 -0.26,1.29 z"
       style="fill:#263238"
       id="path28155" />
    <path
       d="m 123.32,238.68 1.25,-0.87 c 0,0 -0.28,1.34 -1.25,0.87 z"
       style="fill:#263238"
       id="path28157" />
    <path
       d="m 121.46,241.92 a 18.77,18.77 0 0 0 3.61,3.08 c -0.48,1 -1.93,1.08 -1.93,1.08 z"
       style="fill:#a24e3f"
       id="path28159" />
    <path
       d="m 113.22,239.22 a 0.33,0.33 0 0 0 0.23,-0.17 2.72,2.72 0 0 1 2.11,-1.47 0.34,0.34 0 0 0 0.33,-0.38 0.41,0.41 0 0 0 -0.42,-0.35 3.42,3.42 0 0 0 -2.69,1.83 0.39,0.39 0 0 0 0.44,0.54 z"
       style="fill:#263238"
       id="path28161" />
    <path
       d="m 124.71,235 a 0.34,0.34 0 0 0 0.24,-0.13 0.36,0.36 0 0 0 -0.08,-0.51 3.89,3.89 0 0 0 -3.34,-0.84 0.34,0.34 0 0 0 -0.22,0.45 0.41,0.41 0 0 0 0.48,0.25 3.11,3.11 0 0 1 2.64,0.69 0.37,0.37 0 0 0 0.28,0.09 z"
       style="fill:#263238"
       id="path28163" />
    <path
       d="m 115.92,241.35 1.25,-0.87 c 0,0 -0.28,1.34 -1.25,0.87 z"
       style="fill:#263238"
       id="path28165" />
    <path
       d="m 110.89,247 c 0,0 2.46,-5.93 -1.86,-13 0,0 7.21,-5.58 14.54,-0.92 0,0 -7.74,-8.73 -18.56,-1.49 -10.82,7.24 0.49,16.71 2.15,17.34 1.66,0.63 3.73,-1.93 3.73,-1.93 z"
       style="fill:#263238"
       id="path28167" />
    <path
       d="m 106.18,250.17 a 6.09,6.09 0 0 0 4.39,1.48 c 2.05,-0.19 2.2,-2.32 0.9,-4 -1.17,-1.5 -3.65,-3.2 -5.35,-2.19 -1.7,1.01 -1.48,3.38 0.06,4.71 z"
       style="fill:#b97964"
       id="path28169" />
    <path
       d="m 123.91,247.67 a 20.85,20.85 0 0 0 -0.36,3.06 c -0.18,0 -0.36,0.05 -0.54,0.06 -2.45,0.26 -3.67,-0.43 -4.28,-1.27 a 3,3 0 0 1 -0.54,-1.4 3,3 0 0 1 0,-0.86 11.49,11.49 0 0 0 4.9,0.48 c 0.5,-0.03 0.82,-0.07 0.82,-0.07 z"
       style="fill:#263238"
       id="path28171" />
    <path
       d="m 123.07,247.74 -0.13,0.9 c -2.3,0.24 -4,0.1 -4.75,-0.52 a 3,3 0 0 1 0,-0.86 11.49,11.49 0 0 0 4.88,0.48 z"
       style="fill:#ffffff"
       id="path28173" />
    <path
       d="m 123,250.79 c -2.45,0.26 -3.67,-0.43 -4.28,-1.27 a 8.07,8.07 0 0 1 2.77,0.25 3,3 0 0 1 1.51,1.02 z"
       style="fill:#e52c2c"
       id="path28175" />
    <path
       d="m 120.21,288.71 6.59,-3.11 v 8.08 c 0,0 -6,2.41 -7.16,-0.75 z"
       style="fill:#b97964"
       id="path28177" />
    <polygon
       points="126.75,293.68 126.8,285.6 133.97,286.37 131.57,293.3 "
       style="fill:#b97964"
       id="polygon28179" />
    <path
       d="m 170,283.47 7.09,-1.64 -5,-6.32 c 0,0 -6.24,1.85 -5.16,5 z"
       style="fill:#b97964"
       id="path28181" />
    <polygon
       points="172.1,275.51 177.13,281.83 181.97,276.89 176.12,272.83 "
       style="fill:#b97964"
       id="polygon28183" />
    <path
       d="m 104.68,286.43 c -0.73,-2.87 -1.56,-5.86 -2.5,-8.91 a 10,10 0 0 1 2.9,-2.95 c 0,0 1.92,7.48 -0.4,11.86 z"
       style="opacity:0.1"
       id="path28185" />
    <path
       d="m 104.69,275.73 c -0.94,1.68 -2,3.51 -2.88,5.3 -0.88,1.79 -1.81,3.6 -2.57,5.37 a 24.68,24.68 0 0 0 -1.65,5 c -0.15,0.66 -0.06,1.22 -0.2,0.91 a 1.42,1.42 0 0 0 -0.25,-0.33 0.67,0.67 0 0 0 -0.17,-0.12 c -0.08,0 0,0.06 0.2,0.13 a 6.62,6.62 0 0 0 2,0.35 20.61,20.61 0 0 0 2.7,-0.05 50.63,50.63 0 0 0 5.91,-0.8 c 4,-0.75 8.13,-1.74 12.13,-2.81 h 0.07 a 2.3,2.3 0 0 1 1.64,4.26 80.39,80.39 0 0 1 -12.15,5.15 51.54,51.54 0 0 1 -6.61,1.72 26.23,26.23 0 0 1 -3.66,0.42 14.41,14.41 0 0 1 -4.33,-0.38 9.06,9.06 0 0 1 -2.69,-1.21 7.78,7.78 0 0 1 -1.36,-1.19 6.88,6.88 0 0 1 -1.1,-1.67 9,9 0 0 1 -0.78,-3 14.32,14.32 0 0 1 0,-2.37 29.44,29.44 0 0 1 1.83,-7.29 68.71,68.71 0 0 1 6,-12.15 4.6266213,4.6266213 0 0 1 8,4.65 z"
       style="fill:#b97863"
       id="path28187" />
    <path
       d="m 100.75,266.64 c 0,0 9.29,1.66 2.92,16 0,0 -4.12,7.46 -4.3,9.18 l -6.17,9.27 c 0,0 -6.51,-1 -4.8,-9.72 4,-20.37 12.35,-24.73 12.35,-24.73 z"
       style="fill:#60a3ab"
       id="path28189" />
    <path
       d="m 100.75,266.64 c 0,0 9.29,1.66 2.92,16 0,0 -4.12,7.46 -4.3,9.18 l -6.17,9.27 c 0,0 -6.51,-1 -4.8,-9.72 4,-20.37 12.35,-24.73 12.35,-24.73 z"
       style="opacity:0.7;fill:#ffffff"
       id="path28191" />
    <path
       d="M 101.31,292.49 99,290.68 c 0,0 -8.11,3.89 -9.93,10.39 l 6.11,0.58 c 0,0 2.82,-6.54 6.13,-9.16 z"
       style="fill:#60a3ab"
       id="path28193" />
    <path
       d="M 101.31,292.49 99,290.68 c 0,0 -8.11,3.89 -9.93,10.39 l 6.11,0.58 c 0,0 2.82,-6.54 6.13,-9.16 z"
       style="opacity:0.6;fill:#ffffff"
       id="path28195" />
  </g>
</svg>
