<?xml version="1.0" encoding="UTF-8" standalone="no"?>
<svg
   viewBox="0 0 443.90833 372.56"
   version="1.1"
   id="svg17469"
   width="443.90833"
   height="372.56"
   xmlns="http://www.w3.org/2000/svg"
   xmlns:svg="http://www.w3.org/2000/svg">
  <defs
     id="defs17473" />
  <g
     id="freepik--background-complete--inject-41"
     transform="translate(-25.030157,-55)">
    <rect
       y="382.39999"
       width="443.90833"
       height="0.25"
       style="fill:#ebebeb;stroke-width:0.94224"
       id="rect16855"
       x="25.030157" />
    <rect
       x="416.78"
       y="398.48999"
       width="33.119999"
       height="0.25"
       style="fill:#ebebeb"
       id="rect16857" />
    <rect
       x="322.53"
       y="401.20999"
       width="8.6899996"
       height="0.25"
       style="fill:#ebebeb"
       id="rect16859" />
    <rect
       x="396.59"
       y="389.20999"
       width="19.190001"
       height="0.25"
       style="fill:#ebebeb"
       id="rect16861" />
    <rect
       x="52.459999"
       y="390.89001"
       width="43.189999"
       height="0.25"
       style="fill:#ebebeb"
       id="rect16863" />
    <rect
       x="104.56"
       y="390.89001"
       width="6.3299999"
       height="0.25"
       style="fill:#ebebeb"
       id="rect16865" />
    <rect
       x="131.47"
       y="395.10999"
       width="93.68"
       height="0.25"
       style="fill:#ebebeb"
       id="rect16867" />
    <path
       d="M 237,337.8 H 43.91 a 5.71,5.71 0 0 1 -5.7,-5.71 V 60.66 A 5.71,5.71 0 0 1 43.91,55 H 237 a 5.71,5.71 0 0 1 5.71,5.71 V 332.09 A 5.71,5.71 0 0 1 237,337.8 Z M 43.91,55.2 a 5.46,5.46 0 0 0 -5.45,5.46 v 271.43 a 5.46,5.46 0 0 0 5.45,5.46 H 237 a 5.47,5.47 0 0 0 5.46,-5.46 V 60.66 A 5.47,5.47 0 0 0 237,55.2 Z"
       style="fill:#ebebeb"
       id="path16869" />
    <path
       d="m 453.31,337.8 h -193.1 a 5.72,5.72 0 0 1 -5.71,-5.71 V 60.66 A 5.72,5.72 0 0 1 260.21,55 h 193.1 a 5.71,5.71 0 0 1 5.69,5.66 v 271.43 a 5.71,5.71 0 0 1 -5.69,5.71 z M 260.21,55.2 a 5.47,5.47 0 0 0 -5.46,5.46 v 271.43 a 5.47,5.47 0 0 0 5.46,5.46 h 193.1 a 5.47,5.47 0 0 0 5.46,-5.46 V 60.66 a 5.47,5.47 0 0 0 -5.46,-5.46 z"
       style="fill:#ebebeb"
       id="path16871" />
    <polygon
       points="215.81,326.69 78.08,326.69 78.08,141.73 127.49,112.98 165.57,112.98 215.81,140.37 "
       style="fill:#e6e6e6"
       id="polygon16873" />
    <path
       d="M 217.22,326.69 H 78.08 v -185 l 1.41,-1.36 A 97.91,97.91 0 0 1 147.65,113 v 0 a 98,98 0 0 1 68.16,27.39 l 1.41,1.36 z M 87.31,317.46 H 208 V 145.69 a 89.27,89.27 0 0 0 -120.68,0 z"
       style="fill:#fafafa"
       id="path16875" />
    <polygon
       points="151.11,121.02 144.19,121.02 144.19,179.65 85.56,179.65 85.56,186.57 144.19,186.57 144.19,249.82 85.56,249.82 85.56,256.74 144.19,256.74 144.19,318.57 151.11,318.57 151.11,256.74 209.74,256.74 209.74,249.82 151.11,249.82 151.11,186.57 209.74,186.57 209.74,179.65 151.11,179.65 "
       style="fill:#f5f5f5"
       id="polygon16877" />
    <path
       d="M 221.84,331.31 H 73.46 V 139.85 l 1.35,-1.35 a 103.14,103.14 0 0 1 145.68,0 l 1.35,1.35 z M 82.69,322.08 H 212.61 V 143.7 a 93.89,93.89 0 0 0 -129.92,0 z"
       style="fill:#f5f5f5"
       id="path16879" />
    <path
       d="m 394.91,133.14 c 0,0 1.34,-8.86 -5.12,-14.54 -6.46,-5.68 -5.9,-9.07 -4.05,-9.51 1.85,-0.44 3.55,5.24 6.39,6.81 0,0 0.09,-8.1 -2.79,-11.08 -2.88,-2.98 -4.41,-10.67 -1.66,-10.82 2.75,-0.15 3,4.57 3.6,7.9 0.6,3.33 3.63,8 3.63,8 0,0 0.6,-7.25 2.46,-10.23 1.86,-2.98 -3.11,-9.8 -1.19,-12.79 1.92,-2.99 5.33,2.7 5,9.1 -0.33,6.4 -4.54,13.21 -3.55,19.89 0,0 1.88,-4.69 3.57,-5.12 1.69,-0.43 3.39,-3.52 4.53,-4.67 1.14,-1.15 2.56,2.83 0,6.52 -2.56,3.69 -9.09,13.58 -8.1,21.56 z"
       style="fill:#e6e6e6"
       id="path16881" />
    <path
       d="m 391,129.11 -2.11,13.28 a 6.75,6.75 0 0 0 6.67,7.82 h 2.26 a 6.76,6.76 0 0 0 6.67,-7.82 l -2.12,-13.28 z"
       style="fill:#f5f5f5"
       id="path16883" />
    <rect
       x="273.42999"
       y="145.31"
       width="149.63"
       height="7.6900001"
       style="fill:#f0f0f0"
       id="rect16885" />
    <rect
       x="280.32001"
       y="116.97"
       width="6.5900002"
       height="28.34"
       style="fill:#f5f5f5"
       id="rect16887" />
    <rect
       x="312.19"
       y="116.97"
       width="6.5900002"
       height="28.34"
       style="fill:#f5f5f5"
       id="rect16889" />
    <rect
       x="350.82999"
       y="116.62"
       width="6.5900002"
       height="28.34"
       transform="rotate(-9.78,354.09965,130.78605)"
       style="fill:#f5f5f5"
       id="rect16891" />
    <rect
       x="288.48999"
       y="120.7"
       width="6.5900002"
       height="24.6"
       style="fill:#f5f5f5"
       id="rect16893" />
    <rect
       x="303.64001"
       y="120.7"
       width="6.5900002"
       height="24.6"
       style="fill:#f5f5f5"
       id="rect16895" />
    <rect
       x="341.88"
       y="120.7"
       width="6.5900002"
       height="24.6"
       style="fill:#f5f5f5"
       id="rect16897" />
    <rect
       x="323.60001"
       y="120.28"
       width="6.5900002"
       height="24.6"
       transform="rotate(-12.53,326.81251,132.58234)"
       style="fill:#f5f5f5"
       id="rect16899" />
    <rect
       x="297.48001"
       y="115.56"
       width="3.3"
       height="29.75"
       style="fill:#f5f5f5"
       id="rect16901" />
    <rect
       x="336.69"
       y="115.56"
       width="3.3"
       height="29.75"
       style="fill:#f5f5f5"
       id="rect16903" />
    <rect
       x="273.42999"
       y="202.7"
       width="149.63"
       height="7.6900001"
       transform="rotate(180,348.245,206.545)"
       style="fill:#f0f0f0"
       id="rect16905" />
    <rect
       x="409.57999"
       y="174.36"
       width="6.5900002"
       height="28.34"
       transform="rotate(180,412.875,188.53)"
       style="fill:#f5f5f5"
       id="rect16907" />
    <rect
       x="377.70999"
       y="174.36"
       width="6.5900002"
       height="28.34"
       transform="rotate(180,381.005,188.53)"
       style="fill:#f5f5f5"
       id="rect16909" />
    <rect
       x="339.07001"
       y="174.00999"
       width="6.5900002"
       height="28.34"
       transform="rotate(-170.22,342.36535,188.17935)"
       style="fill:#f5f5f5"
       id="rect16911" />
    <rect
       x="401.41"
       y="178.10001"
       width="6.5900002"
       height="24.6"
       transform="rotate(180,404.71,190.4)"
       style="fill:#f5f5f5"
       id="rect16913" />
    <rect
       x="386.26001"
       y="178.10001"
       width="6.5900002"
       height="24.6"
       transform="rotate(180,389.56,190.4)"
       style="fill:#f5f5f5"
       id="rect16915" />
    <rect
       x="348.01999"
       y="178.10001"
       width="6.5900002"
       height="24.6"
       transform="rotate(180,351.315,190.4)"
       style="fill:#f5f5f5"
       id="rect16917" />
    <rect
       x="366.29999"
       y="177.67999"
       width="6.5900002"
       height="24.6"
       transform="rotate(-167.47,369.60351,189.96941)"
       style="fill:#f5f5f5"
       id="rect16919" />
    <rect
       x="395.70999"
       y="172.96001"
       width="3.3"
       height="29.75"
       transform="rotate(180,397.36,187.83)"
       style="fill:#f5f5f5"
       id="rect16921" />
    <rect
       x="356.5"
       y="172.96001"
       width="3.3"
       height="29.75"
       transform="rotate(180,358.15,187.83)"
       style="fill:#f5f5f5"
       id="rect16923" />
    <rect
       x="287.79001"
       y="180.27"
       width="32.119999"
       height="22.18"
       transform="rotate(180,303.85,191.36)"
       style="fill:#f5f5f5"
       id="rect16925" />
  </g>
  <g
     id="freepik--Shadow--inject-41"
     transform="translate(-25.030157,-55)">
    <ellipse
       id="freepik--path--inject-41"
       cx="250"
       cy="416.23999"
       rx="193.89"
       ry="11.32"
       style="fill:#f5f5f5" />
  </g>
  <g
     id="freepik--Shapes--inject-41"
     transform="translate(-25.030157,-55)">
    <path
       d="m 109.24,291.51 c 11.59,-3.51 25.89,-0.69 33.58,9.2 7.5,9.3 8.66,21.47 7.62,32.7 -1.05,10.13 -0.93,20.83 3.73,30 4.62,9.47 15.12,14.94 25.64,13.93 a 27.23,27.23 0 0 1 -28,-12.56 c -5.84,-9.43 -7,-20.94 -6.81,-31.75 0.23,-9.46 -1.41,-20.32 -8,-27.3 -6.27,-6.83 -16.31,-7.86 -24.74,-4.73 -6.53,2.08 -9.58,-7.46 -3,-9.54 z"
       style="fill:#60a3ab"
       id="path16930" />
    <path
       d="m 241.59,329.32 c 2.55,2.56 5.58,1 6.09,-2.22 0.32,-2.39 -1.34,-4.05 -3.61,-4.93 -4,-1.47 -7.94,1.57 -10.24,5 -4.48,6.95 -4.49,16.94 -10.68,23.07 a 20,20 0 0 1 -14.22,5.55 19.06,19.06 0 0 0 9.4,-3.36 c 9.34,-6 7.44,-18.14 12.26,-27.16 2.79,-5.26 8.81,-9.77 15.09,-7.87 a 10.09,10.09 0 0 1 5.17,16.6 c -3.53,4.23 -9.87,3.94 -13.72,0.69 a 3.5018424,3.5018424 0 1 1 4.46,-5.4 z"
       style="fill:#60a3ab"
       id="path16932" />
    <path
       d="m 116.24,150 c 4.72,10.21 -7.08,19 -15.59,11.78 -9.4,-7.17 -4.49,-20.84 4.52,-25.72 8.8,-5.07 20.67,-1.17 26.38,6.77 6.9,10.15 7.17,23 9.72,34.59 2.18,11.57 5.72,23.07 12.47,32.83 a 69.49,69.49 0 0 1 -4.89,-7.43 c -4.4,-7.78 -7.19,-16.37 -9.29,-25 -1.44,-5.77 -2.58,-11.6 -4.06,-17.27 -1.48,-5.67 -3.31,-11.29 -6.73,-15.57 a 18.6,18.6 0 0 0 -14,-6.8 13.8,13.8 0 0 0 -12.25,7.55 c -1.7,3.32 -2.23,7.52 0.49,10.13 1.64,1.85 4.69,3.22 6.43,1.39 a 3.33,3.33 0 0 0 0.48,-4.11 3.5016889,3.5016889 0 1 1 6.27,-3.12 z"
       style="fill:#60a3ab"
       id="path16934" />
    <path
       d="m 256.74,198.87 c -5.69,-10.85 -13.24,-1.47 -15.42,6.38 -2.2,6.9 -1.61,14.72 -3.67,21.77 -2,7.28 -5.49,15.29 -12.66,18.73 a 12.42,12.42 0 0 1 -11.05,-0.38 11.77,11.77 0 0 0 10.47,-0.73 c 6.17,-3.88 8.52,-11.51 9.57,-18.37 a 61.36,61.36 0 0 0 0.52,-10.76 c -0.25,-8 0.57,-16.34 5.38,-23.4 7.08,-10.14 19,-8.25 25.36,1.49 3.76,5.88 -4.93,11.25 -8.5,5.27 z"
       style="fill:#60a3ab"
       id="path16936" />
    <path
       d="m 118,342.81 c 4.58,6.72 -4.34,13.63 -10.09,8.51 -8.06,-7.15 0.21,-18.55 9.18,-19.13 6.7,-0.65 13.28,3.35 16.42,9.12 2.35,4.34 2.27,9.23 3.77,13.76 a 9,9 0 0 0 2.52,3.9 c -2.58,-2 -3.4,-5.35 -4.13,-8.37 a 30.2,30.2 0 0 0 -3.06,-8.78 c -3.07,-5.05 -9.37,-8.51 -15.26,-7.61 -5.29,0.67 -11,6.12 -9.51,11.55 0.9,3.34 5.51,5.7 7.39,1.93 a 2.45,2.45 0 0 0 -0.46,-2.52 2.0001562,2.0001562 0 1 1 3.23,-2.36 z"
       style="fill:#60a3ab"
       id="path16938" />
    <path
       d="m 82,259.39 c 0,0.19 0.05,0.33 0.05,0.35 0,0.02 -0.05,0 0,0 a 0.66,0.66 0 0 0 0.36,0.07 c 4.79,-0.84 4.49,-6.9 0.16,-8.33 -2.71,-0.82 -5.76,0.71 -7.59,2.84 -4.06,4.73 -4.33,12.47 -1,17.8 5.33,8.67 16.71,11.68 26.38,9.52 a 27.67,27.67 0 0 1 -19.88,-1.9 19.87,19.87 0 0 1 -10,-11.6 c -1.38,-5.2 -0.83,-11 2.63,-15.42 4.66,-6.24 14.64,-6 16.24,2.57 a 7.66,7.66 0 0 1 -4.84,7.88 c -2.73,1.24 -6.2,-0.06 -6.43,-3.49 a 2.0056171,2.0056171 0 1 1 4,-0.3 z"
       style="fill:#60a3ab"
       id="path16940" />
    <path
       d="m 147.17,104.1 c 0.53,-6.87 -8.17,-9.24 -13,-5.46 -8,6 -7.77,20.16 -4.53,28.83 3.48,10.08 11.83,18.86 11.61,30.05 -0.32,-11.26 -9,-19.48 -13,-29.52 -4,-9.47 -4.66,-24.63 4.14,-31.76 7.09,-5.77 19,-2 18.81,8 a 2.002024,2.002024 0 1 1 -4,-0.18 z"
       style="fill:#60a3ab"
       id="path16942" />
    <path
       d="m 83.56,223.73 c 3.79,-2.77 9.45,-2.47 12.58,1 3,3.2 2.31,8 1.53,11.67 -0.44,2.44 -0.72,5 0.34,7.34 -2.75,-4.31 -0.17,-10.2 -1.82,-14.62 -1.38,-4.22 -7,-5.28 -10,-2.38 a 2,2 0 1 1 -2.6,-3 z"
       style="fill:#60a3ab"
       id="path16944" />
    <path
       d="m 230.11,146.82 c 4.62,-0.83 9.59,1.89 10.89,6.41 1.25,4.16 -1.41,8.22 -3.71,11.17 -1.45,2 -2.82,4.18 -2.88,6.76 -0.6,-5.08 4.28,-9.26 4.72,-14 0.59,-4.4 -4,-7.78 -8,-6.51 a 2,2 0 1 1 -1,-3.87 z"
       style="fill:#60a3ab"
       id="path16946" />
    <path
       d="m 317.4,146.72 c 1.18,0.34 3,-1 3.54,-2.17 1.52,-3.58 -1.66,-7.35 -5.26,-8.05 -9.68,-1.9 -15.59,7.5 -14.68,16.25 0.63,7 4.26,13.05 7.27,19.33 2,4.24 4,8.73 4.32,13.58 0.73,10.8 -5.77,18.73 -16.92,18.26 10.9,0 17,-7.63 15.93,-18.18 C 310.19,173.89 300.17,165 298.79,153 c -1.51,-10.69 5.92,-21.6 17.56,-19.65 4,0.65 7.87,4 8.49,8.27 1,4.77 -3.32,10 -8.46,9 a 2,2 0 1 1 1,-3.87 z"
       style="fill:#60a3ab"
       id="path16948" />
    <path
       d="m 203.75,106.41 c -2.64,-1.42 -5.72,-1.91 -7.83,0.61 a 11.42,11.42 0 0 0 -2.18,9.45 c -1.74,-4.13 -1.17,-9.88 2.53,-12.89 2.51,-2 6.19,-1.76 9,-0.88 a 2,2 0 1 1 -1.49,3.71 z"
       style="fill:#60a3ab"
       id="path16950" />
    <path
       d="m 182.9,207.89 c -1.36,-1.85 -3.18,-1.37 -3.9,0.65 -0.9,4 4.76,6.07 7.51,8 4.85,2.82 6.13,6.65 3.13,11.53 a 11.46,11.46 0 0 0 1.12,-4.2 c 0.2,-8.07 -15.56,-6.53 -14.51,-15.93 0.76,-4.78 6.19,-6.34 9.59,-2.8 a 2.0026233,2.0026233 0 1 1 -2.94,2.72 z"
       style="fill:#60a3ab"
       id="path16952" />
    <path
       d="m 223.23,305.89 a 7.69,7.69 0 0 1 8.14,7.47 c 0.33,3.66 -1.94,6.71 -3.24,9.79 a 28.08,28.08 0 0 0 -2.1,6.15 28.44,28.44 0 0 1 1.16,-6.5 c 0.73,-3 2.38,-6 1.71,-9 -0.55,-2.55 -2.6,-4.61 -5.27,-3.92 a 2.0099751,2.0099751 0 1 1 -0.4,-4 z"
       style="fill:#60a3ab"
       id="path16954" />
    <path
       d="m 284.38,110.53 c 15.4,10.58 1.33,33.82 11.32,47 a 15.73,15.73 0 0 1 -3.22,-5.19 c -3.58,-9.51 -1.26,-20.35 -3.92,-30 a 13.13,13.13 0 0 0 -6.24,-8.43 2,2 0 1 1 2.06,-3.42 z"
       style="fill:#60a3ab"
       id="path16956" />
    <path
       d="m 181.6,93.12 c -10.84,-0.52 -9.61,9.81 -2.24,14.38 a 36.13,36.13 0 0 1 8.33,7 c 2.72,3.08 4.22,7.74 2.15,11.54 3.1,-7.93 -5.39,-13.69 -11.42,-16.92 a 16.41,16.41 0 0 1 -6,-5.48 c -2.52,-3.87 -2.23,-9.36 1.73,-12.29 a 13.48,13.48 0 0 1 7.62,-2.23 2.0012246,2.0012246 0 1 1 -0.14,4 z"
       style="fill:#60a3ab"
       id="path16958" />
  </g>
  <g
     id="freepik--Chest--inject-41"
     transform="translate(-25.030157,-55)">
    <path
       d="M 170.94,114.78 150.33,118 a 6.34,6.34 0 0 0 -5.3,7.22 l 2,12.92 12.52,-1.93 8.09,-1.25 12.51,-1.96 -2,-12.91 a 6.32,6.32 0 0 0 -7.21,-5.31 z"
       style="fill:#60a3ab"
       id="path16961" />
    <path
       d="m 159.54,136.16 -12.54,1.93 -2,-12.92 a 6.34,6.34 0 0 1 5.3,-7.22 v 0 a 6.33,6.33 0 0 1 7.22,5.29 z"
       style="opacity:0.2;isolation:isolate"
       id="path16963" />
    <path
       d="m 147.78,137.05 -1.85,-12 a 5.43,5.43 0 0 1 10.73,-1.65 l 1.85,12 z"
       style="opacity:0.2;isolation:isolate"
       id="path16965" />
    <rect
       x="159.42999"
       y="123.58"
       width="19.040001"
       height="10.05"
       transform="rotate(-8.76,168.88357,128.56576)"
       style="opacity:0.2;isolation:isolate"
       id="rect16967" />
    <path
       d="m 177.26,120.21 0.23,1.45 -18.82,2.9 -0.22,-1.45 a 6.34,6.34 0 0 0 -7.23,-5.3 l 18.82,-2.9 a 6.33,6.33 0 0 1 7.22,5.3 z"
       style="opacity:0.2;isolation:isolate"
       id="path16969" />
    <rect
       x="144.41"
       y="123.19"
       width="34.610001"
       height="1.4299999"
       rx="0.34999999"
       transform="rotate(-8.76,161.62625,123.8732)"
       style="fill:#60a3ab"
       id="rect16971" />
    <rect
       x="144.41"
       y="123.19"
       width="34.610001"
       height="1.4400001"
       rx="0.34"
       transform="rotate(-8.76,161.7518,123.94848)"
       style="opacity:0.2;isolation:isolate;fill:#ffffff"
       id="rect16973" />
    <rect
       x="144.53"
       y="124.78"
       width="13.76"
       height="1.4400001"
       rx="0.34"
       transform="matrix(0.99,-0.15,0.15,0.99,-17.35,24.53)"
       style="opacity:0.2;isolation:isolate"
       id="rect16975" />
    <path
       d="m 169.8,127.53 h -0.15 a 1.49,1.49 0 0 1 -0.45,-2.94 h 0.15 a 1.5,1.5 0 0 0 0.45,2.91 z"
       style="opacity:0.2;isolation:isolate;fill:#ffffff"
       id="path16977" />
    <path
       d="m 171.07,125.84 a 1.37,1.37 0 1 1 -1.58,-1.25 1.43,1.43 0 0 1 1.58,1.25 z"
       style="opacity:0.4;isolation:isolate;fill:#ffffff"
       id="path16979" />
    <path
       d="m 170,125.59 a 0.34,0.34 0 1 0 -0.39,0.38 l 0.06,0.86 0.38,-0.06 -0.21,-0.84 a 0.33,0.33 0 0 0 0.16,-0.34 z"
       style="opacity:0.2;isolation:isolate"
       id="path16981" />
  </g>
  <g
     id="freepik--Car--inject-41"
     transform="translate(-25.030157,-55)">
    <path
       d="m 193.5,311.57 -1.47,0.85 a 3.2615219,3.2615219 0 1 0 3.26,5.65 l 1.47,-0.84 a 3.27,3.27 0 1 0 -3.26,-5.66 z"
       style="fill:#263238"
       id="path16984" />
    <path
       d="m 196.49,313.62 a 3.26,3.26 0 1 1 -4.46,-1.2 3.26,3.26 0 0 1 4.46,1.2 z"
       style="opacity:0.2"
       id="path16986" />
    <path
       d="m 195.3,314.3 a 1.89,1.89 0 1 1 -2.59,-0.7 1.9,1.9 0 0 1 2.59,0.7 z"
       style="fill:#263238"
       id="path16988" />
    <path
       d="m 207.66,303.42 -1.47,0.85 a 3.26,3.26 0 0 0 3.25,5.65 l 1.47,-0.84 a 3.263361,3.263361 0 0 0 -3.25,-5.66 z"
       style="fill:#263238"
       id="path16990" />
    <path
       d="m 210.64,305.47 a 3.26,3.26 0 1 1 -4.45,-1.2 3.25,3.25 0 0 1 4.45,1.2 z"
       style="opacity:0.2"
       id="path16992" />
    <path
       d="m 209.46,306.15 a 1.9,1.9 0 1 1 -2.59,-0.7 1.9,1.9 0 0 1 2.59,0.7 z"
       style="fill:#263238"
       id="path16994" />
    <polygon
       points="212.24,303.13 211.15,304.63 182.94,320.88 180.43,316.52 206.72,301.39 "
       style="fill:#263238"
       id="polygon16996" />
    <path
       d="m 200.58,307.5 -1.47,0.84 a 3.27,3.27 0 0 0 3.26,5.66 l 1.47,-0.85 a 3.2615219,3.2615219 0 0 0 -3.26,-5.65 z"
       style="fill:#263238"
       id="path16998" />
    <path
       d="m 200.58,307.5 -1.47,0.84 a 3.27,3.27 0 0 0 3.26,5.66 l 1.47,-0.85 a 3.2615219,3.2615219 0 0 0 -3.26,-5.65 z"
       style="opacity:0.1;fill:#ffffff"
       id="path17000" />
    <path
       d="m 203.56,309.54 a 3.26,3.26 0 1 1 -4.45,-1.2 3.27,3.27 0 0 1 4.45,1.2 z"
       style="opacity:0.1;fill:#ffffff"
       id="path17002" />
    <path
       d="m 202.38,310.22 a 1.89,1.89 0 1 1 -2.59,-0.69 1.9,1.9 0 0 1 2.59,0.69 z"
       style="fill:#60a3ab"
       id="path17004" />
    <path
       d="m 186.42,315.65 -1.47,0.84 a 3.27,3.27 0 0 0 3.26,5.66 l 1.47,-0.85 a 3.2615219,3.2615219 0 1 0 -3.26,-5.65 z"
       style="fill:#263238"
       id="path17006" />
    <path
       d="m 186.42,315.65 -1.47,0.84 a 3.27,3.27 0 0 0 3.26,5.66 l 1.47,-0.85 a 3.2615219,3.2615219 0 1 0 -3.26,-5.65 z"
       style="opacity:0.1;fill:#ffffff"
       id="path17008" />
    <path
       d="m 189.41,317.69 a 3.27,3.27 0 1 1 -4.46,-1.2 3.27,3.27 0 0 1 4.46,1.2 z"
       style="opacity:0.1;fill:#ffffff"
       id="path17010" />
    <path
       d="m 188.22,318.37 a 1.9,1.9 0 1 1 -2.58,-0.69 1.9,1.9 0 0 1 2.58,0.69 z"
       style="fill:#60a3ab"
       id="path17012" />
    <polygon
       points="180.76,308.4 178.59,305.92 180.88,304.6 184.44,305.56 184.75,306.1 "
       style="fill:#60a3ab"
       id="polygon17014" />
    <polygon
       points="180.76,308.4 178.59,305.92 180.88,304.6 184.44,305.56 184.75,306.1 "
       style="opacity:0.3"
       id="polygon17016" />
    <rect
       x="172.84"
       y="308.76999"
       width="10.66"
       height="0.75"
       transform="rotate(-29.93,178.18058,309.14029)"
       style="fill:#60a3ab"
       id="rect17018" />
    <rect
       x="172.84"
       y="308.76999"
       width="10.66"
       height="0.75"
       transform="rotate(-29.93,178.18058,309.14029)"
       style="opacity:0.3"
       id="rect17020" />
    <path
       d="m 211.68,301.09 1.24,2.16 -9.27,5.33 a 3.2,3.2 0 1 0 -5.54,3.19 l -8.62,5 a 3.19,3.19 0 1 0 -5.53,3.18 l -1.8,1 -1.76,-3 -2.35,-8.76 10.55,-6.08 a 10.09,10.09 0 0 1 2.87,-1.16 c 2.63,-0.78 7.34,-1.57 15,-1.2 1.6,0.03 3.35,0.15 5.21,0.34 z"
       style="fill:#60a3ab"
       id="path17022" />
    <path
       d="m 199.42,305.59 a 4.71,4.71 0 0 0 -1.73,6.43 l 0.42,-0.25 a 3.2,3.2 0 1 1 5.54,-3.19 l 2.18,-1.25 a 4.7,4.7 0 0 0 -6.41,-1.74 z"
       style="opacity:0.2"
       id="path17024" />
    <path
       d="m 185.26,313.74 a 4.71,4.71 0 0 0 -1.73,6.43 l 0.43,-0.25 a 3.19,3.19 0 1 1 5.53,-3.18 l 2.18,-1.26 a 4.7,4.7 0 0 0 -6.41,-1.74 z"
       style="opacity:0.2"
       id="path17026" />
    <path
       d="m 177.1,312.74 7.33,-4.22 a 7.76,7.76 0 0 1 4,-1 h 9.64 l -0.7,1.87 -7.72,0.23 a 9.93,9.93 0 0 0 -4.66,1.33 l -6,3.47 a 1.64,1.64 0 0 1 -1.89,-1.68 z"
       style="fill:#60a3ab"
       id="path17028" />
    <path
       d="m 177.1,312.74 7.33,-4.22 a 7.76,7.76 0 0 1 4,-1 h 9.64 l -0.7,1.87 -7.72,0.23 a 9.93,9.93 0 0 0 -4.66,1.33 l -6,3.47 a 1.64,1.64 0 0 1 -1.89,-1.68 z"
       style="opacity:0.2"
       id="path17030" />
    <polygon
       points="213.13,300.27 204.06,305.49 205.3,307.64 213.7,302.8 213.78,301.41 "
       style="fill:#60a3ab"
       id="polygon17032" />
    <polygon
       points="213.13,300.27 204.06,305.49 205.3,307.64 213.7,302.8 213.78,301.41 "
       style="opacity:0.2"
       id="polygon17034" />
    <rect
       x="207.95"
       y="303.26999"
       width="1.37"
       height="0.62"
       transform="rotate(-29.93,208.64439,303.59412)"
       style="opacity:0.4;fill:#ffffff"
       id="rect17036" />
    <rect
       x="211.99001"
       y="300.94"
       width="1.37"
       height="0.62"
       transform="rotate(-29.93,212.6931,301.26911)"
       style="opacity:0.4;fill:#ffffff"
       id="rect17038" />
    <polygon
       points="173.69,312.47 171.51,309.99 173.8,308.68 177.37,309.64 177.67,310.17 "
       style="fill:#60a3ab"
       id="polygon17040" />
    <path
       d="m 213.12,300.26 0.67,1.15 -0.09,1.39 -7.43,4.28 0.4,-1.52 -0.68,-1.19 -1.66,0.95 a 54.64,54.64 0 0 0 -11.91,-1 c -7.75,0 -14.37,4.87 -14.37,4.87 l 0.06,0.45 -0.57,0.33 0.14,0.24 -4,2.3 -2.17,-2.51 2.29,-1.32 3,0.81 3.26,-1.87 -1.48,-1.69 2.29,-1.32 3.44,0.94 4.28,-2.47 a 10.09,10.09 0 0 1 2.87,-1.16 c 2.63,-0.78 7.34,-1.57 15,-1.2 1.59,0.07 3.34,0.19 5.2,0.38 z"
       style="opacity:0.1"
       id="path17042" />
    <path
       d="m 206.48,300.71 -1,0.59 -2,-0.09 -1.6,0.92 0.53,0.94 -2.57,1.48 c -9.28,-1.27 -15.3,1.36 -15.3,1.36 l 6.95,-4 c 2.61,-0.78 7.32,-1.57 14.99,-1.2 z"
       style="opacity:0.4;fill:#ffffff"
       id="path17044" />
  </g>
  <g
     id="freepik--Bird--inject-41"
     transform="translate(-25.030157,-55)">
    <path
       d="m 213.88,272.83 c 0,0 1.38,-4.09 2.59,-4.68 1.21,-0.59 8.89,-1.42 8.89,-1.42 0,0 0.13,1 -1.32,1.24 l 1.47,0.29 c 0,0 -0.07,0.93 -1.65,1 0,0 1,0.79 -0.6,2.4 -1.6,1.61 -9.38,1.17 -9.38,1.17 z"
       style="fill:#60a3ab"
       id="path17047" />
    <path
       d="m 213.88,272.83 c 0,0 1.38,-4.09 2.59,-4.68 1.21,-0.59 8.89,-1.42 8.89,-1.42 0,0 0.13,1 -1.32,1.24 l 1.47,0.29 c 0,0 -0.07,0.93 -1.65,1 0,0 1,0.79 -0.6,2.4 -1.6,1.61 -9.38,1.17 -9.38,1.17 z"
       style="opacity:0.4;isolation:isolate;fill:#ffffff"
       id="path17049" />
    <path
       d="m 209.36,269.76 c 0.95,-2.29 3.83,-1.12 6.53,1.86 1.11,1.23 4.5,-0.23 6.84,-0.5 3.65,-0.41 8.91,1.47 14.41,3 0,0 0.3,1.07 -1.72,0.9 l 2.14,1.57 c 0,0 -0.33,1.15 -2.89,0.23 0,0 0.4,1 -0.81,2.27 -2.11,2.23 -7.44,0.45 -7.44,0.45 0,0 2.27,1.64 8.89,3.37 a 11.5,11.5 0 0 1 -8.1,0.39 l -2.8,-1.6 a 12.2,12.2 0 0 1 -7.6,-2 c -3.55,-2.48 -5,-6.22 -5.94,-7.05 -0.94,-0.83 -1.81,-2.16 -1.51,-2.89 z"
       style="fill:#60a3ab"
       id="path17051" />
    <path
       d="m 235.31,283 a 11.5,11.5 0 0 1 -8.1,0.39 l -2.8,-1.6 a 12.11,12.11 0 0 1 -7.6,-2 12.54,12.54 0 0 1 -1.36,-1.1 c -2.58,-2.37 -3.77,-5.24 -4.58,-5.95 -0.81,-0.71 -1.81,-2.19 -1.51,-2.92 0.95,-2.29 3.83,-1.11 6.53,1.86 1.11,1.23 4.5,-0.23 6.84,-0.5 3.66,-0.41 8.91,1.47 14.41,3 0,0 0.3,1.07 -1.72,0.9 l 2.14,1.57 c 0,0 -0.33,1.15 -2.89,0.23 0,0 0.4,1 -0.81,2.27 a 4.64,4.64 0 0 1 -3.53,1.11 14.58,14.58 0 0 1 -3.91,-0.66 c 0,0 2.27,1.62 8.89,3.4 z"
       style="opacity:0.6;isolation:isolate;fill:#ffffff"
       id="path17053" />
    <path
       d="m 209.7,269.18 a 5.82,5.82 0 0 0 -1.83,0 7,7 0 0 0 1.55,1.54 l 0.37,-0.65 z"
       style="fill:#60a3ab"
       id="path17055" />
    <path
       d="m 210.94,269.61 c 0,0.11 -0.13,0.17 -0.19,0.14 -0.06,-0.03 -0.08,-0.13 0,-0.23 0.08,-0.1 0.13,-0.17 0.19,-0.14 0.06,0.03 0.06,0.13 0,0.23 z"
       style="fill:#263238"
       id="path17057" />
    <path
       d="m 234.67,276.86 c 0,0 0.4,1 -0.81,2.27 a 4.64,4.64 0 0 1 -3.53,1.11 l -3.91,-0.66 c 0,0 -6.19,-1.11 -8.38,-4.35 0,0 3.92,-0.76 5.52,-1.81 1.6,-1.05 11.38,1.91 13.58,0.74 0,0 0.3,1.07 -1.72,0.9 l 2.14,1.57 c 0,0 -0.33,1.15 -2.89,0.23 z"
       style="opacity:0.2;isolation:isolate"
       id="path17059" />
    <path
       d="m 235.31,283 a 11.5,11.5 0 0 1 -8.1,0.39 l -2.8,-1.6 a 12.11,12.11 0 0 1 -7.6,-2 12.54,12.54 0 0 1 -1.36,-1.1 15.64,15.64 0 0 0 5.31,2.09 11.52,11.52 0 0 0 5.59,-0.39 c 0,0 6.19,2.87 8.96,2.61 z"
       style="opacity:0.2;isolation:isolate"
       id="path17061" />
  </g>
  <g
     id="freepik--Heart--inject-41"
     transform="translate(-25.030157,-55)">
    <path
       d="m 302.08,188.49 c 1.5,-6.3 -4.58,-9.39 -10,-8.73 0.67,-5.4 -2.42,-11.49 -8.72,-10 -10.63,2.52 -8.38,17 -6.83,23.28 0.17,0.72 0.31,1.32 0.44,1.81 0.49,0.13 1.08,0.27 1.8,0.44 6.34,1.56 20.77,3.83 23.31,-6.8 z"
       style="fill:#60a3ab"
       id="path17064" />
    <path
       d="m 302.08,188.49 c 1.5,-6.3 -4.58,-9.39 -10,-8.73 0.67,-5.4 -2.42,-11.49 -8.72,-10 -10.63,2.52 -8.38,17 -6.83,23.28 0.17,0.72 0.31,1.32 0.44,1.81 0.49,0.13 1.08,0.27 1.8,0.44 6.34,1.56 20.77,3.83 23.31,-6.8 z"
       style="opacity:0.5;fill:#fafafa"
       id="path17066" />
    <path
       d="m 288.51,172.16 c -1.63,-1.49 -4,-1.6 -5.19,-0.25 -1.19,1.35 -0.9,3.65 0.73,5.14 1.63,1.49 3.95,1.6 5.18,0.25 1.23,-1.35 0.91,-3.66 -0.72,-5.14 z"
       style="opacity:0.2;fill:#fafafa"
       id="path17068" />
    <path
       d="m 281.75,176 a 1.24,1.24 0 1 0 -1.1,1.56 1.37,1.37 0 0 0 1.1,-1.56 z"
       style="opacity:0.2;fill:#fafafa"
       id="path17070" />
  </g>
  <g
     id="freepik--Clouds--inject-41"
     transform="translate(-25.030157,-55)">
    <path
       d="m 127.58,245 a 3.74,3.74 0 0 1 3.75,-3.74 3.47,3.47 0 0 1 1.07,0.16 8.77,8.77 0 0 1 -0.08,-1.15 7.93,7.93 0 0 1 7.93,-7.93 7.77,7.77 0 0 1 1.46,0.13 6.93,6.93 0 0 1 12.85,3.53 h 0.12 a 6.39,6.39 0 0 1 0,12.78 H 131.22 A 3.73,3.73 0 0 1 127.58,245 Z"
       style="fill:#60a3ab"
       id="path17073" />
    <path
       d="m 127.58,245 a 3.74,3.74 0 0 1 3.75,-3.74 3.47,3.47 0 0 1 1.07,0.16 8.77,8.77 0 0 1 -0.08,-1.15 7.93,7.93 0 0 1 7.93,-7.93 7.77,7.77 0 0 1 1.46,0.13 6.93,6.93 0 0 1 12.85,3.53 h 0.12 a 6.39,6.39 0 0 1 0,12.78 H 131.22 A 3.73,3.73 0 0 1 127.58,245 Z"
       style="opacity:0.7;fill:#ffffff"
       id="path17075" />
    <path
       d="m 149.12,161.2 a 2.33,2.33 0 0 1 2.33,-2.33 2.47,2.47 0 0 1 0.67,0.1 5.52,5.52 0 0 1 -0.05,-0.71 4.94,4.94 0 0 1 4.93,-4.94 4.46,4.46 0 0 1 0.91,0.09 4.31,4.31 0 0 1 8,2.18 H 166 a 4,4 0 1 1 0,7.95 h -14.61 a 2.33,2.33 0 0 1 -2.27,-2.34 z"
       style="fill:#60a3ab"
       id="path17077" />
    <path
       d="m 149.12,161.2 a 2.33,2.33 0 0 1 2.33,-2.33 2.47,2.47 0 0 1 0.67,0.1 5.52,5.52 0 0 1 -0.05,-0.71 4.94,4.94 0 0 1 4.93,-4.94 4.46,4.46 0 0 1 0.91,0.09 4.31,4.31 0 0 1 8,2.18 H 166 a 4,4 0 1 1 0,7.95 h -14.61 a 2.33,2.33 0 0 1 -2.27,-2.34 z"
       style="opacity:0.7;fill:#ffffff"
       id="path17079" />
    <path
       d="m 222.28,98.94 a 2.34,2.34 0 0 1 2.33,-2.33 2.41,2.41 0 0 1 0.67,0.1 5.52,5.52 0 0 1 -0.05,-0.71 4.94,4.94 0 0 1 4.94,-4.94 4.6,4.6 0 0 1 0.91,0.09 4.3,4.3 0 0 1 8,2.18 h 0.08 a 4,4 0 0 1 0,8 h -14.6 a 2.33,2.33 0 0 1 -2.28,-2.39 z"
       style="fill:#60a3ab"
       id="path17081" />
    <path
       d="m 222.28,98.94 a 2.34,2.34 0 0 1 2.33,-2.33 2.41,2.41 0 0 1 0.67,0.1 5.52,5.52 0 0 1 -0.05,-0.71 4.94,4.94 0 0 1 4.94,-4.94 4.6,4.6 0 0 1 0.91,0.09 4.3,4.3 0 0 1 8,2.18 h 0.08 a 4,4 0 0 1 0,8 h -14.6 a 2.33,2.33 0 0 1 -2.28,-2.39 z"
       style="opacity:0.7;fill:#ffffff"
       id="path17083" />
    <path
       d="m 264.79,154.9 a 2.33,2.33 0 0 1 2.33,-2.33 2.41,2.41 0 0 1 0.67,0.09 5.52,5.52 0 0 1 -0.05,-0.71 4.94,4.94 0 0 1 4.94,-4.94 4.43,4.43 0 0 1 0.9,0.09 4.31,4.31 0 0 1 8,2.18 h 0.08 a 4,4 0 0 1 0,7.95 h -14.6 a 2.32,2.32 0 0 1 -2.27,-2.33 z"
       style="fill:#60a3ab"
       id="path17085" />
    <path
       d="m 264.79,154.9 a 2.33,2.33 0 0 1 2.33,-2.33 2.41,2.41 0 0 1 0.67,0.09 5.52,5.52 0 0 1 -0.05,-0.71 4.94,4.94 0 0 1 4.94,-4.94 4.43,4.43 0 0 1 0.9,0.09 4.31,4.31 0 0 1 8,2.18 h 0.08 a 4,4 0 0 1 0,7.95 h -14.6 a 2.32,2.32 0 0 1 -2.27,-2.33 z"
       style="opacity:0.7;fill:#ffffff"
       id="path17087" />
    <path
       d="m 101.33,183.58 a 2.34,2.34 0 0 1 2.33,-2.33 2.41,2.41 0 0 1 0.67,0.1 5.52,5.52 0 0 1 0,-0.71 4.94,4.94 0 0 1 4.94,-4.94 4.6,4.6 0 0 1 0.91,0.09 4.28,4.28 0 0 1 3.68,-2.08 4.33,4.33 0 0 1 4.32,4.26 h 0.07 a 4,4 0 0 1 0,7.95 H 103.6 a 2.33,2.33 0 0 1 -2.27,-2.34 z"
       style="fill:#60a3ab"
       id="path17089" />
    <path
       d="m 101.33,183.58 a 2.34,2.34 0 0 1 2.33,-2.33 2.41,2.41 0 0 1 0.67,0.1 5.52,5.52 0 0 1 0,-0.71 4.94,4.94 0 0 1 4.94,-4.94 4.6,4.6 0 0 1 0.91,0.09 4.28,4.28 0 0 1 3.68,-2.08 4.33,4.33 0 0 1 4.32,4.26 h 0.07 a 4,4 0 0 1 0,7.95 H 103.6 a 2.33,2.33 0 0 1 -2.27,-2.34 z"
       style="opacity:0.7;fill:#ffffff"
       id="path17091" />
    <path
       d="m 149.12,327.62 a 2.33,2.33 0 0 1 2.33,-2.33 2.13,2.13 0 0 1 0.67,0.1 5.81,5.81 0 0 1 -0.05,-0.72 4.94,4.94 0 0 1 4.93,-4.94 4.46,4.46 0 0 1 0.91,0.09 4.32,4.32 0 0 1 8,2.18 H 166 a 4,4 0 1 1 0,7.95 h -14.61 a 2.32,2.32 0 0 1 -2.27,-2.33 z"
       style="fill:#60a3ab"
       id="path17093" />
    <path
       d="m 149.12,327.62 a 2.33,2.33 0 0 1 2.33,-2.33 2.13,2.13 0 0 1 0.67,0.1 5.81,5.81 0 0 1 -0.05,-0.72 4.94,4.94 0 0 1 4.93,-4.94 4.46,4.46 0 0 1 0.91,0.09 4.32,4.32 0 0 1 8,2.18 H 166 a 4,4 0 1 1 0,7.95 h -14.61 a 2.32,2.32 0 0 1 -2.27,-2.33 z"
       style="opacity:0.7;fill:#ffffff"
       id="path17095" />
    <path
       d="m 195.1,237.36 a 2.29,2.29 0 0 1 2.29,-2.29 2.07,2.07 0 0 1 0.66,0.1 5.65,5.65 0 0 1 -0.05,-0.71 4.86,4.86 0 0 1 4.86,-4.86 5.29,5.29 0 0 1 0.9,0.08 4.25,4.25 0 0 1 7.88,2.15 h 0.07 a 3.92,3.92 0 1 1 0,7.83 h -14.38 a 2.3,2.3 0 0 1 -2.23,-2.3 z"
       style="fill:#60a3ab"
       id="path17097" />
    <path
       d="m 195.1,237.36 a 2.29,2.29 0 0 1 2.29,-2.29 2.07,2.07 0 0 1 0.66,0.1 5.65,5.65 0 0 1 -0.05,-0.71 4.86,4.86 0 0 1 4.86,-4.86 5.29,5.29 0 0 1 0.9,0.08 4.25,4.25 0 0 1 7.88,2.15 h 0.07 a 3.92,3.92 0 1 1 0,7.83 h -14.38 a 2.3,2.3 0 0 1 -2.23,-2.3 z"
       style="opacity:0.7;fill:#ffffff"
       id="path17099" />
  </g>
  <g
     id="freepik--Stars--inject-41"
     transform="translate(-25.030157,-55)">
    <path
       d="m 117.61,257.3 c 0,0 -5.61,-4.64 -6.4,-4.5 -0.79,0.14 0.33,8 0.33,8 0,0 -5.58,3.8 -5.77,4.55 -0.19,0.75 6.94,1.73 6.94,1.73 0,0 1.25,7.34 1.87,7.56 0.62,0.22 5.08,-7.45 5.08,-7.45 0,0 7.56,0.78 8,0.3 0.44,-0.48 -5.75,-5.94 -5.75,-5.94 0,0 3.13,-6.46 2.68,-6.89 -0.45,-0.43 -6.98,2.64 -6.98,2.64 z"
       style="fill:#60a3ab"
       id="path17102" />
    <polygon
       points="111.59,253.64 117.4,257.64 123,255.7 116.35,261.63 "
       style="opacity:0.2;isolation:isolate;fill:#ffffff"
       id="polygon17104" />
    <path
       d="m 106.83,265.12 9.52,-3.5 -4.55,-0.5 c 0,0 -4.94,3.19 -4.97,4 z"
       style="opacity:0.2;isolation:isolate;fill:#ffffff"
       id="path17106" />
    <polygon
       points="127.08,267.01 121.22,261.88 116.35,261.63 "
       style="opacity:0.2;isolation:isolate;fill:#ffffff"
       id="polygon17108" />
    <polygon
       points="115.02,273.61 118.92,266.85 116.28,262.26 "
       style="opacity:0.2;isolation:isolate"
       id="polygon17110" />
    <path
       d="m 113.05,266.35 2.79,-4.07 -9,2.84 a 17.94,17.94 0 0 0 6.21,1.23 z"
       style="opacity:0.2;isolation:isolate"
       id="path17112" />
    <path
       d="m 175.1,342.38 c 0,0 -3,-3.53 -3.56,-3.53 -0.56,0 -0.65,5.08 -0.65,5.08 0,0 -3.94,1.8 -4.14,2.25 -0.2,0.45 4.25,1.82 4.25,1.82 0,0 0,4.77 0.37,5 0.37,0.23 4,-4.16 4,-4.16 0,0 4.69,1.31 5,1.05 0.31,-0.26 -3,-4.37 -3,-4.37 0,0 2.67,-3.74 2.43,-4.06 -0.24,-0.32 -4.7,0.92 -4.7,0.92 z"
       style="fill:#60a3ab"
       id="path17114" />
    <polygon
       points="171.69,339.42 174.93,342.57 178.67,341.95 173.83,344.98 "
       style="opacity:0.2;isolation:isolate;fill:#ffffff"
       id="polygon17116" />
    <path
       d="m 167.45,346.16 6.38,-1.18 -2.81,-0.81 c 0,0 -3.46,1.48 -3.57,1.99 z"
       style="opacity:0.2;isolation:isolate;fill:#ffffff"
       id="path17118" />
    <polygon
       points="180.03,349.54 176.89,345.66 173.83,344.98 "
       style="opacity:0.2;isolation:isolate;fill:#ffffff"
       id="polygon17120" />
    <polygon
       points="171.71,352.4 174.9,348.55 173.72,345.37 "
       style="opacity:0.2;isolation:isolate"
       id="polygon17122" />
    <path
       d="m 171.25,347.61 2.2,-2.28 -6,0.83 a 11.63,11.63 0 0 0 3.8,1.45 z"
       style="opacity:0.2;isolation:isolate"
       id="path17124" />
    <path
       d="m 243,300 a 15,15 0 0 0 -0.45,-3.18 c -0.26,-0.2 -2.3,2.34 -2.3,2.34 a 16,16 0 0 0 -3,-0.46 c -0.28,0.15 1.42,2.57 1.42,2.57 0,0 -1.84,2.43 -1.73,2.68 0.11,0.25 3.65,-0.57 3.65,-0.57 a 17.66,17.66 0 0 0 2.15,2.49 c 0.28,0 0.17,-3.39 0.17,-3.39 0,0 2.82,-0.87 2.82,-1.13 0,-0.26 -2.73,-1.35 -2.73,-1.35 z"
       style="fill:#60a3ab"
       id="path17126" />
    <polygon
       points="242.4,297.12 242.83,299.98 244.97,301.12 241.34,300.78 "
       style="opacity:0.2;isolation:isolate;fill:#ffffff"
       id="polygon17128" />
    <path
       d="m 237.62,298.91 3.72,1.87 -1.12,-1.5 c 0,0 -2.35,-0.59 -2.6,-0.37 z"
       style="opacity:0.2;isolation:isolate;fill:#ffffff"
       id="path17130" />
    <polygon
       points="242.73,305.51 242.63,302.31 241.34,300.78 "
       style="opacity:0.2;isolation:isolate;fill:#ffffff"
       id="polygon17132" />
    <polygon
       points="237.38,303.74 240.49,303.02 241.13,300.94 "
       style="opacity:0.2;isolation:isolate"
       id="polygon17134" />
    <path
       d="m 239,301.12 2,-0.31 -3.38,-1.9 a 7.3,7.3 0 0 0 1.38,2.21 z"
       style="opacity:0.2;isolation:isolate"
       id="path17136" />
    <path
       d="m 162.71,181.75 a 15,15 0 0 0 -0.44,-3.19 c -0.26,-0.2 -2.3,2.34 -2.3,2.34 a 16,16 0 0 0 -3,-0.45 c -0.27,0.15 1.43,2.57 1.43,2.57 a 15.19,15.19 0 0 0 -1.74,2.67 c 0.11,0.25 3.66,-0.56 3.66,-0.56 a 17.61,17.61 0 0 0 2.15,2.48 c 0.27,0 0.17,-3.39 0.17,-3.39 0,0 2.81,-0.87 2.82,-1.12 0.01,-0.25 -2.75,-1.35 -2.75,-1.35 z"
       style="fill:#60a3ab"
       id="path17138" />
    <polygon
       points="162.13,178.92 162.55,181.78 164.7,182.91 161.06,182.58 "
       style="opacity:0.2;isolation:isolate;fill:#ffffff"
       id="polygon17140" />
    <path
       d="m 157.35,180.71 3.71,1.87 -1.12,-1.5 c 0,0 -2.34,-0.59 -2.59,-0.37 z"
       style="opacity:0.2;isolation:isolate;fill:#ffffff"
       id="path17142" />
    <polygon
       points="162.46,187.31 162.35,184.11 161.06,182.58 "
       style="opacity:0.2;isolation:isolate;fill:#ffffff"
       id="polygon17144" />
    <polygon
       points="157.1,185.54 160.22,184.81 160.85,182.74 "
       style="opacity:0.2;isolation:isolate"
       id="polygon17146" />
    <path
       d="m 158.72,182.92 2,-0.31 -3.38,-1.9 a 7.4,7.4 0 0 0 1.38,2.21 z"
       style="opacity:0.2;isolation:isolate"
       id="path17148" />
    <path
       d="m 111.27,115.44 a 14.63,14.63 0 0 0 -3.16,-0.57 c -0.28,0.18 1.5,2.92 1.5,2.92 a 15.62,15.62 0 0 0 -1.37,2.69 c 0.06,0.31 2.88,-0.55 2.88,-0.55 a 15.27,15.27 0 0 0 2,2.49 c 0.27,0 0.61,-3.65 0.61,-3.65 a 17.24,17.24 0 0 0 3,-1.27 c 0.09,-0.26 -3.16,-1.22 -3.16,-1.22 0,0 0.05,-3 -0.19,-3 -0.24,0 -2.11,2.16 -2.11,2.16 z"
       style="fill:#60a3ab"
       id="path17150" />
    <polygon
       points="108.39,115.11 111.24,115.6 113,113.92 111.54,117.27 "
       style="opacity:0.2;isolation:isolate;fill:#ffffff"
       id="polygon17152" />
    <path
       d="m 108.6,120.21 2.94,-2.94 -1.78,0.59 c 0,0 -1.29,2.04 -1.16,2.35 z"
       style="opacity:0.2;isolation:isolate;fill:#ffffff"
       id="path17154" />
    <polygon
       points="116.47,117.43 113.4,116.52 111.54,117.27 "
       style="opacity:0.2;isolation:isolate;fill:#ffffff"
       id="polygon17156" />
    <polygon
       points="113.11,121.96 113.4,118.77 111.62,117.52 "
       style="opacity:0.2;isolation:isolate"
       id="polygon17158" />
    <path
       d="m 111.13,119.6 0.33,-2 -2.86,2.61 a 7.39,7.39 0 0 0 2.53,-0.61 z"
       style="opacity:0.2;isolation:isolate"
       id="path17160" />
    <path
       d="m 264.51,110.71 a 15.24,15.24 0 0 0 -3.16,-0.58 c -0.27,0.19 1.5,2.92 1.5,2.92 a 15.62,15.62 0 0 0 -1.37,2.69 c 0.06,0.31 2.89,-0.55 2.89,-0.55 0,0 1.72,2.52 2,2.49 C 266.65,117.65 267,114 267,114 a 18.47,18.47 0 0 0 3,-1.27 c 0.08,-0.26 -3.17,-1.23 -3.17,-1.23 0,0 0.05,-2.94 -0.19,-3 -0.24,-0.06 -2.13,2.21 -2.13,2.21 z"
       style="fill:#60a3ab"
       id="path17162" />
    <polygon
       points="261.64,110.38 264.49,110.87 266.24,109.19 264.78,112.53 "
       style="opacity:0.2;isolation:isolate;fill:#ffffff"
       id="polygon17164" />
    <path
       d="m 261.84,115.48 2.94,-2.94 -1.78,0.59 c 0,0 -1.29,2.04 -1.16,2.35 z"
       style="opacity:0.2;isolation:isolate;fill:#ffffff"
       id="path17166" />
    <polygon
       points="269.71,112.69 266.64,111.79 264.78,112.53 "
       style="opacity:0.2;isolation:isolate;fill:#ffffff"
       id="polygon17168" />
    <polygon
       points="266.35,117.22 266.64,114.04 264.87,112.78 "
       style="opacity:0.2;isolation:isolate"
       id="polygon17170" />
    <path
       d="m 264.37,114.86 0.34,-2 -2.87,2.62 a 7.26,7.26 0 0 0 2.53,-0.62 z"
       style="opacity:0.2;isolation:isolate"
       id="path17172" />
    <path
       d="m 256,165.1 c 0,0 -3,-3.53 -3.55,-3.53 -0.55,0 -0.66,5.08 -0.66,5.08 0,0 -3.93,1.8 -4.13,2.25 -0.2,0.45 4.2,1.84 4.2,1.84 0,0 0,4.77 0.36,5 0.36,0.23 4,-4.16 4,-4.16 0,0 4.69,1.31 5,1.05 0.31,-0.26 -3,-4.37 -3,-4.37 0,0 2.68,-3.74 2.44,-4.06 -0.24,-0.32 -4.66,0.9 -4.66,0.9 z"
       style="fill:#60a3ab"
       id="path17174" />
    <polygon
       points="252.64,162.14 255.87,165.29 259.62,164.67 254.78,167.7 "
       style="opacity:0.2;isolation:isolate;fill:#ffffff"
       id="polygon17176" />
    <path
       d="m 248.39,168.88 6.39,-1.18 -2.82,-0.81 c 0,0 -3.46,1.48 -3.57,1.99 z"
       style="opacity:0.2;isolation:isolate;fill:#ffffff"
       id="path17178" />
    <polygon
       points="260.98,172.26 257.83,168.38 254.78,167.7 "
       style="opacity:0.2;isolation:isolate;fill:#ffffff"
       id="polygon17180" />
    <polygon
       points="252.65,175.12 255.84,171.27 254.67,168.09 "
       style="opacity:0.2;isolation:isolate"
       id="polygon17182" />
    <path
       d="m 252.19,170.33 2.2,-2.28 -6,0.83 a 11.63,11.63 0 0 0 3.8,1.45 z"
       style="opacity:0.2;isolation:isolate"
       id="path17184" />
    <path
       d="m 82.74,164.53 c 0,0 -0.36,-4.65 -0.77,-5 -0.41,-0.35 -3.54,3.71 -3.54,3.71 0,0 -4.24,-0.87 -4.66,-0.63 -0.42,0.24 2.29,4 2.29,4 0,0 -2.82,3.84 -2.64,4.23 0.18,0.39 5.68,-1 5.68,-1 0,0 3,3.83 3.43,3.82 0.43,-0.01 0.18,-5.3 0.18,-5.3 0,0 4.37,-1.43 4.36,-1.83 -0.01,-0.4 -4.33,-2 -4.33,-2 z"
       style="fill:#60a3ab"
       id="path17186" />
    <polygon
       points="81.75,160.12 82.49,164.58 85.88,166.29 80.19,165.87 "
       style="opacity:0.2;isolation:isolate;fill:#ffffff"
       id="polygon17188" />
    <path
       d="m 74.34,163 5.85,2.83 -1.79,-2.32 c 0,0 -3.67,-0.81 -4.06,-0.51 z"
       style="opacity:0.2;isolation:isolate;fill:#ffffff"
       id="path17190" />
    <polygon
       points="82.49,173.21 82.24,168.22 80.19,165.87 "
       style="opacity:0.2;isolation:isolate;fill:#ffffff"
       id="polygon17192" />
    <polygon
       points="74.08,170.59 78.93,169.38 79.87,166.12 "
       style="opacity:0.2;isolation:isolate"
       id="polygon17194" />
    <path
       d="m 76.55,166.46 3.12,-0.53 -5.33,-2.93 a 11.43,11.43 0 0 0 2.21,3.46 z"
       style="opacity:0.2;isolation:isolate"
       id="path17196" />
    <path
       d="m 179.37,227.43 c 0,0 0.7,-4.61 0.36,-5 -0.34,-0.39 -4.28,2.81 -4.28,2.81 0,0 -3.93,-1.81 -4.4,-1.67 -0.47,0.14 1.34,4.39 1.34,4.39 0,0 -3.62,3.11 -3.53,3.52 0.09,0.41 5.76,0.33 5.76,0.33 0,0 2.06,4.41 2.48,4.5 0.42,0.09 1.36,-5.12 1.36,-5.12 0,0 4.58,-0.41 4.67,-0.8 0.09,-0.39 -3.76,-2.96 -3.76,-2.96 z"
       style="fill:#60a3ab"
       id="path17198" />
    <polygon
       points="179.4,222.92 179.12,227.42 182.02,229.86 176.58,228.16 "
       style="opacity:0.2;isolation:isolate;fill:#ffffff"
       id="polygon17200" />
    <path
       d="m 171.52,224.09 5.06,4.07 -1.22,-2.66 c 0,0 -3.36,-1.66 -3.84,-1.41 z"
       style="opacity:0.2;isolation:isolate;fill:#ffffff"
       id="path17202" />
    <polygon
       points="177.16,235.83 178.05,230.92 176.58,228.16 "
       style="opacity:0.2;isolation:isolate;fill:#ffffff"
       id="polygon17204" />
    <polygon
       points="169.56,231.38 174.56,231.29 176.21,228.33 "
       style="opacity:0.2;isolation:isolate"
       id="polygon17206" />
    <path
       d="m 172.9,227.91 3.15,0.19 -4.53,-4 a 11.45,11.45 0 0 0 1.38,3.81 z"
       style="opacity:0.2;isolation:isolate"
       id="path17208" />
  </g>
  <g
     id="freepik--Ship--inject-41"
     transform="translate(-25.030157,-55)">
    <path
       d="m 212.55,132.8 a 9.69,9.69 0 0 1 -2,-4.18 c -1.32,-6.13 3.51,-12.37 10.79,-13.93 7.28,-1.56 14.24,2.14 15.56,8.27 a 9.86,9.86 0 0 1 -0.15,4.65 z"
       style="fill:#60a3ab"
       id="path17211" />
    <path
       d="m 212.55,132.8 a 9.69,9.69 0 0 1 -2,-4.18 c -1.32,-6.13 3.51,-12.37 10.79,-13.93 7.28,-1.56 14.24,2.14 15.56,8.27 a 9.86,9.86 0 0 1 -0.15,4.65 z"
       style="opacity:0.4;isolation:isolate;fill:#ffffff"
       id="path17213" />
    <path
       d="m 194.4,134.88 a 1.62,1.62 0 0 0 0.49,0.84 c 2.73,2.69 15.69,2.41 30.75,-0.82 15.06,-3.23 27,-8.3 28.37,-11.87 a 1.57,1.57 0 0 0 0.1,-1 c -0.76,-3.55 -14.74,-3.56 -31.23,0 -16.49,3.56 -29.24,9.3 -28.48,12.85 z"
       style="fill:#60a3ab"
       id="path17215" />
    <path
       d="m 194.89,135.72 c 2.73,2.69 15.69,2.41 30.75,-0.82 15.06,-3.23 27,-8.3 28.37,-11.87 -2.71,-2.69 -15.68,-2.42 -30.74,0.82 -15.06,3.24 -27,8.31 -28.38,11.87 z"
       style="opacity:0.2;isolation:isolate"
       id="path17217" />
    <path
       d="m 214.78,133.73 a 0.62,0.62 0 0 0 0.17,0.29 c 0.92,0.92 5.33,0.82 10.44,-0.28 5.11,-1.1 9.17,-2.82 9.64,-4 a 0.63,0.63 0 0 0 0,-0.33 c -0.09,-0.4 -0.66,-0.67 -1.6,-0.8 a 36.84,36.84 0 0 0 -17.55,3.77 c -0.77,0.47 -1.18,0.96 -1.1,1.35 z"
       style="fill:#60a3ab"
       id="path17219" />
    <path
       d="m 215.91,132.35 a 36.52,36.52 0 0 0 17.55,-3.77 36.84,36.84 0 0 0 -17.55,3.77 z"
       style="opacity:0.4;isolation:isolate;fill:#ffffff"
       id="path17221" />
    <path
       d="m 221.06,127 c 0.12,0.6 1.21,0.87 2.42,0.61 1.21,-0.26 2.08,-1 2,-1.55 -0.08,-0.55 -1.21,-0.86 -2.42,-0.6 -1.21,0.26 -2.13,0.9 -2,1.54 z"
       style="fill:#60a3ab"
       id="path17223" />
    <path
       d="m 209.52,130.55 c 0.13,0.6 1.21,0.87 2.42,0.61 1.21,-0.26 2.08,-0.95 2,-1.55 -0.08,-0.6 -1.21,-0.86 -2.42,-0.6 -1.21,0.26 -2.13,0.99 -2,1.54 z"
       style="fill:#60a3ab"
       id="path17225" />
    <path
       d="m 202.14,135.31 c 0.13,0.59 1.21,0.86 2.42,0.6 1.21,-0.26 2.09,-0.95 2,-1.54 -0.09,-0.59 -1.21,-0.86 -2.42,-0.61 -1.21,0.25 -2.14,0.96 -2,1.55 z"
       style="fill:#60a3ab"
       id="path17227" />
    <path
       d="m 237.09,124.17 c 0.13,0.59 -0.75,1.28 -2,1.54 -1.25,0.26 -2.3,0 -2.42,-0.6 -0.12,-0.6 0.75,-1.28 1.95,-1.54 1.2,-0.26 2.38,0.01 2.47,0.6 z"
       style="fill:#60a3ab"
       id="path17229" />
    <path
       d="m 245.77,125.48 c 0.13,0.59 -0.75,1.28 -2,1.54 -1.25,0.26 -2.29,0 -2.42,-0.6 -0.13,-0.6 0.75,-1.29 2,-1.55 1.25,-0.26 2.29,0.01 2.42,0.61 z"
       style="fill:#60a3ab"
       id="path17231" />
    <path
       d="m 217.45,117.76 a 0.31,0.31 0 0 0 0.12,-0.05 13.21,13.21 0 0 1 2.75,-1.34 0.35,0.35 0 0 0 0.22,-0.44 0.34,0.34 0 0 0 -0.44,-0.21 13.49,13.49 0 0 0 -2.91,1.41 0.34,0.34 0 0 0 -0.1,0.48 0.35,0.35 0 0 0 0.36,0.15 z"
       style="fill:#ffffff"
       id="path17233" />
    <path
       d="m 232.78,118.81 a 0.34,0.34 0 0 0 0.18,-0.11 0.35,0.35 0 0 0 0,-0.49 12.66,12.66 0 0 0 -10.62,-3 0.36,0.36 0 0 0 -0.29,0.4 0.35,0.35 0 0 0 0.4,0.28 12,12 0 0 1 10,2.88 0.37,0.37 0 0 0 0.33,0.04 z"
       style="fill:#ffffff"
       id="path17235" />
  </g>
  <g
     id="freepik--Planet--inject-41"
     transform="translate(-25.030157,-55)">
    <path
       d="m 188.7,272.68 a 15.52,15.52 0 0 1 -0.54,3.7 14.51,14.51 0 0 1 -1,2.63 15.44,15.44 0 0 1 -26.56,2.17 15.17,15.17 0 0 1 -1.14,-1.9 c -0.22,-0.44 -0.42,-0.88 -0.6,-1.34 a 14.72,14.72 0 0 1 -0.64,-2.11 11.91,11.91 0 0 1 -0.25,-1.35 13.77,13.77 0 0 1 -0.15,-2.5 c 0,-0.17 0,-0.35 0,-0.53 a 15.43,15.43 0 0 1 23,-12.58 15.74,15.74 0 0 1 2.89,2.11 15.24,15.24 0 0 1 3.32,4.36 16,16 0 0 1 0.77,1.8 11.47,11.47 0 0 1 0.43,1.41 8.13,8.13 0 0 1 0.21,1 15.58,15.58 0 0 1 0.26,3.13 z"
       style="fill:#60a3ab"
       id="path17238" />
    <path
       d="m 187.8,267.14 a 8.17,8.17 0 0 0 -1.39,-0.26 c -2.5,-0.2 -5.85,-0.13 -8.57,2.88 -2.72,3.01 -3.76,-0.23 -10.62,0.92 a 28.23,28.23 0 0 0 -9.23,3.8 13.77,13.77 0 0 1 -0.15,-2.5 c 0,-0.17 0,-0.35 0,-0.53 3.87,-2.82 -0.14,-5.11 6.27,-5.77 7.83,-0.8 7,0.44 11,-4.35 a 7.47,7.47 0 0 1 5.72,-2.46 15.74,15.74 0 0 1 2.89,2.11 15.24,15.24 0 0 1 3.32,4.36 16,16 0 0 1 0.76,1.8 z"
       style="opacity:0.2;isolation:isolate;fill:#ffffff"
       id="path17240" />
    <path
       d="m 188.7,272.68 a 15.52,15.52 0 0 1 -0.54,3.7 14.51,14.51 0 0 1 -1,2.63 c -1.76,-0.05 -3.36,-0.87 -5.62,-1.09 -3.76,-0.36 -4.33,0.19 -5.76,1.69 -1.43,1.5 -5,0.16 -7.81,0.39 -1.81,0.14 -5.19,0.76 -7.37,1.18 a 15.17,15.17 0 0 1 -1.14,-1.9 c 2.91,-0.55 7.44,-1.45 8.28,-1.8 1.27,-0.54 5.91,-2.24 8.83,-1.9 2.92,0.34 3,-2.71 4.86,-5.46 1.5,-2.19 3.21,-2.12 6.78,-1.57 a 8.13,8.13 0 0 1 0.21,1 15.58,15.58 0 0 1 0.28,3.13 z"
       style="opacity:0.2;isolation:isolate;fill:#ffffff"
       id="path17242" />
    <path
       d="m 187,265.34 a 52.09,52.09 0 0 1 -5.8,-0.52 c -3.47,-0.57 -3.54,2.21 -4,3.22 -0.46,1.01 -1.82,0.33 -3.06,0 -1.24,-0.33 -3.71,0.18 -5.81,0.5 -2.1,0.32 -5.55,2 -5.18,1.11 0.37,-0.89 2.55,-1.4 4.3,-1.76 a 30.26,30.26 0 0 1 4.62,-0.82 c 1.88,-0.17 4,-0.47 5.39,-1.42 1.39,-0.95 3,-4.46 6.27,-4.65 a 15.24,15.24 0 0 1 3.27,4.34 z"
       style="opacity:0.2;isolation:isolate;fill:#ffffff"
       id="path17244" />
    <path
       d="m 188.7,272.68 a 15.52,15.52 0 0 1 -0.54,3.7 2.35,2.35 0 0 0 -0.64,-0.13 c -1.05,0 -3.07,0.28 -4.11,-0.23 -1.04,-0.51 -2,0 -4.61,0.66 -2.61,0.66 -2.39,0.93 -4.57,1.91 -2.18,0.98 -4.28,0.68 -4.4,-0.1 -0.12,-0.78 3.18,-1.73 4.36,-1.57 1.18,0.16 3.36,-0.62 3.85,-0.61 a 8.84,8.84 0 0 0 2,-0.79 c 0.35,-0.13 2.24,-0.43 2.4,-1.34 0.16,-0.91 0.15,-3.13 3.66,-4.52 a 4.28,4.28 0 0 1 2.3,-0.13 15.58,15.58 0 0 1 0.3,3.15 z"
       style="opacity:0.2;isolation:isolate;fill:#ffffff"
       id="path17246" />
    <path
       d="m 172.57,273.33 c 0,0.49 -8.29,4 -10.17,4 a 15.75,15.75 0 0 0 -3.52,0.65 14.72,14.72 0 0 1 -0.64,-2.11 39.06,39.06 0 0 1 5.15,-2.28 c 2.67,-0.85 4.13,-1 5.52,-0.79 1.39,0.21 3.7,0.05 3.66,0.53 z"
       style="opacity:0.2;isolation:isolate;fill:#ffffff"
       id="path17248" />
    <path
       d="m 157,277.49 c 0,0 -10.08,3.07 -10.71,2 -1.88,-3.24 20.81,-13.57 43.47,-16.83 22.66,-3.26 2,5.5 2,5.5 0,0 5,-3.57 2.92,-3.61 -3.85,-0.09 -27.92,5.54 -40.47,11.92 -1.62,0.78 2.79,1.02 2.79,1.02 z"
       style="fill:#60a3ab"
       id="path17250" />
    <path
       d="m 157,277.49 c 0,0 -10.08,3.07 -10.71,2 -1.88,-3.24 20.81,-13.57 43.47,-16.83 22.66,-3.26 2,5.5 2,5.5 0,0 5,-3.57 2.92,-3.61 -3.85,-0.09 -27.92,5.54 -40.47,11.92 -1.62,0.78 2.79,1.02 2.79,1.02 z"
       style="opacity:0.5;isolation:isolate;fill:#ffffff"
       id="path17252" />
  </g>
  <g
     id="freepik--Airplane--inject-41"
     transform="translate(-25.030157,-55)">
    <path
       d="m 124.49,219.8 0.23,0.14 0.39,0.24 8.73,-0.8 v 0 l -3.08,-2.46 -6.2,2.19 a 0.38,0.38 0 0 0 -0.07,0.69 z"
       style="fill:#60a3ab"
       id="path17255" />
    <path
       d="m 124.72,219.94 0.39,0.24 8.73,-0.8 -2.69,-2.15 -6.2,2.19 a 0.38,0.38 0 0 0 -0.23,0.52 z"
       style="opacity:0.2"
       id="path17257" />
    <path
       d="m 132.07,215.76 5.14,3.35 v -0.12 l 2.84,-7.05 -1.36,-0.67 h -0.05 a 1.76,1.76 0 0 0 -1.88,0.29 z"
       style="fill:#60a3ab"
       id="path17259" />
    <path
       d="m 132.48,215.89 4.78,3.1 2.84,-7.05 -1.36,-0.67 h -0.05 a 1.74,1.74 0 0 0 -1.47,0.42 z"
       style="opacity:0.2"
       id="path17261" />
    <path
       d="m 73.21,205.62 v 0 l 2.12,1.7 h 29.78 l -3.76,-3.77 -3.06,-3.06 L 73.7,204 a 0.93,0.93 0 0 0 -0.49,1.62 z"
       style="fill:#60a3ab"
       id="path17263" />
    <path
       d="m 75.58,206.31 1,1.05 h 28.52 l -3.76,-3.77 -25.54,2 a 0.42,0.42 0 0 0 -0.22,0.72 z"
       style="opacity:0.7;fill:#ffffff"
       id="path17265" />
    <path
       d="m 73.21,205.62 v 0 l 2.12,1.7 h 29.48 L 98.6,201.09 74,204.61 a 0.93,0.93 0 0 0 -0.79,1.01 z"
       style="opacity:0.2"
       id="path17267" />
    <path
       d="m 87.94,204.4 a 1.73,1.73 0 0 1 -0.37,-1.15 2.12,2.12 0 0 1 1.56,-2.1 1.19,1.19 0 0 1 1,0.26 c 1.61,1 7.06,4.91 7.93,6.93 0.54,1.27 -1.38,0.59 -2.7,0.32 -1.32,-0.27 -5.06,-2.48 -7.1,-4 l -0.13,-0.1 v 0 a 0.69,0.69 0 0 1 -0.19,-0.16 z"
       style="fill:#60a3ab"
       id="path17269" />
    <path
       d="m 87.57,203.25 a 1.78,1.78 0 0 0 0.36,1.15 1,1 0 0 0 0.18,0.17 l 0.13,0.1 c 0.28,0.21 0.59,0.42 0.92,0.65 2.09,1.43 5,3.12 6.17,3.34 1.33,0.27 3.25,1 2.71,-0.32 -0.71,-1.64 -4.45,-4.52 -6.69,-6.09 -0.51,-0.36 -0.94,-0.65 -1.24,-0.84 a 1.2,1.2 0 0 0 -1,-0.26 2.12,2.12 0 0 0 -1.54,2.1 z"
       style="opacity:0.7;fill:#ffffff"
       id="path17271" />
    <path
       d="m 87.57,203.25 a 1.78,1.78 0 0 0 0.36,1.15 1,1 0 0 0 0.18,0.17 l 0.13,0.1 c 0.28,0.21 0.59,0.42 0.92,0.65 a 2.24,2.24 0 0 0 1.14,-0.32 2.46,2.46 0 0 0 1,-2.79 c -0.51,-0.36 -0.94,-0.65 -1.24,-0.84 a 1.2,1.2 0 0 0 -1,-0.26 2.12,2.12 0 0 0 -1.49,2.14 z"
       style="fill:#60a3ab"
       id="path17273" />
    <path
       d="m 87.68,202.93 c 0,0.76 0.5,1.29 1.14,1.19 A 1.59,1.59 0 0 0 90,202.55 c 0,-0.76 -0.5,-1.29 -1.14,-1.19 a 1.59,1.59 0 0 0 -1.18,1.57 z"
       style="opacity:0.2"
       id="path17275" />
    <path
       d="m 89.17,202.34 c -0.12,-0.16 -0.84,-0.19 -0.86,0 0,0.56 0.31,1 0.58,0.9 a 0.58,0.58 0 0 0 0.28,-0.9 z"
       style="fill:#60a3ab"
       id="path17277" />
    <path
       d="m 97.61,209.09 c 0.84,0.16 -7.58,-5.55 -7.58,-5.55 a 1.42,1.42 0 0 1 -1.72,0.77 22.19,22.19 0 0 0 9.3,4.78 z"
       style="opacity:0.2"
       id="path17279" />
    <path
       d="m 80.05,205.15 a 1.3,1.3 0 0 1 -0.28,-0.85 1.57,1.57 0 0 1 1.16,-1.55 0.89,0.89 0 0 1 0.72,0.19 c 1.19,0.77 5.21,3.63 5.85,5.12 0.4,0.94 -1,0.43 -2,0.24 a 22.26,22.26 0 0 1 -5.24,-3 l -0.1,-0.07 v 0 a 0.49,0.49 0 0 1 -0.11,-0.08 z"
       style="fill:#60a3ab"
       id="path17281" />
    <path
       d="m 79.78,204.3 a 1.24,1.24 0 0 0 0.27,0.85 0.49,0.49 0 0 0 0.12,0.13 l 0.1,0.07 0.68,0.48 a 20.2,20.2 0 0 0 4.56,2.47 c 1,0.2 2.39,0.7 2,-0.24 -0.52,-1.21 -3.28,-3.33 -4.93,-4.49 -0.38,-0.27 -0.7,-0.49 -0.92,-0.63 a 0.9,0.9 0 0 0 -0.72,-0.19 1.55,1.55 0 0 0 -1.16,1.55 z"
       style="opacity:0.7;fill:#ffffff"
       id="path17283" />
    <path
       d="m 79.78,204.3 a 1.24,1.24 0 0 0 0.27,0.85 0.49,0.49 0 0 0 0.12,0.13 l 0.1,0.07 0.68,0.48 a 1.57,1.57 0 0 0 0.84,-0.21 1.81,1.81 0 0 0 0.78,-2.05 c -0.38,-0.27 -0.7,-0.49 -0.92,-0.63 a 0.9,0.9 0 0 0 -0.72,-0.19 1.55,1.55 0 0 0 -1.15,1.55 z"
       style="fill:#60a3ab"
       id="path17285" />
    <path
       d="m 79.86,204.06 c 0,0.57 0.37,1 0.84,0.88 a 1.15,1.15 0 0 0 0.86,-1.15 c 0,-0.57 -0.37,-1 -0.84,-0.88 a 1.15,1.15 0 0 0 -0.86,1.15 z"
       style="opacity:0.2"
       id="path17287" />
    <path
       d="m 81,203.63 c -0.09,-0.11 -0.63,-0.14 -0.64,0 0,0.41 0.23,0.7 0.43,0.67 A 0.44,0.44 0 0 0 81,203.63 Z"
       style="fill:#60a3ab"
       id="path17289" />
    <path
       d="m 87,208.51 c 0.61,0.12 -5.44,-4 -5.44,-4 a 1,1 0 0 1 -1.24,0.55 16,16 0 0 0 6.68,3.45 z"
       style="opacity:0.2"
       id="path17291" />
    <path
       d="m 82.28,191.45 a 3.89,3.89 0 0 0 0.58,1.19 7.94,7.94 0 0 0 2.26,2.11 l 0.52,0.33 v 0 c 0.94,0.61 1.84,1.18 2.39,1.52 l 23.79,15.1 a 46.06,46.06 0 0 0 13.29,5.75 l 1.54,0.4 8.11,2.08 a 2.11,2.11 0 0 0 1.74,-0.32 v 0 l 1.19,-0.84 -6.41,-4.53 q -1.86,-1.32 -3.8,-2.49 l -31.9,-19.3 c -4.76,-2.67 -6.08,-2.57 -8.79,-2.11 a 12.3,12.3 0 0 0 -3.61,-0.18 1,1 0 0 0 -0.83,0.57 1,1 0 0 0 -0.07,0.72 z"
       style="fill:#60a3ab"
       id="path17293" />
    <path
       d="m 82.28,191.45 a 3.89,3.89 0 0 0 0.58,1.19 7.94,7.94 0 0 0 2.26,2.11 l 0.52,0.33 v 0 0 0 c 0.91,0.6 1.79,1.15 2.33,1.48 l 7.12,4.52 16.67,10.58 0.41,0.25 a 46.16,46.16 0 0 0 12.88,5.5 l 1.54,0.4 8.11,2.08 a 2.08,2.08 0 0 0 1.74,-0.32 l 1.19,-0.84 -6.41,-4.53 q -1.86,-1.32 -3.8,-2.49 l -3.75,-2.27 -17,-10.28 -11.15,-6.75 c -4.76,-2.67 -6.08,-2.57 -8.79,-2.11 l -0.31,-0.06 a 12.37,12.37 0 0 0 -3.3,-0.12 1,1 0 0 0 -0.83,0.57 1,1 0 0 0 -0.01,0.76 z"
       style="opacity:0.7;fill:#ffffff"
       id="path17295" />
    <path
       d="m 128.72,214.17 a 0.44,0.44 0 0 1 -0.24,-0.07 l -0.25,-0.16 a 0.44,0.44 0 0 1 -0.15,-0.62 0.45,0.45 0 0 1 0.62,-0.15 l 0.26,0.16 a 0.45,0.45 0 0 1 0.15,0.62 0.47,0.47 0 0 1 -0.39,0.22 z"
       style="fill:#263238"
       id="path17297" />
    <path
       d="m 127.19,213.24 a 0.44,0.44 0 0 1 -0.24,-0.07 l -0.51,-0.3 a 0.46,0.46 0 0 1 -0.15,-0.63 0.45,0.45 0 0 1 0.62,-0.15 l 0.51,0.31 a 0.45,0.45 0 0 1 0.16,0.62 0.47,0.47 0 0 1 -0.39,0.22 z m -1.79,-1.08 a 0.39,0.39 0 0 1 -0.23,-0.07 l -0.51,-0.31 a 0.45,0.45 0 0 1 -0.16,-0.62 0.46,0.46 0 0 1 0.63,-0.15 l 0.51,0.31 a 0.45,0.45 0 0 1 0.15,0.62 0.46,0.46 0 0 1 -0.39,0.22 z m -1.79,-1.08 a 0.48,0.48 0 0 1 -0.23,-0.07 l -0.51,-0.31 a 0.45,0.45 0 0 1 -0.15,-0.62 0.45,0.45 0 0 1 0.62,-0.16 l 0.51,0.31 a 0.46,0.46 0 0 1 0.15,0.63 0.44,0.44 0 0 1 -0.39,0.22 z M 121.83,210 a 0.53,0.53 0 0 1 -0.24,-0.06 l -0.51,-0.31 a 0.45,0.45 0 0 1 -0.15,-0.62 0.45,0.45 0 0 1 0.62,-0.16 l 0.51,0.31 A 0.45,0.45 0 0 1 121.83,210 Z M 120,208.91 a 0.46,0.46 0 0 1 -0.23,-0.06 l -0.52,-0.31 a 0.46,0.46 0 0 1 -0.15,-0.63 0.45,0.45 0 0 1 0.62,-0.15 l 0.51,0.31 a 0.45,0.45 0 0 1 0.16,0.62 0.47,0.47 0 0 1 -0.39,0.22 z m -1.79,-1.08 a 0.39,0.39 0 0 1 -0.23,-0.07 l -0.51,-0.31 a 0.46,0.46 0 0 1 -0.16,-0.62 0.47,0.47 0 0 1 0.63,-0.15 l 0.51,0.31 a 0.45,0.45 0 0 1 0.15,0.62 0.44,0.44 0 0 1 -0.35,0.22 z m -1.78,-1.08 a 0.42,0.42 0 0 1 -0.24,-0.07 l -0.51,-0.31 a 0.45105432,0.45105432 0 1 1 0.47,-0.77 l 0.51,0.31 a 0.45,0.45 0 0 1 -0.23,0.84 z m -1.79,-1.08 a 0.39,0.39 0 0 1 -0.23,-0.07 l -0.51,-0.31 a 0.45,0.45 0 0 1 -0.16,-0.62 0.46,0.46 0 0 1 0.63,-0.15 l 0.51,0.31 a 0.45,0.45 0 0 1 0.15,0.62 0.47,0.47 0 0 1 -0.35,0.22 z m -1.79,-1.09 a 0.46,0.46 0 0 1 -0.23,-0.06 l -0.51,-0.31 a 0.45,0.45 0 0 1 -0.16,-0.62 0.46,0.46 0 0 1 0.63,-0.16 l 0.51,0.31 a 0.46,0.46 0 0 1 0.15,0.63 0.44,0.44 0 0 1 -0.35,0.21 z m -1.78,-1.08 a 0.5,0.5 0 0 1 -0.24,-0.06 l -0.51,-0.31 a 0.46,0.46 0 0 1 -0.15,-0.63 0.45,0.45 0 0 1 0.62,-0.15 l 0.51,0.31 a 0.45,0.45 0 0 1 0.15,0.62 0.44,0.44 0 0 1 -0.34,0.22 z m -1.79,-1.08 a 0.44,0.44 0 0 1 -0.24,-0.07 l -0.51,-0.31 a 0.45105432,0.45105432 0 0 1 0.47,-0.77 l 0.51,0.31 a 0.45,0.45 0 0 1 0.16,0.62 0.47,0.47 0 0 1 -0.35,0.22 z m -1.79,-1.08 a 0.39,0.39 0 0 1 -0.23,-0.07 l -0.51,-0.31 a 0.45,0.45 0 0 1 -0.16,-0.62 0.46,0.46 0 0 1 0.63,-0.15 l 0.51,0.31 a 0.45,0.45 0 0 1 0.15,0.62 0.47,0.47 0 0 1 -0.35,0.22 z m -1.79,-1.09 a 0.46,0.46 0 0 1 -0.23,-0.06 l -0.51,-0.31 a 0.46,0.46 0 0 1 0.47,-0.78 l 0.51,0.31 a 0.46,0.46 0 0 1 0.15,0.63 0.44,0.44 0 0 1 -0.35,0.21 z m -1.7,-1.08 a 0.53,0.53 0 0 1 -0.24,-0.06 l -0.51,-0.31 a 0.46,0.46 0 0 1 -0.15,-0.63 0.45,0.45 0 0 1 0.62,-0.15 l 0.51,0.31 a 0.45,0.45 0 0 1 0.16,0.62 0.47,0.47 0 0 1 -0.39,0.22 z m -1.79,-1.08 a 0.44,0.44 0 0 1 -0.24,-0.07 l -0.51,-0.3 a 0.46,0.46 0 0 1 -0.15,-0.63 0.45,0.45 0 0 1 0.62,-0.15 l 0.52,0.31 a 0.45,0.45 0 0 1 0.15,0.62 0.47,0.47 0 0 1 -0.43,0.22 z m -2,-1.15 0.23,-0.39 -0.31,0.35 -0.43,-0.27 a 0.45,0.45 0 0 1 -0.16,-0.62 0.46,0.46 0 0 1 0.63,-0.15 l 0.43,0.26 -0.16,0.43 z m -1.56,-1 a 0.48,0.48 0 0 1 -0.23,-0.07 l -0.51,-0.31 a 0.45105432,0.45105432 0 0 1 0.47,-0.77 l 0.51,0.3 a 0.46,0.46 0 0 1 0.15,0.63 0.44,0.44 0 0 1 -0.45,0.21 z m -1.78,-1.09 a 0.53,0.53 0 0 1 -0.24,-0.06 l -0.51,-0.31 a 0.45,0.45 0 0 1 -0.15,-0.62 0.45,0.45 0 0 1 0.62,-0.16 L 97,194 a 0.45,0.45 0 0 1 0.16,0.62 0.47,0.47 0 0 1 -0.35,0.22 z"
       style="fill:#263238"
       id="path17299" />
    <path
       d="m 95,193.77 a 0.46,0.46 0 0 1 -0.23,-0.06 l -0.26,-0.16 a 0.45105432,0.45105432 0 0 1 0.47,-0.77 l 0.26,0.15 A 0.45,0.45 0 0 1 95,193.77 Z"
       style="fill:#263238"
       id="path17301" />
    <path
       d="m 92.47,192.29 v -1 a 7.25,7.25 0 0 0 -4.54,-1.07 l -1.15,0.17 A 9.19,9.19 0 0 1 92,192 Z"
       style="fill:#263238"
       id="path17303" />
    <path
       d="m 82.28,191.45 a 3.89,3.89 0 0 0 0.58,1.19 c 0.66,0.49 1.5,1.06 2.47,1.67 3,1.91 24.79,15.58 27.67,17.63 2.09,1.49 6.57,3.75 13.65,5.91 2.41,0.73 5.12,1.45 8.15,2.12 a 2.09,2.09 0 0 0 1.66,-0.33 v 0 c 0,0 -9.55,-3.21 -11.71,-4.41 -2.16,-1.2 -33.09,-20.31 -36.23,-22 a 21.4,21.4 0 0 0 -6.21,-2.43 1,1 0 0 0 -0.03,0.65 z"
       style="opacity:0.2"
       id="path17305" />
    <path
       d="m 104.09,201.3 0.14,0.09 1.62,1 7,4.52 a 2.61,2.61 0 0 0 1.41,0.41 h 33.3 l -1.2,-1.32 a 6.27,6.27 0 0 0 -4.05,-2 l -38,-3.46 a 0.42,0.42 0 0 0 -0.22,0.76 z"
       style="fill:#60a3ab"
       id="path17307" />
    <path
       d="m 105.85,202.43 7,4.52 a 2.61,2.61 0 0 0 1.41,0.41 h 32.32 a 6.26,6.26 0 0 0 -3.57,-1.53 z"
       style="opacity:0.7;fill:#ffffff"
       id="path17309" />
    <path
       d="m 104.23,201.39 8.66,5.56 a 2.61,2.61 0 0 0 1.41,0.41 h 33.05 l -0.68,-0.75 a 6.28,6.28 0 0 0 -4.06,-2 l -38,-3.47 a 0.39,0.39 0 0 0 -0.38,0.25 z"
       style="opacity:0.2"
       id="path17311" />
    <path
       d="m 115.16,204.4 a 1.85,1.85 0 0 1 -0.37,-1.16 2.12,2.12 0 0 1 1.57,-2.09 1.21,1.21 0 0 1 1,0.25 c 1.62,1 7.07,4.92 7.93,6.94 0.55,1.27 -1.37,0.59 -2.7,0.32 -1.33,-0.27 -5.06,-2.48 -7.1,-4 l -0.13,-0.1 v 0 a 0.91,0.91 0 0 1 -0.2,-0.16 z"
       style="fill:#60a3ab"
       id="path17313" />
    <path
       d="m 114.79,203.24 a 1.85,1.85 0 0 0 0.37,1.16 0.91,0.91 0 0 0 0.17,0.17 l 0.13,0.1 0.92,0.65 c 2.1,1.43 5.05,3.12 6.18,3.34 1.33,0.27 3.25,1 2.7,-0.32 -0.7,-1.64 -4.45,-4.52 -6.69,-6.09 -0.51,-0.36 -0.94,-0.65 -1.24,-0.85 a 1.21,1.21 0 0 0 -1,-0.25 2.13,2.13 0 0 0 -1.54,2.09 z"
       style="opacity:0.7;fill:#ffffff"
       id="path17315" />
    <path
       d="m 114.79,203.24 a 1.85,1.85 0 0 0 0.37,1.16 0.91,0.91 0 0 0 0.17,0.17 l 0.13,0.1 0.92,0.65 a 2.28,2.28 0 0 0 1.15,-0.28 2.44,2.44 0 0 0 1,-2.79 c -0.51,-0.36 -0.94,-0.65 -1.24,-0.85 a 1.21,1.21 0 0 0 -1,-0.25 2.13,2.13 0 0 0 -1.5,2.09 z"
       style="fill:#60a3ab"
       id="path17317" />
    <path
       d="m 114.9,202.93 c 0,0.76 0.5,1.29 1.14,1.19 a 1.58,1.58 0 0 0 1.17,-1.57 c 0,-0.76 -0.5,-1.3 -1.13,-1.19 a 1.58,1.58 0 0 0 -1.18,1.57 z"
       style="opacity:0.2"
       id="path17319" />
    <path
       d="m 116.39,202.34 c -0.11,-0.16 -0.84,-0.19 -0.85,0 0,0.57 0.3,1 0.58,0.91 a 0.58,0.58 0 0 0 0.27,-0.91 z"
       style="fill:#60a3ab"
       id="path17321" />
    <path
       d="m 124.84,209.09 c 0.84,0.16 -7.58,-5.56 -7.58,-5.56 a 1.43,1.43 0 0 1 -1.73,0.78 22.27,22.27 0 0 0 9.31,4.78 z"
       style="opacity:0.2"
       id="path17323" />
    <path
       d="m 128.45,205.15 a 1.3,1.3 0 0 1 -0.28,-0.85 1.57,1.57 0 0 1 1.16,-1.55 0.91,0.91 0 0 1 0.72,0.19 c 1.19,0.77 5.21,3.63 5.85,5.12 0.4,0.94 -1,0.43 -2,0.24 a 22.26,22.26 0 0 1 -5.24,-3 l -0.1,-0.07 v 0 a 0.49,0.49 0 0 1 -0.11,-0.08 z"
       style="fill:#60a3ab"
       id="path17325" />
    <path
       d="m 128.17,204.3 a 1.35,1.35 0 0 0 0.27,0.85 l 0.13,0.13 0.1,0.07 0.68,0.48 a 20.17,20.17 0 0 0 4.55,2.47 c 1,0.2 2.4,0.7 2,-0.24 -0.52,-1.21 -3.28,-3.33 -4.93,-4.49 -0.38,-0.27 -0.7,-0.49 -0.92,-0.63 a 0.91,0.91 0 0 0 -0.72,-0.19 1.57,1.57 0 0 0 -1.16,1.55 z"
       style="opacity:0.7;fill:#ffffff"
       id="path17327" />
    <path
       d="m 128.17,204.3 a 1.35,1.35 0 0 0 0.27,0.85 l 0.13,0.13 0.1,0.07 0.68,0.48 a 1.57,1.57 0 0 0 0.84,-0.21 1.81,1.81 0 0 0 0.78,-2.05 c -0.38,-0.27 -0.7,-0.49 -0.92,-0.63 a 0.91,0.91 0 0 0 -0.72,-0.19 1.57,1.57 0 0 0 -1.16,1.55 z"
       style="fill:#60a3ab"
       id="path17329" />
    <path
       d="m 128.26,204.06 c 0,0.57 0.37,1 0.84,0.88 a 1.16,1.16 0 0 0 0.86,-1.15 c 0,-0.57 -0.37,-1 -0.84,-0.88 a 1.15,1.15 0 0 0 -0.86,1.15 z"
       style="opacity:0.2"
       id="path17331" />
    <path
       d="m 129.36,203.63 c -0.09,-0.11 -0.63,-0.14 -0.64,0 0,0.41 0.23,0.7 0.43,0.67 0.03,0 0.51,-0.3 0.21,-0.67 z"
       style="fill:#60a3ab"
       id="path17333" />
    <path
       d="m 135.39,208.51 c 0.61,0.12 -5.44,-4 -5.44,-4 a 1,1 0 0 1 -1.24,0.55 16,16 0 0 0 6.68,3.45 z"
       style="opacity:0.2"
       id="path17335" />
    <path
       d="m 146.84,220.22 -10.84,-0.79 -5.21,-2.51 13.75,1.67 a 2.17,2.17 0 0 1 1.27,0.61 z"
       style="fill:#60a3ab"
       id="path17337" />
    <path
       d="m 132.21,217.61 v 0 l 3.71,1.79 10.39,0.75 h 0.48 l -1.06,-1 a 2.17,2.17 0 0 0 -1.27,-0.61 l -12.09,-1.47 a 0.28160256,0.28160256 0 0 0 -0.16,0.54 z"
       style="fill:#60a3ab"
       id="path17339" />
    <path
       d="m 132.21,217.61 v 0 l 3.71,1.79 10.39,0.75 -0.58,-0.55 a 2.17,2.17 0 0 0 -1.27,-0.61 l -12.09,-1.47 a 0.24,0.24 0 0 0 -0.16,0.09 z"
       style="opacity:0.2"
       id="path17341" />
  </g>
  <g
     id="freepik--light-bulb--inject-41"
     transform="translate(-25.030157,-55)">
    <path
       d="m 222.67,206.15 c 1.25,2.88 -1.69,6.94 -6.57,9.07 -4.88,2.13 -9.86,1.5 -11.11,-1.38 -1.25,-2.88 1.68,-7 6.56,-9.07 4.88,-2.07 9.86,-1.51 11.12,1.38 z"
       style="fill:#263238"
       id="path17344" />
    <path
       d="m 222.32,194.91 a 2.75,2.75 0 0 0 0,-2.07 c -1.23,-2.83 -8.25,-2.5 -15.68,0.73 -7.43,3.23 -12.45,8.15 -11.22,11 a 2.78,2.78 0 0 0 1.54,1.38 2.25,2.25 0 0 0 0.17,1 2.7,2.7 0 0 0 1.55,1.35 2.09,2.09 0 0 0 0.16,1 2.64,2.64 0 0 0 1.56,1.32 2.19,2.19 0 0 0 0.15,1.06 2.57,2.57 0 0 0 1.58,1.3 2,2 0 0 0 0.13,1.08 c 1,2.35 6.86,2.08 13,-0.6 6.14,-2.68 10.35,-6.78 9.33,-9.13 a 2.08,2.08 0 0 0 -0.71,-0.83 2.53,2.53 0 0 0 0.13,-2 2.1,2.1 0 0 0 -0.67,-0.82 2.68,2.68 0 0 0 0.1,-2 2.14,2.14 0 0 0 -0.65,-0.82 2.71,2.71 0 0 0 0.07,-2.05 2.2,2.2 0 0 0 -0.54,-0.9 z"
       style="fill:#263238"
       id="path17346" />
    <path
       d="m 222.32,194.91 a 2.75,2.75 0 0 0 0,-2.07 c -1.23,-2.83 -8.25,-2.5 -15.68,0.73 -7.43,3.23 -12.45,8.15 -11.22,11 a 2.78,2.78 0 0 0 1.54,1.38 2.25,2.25 0 0 0 0.17,1 2.7,2.7 0 0 0 1.55,1.35 2.09,2.09 0 0 0 0.16,1 2.64,2.64 0 0 0 1.56,1.32 2.19,2.19 0 0 0 0.15,1.06 2.57,2.57 0 0 0 1.58,1.3 2,2 0 0 0 0.13,1.08 c 1,2.35 6.86,2.08 13,-0.6 6.14,-2.68 10.35,-6.78 9.33,-9.13 a 2.08,2.08 0 0 0 -0.71,-0.83 2.53,2.53 0 0 0 0.13,-2 2.1,2.1 0 0 0 -0.67,-0.82 2.68,2.68 0 0 0 0.1,-2 2.14,2.14 0 0 0 -0.65,-0.82 2.71,2.71 0 0 0 0.07,-2.05 2.2,2.2 0 0 0 -0.54,-0.9 z"
       style="opacity:0.3;fill:#ffffff"
       id="path17348" />
    <path
       d="m 222.53,164.92 a 26,26 0 1 0 -30.9,35.33 4.26,4.26 0 0 1 2.92,2.75 1.07,1.07 0 0 0 0.07,0.19 c 1.25,2.88 8.38,2.55 15.93,-0.73 7.55,-3.28 12.65,-8.27 11.39,-11.15 a 1.42,1.42 0 0 0 -0.08,-0.18 4.32,4.32 0 0 1 0,-4.06 25.86,25.86 0 0 0 0.67,-22.15 z"
       style="fill:#60a3ab"
       id="path17350" />
    <path
       d="m 222.53,164.92 a 26,26 0 1 0 -30.9,35.33 4.26,4.26 0 0 1 2.92,2.75 1.07,1.07 0 0 0 0.07,0.19 c 1.25,2.88 8.38,2.55 15.93,-0.73 7.55,-3.28 12.65,-8.27 11.39,-11.15 a 1.42,1.42 0 0 0 -0.08,-0.18 4.32,4.32 0 0 1 0,-4.06 25.86,25.86 0 0 0 0.67,-22.15 z"
       style="opacity:0.3;fill:#ffffff"
       id="path17352" />
    <path
       d="m 203.84,200.73 a 0.31,0.31 0 0 1 -0.29,-0.19 c -3.69,-8.48 -13.27,-12 -13.37,-12 a 0.31,0.31 0 0 1 -0.2,-0.29 0.3,0.3 0 0 1 0.18,-0.29 l 4.3,-1.87 v -3.79 a 0.28,0.28 0 0 1 0.17,-0.28 0.33,0.33 0 0 1 0.33,0 l 4.87,3.81 0.54,-6.16 a 0.31,0.31 0 0 1 0.19,-0.26 0.29,0.29 0 0 1 0.32,0.05 l 5.16,4.47 0.24,-6.82 a 0.3,0.3 0 0 1 0.2,-0.27 0.29,0.29 0 0 1 0.33,0.06 l 2.75,2.6 4.29,-1.87 a 0.31,0.31 0 0 1 0.37,0.1 0.3,0.3 0 0 1 0,0.37 c -4.36,5.95 -1.06,18.17 -1,18.29 a 0.32,0.32 0 0 1 -0.22,0.38 0.3,0.3 0 0 1 -0.38,-0.22 c -0.14,-0.49 -3.13,-11.54 0.54,-17.93 l -3.53,1.54 a 0.33,0.33 0 0 1 -0.34,-0.06 l -2.4,-2.28 -0.24,6.78 a 0.32,0.32 0 0 1 -0.52,0.22 l -5.18,-4.49 -0.54,6.13 a 0.3,0.3 0 0 1 -0.18,0.25 0.31,0.31 0 0 1 -0.32,0 l -4.82,-3.76 v 3.35 a 0.3,0.3 0 0 1 -0.19,0.29 l -3.8,1.65 c 2.33,1 9.83,4.72 13,12.08 a 0.31,0.31 0 0 1 -0.16,0.41 0.27,0.27 0 0 1 -0.1,0 z"
       style="fill:#263238"
       id="path17354" />
    <path
       d="m 198.08,155.36 c 4.36,3.68 3.62,11.73 -1.65,18 -5.27,6.27 -13.08,8.31 -17.43,4.64 -4.35,-3.67 -3.62,-11.73 1.65,-18 5.27,-6.27 13.06,-8.32 17.43,-4.64 z"
       style="opacity:0.4;fill:#ffffff"
       id="path17356" />
    <path
       d="m 204.22,173.27 c 1.75,1.47 1.45,4.71 -0.66,7.22 -2.11,2.51 -5.25,3.34 -7,1.86 -1.75,-1.48 -1.45,-4.71 0.66,-7.22 2.11,-2.51 5.25,-3.34 7,-1.86 z"
       style="opacity:0.4;fill:#ffffff"
       id="path17358" />
  </g>
  <g
     id="freepik--speech-bubble--inject-41"
     transform="translate(-25.030157,-55)">
    <path
       d="m 382.32,169 h -28.73 a 8.84,8.84 0 0 0 -8.84,8.85 v 25 a 8.85,8.85 0 0 0 8.84,8.85 H 362 v 7.89 l 6,-7.89 h 14.39 a 8.85,8.85 0 0 0 8.85,-8.85 v -25 A 8.85,8.85 0 0 0 382.32,169 Z"
       style="fill:#60a3ab"
       id="path17361" />
    <path
       d="m 382.32,169 h -28.73 a 8.84,8.84 0 0 0 -8.84,8.85 v 25 a 8.85,8.85 0 0 0 8.84,8.85 H 362 v 7.89 l 6,-7.89 h 14.39 a 8.85,8.85 0 0 0 8.85,-8.85 v -25 A 8.85,8.85 0 0 0 382.32,169 Z"
       style="opacity:0.7;fill:#ffffff"
       id="path17363" />
    <g
       style="opacity:0.5"
       id="g17379">
      <path
         d="m 358.28,178.63 h -4.42 V 176 h 12 v 2.6 h -4.41 v 11.19 h -3.19 z"
         id="path17365" />
      <rect
         x="368.42999"
         y="176.03"
         width="13.62"
         height="1.97"
         id="rect17367" />
      <rect
         x="353.85999"
         y="202.14999"
         width="28.18"
         height="1.97"
         id="rect17369" />
      <rect
         x="353.85999"
         y="196.92"
         width="28.18"
         height="1.97"
         id="rect17371" />
      <rect
         x="353.85999"
         y="191.7"
         width="28.18"
         height="1.97"
         id="rect17373" />
      <rect
         x="368.42999"
         y="186.48"
         width="13.62"
         height="1.97"
         id="rect17375" />
      <rect
         x="368.42999"
         y="181.25999"
         width="13.62"
         height="1.97"
         id="rect17377" />
    </g>
  </g>
  <g
     id="freepik--Character--inject-41"
     transform="translate(-25.030157,-55)">
    <path
       d="m 146.31,385.24 c 0,0 13.56,-2.84 41.2,-2.84 27.64,0 45,2.84 45,2.84 z"
       style="fill:#60a3ab"
       id="path17382" />
    <path
       d="m 146.31,385.24 c 0,0 13.56,-2.84 41.2,-2.84 27.64,0 45,2.84 45,2.84 z"
       style="opacity:0.5;fill:#ffffff"
       id="path17384" />
    <path
       d="m 297.22,210.37 c 0,0 15.75,-3.5 31,21 15.25,24.5 7.43,93.67 -12.51,112.22 -19.94,18.55 -39.87,20.78 -51.85,-3.42 -11.98,-24.2 3.11,-25.2 -8.77,-54.11 -11.88,-28.91 -15.85,-53 1.62,-67.1 17.47,-14.1 40.51,-8.59 40.51,-8.59 z"
       style="fill:#263238"
       id="path17386" />
    <path
       d="m 276.53,304.58 c 0,0 14,58.13 51,105.6 0,0 66.46,-4.6 80.95,-8.15 -12.66,-28.4 -20.45,-47.32 -30.53,-99.78 -2.43,-12.67 -14.61,-20.58 -26.7,-19.06 -3.44,0.43 -15,-0.58 -34.92,5 -14.49,4.01 -39.8,16.39 -39.8,16.39 z"
       style="fill:#60a3ab"
       id="path17388" />
    <path
       d="m 276.53,304.58 c 0,0 14,58.13 51,105.6 0,0 66.46,-4.6 80.95,-8.15 -12.66,-28.4 -20.45,-47.32 -30.53,-99.78 -2.43,-12.67 -14.61,-20.58 -26.7,-19.06 -3.44,0.43 -15,-0.58 -34.92,5 -14.49,4.01 -39.8,16.39 -39.8,16.39 z"
       style="opacity:0.7;fill:#ffffff"
       id="path17390" />
    <path
       d="m 414.13,410 -30.5,2 c 0,0 -1.61,-2.3 -4.18,-6.06 -3.61,-5.32 -9.11,-13.59 -14.58,-22.46 a 256.36,256.36 0 0 1 -14.39,-26 l -0.15,-0.33 c -15.84,-35.06 -11.07,-68.44 -10.24,-73.38 0.07,-0.42 0.11,-0.63 0.11,-0.63 l 14.31,-1.43 c 10.57,-1.06 21.48,7.2 24,18.18 l 12.61,54.27 2.81,12.1 2,4.34 z"
       style="fill:#60a3ab"
       id="path17392" />
    <path
       d="m 329.36,410.05 a 35.1,35.1 0 0 1 -0.54,4.43 l -13.1,-2.31 c 0.49,-5.1 1,-9 1,-9 0,0 -2.68,-5.1 -6.65,-13 -3.37,-6.71 -7.68,-15.45 -12.07,-24.82 -11.2,-23.85 -23,-51.78 -21.45,-60.8 0.57,-3.39 26.38,-11.92 26.38,-11.92 v 0.19 c 0.44,2.83 5.86,37 15.07,60.48 1.11,2.82 2.17,5.82 3.18,8.93 a 190.12,190.12 0 0 1 6.67,27.11 95.75,95.75 0 0 1 1.51,20.71 z"
       style="fill:#60a3ab"
       id="path17394" />
    <path
       d="m 213.47,364 -16.56,-6.27 1.89,20.63 c 0,0 12,0.86 19,-8.2 z"
       style="fill:#ffc3bd"
       id="path17396" />
    <polygon
       points="198.8,378.34 196.91,357.71 180.32,363.07 184.58,378.12 "
       style="fill:#ffc3bd"
       id="polygon17398" />
    <path
       d="m 280,301.63 c -14.06,6.56 -33,59.57 -37.5,60.36 -5.06,0.9 -30.36,-0.79 -30.36,-0.79 l -4.22,17.15 c 0,0 27.73,5.82 39,5.82 11.27,0 28.94,-28.47 41.85,-47.46 z"
       style="fill:#60a3ab"
       id="path17400" />
    <path
       d="m 211.45,341.51 -23.53,39.2 -4.73,-2.84 23.53,-39.2 a 2.76,2.76 0 0 1 3.78,-0.95 2.79,2.79 0 0 1 0.95,3.79 z"
       style="fill:#263238"
       id="path17402" />
    <polygon
       points="181.98,385.24 187.91,380.71 183.19,377.88 "
       style="fill:#60a3ab"
       id="polygon17404" />
    <polygon
       points="187.92,380.71 184.02,383.69 181.98,385.24 182.4,382.71 183.19,377.87 "
       style="opacity:0.7;fill:#ffffff"
       id="polygon17406" />
    <polygon
       points="181.98,385.24 182.4,382.71 184.02,383.69 "
       style="fill:#263238"
       id="polygon17408" />
    <rect
       x="174.75999"
       y="357.45999"
       width="44.490002"
       height="5.5100002"
       transform="rotate(-59.03,196.97372,360.20515)"
       style="opacity:0.2;fill:#ffffff"
       id="rect17410" />
    <rect
       x="174.75999"
       y="358.60999"
       width="44.490002"
       height="3.21"
       transform="rotate(-59.03,196.97372,360.20515)"
       style="opacity:0.2;fill:#ffffff"
       id="rect17412" />
    <path
       d="m 396,370.57 -0.38,0.25 c -4.82,3.14 -14.52,8.36 -30.71,12.6 a 210.55,210.55 0 0 1 -37,5.95 c -4.52,0.35 -9.3,0.61 -14.34,0.75 -1.14,0 -2.3,0.06 -3.47,0.08 -3.37,-6.71 -7.68,-15.45 -12.07,-24.82 l 1.58,-0.2 c 5.16,-0.62 12.91,-1.62 21.63,-2.92 9.28,-1.39 19.66,-3.13 29.14,-5.14 5.2,-1.1 10.13,-2.29 14.47,-3.55 0,0 -4.22,-29.82 -2.9,-39.05 0.86,-6 16.42,18.4 27.2,36.22 v 0 c 0.71,1.15 1.38,2.29 2,3.37 l 2.81,12.1 z"
       style="opacity:0.2;isolation:isolate"
       id="path17414" />
    <path
       d="M 313.69,374.31 297.13,368 299,388.67 c 0,0 12,0.86 19,-8.2 z"
       style="fill:#ffc3bd"
       id="path17416" />
    <polygon
       points="299.02,388.67 297.13,368.04 280.54,373.39 284.8,388.45 "
       style="fill:#ffc3bd"
       id="polygon17418" />
    <path
       d="m 358.07,281.67 c -9,7.84 10.42,71 10.42,73.93 0,2.93 -59.64,15.4 -59.64,15.4 l 2,16.45 c 0,0 72.42,-8 80.68,-12.55 8.26,-4.55 -4.32,-53.84 -10.16,-73.22 -6.64,-22.08 -23.3,-20.01 -23.3,-20.01 z"
       style="fill:#60a3ab"
       id="path17420" />
    <path
       d="m 317.59,340.6 a 0.51,0.51 0 0 1 -0.38,-0.18 c -0.19,-0.23 -19.06,-23.35 -8.82,-50 a 0.5,0.5 0 0 1 0.64,-0.29 0.5,0.5 0 0 1 0.29,0.65 c -9.17,23.87 5.51,44.86 8.24,48.46 18,-27.94 17.66,-54.76 17.65,-55 a 0.5,0.5 0 0 1 0.49,-0.51 0.47,0.47 0 0 1 0.51,0.49 c 0,0.27 0.33,27.77 -18.2,56.18 a 0.5,0.5 0 0 1 -0.39,0.23 z"
       style="fill:#263238"
       id="path17422" />
    <path
       d="m 303,289.08 c 4,4 5.59,7.14 6.1,9.42 0.77,3.34 -0.79,4.91 -0.79,4.91 2.32,8.19 13.4,6.12 13.4,6.12 12,-14.9 10.49,-24.7 10.49,-24.7 -8,0.09 -13.6,-4.78 -17.3,-9.85 a 42.41,42.41 0 0 1 -5.7,-11.12 l -13.5,18.89 a 66.93,66.93 0 0 1 7.3,6.33 z"
       style="fill:#eec1bb"
       id="path17424" />
    <path
       d="m 295.7,282.75 a 66.93,66.93 0 0 1 7.31,6.33 c 4,4 5.59,7.14 6.1,9.42 5.85,-7.45 6.65,-16.24 5.8,-23.52 a 42.41,42.41 0 0 1 -5.7,-11.12 z"
       style="opacity:0.2;isolation:isolate"
       id="path17426" />
    <path
       d="m 307.83,234.07 c 6.42,18.9 9.52,26.75 4.39,40.45 -7.73,20.6 -31.57,25.44 -43.32,9.09 -10.57,-14.71 -19.29,-43.16 -4.85,-58.74 14.22,-15.34 37.36,-9.71 43.78,9.2 z"
       style="fill:#eec1bb"
       id="path17428" />
    <path
       d="m 286.17,230 c 16.29,6.86 4.8,31.78 23.72,20.05 18.92,-11.73 -4.36,-34.66 -19.37,-34.4 -15.01,0.26 -4.35,14.35 -4.35,14.35 z"
       style="fill:#263238"
       id="path17430" />
    <path
       d="m 290.58,215.89 c 4.14,13 4,17.11 -8.19,19.79 0.81,-4.39 -2.53,-9 -2.53,-9 0,0 1,5.8 -2.19,9.68 a 48.12,48.12 0 0 0 -10.15,2.22 12.79,12.79 0 0 0 -2.33,-5.32 12.34,12.34 0 0 1 -1.23,7 34,34 0 0 0 -8.43,6.92 c -6.87,-12.39 6.47,-37.36 35.05,-31.29 z"
       style="fill:#263238"
       id="path17432" />
    <path
       d="m 282.35,252.17 c 0.6,1.57 0.31,3.2 -0.65,3.65 -0.96,0.45 -2.24,-0.44 -2.85,-2 -0.61,-1.56 -0.31,-3.2 0.65,-3.66 0.96,-0.46 2.24,0.45 2.85,2.01 z"
       style="fill:#263238"
       id="path17434" />
    <path
       d="m 264.3,261 c 0.61,1.56 0.32,3.2 -0.65,3.65 -0.97,0.45 -2.23,-0.44 -2.84,-2 -0.61,-1.56 -0.32,-3.2 0.64,-3.65 0.96,-0.45 2.24,0.42 2.85,2 z"
       style="fill:#263238"
       id="path17436" />
    <path
       d="m 261.91,258.86 -4,0.58 c 0,0 3,2.08 4,-0.58 z"
       style="fill:#263238"
       id="path17438" />
    <path
       d="m 270.36,261.17 c 0,0 0.11,7.91 -1.39,12.45 2.7,1 5.67,-1.43 5.67,-1.43 z"
       style="fill:#d4827d"
       id="path17440" />
    <path
       d="m 285.37,274 a 15.51,15.51 0 0 1 -2.38,1.39 0.46,0.46 0 0 1 -0.62,-0.25 0.54,0.54 0 0 1 0.26,-0.67 13.93,13.93 0 0 0 7.65,-9.32 0.47,0.47 0 1 1 0.92,0.16 14.64,14.64 0 0 1 -5.83,8.69 z"
       style="fill:#263238"
       id="path17442" />
    <path
       d="m 318.78,249.62 a 13.73,13.73 0 0 1 -3.69,10.46 c -3.38,3.3 -7.68,-0.29 -8.92,-5.59 -1.12,-4.77 -0.7,-12.24 3.74,-13.44 4.44,-1.2 8.61,3.43 8.87,8.57 z"
       style="fill:#eec1bb"
       id="path17444" />
    <path
       d="m 282.84,241.65 a 0.87,0.87 0 0 1 -0.74,0.08 7.2,7.2 0 0 0 -6.73,1 0.88,0.88 0 0 1 -1.31,-0.14 1.05,1.05 0 0 1 0.16,-1.41 9,9 0 0 1 8.5,-1.36 1,1 0 0 1 0.58,1.26 1,1 0 0 1 -0.46,0.57 z"
       style="fill:#263238"
       id="path17446" />
    <path
       d="m 255.69,254.88 a 0.84,0.84 0 0 1 -0.69,0.14 1,1 0 0 1 -0.7,-1.17 10.28,10.28 0 0 1 5.42,-7.3 0.9,0.9 0 0 1 1.21,0.55 1.07,1.07 0 0 1 -0.57,1.31 8.17,8.17 0 0 0 -4.23,5.82 1,1 0 0 1 -0.44,0.65 z"
       style="fill:#263238"
       id="path17448" />
    <path
       d="m 280,250.05 -4,0.58 c 0,0 3,2.08 4,-0.58 z"
       style="fill:#263238"
       id="path17450" />
    <path
       d="m 317.45,339.25 c 0,0 4.91,6.66 0,6.66 -4.91,0 0,-6.66 0,-6.66 z"
       style="fill:#263238"
       id="path17452" />
    <path
       d="m 317.45,341.55 c 0,0 2.63,3.83 0,3.83 -2.63,0 0,-3.83 0,-3.83 z"
       style="fill:#60a3ab"
       id="path17454" />
    <rect
       x="70.650002"
       y="392.63"
       width="360.17001"
       height="23.280001"
       style="fill:#263238"
       id="rect17456" />
    <rect
       x="70.650002"
       y="392.63"
       width="360.17001"
       height="23.280001"
       style="opacity:0.3;fill:#ffffff"
       id="rect17458" />
    <rect
       x="65.589996"
       y="384.87"
       width="370.28"
       height="15.52"
       rx="3.71"
       style="fill:#263238"
       id="rect17460" />
    <rect
       x="65.589996"
       y="384.87"
       width="370.28"
       height="15.52"
       rx="3.71"
       style="opacity:0.4;fill:#ffffff"
       id="rect17462" />
    <path
       d="m 118.54,377.88 h 44.39 c 0,0 7,5.36 25.86,7.36 H 138.4 c 0,0 -15.31,-1.3 -19.86,-7.36 z"
       style="fill:#60a3ab"
       id="path17464" />
    <path
       d="m 118.54,377.88 h 44.39 c 0,0 7,5.36 25.86,7.36 H 138.4 c 0,0 -15.31,-1.3 -19.86,-7.36 z"
       style="opacity:0.7;fill:#ffffff"
       id="path17466" />
  </g>
</svg>
