<?xml version="1.0" encoding="UTF-8" standalone="no"?>
<svg
   id="Warstwa_1"
   data-name="Warstwa 1"
   viewBox="0 0 158.48521 171.0878"
   version="1.1"
   width="158.48521"
   height="171.0878"
   xmlns="http://www.w3.org/2000/svg"
   xmlns:svg="http://www.w3.org/2000/svg"
   xmlns:rdf="http://www.w3.org/1999/02/22-rdf-syntax-ns#"
   xmlns:cc="http://creativecommons.org/ns#"
   xmlns:dc="http://purl.org/dc/elements/1.1/">
  <metadata
     id="metadata61">
    <rdf:RDF>
      <cc:Work
         rdf:about="">
        <dc:format>image/svg+xml</dc:format>
        <dc:type
           rdf:resource="http://purl.org/dc/dcmitype/StillImage" />
      </cc:Work>
    </rdf:RDF>
  </metadata>
  <defs
     id="defs4">
    <style
       id="style2">.cls-1{fill:#343434;}</style>
  </defs>
  <g
     transform="translate(-120.76836,-86.013223)"
     id="g906">
    <path
       id="path38"
       d="m 164.39,179.68 c -15.5,0.77 -21.64,1.56 -36.78,5.62 -17,-6.81 1.93,-57.63 11,-45.08 7.53,10.38 14.57,28.29 25.74,39.46"
       class="cls-1" />
    <path
       id="path40"
       d="m 195.18,197.64 c 0,18.11 -2.52,52 -2.52,52 0,0 -24.43,16.49 -29.34,0.44 -8.87,-2.56 -12,-3.52 -16.38,-17.67 7.63,-15 18.42,-18.15 18.12,-18.49 -5.85,-2.68 -22.94,14.32 -22.94,14.32 0,0 -21.64,-23.95 -15.51,-34.78 6.27,-11.07 64,-12 68.57,4.16"
       class="cls-1" />
    <path
       id="path42"
       d="m 170.7,122.94 c -2,-4.28 -3.62,-8.7 -3,-13.37 3.85,-30.43 29.61,-29.83 29.25,-7.08 -0.27,17.48 -1.33,48.63 -1.33,48.63 0,0 -17.68,-12.48 -24.88,-28.18"
       class="cls-1" />
    <path
       id="path44"
       d="m 194.83,186.79 c 0,0 0.75,-22.09 0.75,-27 -5.65,-4.46 -10.45,-8.68 -17.42,-15.16 -5.82,-5.4 -10.53,30.78 -4.54,34.68 5,3.29 12.7,0.43 21.21,7.53"
       class="cls-1" />
    <path
       id="path46"
       d="m 167.51,175.69 c 0,0 -25.39,-31.11 -25.39,-40 0,-8.89 5.32,-31.76 16.38,-33.2 9.13,-1.19 3.26,6.88 5,15.37 2.05,10.17 7.26,15.63 9.39,20.53 1.84,4.25 -8.65,13.36 -5.35,37.33"
       class="cls-1" />
    <path
       id="path48"
       d="m 235.61,179.68 c 15.5,0.77 21.64,1.56 36.78,5.62 17.05,-6.81 -1.93,-57.63 -11,-45.08 -7.53,10.38 -14.57,28.29 -25.74,39.46"
       class="cls-1" />
    <path
       id="path50"
       d="m 204.82,197.64 c 0,18.11 2.52,52 2.52,52 0,0 24.43,16.49 29.34,0.44 8.87,-2.56 12,-3.52 16.38,-17.67 -7.63,-15 -18.42,-18.15 -18.12,-18.49 5.85,-2.68 22.94,14.32 22.94,14.32 0,0 21.64,-23.95 15.51,-34.78 -6.28,-11.07 -63.95,-12 -68.57,4.16"
       class="cls-1" />
    <path
       id="path52"
       d="m 229.3,122.94 c 2,-4.28 3.63,-8.7 3,-13.37 -3.84,-30.43 -29.6,-29.83 -29.24,-7.08 0.27,17.48 1.34,48.63 1.34,48.63 0,0 17.67,-12.48 24.87,-28.18"
       class="cls-1" />
    <path
       id="path54"
       d="m 205.17,186.79 c 0,0 -0.74,-22.09 -0.74,-27 5.64,-4.46 10.44,-8.68 17.41,-15.16 5.82,-5.4 10.53,30.78 4.54,34.68 -5,3.29 -12.7,0.43 -21.21,7.53"
       class="cls-1" />
    <path
       id="path56"
       d="m 232.49,175.69 c 0,0 25.39,-31.11 25.39,-40 0,-8.89 -5.32,-31.76 -16.38,-33.2 -9.13,-1.19 -3.26,6.88 -5,15.37 -2.06,10.17 -7.26,15.63 -9.39,20.53 -1.84,4.25 8.65,13.36 5.35,37.33"
       class="cls-1" />
    <path
       id="path888"
       d="m 221.20482,255.83937 c -3.18281,-0.9054 -11.09464,-4.5205 -12.85345,-5.87304 -0.67127,-0.51621 -0.93147,-2.5395 -1.56385,-12.16026 -1.09102,-16.5984 -1.94677,-38.79367 -1.55576,-40.35156 0.56087,-2.23467 3.5782,-5.07907 7.24812,-6.83269 6.13987,-2.93386 14.07383,-4.4899 25.11048,-4.92477 15.48361,-0.6101 30.06764,2.25867 34.54652,6.79549 4.9531,5.01719 0.49343,17.10273 -12.04722,32.6475 l -2.20273,2.7304 -3.37087,-3.12091 c -4.71348,-4.36396 -9.13209,-7.61598 -13.01455,-9.57849 -3.11009,-1.57209 -6.56175,-2.22497 -6.56175,-1.24114 0,0.23976 1.13855,1.0822 2.53012,1.87208 5.31135,3.01486 10.08943,7.8687 13.80857,14.0275 l 1.57041,2.60056 -1.065,2.94161 c -1.64452,4.54228 -3.58722,8.09195 -5.35469,9.78404 -1.65921,1.58844 -5.73776,3.62068 -8.45552,4.21316 -0.99498,0.21691 -1.65781,0.71054 -1.86316,1.38754 -0.58588,1.93153 -2.72543,4.27913 -4.72924,5.18909 -2.53412,1.15079 -5.88061,1.1159 -10.17643,-0.10611 z"
       style="fill:#ffffff;stroke-width:5.75084" />
    <path
       id="path890"
       d="m 168.61875,255.94548 c -2.00381,-0.90996 -4.14336,-3.25756 -4.72924,-5.18909 -0.20535,-0.677 -0.86818,-1.17063 -1.86316,-1.38754 -2.71813,-0.59257 -6.79643,-2.62482 -8.45492,-4.21316 -1.77666,-1.70151 -3.44895,-4.71912 -5.21414,-9.40879 l -1.16022,-3.08242 1.52137,-2.71778 c 3.28844,-5.87452 8.75896,-11.40456 14.44076,-14.59791 2.24818,-1.26354 2.41622,-1.85481 0.52717,-1.85481 -3.90209,0 -11.51791,4.82915 -19.11194,12.11878 l -2.41351,2.31678 -2.22666,-2.75995 c -12.5656,-15.57514 -17.02828,-27.65577 -12.07114,-32.67705 6.77623,-6.8639 34.49423,-9.1163 53.10074,-4.31503 6.98899,1.80346 12.92891,5.7961 13.80632,9.28022 0.38766,1.53935 -0.46092,23.43646 -1.56362,40.34827 -0.62854,9.63988 -0.88515,11.64051 -1.55784,12.14536 -1.95038,1.46378 -9.7918,5.01215 -13.08482,5.92111 -4.44284,1.22633 -7.35834,1.24774 -9.94515,0.073 z"
       style="fill:#ffffff;stroke-width:5.75084" />
    <path
       id="path892"
       d="m 125.98483,183.9826 c -1.02157,-0.67653 -2.19653,-2.1896 -3.09265,-3.9826 -1.29638,-2.59385 -1.46288,-3.44611 -1.61715,-8.27756 -0.11931,-3.73674 0.0754,-6.6144 0.63578,-9.39759 2.2081,-10.96628 7.29789,-20.9481 11.89328,-23.32447 2.96295,-1.5322 4.15118,-0.11687 13.17943,15.69842 6.30516,11.04509 10.65112,17.78106 13.93965,21.60561 1.21515,1.41321 2.20936,2.73531 2.20936,2.93799 0,0.20268 -2.62444,0.50963 -5.8321,0.6821 -8.81928,0.47421 -21.45651,2.62282 -28.90597,4.91466 -0.41918,0.12897 -1.50352,-0.25649 -2.40963,-0.85656 z"
       style="fill:#ffffff;stroke-width:5.75084" />
    <path
       id="path894"
       d="m 192.34406,184.70733 c -2.63445,-1.67383 -6.38202,-2.87444 -11.01668,-3.5294 -5.2064,-0.73577 -7.76809,-1.86234 -8.88353,-3.90678 -0.76429,-1.40084 -0.8746,-2.79062 -0.85446,-10.76513 0.0197,-7.8065 0.18177,-9.79615 1.09909,-13.49397 1.18853,-4.79112 2.80068,-8.09976 4.06531,-8.3433 0.50269,-0.0968 2.7531,1.594 5.7701,4.33528 2.72029,2.4717 6.73511,5.97562 8.92181,7.78649 l 3.97581,3.29251 -0.29781,11.40427 c -0.1638,6.27234 -0.43484,12.08054 -0.60232,12.90711 l -0.30451,1.50284 z"
       style="fill:#ffffff;stroke-width:5.75084" />
    <path
       id="path896"
       d="m 165.74104,173.10587 c -15.02321,-19.39438 -22.77005,-31.86175 -23.22369,-37.37502 -0.25224,-3.06562 0.90878,-9.96789 2.576,-15.31431 3.49706,-11.21435 8.9156,-17.72097 14.78617,-17.75535 1.15932,-0.007 2.14368,0.32587 2.74571,0.9279 0.86887,0.86886 0.9178,1.43193 0.65967,7.59036 -0.27459,6.55122 -0.25551,6.72115 1.26062,11.23019 0.86844,2.58277 2.99656,7.10695 4.88249,10.3797 1.83869,3.19077 3.34307,6.26619 3.34307,6.83428 0,0.56808 -0.9573,3.59601 -2.12733,6.72873 -3.11341,8.33601 -3.80136,12.08293 -3.81093,20.75608 -0.004,4.04217 -0.0256,7.3374 -0.047,7.32274 -0.0214,-0.0147 -0.49154,-0.61105 -1.04481,-1.3253 z"
       style="fill:#ffffff;stroke-width:5.75084" />
    <path
       id="path898"
       d="m 190.84337,146.89876 c -10.86333,-9.11966 -19.44424,-20.66269 -22.12111,-29.75731 -2.23864,-7.60574 1.23918,-20.438568 7.12489,-26.290193 4.55309,-4.526718 8.97834,-5.639406 13.54417,-3.405555 3.90855,1.912275 6.06055,5.248385 6.94769,10.770539 0.43223,2.690509 -0.11795,33.530639 -0.82654,46.330829 l -0.33175,5.99285 z"
       style="fill:#ffffff;stroke-width:5.75084" />
    <path
       id="path900"
       d="m 204.36741,141.80154 c -1.25331,-33.33907 -1.20417,-43.862736 0.22233,-47.614729 1.83174,-4.817848 6.62808,-8.240968 10.96056,-7.822495 7.04081,0.68007 12.9783,7.656294 15.51198,18.225714 1.80716,7.53875 1.21041,11.73846 -2.76587,19.4652 -3.93789,7.65216 -10.52966,15.58111 -18.59803,22.37074 -2.15338,1.81211 -4.16148,3.43634 -4.46242,3.60941 -0.39471,0.227 -0.63673,-2.06735 -0.86855,-8.23384 z"
       style="fill:#ffffff;stroke-width:5.75084" />
    <path
       id="path902"
       d="m 205.35433,183.47929 c -0.13944,-1.38349 -0.37253,-7.21164 -0.51799,-12.95145 l -0.26447,-10.43602 3.97913,-3.28212 c 2.18852,-1.80516 6.20482,-5.31106 8.92511,-7.79089 3.02146,-2.75436 5.26666,-4.44701 5.7701,-4.35006 1.26463,0.24354 2.87678,3.55218 4.06531,8.3433 0.91732,3.69782 1.07937,5.68747 1.09909,13.49397 0.0201,7.97451 -0.0902,9.36429 -0.85446,10.76513 -1.11544,2.04444 -3.67713,3.17101 -8.88353,3.90678 -4.6691,0.65983 -8.36749,1.85153 -11.10057,3.57685 l -1.9642,1.23994 z"
       style="fill:#ffffff;stroke-width:5.75084" />
    <path
       id="path904"
       d="m 233.16536,167.31461 c 0.0389,-8.4491 -0.73132,-12.68067 -3.81534,-20.96226 -1.16661,-3.13272 -2.1211,-6.16065 -2.1211,-6.72873 0,-0.56809 1.50438,-3.64351 3.34307,-6.83428 1.88593,-3.27275 4.01405,-7.79693 4.88249,-10.3797 1.51613,-4.50904 1.53521,-4.67897 1.26062,-11.23019 -0.25813,-6.15843 -0.2092,-6.7215 0.65967,-7.59036 1.19694,-1.19694 3.90709,-1.21233 6.48065,-0.0368 2.343,1.07021 5.28971,4.19799 7.3493,7.80089 3.32959,5.82456 6.72094,18.99343 6.27793,24.37766 -0.26971,3.27795 -3.03136,8.93056 -8.08975,16.55831 -3.51701,5.30344 -12.18219,17.17224 -15.19194,20.80858 l -1.06814,1.29052 0.0325,-7.07365 z"
       style="fill:#ffffff;stroke-width:5.75084" />
    <path
       id="path906"
       d="m 265.54217,183.38398 c -7.56592,-1.90236 -15.11127,-3.04377 -22.88367,-3.46168 -3.18507,-0.17126 -5.79103,-0.47722 -5.79103,-0.6799 0,-0.20268 0.99421,-1.52478 2.20936,-2.93799 3.28113,-3.81595 7.62492,-10.54521 13.94658,-21.60561 9.08476,-15.89475 10.00788,-17.04347 12.77517,-15.89722 3.40825,1.41174 7.6592,7.9829 10.28408,15.89722 2.07877,6.26771 2.831,11.11412 2.64231,17.02364 -0.15427,4.83145 -0.32077,5.68371 -1.61715,8.27756 -1.25754,2.51615 -3.93809,5.19635 -5.01041,5.00975 -0.1596,-0.0278 -3.10946,-0.75937 -6.55524,-1.62577 z"
       style="fill:#ffffff;stroke-width:5.75084" />
  </g>
</svg>
