<?xml version="1.0" encoding="UTF-8" standalone="no"?>
<svg
   id="Warstwa_1"
   data-name="Warstwa 1"
   viewBox="0 0 1007.62 321.51999"
   version="1.1"
   width="1007.62"
   height="321.51999"
   xmlns="http://www.w3.org/2000/svg"
   xmlns:svg="http://www.w3.org/2000/svg">
  <defs
     id="defs8093">
    <style
       id="style8091">.cls-1{fill:#61a3aa;}</style>
  </defs>
  <polygon
     points="36,566.95 36,345.76 97.57,345.76 97.57,509.94 233.81,509.94 233.81,566.95 188.25,566.95 188.25,667.28 126.69,667.28 126.69,566.95 "
     id="polygon8095"
     transform="translate(-36,-345.76)" />
  <rect
     class="cls-1"
     x="94.630005"
     y="76.239998"
     width="132.53999"
     height="52.450001"
     id="rect8097" />
  <path
     d="m 315,123.24 h 42 v 24.72 H 283 V 16.46 h 32 z"
     id="path8099" />
  <path
     d="m 461.53,103.35 h -72.47 q 0.75,9.75 6.27,14.89 a 19.15,19.15 0 0 0 13.58,5.15 q 12,0 16.67,-10.11 h 34.08 a 46.85,46.85 0 0 1 -9.46,18.54 47.43,47.43 0 0 1 -17.13,12.92 55.09,55.09 0 0 1 -23,4.68 56.06,56.06 0 0 1 -27.34,-6.55 A 46.56,46.56 0 0 1 364,124.14 q -6.75,-12.16 -6.74,-28.47 0.01,-16.31 6.61,-28.43 a 46.12,46.12 0 0 1 18.64,-18.73 q 12,-6.54 27.52,-6.55 15.18,0 27,6.37 a 45.74,45.74 0 0 1 18.45,18.16 q 6.65,11.8 6.64,27.53 a 80.33,80.33 0 0 1 -0.59,9.33 z M 429.32,85.56 q 0,-8.24 -5.61,-13.11 a 20.72,20.72 0 0 0 -14,-4.86 20.29,20.29 0 0 0 -13.63,4.65 q -5.52,4.68 -6.83,13.29 z"
     id="path8101" />
  <path
     d="m 488,144.74 a 41.61,41.61 0 0 1 -16.85,-12.83 33.75,33.75 0 0 1 -6.93,-18.26 h 31.65 a 12.15,12.15 0 0 0 5,8.8 17.88,17.88 0 0 0 11.13,3.37 c 4,0 7.08,-0.77 9.27,-2.34 a 7.17,7.17 0 0 0 3.28,-6.08 c 0,-3 -1.57,-5.21 -4.68,-6.65 A 95.69,95.69 0 0 0 504.7,105.97 140.47,140.47 0 0 1 486,100.45 32.26,32.26 0 0 1 473,91.24 q -5.43,-6.27 -5.43,-16.94 a 28.76,28.76 0 0 1 5,-16.39 q 5,-7.4 14.61,-11.7 9.61,-4.3 22.94,-4.31 19.67,0 31,9.74 11.33,9.74 13,25.84 h -29.59 a 12.72,12.72 0 0 0 -4.78,-8.61 q -4,-3.2 -10.58,-3.19 c -3.74,0 -6.62,0.72 -8.61,2.16 a 6.86,6.86 0 0 0 -3,5.89 q 0,4.5 4.78,6.75 4.78,2.25 14.88,4.49 a 164.58,164.58 0 0 1 18.92,5.9 32.68,32.68 0 0 1 12.86,9.37 q 5.53,6.47 5.72,17.32 a 27.51,27.51 0 0 1 -5.15,16.39 34,34 0 0 1 -14.8,11.33 56.69,56.69 0 0 1 -22.37,4.12 60.1,60.1 0 0 1 -24.4,-4.66 z"
     id="path8103" />
  <path
     d="m 583.55,144.74 a 41.61,41.61 0 0 1 -16.85,-12.83 33.75,33.75 0 0 1 -6.93,-18.26 h 31.65 a 12.15,12.15 0 0 0 5.05,8.8 17.88,17.88 0 0 0 11,3.37 c 4,0 7.09,-0.77 9.27,-2.34 a 7.17,7.17 0 0 0 3.28,-6.08 c 0,-3 -1.56,-5.21 -4.68,-6.65 a 95.34,95.34 0 0 0 -15.17,-4.78 140.47,140.47 0 0 1 -18.73,-5.52 32.26,32.26 0 0 1 -12.87,-9.21 q -5.43,-6.27 -5.43,-16.94 a 28.76,28.76 0 0 1 5,-16.39 q 5,-7.4 14.61,-11.7 9.61,-4.3 22.94,-4.31 19.67,0 31,9.74 11.33,9.74 13,25.84 h -29.62 a 12.72,12.72 0 0 0 -4.78,-8.61 q -4,-3.2 -10.58,-3.19 -5.61,0 -8.61,2.16 a 6.86,6.86 0 0 0 -3,5.89 q 0,4.5 4.78,6.75 4.78,2.25 14.89,4.49 a 164.33,164.33 0 0 1 18.91,5.9 32.79,32.79 0 0 1 12.83,9.37 q 5.52,6.47 5.71,17.32 a 27.51,27.51 0 0 1 -5.15,16.39 34.07,34.07 0 0 1 -14.79,11.33 56.74,56.74 0 0 1 -22.38,4.12 60.1,60.1 0 0 1 -24.35,-4.66 z"
     id="path8105" />
  <path
     d="m 680.78,142.87 a 48,48 0 0 1 -19.29,-18.73 q -7,-12.16 -7,-28.47 0,-16.1 7.11,-28.37 a 48.45,48.45 0 0 1 19.48,-18.82 61.91,61.91 0 0 1 55.43,0 A 48.45,48.45 0 0 1 756,67.3 q 7.11,12.27 7.11,28.37 0,16.1 -7.21,28.37 a 48.79,48.79 0 0 1 -19.66,18.83 58.76,58.76 0 0 1 -27.81,6.55 57.64,57.64 0 0 1 -27.65,-6.55 z M 724,114.96 q 6.45,-6.74 6.46,-19.29 0.01,-12.55 -6.28,-19.28 a 21.29,21.29 0 0 0 -31,-0.1 Q 687,82.95 687,95.67 q 0,12.56 6.09,19.29 a 19.66,19.66 0 0 0 15.26,6.74 20.85,20.85 0 0 0 15.65,-6.74 z"
     id="path8107" />
  <path
     d="m 865.1,54.24 q 11,11.9 11,32.67 v 61.05 H 844.22 V 91.18 q 0,-10.49 -5.43,-16.29 -5.43,-5.8 -14.6,-5.81 -9.18,0 -14.61,5.81 -5.43,5.81 -5.43,16.29 v 56.74 h -32 V 43.43 h 32 v 13.86 a 33.75,33.75 0 0 1 13.11,-11 41.71,41.71 0 0 1 18.54,-4 q 18.35,0.01 29.3,11.95 z"
     id="path8109" />
  <path
     class="cls-1"
     d="m 280.56,282.01 v -25.84 l 59.18,-84.65 h 35.77 v 82.77 h 15.35 v 27.72 h -15.35 v 24.34 h -32 v -24.34 z m 65.17,-75.28 -31.46,47.56 h 31.46 z"
     id="path8111" />
  <path
     d="m 525.69,174.89 v 25.66 h -53.56 v 27.69 h 40.07 v 24.91 h -40.07 v 53.18 h -32 V 174.89 Z"
     id="path8113" />
  <path
     d="m 634.73,201.86 v 104.49 h -32 v -14.23 a 35.21,35.21 0 0 1 -13.22,11.12 40.32,40.32 0 0 1 -18.45,4.22 41.27,41.27 0 0 1 -21.16,-5.34 36,36 0 0 1 -14.23,-15.45 q -5.05,-10.11 -5.06,-23.78 v -61 h 31.84 v 56.74 q 0,10.49 5.43,16.29 5.43,5.8 14.6,5.81 9.36,0 14.8,-5.81 5.44,-5.81 5.43,-16.29 v -56.77 z"
     id="path8115" />
  <path
     d="m 708.55,279.24 v 27.15 h -16.29 q -17.41,0 -27.16,-8.52 -9.75,-8.52 -9.73,-27.81 v -41.61 h -12.74 v -26.59 h 12.74 v -25.47 h 32 v 25.47 h 21 v 26.59 h -21 v 41.95 q 0,4.68 2.24,6.74 c 1.5,1.38 4,2.06 7.49,2.06 z"
     id="path8117" />
  <path
     d="m 821.64,201.86 v 104.49 h -32 v -14.23 a 35.05,35.05 0 0 1 -13.23,11.12 40.24,40.24 0 0 1 -18.41,4.24 41.25,41.25 0 0 1 -21.16,-5.34 36,36 0 0 1 -14.24,-15.45 q -5.05,-10.11 -5.05,-23.78 v -61 h 31.83 v 56.74 q 0,10.49 5.43,16.29 5.43,5.8 14.61,5.81 9.36,0 14.79,-5.81 5.43,-5.81 5.43,-16.29 v -56.79 z"
     id="path8119" />
  <path
     d="m 882.78,205.7 a 36.17,36.17 0 0 1 18.72,-5 v 33.89 h -8.8 q -12,0 -18,5.15 -6,5.15 -6,18.07 v 48.5 h -32 V 201.86 h 32 v 17.38 a 42.3,42.3 0 0 1 14.08,-13.54 z"
     id="path8121" />
  <path
     d="m 1007,261.78 h -72.46 q 0.74,9.75 6.27,14.89 a 19.13,19.13 0 0 0 13.57,5.15 q 12,0 16.67,-10.11 h 34.08 a 46.83,46.83 0 0 1 -9.45,18.54 47.38,47.38 0 0 1 -17.14,12.92 55,55 0 0 1 -23,4.68 56,56 0 0 1 -27.34,-6.55 46.64,46.64 0 0 1 -18.73,-18.73 q -6.74,-12.17 -6.74,-28.46 0,-16.29 6.65,-28.47 A 46,46 0 0 1 928,206.92 q 12,-6.55 27.53,-6.56 a 56,56 0 0 1 27,6.37 45.71,45.71 0 0 1 18.44,18.16 q 6.64,11.8 6.65,27.53 a 82.59,82.59 0 0 1 -0.62,9.36 z m -32.21,-17.79 q 0,-8.24 -5.62,-13.1 a 20.68,20.68 0 0 0 -14,-4.87 20.28,20.28 0 0 0 -13.57,4.68 q -5.53,4.68 -6.84,13.29 z"
     id="path8123" />
</svg>
