<?xml version="1.0" encoding="UTF-8" standalone="no"?>
<svg
   id="Warstwa_1"
   data-name="Warstwa 1"
   viewBox="0 0 344.97018 97.67038"
   version="1.1"
   width="344.97018"
   height="97.67038"
   xmlns="http://www.w3.org/2000/svg"
   xmlns:svg="http://www.w3.org/2000/svg">
  <defs
     id="defs14890">
    <style
       id="style14888">.cls-1,.cls-2{fill:#343434;}.cls-2{fill-rule:evenodd;}</style>
  </defs>
  <path
     class="cls-1"
     d="m 148.58343,83.808942 -5.51,-15.84 h -22.33 l -5.29,15.84 h -13.17 l 22.42,-63.74 a 19.42,19.42 0 0 1 7.74,-1.35 q 7.14,0 9.08,6 l 20.78,59.09 z m -16.53,-53 -8.8,27.53 h 17.31 z m 59.16,44.72 a 15.4,15.4 0 0 0 6.19,-1.26 12.59,12.59 0 0 0 4.54,-3.38 14.34,14.34 0 0 1 2.22,3.48 9,9 0 0 1 1.07,3.67 4.6,4.6 0 0 1 -2,3.76 c -3.23,2.45 -7.83,3.67 -13.83,3.67 a 25.72,25.72 0 0 1 -12.47,-2.89 19.52,19.52 0 0 1 -8,-8.4 30.06,30.06 0 0 1 -2.7,-13.33 26.83,26.83 0 0 1 2.9,-13 20,20 0 0 1 8.4,-8.11 24.84,24.84 0 0 1 11.89,-2.9 29,29 0 0 1 7.25,0.87 17,17 0 0 1 5.71,2.32 8,8 0 0 1 2.51,2.22 4.11,4.11 0 0 1 0.77,2.51 9,9 0 0 1 -0.87,3.38 15.68,15.68 0 0 1 -2.22,3.57 14.56,14.56 0 0 0 -5,-3.47 14,14 0 0 0 -6.18,-1.45 q -5.81,0 -8.8,3.57 -2.99,3.57 -3,10.33 0,7.24 2.9,11.11 2.9,3.87 8.72,3.69 z m 64.67,-14.78 a 29.19,29.19 0 0 1 -2.8,13.23 19,19 0 0 1 -7.83,8.5 24.64,24.64 0 0 1 -12.18,2.8 q -10.83,0 -16.82,-6.47 -5.99,-6.47 -5.9,-17.77 a 27.2,27.2 0 0 1 2.9,-12.84 20.71,20.71 0 0 1 8.12,-8.5 24.51,24.51 0 0 1 12.08,-2.89 q 10.83,0 16.63,6.37 5.8,6.37 5.8,17.53 z m -13.24,0.1 q 0,-14 -9.38,-14 a 8.19,8.19 0 0 0 -7.25,3.77 q -2.51,3.77 -2.51,10.33 0,7 2.41,10.72 a 8.09,8.09 0 0 0 7.16,3.77 q 9.57,-0.05 9.57,-14.63 z m 36.21,-18.16 a 14.66,14.66 0 0 1 4.64,-4.25 12,12 0 0 1 6,-1.64 9.63,9.63 0 0 1 5.31,1.26 3.66,3.66 0 0 1 2,3.38 11.27,11.27 0 0 1 -0.48,2.89 21.5,21.5 0 0 1 -1.16,3.48 21,21 0 0 1 -1.54,3.19 11.75,11.75 0 0 0 -3.48,-2.13 9.61,9.61 0 0 0 -3.68,-0.67 7.71,7.71 0 0 0 -5,1.73 5.29,5.29 0 0 0 -2,4.16 v 29.72 h -13.18 v -45.7 l 1.16,-0.19 a 25.44,25.44 0 0 1 3.19,-0.19 10.49,10.49 0 0 1 5.41,1.25 5.59,5.59 0 0 1 2.81,3.67 z m 37.39,41.12 h -13.24 v -45.7 l 1.16,-0.19 a 25.44,25.44 0 0 1 3.19,-0.19 q 7.16,0 8.22,5 4.44,-6 14.2,-6 6.19,0 9.77,2.41 a 11.37,11.37 0 0 1 4.64,7.44 48.26,48.26 0 0 1 0.77,9.95 v 27.28 h -13.15 v -26.67 a 20.82,20.82 0 0 0 -0.67,-6.38 4.16,4.16 0 0 0 -2.13,-2.6 7.93,7.93 0 0 0 -4.06,-0.87 11.56,11.56 0 0 0 -6.18,1.54 q -2.52,1.46 -2.52,3.67 z"
     id="path14892" />
  <path
     class="cls-2"
     d="m 44.163426,11.178942 c 32.35,1.55 32.18,20.69 32.09,22.53 -0.09,1.84 -2.32,5.61 -11.31,5.61 H 8.4534264 c 0,0 -7.4,-0.1 -8.43999999,-5.61 -0.36,-7.11 6.38999999,-21.35 35.93999959,-22.55 a 14.86,14.86 0 0 1 1.61,-3.9199997 18.73,18.73 0 0 1 4.45,-5.06 19,19 0 0 1 1.75,-1.27000002 c 0.23,-0.15 0.56,-0.34 0.56,-0.34 l 0.17,-0.1 h 0.06 v 0 c 0,0 -3.35,2.12000002 0,0 a 3.8639423,3.8639423 0 0 1 3.69,6.79000002 v 0 l -0.28,0.18 a 12.4,12.4 0 0 0 -1.09,0.78 11.17,11.17 0 0 0 -2.62,2.9999997 z m -32.62,64.49 c -6.4199996,-10.18 -5.8499996,-25 -4.7599996,-31.11 H 69.073426 v 0.14 c 1.11,10.08 2,18.2 -4.12,30 -6.12,11.8 -18.82,18.21 -21.15,19.11 a 9.24,9.24 0 0 0 -3.35,2.38 5.34,5.34 0 0 1 -1.35,1.12 4,4 0 0 0 -0.5,0.24 c -0.35,0.19 -0.36,0.19 -1.27,-0.24 a 4.47,4.47 0 0 1 -1.28,-1.08 9.32,9.32 0 0 0 -3.35,-2.42 l -0.26,-0.12 a 44.49,44.49 0 0 1 -20.9,-18.02 z"
     id="path14894" />
</svg>
