<?xml version="1.0" encoding="UTF-8" standalone="no"?>
<svg
   id="Warstwa_1"
   data-name="Warstwa 1"
   viewBox="0 0 158.48521 227.98056"
   version="1.1"
   width="158.48521"
   height="227.98056"
   xmlns="http://www.w3.org/2000/svg"
   xmlns:svg="http://www.w3.org/2000/svg">
  <defs
     id="defs13529">
    <style
       id="style13527">.cls-1{fill:#343434;}</style>
  </defs>
  <polygon
     class="cls-1"
     points="127.95,313.79 127.95,296.71 140.87,296.71 140.87,299.88 131.91,299.88 131.91,304.39 139.82,304.39 139.82,307.57 131.91,307.57 131.91,313.79 "
     id="polygon13531"
     transform="translate(-120.76836,-86.013223)" />
  <path
     class="cls-1"
     d="m 31.761638,221.21678 a 3.37,3.37 0 1 0 -3.34,3.63 3.32,3.32 0 0 0 3.34,-3.63 m -10.57,0 c 0,-4 3,-6.77 7.23,-6.77 4.23,0 7.2,2.81 7.2,6.77 0,3.96 -3,6.76 -7.2,6.76 -4.2,0 -7.23,-2.81 -7.23,-6.76"
     id="path13533" />
  <path
     class="cls-1"
     d="m 51.391638,214.64678 v 13.13 h -3.61 v -1.56 a 5.31,5.31 0 0 1 -4.08,1.76 c -3.29,0 -5.61,-1.86 -5.61,-5.91 v -7.42 h 3.81 v 6.86 c 0,2.19 1,3.17 2.66,3.17 1.66,0 3,-1.12 3,-3.54 v -6.49 z"
     id="path13535" />
  <path
     class="cls-1"
     d="m 68.361638,220.25678 v 7.52 h -3.81 v -6.93 c 0,-2.12 -1,-3.1 -2.66,-3.1 -1.66,0 -3.15,1.12 -3.15,3.54 v 6.49 h -3.81 v -13.13 h 3.64 v 1.54 a 5.71,5.71 0 0 1 4.34,-1.74 c 3.1,0 5.45,1.81 5.45,5.81"
     id="path13537" />
  <path
     class="cls-1"
     d="m 81.861638,221.19678 a 3.37,3.37 0 1 0 -3.35,3.64 3.33,3.33 0 0 0 3.35,-3.64 m 3.73,-11.54 v 18.11 h -3.64 v -1.51 a 5.06,5.06 0 0 1 -4.1,1.7 6.76,6.76 0 0 1 0,-13.52 5,5 0 0 1 3.93,1.59 v -6.37 z"
     id="path13539" />
  <path
     class="cls-1"
     d="m 96.651638,223.62678 v -1.34 h -2.62 c -1.78,0 -2.34,0.66 -2.34,1.54 0,0.88 0.81,1.58 2.15,1.58 a 2.8,2.8 0 0 0 2.81,-1.78 m 3.810002,-3.34 v 7.49 h -3.570002 v -1.63 c -0.71,1.19 -2.07,1.83 -4,1.83 -3.08,0 -4.91,-1.71 -4.91,-4 0,-2.29 1.64,-3.93 5.64,-3.93 h 3 c 0,-1.64 -1,-2.59 -3,-2.59 a 6.35,6.35 0 0 0 -3.78,1.22 l -1.37,-2.66 a 10.13,10.13 0 0 1 5.66,-1.59 c 4,0 6.330002,1.86 6.330002,5.84"
     id="path13541" />
  <path
     class="cls-1"
     d="m 112.37164,227.14678 a 5.45,5.45 0 0 1 -3.1,0.83 c -3.1,0 -4.91,-1.59 -4.91,-4.71 v -5.4 h -2 v -2.88 h 2 v -3.19 h 3.81 v 3.19 h 3.27 v 2.93 h -3.27 v 5.35 a 1.53,1.53 0 0 0 1.63,1.73 2.55,2.55 0 0 0 1.54,-0.49 l 1,2.69 z"
     id="path13543" />
  <path
     class="cls-1"
     d="m 114.52164,214.64678 h 3.8 v 13.13 h -3.8 z m -0.47,-4 a 2.18,2.18 0 0 1 2.37,-2.13 2.14,2.14 0 0 1 2.37,2.05 2.38,2.38 0 0 1 -4.74,0.08"
     id="path13545" />
  <path
     class="cls-1"
     d="m 131.46164,221.21678 a 3.37,3.37 0 1 0 -3.35,3.63 3.32,3.32 0 0 0 3.35,-3.63 m -10.57,0 c 0,-4 3.05,-6.77 7.22,-6.77 4.17,0 7.2,2.81 7.2,6.77 0,3.96 -3,6.76 -7.2,6.76 -4.2,0 -7.22,-2.81 -7.22,-6.76"
     id="path13547" />
  <path
     class="cls-1"
     d="m 151.28164,220.25678 v 7.52 h -3.81 v -6.93 c 0,-2.12 -1,-3.1 -2.66,-3.1 -1.66,0 -3.15,1.12 -3.15,3.54 v 6.49 h -3.81 v -13.13 h 3.64 v 1.54 a 5.71,5.71 0 0 1 4.34,-1.74 c 3.1,0 5.45,1.81 5.45,5.81"
     id="path13549" />
  <polygon
     class="cls-1"
     points="127.95,263.89 132.94,263.89 145.9,279.71 145.9,263.89 151.86,263.89 151.86,289.95 146.91,289.95 133.91,274.13 133.91,289.95 127.95,289.95 "
     id="polygon13551"
     transform="translate(-120.76836,-86.013223)" />
  <path
     class="cls-1"
     d="m 41.331638,192.42678 h 9.9 a 5,5 0 0 0 -9.86,0 m 15.23,3.39 h -15.2 c 0.56,2.49 2.68,4 5.73,4 a 6.77,6.77 0 0 0 5,-1.94 l 3.09,3.35 c -1.86,2.13 -4.65,3.24 -8.26,3.24 -6.93,0 -11.44,-4.35 -11.44,-10.31 0,-5.96 4.58,-10.32 10.69,-10.32 5.89,0 10.43,3.95 10.43,10.39 0,0.45 -0.08,1.08 -0.11,1.57"
     id="path13553" />
  <path
     class="cls-1"
     d="m 80.911638,184.15678 v 20 h -5.51 v -2.39 a 8.12,8.12 0 0 1 -6.17,2.72 c -5,0 -8.57,-2.83 -8.57,-9 v -11.33 h 5.81 v 10.47 c 0,3.35 1.49,4.84 4.06,4.84 2.57,0 4.62,-1.72 4.62,-5.4 v -9.91 z"
     id="path13555" />
  <path
     class="cls-1"
     d="m 98.931638,183.85678 v 5.37 c -0.49,0 -0.86,-0.08 -1.31,-0.08 -3.2,0 -5.32,1.75 -5.32,5.59 v 9.46 h -5.81 v -20 h 5.55 v 2.65 c 1.41,-1.94 3.8,-2.95 6.89,-2.95"
     id="path13557" />
  <path
     class="cls-1"
     d="m 117.02164,194.17678 c 0,-3.46 -2.19,-5.55 -5.1,-5.55 -2.91,0 -5.14,2.09 -5.14,5.55 0,3.46 2.24,5.55 5.14,5.55 2.9,0 5.1,-2.09 5.1,-5.55 m -16.12,0 c 0,-6 4.65,-10.32 11,-10.32 6.35,0 11,4.29 11,10.32 0,6.03 -4.62,10.32 -11,10.32 -6.38,0 -11,-4.29 -11,-10.32"
     id="path13559" />
  <polygon
     class="cls-1"
     points="248.14,263.89 253.13,263.89 266.09,279.71 266.09,263.89 272.05,263.89 272.05,289.95 267.1,289.95 254.1,274.13 254.1,289.95 248.14,289.95 "
     id="polygon13561"
     transform="translate(-120.76836,-86.013223)" />
  <path
     class="cls-1"
     d="m 43.621638,93.666777 c -15.5,0.77 -21.64,1.56 -36.7800004,5.62 -16.9999996,-6.81 1.93,-57.63 11.0000004,-45.08 7.53,10.38 14.57,28.29 25.74,39.46"
     id="path13563" />
  <path
     class="cls-1"
     d="m 74.411638,111.62678 c 0,18.11 -2.52,52 -2.52,52 0,0 -24.43,16.49 -29.34,0.44 -8.87,-2.56 -12,-3.52 -16.38,-17.67 7.63,-15 18.42,-18.15 18.12,-18.49 -5.85,-2.68 -22.94,14.32 -22.94,14.32 0,0 -21.6400004,-23.95 -15.5100004,-34.78 6.2700004,-11.070003 64.0000004,-12.000003 68.5700004,4.16"
     id="path13565" />
  <path
     class="cls-1"
     d="m 49.931638,36.926777 c -2,-4.28 -3.62,-8.7 -3,-13.37 3.85,-30.43 29.61,-29.83 29.25,-7.08 -0.27,17.48 -1.33,48.63 -1.33,48.63 0,0 -17.68,-12.48 -24.88,-28.18"
     id="path13567" />
  <path
     class="cls-1"
     d="m 74.061638,100.77678 c 0,0 0.75,-22.090003 0.75,-27.000003 -5.65,-4.46 -10.45,-8.68 -17.42,-15.16 -5.82,-5.4 -10.53,30.78 -4.54,34.68 5,3.29 12.7,0.43 21.21,7.530003"
     id="path13569" />
  <path
     class="cls-1"
     d="m 46.741638,89.676777 c 0,0 -25.39,-31.11 -25.39,-40 0,-8.89 5.32,-31.76 16.38,-33.2 9.13,-1.19 3.26,6.88 5,15.37 2.05,10.17 7.26,15.63 9.39,20.53 1.84,4.25 -8.65,13.36 -5.35,37.33"
     id="path13571" />
  <path
     class="cls-1"
     d="m 114.84164,93.666777 c 15.5,0.77 21.64,1.56 36.78,5.62 17.05,-6.81 -1.93,-57.63 -11,-45.08 -7.53,10.38 -14.57,28.29 -25.74,39.46"
     id="path13573" />
  <path
     class="cls-1"
     d="m 84.051638,111.62678 c 0,18.11 2.52,52 2.52,52 0,0 24.430002,16.49 29.340002,0.44 8.87,-2.56 12,-3.52 16.38,-17.67 -7.63,-15 -18.42,-18.15 -18.12,-18.49 5.85,-2.68 22.94,14.32 22.94,14.32 0,0 21.64,-23.95 15.51,-34.78 -6.28,-11.070003 -63.950002,-12.000003 -68.570002,4.16"
     id="path13575" />
  <path
     class="cls-1"
     d="m 108.53164,36.926777 c 2,-4.28 3.63,-8.7 3,-13.37 -3.84,-30.43 -29.600002,-29.83 -29.240002,-7.08 0.27,17.48 1.34,48.63 1.34,48.63 0,0 17.670002,-12.48 24.870002,-28.18"
     id="path13577" />
  <path
     class="cls-1"
     d="m 84.401638,100.77678 c 0,0 -0.74,-22.090003 -0.74,-27.000003 5.64,-4.46 10.44,-8.68 17.410002,-15.16 5.82,-5.4 10.53,30.78 4.54,34.68 -5,3.29 -12.700002,0.43 -21.210002,7.530003"
     id="path13579" />
  <path
     class="cls-1"
     d="m 111.72164,89.676777 c 0,0 25.39,-31.11 25.39,-40 0,-8.89 -5.32,-31.76 -16.38,-33.2 -9.13,-1.19 -3.26,6.88 -5,15.37 -2.06,10.17 -7.26,15.63 -9.39,20.53 -1.84,4.25 8.65,13.36 5.35,37.33"
     id="path13581" />
</svg>
