<?xml version="1.0" encoding="UTF-8" standalone="no"?>
<svg
   id="Warstwa_1"
   data-name="Warstwa 1"
   viewBox="0 0 969.34003 936.10815"
   version="1.1"
   width="969.34003"
   height="936.10815"
   xmlns="http://www.w3.org/2000/svg"
   xmlns:svg="http://www.w3.org/2000/svg">
  <defs
     id="defs7485">
    <style
       id="style7483">.cls-1{fill:#fff;}</style>
  </defs>
  <polygon
     class="cls-1"
     points="375.32,392.62 375.32,71.95 464.58,71.95 464.58,309.97 662.11,309.97 662.11,392.62 596.06,392.62 596.06,538.08 506.8,538.08 506.8,392.62 "
     id="polygon7487"
     transform="translate(-55.33,-71.95)" />
  <rect
     class="cls-1"
     x="457.19003"
     y="110.53"
     width="192.14999"
     height="76.040001"
     id="rect7489" />
  <path
     class="cls-1"
     d="m 139.39,682.51 h 56.13 v 33.08 h -99 v -175.9 h 42.85 z"
     id="path7491" />
  <path
     class="cls-1"
     d="m 335.44,655.95 h -97 q 1,13 8.4,19.92 a 25.59,25.59 0 0 0 18.16,6.89 q 16,0 22.3,-13.53 h 45.61 a 62.68,62.68 0 0 1 -12.63,24.82 63.5,63.5 0 0 1 -22.93,17.29 73.59,73.59 0 0 1 -30.82,6.26 q -20.55,0 -36.59,-8.77 a 62.28,62.28 0 0 1 -25,-25 q -9,-16.29 -9,-38.09 0,-21.8 8.89,-38.09 a 61.59,61.59 0 0 1 24.84,-25.12 q 16,-8.76 36.84,-8.77 20.29,0 36.08,8.52 a 61.17,61.17 0 0 1 24.68,24.31 q 8.89,15.78 8.9,36.83 a 109.6,109.6 0 0 1 -0.73,12.53 z m -43.1,-23.8 q 0,-11 -7.52,-17.54 -7.52,-6.54 -18.79,-6.56 -10.78,0 -18.17,6.27 -7.39,6.27 -9.19,17.83 z"
     id="path7493" />
  <path
     class="cls-1"
     d="m 370.87,711.33 q -14.29,-6.27 -22.56,-17.17 a 45.16,45.16 0 0 1 -9.27,-24.43 h 42.35 a 16.28,16.28 0 0 0 6.77,11.78 23.9,23.9 0 0 0 14.78,4.54 q 8,0 12.4,-3.13 a 9.61,9.61 0 0 0 4.39,-8.15 q 0,-6 -6.27,-8.89 -6.27,-2.89 -20.29,-6.39 a 190.3,190.3 0 0 1 -25.06,-7.44 43.25,43.25 0 0 1 -17.29,-12.28 q -7.27,-8.4 -7.27,-22.68 a 38.54,38.54 0 0 1 6.64,-21.92 q 6.64,-9.9 19.55,-15.66 12.91,-5.76 30.69,-5.77 26.31,0 41.47,13 15.16,13 17.42,34.58 h -39.59 a 17.07,17.07 0 0 0 -6.39,-11.52 q -5.4,-4.26 -14.16,-4.26 -7.51,0 -11.52,2.88 a 9.18,9.18 0 0 0 -4,7.89 q 0,6 6.39,9 6.39,3 19.92,6 a 217.25,217.25 0 0 1 25.3,7.89 43.59,43.59 0 0 1 17.17,12.53 q 7.38,8.64 7.64,23.18 a 36.81,36.81 0 0 1 -6.89,21.92 q -6.9,9.64 -19.8,15.16 -12.9,5.52 -29.94,5.51 -18.29,0.09 -32.58,-6.17 z"
     id="path7495" />
  <path
     class="cls-1"
     d="m 498.67,711.33 q -14.28,-6.27 -22.55,-17.17 a 45,45 0 0 1 -9.27,-24.43 h 42.34 a 16.28,16.28 0 0 0 6.77,11.78 23.9,23.9 0 0 0 14.82,4.54 q 8,0 12.41,-3.13 a 9.6,9.6 0 0 0 4.38,-8.15 q 0,-6 -6.26,-8.89 -6.26,-2.89 -20.3,-6.39 a 190.77,190.77 0 0 1 -25.06,-7.44 43.32,43.32 0 0 1 -17.28,-12.26 q -7.26,-8.4 -7.26,-22.68 a 38.46,38.46 0 0 1 6.64,-21.92 q 6.63,-9.9 19.54,-15.66 12.91,-5.76 30.7,-5.77 26.31,0 41.47,13 15.16,13 17.41,34.58 h -39.6 a 17.07,17.07 0 0 0 -6.39,-11.52 q -5.38,-4.26 -14.16,-4.26 -7.51,0 -11.52,2.88 a 9.18,9.18 0 0 0 -4,7.89 q 0,6 6.39,9 6.39,3 19.92,6 a 218.12,218.12 0 0 1 25.31,7.89 43.63,43.63 0 0 1 17.16,12.53 q 7.39,8.64 7.64,23.18 a 36.81,36.81 0 0 1 -6.89,21.92 q -6.89,9.64 -19.79,15.16 -12.9,5.52 -29.95,5.51 -18.3,0.07 -32.62,-6.19 z"
     id="path7497" />
  <path
     class="cls-1"
     d="m 628.81,708.82 a 64.07,64.07 0 0 1 -25.81,-25 q -9.41,-16.29 -9.4,-38.09 0,-21.55 9.52,-38 a 64.71,64.71 0 0 1 26.06,-25.19 q 16.54,-8.76 37.09,-8.77 20.55,-0.01 37.08,8.77 a 64.64,64.64 0 0 1 26.06,25.19 q 9.53,16.41 9.52,38 -0.01,21.59 -9.64,38 a 65.3,65.3 0 0 1 -26.31,25.18 78.68,78.68 0 0 1 -37.22,8.77 q -20.53,-0.09 -36.95,-8.86 z m 57.86,-37.33 q 8.64,-9 8.64,-25.81 0,-16.81 -8.39,-25.81 a 28.48,28.48 0 0 0 -41.47,-0.13 q -8.26,8.89 -8.27,25.94 0,16.79 8.14,25.81 a 26.37,26.37 0 0 0 20.42,9 27.93,27.93 0 0 0 20.93,-9 z"
     id="path7499" />
  <path
     class="cls-1"
     d="m 875.44,590.18 q 14.67,15.92 14.66,43.72 v 81.69 h -42.59 v -75.93 q 0,-14 -7.27,-21.8 -7.27,-7.8 -19.57,-7.76 -12.27,0 -19.54,7.76 -7.27,7.76 -7.27,21.8 v 75.93 H 751.03 V 575.77 h 42.85 v 18.54 a 45.34,45.34 0 0 1 17.54,-14.66 55.79,55.79 0 0 1 24.81,-5.39 q 24.56,0 39.21,15.92 z"
     id="path7501" />
  <path
     class="cls-1"
     d="M 0,901.52 V 866.94 L 79.19,753.69 h 47.86 v 110.75 h 20.54 v 37.08 H 127.05 V 934.1 H 84.2 V 901.52 Z M 87.2,800.79 45.11,864.44 H 87.2 Z"
     id="path7503" />
  <path
     class="cls-1"
     d="m 324.54,758.2 v 34.32 h -71.67 v 37.09 h 53.63 v 33.32 H 252.87 V 934.1 H 210.03 V 758.2 Z"
     id="path7505" />
  <path
     class="cls-1"
     d="M 470.45,794.28 V 934.1 H 427.6 v -19.05 a 47,47 0 0 1 -17.67,14.91 53.88,53.88 0 0 1 -24.68,5.64 q -16,0 -28.31,-7.14 a 48.13,48.13 0 0 1 -19,-20.67 q -6.77,-13.53 -6.76,-31.82 v -81.69 h 42.59 v 75.92 q 0,14 7.27,21.8 7.27,7.8 19.55,7.77 12.53,0 19.79,-7.77 7.26,-7.77 7.27,-21.8 v -75.92 z"
     id="path7507" />
  <path
     class="cls-1"
     d="m 569.22,897.77 v 36.33 h -21.8 q -23.29,0 -36.33,-11.4 -13.04,-11.4 -13,-37.21 v -55.63 h -17 v -35.58 h 17 V 760.2 h 42.85 v 34.08 h 28.03 v 35.58 h -28.06 v 56.13 q 0,6.27 3,9 3,2.73 10,2.76 z"
     id="path7509" />
  <path
     class="cls-1"
     d="M 720.54,794.28 V 934.1 h -42.87 v -19.05 a 46.94,46.94 0 0 1 -17.66,14.91 53.91,53.91 0 0 1 -24.68,5.64 q -16,0 -28.32,-7.14 a 48.17,48.17 0 0 1 -19,-20.67 q -6.77,-13.53 -6.77,-31.82 v -81.69 h 42.6 v 75.92 q 0,14 7.27,21.8 7.27,7.8 19.56,7.77 12.52,0 19.8,-7.77 7.28,-7.77 7.26,-21.8 v -75.92 z"
     id="path7511" />
  <path
     class="cls-1"
     d="m 802.35,799.41 a 48.54,48.54 0 0 1 25.06,-6.64 v 45.36 h -11.74 q -16.05,0 -24.06,6.89 -8.01,6.89 -8,24.18 v 64.9 H 740.67 V 794.28 h 42.85 v 23.3 a 56.65,56.65 0 0 1 18.83,-18.17 z"
     id="path7513" />
  <path
     class="cls-1"
     d="m 968.58,874.46 h -97 q 1,13 8.4,19.92 a 25.59,25.59 0 0 0 18.16,6.89 q 16,0 22.3,-13.53 h 45.61 a 62.57,62.57 0 0 1 -12.66,24.81 63.35,63.35 0 0 1 -22.92,17.29 73.62,73.62 0 0 1 -30.82,6.26 q -20.55,0 -36.59,-8.77 a 62.36,62.36 0 0 1 -25.06,-25 q -9,-16.29 -9,-38.09 0,-21.8 8.9,-38.09 a 61.59,61.59 0 0 1 24.94,-25.1 q 16,-8.76 36.84,-8.77 20.29,0 36.08,8.52 a 61.17,61.17 0 0 1 24.68,24.31 q 8.89,15.78 8.9,36.83 a 109.67,109.67 0 0 1 -0.76,12.52 z m -43.1,-23.8 q 0,-11 -7.51,-17.54 -7.51,-6.54 -18.8,-6.52 -10.77,0 -18.16,6.27 -7.39,6.27 -9.15,17.79 z"
     id="path7515" />
</svg>
