<?xml version="1.0" encoding="UTF-8" standalone="no"?>
<svg
   viewBox="0 0 428.22678 402.35312"
   version="1.1"
   id="svg4605"
   width="428.22678"
   height="402.35312"
   xmlns="http://www.w3.org/2000/svg"
   xmlns:svg="http://www.w3.org/2000/svg">
  <defs
     id="defs4609" />
  <g
     id="freepik--background-complete--inject-56"
     transform="translate(-34.981907,-25.206881)">
    <rect
       y="382.39999"
       width="428.22678"
       height="0.25"
       style="fill:#ebebeb;stroke-width:0.925448"
       id="rect4369"
       x="34.981907" />
    <rect
       x="78.540001"
       y="390.79001"
       width="33.119999"
       height="0.25"
       style="fill:#ebebeb"
       id="rect4371" />
    <rect
       x="133.33"
       y="398"
       width="30.17"
       height="0.25"
       style="fill:#ebebeb"
       id="rect4373" />
    <rect
       x="56.849998"
       y="400.07001"
       width="38.25"
       height="0.25"
       style="fill:#ebebeb"
       id="rect4375" />
    <rect
       x="434"
       y="399.53"
       width="15.9"
       height="0.25"
       style="fill:#ebebeb"
       id="rect4377" />
    <rect
       x="391.47"
       y="399.53"
       width="39.32"
       height="0.25"
       style="fill:#ebebeb"
       id="rect4379" />
    <rect
       x="250"
       y="390.66"
       width="30.33"
       height="0.25"
       style="fill:#ebebeb"
       id="rect4381" />
    <rect
       x="284.67001"
       y="390.66"
       width="72.099998"
       height="0.25"
       style="fill:#ebebeb"
       id="rect4383" />
    <path
       d="M 237,337.8 H 43.91 a 5.71,5.71 0 0 1 -5.7,-5.71 V 60.66 A 5.71,5.71 0 0 1 43.91,55 H 237 a 5.71,5.71 0 0 1 5.71,5.71 V 332.09 A 5.71,5.71 0 0 1 237,337.8 Z M 43.91,55.2 a 5.46,5.46 0 0 0 -5.45,5.46 v 271.43 a 5.46,5.46 0 0 0 5.45,5.46 H 237 a 5.47,5.47 0 0 0 5.46,-5.46 V 60.66 A 5.47,5.47 0 0 0 237,55.2 Z"
       style="fill:#ebebeb"
       id="path4385" />
    <path
       d="m 453.31,337.8 h -193.1 a 5.72,5.72 0 0 1 -5.71,-5.71 V 60.66 A 5.72,5.72 0 0 1 260.21,55 h 193.1 a 5.71,5.71 0 0 1 5.69,5.66 v 271.43 a 5.71,5.71 0 0 1 -5.69,5.71 z M 260.21,55.2 a 5.47,5.47 0 0 0 -5.46,5.46 v 271.43 a 5.47,5.47 0 0 0 5.46,5.46 h 193.1 a 5.47,5.47 0 0 0 5.46,-5.46 V 60.66 a 5.47,5.47 0 0 0 -5.46,-5.46 z"
       style="fill:#ebebeb"
       id="path4387" />
    <path
       d="m 175.67,382.4 h -4 a 90.33,90.33 0 0 1 1.51,-12.94 c 3.18,-19.91 8,-50 -16.88,-84.29 C 141.58,264.88 126.36,234.92 137.48,207.46 147.7,182.22 178.15,165 228,156.24 299.36,143.71 342,122.51 351.24,95 356.96,78 349.77,58.48 329.87,37.07 l 2.93,-2.72 c 21,22.56 28.45,43.4 22.23,61.92 -9.75,29 -53.44,51.15 -126.35,64 -48.39,8.5 -77.83,24.91 -87.49,48.78 -10.43,25.76 4.22,54.39 18.35,73.87 25.85,35.64 20.68,67.95 17.59,87.26 a 87.25,87.25 0 0 0 -1.46,12.22 z"
       style="fill:#f5f5f5"
       id="path4389" />
    <path
       d="m 144.45,198.71 c 11.39,-17.6 11.28,-38.72 1,-54.35 -25.56,22.83 -1,54.35 -1,54.35 z"
       style="fill:#f5f5f5"
       id="path4391" />
    <path
       d="m 226.91,158.61 c 24.56,-9.86 50.7,-4.62 67.56,12 -34.47,26.04 -67.56,-12 -67.56,-12 z"
       style="fill:#f5f5f5"
       id="path4393" />
    <path
       d="m 397.77,66.76 c -8.82,18.91 -26.69,30 -45.33,29.53 5.77,-33.58 45.33,-29.53 45.33,-29.53 z"
       style="fill:#f5f5f5"
       id="path4395" />
    <path
       d="m 166.49,297.73 c -9.58,-12.31 -10.85,-28 -4.2,-40.23 20.38,15.28 4.2,40.23 4.2,40.23 z"
       style="fill:#f5f5f5"
       id="path4397" />
    <path
       d="m 341.41,47.24 c -15.6,0.22 -28.88,-8.2 -34.65,-20.89 24.48,-7.06 34.65,20.89 34.65,20.89 z"
       style="fill:#f5f5f5"
       id="path4399" />
    <path
       d="m 415.89,382.4 h -2.68 c 0,-9.63 -8.15,-15.28 -16.78,-21.26 C 385,353.2 372,344.19 381.67,324.33 c 4.68,-9.59 12.36,-17 19.79,-24.17 18.52,-17.88 34.52,-33.32 0.2,-76.22 -31.05,-38.82 -43.25,-69.36 -35.28,-88.32 5.09,-12.1 18.11,-19.28 38.7,-21.34 l 0.26,2.68 c -19.53,2 -31.8,8.58 -36.48,19.7 -7.57,18 4.5,47.6 34.9,85.6 35.85,44.82 18.22,61.83 -0.44,79.84 -7.26,7 -14.77,14.25 -19.23,23.41 -8.67,17.79 2.28,25.38 13.87,33.42 8.82,6.07 17.93,12.44 17.93,23.47 z"
       style="fill:#f5f5f5"
       id="path4401" />
    <path
       d="m 419,282.58 c 2.08,-13.93 11.51,-24.52 23.65,-27.81 2.72,22.83 -23.65,27.81 -23.65,27.81 z"
       style="fill:#f5f5f5"
       id="path4403" />
    <path
       d="m 403.25,223.93 c -8,-15.87 -23.5,-24.83 -39.35,-24 5.77,28.47 39.35,24 39.35,24 z"
       style="fill:#f5f5f5"
       id="path4405" />
    <path
       d="m 357.93,101.79 c -3.95,13.45 0.14,27 9.73,35 12,-19.47 -9.73,-35 -9.73,-35 z"
       style="fill:#f5f5f5"
       id="path4407" />
    <path
       d="m 381.83,327.51 c 5.61,-8.85 5.46,-19.4 0.23,-27.17 -12.64,11.53 -0.23,27.17 -0.23,27.17 z"
       style="fill:#f5f5f5"
       id="path4409" />
    <path
       d="m 395,117 c 7.76,7 18.19,8.69 26.73,4.85 C 412.53,107.41 395,117 395,117 Z"
       style="fill:#f5f5f5"
       id="path4411" />
    <path
       d="m 240.43,382.4 h -2.89 c 0,-10.37 -8.78,-16.46 -18.08,-22.91 -12.34,-8.55 -26.32,-18.25 -15.89,-39.65 5,-10.32 13.3,-18.31 21.3,-26 20,-19.26 37.2,-35.9 0.23,-82.11 -33.46,-41.82 -46.6,-74.72 -38,-95.15 5.48,-13 19.51,-20.76 41.69,-23 l 0.28,2.88 c -21,2.1 -34.26,9.25 -39.3,21.22 -8.15,19.39 4.85,51.28 37.6,92.22 38.62,48.28 19.63,66.6 -0.48,86 -7.82,7.55 -15.9,15.35 -20.71,25.22 -9.34,19.17 2.45,27.35 14.94,36 9.49,6.58 19.31,13.39 19.31,25.28 z"
       style="fill:#f5f5f5"
       id="path4413" />
    <path
       d="m 243.78,274.87 c 2.23,-15 12.39,-26.41 25.47,-30 2.93,24.63 -25.47,30 -25.47,30 z"
       style="fill:#f5f5f5"
       id="path4415" />
    <path
       d="m 226.81,211.69 c -8.62,-17.1 -25.32,-26.75 -42.4,-25.82 6.23,30.63 42.4,25.82 42.4,25.82 z"
       style="fill:#f5f5f5"
       id="path4417" />
    <path
       d="m 178,80.11 c -4.25,14.49 0.15,29 10.49,37.72 C 201.4,96.84 178,80.11 178,80.11 Z"
       style="fill:#f5f5f5"
       id="path4419" />
    <path
       d="m 203.74,323.27 c 6,-9.53 5.87,-20.9 0.24,-29.27 -13.62,12.42 -0.24,29.27 -0.24,29.27 z"
       style="fill:#f5f5f5"
       id="path4421" />
    <path
       d="m 217.92,96.47 c 8.36,7.58 19.59,9.36 28.79,5.23 -9.91,-15.54 -28.79,-5.23 -28.79,-5.23 z"
       style="fill:#f5f5f5"
       id="path4423" />
    <path
       d="m 82.23,117.33 18.28,18.28 c 0,0 -3.86,25.67 -11.83,18 -7.97,-7.67 -6.27,-12.31 -6.27,-12.31 0,0 -15.53,8.7 -20.48,-9.04 -4.95,-17.74 20.3,-14.93 20.3,-14.93 z"
       style="fill:#ebebeb"
       id="path4425" />
    <path
       d="m 82.23,117.33 18.28,18.28 c 0,0 25.68,-3.86 18,-11.83 -7.68,-7.97 -12.3,-6.27 -12.3,-6.27 0,0 8.65,-15.51 -9.05,-20.51 -17.7,-5 -14.93,20.33 -14.93,20.33 z"
       style="fill:#fafafa"
       id="path4427" />
    <circle
       cx="81.040001"
       cy="116.14"
       r="2.8800001"
       style="fill:#e0e0e0"
       id="circle4429" />
    <path
       d="m 101.76,136.85 v 0 a 2,2 0 0 1 -2.84,0 L 80.63,117.39 82.3,115.72 101.71,134 a 2,2 0 0 1 0.05,2.85 z"
       style="fill:#e0e0e0"
       id="path4431" />
    <path
       d="m 428,164.7 -9,17.12 c 0,0 -19.21,2.91 -15.51,-4.48 3.7,-7.39 7.42,-7.2 7.42,-7.2 0,0 -9.6,-9.21 2,-16.66 11.6,-7.45 15.09,11.22 15.09,11.22 z"
       style="fill:#fafafa"
       id="path4433" />
    <path
       d="m 428,164.7 -9,17.12 c 0,0 8.44,17.5 12.45,10.28 4.01,-7.22 1.76,-10.18 1.76,-10.18 0,0 13,2.73 12.65,-11 C 445.51,157.19 428,164.7 428,164.7 Z"
       style="fill:#f0f0f0"
       id="path4435" />
    <path
       d="m 430.51,164.6 a 2.16,2.16 0 1 1 -0.9,-2.92 2.15,2.15 0 0 1 0.9,2.92 z"
       style="fill:#e0e0e0"
       id="path4437" />
    <path
       d="m 418.37,183 v 0 a 1.48,1.48 0 0 1 -0.6,-2 l 9.85,-17.37 1.56,0.83 -8.79,17.92 a 1.48,1.48 0 0 1 -2.02,0.62 z"
       style="fill:#e0e0e0"
       id="path4439" />
    <path
       d="m 167.87,47.68 -6.32,12 c 0,0 -13.44,2 -10.85,-3.13 2.59,-5.13 5.19,-5 5.19,-5 0,0 -6.72,-6.44 1.37,-11.65 8.09,-5.21 10.61,7.78 10.61,7.78 z"
       style="fill:#fafafa"
       id="path4441" />
    <path
       d="m 167.87,47.68 -6.32,12 c 0,0 5.9,12.25 8.71,7.2 2.81,-5.05 1.23,-7.13 1.23,-7.13 0,0 9.11,1.91 8.85,-7.71 -0.26,-9.62 -12.47,-4.36 -12.47,-4.36 z"
       style="fill:#f0f0f0"
       id="path4443" />
    <path
       d="m 169.62,47.6 a 1.51,1.51 0 1 1 -0.63,-2 1.51,1.51 0 0 1 0.63,2 z"
       style="fill:#e0e0e0"
       id="path4445" />
    <path
       d="m 161.12,60.46 v 0 A 1,1 0 0 1 160.7,59 l 6.89,-12.15 1.09,0.57 -6.14,12.58 a 1,1 0 0 1 -1.42,0.46 z"
       style="fill:#e0e0e0"
       id="path4447" />
  </g>
  <g
     id="freepik--Shadow--inject-56"
     transform="translate(-34.981907,-25.206881)">
    <ellipse
       id="freepik--path--inject-56"
       cx="250"
       cy="416.23999"
       rx="193.89"
       ry="11.32"
       style="fill:#f5f5f5" />
  </g>
  <g
     id="freepik--Head--inject-56"
     transform="translate(-34.981907,-25.206881)">
    <path
       d="M 371.37,184.33 C 398.42,113.92 333.83,48.83 250.58,72.22 c -36.92,10.37 -51.17,46 -59.94,84.82 -5.26,9.94 -16.11,27.77 -31.28,39.07 a 8.82,8.82 0 0 0 -0.43,13.82 c 6.61,5.56 14.85,7.69 19.78,8.49 -1.35,6.25 -2.81,12.24 -4.48,17.85 -10.83,36.5 20.39,55.28 55.6,58.83 a 132,132 0 0 1 1.94,35.37 c -1.21,15.58 13,27.91 28.33,24.82 l 69,-13.93 a 23.68,23.68 0 0 0 18.93,-25.24 564.57,564.57 0 0 1 -0.16,-89.87 c 7.99,-9.44 15.77,-21.83 23.5,-41.92 z"
       style="fill:#60a3ab"
       id="path4452" />
    <path
       d="M 371.37,184.33 C 398.42,113.92 333.83,48.83 250.58,72.22 c -36.92,10.37 -51.17,46 -59.94,84.82 -5.26,9.94 -16.11,27.77 -31.28,39.07 a 8.82,8.82 0 0 0 -0.43,13.82 c 6.61,5.56 14.85,7.69 19.78,8.49 -1.35,6.25 -2.81,12.24 -4.48,17.85 -10.83,36.5 20.39,55.28 55.6,58.83 a 132,132 0 0 1 1.94,35.37 c -1.21,15.58 13,27.91 28.33,24.82 l 69,-13.93 a 23.68,23.68 0 0 0 18.93,-25.24 564.57,564.57 0 0 1 -0.16,-89.87 c 7.99,-9.44 15.77,-21.83 23.5,-41.92 z"
       style="opacity:0.6;fill:#ffffff"
       id="path4454" />
    <path
       d="M 378.08,415 H 207.66 a 9.94,9.94 0 0 1 -9.51,-12.84 l 19.56,-64 a 10,10 0 0 1 6.22,-6.48 l 125.64,-44 a 9.93,9.93 0 0 1 13,7.12 l 25.23,108 a 9.94,9.94 0 0 1 -9.72,12.2 z"
       style="fill:#60a3ab"
       id="path4456" />
    <path
       d="m 268.68,91.87 a 15,15 0 0 0 -24.83,8.79 12.28,12.28 0 0 0 -15.52,6 l 13.39,5.69 a 8.35,8.35 0 1 0 13.44,5.7 l 14.71,6.25 6.25,-14.71 a 8.34,8.34 0 0 1 -8.26,-4.45 8.06,8.06 0 0 1 -0.42,-1 c -0.11,-0.3 -0.2,-0.6 -0.28,-0.91 a 8.29,8.29 0 0 1 -0.24,-1.93 c 0,0 0,0 0,-0.07 a 8.48,8.48 0 0 1 0.67,-3.25 8.34,8.34 0 0 1 14.25,-1.88 l 4.1,-9.65 a 16.07,16.07 0 0 0 -17.25,5.34 z"
       style="fill:#ffffff"
       id="path4458" />
    <path
       d="m 261.23,155 a 8.26,8.26 0 0 0 4.52,0.56 8.33,8.33 0 0 0 -1.34,-16.56 6.79,6.79 0 0 0 -0.78,0 v 0 l 6.24,-14.71 -14.71,-6.25 a 8.27,8.27 0 0 1 -0.61,4.13 8.35,8.35 0 1 1 -12.83,-9.83 l -13.39,-5.69 a 12.27,12.27 0 0 0 2.17,14 15,15 0 0 0 -8.67,23 v 0 l 0.22,0.29 a 15.13,15.13 0 0 0 5.41,4.6 c 6.27,3.81 16.27,7 28,9.58 l 2.44,-5.73 a 8.25,8.25 0 0 0 3.33,2.61 z"
       style="opacity:0.1"
       id="path4460" />
    <path
       d="m 328.82,115 a 8.35,8.35 0 0 1 5,6.44 9.24,9.24 0 0 1 0.1,1.18 v 0.08 A 8.35,8.35 0 0 1 319,127.83 l -6.24,14.7 v 0 l 14.71,6.24 a 8.35,8.35 0 1 0 13.44,5.71 l 13.49,5.73 a 12.32,12.32 0 0 0 -7.14,-15.63 15,15 0 0 0 -12.34,-23.27 16.06,16.06 0 0 0 -5.17,-12.94 16.23,16.23 0 0 0 -1.87,-1.46 l -3.17,7.47 a 8.27,8.27 0 0 1 4.11,0.62 z"
       style="fill:#ffffff"
       id="path4462" />
    <path
       d="m 278.52,93.64 a 8.35,8.35 0 0 0 -10.94,4.42 8.48,8.48 0 0 0 -0.67,3.25 c 0,0 0,0 0,0.07 a 8.29,8.29 0 0 0 0.24,1.93 c 0.08,0.31 0.17,0.61 0.28,0.91 a 8.06,8.06 0 0 0 0.42,1 8.34,8.34 0 0 0 8.26,4.45 v 0 l -6.25,14.71 v 0 l 14.7,6.25 a 8.93,8.93 0 0 1 0,-2 0.17,0.17 0 0 1 0,-0.07 c 0,0 0,-0.09 0,-0.13 a 8.32,8.32 0 0 1 9.63,-6.88 7.88,7.88 0 0 1 1.86,0.54 v 0 a 8.35,8.35 0 0 1 4.52,10.91 8.25,8.25 0 0 1 -1.78,2.63 9.72,9.72 0 0 1 -0.76,0.68 l 14.71,6.24 6.24,-14.7 a 8.35,8.35 0 0 0 14.92,-5.13 v -0.08 a 9.24,9.24 0 0 0 -0.1,-1.18 8.31,8.31 0 0 0 -9.11,-7 v 0 l 3.17,-7.47 a 16,16 0 0 0 -7.8,-2.72 17.79,17.79 0 0 0 -25.65,-11.5 16.12,16.12 0 0 0 -8.48,-6.17 l -4.1,9.65 a 8.34,8.34 0 0 0 -3.31,-2.61 z"
       style="opacity:0.1"
       id="path4464" />
    <path
       d="m 340.27,158.62 a 8.35,8.35 0 1 1 -12.82,-9.84 l -14.71,-6.24 -6.25,14.71 c -0.16,-0.21 -0.35,-0.4 -0.53,-0.6 a 8.14,8.14 0 0 0 -2.78,-1.94 8.35,8.35 0 0 0 -7.29,15 c 0.24,0.13 0.5,0.26 0.76,0.37 a 8.39,8.39 0 0 0 4.13,0.62 v 0 l -2.31,5.43 a 13.62,13.62 0 0 0 10.14,-1.72 13.84,13.84 0 0 0 1.79,-1.33 17.62,17.62 0 0 0 2.32,5.94 17.93,17.93 0 0 0 33.11,-11 12.31,12.31 0 0 0 8.55,-7.8 l -13.49,-5.73 a 8.39,8.39 0 0 1 -0.62,4.13 z"
       style="opacity:0.1"
       id="path4466" />
    <g
       style="opacity:0.2"
       id="g4472">
      <polygon
         points="327.26,363.52 327.93,388.81 369.85,388.81 369.18,363.52 "
         style="fill:none"
         id="polygon4468" />
      <polygon
         points="368.44,335.93 326.52,335.93 327.19,361.22 369.12,361.22 "
         style="fill:none"
         id="polygon4470" />
    </g>
  </g>
  <g
     id="freepik--character-1--inject-56"
     transform="translate(-34.981907,-25.206881)">
    <path
       d="m 88.13,308 0.17,-2.48 a 2.55,2.55 0 0 0 -0.94,-2.26 l -3,-2.23 a 4.25,4.25 0 0 0 -4.38,-0.28 l -1,0.44 c -0.54,4.15 1.61,8.58 1.61,8.58 l 0.48,1.36 a 1.84,1.84 0 0 0 2.77,1 l 2.64,-1.46 A 3.42,3.42 0 0 0 88.13,308 Z"
       style="fill:#b55b52"
       id="path4475" />
    <path
       d="m 83.71,299 1.54,1.25 a 88.78,88.78 0 0 1 -7.81,6.08 17.74,17.74 0 0 0 -1.91,-1.62 z"
       style="fill:#263238"
       id="path4477" />
    <path
       d="m 89.58,258.38 c -0.57,0.73 -1.28,1.71 -1.9,2.6 -0.62,0.89 -1.28,1.83 -1.9,2.75 -1.23,1.86 -2.42,3.74 -3.51,5.62 a 62.86,62.86 0 0 0 -2.92,5.65 27,27 0 0 0 -1.8,5 l 0.09,-1.72 a 5.92,5.92 0 0 0 0.19,1.61 22.75,22.75 0 0 0 0.69,2.41 56.54,56.54 0 0 0 2.18,5.4 c 0.84,1.84 1.78,3.69 2.76,5.53 0.98,1.84 2,3.72 3,5.39 l -12.2,8.05 c -1.41,-2 -2.63,-3.91 -3.87,-5.92 -1.24,-2.01 -2.41,-4 -3.55,-6.12 a 73.36,73.36 0 0 1 -3.21,-6.71 c -0.49,-1.21 -1,-2.47 -1.38,-3.87 a 24.3,24.3 0 0 1 -0.95,-4.91 l -0.06,-0.7 0.15,-1 a 42.22,42.22 0 0 1 2.33,-8.73 80.36,80.36 0 0 1 3.28,-7.46 c 1.15,-2.35 2.37,-4.62 3.64,-6.84 0.63,-1.11 1.28,-2.22 2,-3.31 0.72,-1.09 1.31,-2.13 2.12,-3.35 z"
       style="fill:#60a3ab"
       id="path4479" />
    <path
       d="m 89.58,258.38 c -0.57,0.73 -1.28,1.71 -1.9,2.6 -0.62,0.89 -1.28,1.83 -1.9,2.75 -1.23,1.86 -2.42,3.74 -3.51,5.62 a 62.86,62.86 0 0 0 -2.92,5.65 27,27 0 0 0 -1.8,5 l 0.09,-1.72 a 5.92,5.92 0 0 0 0.19,1.61 22.75,22.75 0 0 0 0.69,2.41 56.54,56.54 0 0 0 2.18,5.4 c 0.84,1.84 1.78,3.69 2.76,5.53 0.98,1.84 2,3.72 3,5.39 l -12.2,8.05 c -1.41,-2 -2.63,-3.91 -3.87,-5.92 -1.24,-2.01 -2.41,-4 -3.55,-6.12 a 73.36,73.36 0 0 1 -3.21,-6.71 c -0.49,-1.21 -1,-2.47 -1.38,-3.87 a 24.3,24.3 0 0 1 -0.95,-4.91 l -0.06,-0.7 0.15,-1 a 42.22,42.22 0 0 1 2.33,-8.73 80.36,80.36 0 0 1 3.28,-7.46 c 1.15,-2.35 2.37,-4.62 3.64,-6.84 0.63,-1.11 1.28,-2.22 2,-3.31 0.72,-1.09 1.31,-2.13 2.12,-3.35 z"
       style="opacity:0.7;fill:#ffffff"
       id="path4481" />
    <polygon
       points="138.39,397.53 127.76,399.72 133.12,411.75 142.01,409.93 "
       style="fill:#b55b52"
       id="polygon4483" />
    <polygon
       points="138.39,397.53 127.75,399.73 130.76,406.46 140.42,404.48 "
       style="opacity:0.2"
       id="polygon4485" />
    <path
       d="m 113.58,359.73 c -5.3,-16.47 -18,-33 -17,-49.26 l 35.41,-0.09 c 0,0 2.31,32.8 3.51,48 1.25,15.76 5.2,43.4 5.2,43.4 l -12,3.22 c 0,0 -16.04,-27.63 -15.12,-45.27 z"
       style="fill:#263238"
       id="path4487" />
    <path
       d="m 133.69,415.93 2.77,-0.73 0.24,-1.06 1.59,0.58 a 29.85,29.85 0 0 0 14.16,-4.79 7.25,7.25 0 0 0 -2.21,-2.64 c 0,0 -4.12,1 -6.86,0.24 a 1.82,1.82 0 0 0 -1.34,0.09 c -1.71,0.84 -6.3,2.91 -9.47,2.63 a 0.4,0.4 0 0 0 -0.41,0.55 33.62,33.62 0 0 1 1.53,5.13 z"
       style="fill:#263238"
       id="path4489" />
    <polygon
       points="96.42,399.02 85.54,399.13 86.06,411.96 95.15,411.89 "
       style="fill:#b55b52"
       id="polygon4491" />
    <polygon
       points="96.42,399.03 85.54,399.13 85.83,406.32 95.71,406.23 "
       style="opacity:0.2"
       id="polygon4493" />
    <path
       d="M 84.59,355.6 C 83.71,339.12 74.51,321.71 78.94,311.14 l 33.89,-0.76 c 0,0 -0.32,31.83 -3.84,47 C 105.33,373.21 96.73,404 96.73,404 H 84.97 c 0,0 -4.8,-29.61 -0.38,-48.4 z"
       style="fill:#263238"
       id="path4495" />
    <path
       d="m 110.89,227.76 c 1.19,1.15 2,0.46 1.93,-1.12 a 3.13,3.13 0 0 1 -0.5,5.37 c -2.22,1.26 -4.72,0.55 -5.59,-0.81 l -0.34,-4.65 c 1.69,-0.86 2.71,-0.5 4.5,1.21 z"
       style="fill:#e0e0e0"
       id="path4497" />
    <path
       d="m 105.93,222.72 1.77,4.55 a 4.15,4.15 0 0 0 2.61,-1.46 10.2,10.2 0 0 0 -4.38,-3.09 z"
       style="fill:#a02724"
       id="path4499" />
    <path
       d="m 106.24,221.83 c 0.21,0.54 0.67,0.86 1,0.71 0.33,-0.15 0.47,-0.69 0.25,-1.23 -0.22,-0.54 -0.67,-0.86 -1,-0.72 -0.33,0.14 -0.49,0.7 -0.25,1.24 z"
       style="fill:#263238"
       id="path4501" />
    <path
       d="m 107.64,225.78 a 2.76,2.76 0 0 1 -1.09,-0.24 5.54,5.54 0 0 1 -2.73,-3.1 c -1,-2.41 -0.42,-4.9 1.19,-5.56 a 2.48,2.48 0 0 1 1.99,0.12 5.54,5.54 0 0 1 2.73,3.1 c 1,2.41 0.42,4.9 -1.19,5.56 a 2.22,2.22 0 0 1 -0.9,0.12 z m -1.78,-8.57 a 1.85,1.85 0 0 0 -0.66,0.13 c -1.36,0.56 -1.77,2.76 -0.91,4.91 v 0 a 5,5 0 0 0 2.46,2.83 2,2 0 0 0 1.55,0.07 c 1.36,-0.56 1.77,-2.76 0.91,-4.91 a 5,5 0 0 0 -2.46,-2.83 2.32,2.32 0 0 0 -0.89,-0.2 z"
       style="fill:#263238"
       id="path4503" />
    <path
       d="m 106.3,219.42 a 0.32,0.32 0 0 1 -0.31,0 2.69,2.69 0 0 0 -2.42,-0.43 0.34,0.34 0 0 1 -0.44,-0.19 0.35,0.35 0 0 1 0.19,-0.45 3.38,3.38 0 0 1 3.06,0.52 0.33,0.33 0 0 1 0.08,0.47 0.28,0.28 0 0 1 -0.16,0.08 z"
       style="fill:#263238"
       id="path4505" />
    <path
       d="m 87,227 c 3,6.47 5.25,10.79 10.2,12.06 9.85,2.52 13,-2.92 12,-10.18 -1,-6.53 -5.77,-16 -13.29,-16 A 9.84,9.84 0 0 0 87,227 Z"
       style="fill:#b55b52"
       id="path4507" />
    <path
       d="m 108.68,243.56 a 6.38,6.38 0 0 0 -3.05,-2.89 5.9,5.9 0 0 1 -0.1,-4 L 90.63,232 c 1.2,4.92 2.14,8.82 0.31,11.21 2.93,1.78 8.3,5 14.15,4.83 5.85,-0.17 4.54,-2.42 3.59,-4.48 z"
       style="fill:#b55b52"
       id="path4509" />
    <path
       d="m 88.32,242.68 c -0.89,-2.84 0.46,-3.22 0.46,-3.22 0,0 9.21,-2.21 17.75,0 8.54,2.21 3.4,5.3 3.4,5.3 z"
       style="fill:#263238"
       id="path4511" />
    <path
       d="m 103.44,226.1 c 0.94,-2.19 1,-6.6 -0.84,-8.8 a 1.84,1.84 0 0 1 -0.72,1.5 c -0.47,-0.7 -3.39,-2.65 -7.5,-2.56 a 2.51,2.51 0 0 1 0.83,1 c 0,0 -6.44,-1.07 -9.92,1.56 0,0 0.74,1 0.2,1.66 -1.27,0.72 -1.79,1.61 -1.28,4.54 0.51,2.93 4,8.06 7.39,11.26 6.34,0.36 9.73,-2.23 9.73,-2.23 0,0 3.67,-3.83 2.11,-7.93 z"
       style="fill:#e0e0e0"
       id="path4513" />
    <path
       d="m 100.36,225.25 h -0.06 a 0.24,0.24 0 0 1 -0.18,-0.3 c 0.4,-1.56 2.48,-3.05 3.83,-3.6 2,-0.85 5.13,-2 5.16,-2 a 0.25,0.25 0 0 1 0.17,0.47 c 0,0 -3.11,1.14 -5.14,2 -1.22,0.5 -3.18,1.88 -3.54,3.26 a 0.26,0.26 0 0 1 -0.24,0.17 z"
       style="fill:#263238"
       id="path4515" />
    <path
       d="m 99.5,226.29 a 6.76,6.76 0 0 0 3,3.7 c 1.78,0.93 2.77,-1 2.37,-3.16 -0.36,-2 -1.71,-4.88 -3.54,-4.87 -1.83,0.01 -2.57,2.28 -1.83,4.33 z"
       style="fill:#b55b52"
       id="path4517" />
    <path
       d="m 113.44,243.11 a 137.47,137.47 0 0 0 -30.24,0.48 10.2,10.2 0 0 0 -8.49,12.15 c 4.7,23.68 2.38,52.21 2.87,56.89 0,0 29.56,7.28 56,-0.65 3.09,-29 -7.31,-53.08 -12.06,-63.1 a 10.16,10.16 0 0 0 -8.08,-5.77 z"
       style="fill:#263238"
       id="path4519" />
    <path
       d="m 84.72,415.93 h 2.36 l 0.6,-1 1.28,1 h 15.21 a 6.54,6.54 0 0 0 -0.75,-3.27 c 0,0 -5.21,-0.39 -6.94,-2.51 a 0.55,0.55 0 0 0 -0.54,-0.22 c -1.4,0.3 -7,1.37 -10.16,0.25 a 0.49,0.49 0 0 0 -0.68,0.47 34.61,34.61 0 0 1 -0.38,5.28 z"
       style="fill:#263238"
       id="path4521" />
    <path
       d="m 119.34,244.16 c -12.27,-6.46 -36.45,-3.73 -41.79,0.17 -10.19,7.45 -0.9,31.6 -0.82,54.65 0.08,23.05 -1.09,49.07 -1.09,77.71 24.87,19 67.78,-1.35 67.78,-1.35 0,0 0.58,-118.18 -24.08,-131.18 z"
       style="fill:#60a3ab"
       id="path4523" />
    <path
       d="m 119.34,244.16 c -12.27,-6.46 -36.45,-3.73 -41.79,0.17 -10.19,7.45 -0.9,31.6 -0.82,54.65 0.08,23.05 -1.09,49.07 -1.09,77.71 24.87,19 67.78,-1.35 67.78,-1.35 0,0 0.58,-118.18 -24.08,-131.18 z"
       style="opacity:0.8;fill:#ffffff"
       id="path4525" />
    <path
       d="m 128.72,256.77 -9.55,1.71 a 46.26,46.26 0 0 0 12.25,5.82 79.7,79.7 0 0 0 -2.7,-7.53 z"
       style="opacity:0.2;fill:#60a3ab"
       id="path4527" />
    <path
       d="m 160.52,225.52 -2.41,0.63 a 2.53,2.53 0 0 0 -1.83,1.61 l -1.14,3.6 a 4.26,4.26 0 0 0 1.14,4.24 l 0.72,0.76 c 4.1,-0.83 7.61,-4.29 7.61,-4.29 l 1.14,-0.88 a 1.85,1.85 0 0 0 0.08,-3 l -2.22,-2 a 3.41,3.41 0 0 0 -3.09,-0.67 z"
       style="fill:#b55b52"
       id="path4529" />
    <path
       d="m 152,232.17 1.8,-1.94 a 99.87,99.87 0 0 1 9.19,6.48 19.06,19.06 0 0 0 -1.22,2.61 z"
       style="fill:#263238"
       id="path4531" />
    <path
       d="m 113.82,242.18 c 2,0.38 4.19,0.75 6.29,1.09 2.1,0.34 4.23,0.68 6.33,1 4.21,0.62 8.43,1.17 12.44,1.49 l -1.73,0.12 c -0.32,0.11 0,0.09 0.54,-0.18 a 11.39,11.39 0 0 0 1.83,-1.21 36.73,36.73 0 0 0 4.23,-3.93 c 1.42,-1.49 2.81,-3.12 4.16,-4.8 0.67,-0.84 1.34,-1.7 2,-2.56 0.66,-0.86 1.31,-1.79 1.85,-2.55 l 12.34,7.84 c -0.73,1.19 -1.35,2.16 -2.05,3.22 -0.7,1.06 -1.38,2.06 -2.1,3.07 -1.43,2 -2.94,4 -4.6,6 a 53,53 0 0 1 -5.64,5.87 28.29,28.29 0 0 1 -3.8,2.86 17.64,17.64 0 0 1 -5.89,2.42 l -0.61,0.13 h -1.11 c -4.73,0 -9.22,-0.28 -13.7,-0.59 q -3.36,-0.24 -6.69,-0.53 c -2.24,-0.2 -4.42,-0.41 -6.71,-0.65 z"
       style="fill:#60a3ab"
       id="path4533" />
    <path
       d="m 113.82,242.18 c 2,0.38 4.19,0.75 6.29,1.09 2.1,0.34 4.23,0.68 6.33,1 4.21,0.62 8.43,1.17 12.44,1.49 l -1.73,0.12 c -0.32,0.11 0,0.09 0.54,-0.18 a 11.39,11.39 0 0 0 1.83,-1.21 36.73,36.73 0 0 0 4.23,-3.93 c 1.42,-1.49 2.81,-3.12 4.16,-4.8 0.67,-0.84 1.34,-1.7 2,-2.56 0.66,-0.86 1.31,-1.79 1.85,-2.55 l 12.34,7.84 c -0.73,1.19 -1.35,2.16 -2.05,3.22 -0.7,1.06 -1.38,2.06 -2.1,3.07 -1.43,2 -2.94,4 -4.6,6 a 53,53 0 0 1 -5.64,5.87 28.29,28.29 0 0 1 -3.8,2.86 17.64,17.64 0 0 1 -5.89,2.42 l -0.61,0.13 h -1.11 c -4.73,0 -9.22,-0.28 -13.7,-0.59 q -3.36,-0.24 -6.69,-0.53 c -2.24,-0.2 -4.42,-0.41 -6.71,-0.65 z"
       style="opacity:0.8;fill:#ffffff"
       id="path4535" />
  </g>
  <g
     id="freepik--character-2--inject-56"
     transform="translate(-34.981907,-25.206881)">
    <path
       d="m 368,318 0.42,15.6 h -41.96 l -0.68,-25.29 h 39.92 l -0.54,-2.29 h -39.44 l -0.67,-25.29 h 21.24 c 0,-0.77 0,-1.54 0,-2.3 H 325 l -0.64,-23.86 h -3.41 L 325.21,415 h 3.42 L 328,391.11 h 41.92 l 0.64,23.85 H 374 l -2.14,-80.43 z m -41.44,17.9 h 41.92 l 0.67,25.29 h -41.96 z m 1.41,52.88 -0.67,-25.29 h 41.92 l 0.67,25.29 z"
       style="opacity:0.2"
       id="path4538" />
    <path
       d="m 396.22,422.8 h 3.42 L 370.42,254.6 H 367 l 4.34,25 h -41.91 l -4.34,-25 h -3.42 l 29.22,168.2 h 3.41 l -4.34,-25 h 41.92 z m -14.39,-82.89 4.6,26.52 h -41.92 l -4.6,-26.52 z M 339.49,337.49 334.88,311 h 41.92 l 4.61,26.52 z m 32.28,-55.49 4.61,26.53 H 334.46 L 329.85,282 Z m -22.23,113.37 -4.61,-26.53 h 41.92 l 4.61,26.53 z"
       style="fill:#263238"
       id="path4540" />
    <path
       d="m 376.76,224.23 -0.63,-2.11 a 2.56,2.56 0 0 1 0.42,-2.31 l 2.36,-3.06 a 4.77,4.77 0 0 1 4,-1.85 h 1 c 1.3,3.42 0.18,8.08 0.18,8.08 l -0.17,1.36 a 2.13,2.13 0 0 1 -2.35,1.91 l -2.71,-0.3 a 2.47,2.47 0 0 1 -2.1,-1.72 z"
       style="fill:#7f3e3b"
       id="path4542" />
    <path
       d="m 380.12,214.82 -1.12,1.67 a 89.26,89.26 0 0 0 9.41,3.83 17.87,17.87 0 0 1 1.44,-2.14 z"
       style="fill:#ffffff"
       id="path4544" />
    <path
       d="m 372.5,164.53 c 1.84,1.6 3.56,3.15 5.3,4.76 1.74,1.61 3.46,3.22 5.16,4.88 a 138,138 0 0 1 10,10.62 l 0.53,0.64 0.25,0.49 a 16.25,16.25 0 0 1 1.66,5.81 28.55,28.55 0 0 1 0.08,4.68 54.55,54.55 0 0 1 -1.19,8.14 c -0.55,2.58 -1.22,5.07 -2,7.52 -0.78,2.45 -1.52,4.81 -2.46,7.34 l -11,-3.95 c 0.66,-2.06 1.32,-4.38 1.87,-6.58 0.55,-2.2 1,-4.47 1.41,-6.66 a 42.71,42.71 0 0 0 0.64,-6.31 15.47,15.47 0 0 0 -0.16,-2.6 2.66,2.66 0 0 0 -0.35,-1.15 l 0.79,1.13 a 126,126 0 0 0 -9.49,-9 c -1.69,-1.47 -3.41,-2.91 -5.15,-4.34 -1.74,-1.43 -3.52,-2.86 -5.23,-4.19 z"
       style="fill:#60a3ab"
       id="path4546" />
    <path
       d="m 372.5,164.53 c 1.84,1.6 3.56,3.15 5.3,4.76 1.74,1.61 3.46,3.22 5.16,4.88 a 138,138 0 0 1 10,10.62 l 0.53,0.64 0.25,0.49 a 16.25,16.25 0 0 1 1.66,5.81 28.55,28.55 0 0 1 0.08,4.68 54.55,54.55 0 0 1 -1.19,8.14 c -0.55,2.58 -1.22,5.07 -2,7.52 -0.78,2.45 -1.52,4.81 -2.46,7.34 l -11,-3.95 c 0.66,-2.06 1.32,-4.38 1.87,-6.58 0.55,-2.2 1,-4.47 1.41,-6.66 a 42.71,42.71 0 0 0 0.64,-6.31 15.47,15.47 0 0 0 -0.16,-2.6 2.66,2.66 0 0 0 -0.35,-1.15 l 0.79,1.13 a 126,126 0 0 0 -9.49,-9 c -1.69,-1.47 -3.41,-2.91 -5.15,-4.34 -1.74,-1.43 -3.52,-2.86 -5.23,-4.19 z"
       style="opacity:0.7;fill:#ffffff"
       id="path4548" />
    <path
       d="m 361.57,149.87 c -0.85,3.9 -1.77,11.06 0.9,13.66 0,0 -3.73,-0.56 -11.32,4.3 -2.45,-3.26 -0.81,-4.3 -0.81,-4.3 4.37,-1 4.33,-4.27 3.64,-7.3 z"
       style="fill:#7f3e3b"
       id="path4550" />
    <path
       d="m 347.23,143.34 c -0.1,0.52 -0.45,0.9 -0.79,0.85 -0.34,-0.05 -0.54,-0.53 -0.44,-1.06 0.1,-0.53 0.45,-0.9 0.79,-0.84 0.34,0.06 0.54,0.53 0.44,1.05 z"
       style="fill:#263238"
       id="path4552" />
    <path
       d="m 346.92,139.92 a 0.36,0.36 0 0 1 -0.21,-0.11 0.31,0.31 0 0 1 0.07,-0.43 3.22,3.22 0 0 1 2.83,-0.57 0.29,0.29 0 0 1 0.19,0.39 0.32,0.32 0 0 1 -0.4,0.19 2.59,2.59 0 0 0 -2.24,0.47 0.28,0.28 0 0 1 -0.24,0.06 z"
       style="fill:#263238"
       id="path4554" />
    <path
       d="m 346.83,144.31 a 14.68,14.68 0 0 1 -2.48,3 2.23,2.23 0 0 0 1.79,0.66 z"
       style="fill:#630f0f"
       id="path4556" />
    <path
       d="m 346.94,142.34 -1.19,-0.57 c 0,0 0.46,1.09 1.19,0.57 z"
       style="fill:#263238"
       id="path4558" />
    <path
       d="m 364.82,144.29 c -1.44,6.17 -1.91,8.81 -5.63,11.49 -5.6,4 -12.94,0.94 -13.39,-5.52 -0.41,-5.82 2,-14.92 8.6,-16.4 a 8.66,8.66 0 0 1 10.42,10.43 z"
       style="fill:#7f3e3b"
       id="path4560" />
    <path
       d="m 350.34,145.05 c -1.68,-0.4 -0.69,-5.34 0,-6.36 -3.37,-0.95 -5.95,-3.68 -2.1,-6.3 3.85,-2.62 7.21,-3.6 8.95,-2.44 1.05,-3 7.87,-1.65 11.21,3.69 3.17,5.05 0.7,9.09 -1.57,9.26 3.6,3 -1.1,8.77 -5.17,9.93 -0.23,4 -7.14,4.18 -10.27,1.16 -3.13,-3.02 -1.05,-8.94 -1.05,-8.94 z"
       style="fill:#263238"
       id="path4562" />
    <path
       d="m 353.08,146.08 a 4.13,4.13 0 0 1 -2.28,2.62 c -1.39,0.54 -2.29,-1.06 -2.07,-2.78 0.2,-1.55 1.15,-3.7 2.63,-3.49 1.48,0.21 2.21,2.1 1.72,3.65 z"
       style="fill:#7f3e3b"
       id="path4564" />
    <path
       d="m 395.78,330.57 c 4.08,-2.58 3.43,-3.63 5.67,-5.16 1.92,-1.31 2.56,-1.36 4.12,-2.39 1.3,-0.86 0.38,-2.14 -1,-3.38 -0.71,-0.63 -1.64,-1.35 -2.73,-2.39 l -6.2,3.92 c 0.26,2.2 -0.28,5.67 -2.37,7.44 -2.09,1.77 0.88,2.99 2.51,1.96 z"
       style="fill:#263238"
       id="path4566" />
    <path
       d="m 344.07,337.49 c 6.94,0 6.49,-0.21 9.22,-0.26 2,0 1.45,0.26 5.17,0.26 1.57,0 1.71,-1.77 1.13,-3.1 a 23.16,23.16 0 0 1 -1.55,-3.62 h -6.71 c -1.19,2.13 -4.48,3.7 -8.17,4 -2.63,0.16 -1.04,2.72 0.91,2.72 z"
       style="fill:#263238"
       id="path4568" />
    <path
       d="m 342.11,204.91 c 0,0 -0.78,35 1.42,57.22 0,20.86 7.81,68.64 7.81,68.64 0.16,1.07 5.76,0.64 6.7,0 0,0 4.28,-35 -0.56,-68.83 11.46,-35.3 10.57,-57 10.57,-57 z"
       style="fill:#263238"
       id="path4570" />
    <path
       d="m 349.09,204.91 c 0,0 13.44,39.5 19.07,58.9 5.9,20.37 20.45,45.41 27.46,57.36 1.33,0 4.72,-2.12 6.2,-3.92 -7.61,-13.51 -7.82,-32.44 -19.41,-52.54 0.11,-48.25 -7.77,-59.8 -7.77,-59.8 z"
       style="fill:#263238"
       id="path4572" />
    <path
       d="m 393.55,319.07 a 20.87,20.87 0 0 1 1.36,2.5 0.6,0.6 0 0 0 0.79,0.33 26.28,26.28 0 0 0 6.36,-4.53 0.56,0.56 0 0 0 0.11,-0.65 L 401,314.28 a 0.6,0.6 0 0 0 -0.86,-0.26 l -6.48,4.28 a 0.55,0.55 0 0 0 -0.11,0.77 z"
       style="fill:#60a3ab"
       id="path4574" />
    <path
       d="m 393.55,319.07 a 20.87,20.87 0 0 1 1.36,2.5 0.6,0.6 0 0 0 0.79,0.33 26.28,26.28 0 0 0 6.36,-4.53 0.56,0.56 0 0 0 0.11,-0.65 L 401,314.28 a 0.6,0.6 0 0 0 -0.86,-0.26 l -6.48,4.28 a 0.55,0.55 0 0 0 -0.11,0.77 z"
       style="opacity:0.3;fill:#ffffff"
       id="path4576" />
    <path
       d="m 350.24,328.28 c 0,0.73 0.05,2 0,3 a 0.6,0.6 0 0 0 0.56,0.61 40.36,40.36 0 0 0 7.39,-0.44 0.55,0.55 0 0 0 0.46,-0.47 l 0.36,-2.62 a 0.61,0.61 0 0 0 -0.61,-0.68 l -7.65,0.07 a 0.56,0.56 0 0 0 -0.51,0.53 z"
       style="fill:#60a3ab"
       id="path4578" />
    <path
       d="m 350.24,328.28 c 0,0.73 0.05,2 0,3 a 0.6,0.6 0 0 0 0.56,0.61 40.36,40.36 0 0 0 7.39,-0.44 0.55,0.55 0 0 0 0.46,-0.47 l 0.36,-2.62 a 0.61,0.61 0 0 0 -0.61,-0.68 l -7.65,0.07 a 0.56,0.56 0 0 0 -0.51,0.53 z"
       style="opacity:0.3;fill:#ffffff"
       id="path4580" />
    <path
       d="m 339,173.46 c 0.06,2.63 0.13,5.95 0.82,12.22 0.48,5.31 1.12,10.53 2.34,19.23 h 32.53 c -0.93,-7.52 -5.16,-16.1 -1.25,-33 a 6.58,6.58 0 0 0 -5.75,-8.1 c -1.06,-0.1 -2.19,-0.19 -3.34,-0.25 a 101.53,101.53 0 0 0 -13.29,0 c -1.32,0.12 -2.67,0.29 -4,0.47 a 9.42,9.42 0 0 0 -8.06,9.43 z"
       style="fill:#60a3ab"
       id="path4582" />
    <path
       d="m 285.11,195 a 13.41,13.41 0 0 0 3.31,2.74 13.57,13.57 0 0 0 10.58,1.36 l -0.48,-5.88 a 8.34,8.34 0 0 1 -3.94,1.37 8.1,8.1 0 0 1 -0.85,0 8.34,8.34 0 1 1 2.85,-16.23 l 0.74,0.28 L 296,162.73 280,164 v 0 a 9.85,9.85 0 0 0 0.37,-0.95 8.5,8.5 0 0 0 0.34,-3.16 8.35,8.35 0 0 0 -9,-7.63 9,9 0 0 0 -1.9,0.39 8.3,8.3 0 0 0 -5.32,10.57 0.65,0.65 0 0 0 0,0.13 0.14,0.14 0 0 0 0,0.06 8.12,8.12 0 0 0 0.9,1.79 l -15.93,1.31 1.31,15.93 c 0.22,-0.15 0.45,-0.27 0.68,-0.4 a 8.34,8.34 0 1 1 0.52,14.95 l 0.51,6.2 c 5.77,-1.57 11.85,-3.45 18.07,-5.55 A 13.64,13.64 0 0 0 285.11,195 Z"
       style="fill:#ffffff"
       id="path4584" />
    <path
       d="m 291.75,173.19 2.17,-0.39 a 2.54,2.54 0 0 1 2.24,0.68 l 2.77,2.7 a 4.8,4.8 0 0 1 1.39,4.16 l -0.15,0.95 c -3.55,0.89 -8,-0.76 -8,-0.76 l -1.34,-0.33 a 2.14,2.14 0 0 1 -1.63,-2.55 l 0.62,-2.65 a 2.44,2.44 0 0 1 1.93,-1.81 z"
       style="fill:#7f3e3b"
       id="path4586" />
    <path
       d="m 300.71,177.61 -1.53,-1.35 a 91.82,91.82 0 0 0 -4.89,8.91 19.09,19.09 0 0 1 2,1.67 z"
       style="fill:#ffffff"
       id="path4588" />
    <path
       d="m 347.73,162.18 c -7,1 -11.57,5.8 -12.23,21.49 a 329.63,329.63 0 0 0 1.19,35.24 c -1,28.34 -2.66,68.18 2.26,81.47 17.85,6.62 46.87,-2.68 60.43,-9.53 -4.39,-10 -13.43,-44.52 -17.61,-71.67 -2.19,-14.27 -4.89,-36.33 -5.53,-45.44 -0.64,-9.11 -5.38,-10.94 -9.9,-11.85 -4.52,-0.91 -11.1,-0.77 -18.61,0.29 z"
       style="fill:#60a3ab"
       id="path4590" />
    <path
       d="m 347.73,162.18 c -7,1 -11.57,5.8 -12.23,21.49 a 329.63,329.63 0 0 0 1.19,35.24 c -1,28.34 -2.66,68.18 2.26,81.47 17.85,6.62 46.87,-2.68 60.43,-9.53 -4.39,-10 -13.43,-44.52 -17.61,-71.67 -2.19,-14.27 -4.89,-36.33 -5.53,-45.44 -0.64,-9.11 -5.38,-10.94 -9.9,-11.85 -4.52,-0.91 -11.1,-0.77 -18.61,0.29 z"
       style="opacity:0.8;fill:#ffffff"
       id="path4592" />
    <path
       d="m 335.5,183.65 v 0 c -0.09,2.12 -0.12,5.15 -0.08,8.72 5.56,-4.6 8.1,-12.36 8.1,-12.36 z"
       style="opacity:0.2;fill:#60a3ab"
       id="path4594" />
    <path
       d="m 350.76,176.15 c -1.74,1.64 -3.4,3.14 -5.12,4.67 -1.72,1.53 -3.46,3 -5.23,4.49 a 122.62,122.62 0 0 1 -11.35,8.53 l -0.71,0.45 -0.51,0.19 a 16.29,16.29 0 0 1 -6,1 27.51,27.51 0 0 1 -4.66,-0.47 54.53,54.53 0 0 1 -8,-2.11 c -2.5,-0.85 -4.89,-1.8 -7.25,-2.82 -2.36,-1.02 -4.6,-2.06 -7,-3.29 l 5.19,-10.43 c 2,0.89 4.2,1.82 6.32,2.62 2.12,0.8 4.32,1.55 6.46,2.17 a 42.14,42.14 0 0 0 6.19,1.37 15.34,15.34 0 0 0 2.6,0.14 3,3 0 0 0 1.19,-0.21 l -1.22,0.65 a 109.08,109.08 0 0 0 9.53,-8.12 c 1.57,-1.46 3.12,-3 4.65,-4.49 1.53,-1.49 3.07,-3.1 4.48,-4.6 z"
       style="fill:#60a3ab"
       id="path4596" />
    <path
       d="m 350.76,176.15 c -1.74,1.64 -3.4,3.14 -5.12,4.67 -1.72,1.53 -3.46,3 -5.23,4.49 a 122.62,122.62 0 0 1 -11.35,8.53 l -0.71,0.45 -0.51,0.19 a 16.29,16.29 0 0 1 -6,1 27.51,27.51 0 0 1 -4.66,-0.47 54.53,54.53 0 0 1 -8,-2.11 c -2.5,-0.85 -4.89,-1.8 -7.25,-2.82 -2.36,-1.02 -4.6,-2.06 -7,-3.29 l 5.19,-10.43 c 2,0.89 4.2,1.82 6.32,2.62 2.12,0.8 4.32,1.55 6.46,2.17 a 42.14,42.14 0 0 0 6.19,1.37 15.34,15.34 0 0 0 2.6,0.14 3,3 0 0 0 1.19,-0.21 l -1.22,0.65 a 109.08,109.08 0 0 0 9.53,-8.12 c 1.57,-1.46 3.12,-3 4.65,-4.49 1.53,-1.49 3.07,-3.1 4.48,-4.6 z"
       style="opacity:0.8;fill:#ffffff"
       id="path4598" />
    <path
       d="m 363.94,129.93 c -2.22,-0.65 -5.09,1.69 -3.92,5.18 1.17,3.49 4.64,5.14 7.37,4 2.73,-1.14 1.46,-7.76 -3.45,-9.18 z"
       style="fill:#60a3ab"
       id="path4600" />
    <path
       d="m 362.35,135.08 c -1.49,-5.83 6,-14.14 9.61,-3.52 2.22,6.55 -8.18,9.08 -9.61,3.52 z"
       style="fill:#263238"
       id="path4602" />
  </g>
</svg>
