<?xml version="1.0" encoding="UTF-8" standalone="no"?>
<svg
   viewBox="0 0 387.78 357.09927"
   version="1.1"
   id="svg215"
   width="387.78"
   height="357.09927"
   xmlns="http://www.w3.org/2000/svg"
   xmlns:svg="http://www.w3.org/2000/svg">
  <defs
     id="defs219" />
  <g
     id="freepik--background-simple--inject-2"
     transform="translate(-56.110001,-66.680708)">
    <path
       d="M 322.16,87.34 A 78.11,78.11 0 0 0 278.53,121 c -6.25,10.33 -9.87,22 -15.59,32.59 -16,29.65 -49.09,49.87 -83.57,51 -17.89,0.59 -36.17,-3.54 -53.51,0.77 -22.17,5.52 -39.52,25.83 -41,48 -1.48,22.17 13.14,44.45 34.43,52.64 25.13,9.67 56.38,1 78.57,16 a 40.79,40.79 0 0 1 17.82,31.61 c 0.45,11.58 -3.07,26 6.71,32.61 3.67,2.49 8.35,3 12.82,3.25 32.48,1.58 64.84,-9.84 91,-28.56 26.16,-18.72 46.43,-44.4 61.7,-72.23 16.81,-30.64 28,-64.84 27.27,-99.53 C 414.51,157.54 402.9,131.55 384.71,106 379.48,98.64 376.26,90.88 367.37,87.16 354,81.52 335.66,83.22 322.16,87.34 Z"
       style="fill:#60a3ab"
       id="path2" />
    <path
       d="M 322.16,87.34 A 78.11,78.11 0 0 0 278.53,121 c -6.25,10.33 -9.87,22 -15.59,32.59 -16,29.65 -49.09,49.87 -83.57,51 -17.89,0.59 -36.17,-3.54 -53.51,0.77 -22.17,5.52 -39.52,25.83 -41,48 -1.48,22.17 13.14,44.45 34.43,52.64 25.13,9.67 56.38,1 78.57,16 a 40.79,40.79 0 0 1 17.82,31.61 c 0.45,11.58 -3.07,26 6.71,32.61 3.67,2.49 8.35,3 12.82,3.25 32.48,1.58 64.84,-9.84 91,-28.56 26.16,-18.72 46.43,-44.4 61.7,-72.23 16.81,-30.64 28,-64.84 27.27,-99.53 C 414.51,157.54 402.9,131.55 384.71,106 379.48,98.64 376.26,90.88 367.37,87.16 354,81.52 335.66,83.22 322.16,87.34 Z"
       style="opacity:0.9;fill:#ffffff"
       id="path4" />
  </g>
  <g
     id="freepik--Shadow--inject-2"
     transform="translate(-56.110001,-66.680708)">
    <ellipse
       id="freepik--shadow--inject-2"
       cx="250"
       cy="412.45999"
       rx="193.89"
       ry="11.32"
       style="fill:#f5f5f5" />
  </g>
  <g
     id="freepik--Plant--inject-2"
     transform="translate(-56.110001,-66.680708)">
    <path
       d="m 313.49,375.27 c 0,0 -3.15,-35.34 -19.56,-69.28 0,0 24.23,22.62 25.08,69.28 z"
       style="fill:#60a3ab"
       id="path9" />
    <path
       d="m 325.8,376.54 c 0,0 2.74,-39.79 8.93,-59.69 0,0 3.39,24.69 -5.45,58.57 z"
       style="fill:#60a3ab"
       id="path11" />
    <path
       d="m 325.8,376.54 c 0,0 2.74,-39.79 8.93,-59.69 0,0 3.39,24.69 -5.45,58.57 z"
       style="opacity:0.3"
       id="path13" />
    <path
       d="m 323.26,377.72 c 0,0 -4.25,-53.55 7.65,-77.56 0,0 1.28,48.67 -1.7,77.56 z"
       style="fill:#60a3ab"
       id="path15" />
    <path
       d="m 323.26,377.72 c 0,0 -4.25,-53.55 7.65,-77.56 0,0 1.28,48.67 -1.7,77.56 z"
       style="opacity:0.2"
       id="path17" />
    <path
       d="m 333.31,378 c 0,0 3.14,-35.34 19.56,-69.28 0,0 -24.24,22.62 -25.09,69.28 z"
       style="fill:#60a3ab"
       id="path19" />
    <path
       d="m 317.31,380.74 c 0,0 -13.19,-61.52 -10.84,-94.1 0,0 17.64,36.27 16.79,91.08 z"
       style="fill:#60a3ab"
       id="path21" />
    <path
       d="m 317.31,380.74 c 0,0 -13.19,-61.52 -10.84,-94.1 0,0 17.64,36.27 16.79,91.08 z"
       style="opacity:0.1;fill:#ffffff"
       id="path23" />
    <path
       d="m 329.54,412 h -12.29 a 8.05,8.05 0 0 1 -8,-7.27 l -3.14,-32.43 h 34.59 l -3.14,32.43 a 8,8 0 0 1 -8.02,7.27 z"
       style="fill:#60a3ab"
       id="path25" />
    <path
       d="m 328.47,412 h -10.14 a 9.24,9.24 0 0 1 -9.19,-8.34 l -3,-31.36 h 34.59 l -3,31.36 a 9.24,9.24 0 0 1 -9.26,8.34 z"
       style="opacity:0.3;fill:#ffffff"
       id="path27" />
  </g>
  <g
     id="freepik--Character--inject-2"
     transform="translate(-56.110001,-66.680708)">
    <path
       d="m 255.41,195.08 1.94,-8.43 -2.24,-4.83 a 2.38,2.38 0 0 1 -0.3,-1.55 48.85,48.85 0 0 1 1.1,-4.89 1.22,1.22 0 0 1 1.5,-0.79 l 4.42,1.25 c 0.93,0.15 1.82,6.71 1.82,6.71 a 2.28,2.28 0 0 1 -0.06,1.32 l -1.32,4.13 -0.79,10.22 z"
       style="fill:#ffc3bd"
       id="path30" />
    <path
       d="m 236.24,186.35 a 51.42,51.42 0 0 1 15.67,16.84 c 0.56,-1.93 3.23,-10.07 2.76,-12.36 a 3.16,3.16 0 0 1 -0.11,-1.46 c 0.13,-0.47 0.7,-0.86 1.12,-0.61 3.28,-0.36 6,0.23 9.24,0.66 -0.89,7.39 -2.37,31.11 -14.52,26.29 -9.05,-3.58 -15.63,-12 -19.12,-21.11 a 11.34,11.34 0 0 1 -0.92,-4.51 5.17,5.17 0 0 1 2,-4 c 1.24,-0.9 2.64,-0.6 3.88,0.26 z"
       style="fill:#60a3ab"
       id="path32" />
    <path
       d="m 236.24,186.35 a 51.42,51.42 0 0 1 15.67,16.84 c 0.56,-1.93 3.23,-10.07 2.76,-12.36 a 3.16,3.16 0 0 1 -0.11,-1.46 c 0.13,-0.47 0.7,-0.86 1.12,-0.61 3.28,-0.36 6,0.23 9.24,0.66 -0.89,7.39 -2.37,31.11 -14.52,26.29 -9.05,-3.58 -15.63,-12 -19.12,-21.11 a 11.34,11.34 0 0 1 -0.92,-4.51 5.17,5.17 0 0 1 2,-4 c 1.24,-0.9 2.64,-0.6 3.88,0.26 z"
       style="opacity:0.7"
       id="path34" />
    <path
       d="m 224.07,261 a 307.88,307.88 0 0 1 -0.2,40.75 c 0,0 -2.56,-21.65 -3.88,-30.31 z"
       id="path36" />
    <path
       d="m 216.15,182.55 c 1.25,-4.28 0.79,-10.36 0.22,-14.15 l 9.45,8.82 a 11.17,11.17 0 0 0 -0.44,5.07 1.84,1.84 0 0 0 1.62,1.51 l 3.95,1.11 0.54,3 -2.34,0.68 -3.08,3.33 -7.75,-3 -8.32,-3.59 a 15.31,15.31 0 0 1 3.8,-0.82 3.32,3.32 0 0 0 2.35,-1.96 z"
       style="fill:#ffc3bd"
       id="path38" />
    <path
       d="m 220.23,172.7 5.45,5 a 12,12 0 0 0 -0.42,3 7.93,7.93 0 0 1 -5.63,-4.82 c -0.49,-1.49 0.03,-3.03 0.6,-3.18 z"
       style="opacity:0.2;isolation:isolate"
       id="path40" />
    <path
       d="m 214.79,161.56 c 0.59,7 0.59,11.08 4.21,14.57 5.43,5.27 14,1.84 15.46,-5.15 1.34,-6.34 0.13,-16.65 -6.77,-19.25 a 9.52,9.52 0 0 0 -12.9,9.83 z"
       style="fill:#ffc3bd"
       id="path42" />
    <path
       d="m 224.51,161.92 c 0.07,0.56 0.42,1 0.79,0.94 0.37,-0.06 0.61,-0.54 0.54,-1.11 -0.07,-0.57 -0.42,-1 -0.79,-0.93 -0.37,0.07 -0.61,0.54 -0.54,1.1 z"
       style="fill:#263238"
       id="path44" />
    <path
       d="m 231.32,161.09 c 0.07,0.56 0.42,1 0.79,0.94 0.37,-0.06 0.61,-0.54 0.54,-1.1 -0.07,-0.56 -0.42,-1 -0.79,-0.94 -0.37,0.06 -0.61,0.53 -0.54,1.1 z"
       style="fill:#263238"
       id="path46" />
    <path
       d="m 223.73,161 a 0.48,0.48 0 0 1 -0.17,0 0.35,0.35 0 0 1 -0.17,-0.45 3.39,3.39 0 0 1 2.37,-1.92 0.35,0.35 0 0 1 0.38,0.29 0.34,0.34 0 0 1 -0.28,0.38 v 0 a 2.65,2.65 0 0 0 -1.86,1.54 0.32,0.32 0 0 1 -0.27,0.16 z"
       style="fill:#263238"
       id="path48" />
    <path
       d="m 233.88,159.82 a 0.34,0.34 0 0 1 -0.3,-0.1 2.63,2.63 0 0 0 -2.21,-0.91 0.33455194,0.33455194 0 1 1 -0.11,-0.66 3.33,3.33 0 0 1 2.84,1.12 0.33,0.33 0 0 1 0,0.46 v 0 a 0.28,0.28 0 0 1 -0.22,0.09 z"
       style="fill:#263238"
       id="path50" />
    <path
       d="m 217.11,159.83 a 8,8 0 0 1 0.11,5.41 2.64,2.64 0 0 0 -1,-0.24 1.29,1.29 0 0 0 -1.16,0.52 1.9,1.9 0 0 0 0,1.48 q 0.92,3.3 2,6.54 a 21.38,21.38 0 0 1 -6.46,-13 c 2.01,-0.27 4.45,-0.46 6.51,-0.71 z"
       style="fill:#263238"
       id="path52" />
    <path
       d="m 211.54,168.16 a 6.63,6.63 0 0 0 4.21,2.83 c 2.29,0.44 3.24,-1.65 2.45,-3.71 -0.71,-1.85 -2.76,-4.32 -5,-3.84 -2.24,0.48 -2.84,2.9 -1.66,4.72 z"
       style="fill:#ffc3bd"
       id="path54" />
    <path
       d="m 229.78,162.85 a 19.46,19.46 0 0 0 3.47,4.19 3.3,3.3 0 0 1 -2.55,1.07 z"
       style="fill:#ed893e"
       id="path56" />
    <polygon
       points="252.28,387.33 258.71,385.01 262.38,400.52 255.94,402.85 "
       style="fill:#ffc3bd"
       id="polygon58" />
    <polygon
       points="205.3,389.83 212.13,390.22 210.87,406.01 204.04,405.62 "
       style="fill:#ffc3bd"
       id="polygon60" />
    <path
       d="m 212.92,405.75 c 1.61,1.61 5.43,3.43 10.68,4.89 1.15,0.32 0.62,3.13 -2.25,3 -2.87,-0.13 -9.12,-0.74 -11.19,-0.86 -3.37,-0.19 -5.36,-0.1 -8,-0.26 a 0.85,0.85 0 0 1 -0.23,0 1,1 0 0 1 -0.7,-1.24 l 1.7,-6 a 0.59,0.59 0 0 1 0.61,-0.43 l 8.32,0.47 a 1.66,1.66 0 0 1 1.06,0.43 z"
       style="fill:#263238"
       id="path62" />
    <path
       d="m 264,399.47 c 5.36,0.91 6.33,0.48 11.71,-0.44 1.16,-0.2 1.5,2.72 -1.1,3.77 -4.31,1.74 -4.45,1.73 -8.09,3.22 -3.14,1.25 -6.69,2.86 -9.17,3.91 a 0.86,0.86 0 0 1 -0.23,0.06 1,1 0 0 1 -1.14,-0.82 L 255,403 a 0.62,0.62 0 0 1 0.37,-0.66 l 6.92,-2.79 a 3.2,3.2 0 0 1 1.71,-0.08 z"
       style="fill:#263238"
       id="path64" />
    <polygon
       points="252.27,387.34 254.16,395.34 260.6,393.01 258.71,385.02 "
       style="opacity:0.2;isolation:isolate"
       id="polygon66" />
    <polygon
       points="204.65,397.97 211.48,398.37 212.13,390.22 205.3,389.83 "
       style="opacity:0.2;isolation:isolate"
       id="polygon68" />
    <path
       d="m 262.37,390.43 -10.73,4.33 c 0,0 -13.64,-50.94 -17.35,-68.69 -3.71,-17.75 -16.71,-79 -16.71,-79 l 24,0.19 c 0,0 7.72,54.42 10.13,75.15 2.55,21.59 10.66,68.02 10.66,68.02 z"
       style="fill:#263238"
       id="path70" />
    <path
       d="m 229.91,305.38 -7.32,-34.61 3.55,-2.87 c 4.86,6.79 5.3,25.28 3.77,37.48 z"
       style="opacity:0.2;isolation:isolate"
       id="path72" />
    <path
       d="m 205.08,247 c 0,0 -0.36,58.87 -1.29,83.22 -0.85,21.56 -1.48,66 -1.48,66 l 12.51,0.72 c 0,0 5,-48.43 7,-70.29 1.75,-20 9.77,-79.48 9.77,-79.48 z"
       style="fill:#263238"
       id="path74" />
    <polygon
       points="216.69,392.65 201.21,392.05 201.57,396.48 215.3,397.27 "
       style="fill:#60a3ab"
       id="polygon76" />
    <polygon
       points="262.51,385.63 248.7,391.23 251,395.34 263.12,390.44 "
       style="fill:#60a3ab"
       id="polygon78" />
    <path
       d="m 214,406.6 a 2.1,2.1 0 0 0 1.34,-0.28 0.94,0.94 0 0 0 0.38,-0.86 0.49,0.49 0 0 0 -0.25,-0.48 c -0.73,-0.43 -3,0.79 -3.27,0.94 a 0.14,0.14 0 0 0 -0.08,0.15 0.16,0.16 0 0 0 0.11,0.14 7.67,7.67 0 0 0 1.77,0.39 z m 1.1,-1.36 a 0.5,0.5 0 0 1 0.21,0 0.24,0.24 0 0 1 0.09,0.2 0.66,0.66 0 0 1 -0.26,0.58 3.24,3.24 0 0 1 -2.43,0 6.51,6.51 0 0 1 2.39,-0.77 z"
       style="fill:#60a3ab"
       id="path80" />
    <path
       d="m 212.3,406.25 h 0.07 c 0.73,-0.33 2.19,-1.75 2.08,-2.54 a 0.51,0.51 0 0 0 -0.49,-0.45 0.88,0.88 0 0 0 -0.7,0.16 c -0.82,0.61 -1.11,2.6 -1.12,2.65 a 0.17,0.17 0 0 0 0.07,0.15 z m 1.53,-2.68 h 0.08 c 0.2,0 0.22,0.14 0.22,0.19 0.06,0.44 -0.87,1.53 -1.61,2 a 4,4 0 0 1 0.93,-2.09 0.58,0.58 0 0 1 0.38,-0.1 z"
       style="fill:#60a3ab"
       id="path82" />
    <path
       d="m 263.25,400.24 v 0 c 1.11,-0.22 3,-0.72 3.47,-1.58 a 0.91,0.91 0 0 0 0,-0.89 0.53,0.53 0 0 0 -0.41,-0.3 c -0.94,-0.1 -3,2.2 -3.2,2.48 a 0.17,0.17 0 0 0 0,0.19 0.16,0.16 0 0 0 0.14,0.1 z m 3,-2.43 v 0 a 0.17,0.17 0 0 1 0.15,0.12 0.6,0.6 0 0 1 0,0.55 c -0.26,0.51 -1.28,1 -2.74,1.33 0.83,-0.9 2,-2 2.56,-2 z"
       style="fill:#60a3ab"
       id="path84" />
    <path
       d="m 263.25,400.24 a 0.13,0.13 0 0 0 0.11,-0.05 c 0.64,-0.66 1.59,-2.64 1.19,-3.32 -0.1,-0.15 -0.3,-0.31 -0.73,-0.19 a 1.21,1.21 0 0 0 -0.73,0.6 4.64,4.64 0 0 0 0,2.84 0.17,0.17 0 0 0 0.12,0.11 z m 0.85,-3.28 a 0.18,0.18 0 0 1 0.17,0.08 c 0.24,0.41 -0.35,1.9 -0.94,2.68 a 3.7,3.7 0 0 1 0.05,-2.28 0.81,0.81 0 0 1 0.53,-0.44 0.58,0.58 0 0 1 0.19,0 z"
       style="fill:#60a3ab"
       id="path86" />
    <path
       d="m 209.37,185 c 0,0 0.27,-0.11 0.83,-0.27 l 1.18,-0.15 1.78,-0.47 v 0 c 0.6,0.39 9.25,6 12,7.08 l 0.85,0.13 a 15,15 0 0 0 2.23,-7.66 h 1 a 2.44,2.44 0 0 0 1.14,0.56 l 0.82,0.09 2.58,1.81 c 0,0 5.68,11.49 7.8,40.37 l 1,21.86 -41.12,1.17 z"
       style="fill:#60a3ab"
       id="path88" />
    <g
       style="opacity:0.4;isolation:isolate"
       id="g92">
      <path
         d="m 227.24,189 a 0.36,0.36 0 0 1 0,0.09 v -0.08 z"
         id="path90" />
    </g>
    <path
       d="m 227.24,189 a 0.36,0.36 0 0 1 0,0.09 v -0.08 z"
       style="fill:#60a3ab"
       id="path94" />
    <path
       d="m 228.3,183.64 c 0,0 5.89,2.29 8.48,18 2.59,15.71 1.92,18.73 2.79,41 0.22,5.67 0.2,11.3 4.45,10.6 0,0 0.25,1.09 -0.84,-23.55 -1.09,-24.64 0.46,-46.03 -14.88,-46.05 z"
       style="fill:#60a3ab"
       id="path96" />
    <g
       style="opacity:0.6"
       id="g100">
      <path
         d="m 228.3,183.64 c 0,0 5.89,2.29 8.48,18 2.59,15.71 1.92,18.73 2.79,41 0.22,5.67 0.2,11.3 4.45,10.6 0,0 0.25,1.09 -0.84,-23.55 -1.09,-24.64 0.46,-46.03 -14.88,-46.05 z"
         id="path98" />
    </g>
    <path
       d="m 210.83,184.14 c 0,0 7.1,3.68 8.58,28.24 1.48,24.56 6.05,41.11 -2.21,42.12 -8.26,1.01 -17.45,-3.38 -17.45,-3.38 0,0 -0.77,2.25 0.45,-9.09 1,-9.47 0.5,-1.77 1.1,-10.74 0.69,-10.37 -5.77,-38.69 -2.23,-41.64 3.54,-2.95 11.76,-5.51 11.76,-5.51 z"
       style="fill:#60a3ab"
       id="path102" />
    <g
       style="opacity:0.6"
       id="g106">
      <path
         d="m 210.83,184.14 c 0,0 7.1,3.68 8.58,28.24 1.48,24.56 6.05,41.11 -2.21,42.12 -8.26,1.01 -17.45,-3.38 -17.45,-3.38 0,0 -0.77,2.25 0.45,-9.09 1,-9.47 0.5,-1.77 1.1,-10.74 0.69,-10.37 -5.77,-38.69 -2.23,-41.64 3.54,-2.95 11.76,-5.51 11.76,-5.51 z"
         id="path104" />
    </g>
    <g
       style="opacity:0.3"
       id="g110">
      <path
         d="m 208.42,233.84 h 5.1 a 3.27,3.27 0 0 1 3.27,3.27 v 0.74 h -11.64 v -0.74 a 3.27,3.27 0 0 1 3.27,-3.27 z"
         transform="rotate(-173.45,210.97481,235.84173)"
         id="path108" />
    </g>
    <path
       d="m 230.93,210.19 9.3,-1.5 2.87,-3.76 a 2.34,2.34 0 0 1 1.33,-0.86 l 3.25,-0.79 a 2.4,2.4 0 0 1 2.06,0.48 l 1.18,1 a 2.28,2.28 0 0 1 0.8,1.31 l 0.34,1.53 a 2.37,2.37 0 0 1 -0.93,2.43 l -4.67,3.36 a 2.28,2.28 0 0 1 -1.25,0.44 l -4.09,0.23 -10.81,2.94 z"
       style="fill:#ffc3bd"
       id="path112" />
    <path
       d="m 228.48,170.6 a 4.77,4.77 0 0 1 -3.09,-2.1 0.18,0.18 0 0 1 0.06,-0.23 0.18,0.18 0 0 1 0.23,0.07 4.51,4.51 0 0 0 3.46,2 0.17,0.17 0 0 1 0.17,0.16 0.17,0.17 0 0 1 -0.17,0.17 v 0 c -0.24,0.01 -0.45,-0.03 -0.66,-0.07 z"
       style="fill:#263238"
       id="path114" />
    <path
       d="M 213.19,184.08 226.48,195.94 227,195 a 16.71,16.71 0 0 0 1.34,-11.37 14.84,14.84 0 0 1 -1,5.36 l -1.64,-3.68 a 13.62,13.62 0 0 1 -0.43,3 l -0.89,-0.89 -2.48,2 c -3.69,-2.08 -8.28,-5.05 -8.71,-5.34 z"
       style="fill:#60a3ab"
       id="path116" />
    <path
       d="M 213.19,184.08 226.48,195.94 227,195 a 16.71,16.71 0 0 0 1.34,-11.37 14.84,14.84 0 0 1 -1,5.36 l -1.64,-3.68 a 13.62,13.62 0 0 1 -0.43,3 l -0.89,-0.89 -2.48,2 c -3.69,-2.08 -8.28,-5.05 -8.71,-5.34 z"
       style="opacity:0.2;isolation:isolate;fill:#ffffff"
       id="path118" />
    <path
       d="m 225.18,188.27 a 30.92,30.92 0 0 1 5.5,3.69 c -0.18,-1.38 -0.36,-2.75 -0.53,-4.12 a 13.13,13.13 0 0 0 -1.05,-4.26 4.38,4.38 0 0 0 -3.37,-2.55 c -0.12,0 -0.37,-0.24 -0.49,-0.24 a 17,17 0 0 1 -0.06,7.48 z"
       style="fill:#60a3ab"
       id="path120" />
    <path
       d="m 225.18,188.27 a 30.92,30.92 0 0 1 5.5,3.69 c -0.18,-1.38 -0.36,-2.75 -0.53,-4.12 a 13.13,13.13 0 0 0 -1.05,-4.26 4.38,4.38 0 0 0 -3.37,-2.55 c -0.12,0 -0.37,-0.24 -0.49,-0.24 a 17,17 0 0 1 -0.06,7.48 z"
       style="opacity:0.6;fill:#ffffff"
       id="path122" />
    <path
       d="m 225.18,188.27 -4.67,4.9 c 0,0 -7.43,-8 -7.35,-10.27 l 3.53,-3 z"
       style="fill:#60a3ab"
       id="path124" />
    <path
       d="m 225.18,188.27 -4.67,4.9 c 0,0 -7.43,-8 -7.35,-10.27 l 3.53,-3 z"
       style="opacity:0.6;fill:#ffffff"
       id="path126" />
    <path
       d="m 222.79,190.77 2.34,2.47 a 1.45,1.45 0 0 0 1.16,0.47 l 1.65,-0.23 a 0.64,0.64 0 0 0 0.49,-0.56 l -0.69,-3.14 -2.57,-1.5 z"
       style="fill:#ffffff"
       id="path128" />
    <path
       d="m 226.17,223 c 0,0 3.1,7.95 4.27,7 1.17,-0.95 3.7,-6.24 3.7,-6.35 A 109.7,109.7 0 0 0 228,193.3 l -1.89,0.24 a 246.29,246.29 0 0 1 0.06,29.46 z"
       style="fill:#ffffff"
       id="path130" />
    <path
       d="m 235.48,208.58 c 1.13,0.76 3.13,7.33 -0.19,8.29 -3.34,1.36 -18.06,6.6 -25.37,5.42 -1.92,-0.3 -3.78,-0.94 -4.87,-2.55 A 51.66,51.66 0 0 1 196.19,195 c -0.19,-2.19 0.14,-5 3.67,-5.61 a 9.72,9.72 0 0 1 6.83,4.08 c 3.91,6.51 4.19,11.73 7.29,18.57 z"
       style="fill:#60a3ab"
       id="path132" />
    <g
       style="opacity:0.6"
       id="g136">
      <path
         d="m 235.48,208.58 c 1.13,0.76 3.13,7.33 -0.19,8.29 -3.34,1.36 -18.06,6.6 -25.37,5.42 -1.92,-0.3 -3.78,-0.94 -4.87,-2.55 A 51.66,51.66 0 0 1 196.19,195 c -0.19,-2.19 0.14,-5 3.67,-5.61 a 9.72,9.72 0 0 1 6.83,4.08 c 3.91,6.51 4.19,11.73 7.29,18.57 z"
         id="path134" />
    </g>
    <path
       d="m 233,165.32 a 3,3 0 0 1 -2.89,-2.34 l -0.75,-3.44 7,-0.72 v 3.52 a 3,3 0 0 1 -2.66,2.93 h -0.35 z m -2.38,-4.86 0.5,2.3 a 1.92,1.92 0 0 0 2.08,1.51 h 0.35 a 1.93,1.93 0 0 0 1.73,-1.91 V 160 Z"
       style="fill:#60a3ab"
       id="path138" />
    <path
       d="m 226.06,166 a 3,3 0 0 1 -2.9,-2.34 l -0.74,-3.44 7,-0.72 v 3.52 a 3,3 0 0 1 -2.66,2.93 h -0.35 z m -2.38,-4.87 0.5,2.31 a 1.93,1.93 0 0 0 2.08,1.51 h 0.35 a 1.93,1.93 0 0 0 1.73,-1.9 v -2.36 z"
       style="fill:#60a3ab"
       id="path140" />
    <rect
       x="228.14999"
       y="159.55"
       width="2.3699999"
       height="1.04"
       transform="rotate(-5.94,229.21524,160.02695)"
       style="fill:#60a3ab"
       id="rect142" />
    <polygon
       points="220.79,160.56 223.29,160.17 223.44,161.19 221.02,161.56 214.57,163.49 214.28,162.5 "
       style="fill:#60a3ab"
       id="polygon144" />
    <path
       d="m 234.29,158 c 1.24,-0.1 2,-1.85 1.47,-3 -0.53,-1.15 -1.2,-1.83 -1.66,-2.89 a 21.76,21.76 0 0 0 -2.37,-4.44 7.33,7.33 0 0 0 -4,-2.87 c -1.63,-0.39 -2.84,0.7 -4.26,1.61 a 12.45,12.45 0 0 1 -4.63,1.43 11.13,11.13 0 0 0 -4.59,1.52 4,4 0 0 0 -1.77,4.19 c 10.89,-2.93 7.84,5.7 21.81,4.45 z"
       style="fill:#263238"
       id="path146" />
    <path
       d="m 257.93,177 c 0,-1.26 0,-2.52 0.07,-3.77 0,-0.45 0,-1 -0.38,-1.21 -0.38,-0.21 -1.12,0 -1.34,0.53 -0.22,0.53 -0.71,4.68 -0.78,5.31 0.58,0.67 2.42,0.01 2.43,-0.86 z"
       style="fill:#ffc3bd"
       id="path148" />
    <path
       d="m 210,160.52 a 5.4,5.4 0 0 1 6.2,-8.15 c 2.14,0.73 4.39,-0.26 6.63,-0.56 -1.53,1.63 -1.44,7.3 -1.79,7.67 a 3,3 0 0 1 -1.33,0.7 c -2.99,0.94 -6.71,0.82 -9.71,0.34 z"
       style="fill:#263238"
       id="path150" />
  </g>
  <g
     id="freepik--light-bulb--inject-2"
     transform="translate(-56.110001,-66.680708)">
    <path
       d="m 179.17,84.74 a 1.54,1.54 0 0 1 -1.63,-1 l -6.06,-14.92 a 1.5542924,1.5542924 0 0 1 2.88,-1.17 l 6.06,14.92 a 1.56,1.56 0 0 1 -0.85,2 1.47,1.47 0 0 1 -0.4,0.17 z"
       style="fill:#60a3ab"
       id="path153" />
    <path
       d="m 228.51,126 a 1.58,1.58 0 0 1 -0.8,-0.11 l -15.18,-6.41 a 1.56,1.56 0 0 1 1.21,-2.87 l 15.18,6.39 a 1.56,1.56 0 0 1 -0.41,3 z"
       style="fill:#60a3ab"
       id="path155" />
    <path
       d="m 164.36,98.91 a 1.59,1.59 0 0 1 -0.8,-0.11 L 149,92.66 a 1.5527154,1.5527154 0 0 1 1.21,-2.86 l 14.52,6.13 a 1.56,1.56 0 0 1 -0.41,3 z"
       style="fill:#60a3ab"
       id="path157" />
    <path
       d="m 213.36,99.56 a 1.55,1.55 0 0 1 -0.78,-3 L 228,90.34 a 1.5542924,1.5542924 0 1 1 1.17,2.88 l -15.38,6.24 a 1.4,1.4 0 0 1 -0.43,0.1 z"
       style="fill:#60a3ab"
       id="path159" />
    <path
       d="m 149.61,125.45 a 1.56,1.56 0 0 1 -0.77,-3 l 14.46,-5.87 a 1.5542924,1.5542924 0 1 1 1.17,2.88 L 150,125.34 a 1.4,1.4 0 0 1 -0.39,0.11 z"
       style="fill:#60a3ab"
       id="path161" />
    <path
       d="m 199.39,85.2 a 1.5,1.5 0 0 1 -0.8,-0.11 1.54,1.54 0 0 1 -0.82,-2 l 6.4,-15.15 a 1.55,1.55 0 1 1 2.83,1.18 l -6.4,15.15 a 1.53,1.53 0 0 1 -1.21,0.93 z"
       style="fill:#60a3ab"
       id="path163" />
    <path
       d="m 172.56,148.73 a 1.58,1.58 0 0 1 -0.8,-0.12 1.55,1.55 0 0 1 -0.83,-2 L 177.07,132 a 1.56,1.56 0 0 1 2.87,1.21 l -6.14,14.54 a 1.58,1.58 0 0 1 -1.24,0.98 z"
       style="fill:#60a3ab"
       id="path165" />
    <path
       d="m 207.22,100.52 a 20.07,20.07 0 0 0 -37.11,15.29 c 3.06,7.43 11,10 17.21,14.37 1.91,1.35 4.59,8.22 4.59,8.22 l 15.74,-6.48 c 0,0 -2.93,-6.77 -2.53,-9.07 1.32,-7.42 5.16,-14.85 2.1,-22.33 z"
       style="fill:#60a3ab"
       id="path167" />
    <path
       d="m 207.22,100.52 a 20.07,20.07 0 0 0 -37.11,15.29 c 3.06,7.43 11,10 17.21,14.37 1.91,1.35 4.59,8.22 4.59,8.22 l 15.74,-6.48 c 0,0 -2.93,-6.77 -2.53,-9.07 1.32,-7.42 5.16,-14.85 2.1,-22.33 z"
       style="opacity:0.5;fill:#ffffff"
       id="path169" />
    <path
       d="m 205.43,139.34 -6.72,2.77 a 4.89,4.89 0 0 1 -6.37,-2.66 v 0 L 208.08,133 v 0 a 4.88,4.88 0 0 1 -2.65,6.34 z"
       style="fill:#263238"
       id="path171" />
    <path
       d="m 204,145.46 v 0 a 4,4 0 0 1 -5.19,-2.17 v 0 l 7.36,-3 v 0 a 4,4 0 0 1 -2.17,5.17 z"
       style="fill:#263238"
       id="path173" />
    <path
       d="m 204,145.46 v 0 a 4,4 0 0 1 -5.19,-2.17 v 0 l 7.36,-3 v 0 a 4,4 0 0 1 -2.17,5.17 z"
       style="opacity:0.5;fill:#ffffff"
       id="path175" />
    <g
       style="opacity:0.7"
       id="g179">
      <path
         d="m 205.43,139.34 -6.72,2.77 a 4.89,4.89 0 0 1 -6.37,-2.66 v 0 L 208.08,133 v 0 a 4.88,4.88 0 0 1 -2.65,6.34 z"
         style="fill:#ffffff"
         id="path177" />
    </g>
    <path
       d="m 203.62,98 c 4.75,11.7 2.81,27.94 -6.23,31.62 -9.04,3.68 -22.4,-8.19 -26.51,-18.33 -2.54,-6.24 2.74,-14.28 11.78,-18 9.04,-3.72 18.43,-1.55 20.96,4.71 z"
       style="opacity:0.3;fill:#ffffff"
       id="path181" />
    <path
       d="m 202.48,111.72 a 11.38,11.38 0 1 1 -14.82,-6.26 11.37,11.37 0 0 1 14.82,6.26 z"
       style="opacity:0.4;fill:#ffffff"
       id="path183" />
    <path
       d="m 200.35,115.69 c 1.66,4.09 -1.15,6.68 -5.24,8.34 -4.09,1.66 -7.91,1.76 -9.57,-2.33 -1.66,-4.09 1.17,-6.62 5.26,-8.28 4.09,-1.66 7.88,-1.82 9.55,2.27 z"
       style="opacity:0.4;fill:#ffffff"
       id="path185" />
    <rect
       x="191.67"
       y="116.29"
       width="1.04"
       height="21.16"
       transform="rotate(-26.13,192.17233,126.86055)"
       style="fill:#60a3ab"
       id="rect187" />
    <rect
       x="198.83"
       y="113.38"
       width="1.04"
       height="21.16"
       transform="rotate(-18.07,199.32344,123.96395)"
       style="fill:#60a3ab"
       id="rect189" />
    <polygon
       points="189.54,120.02 194.45,122.09 196.49,117.27 197.44,117.67 195,123.45 189.14,120.97 "
       style="fill:#60a3ab"
       id="polygon191" />
  </g>
  <g
     id="freepik--Icons--inject-2"
     transform="translate(-56.110001,-66.680708)">
    <path
       d="m 195,177.93 a 1.48,1.48 0 0 1 -1.48,-1.48 v -9.19 a 1.5,1.5 0 1 1 3,0 v 9.19 a 1.49,1.49 0 0 1 -1.52,1.48 z"
       style="fill:#60a3ab"
       id="path194" />
    <path
       d="m 199.61,173.34 h -9.19 a 1.5,1.5 0 1 1 0,-3 h 9.19 a 1.5,1.5 0 0 1 0,3 z"
       style="fill:#60a3ab"
       id="path196" />
    <g
       style="opacity:0.5"
       id="g202">
      <path
         d="m 195,177.93 a 1.48,1.48 0 0 1 -1.48,-1.48 v -9.19 a 1.5,1.5 0 1 1 3,0 v 9.19 a 1.49,1.49 0 0 1 -1.52,1.48 z"
         style="fill:#ffffff"
         id="path198" />
      <path
         d="m 199.61,173.34 h -9.19 a 1.5,1.5 0 1 1 0,-3 h 9.19 a 1.5,1.5 0 0 1 0,3 z"
         style="fill:#ffffff"
         id="path200" />
    </g>
    <path
       d="m 251.66,155.08 a 2.32,2.32 0 0 1 -2.32,-2.32 v -14.32 a 2.32,2.32 0 0 1 4.63,0 v 14.32 a 2.31,2.31 0 0 1 -2.31,2.32 z"
       style="fill:#60a3ab"
       id="path204" />
    <path
       d="M 258.82,147.92 H 244.5 a 2.32,2.32 0 1 1 0,-4.63 h 14.32 a 2.32,2.32 0 0 1 0,4.63 z"
       style="fill:#60a3ab"
       id="path206" />
    <g
       style="opacity:0.5"
       id="g212">
      <path
         d="m 251.66,155.08 a 2.32,2.32 0 0 1 -2.32,-2.32 v -14.32 a 2.32,2.32 0 0 1 4.63,0 v 14.32 a 2.31,2.31 0 0 1 -2.31,2.32 z"
         style="fill:#ffffff"
         id="path208" />
      <path
         d="M 258.82,147.92 H 244.5 a 2.32,2.32 0 1 1 0,-4.63 h 14.32 a 2.32,2.32 0 0 1 0,4.63 z"
         style="fill:#ffffff"
         id="path210" />
    </g>
  </g>
</svg>
