<?xml version="1.0" encoding="UTF-8" standalone="no"?>
<svg
   viewBox="0 0 439.41937 372.01001"
   version="1.1"
   id="svg7808"
   width="439.41937"
   height="372.01001"
   xmlns="http://www.w3.org/2000/svg"
   xmlns:svg="http://www.w3.org/2000/svg">
  <defs
     id="defs7812" />
  <g
     id="freepik--background-complete--inject-8"
     transform="translate(-31.860929,-55)">
    <rect
       x="416.78"
       y="398.48999"
       width="33.119999"
       height="0.25"
       style="fill:#ebebeb"
       id="rect7487" />
    <rect
       x="322.53"
       y="401.20999"
       width="8.6899996"
       height="0.25"
       style="fill:#ebebeb"
       id="rect7489" />
    <rect
       x="396.59"
       y="389.20999"
       width="19.190001"
       height="0.25"
       style="fill:#ebebeb"
       id="rect7491" />
    <rect
       x="52.459999"
       y="390.89001"
       width="43.189999"
       height="0.25"
       style="fill:#ebebeb"
       id="rect7493" />
    <rect
       x="104.56"
       y="390.89001"
       width="6.3299999"
       height="0.25"
       style="fill:#ebebeb"
       id="rect7495" />
    <rect
       x="131.47"
       y="395.10999"
       width="93.68"
       height="0.25"
       style="fill:#ebebeb"
       id="rect7497" />
    <path
       d="M 237,337.8 H 43.91 a 5.71,5.71 0 0 1 -5.7,-5.71 V 60.66 A 5.71,5.71 0 0 1 43.91,55 H 237 a 5.71,5.71 0 0 1 5.71,5.71 V 332.09 A 5.71,5.71 0 0 1 237,337.8 Z M 43.91,55.2 a 5.46,5.46 0 0 0 -5.45,5.46 v 271.43 a 5.46,5.46 0 0 0 5.45,5.46 H 237 a 5.47,5.47 0 0 0 5.46,-5.46 V 60.66 A 5.47,5.47 0 0 0 237,55.2 Z"
       style="fill:#ebebeb"
       id="path7499" />
    <path
       d="m 453.31,337.8 h -193.1 a 5.72,5.72 0 0 1 -5.71,-5.71 V 60.66 A 5.72,5.72 0 0 1 260.21,55 h 193.1 a 5.71,5.71 0 0 1 5.69,5.66 v 271.43 a 5.71,5.71 0 0 1 -5.69,5.71 z M 260.21,55.2 a 5.47,5.47 0 0 0 -5.46,5.46 v 271.43 a 5.47,5.47 0 0 0 5.46,5.46 h 193.1 a 5.47,5.47 0 0 0 5.46,-5.46 V 60.66 a 5.47,5.47 0 0 0 -5.46,-5.46 z"
       style="fill:#ebebeb"
       id="path7501" />
    <rect
       y="382.39999"
       width="439.41937"
       height="0.25"
       style="fill:#ebebeb;stroke-width:0.937464"
       id="rect7503"
       x="31.860929" />
    <circle
       cx="246.77"
       cy="220.85001"
       r="113.65"
       style="fill:#f0f0f0"
       id="circle7505" />
    <path
       d="m 248.48,89.71 v 1 H 248 c -1.13,0 -2.25,0 -3.37,0.06 -1.12,0.06 -2.22,0.07 -3.32,0.14 -1.1,0.07 -2.34,0.14 -3.5,0.23 q -4.38,0.36 -8.68,1 a 131.71,131.71 0 0 0 -94.59,64.6 c -0.2,0.33 -0.39,0.67 -0.58,1 a 130.71,130.71 0 0 0 -16.88,64.4 v 0.21 c 0,0.33 0,0.67 0,1 A 130.6,130.6 0 0 0 134.76,288 l 0.59,1 a 131.56,131.56 0 0 0 105,64.35 q 3,0.18 5.94,0.23 h 2.21 v 1 h -1.11 a 130.51,130.51 0 0 1 -15.15,-1 132.6,132.6 0 0 1 -98,-64.6 l -0.58,-1 a 132.22,132.22 0 0 1 -0.81,-130.22 l 0.56,-1 a 132.87,132.87 0 0 1 89.78,-64.6 q 2.93,-0.57 5.88,-1 a 132.85,132.85 0 0 1 19.41,-1.45 z"
       style="fill:#e0e0e0"
       id="path7507" />
    <path
       d="m 247.65,354.56 c -36.76,0 -66.05,-95.1 -66.05,-132.42 0,-19.48 8.23,-53 19.57,-79.82 8.32,-19.65 25.54,-52.61 47.31,-52.61 v 1 c -35.95,0 -65.88,95.43 -65.88,131.43 0,16.7 6.56,49.35 19.08,79.43 8.08,19.42 24.8,52 46,52 z"
       style="fill:#e0e0e0"
       id="path7509" />
    <rect
       x="115.72"
       y="221.64"
       width="263.85999"
       height="1"
       transform="rotate(-89.66,247.65912,222.1334)"
       style="fill:#e0e0e0"
       id="rect7511" />
    <path
       d="m 244.61,354.56 v -1 c 72.46,0 131.42,-58.95 131.42,-131.42 0,-72.47 -59,-131.43 -131.42,-131.43 v -1 c 73,0 132.42,59.41 132.42,132.43 0,73.02 -59.4,132.42 -132.42,132.42 z"
       style="fill:#e0e0e0"
       id="path7513" />
    <path
       d="m 245.44,354.56 v -1 c 21.17,0 37.89,-32.57 46,-52 12.53,-30.08 19.08,-62.73 19.08,-79.43 0,-36 -29.93,-131.43 -65.88,-131.43 v -1 c 21.77,0 39,33 47.31,52.61 11.34,26.77 19.57,60.34 19.57,79.82 -0.03,37.33 -29.32,132.43 -66.08,132.43 z"
       style="fill:#e0e0e0"
       id="path7515" />
    <rect
       x="244.94"
       y="90.209999"
       width="1"
       height="263.85999"
       transform="rotate(-0.36,247.58089,223.59619)"
       style="fill:#e0e0e0"
       id="rect7517" />
    <polygon
       points="297.16,286.96 358.96,286.96 358.38,287.96 296.8,287.96 247.73,287.96 246.73,287.96 245.86,287.96 196.82,287.96 195.68,287.96 135.35,287.96 134.19,287.96 133.61,286.96 134.76,286.96 195.33,286.96 196.47,286.96 245.85,286.96 246.74,286.96 247.74,286.96 "
       style="fill:#e0e0e0"
       id="polygon7519" />
    <path
       d="M 359.2,155.74 H 133.36 l -0.56,1 h 227 z"
       style="fill:#e0e0e0"
       id="path7521" />
    <rect
       x="115.34"
       y="220.85001"
       width="259.97"
       height="1"
       style="fill:#e0e0e0"
       id="rect7523" />
    <rect
       x="116.04"
       y="218.07001"
       width="1"
       height="7.3200002"
       style="fill:#e0e0e0"
       id="rect7525" />
    <rect
       x="132.28"
       y="218.07001"
       width="1"
       height="7.3200002"
       style="fill:#e0e0e0"
       id="rect7527" />
    <rect
       x="148.52"
       y="218.07001"
       width="1"
       height="7.3200002"
       style="fill:#e0e0e0"
       id="rect7529" />
    <rect
       x="164.75"
       y="218.07001"
       width="1"
       height="7.3200002"
       style="fill:#e0e0e0"
       id="rect7531" />
    <rect
       x="180.99001"
       y="218.07001"
       width="1"
       height="7.3200002"
       style="fill:#e0e0e0"
       id="rect7533" />
    <rect
       x="197.22"
       y="218.07001"
       width="1"
       height="7.3200002"
       style="fill:#e0e0e0"
       id="rect7535" />
    <rect
       x="213.46001"
       y="218.07001"
       width="1"
       height="7.3200002"
       style="fill:#e0e0e0"
       id="rect7537" />
    <rect
       x="229.69"
       y="218.07001"
       width="1"
       height="7.3200002"
       style="fill:#e0e0e0"
       id="rect7539" />
    <rect
       x="245.92999"
       y="218.07001"
       width="1"
       height="7.3200002"
       style="fill:#e0e0e0"
       id="rect7541" />
    <rect
       x="262.17001"
       y="218.07001"
       width="1"
       height="7.3200002"
       style="fill:#e0e0e0"
       id="rect7543" />
    <rect
       x="278.39999"
       y="218.07001"
       width="1"
       height="7.3200002"
       style="fill:#e0e0e0"
       id="rect7545" />
    <rect
       x="294.64001"
       y="218.07001"
       width="1"
       height="7.3200002"
       style="fill:#e0e0e0"
       id="rect7547" />
    <rect
       x="310.87"
       y="218.07001"
       width="1"
       height="7.3200002"
       style="fill:#e0e0e0"
       id="rect7549" />
    <rect
       x="327.10999"
       y="218.07001"
       width="1"
       height="7.3200002"
       style="fill:#e0e0e0"
       id="rect7551" />
    <rect
       x="343.34"
       y="218.07001"
       width="1"
       height="7.3200002"
       style="fill:#e0e0e0"
       id="rect7553" />
    <rect
       x="359.57999"
       y="218.07001"
       width="1"
       height="7.3200002"
       style="fill:#e0e0e0"
       id="rect7555" />
    <rect
       x="375.82001"
       y="218.07001"
       width="1"
       height="7.3200002"
       style="fill:#e0e0e0"
       id="rect7557" />
    <rect
       x="375.91"
       y="344.38"
       width="9.4200001"
       height="33.77"
       style="fill:#ebebeb"
       id="rect7559" />
    <rect
       x="394.41"
       y="366.07001"
       width="9.4200001"
       height="12.07"
       style="fill:#ebebeb"
       id="rect7561" />
    <rect
       x="412.89999"
       y="360.10001"
       width="9.4200001"
       height="18.040001"
       style="fill:#ebebeb"
       id="rect7563" />
    <rect
       x="431.39999"
       y="371.23001"
       width="9.4200001"
       height="6.9200001"
       style="fill:#ebebeb"
       id="rect7565" />
    <rect
       x="449.89999"
       y="353.28"
       width="9.4200001"
       height="24.860001"
       style="fill:#ebebeb"
       id="rect7567" />
    <rect
       x="38.459999"
       y="344.38"
       width="68.519997"
       height="8.3900003"
       style="fill:#ebebeb"
       id="rect7569" />
    <rect
       x="38.459999"
       y="356.29001"
       width="93.010002"
       height="8.3900003"
       style="fill:#e0e0e0"
       id="rect7571" />
    <rect
       x="38.459999"
       y="368.09"
       width="27.129999"
       height="8.3900003"
       style="fill:#f0f0f0"
       id="rect7573" />
    <circle
       cx="331.54001"
       cy="359.92999"
       r="18.190001"
       transform="rotate(-76.72,331.52094,359.92189)"
       style="fill:none;stroke:#ebebeb;stroke-width:2px;stroke-miterlimit:10"
       id="circle7575" />
    <polygon
       points="342.88,359.11 331.61,369.97 331.22,365.95 "
       style="fill:#ebebeb"
       id="polygon7577" />
    <path
       d="m 344.1,368.89 -0.81,-0.59 a 14.51,14.51 0 1 0 -23.56,-0.08 l -0.81,0.58 a 15.51,15.51 0 1 1 25.18,0.09 z"
       style="fill:#ebebeb"
       id="path7579" />
    <rect
       x="133.31"
       y="72.709999"
       width="8.4899998"
       height="8.4899998"
       style="fill:#e0e0e0"
       id="rect7581" />
    <rect
       x="142.83"
       y="72.709999"
       width="8.4899998"
       height="8.4899998"
       style="fill:#e6e6e6"
       id="rect7583" />
    <rect
       x="152.35001"
       y="72.709999"
       width="8.4899998"
       height="8.4899998"
       style="fill:#ebebeb"
       id="rect7585" />
    <rect
       x="161.87"
       y="72.599998"
       width="8.4899998"
       height="8.4899998"
       style="fill:#f0f0f0"
       id="rect7587" />
    <rect
       x="171.38"
       y="72.709999"
       width="8.4899998"
       height="8.4899998"
       style="fill:#f5f5f5"
       id="rect7589" />
    <rect
       x="180.89999"
       y="72.709999"
       width="8.4899998"
       height="8.4899998"
       style="fill:#fafafa"
       id="rect7591" />
    <path
       d="m 314.75,88.61 c 0,2 -1.47,3.24 -3.81,3.24 h -1.75 L 308.77,94 h -1.83 l 1.57,-7.84 h 3.17 c 1.96,0.01 3.07,0.92 3.07,2.45 z m -1.84,0.16 c 0,-0.76 -0.54,-1.12 -1.45,-1.12 H 310 l -0.54,2.72 H 311 c 1.22,0 1.91,-0.56 1.91,-1.6 z"
       style="fill:#e0e0e0"
       id="path7593" />
    <path
       d="m 318.11,87.63 -0.33,1.7 h 3.64 l -0.28,1.41 h -3.65 l -0.36,1.82 h 4.27 L 321.1,94 H 315 l 1.57,-7.84 h 5.92 l -0.3,1.46 z"
       style="fill:#e0e0e0"
       id="path7595" />
    <path
       d="M 328.14,91.59 329.5,94 h -1.91 l -1.23,-2.19 h -1.55 L 324.38,94 h -1.83 l 1.57,-7.84 h 3.19 c 1.95,0 3.07,0.9 3.07,2.43 a 3,3 0 0 1 -2.24,3 z m 0.4,-2.82 c 0,-0.76 -0.54,-1.12 -1.47,-1.12 h -1.43 l -0.55,2.72 h 1.55 c 1.2,0 1.9,-0.56 1.9,-1.6 z"
       style="fill:#e0e0e0"
       id="path7597" />
    <path
       d="m 330.37,93.27 0.74,-1.4 a 4.43,4.43 0 0 0 2.59,0.82 c 1,0 1.62,-0.35 1.62,-0.92 0,-1.25 -3.89,-0.58 -3.89,-3.08 0,-1.61 1.42,-2.65 3.59,-2.65 a 5.13,5.13 0 0 1 2.71,0.67 L 337,88.1 a 3.82,3.82 0 0 0 -2.12,-0.61 c -1.06,0 -1.67,0.41 -1.67,1 0,1.28 3.88,0.61 3.88,3 0,1.62 -1.43,2.67 -3.61,2.67 a 5.56,5.56 0 0 1 -3.11,-0.89 z"
       style="fill:#e0e0e0"
       id="path7599" />
    <path
       d="M 338.18,90.74 A 4.61,4.61 0 0 1 343,86 c 2.38,0 3.82,1.39 3.82,3.4 A 4.61,4.61 0 0 1 342,94.15 c -2.39,0 -3.82,-1.39 -3.82,-3.41 z m 6.83,-1.2 a 1.9,1.9 0 0 0 -2.14,-2 2.86,2.86 0 0 0 -2.87,3.1 1.89,1.89 0 0 0 2.13,2 2.86,2.86 0 0 0 2.87,-3.1 z"
       style="fill:#e0e0e0"
       id="path7601" />
    <path
       d="M 356.15,86.17 354.58,94 h -1.49 l -2.92,-4.9 -1,4.9 h -1.79 L 349,86.17 h 1.5 l 2.92,4.92 1,-4.92 z"
       style="fill:#e0e0e0"
       id="path7603" />
    <path
       d="m 362,92.33 h -3.65 l -1,1.68 h -1.94 l 5.07,-7.84 h 1.8 L 364.2,94 h -1.81 z m -0.3,-1.38 -0.66,-3 -1.85,3 z"
       style="fill:#e0e0e0"
       id="path7605" />
    <path
       d="m 366.59,86.17 h 1.83 l -1.28,6.36 h 3.93 l -0.3,1.48 H 365 Z"
       style="fill:#e0e0e0"
       id="path7607" />
    <path
       d="m 339.15,98.75 h 3.28 c 2.42,0 3.86,1.26 3.86,3.27 0,2.76 -2,4.56 -4.88,4.56 h -3.83 z m 2.31,6.34 a 2.81,2.81 0 0 0 3,-3 c 0,-1.17 -0.75,-1.89 -2.22,-1.89 h -1.56 l -1,4.86 z"
       style="fill:#e0e0e0"
       id="path7609" />
    <path
       d="m 352.3,104.9 h -3.65 l -1,1.68 h -1.94 l 5.07,-7.83 h 1.79 l 1.93,7.83 h -1.81 z m -0.31,-1.37 -0.66,-3 -1.84,3 z"
       style="fill:#e0e0e0"
       id="path7611" />
    <path
       d="m 357.8,100.22 h -2.51 l 0.3,-1.47 h 6.83 l -0.3,1.47 h -2.5 l -1.27,6.36 h -1.82 z"
       style="fill:#e0e0e0"
       id="path7613" />
    <path
       d="m 367,104.9 h -3.65 l -1,1.68 h -1.94 l 5.07,-7.83 h 1.8 l 1.92,7.83 h -1.81 z m -0.3,-1.37 -0.66,-3 -1.85,3 z"
       style="fill:#e0e0e0"
       id="path7615" />
  </g>
  <g
     id="freepik--Shadow--inject-8"
     transform="translate(-31.860929,-55)">
    <ellipse
       id="freepik--path--inject-8"
       cx="250"
       cy="415.69"
       rx="193.89"
       ry="11.32"
       style="fill:#f5f5f5" />
  </g>
  <g
     id="freepik--Address--inject-8"
     transform="translate(-31.860929,-55)">
    <rect
       x="83.209999"
       y="287.28"
       width="17.299999"
       height="17.299999"
       style="fill:#60a3ab"
       id="rect7620" />
    <rect
       x="83.209999"
       y="287.28"
       width="17.299999"
       height="17.299999"
       style="opacity:0.3;fill:#ffffff"
       id="rect7622" />
    <path
       d="m 91.72,260.71 -22.54,22.54 h 8.49 v 21.33 h 9.77 V 290.66 H 96 v 13.92 h 9.77 v -21.33 h 8.5 z"
       style="fill:#60a3ab"
       id="path7624" />
    <polygon
       points="77.59,316.21 77.59,315.21 113.74,315.21 113.86,315.27 212.6,369.56 212.12,370.44 113.49,316.21 "
       style="fill:#60a3ab"
       id="polygon7626" />
  </g>
  <g
     id="freepik--finger-print--inject-8"
     transform="translate(-31.860929,-55)">
    <path
       d="m 71.49,198 c 0.1,8.28 3.59,17 10.8,21.11 a 17.78,17.78 0 0 0 7,2.19 c 7.85,0.75 15.65,-4.15 19.39,-11.1 3.74,-6.95 3.74,-15.53 1.13,-23 -2.61,-7.47 -14.12,-25.17 -23.43,-19 -9.31,6.17 -15.02,18.8 -14.89,29.8 z"
       style="fill:#60a3ab"
       id="path7629" />
    <path
       d="m 71.49,198 c 0.1,8.28 3.59,17 10.8,21.11 a 17.78,17.78 0 0 0 7,2.19 c 7.85,0.75 15.65,-4.15 19.39,-11.1 3.74,-6.95 3.74,-15.53 1.13,-23 -2.61,-7.47 -14.12,-25.17 -23.43,-19 -9.31,6.17 -15.02,18.8 -14.89,29.8 z"
       style="opacity:0.7;fill:#ffffff"
       id="path7631" />
    <path
       d="m 76.07,207.64 a 0.73,0.73 0 0 1 -0.69,-0.5 37.24,37.24 0 0 1 -1.65,-11.54 26.87,26.87 0 0 1 5,-15.39 0.72422372,0.72422372 0 0 1 1.18,0.84 25.45,25.45 0 0 0 -4.78,14.55 35.63,35.63 0 0 0 1.58,11.09 0.73,0.73 0 0 1 -0.47,0.91 0.57,0.57 0 0 1 -0.17,0.04 z"
       style="fill:#60a3ab"
       id="path7633" />
    <path
       d="m 86.81,218.84 a 0.57,0.57 0 0 1 -0.18,0 15.23,15.23 0 0 1 -9.93,-8.45 0.72225342,0.72225342 0 1 1 1.29,-0.65 13.84,13.84 0 0 0 9,7.7 0.74,0.74 0 0 1 0.51,0.89 0.73,0.73 0 0 1 -0.69,0.51 z"
       style="fill:#60a3ab"
       id="path7635" />
    <path
       d="m 91.25,219.38 a 0.72,0.72 0 1 1 0,-1.44 c 8.59,0 13.81,-5.07 15.5,-15.06 a 0.74,0.74 0 0 1 0.84,-0.6 0.73,0.73 0 0 1 0.59,0.84 c -1.8,10.64 -7.66,16.26 -16.93,16.26 z"
       style="fill:#60a3ab"
       id="path7637" />
    <path
       d="m 107.88,200.36 h -0.06 a 0.72,0.72 0 0 1 -0.66,-0.78 c 0.1,-1.26 0.16,-2.6 0.16,-4 a 24.87,24.87 0 0 0 -2.87,-11.37 0.71,0.71 0 0 1 0.3,-1 0.72,0.72 0 0 1 1,0.3 26.15,26.15 0 0 1 3,12 c 0,1.41 -0.05,2.79 -0.16,4.09 a 0.72,0.72 0 0 1 -0.71,0.76 z"
       style="fill:#60a3ab"
       id="path7639" />
    <path
       d="m 103.91,182.58 a 0.73,0.73 0 0 1 -0.61,-0.33 23.94,23.94 0 0 0 -6.61,-7 0.72,0.72 0 0 1 -0.2,-1 0.71,0.71 0 0 1 1,-0.2 25.32,25.32 0 0 1 7,7.39 0.72,0.72 0 0 1 -0.22,1 0.7,0.7 0 0 1 -0.36,0.14 z"
       style="fill:#60a3ab"
       id="path7641" />
    <path
       d="m 82.68,177.53 a 0.72,0.72 0 0 1 -0.49,-1.25 c 3,-2.83 6.31,-4.45 9.06,-4.45 a 9.87,9.87 0 0 1 4.14,1 0.72465509,0.72465509 0 1 1 -0.62,1.31 8.43,8.43 0 0 0 -3.52,-0.91 c -2.38,0 -5.32,1.48 -8.07,4.07 a 0.73,0.73 0 0 1 -0.5,0.23 z"
       style="fill:#60a3ab"
       id="path7643" />
    <path
       d="m 77.87,202.54 a 0.72,0.72 0 0 1 -0.71,-0.59 33.5,33.5 0 0 1 -0.54,-6.17 c 0,-11.24 8.91,-19.69 14.68,-19.69 a 9.55,9.55 0 0 1 4.78,1.54 0.72,0.72 0 0 1 0.24,1 0.73,0.73 0 0 1 -1,0.25 8.06,8.06 0 0 0 -4,-1.34 c -5.22,0 -13.23,8.18 -13.23,18.25 a 32.52,32.52 0 0 0 0.51,5.91 0.72,0.72 0 0 1 -0.58,0.84 z"
       style="fill:#60a3ab"
       id="path7645" />
    <path
       d="m 83.12,212.69 a 0.72,0.72 0 0 1 -0.46,-0.16 15.49,15.49 0 0 1 -4.55,-7 0.71,0.71 0 0 1 0.44,-0.92 0.73,0.73 0 0 1 0.92,0.44 14.13,14.13 0 0 0 4.12,6.33 0.72,0.72 0 0 1 -0.47,1.27 z"
       style="fill:#60a3ab"
       id="path7647" />
    <path
       d="m 91.3,215.47 a 14.32,14.32 0 0 1 -5.57,-1.06 0.73,0.73 0 0 1 0.57,-1.34 12.73,12.73 0 0 0 5,1 c 11.52,0 13.24,-11.43 13.24,-18.24 a 0.72,0.72 0 1 1 1.44,0 c 0.02,12.65 -5.21,19.64 -14.68,19.64 z"
       style="fill:#60a3ab"
       id="path7649" />
    <path
       d="m 105.08,193.87 a 0.71,0.71 0 0 1 -0.71,-0.63 21.16,21.16 0 0 0 -6.37,-12.37 0.725,0.725 0 1 1 1,-1.05 22.53,22.53 0 0 1 6.86,13.23 0.72,0.72 0 0 1 -0.62,0.81 z"
       style="fill:#60a3ab"
       id="path7651" />
    <path
       d="m 91.36,211.55 c -7.31,0 -11.85,-6 -11.85,-15.6 a 17.44,17.44 0 0 1 3.76,-10.65 0.72313553,0.72313553 0 0 1 1.14,0.89 A 15.94,15.94 0 0 0 81,196 c 0,8.86 3.89,14.15 10.4,14.15 a 9.87,9.87 0 0 0 5.18,-1.31 0.73,0.73 0 0 1 0.72,1.16 11.34,11.34 0 0 1 -5.94,1.55 z"
       style="fill:#60a3ab"
       id="path7653" />
    <path
       d="m 99.61,207.64 a 0.76,0.76 0 0 1 -0.43,-0.14 0.72,0.72 0 0 1 -0.15,-1 c 1.78,-2.43 2.73,-6.07 2.73,-10.54 0,-7.82 -6.3,-14.16 -10.4,-14.16 a 7.38,7.38 0 0 0 -4.12,1.63 0.73,0.73 0 0 1 -1,-0.16 0.71,0.71 0 0 1 0.16,-1 8.62,8.62 0 0 1 5,-1.9 c 4.66,0 11.84,6.7 11.84,15.6 0,4.78 -1,8.72 -3,11.39 a 0.71,0.71 0 0 1 -0.63,0.28 z"
       style="fill:#60a3ab"
       id="path7655" />
    <path
       d="m 85.73,205.19 a 0.72,0.72 0 0 1 -0.54,-0.25 c -1.8,-2 -2.79,-5.16 -2.79,-8.82 0,-6.2 5,-11.51 9,-11.51 a 5.6,5.6 0 0 1 2.16,0.46 0.72,0.72 0 0 1 0.39,1 0.71,0.71 0 0 1 -0.94,0.39 4.17,4.17 0 0 0 -1.61,-0.36 c -3,0 -7.56,4.33 -7.56,10.07 0,3.3 0.86,6.1 2.42,7.86 a 0.72,0.72 0 0 1 -0.06,1 0.7,0.7 0 0 1 -0.47,0.16 z"
       style="fill:#60a3ab"
       id="path7657" />
    <path
       d="m 91.41,207.64 a 8.83,8.83 0 0 1 -3.49,-0.69 0.73,0.73 0 0 1 0.58,-1.33 7.23,7.23 0 0 0 2.91,0.57 c 6.83,0 7.57,-7 7.57,-10.07 a 11.43,11.43 0 0 0 -3.85,-8.36 0.72,0.72 0 0 1 -0.07,-1 0.73,0.73 0 0 1 1,-0.07 12.7,12.7 0 0 1 4.34,9.45 c 0.02,7.19 -3.34,11.5 -8.99,11.5 z"
       style="fill:#60a3ab"
       id="path7659" />
    <path
       d="m 91.47,203.72 c -3,0 -5.26,-2 -6,-5.28 a 0.73,0.73 0 1 1 1.42,-0.3 c 0.55,2.63 2.21,4.13 4.54,4.13 3.48,0 4.72,-3.09 4.72,-6 a 0.73,0.73 0 0 1 0.73,-0.72 0.72,0.72 0 0 1 0.72,0.72 c 0.04,4.54 -2.38,7.45 -6.13,7.45 z"
       style="fill:#60a3ab"
       id="path7661" />
    <path
       d="m 86,197 a 0.73,0.73 0 0 1 -0.73,-0.73 c 0,-4.18 3.32,-7.42 6.18,-7.42 2.2,0 4.56,1.91 5.61,4.55 a 0.72,0.72 0 0 1 -0.4,0.94 0.74,0.74 0 0 1 -0.94,-0.41 c -0.81,-2 -2.69,-3.64 -4.27,-3.64 -2.13,0 -4.73,2.76 -4.73,6 A 0.73,0.73 0 0 1 86,197 Z"
       style="fill:#60a3ab"
       id="path7663" />
    <path
       d="m 91.52,199.8 a 3.34,3.34 0 1 1 0,-6.67 0.72,0.72 0 1 1 0,1.44 1.9,1.9 0 1 0 1.89,1.9 1.86,1.86 0 0 0 -0.6,-1.39 0.74,0.74 0 0 1 0,-1 0.72,0.72 0 0 1 1,0 3.33,3.33 0 0 1 -2.27,5.78 z"
       style="fill:#60a3ab"
       id="path7665" />
    <rect
       x="105.49"
       y="167.39"
       width="39.189999"
       height="1"
       transform="rotate(-29.05,125.07087,167.87266)"
       style="fill:#60a3ab"
       id="rect7667" />
  </g>
  <g
     id="freepik--Localization--inject-8"
     transform="translate(-31.860929,-55)">
    <polygon
       points="188.99,99.35 223.37,118.42 222.89,119.29 188.73,100.35 113.46,100.35 113.46,99.35 "
       style="fill:#60a3ab"
       id="polygon7670" />
    <polygon
       points="109.94,110.69 69.27,110.69 72.84,95.84 106.36,95.84 "
       style="fill:#60a3ab"
       id="polygon7672" />
    <polygon
       points="109.94,110.69 69.27,110.69 72.84,95.84 106.36,95.84 "
       style="opacity:0.3;fill:#ffffff"
       id="polygon7674" />
    <path
       d="M 89.6,67.15 A 11.28,11.28 0 0 0 78.33,78.42 c 0,6.23 11.27,22.64 11.27,22.64 0,0 11.28,-16.41 11.28,-22.64 A 11.28,11.28 0 0 0 89.6,67.15 Z M 89.6,84 A 5.14,5.14 0 1 1 94.74,78.87 5.13,5.13 0 0 1 89.6,84 Z"
       style="fill:#60a3ab"
       id="path7676" />
    <polygon
       points="70.64,104.98 76.14,104.97 100.98,100.7 107.54,100.7 107.3,99.7 100.89,99.71 76.05,103.98 70.88,103.98 "
       style="fill:#ffffff"
       id="polygon7678" />
  </g>
  <g
     id="freepik--online-identifier--inject-8"
     transform="translate(-31.860929,-55)">
    <rect
       x="378.63"
       y="71.760002"
       width="43.75"
       height="43.75"
       style="fill:#60a3ab"
       id="rect7681" />
    <rect
       x="378.63"
       y="71.760002"
       width="43.75"
       height="43.75"
       style="opacity:0.3;fill:#ffffff"
       id="rect7683" />
    <rect
       x="382.67001"
       y="75.800003"
       width="35.66"
       height="35.66"
       style="fill:#f5f5f5"
       id="rect7685" />
    <path
       d="m 407.79,89.93 a 9.62,9.62 0 0 1 -3.32,7.56 5.72,5.72 0 0 1 -7.26,0 9.62,9.62 0 0 1 -3.32,-7.56 c 0,-4.89 0.88,-8.86 6.95,-8.86 6.07,0 6.95,3.93 6.95,8.86 z"
       style="fill:#60a3ab"
       id="path7687" />
    <path
       d="m 414.48,109 v 2.5 H 387.2 V 109 c 0,-4.75 2.76,-7.94 7.68,-8.55 l 0.93,-0.06 a 1.4,1.4 0 0 0 1.4,-1.4 v -1.5 a 5.72,5.72 0 0 0 7.26,0 V 99 a 1.4,1.4 0 0 0 1.4,1.4 l 0.93,0.06 c 4.92,0.54 7.68,3.76 7.68,8.54 z"
       style="fill:#60a3ab"
       id="path7689" />
    <polygon
       points="369.36,78.41 302.94,78.41 268.78,97.36 268.29,96.48 302.68,77.41 369.36,77.41 "
       style="fill:#60a3ab"
       id="polygon7691" />
  </g>
  <g
     id="freepik--health-information--inject-8"
     transform="translate(-31.860929,-55)">
    <path
       d="m 414.27,187.5 h 5.06 c -4.31,4.49 -10.52,8.92 -16.42,13.4 l -4,2.94 -0.09,0.06 -3.9,-3.26 c -5,-4.31 -10.23,-8.81 -13.94,-13.28 h 7.51 l 3.29,-11.29 4.91,21.64 4.57,-11.08 2.85,6.18 3.35,-10.81 3.74,10.56 z"
       style="fill:#60a3ab"
       id="path7694" />
    <path
       d="m 414.27,187.5 h 5.06 c -4.31,4.49 -10.52,8.92 -16.42,13.4 l -4,2.94 -0.09,0.06 -3.9,-3.26 c -5,-4.31 -10.23,-8.81 -13.94,-13.28 h 7.51 l 3.29,-11.29 4.91,21.64 4.57,-11.08 2.85,6.18 3.35,-10.81 3.74,10.56 z"
       style="opacity:0.3;fill:#ffffff"
       id="path7696" />
    <path
       d="m 420.4,185.34 h -6.79 l -2.13,3.51 -4.09,-11.55 -3.5,11.28 -2.7,-5.86 -4.19,10.15 -5.1,-22.43 -4.29,14.76 H 380 c -4.65,-6 -6.21,-11.92 -0.2,-17.17 7.52,-6.58 16.23,-0.45 20.64,3.53 4.65,-3.69 14.86,-11.24 22.69,-1.42 3.97,4.93 1.6,10.3 -2.73,15.2 z"
       style="fill:#60a3ab"
       id="path7698" />
    <polygon
       points="334.49,187.36 274.84,154.28 275.32,153.4 334.86,186.43 369.36,186.43 369.36,187.43 334.6,187.43 "
       style="fill:#60a3ab"
       id="polygon7700" />
  </g>
  <g
     id="freepik--Income--inject-8"
     transform="translate(-31.860929,-55)">
    <path
       d="m 414.25,290.76 c 0,4.85 -3.34,9.1 -10.2,10.39 a 24.65,24.65 0 0 1 -4.56,0.4 26.37,26.37 0 0 1 -2.67,-0.13 c -4.58,-0.42 -8.91,-1.9 -11.49,-3.9 l 2.73,-6.06 a 20.29,20.29 0 0 0 8.76,3.42 17.8,17.8 0 0 0 2.72,0.21 11.3,11.3 0 0 0 4.51,-0.74 3.17,3.17 0 0 0 2.2,-3 c 0,-1.33 -0.85,-2.2 -2.2,-2.86 -1.79,-0.88 -4.48,-1.37 -7.23,-2.05 -5.27,-1.3 -10.79,-3.3 -10.79,-10.05 0,-5.08 3.52,-9.42 10.79,-10.54 a 24.57,24.57 0 0 1 3.87,-0.29 27.06,27.06 0 0 1 3.36,0.21 21.3,21.3 0 0 1 8.71,2.87 l -2.48,6.11 a 20.83,20.83 0 0 0 -6.23,-2.38 16.8,16.8 0 0 0 -3.41,-0.35 11.66,11.66 0 0 0 -3.82,0.54 c -2,0.69 -2.79,2 -2.79,3.43 0,1.43 1.1,2.4 2.79,3.07 a 69.21,69.21 0 0 0 7.23,1.9 c 5.08,1.3 10.2,3.38 10.2,9.8 z"
       style="fill:#60a3ab"
       id="path7703" />
    <path
       d="m 404.05,261.65 v 4.13 a 27.06,27.06 0 0 0 -3.36,-0.21 24.57,24.57 0 0 0 -3.87,0.29 v -4.21 z"
       style="fill:#60a3ab"
       id="path7705" />
    <path
       d="m 404.05,301.15 v 3.91 h -7.23 v -3.64 a 26.37,26.37 0 0 0 2.67,0.13 24.65,24.65 0 0 0 4.56,-0.4 z"
       style="fill:#60a3ab"
       id="path7707" />
    <path
       d="m 404.05,261.65 v 4.13 a 27.06,27.06 0 0 0 -3.36,-0.21 24.57,24.57 0 0 0 -3.87,0.29 v -4.21 z"
       style="opacity:0.3;fill:#ffffff"
       id="path7709" />
    <path
       d="m 404.05,301.15 v 3.91 h -7.23 v -3.64 a 26.37,26.37 0 0 0 2.67,0.13 24.65,24.65 0 0 0 4.56,-0.4 z"
       style="opacity:0.3;fill:#ffffff"
       id="path7711" />
    <polygon
       points="281.01,210.93 281.01,209.93 317.17,209.93 317.28,209.99 400.11,257.04 399.61,257.91 316.9,210.93 "
       style="fill:#60a3ab"
       id="polygon7713" />
  </g>
  <g
     id="freepik--Character--inject-8"
     transform="translate(-31.860929,-55)">
    <g
       id="freepik--group--inject-8">
      <polygon
         points="253.5,386.95 261.57,388.49 266.16,364.8 255.75,363.56 "
         style="fill:#ffc2bc"
         id="polygon7716" />
      <path
         d="m 263.25,387 -10.71,-3.33 a 0.9,0.9 0 0 0 -1.07,0.45 l -4.79,8.31 a 1.54,1.54 0 0 0 0.44,2 1.27,1.27 0 0 0 0.37,0.18 c 3.77,1.2 5.56,1.71 10.26,3.19 2.91,0.9 11.06,5 15.23,5 4.17,0 5,-4.35 3.27,-4.76 -7.54,-1.85 -10.07,-7.07 -11.69,-10 A 2.32,2.32 0 0 0 263.25,387 Z"
         style="fill:#263238"
         id="path7718" />
      <polygon
         points="266.16,364.81 263.9,376.44 254.59,375.68 255.75,363.56 "
         style="opacity:0.2;isolation:isolate"
         id="polygon7720" />
      <path
         d="m 259.42,181.19 c 4.09,0.68 7.25,-0.86 9.45,2.71 0.73,1.19 1.71,6.54 2.11,7.95 5,17.56 15.4,76.32 12.43,109.07 -2.65,29.18 -14.64,69.61 -14.64,69.61 l -16.16,1.53 c 0,0 6.12,-61.93 6.79,-86.06 1.15,-41.3 -16.3,-107.53 -16.3,-107.53 z"
         style="fill:#263238"
         id="path7722" />
      <polygon
         points="271.37,373.62 251.16,372.69 251.8,364.54 271.96,366.31 "
         style="fill:#60a3ab"
         id="polygon7724" />
      <path
         d="m 255.08,200.65 -4.28,11.58 c 3.19,15.49 8.34,42.7 8.65,70.41 5.97,-22.3 -1.45,-71.27 -4.37,-81.99 z"
         style="opacity:0.2;isolation:isolate"
         id="path7726" />
      <polygon
         points="222.02,382.63 231.24,384.39 235.55,361.18 225.52,359.61 "
         style="fill:#ffc2bc"
         id="polygon7728" />
      <path
         d="m 231.39,383.5 -9.33,-5.26 a 0.74,0.74 0 0 0 -1,0.23 l -5.7,8.1 a 1.66,1.66 0 0 0 0.39,2.22 l 0.16,0.1 c 3.27,1.78 4.95,2.46 9,4.79 2.54,1.47 8.88,5.86 12.37,7.82 3.49,1.96 6.27,-2.43 5,-3.56 -5.79,-5.19 -8.56,-9.9 -9.77,-13.1 a 2.63,2.63 0 0 0 -1.12,-1.34 z"
         style="fill:#263238"
         id="path7730" />
      <polygon
         points="225.46,359.86 235.44,361.77 233.25,373.56 223.65,371.74 "
         style="opacity:0.2;isolation:isolate"
         id="polygon7732" />
      <path
         d="m 252.74,177.7 c 0,0 11.51,40.63 2,107.3 A 392.84,392.84 0 0 1 235,369.56 L 223.13,364 c 0,0 3.15,-52.87 5.62,-74.29 5.07,-43.87 -2.53,-80 -3.55,-98.84 a 10.59,10.59 0 0 1 9.09,-11.21 z"
         style="fill:#263238"
         id="path7734" />
      <polygon
         points="237.33,371.23 220.3,367.86 220.67,360.92 239.71,364.54 "
         style="fill:#60a3ab"
         id="polygon7736" />
      <path
         d="m 235.4,387.7 a 1.37,1.37 0 0 0 0.63,-0.63 0.83,0.83 0 0 0 0.06,-0.78 c -0.54,-1.12 -3.9,-1.5 -4.28,-1.55 a 0.18,0.18 0 0 0 -0.18,0.08 0.2,0.2 0 0 0 0,0.22 c 0.76,1 2.25,2.78 3.42,2.7 a 1,1 0 0 0 0.35,-0.04 z m -3.16,-2.47 c 1.15,0.16 3.2,0.59 3.53,1.28 a 0.42,0.42 0 0 1 0,0.39 0.91,0.91 0 0 1 -0.7,0.53 c -0.69,0 -1.71,-0.81 -2.81,-2.24 z"
         style="fill:#60a3ab"
         id="path7738" />
      <path
         d="m 234.73,384.65 a 2.15,2.15 0 0 0 1.12,-0.88 0.82,0.82 0 0 0 -0.19,-1 1.13,1.13 0 0 0 -0.89,-0.37 c -1.35,0.07 -3.05,2.29 -3.12,2.38 a 0.22,0.22 0 0 0 0,0.19 0.18,0.18 0 0 0 0.14,0.14 6.45,6.45 0 0 0 2.94,-0.46 z m -0.44,-1.69 a 1.48,1.48 0 0 1 0.5,-0.13 0.74,0.74 0 0 1 0.61,0.25 0.46,0.46 0 0 1 0.12,0.51 c -0.34,0.69 -2.26,1.21 -3.35,1.19 a 7.08,7.08 0 0 1 2.12,-1.78 z"
         style="fill:#60a3ab"
         id="path7740" />
      <path
         d="m 267.5,390.41 a 3.41,3.41 0 0 0 2.25,0.1 1.32,1.32 0 0 0 0.82,-0.9 0.67,0.67 0 0 0 -0.07,-0.67 c -0.78,-1 -5.18,-0.29 -5.69,-0.21 a 0.18,0.18 0 0 0 -0.15,0.16 0.2,0.2 0 0 0 0.09,0.21 14.75,14.75 0 0 0 2.75,1.31 z m 2.25,-1.47 a 0.79,0.79 0 0 1 0.4,0.22 0.3,0.3 0 0 1 0,0.29 1,1 0 0 1 -0.61,0.67 c -1.07,0.43 -3.12,-0.53 -4.2,-1.11 a 13.14,13.14 0 0 1 4.38,0 z"
         style="fill:#60a3ab"
         id="path7742" />
      <path
         d="m 264.72,389.12 h 0.08 c 1.3,-0.16 4.32,-1.49 4.48,-2.57 0,-0.23 -0.06,-0.56 -0.56,-0.78 -2,-0.95 -4,2.88 -4.15,3.06 a 0.24,0.24 0 0 0 0,0.2 0.27,0.27 0 0 0 0.15,0.09 z m 3.72,-3 0.15,0.06 c 0.35,0.16 0.33,0.31 0.31,0.36 -0.09,0.69 -2.3,1.86 -3.76,2.17 0.52,-0.87 1.95,-3 3.3,-2.59 z"
         style="fill:#60a3ab"
         id="path7744" />
      <path
         d="m 335.2,142.19 c 0,0 0.76,-5.59 1.44,-5.39 0.68,0.2 5.95,-0.82 8.32,-1.27 a 4.29,4.29 0 0 1 2.16,0.17 l 5.36,1.86 a 1.35,1.35 0 0 1 0.86,1.67 l -1,3.2 a 1.37,1.37 0 0 1 -1.12,1 l -6.2,0.83 a 4.19,4.19 0 0 1 -1.54,-0.08 z"
         style="fill:#ffc2bc"
         id="path7746" />
      <path
         d="m 332.7,136.6 7.39,-2.75 c 0,0 3.8,3.17 2.54,6.52 -1.26,3.35 -3.05,3.69 -3.05,3.69 0,0 -3,2.48 -7.22,0 -4.22,-2.48 0.34,-7.46 0.34,-7.46 z"
         style="fill:#60a3ab"
         id="path7748" />
      <path
         d="m 267.13,122.77 c 7.23,2.31 25.72,8.48 34.44,11.85 4,1.56 20.37,0.56 27.46,1 a 21,21 0 0 1 5.28,1.63 l -1,5.4 c 0,0 -1,2.46 -3.23,2.9 -8.32,1.65 -28.95,3.29 -33.38,2.18 -12.87,-3.22 -34.35,-9 -35.95,-12.28 -2.43,-4.85 0.82,-14.45 6.38,-12.68 z"
         style="fill:#60a3ab"
         id="path7750" />
      <path
         d="m 283.16,144.16 -11.9,-3.84 a 46.64,46.64 0 0 0 -0.24,-4.77 c 4.69,5.11 12.14,8.61 12.14,8.61 z"
         style="opacity:0.2"
         id="path7752" />
      <path
         d="m 153.52,152.73 c 0,0 -0.76,-5.59 -1.44,-5.39 -0.68,0.2 -6,-0.82 -8.32,-1.27 a 4.18,4.18 0 0 0 -2.16,0.17 l -5.36,1.86 a 1.35,1.35 0 0 0 -0.86,1.67 l 1,3.2 a 1.35,1.35 0 0 0 1.12,0.95 l 6.21,0.84 a 4.15,4.15 0 0 0 1.53,-0.08 z"
         style="fill:#ffc2bc"
         id="path7754" />
      <path
         d="m 159.05,145.39 h -8.85 c 0,0 -3.2,2.41 -1.53,5.61 a 8.27,8.27 0 0 0 4,4 l 6.61,-1.68 c 4.37,-4.42 -0.23,-7.93 -0.23,-7.93 z"
         style="fill:#60a3ab"
         id="path7756" />
      <path
         d="m 229.22,135.32 a 5.73,5.73 0 0 1 -2.12,2.14 38.48,38.48 0 0 1 -3.83,2.33 v 0 c -7.28,4 -19.6,9.06 -28.07,12.42 -4.24,1.68 -24.91,2.76 -33.37,2.22 -2.25,-0.14 -3.58,-2.45 -3.58,-2.45 l -1.73,-5.21 a 20.87,20.87 0 0 1 5,-2.31 c 7,-1.38 23.3,-2.53 27.08,-4.6 8.21,-4.49 25.73,-13 32.59,-16.27 5.29,-2.48 9.81,6.6 8.03,11.73 z"
         style="fill:#60a3ab"
         id="path7758" />
      <path
         d="m 272,184.85 a 5,5 0 0 1 -0.78,2.8 l -0.41,0.61 -0.31,0.49 h -0.05 l -46.22,0.3 a 1.89,1.89 0 0 1 -0.27,-0.2 c -3.26,-2.51 -3,-7.05 -1.35,-10.81 1.42,-3.18 1.83,-9.26 1.76,-16.38 -0.07,-7.12 -0.64,-15.33 -1.16,-22.77 -0.48,-6.84 -0.36,-15.79 -0.36,-15.79 a 0.035,0 90 0 0 0,-0.07 113.66,113.66 0 0 1 16.15,-2 122.23,122.23 0 0 1 17.33,0.17 c 5.4,0.64 5.48,0.37 10.78,1.55 0,0 0,0 0,0 0.19,0.42 3,4.63 3.85,12.75 a 46.64,46.64 0 0 1 0.24,4.77 c 0,0.65 0,1.32 0,2 -0.14,3.64 -0.2,12.62 -0.63,31.57 a 19.17,19.17 0 0 0 0.35,6 18.54,18.54 0 0 1 1.08,5.01 z"
         style="fill:#60a3ab"
         id="path7760" />
      <path
         d="m 260.1,121.62 -8.1,14.53 c 0,0 -16.62,-14.83 -16.92,-14.83 l 3.93,-0.23 3.6,3 8.58,7.07 5.15,-9.86 z"
         style="opacity:0.2"
         id="path7762" />
      <path
         d="m 224.14,154.29 c -0.07,-2.46 -0.59,-10.69 -0.88,-14.49 v 0 a 38.48,38.48 0 0 0 3.83,-2.33 c 0.81,2.67 -2.89,19.28 -2.95,16.82 z"
         style="opacity:0.2"
         id="path7764" />
      <path
         d="m 256.36,121.26 -5.15,9.86 -8.58,-7.07 a 9,9 0 0 0 13.73,-2.79 z"
         style="fill:#263238"
         id="path7766" />
      <path
         d="m 256.36,121.26 a 9,9 0 0 1 -13.73,2.79 l -3.6,-3 c 3.94,-3.69 2.95,-13.91 1.91,-19.51 l 10.57,5.77 c 0.59,6.22 -1.32,12.39 4.85,13.95 z"
         style="fill:#ffc2bc"
         id="path7768" />
      <path
         d="m 243.9,111.09 c 0,0 2.12,8.6 8.84,7.7 0,0 -0.37,0.2 -1,-3.79 a 32.19,32.19 0 0 1 -0.22,-7.65 c 0,0 -7.17,0.2 -7.62,3.74 z"
         style="opacity:0.2"
         id="path7770" />
      <path
         d="m 236.32,98.3 c 3.79,8.54 5.2,12.23 11.28,15.06 9.14,4.27 18.78,-2.24 17.63,-11.72 -1,-8.55 -7.05,-21.06 -16.89,-21.36 a 12.75,12.75 0 0 0 -13.16,12.31 12.62,12.62 0 0 0 1.14,5.71 z"
         style="fill:#ffc2bc"
         id="path7772" />
      <path
         d="m 235.45,106.88 c 15.42,-1.68 4.72,-18.23 17.79,-25.35 -3.4,-6 -13,-6.73 -23.51,1.28 -8.94,6.81 5.72,24.07 5.72,24.07 z"
         style="fill:#263238"
         id="path7774" />
      <path
         d="m 242.52,79.37 c 0,0 16.8,5 19.32,11.48 0,0 0.65,-13.53 -5.32,-13.88 -5.97,-0.35 -16.91,-1.56 -14,2.4 z"
         style="fill:#263238"
         id="path7776" />
      <path
         d="m 236.29,107.83 a 6.88,6.88 0 0 0 5,1.57 c 2.37,-0.23 2.71,-2.56 1.33,-4.36 -1.23,-1.63 -4,-3.42 -6,-2.35 a 3.07,3.07 0 0 0 -1.14,4.19 3.18,3.18 0 0 0 0.81,0.95 z"
         style="fill:#ffc2bc"
         id="path7778" />
      <path
         d="m 250.47,95.82 c 0.26,0.7 0.86,1.13 1.32,1 0.46,-0.13 0.63,-0.89 0.36,-1.6 -0.27,-0.71 -0.85,-1.13 -1.31,-1 -0.46,0.13 -0.63,0.89 -0.37,1.6 z"
         style="fill:#263238"
         id="path7780" />
      <path
         d="m 258.5,92.83 c 0.27,0.71 0.85,1.13 1.33,1 0.48,-0.13 0.63,-0.88 0.35,-1.6 -0.28,-0.72 -0.84,-1.13 -1.31,-1 -0.47,0.13 -0.67,0.88 -0.37,1.6 z"
         style="fill:#263238"
         id="path7782" />
      <path
         d="m 256.83,94.84 a 20.23,20.23 0 0 0 4.23,3.6 3.27,3.27 0 0 1 -2.36,1.41 z"
         style="fill:#ec837e"
         id="path7784" />
      <path
         d="m 260.76,103.12 a 0.18,0.18 0 0 0 0.06,-0.26 v 0 a 0.2,0.2 0 0 0 -0.26,0 7.47,7.47 0 0 1 -5.15,1.32 0.19,0.19 0 0 0 -0.25,0.05 0.17,0.17 0 0 0 0,0.24 v 0 a 7.69,7.69 0 0 0 5.6,-1.35 z"
         style="fill:#263238"
         id="path7786" />
      <path
         d="m 247.61,90.66 a 0.31,0.31 0 0 0 0.3,-0.06 3.09,3.09 0 0 1 2.74,-0.72 0.36,0.36 0 0 0 0.41,-0.22 0.3,0.3 0 0 0 -0.15,-0.41 v 0 a 3.7,3.7 0 0 0 -3.31,0.84 0.36,0.36 0 0 0 -0.11,0.46 0.25,0.25 0 0 0 0.12,0.11 z"
         style="fill:#263238"
         id="path7788" />
      <path
         d="m 260,87.1 a 0.34,0.34 0 0 0 0.21,-0.29 0.36,0.36 0 0 0 -0.33,-0.4 v 0 a 4.28,4.28 0 0 0 -3.71,1.44 0.36,0.36 0 0 0 0,0.5 v 0 a 0.36,0.36 0 0 0 0.51,-0.06 v 0 a 3.61,3.61 0 0 1 3.08,-1.16 0.33,0.33 0 0 0 0.24,-0.03 z"
         style="fill:#263238"
         id="path7790" />
    </g>
    <path
       d="m 271.23,192.21 c -0.36,-0.24 -34,1.34 -43.86,1.52 -3.43,0.32 -3.71,-4.25 -2.93,-4.76 l 45.55,-0.24 h 0.05 l 0.33,-0.49 a 15.47,15.47 0 0 1 1.26,2.43 1.48,1.48 0 0 1 -0.4,1.54 z"
       style="fill:#60a3ab"
       id="path7793" />
    <path
       d="m 271.23,192.21 c -0.36,-0.24 -34,1.34 -43.86,1.52 -3.43,0.32 -3.71,-4.25 -2.93,-4.76 l 45.55,-0.24 h 0.05 l 0.33,-0.49 a 15.47,15.47 0 0 1 1.26,2.43 1.48,1.48 0 0 1 -0.4,1.54 z"
       style="opacity:0.2"
       id="path7795" />
    <path
       d="m 290,333.81 h -0.06 a 0.49,0.49 0 0 1 -0.43,-0.56 l 1,-8.24 a 0.49,0.49 0 0 1 0.56,-0.44 0.5,0.5 0 0 1 0.43,0.56 l -1,8.24 a 0.5,0.5 0 0 1 -0.5,0.44 z"
       style="fill:#60a3ab"
       id="path7797" />
    <path
       d="m 292,317.32 h -0.06 a 0.5,0.5 0 0 1 -0.44,-0.56 l 0.7,-5.68 a 260.56,260.56 0 0 0 1.73,-42.08 0.49,0.49 0 0 1 0.47,-0.52 0.5,0.5 0 0 1 0.52,0.48 260.21,260.21 0 0 1 -1.73,42.23 l -0.69,5.68 a 0.51,0.51 0 0 1 -0.5,0.45 z"
       style="fill:#60a3ab"
       id="path7799" />
    <path
       d="m 219.45,296.07 -1,-0.14 c 0,-0.16 2.17,-15.45 2.52,-27.33 A 233.47,233.47 0 0 0 219,230.74 l 1,-0.13 a 235.38,235.38 0 0 1 2,38 c -0.37,11.95 -2.53,27.3 -2.55,27.46 z"
       style="fill:#60a3ab"
       id="path7801" />
    <path
       d="m 219,230.74 c -0.55,-4.11 -1.21,-8.17 -2,-12.07 l 1,-0.19 c 0.76,3.92 1.43,8 2,12.13 z"
       style="fill:#60a3ab"
       id="path7803" />
    <path
       d="m 216,213.44 c -0.64,-2.84 -1.44,-6.18 -2.5,-9.5 l 1,-0.31 c 1.07,3.36 1.87,6.73 2.51,9.59 z"
       style="fill:#60a3ab"
       id="path7805" />
  </g>
</svg>
