<svg xmlns="http://www.w3.org/2000/svg" viewBox="0 0 500 500"><g id="freepik--background-complete--inject-2"><rect y="382.4" width="500" height="0.25" style="fill:#ebebeb"></rect><path d="M237,337.8H43.91a5.71,5.71,0,0,1-5.7-5.71V60.66A5.71,5.71,0,0,1,43.91,55H237a5.71,5.71,0,0,1,5.71,5.71V332.09A5.71,5.71,0,0,1,237,337.8ZM43.91,55.2a5.46,5.46,0,0,0-5.45,5.46V332.09a5.46,5.46,0,0,0,5.45,5.46H237a5.47,5.47,0,0,0,5.46-5.46V60.66A5.47,5.47,0,0,0,237,55.2Z" style="fill:#ebebeb"></path><path d="M453.31,337.8H260.21a5.72,5.72,0,0,1-5.71-5.71V60.66A5.72,5.72,0,0,1,260.21,55h193.1A5.71,5.71,0,0,1,459,60.66V332.09A5.71,5.71,0,0,1,453.31,337.8ZM260.21,55.2a5.47,5.47,0,0,0-5.46,5.46V332.09a5.47,5.47,0,0,0,5.46,5.46h193.1a5.47,5.47,0,0,0,5.46-5.46V60.66a5.47,5.47,0,0,0-5.46-5.46Z" style="fill:#ebebeb"></path><rect x="379.33" y="398.49" width="70.57" height="0.25" style="fill:#ebebeb"></rect><rect x="341" y="401.21" width="15.03" height="0.25" style="fill:#ebebeb"></rect><rect x="396.59" y="389.21" width="13.16" height="0.25" style="fill:#ebebeb"></rect><rect x="52.46" y="390.89" width="38.83" height="0.25" style="fill:#ebebeb"></rect><rect x="100.19" y="390.89" width="10.69" height="0.25" style="fill:#ebebeb"></rect><rect x="189.58" y="395.11" width="54.56" height="0.25" style="fill:#ebebeb"></rect><rect x="95.01" y="76.64" width="192.86" height="163.33" transform="translate(382.87 316.61) rotate(180)" style="fill:#e6e6e6"></rect><rect x="86.57" y="76.64" width="197.35" height="163.33" transform="translate(370.49 316.61) rotate(180)" style="fill:#f0f0f0"></rect><polygon points="95.01 239.97 287.87 239.97 287.87 246.66 91.07 246.66 95.01 239.97" style="fill:#e6e6e6"></polygon><polygon points="72.51 239.97 269.86 239.97 265.92 246.66 68.57 246.66 72.51 239.97" style="fill:#f0f0f0"></polygon><rect x="115.4" y="71.44" width="139.7" height="173.72" transform="translate(343.55 -26.94) rotate(90)" style="fill:#fafafa"></rect><polygon points="230.72 228.15 181.41 88.45 148.68 88.45 197.99 228.15 230.72 228.15" style="fill:#fff"></polygon><polygon points="190.96 228.15 141.65 88.45 128.89 88.45 178.19 228.15 190.96 228.15" style="fill:#fff"></polygon><rect x="29.28" y="157.55" width="139.7" height="1.5" transform="translate(257.44 59.17) rotate(90)" style="fill:#e6e6e6"></rect><path d="M263.78,285.63h75a13.2,13.2,0,0,1,13.2,13.2v67.41a13.2,13.2,0,0,1-13.2,13.2h-75a0,0,0,0,1,0,0v-93.8a0,0,0,0,1,0,0Z" style="fill:#f0f0f0"></path><rect x="249.96" y="285.63" width="27.64" height="93.8" rx="13.2" style="fill:#f5f5f5"></rect><rect x="273.83" y="320.23" width="88.62" height="59.2" transform="translate(636.28 699.67) rotate(180)" style="fill:#f0f0f0"></rect><path d="M265.79,379.44H433a2.71,2.71,0,0,1,2.71,2.71v.25a0,0,0,0,1,0,0H263.08a0,0,0,0,1,0,0v-.25A2.71,2.71,0,0,1,265.79,379.44Z" transform="translate(698.78 761.84) rotate(180)" style="fill:#e0e0e0"></path><path d="M317.08,246.71H435.7a0,0,0,0,1,0,0v68.5a18.4,18.4,0,0,1-18.4,18.4H335.49a18.4,18.4,0,0,1-18.4-18.4v-68.5a0,0,0,0,1,0,0Z" transform="translate(752.78 580.33) rotate(180)" style="fill:#e0e0e0"></path><path d="M303.57,246.71H422.19a0,0,0,0,1,0,0V316.1a17.52,17.52,0,0,1-17.52,17.52H321.09a17.52,17.52,0,0,1-17.52-17.52V246.71A0,0,0,0,1,303.57,246.71Z" transform="translate(725.76 580.33) rotate(180)" style="fill:#f5f5f5"></path><path d="M277.94,314.83h68.26a12.06,12.06,0,0,1,12.06,12.06v0a12.06,12.06,0,0,1-12.06,12.06H277.94a8.31,8.31,0,0,1-8.31-8.31v-7.49A8.31,8.31,0,0,1,277.94,314.83Z" transform="translate(627.87 653.77) rotate(180)" style="fill:#e0e0e0"></path><path d="M362.88,285.63h75a13.2,13.2,0,0,1,13.2,13.2v67.41a13.2,13.2,0,0,1-13.2,13.2h-75a0,0,0,0,1,0,0v-93.8A0,0,0,0,1,362.88,285.63Z" style="fill:#f0f0f0"></path><rect x="349.06" y="285.63" width="27.64" height="93.8" rx="13.2" style="fill:#f5f5f5"></rect><rect x="385.9" y="129.97" width="47.22" height="65.53" transform="translate(819.01 325.46) rotate(180)" style="fill:#e0e0e0"></rect><rect x="383.21" y="129.97" width="46.03" height="65.53" transform="translate(812.46 325.46) rotate(180)" style="fill:#f5f5f5"></rect><rect x="378.63" y="143.57" width="55.2" height="38.32" transform="translate(243.5 568.96) rotate(-90)" style="fill:#fff"></rect><path d="M422,171.55v13.89h0a31.53,31.53,0,0,1-31.53-31.53V140h0A31.53,31.53,0,0,1,422,171.55Z" style="fill:#f5f5f5"></path><rect x="322.96" y="102.36" width="47.22" height="65.53" transform="translate(693.14 270.26) rotate(180)" style="fill:#e0e0e0"></rect><rect x="320.28" y="102.36" width="46.03" height="65.53" transform="translate(686.59 270.26) rotate(180)" style="fill:#f5f5f5"></rect><rect x="315.69" y="115.97" width="55.2" height="38.32" transform="translate(208.16 478.42) rotate(-90)" style="fill:#fff"></rect><rect x="320.79" y="119.51" width="45" height="31.23" rx="10" transform="translate(208.16 478.42) rotate(-90)" style="fill:#f5f5f5"></rect><rect x="84.42" y="271.52" width="25.61" height="110.88" transform="translate(194.45 653.92) rotate(180)" style="fill:#e6e6e6"></rect><polygon points="89.28 382.4 84.42 382.4 84.42 371.11 94.39 371.11 89.28 382.4" style="fill:#f0f0f0"></polygon><rect x="180.15" y="271.52" width="25.61" height="110.88" transform="translate(385.92 653.92) rotate(180)" style="fill:#e6e6e6"></rect><rect x="84.42" y="271.52" width="99.98" height="103.95" transform="translate(268.82 646.99) rotate(180)" style="fill:#f0f0f0"></rect><rect x="69.03" y="297.6" width="82.92" height="44.58" transform="translate(-209.41 430.38) rotate(-90)" style="fill:#e6e6e6"></rect><rect x="116.87" y="297.6" width="82.92" height="44.58" transform="translate(-161.56 478.23) rotate(-90)" style="fill:#e6e6e6"></rect><path d="M153.92,281.6h8.82A15.6,15.6,0,0,0,172.87,278H143.79A15.62,15.62,0,0,0,153.92,281.6Z" style="fill:#f0f0f0"></path><path d="M105.62,281.6h8.82A15.58,15.58,0,0,0,124.57,278H95.5A15.57,15.57,0,0,0,105.62,281.6Z" style="fill:#f0f0f0"></path><polygon points="179.53 382.4 184.4 382.4 184.4 371.11 174.43 371.11 179.53 382.4" style="fill:#f0f0f0"></polygon><path d="M160.93,260.94s-.76,10.58-29.91,10.58-29.91-10.58-29.91-10.58Z" style="fill:#e6e6e6"></path></g><g id="freepik--Shadow--inject-2"><ellipse id="freepik--path--inject-2" cx="250" cy="416.24" rx="193.89" ry="11.32" style="fill:#f5f5f5"></ellipse></g><g id="freepik--character-2--inject-2"><polygon points="313.76 408.35 306.04 408.35 302.95 390.46 310.67 390.46 313.76 408.35" style="fill:#ffc3bd"></polygon><polygon points="359.19 408.35 351.47 408.35 344.41 390.46 352.13 390.46 359.19 408.35" style="fill:#ffc3bd"></polygon><path d="M350.38,407.46h9.42a.73.73,0,0,1,.69.52l1.92,6.87a1.06,1.06,0,0,1-1.05,1.37c-3-.05-5.25-.23-9.07-.23-2.35,0-7.17.25-10.41.25s-3.85-3.21-2.54-3.5c5.87-1.3,8-3.1,9.82-4.81A1.74,1.74,0,0,1,350.38,407.46Z" style="fill:#263238"></path><path d="M306,407.46h8.44a.74.74,0,0,1,.69.52l1.92,6.87a1.05,1.05,0,0,1-1,1.37c-3.05-.05-7.45-.23-11.28-.23-4.47,0-8.32.25-13.56.25-3.17,0-4.24-3.21-2.93-3.5,6-1.32,10.89-1.46,15.93-4.68A3.38,3.38,0,0,1,306,407.46Z" style="fill:#263238"></path><path d="M313.46,211.12c-2.82,4.09-5.71,8.18-8.6,12.24l-8.69,12.15-2.15,3-.57.81c-.24.34-.51.69-.8,1a12.88,12.88,0,0,1-2.23,2.18,9.77,9.77,0,0,1-1.74,1.05,7.74,7.74,0,0,1-2.41.7,7.3,7.3,0,0,1-2.72-.15,7.92,7.92,0,0,1-2.22-.91,9.82,9.82,0,0,1-2.6-2.34,16.25,16.25,0,0,1-1.44-2.22,25.23,25.23,0,0,1-1.72-4.13,40.29,40.29,0,0,1-1.06-4c-.3-1.31-.52-2.62-.7-3.93s-.33-2.59-.41-4l5.68-1.15,1.35,3.34c.47,1.12,1,2.21,1.45,3.29s1,2.11,1.55,3.08a22,22,0,0,0,1.66,2.59,5.11,5.11,0,0,0,.78.81c.21.17.39.24.25.09a2,2,0,0,0-1.32-.32c-.59.06-.81.22-.8.15a3.93,3.93,0,0,1,.35-.54c.09-.15.19-.31.29-.5l.45-.76,2-3.28c2.65-4.33,5.39-8.57,8.19-12.78s5.68-8.32,8.68-12.4Z" style="fill:#ffc3bd"></path><path d="M317.33,208.83c-.56,7.52-15.68,25.73-15.68,25.73L290,218.74s5.51-10.15,12.66-16.42S318,200.58,317.33,208.83Z" style="fill:#60A3AB"></path><path d="M317.33,208.83c-.56,7.52-15.68,25.73-15.68,25.73L290,218.74s5.51-10.15,12.66-16.42S318,200.58,317.33,208.83Z" style="fill:#fff;opacity:0.2"></path><path d="M279.85,226.14l-1.4-9.89L271,223s.9,5.7,6.4,5.48Z" style="fill:#ffc3bd"></path><polygon points="273.52 210.51 268.28 215.69 271 222.95 278.45 216.25 273.52 210.51" style="fill:#ffc3bd"></polygon><polygon points="302.95 390.47 304.54 399.69 312.27 399.69 310.68 390.47 302.95 390.47" style="opacity:0.2"></polygon><polygon points="352.14 390.47 344.41 390.47 348.05 399.69 355.78 399.69 352.14 390.47" style="opacity:0.2"></polygon><path d="M307.12,199.89s-7.76,23.32,3.42,66.76h41.32c-.09-6.34-5.87-37.28-1.49-67.16a110.76,110.76,0,0,0-13.93-1.75,153.41,153.41,0,0,0-17.56,0A74.87,74.87,0,0,0,307.12,199.89Z" style="fill:#60A3AB"></path><path d="M307.12,199.89s-7.76,23.32,3.42,66.76h41.32c-.09-6.34-5.87-37.28-1.49-67.16a110.76,110.76,0,0,0-13.93-1.75,153.41,153.41,0,0,0-17.56,0A74.87,74.87,0,0,0,307.12,199.89Z" style="fill:#fff;opacity:0.2"></path><path d="M350.37,199.49l-.18,0c-4.12-.59-8.13,4.19-9.77,10.62-2.39,9.36-2.61,24.48-2.61,24.48l11.12-1.35A183,183,0,0,1,350.37,199.49Z" style="opacity:0.2"></path><path d="M355.47,203.11c4.92,8.29,1.42,29.13,1.42,29.13l-17.29-.18s-1.38-14.18.49-23.66C342,198.6,351.69,196.72,355.47,203.11Z" style="fill:#60A3AB"></path><path d="M320.11,210.33a.27.27,0,0,1-.16-.06l-1.12-.92c-4.79-3.91-3.86-9.62-3.46-11.27a.25.25,0,0,1,.3-.19.26.26,0,0,1,.19.31c-.39,1.58-1.28,7,3.28,10.76l1,.85,1.3-.29a33.53,33.53,0,0,0,17.06-10l1.43-1.7a.25.25,0,1,1,.38.33l-1.42,1.69A34.14,34.14,0,0,1,321.59,210l-1.42.31Z" style="fill:#fff"></path><path d="M333.55,178c-.78,5.65-1.28,16,2.89,19.77a30.86,30.86,0,0,1-15.56,9.09c-4.33-3.54-2-9.09-2-9.09,6.21-1.5,5.78-6.18,4.43-10.57Z" style="fill:#ffc3bd"></path><path d="M329.38,181.72l-6.07,5.45a17.78,17.78,0,0,1,.72,3.12c2.39-.35,5.54-3,5.65-5.52A8.49,8.49,0,0,0,329.38,181.72Z" style="opacity:0.2"></path><path d="M319.13,158.54c-4,.9-7.33,11-2.8,14.3S326.66,156.84,319.13,158.54Z" style="fill:#263238"></path><path d="M336.57,170.62c-1.41,7.45-1.84,11.9-6.17,15.07-6.5,4.76-15.46-.38-16.34-8.22-.79-7.06,1.64-18,9.46-19.69A11.1,11.1,0,0,1,336.57,170.62Z" style="fill:#ffc3bd"></path><path d="M335.12,177.9c-3.55,2.47-9.54-20.24,2.21-16.37C347.68,164.93,340.86,173.92,335.12,177.9Z" style="fill:#263238"></path><path d="M332.64,163.42c-2.68-.06-14.47-1.78-17.44-4.86s2.3-7.56,2.3-7.56.14,2.42,1.36,3.25c.25-.69.95-3.92-.14-5.58,1.09-.31,5.56,2.91,6.06,4.11a6.43,6.43,0,0,0-.31-3,13.56,13.56,0,0,1,7.31,3.47c6.58,5.89,9,4.67,10.83,7.47,1.75,2.64,1.5,5.08-2.25,5.49C338.44,166.46,334,163.44,332.64,163.42Z" style="fill:#263238"></path><path d="M339,179.54a6.81,6.81,0,0,1-4.91,2.35c-2.55.09-3.37-2.33-2.28-4.43,1-1.89,3.48-4.21,5.86-3.31A3.36,3.36,0,0,1,339,179.54Z" style="fill:#ffc3bd"></path><path d="M310.54,266.65s-27.69,41.74-25.49,65.29c2.3,24.51,16.49,66,16.49,66h13.08s-7.68-40-8.49-64.09c-.89-26.23,32.74-46.92,31.57-67.16Z" style="fill:#263238"></path><path d="M327.08,280.33c-8.7,5.49-13.25,19.3-13.93,30.59,6.23-10.48,15.11-20.17,20.31-29.51C332.23,279.28,330.25,278.33,327.08,280.33Z" style="opacity:0.2"></path><path d="M325.2,266.65s-12.85,43-6.76,65.13c6.68,24.22,25.87,66.12,25.87,66.12h14.15S346.14,358,341.74,334C337,308,353,286,351.86,266.65Z" style="fill:#263238"></path><polygon points="341.83 398.21 359.79 398.21 358.59 392.91 339.34 392.91 341.83 398.21" style="fill:#60A3AB"></polygon><polygon points="341.83 398.21 359.79 398.21 358.59 392.91 339.34 392.91 341.83 398.21" style="opacity:0.2"></polygon><polygon points="298.64 398.21 316.42 398.21 316.13 393.17 297.64 392.91 298.64 398.21" style="fill:#60A3AB"></polygon><polygon points="298.64 398.21 316.42 398.21 316.13 393.17 297.64 392.91 298.64 398.21" style="opacity:0.2"></polygon><path d="M324.77,170.64c-.08.62-.47,1.05-.87,1s-.68-.63-.6-1.24.47-1,.87-1S324.84,170,324.77,170.64Z" style="fill:#263238"></path><path d="M317.77,169.38c-.08.61-.47,1.05-.87,1s-.68-.63-.6-1.25.47-1.05.87-1S317.84,168.77,317.77,169.38Z" style="fill:#263238"></path><path d="M320,170.09a20.16,20.16,0,0,1-3.61,4.7,3.78,3.78,0,0,0,2.89,1.09Z" style="fill:#ed847e"></path><path d="M320.83,177.9a5,5,0,0,0,4.56-1.29.2.2,0,0,0,0-.26.19.19,0,0,0-.26,0,4.71,4.71,0,0,1-4.24,1.18.16.16,0,0,0-.2.14A.21.21,0,0,0,320.83,177.9Z" style="fill:#263238"></path><path d="M327.16,168.79a.29.29,0,0,0,.22,0,.35.35,0,0,0,.14-.49,3.88,3.88,0,0,0-2.78-2,.33.33,0,0,0-.38.32.38.38,0,0,0,.34.4h0a3.12,3.12,0,0,1,2.18,1.63A.42.42,0,0,0,327.16,168.79Z" style="fill:#263238"></path><path d="M315,166.45a.35.35,0,0,0,.35-.15,2.7,2.7,0,0,1,2.25-1.25.35.35,0,0,0,.37-.35.39.39,0,0,0-.37-.38,3.41,3.41,0,0,0-2.87,1.55.38.38,0,0,0,.11.51A.33.33,0,0,0,315,166.45Z" style="fill:#263238"></path><path d="M354.71,207.25a171.81,171.81,0,0,1-.68,18.32c-.28,3.05-.62,6.1-1.13,9.17-.22,1.53-.53,3.08-.81,4.62s-.68,3.1-1.14,4.67l-.31,1.18-.08.24-.11.34a4.47,4.47,0,0,1-.25.64,8.1,8.1,0,0,1-.62,1.17,10.57,10.57,0,0,1-3,3.05,19.24,19.24,0,0,1-5.46,2.47,48.19,48.19,0,0,1-9.7,1.6A99.41,99.41,0,0,1,313,254.2l.11-5.8c2.85-.32,5.79-.64,8.66-1.07s5.72-.84,8.48-1.42a46.25,46.25,0,0,0,7.71-2.16,9,9,0,0,0,2.53-1.41c.21-.19.25-.32.1-.15l-.12.18-.05.12,0,.07v0l.2-1c.53-2.64.89-5.44,1.18-8.26s.5-5.69.66-8.57c.33-5.74.49-11.64.56-17.33Z" style="fill:#ffc3bd"></path><path d="M355.47,203.11c4.92,8.29,1.42,29.13,1.42,29.13l-17.29-.18s-1.38-14.18.49-23.66C342,198.6,351.69,196.72,355.47,203.11Z" style="fill:#60A3AB"></path><path d="M355.47,203.11c4.92,8.29,1.42,29.13,1.42,29.13l-17.29-.18s-1.38-14.18.49-23.66C342,198.6,351.69,196.72,355.47,203.11Z" style="fill:#fff;opacity:0.2"></path><path d="M347.91,408.81a8.84,8.84,0,0,0,2-.28.18.18,0,0,0,.13-.15.19.19,0,0,0-.09-.18c-.29-.18-2.87-1.71-3.7-1.27a.54.54,0,0,0-.29.52,1.17,1.17,0,0,0,.44,1A2.39,2.39,0,0,0,347.91,408.81Zm1.46-.54a3.76,3.76,0,0,1-2.75-.14.77.77,0,0,1-.29-.66.24.24,0,0,1,.1-.22C346.86,407,348.32,407.69,349.37,408.27Z" style="fill:#60A3AB"></path><path d="M349.87,408.53a.17.17,0,0,0,.1,0,.16.16,0,0,0,.07-.16c0-.1-.33-2.33-1.27-3.06a1,1,0,0,0-.79-.23.55.55,0,0,0-.55.47c-.12.87,1.53,2.56,2.35,3A.15.15,0,0,0,349.87,408.53Zm-1.74-3.13a.74.74,0,0,1,.43.16,4.69,4.69,0,0,1,1.05,2.42c-.83-.6-1.89-1.88-1.82-2.39,0,0,0-.15.26-.18Z" style="fill:#60A3AB"></path><path d="M302.91,408.81a12.88,12.88,0,0,0,2.41-.28.17.17,0,0,0,.14-.15.2.2,0,0,0-.11-.19c-.36-.18-3.56-1.76-4.47-1.23a.54.54,0,0,0-.27.48,1.08,1.08,0,0,0,.39.89A3,3,0,0,0,302.91,408.81Zm1.78-.54c-1.68.28-3,.21-3.46-.21a.71.71,0,0,1-.25-.59.2.2,0,0,1,.1-.19C301.57,407,303.38,407.66,304.69,408.27Z" style="fill:#60A3AB"></path><path d="M305.28,408.53a.2.2,0,0,0,.11,0,.18.18,0,0,0,.07-.17c0-.08-.35-2.16-1.38-3a1.41,1.41,0,0,0-1-.32c-.5.06-.63.31-.65.52-.09.87,1.85,2.54,2.81,3Zm-2.06-3.13a1,1,0,0,1,.65.24A4.69,4.69,0,0,1,305,408c-1-.57-2.32-1.88-2.27-2.41,0,0,0-.17.35-.2Z" style="fill:#60A3AB"></path><path d="M286.23,217.46h0A27.81,27.81,0,1,0,257.87,253h.05c.47,0,.94,0,1.41,0,16.7.59,24.08,3.42,24.08,3.42l5.93-7.43,5.93-7.44s-4.39-6.56-8.67-22.71c-.11-.46-.23-.91-.36-1.37A.43.43,0,0,1,286.23,217.46Z" style="fill:#60A3AB"></path><path d="M293.62,250.09l0,0a.25.25,0,0,1-.36,0l-18.86-16.54a4.08,4.08,0,0,0,.18.43c.19.41.43.93.1,1.35s-.9.3-1.34.21-.71-.14-.84,0,0,.42.15.82.44.93.1,1.36-.9.3-1.34.2a3.44,3.44,0,0,0-.46-.08l20.31,14.73a.25.25,0,1,1-.25.43l-20.77-15a.27.27,0,0,1-.12-.17.25.25,0,0,1,.06-.2c.33-.42.89-.31,1.33-.21s.71.14.84,0,0-.42-.15-.82-.44-.93-.1-1.36.9-.3,1.34-.2.71.13.84,0,0-.43-.15-.83-.44-.93-.1-1.35a.25.25,0,0,1,.38,0l19.22,16.93A.25.25,0,0,1,293.62,250.09Z" style="fill:#fff"></path><path d="M284.11,247H303.2a0,0,0,0,1,0,0v7.21a4,4,0,0,1-4,4H287.72a3.61,3.61,0,0,1-3.61-3.61V247a0,0,0,0,1,0,0Z" transform="translate(-86.94 324.54) rotate(-51.41)" style="fill:#263238"></path><path d="M296.08,258.5l1.29.5a.88.88,0,0,0,.95-.2l2.53-3.17a.88.88,0,0,0,0-1l-.77-1.15Z" style="fill:#60A3AB"></path><path d="M314.49,248.57l-7.3-2.82,1.08,10s6.67,1,7.42-2.62Z" style="fill:#ffc3bd"></path><polygon points="299.29 247.75 300.6 255.95 308.27 255.79 307.19 245.75 299.29 247.75" style="fill:#ffc3bd"></polygon></g><g id="freepik--character-1--inject-2"><polygon points="161.26 408.14 169.19 408.14 169.97 389.76 162.03 389.76 161.26 408.14" style="fill:#ff8b7b"></polygon><path d="M170.12,407.22h-9.67a.59.59,0,0,0-.61.54l-.74,7.05a1.33,1.33,0,0,0,1.33,1.41c3.1-.05,5.35-.23,9.27-.23,2.41,0,9.71.25,13,.25s3.38-3.29,2-3.59c-6.27-1.34-11.09-3.18-13.25-4.94A2.14,2.14,0,0,0,170.12,407.22Z" style="fill:#263238"></path><polygon points="162.03 389.77 169.97 389.77 169.56 399.24 161.63 399.24 162.03 389.77" style="opacity:0.2"></polygon><path d="M187.92,160.33H183c2.07,1.7,10,47.41,7.69,69.37,4.79.3,6.45-1.37,6.45-1.37S197.22,194.11,187.92,160.33Z" style="fill:#fff"></path><polygon points="200.61 408.14 208.55 408.14 209.32 389.76 201.39 389.76 200.61 408.14" style="fill:#ff8b7b"></polygon><polygon points="201.39 389.77 209.32 389.77 208.92 399.24 200.98 399.24 201.39 389.77" style="opacity:0.2"></polygon><path d="M213.34,396l-14.17-.12s1.2-51.73-.86-76.36c-.63-7.5-.77-17.89-3.14-29.07-3-14.09-6.78-29.34-9.88-41.27-3.27-12.58-5.77-21.48-5.77-21.48l27.85-1.65s12.58,66,13.14,90.18C221.1,341.44,213.34,396,213.34,396Z" style="fill:#60A3AB"></path><path d="M209.48,407.22h-9.67a.6.6,0,0,0-.62.54l-.73,7.05a1.32,1.32,0,0,0,1.32,1.41c3.11-.05,5.36-.23,9.28-.23,2.41,0,11.12.25,14.45.25s3.38-3.29,2-3.59c-6.27-1.34-12.5-3.18-14.67-4.94A2.13,2.13,0,0,0,209.48,407.22Z" style="fill:#263238"></path><polygon points="214.5 397.72 196.28 397.72 196.28 392.61 215.34 392.28 214.5 397.72" style="fill:#263238"></polygon><path d="M212.27,408.6a2.23,2.23,0,0,0,1.48-.4,1,1,0,0,0,.27-1,.68.68,0,0,0-.39-.53c-.93-.46-3.3,1.12-3.57,1.3a.17.17,0,0,0-.06.19.22.22,0,0,0,.16.15A9.9,9.9,0,0,0,212.27,408.6Zm1-1.64a.62.62,0,0,1,.25.05.28.28,0,0,1,.15.22.71.71,0,0,1-.18.68c-.39.37-1.42.42-2.8.15A6.75,6.75,0,0,1,213.25,407Z" style="fill:#60A3AB"></path><path d="M210.2,408.33l.09,0c.77-.44,2.15-2.18,1.88-3.07a.72.72,0,0,0-.66-.49,1,1,0,0,0-.77.24c-.83.76-.75,3-.75,3.14a.18.18,0,0,0,.11.17A.14.14,0,0,0,210.2,408.33Zm1.22-3.22h.09c.25,0,.28.15.3.19.16.53-.7,1.84-1.44,2.46a4.12,4.12,0,0,1,.64-2.49A.59.59,0,0,1,211.42,405.11Z" style="fill:#60A3AB"></path><path d="M195.17,290.49c-3-14.09-6.78-29.34-9.88-41.27l3-6.19C195.06,251.3,196.65,276.71,195.17,290.49Z" style="opacity:0.2"></path><path d="M192.34,227s-3.72,67.89-7.31,90.86c-3.93,25.15-11.6,79.57-11.6,79.57H158.9s-.33-51.56,2.89-76.17c3.67-28,3.22-92.64,3.22-92.64Z" style="fill:#60A3AB"></path><polygon points="175.14 397.72 156.92 397.72 156.92 392.61 175.98 392.28 175.14 397.72" style="fill:#263238"></polygon><path d="M172.91,408.6a2.23,2.23,0,0,0,1.48-.4,1,1,0,0,0,.27-1,.69.69,0,0,0-.38-.53c-.93-.46-3.31,1.12-3.58,1.3a.17.17,0,0,0-.06.19.22.22,0,0,0,.16.15A10,10,0,0,0,172.91,408.6Zm1-1.64a.58.58,0,0,1,.25.05.26.26,0,0,1,.15.22.71.71,0,0,1-.18.68c-.39.37-1.42.42-2.8.15A6.81,6.81,0,0,1,173.89,407Z" style="fill:#60A3AB"></path><path d="M170.84,408.33l.09,0c.77-.44,2.15-2.18,1.88-3.07a.72.72,0,0,0-.65-.49,1,1,0,0,0-.78.24c-.83.76-.75,3-.75,3.14a.23.23,0,0,0,.11.17A.14.14,0,0,0,170.84,408.33Zm1.23-3.22h.08c.25,0,.29.15.3.19.16.53-.7,1.84-1.44,2.46a4.06,4.06,0,0,1,.65-2.49A.57.57,0,0,1,172.07,405.11Z" style="fill:#60A3AB"></path><path d="M207.58,162.17c3.53,4.13,7.24,8.36,10.94,12.42,1.86,2,3.74,4.06,5.64,6s3.83,3.86,5.78,5.66l1.47,1.33,1.48,1.25.59.5.4.3a6.26,6.26,0,0,0,.89.47,9.29,9.29,0,0,0,5.43.08c4.43-1,9.37-3.74,13.68-6.63l4.12,4.31a40.72,40.72,0,0,1-3.15,3.36,43.59,43.59,0,0,1-3.45,3,38.81,38.81,0,0,1-3.86,2.68,28,28,0,0,1-4.42,2.21,22.14,22.14,0,0,1-5.2,1.38,16.86,16.86,0,0,1-6-.32,14.59,14.59,0,0,1-3-1.11,15.2,15.2,0,0,1-1.42-.8l-.64-.42-.47-.34-1.86-1.36-1.78-1.4a147.54,147.54,0,0,1-12.9-12c-4-4.2-7.81-8.44-11.49-13Z" style="fill:#ff8b7b"></path><path d="M193.85,165.17c-.75,7.55,17.74,24.24,17.74,24.24L224.69,177A97.05,97.05,0,0,0,211,161.41C203.44,154.78,194.67,156.89,193.85,165.17Z" style="fill:#263238"></path><path d="M205.24,171.24c4.48.36,8.37,11.12,7.63,17l-1.28,1.21a121.67,121.67,0,0,1-12.33-13.08C199,172.47,200.38,170.85,205.24,171.24Z" style="opacity:0.2"></path><path d="M209.31,229.08c-3.73,1.59-9,1.89-13.63,2.17.16-7.43-.21-41.69-8.28-71l-4.37,0c2,1.63,9.78,48.89,8.3,71.67-10.81.64-24.8-.6-27.46-3.17a199.9,199.9,0,0,0,.65-25.44c-.23-5.32-.61-11.19-1.3-17.35a177.45,177.45,0,0,0-4.77-26.15s5-1.33,10.68-2.19c1.12-.17,2.27-.32,3.4-.44a156.56,156.56,0,0,1,18-1.07c.74,0,1.47.06,2.19.11a83.65,83.65,0,0,1,10.11,1.36S212.87,184.91,209.31,229.08Z" style="fill:#263238"></path><path d="M173.11,136.87c1.48,5.73,3.24,16.28-.58,20.39a18.07,18.07,0,0,0,14.21,4.7c5-.41,5-3.91,3.8-5.77-6.56-1.16-6.67-6-5.81-10.53Z" style="fill:#ff8b7b"></path><path d="M169.69,157.62s1.49-2.48,3.2-3c3.6,3.7,11.87,5.43,11.87,5.43-.76,2.1.42,4.5,1.09,5.44C185.85,165.54,172.92,162.42,169.69,157.62Z" style="fill:#263238"></path><g style="opacity:0.2"><path d="M169.69,157.62s1.49-2.48,3.2-3c3.6,3.7,11.87,5.43,11.87,5.43-.76,2.1.42,4.5,1.09,5.44C185.85,165.54,172.92,162.42,169.69,157.62Z" style="fill:#fff"></path></g><path d="M192,155.88a26.68,26.68,0,0,0-4-.78c1.15,3.86-1.2,4.61-1.2,4.61a10.42,10.42,0,0,1,1,5.7S194.08,161.46,192,155.88Z" style="fill:#263238"></path><g style="opacity:0.2"><path d="M192,155.88a26.68,26.68,0,0,0-4-.78c1.15,3.86-1.2,4.61-1.2,4.61a10.42,10.42,0,0,1,1,5.7S194.08,161.46,192,155.88Z" style="fill:#fff"></path></g><path d="M177.85,140.46l6.87,5.19a19,19,0,0,0-.37,3.23c-2.49-.21-6-2.72-6.45-5.29A8.46,8.46,0,0,1,177.85,140.46Z" style="opacity:0.2"></path><path d="M193,117.57c5.73,2.29,3.32,16.23-1.14,17.92S182.24,113.29,193,117.57Z" style="fill:#263238"></path><path d="M173.51,126.57c-.21,7.87-.73,12.47,2.87,16.84,5.42,6.56,15.4,3.83,18-3.82,2.3-6.89,2.26-18.6-5.13-22.39A10.74,10.74,0,0,0,173.51,126.57Z" style="fill:#ff8b7b"></path><path d="M173.38,134.29c2.91,2.8,9.19-16.37,1.73-18.06C162.47,113.36,166.52,127.68,173.38,134.29Z" style="fill:#263238"></path><path d="M174.48,117.54c1.83-.06,31,17.43,29.92-4.21-1.64.88-7.29,1.69-13.45-2.28-7.65-4.91-18.26-4.59-20.29.72C169,116.15,174.48,117.54,174.48,117.54Z" style="fill:#263238"></path><path d="M169.21,134.89a7.51,7.51,0,0,0,4.36,3.7c2.51.79,3.84-1.43,3.21-3.84-.56-2.16-2.54-5.18-5.09-4.92S168.13,132.72,169.21,134.89Z" style="fill:#ff8b7b"></path><path d="M185.19,129.81c-.05.63.24,1.18.66,1.22s.8-.45.85-1.09-.23-1.18-.65-1.22S185.25,129.17,185.19,129.81Z" style="fill:#263238"></path><path d="M192.4,130.44c-.06.64.23,1.18.65,1.22s.8-.45.86-1.09-.24-1.18-.66-1.22S192.45,129.8,192.4,130.44Z" style="fill:#263238"></path><path d="M190.08,130.56a22.88,22.88,0,0,0,2.56,5.72,3.68,3.68,0,0,1-3.09.3Z" style="fill:#ff5652"></path><path d="M186.71,138.05a6.57,6.57,0,0,0,.83.13.2.2,0,0,0,.2-.17.19.19,0,0,0-.17-.21,5.06,5.06,0,0,1-3.94-2.33.19.19,0,0,0-.26-.08.19.19,0,0,0-.08.25A5.3,5.3,0,0,0,186.71,138.05Z" style="fill:#263238"></path><path d="M183.18,127.28a.39.39,0,0,0,.36-.11,3,3,0,0,1,2.51-1,.39.39,0,0,0,.43-.31.38.38,0,0,0-.32-.43,3.7,3.7,0,0,0-3.18,1.28.37.37,0,0,0,0,.53A.34.34,0,0,0,183.18,127.28Z" style="fill:#263238"></path><path d="M195.72,128.24a.42.42,0,0,0,.22,0,.37.37,0,0,0,.21-.49,3.76,3.76,0,0,0-2.5-2.34.39.39,0,0,0-.45.29.38.38,0,0,0,.29.44,2.94,2.94,0,0,1,2,1.88A.4.4,0,0,0,195.72,128.24Z" style="fill:#263238"></path><path d="M165.24,167.27l.51,1.79.57,1.9c.38,1.27.8,2.53,1.25,3.78.88,2.5,1.83,5,2.88,7.36a47.12,47.12,0,0,0,7.74,12.67l.3.31.13.15,0,0c-.05,0-.06,0,0,0a2.26,2.26,0,0,0,.72.34,12,12,0,0,0,3,.53,48.43,48.43,0,0,0,7.65-.17c2.66-.23,5.38-.59,8.1-1s5.5-.88,8.18-1.35l1.84,5.66a93.82,93.82,0,0,1-16.67,5.68,49.35,49.35,0,0,1-9.23,1.31,23.13,23.13,0,0,1-5.41-.39,13.83,13.83,0,0,1-3.25-1.12,10.5,10.5,0,0,1-1.78-1.13l-.44-.37L171,203l-.47-.42a41.21,41.21,0,0,1-6.31-7.42,61.25,61.25,0,0,1-4.62-8,77.64,77.64,0,0,1-3.5-8.35c-.5-1.42-1-2.84-1.41-4.28-.21-.72-.43-1.44-.63-2.18s-.36-1.42-.56-2.3Z" style="fill:#ff8b7b"></path><path d="M153,165.06c-3.75,6.6,4.82,27.26,4.82,27.26l18.53-6.18A110.08,110.08,0,0,0,170,167.2C165.59,157.48,157.48,157.07,153,165.06Z" style="fill:#263238"></path><path d="M205.66,193.71l9.09-1.86-3.16,9.63s-7-.74-7-4.49Z" style="fill:#ff8b7b"></path><polygon points="220.42 195.28 217.44 203.11 211.59 201.47 214.75 191.85 220.42 195.28" style="fill:#ff8b7b"></polygon><path d="M253.92,183.47l6.8-4.32,1.37,10s-6.6,2.39-8.26-1Z" style="fill:#ff8b7b"></path><polygon points="267.32 179.75 268.07 188.1 262.1 189.19 260.72 179.15 267.32 179.75" style="fill:#ff8b7b"></polygon></g></svg>