<svg xmlns="http://www.w3.org/2000/svg" viewBox="0 0 500 500"><g id="freepik--background-complete--inject-2"><rect x="61.95" y="230.25" width="31.31" height="33.33" style="fill:#e6e6e6"></rect><rect x="53.93" y="230.25" width="8.02" height="33.33" style="fill:#f0f0f0"></rect><rect x="77.95" y="225.11" width="23.52" height="38.47" style="fill:#e6e6e6"></rect><rect x="71.16" y="225.11" width="6.8" height="38.47" style="fill:#f0f0f0"></rect><rect x="84.88" y="230.25" width="19.83" height="33.33" style="fill:#f0f0f0"></rect><rect x="80.35" y="230.25" width="4.53" height="33.33" style="fill:#f5f5f5"></rect><rect x="101.11" y="235.89" width="26.01" height="27.69" style="fill:#e6e6e6"></rect><rect x="94.45" y="235.89" width="6.66" height="27.69" style="fill:#f5f5f5"></rect><rect x="114.4" y="231.62" width="19.54" height="31.96" style="fill:#e6e6e6"></rect><rect x="108.76" y="231.62" width="5.65" height="31.96" style="fill:#f0f0f0"></rect><rect x="120.16" y="235.89" width="18.98" height="27.69" style="fill:#f0f0f0"></rect><rect x="116.39" y="235.89" width="3.76" height="27.69" style="fill:#f5f5f5"></rect><rect x="180.76" y="230.43" width="31.31" height="33.33" style="fill:#e6e6e6"></rect><rect x="172.74" y="230.43" width="8.02" height="33.33" style="fill:#f0f0f0"></rect><rect x="196.76" y="225.29" width="23.52" height="38.47" style="fill:#e6e6e6"></rect><rect x="189.97" y="225.29" width="6.8" height="38.47" style="fill:#f0f0f0"></rect><rect x="203.69" y="230.43" width="19.83" height="33.33" style="fill:#f0f0f0"></rect><rect x="199.16" y="230.43" width="4.53" height="33.33" style="fill:#f5f5f5"></rect><rect x="54.01" y="263.74" width="204" height="9.65" style="fill:#e0e0e0"></rect><rect x="219.92" y="236.07" width="26.01" height="27.69" style="fill:#e6e6e6"></rect><rect x="213.26" y="236.07" width="6.66" height="27.69" style="fill:#f5f5f5"></rect><rect x="233.21" y="231.8" width="19.54" height="31.96" style="fill:#e6e6e6"></rect><rect x="227.57" y="231.8" width="5.65" height="31.96" style="fill:#f0f0f0"></rect><rect x="238.97" y="236.07" width="18.98" height="27.69" style="fill:#f0f0f0"></rect><rect x="235.2" y="236.07" width="3.76" height="27.69" style="fill:#f5f5f5"></rect><path d="M278.84,382.28h0a2.83,2.83,0,0,1-2.83-2.83V278.8h5.67V379.45A2.84,2.84,0,0,1,278.84,382.28Z" style="fill:#f0f0f0"></path><path d="M392.27,271.78h-13v-1.16a4,4,0,0,1,4.18-4l5.1.28a4,4,0,0,1,3.76,4Z" style="fill:#f0f0f0"></path><path d="M370,244.43a1.92,1.92,0,0,0-1.92-1.83H354.89a1.93,1.93,0,0,0-1.93,1.83l3.13,27.46h19.67Z" style="fill:#e0e0e0"></path><path d="M405.78,202.21h-4.91l-5.52,51.86h4.91a1.69,1.69,0,0,0,1.63-1.47l5.2-48.91A1.3,1.3,0,0,0,405.78,202.21Z" style="fill:#e0e0e0"></path><path d="M398.18,254.07H324.6a1.3,1.3,0,0,1-1.32-1.47l5.21-48.91a1.67,1.67,0,0,1,1.63-1.48H403.7a1.31,1.31,0,0,1,1.32,1.48l-5.21,48.91A1.68,1.68,0,0,1,398.18,254.07Z" style="fill:#f5f5f5"></path><path d="M396.81,249.28H327.42a1.13,1.13,0,0,1-1.15-1.28l4.54-42.68a1.46,1.46,0,0,1,1.42-1.28h69.39a1.13,1.13,0,0,1,1.15,1.28L398.23,248A1.46,1.46,0,0,1,396.81,249.28Z" style="fill:#ebebeb"></path><rect x="351.24" y="269.76" width="26.32" height="2.13" rx="0.96" style="fill:#e0e0e0"></rect><path d="M327.16,249.28l20.62-17.92c2-1.7,4.47-1.7,5.6,0l11.95,17.92Z" style="fill:#e6e6e6"></path><path d="M347.78,231.36l-20.62,17.92h19.77c-2-1-6.61-1.53-6.06-3.81.72-3,9.91-1.93,10.6-4.75s-5.88-1.93-5.05-5.35c.43-1.79,2.13-3.74,3.65-5.19A5.3,5.3,0,0,0,347.78,231.36Z" style="fill:#f5f5f5"></path><path d="M357.5,249.28l9.14-9c.87-.86,2-.86,2.49,0l5.29,9Z" style="fill:#e6e6e6"></path><path d="M366.64,240.24l-9.14,9h8.77c-.88-.5-2.93-.77-2.69-1.92.32-1.5,4.39-1,4.7-2.4s-2.61-1-2.24-2.69a6.28,6.28,0,0,1,1.62-2.62A2.2,2.2,0,0,0,366.64,240.24Z" style="fill:#f5f5f5"></path><path d="M373.15,249.28l12.8-9c1.22-.86,2.77-.86,3.48,0l7.42,9Z" style="fill:#f0f0f0"></path><path d="M386,240.24l-12.8,9h12.27c-1.22-.5-4.1-.77-3.76-1.92.44-1.5,6.15-1,6.58-2.4s-3.65-1-3.14-2.69a6.51,6.51,0,0,1,2.27-2.62A3.56,3.56,0,0,0,386,240.24Z" style="fill:#fafafa"></path><path d="M389.2,222.2a10.74,10.74,0,0,1-10,8.24c-4.55,0-7.45-3.68-6.49-8.24a10.75,10.75,0,0,1,10-8.24C387.26,214,390.16,217.65,389.2,222.2Z" style="fill:#f0f0f0"></path><path d="M389.2,222.2a10.74,10.74,0,0,1-10,8.24c-4.55,0-7.45-3.68-6.49-8.24a10.75,10.75,0,0,1,10-8.24C387.26,214,390.16,217.65,389.2,222.2Z" style="fill:#fafafa;opacity:0.8"></path><path d="M318.92,270.05h-1.83a.35.35,0,0,1-.35-.35v-1.94a.34.34,0,0,1,.35-.35h1.31a.34.34,0,0,1,.34.26l.52,1.94A.35.35,0,0,1,318.92,270.05Z" style="fill:#f5f5f5"></path><path d="M321.46,270.05h-1.84a.35.35,0,0,1-.35-.35v-1.94a.35.35,0,0,1,.35-.35h1.32a.34.34,0,0,1,.34.26l.52,1.94A.35.35,0,0,1,321.46,270.05Z" style="fill:#f5f5f5"></path><path d="M324,270.05h-1.83a.35.35,0,0,1-.35-.35v-1.94a.34.34,0,0,1,.35-.35h1.32a.34.34,0,0,1,.33.26l.52,1.94A.35.35,0,0,1,324,270.05Z" style="fill:#f5f5f5"></path><path d="M326.53,270.05h-1.84a.35.35,0,0,1-.35-.35v-1.94a.35.35,0,0,1,.35-.35H326a.34.34,0,0,1,.34.26l.52,1.94A.35.35,0,0,1,326.53,270.05Z" style="fill:#f5f5f5"></path><path d="M329.07,270.05h-1.84a.35.35,0,0,1-.35-.35v-1.94a.35.35,0,0,1,.35-.35h1.32a.34.34,0,0,1,.34.26l.51,1.94A.35.35,0,0,1,329.07,270.05Z" style="fill:#f5f5f5"></path><path d="M331.6,270.05h-1.83a.35.35,0,0,1-.35-.35v-1.94a.34.34,0,0,1,.35-.35h1.31a.34.34,0,0,1,.34.26l.52,1.94A.35.35,0,0,1,331.6,270.05Z" style="fill:#f5f5f5"></path><path d="M334.14,270.05H332.3a.35.35,0,0,1-.35-.35v-1.94a.35.35,0,0,1,.35-.35h1.32a.34.34,0,0,1,.34.26l.52,1.94A.36.36,0,0,1,334.14,270.05Z" style="fill:#f5f5f5"></path><path d="M336.67,270.05h-1.83a.35.35,0,0,1-.35-.35v-1.94a.34.34,0,0,1,.35-.35h1.32a.34.34,0,0,1,.33.26l.52,1.94A.35.35,0,0,1,336.67,270.05Z" style="fill:#f5f5f5"></path><path d="M339.21,270.05h-1.84a.35.35,0,0,1-.35-.35v-1.94a.35.35,0,0,1,.35-.35h1.32a.34.34,0,0,1,.34.26l.52,1.94A.35.35,0,0,1,339.21,270.05Z" style="fill:#f5f5f5"></path><path d="M341.74,270.05h-1.83a.35.35,0,0,1-.35-.35v-1.94a.35.35,0,0,1,.35-.35h1.32a.35.35,0,0,1,.34.26l.51,1.94A.35.35,0,0,1,341.74,270.05Z" style="fill:#f5f5f5"></path><path d="M344.28,270.05h-1.83a.35.35,0,0,1-.35-.35v-1.94a.34.34,0,0,1,.35-.35h1.31a.34.34,0,0,1,.34.26l.52,1.94A.35.35,0,0,1,344.28,270.05Z" style="fill:#f5f5f5"></path><path d="M346.82,270.05H345a.35.35,0,0,1-.35-.35v-1.94a.35.35,0,0,1,.35-.35h1.32a.34.34,0,0,1,.34.26l.52,1.94A.36.36,0,0,1,346.82,270.05Z" style="fill:#f5f5f5"></path><path d="M349.35,270.05h-1.83a.35.35,0,0,1-.35-.35v-1.94a.34.34,0,0,1,.35-.35h1.32a.34.34,0,0,1,.33.26l.52,1.94A.35.35,0,0,1,349.35,270.05Z" style="fill:#f5f5f5"></path><path d="M351.89,270.05h-1.84a.35.35,0,0,1-.35-.35v-1.94a.35.35,0,0,1,.35-.35h1.32a.34.34,0,0,1,.34.26l.52,1.94A.35.35,0,0,1,351.89,270.05Z" style="fill:#f5f5f5"></path><path d="M354.42,270.05h-1.83a.35.35,0,0,1-.35-.35v-1.94a.35.35,0,0,1,.35-.35h1.32a.35.35,0,0,1,.34.26l.51,1.94A.35.35,0,0,1,354.42,270.05Z" style="fill:#f5f5f5"></path><rect x="315.24" y="268.73" width="41.03" height="3.06" style="fill:#ebebeb"></rect><rect x="397.94" y="271.38" width="49.16" height="7.42" style="fill:#e6e6e6"></rect><path d="M309.51,382.28h0a2.84,2.84,0,0,1-2.84-2.83V278.8h5.67V379.45A2.83,2.83,0,0,1,309.51,382.28Z" style="fill:#e6e6e6"></path><path d="M441,382.28h0a2.84,2.84,0,0,1-2.84-2.83V278.8h5.67V379.45A2.83,2.83,0,0,1,441,382.28Z" style="fill:#e6e6e6"></path><rect x="272.73" y="271.38" width="139.24" height="7.42" style="fill:#f0f0f0"></rect><path d="M405.85,382.28h0a2.83,2.83,0,0,1-2.83-2.83V278.8h5.67V379.45A2.84,2.84,0,0,1,405.85,382.28Z" style="fill:#f0f0f0"></path><circle cx="364.52" cy="122.91" r="20.45" transform="translate(184.81 463.03) rotate(-80.78)" style="fill:#e0e0e0"></circle><circle cx="364.27" cy="122.91" r="16.41" style="fill:#fff;opacity:0.8"></circle><path d="M365.89,124.27a1.66,1.66,0,1,1-1.66-1.66A1.66,1.66,0,0,1,365.89,124.27Z" style="fill:#e0e0e0"></path><polygon points="364.04 124.88 356.98 118.24 357.66 117.51 364.06 123.53 375.53 113.4 376.19 114.15 364.04 124.88" style="fill:#e0e0e0"></polygon><rect x="66.51" y="103.08" width="163.83" height="99.83" style="fill:#ebebeb"></rect><rect x="230.36" y="103.04" width="1.2" height="99.83" style="fill:#e0e0e0"></rect><rect x="71.47" y="107.42" width="0.99" height="89.83" style="fill:#e0e0e0"></rect><rect x="71.37" y="107.42" width="153.63" height="89.83" style="fill:#fff"></rect><rect x="162.71" y="137.35" width="12.66" height="18.18" style="fill:#f5f5f5"></rect><rect x="78.77" y="166.16" width="12.66" height="18.18" style="fill:#f5f5f5"></rect><rect x="77.53" y="128.24" width="12.66" height="12.66" style="fill:#f5f5f5"></rect><rect x="140.51" y="171.96" width="12.66" height="12.66" style="fill:#f5f5f5"></rect><rect x="182.93" y="138.92" width="32.42" height="45.56" style="fill:#f5f5f5"></rect><rect x="187.37" y="145.51" width="23.29" height="0.5" style="fill:#e0e0e0"></rect><rect x="198.76" y="146" width="0.5" height="33.74" style="fill:#e0e0e0"></rect><rect x="209.45" y="146" width="0.5" height="33.74" style="fill:#e0e0e0"></rect><rect x="189.26" y="146" width="0.5" height="33.74" style="fill:#e0e0e0"></rect><rect x="187.59" y="146" width="0.5" height="33.74" style="fill:#e0e0e0"></rect><rect x="187.84" y="147.78" width="21.62" height="0.5" style="fill:#e0e0e0"></rect><rect x="133.03" y="122.32" width="4.28" height="9.98" transform="translate(7.86 262.48) rotate(-90)" style="fill:#f5f5f5"></rect><rect x="135.46" y="154.05" width="3.33" height="9.98" transform="translate(-21.92 296.16) rotate(-90)" style="fill:#f5f5f5"></rect><rect x="101.33" y="123.77" width="32.42" height="45.56" style="fill:#f0f0f0"></rect><rect x="133.22" y="161.42" width="3.33" height="9.98" transform="translate(-31.53 301.29) rotate(-90)" style="fill:#f5f5f5"></rect><rect x="134.88" y="130.96" width="3.33" height="9.98" transform="translate(0.59 272.5) rotate(-90)" style="fill:#f5f5f5"></rect><rect x="132.69" y="139.23" width="3.33" height="9.98" transform="translate(-9.86 278.58) rotate(-90)" style="fill:#f5f5f5"></rect><rect x="105.15" y="129.37" width="22.1" height="3.92" style="fill:#e6e6e6"></rect><polygon points="127.61 146.12 105.51 146.12 105.15 144.34 127.25 144.34 127.61 146.12" style="fill:#e6e6e6"></polygon><rect x="105.15" y="137.21" width="7.84" height="3.92" style="fill:#e6e6e6"></rect><rect x="416.78" y="398.49" width="33.12" height="0.25" style="fill:#ebebeb"></rect><rect x="322.53" y="401.21" width="8.69" height="0.25" style="fill:#ebebeb"></rect><rect x="396.59" y="389.21" width="19.19" height="0.25" style="fill:#ebebeb"></rect><rect x="52.46" y="390.89" width="43.19" height="0.25" style="fill:#ebebeb"></rect><rect x="104.56" y="390.89" width="6.33" height="0.25" style="fill:#ebebeb"></rect><rect x="131.47" y="395.11" width="93.68" height="0.25" style="fill:#ebebeb"></rect><path d="M238.4,337.8H45.3a5.71,5.71,0,0,1-5.71-5.71V60.66A5.71,5.71,0,0,1,45.3,55H238.4a5.71,5.71,0,0,1,5.71,5.71V332.09A5.71,5.71,0,0,1,238.4,337.8ZM45.3,55.2a5.47,5.47,0,0,0-5.46,5.46V332.09a5.47,5.47,0,0,0,5.46,5.46H238.4a5.47,5.47,0,0,0,5.46-5.46V60.66a5.47,5.47,0,0,0-5.46-5.46Z" style="fill:#ebebeb"></path><path d="M454.7,337.8H261.6a5.71,5.71,0,0,1-5.71-5.71V60.66A5.71,5.71,0,0,1,261.6,55H454.7a5.71,5.71,0,0,1,5.71,5.71V332.09A5.71,5.71,0,0,1,454.7,337.8ZM261.6,55.2a5.47,5.47,0,0,0-5.46,5.46V332.09a5.47,5.47,0,0,0,5.46,5.46H454.7a5.47,5.47,0,0,0,5.46-5.46V60.66a5.47,5.47,0,0,0-5.46-5.46Z" style="fill:#ebebeb"></path><rect y="382.4" width="500" height="0.25" style="fill:#ebebeb"></rect></g><g id="freepik--Shadow--inject-2"><ellipse id="freepik--shadow--inject-2" cx="250" cy="412.46" rx="193.89" ry="11.32" style="fill:#f5f5f5"></ellipse></g><g id="freepik--Plant--inject-2"><path d="M313.49,375.27s-3.15-35.34-19.56-69.28c0,0,24.23,22.62,25.08,69.28Z" style="fill:#60A3AB"></path><path d="M325.8,376.54s2.74-39.79,8.93-59.69c0,0,3.39,24.69-5.45,58.57Z" style="fill:#60A3AB"></path><path d="M325.8,376.54s2.74-39.79,8.93-59.69c0,0,3.39,24.69-5.45,58.57Z" style="opacity:0.30000000000000004"></path><path d="M323.26,377.72s-4.25-53.55,7.65-77.56c0,0,1.28,48.67-1.7,77.56Z" style="fill:#60A3AB"></path><path d="M323.26,377.72s-4.25-53.55,7.65-77.56c0,0,1.28,48.67-1.7,77.56Z" style="opacity:0.2"></path><path d="M333.31,378s3.14-35.34,19.56-69.28c0,0-24.24,22.62-25.09,69.28Z" style="fill:#60A3AB"></path><path d="M317.31,380.74s-13.19-61.52-10.84-94.1c0,0,17.64,36.27,16.79,91.08Z" style="fill:#60A3AB"></path><path d="M317.31,380.74s-13.19-61.52-10.84-94.1c0,0,17.64,36.27,16.79,91.08Z" style="fill:#fff;opacity:0.1"></path><path d="M329.54,412H317.25a8.05,8.05,0,0,1-8-7.27l-3.14-32.43h34.59l-3.14,32.43A8,8,0,0,1,329.54,412Z" style="fill:#60A3AB"></path><path d="M328.47,412H318.33a9.24,9.24,0,0,1-9.19-8.34l-3-31.36h34.59l-3,31.36A9.24,9.24,0,0,1,328.47,412Z" style="fill:#fff;opacity:0.30000000000000004"></path></g><g id="freepik--Character--inject-2"><path d="M255.41,195.08l1.94-8.43-2.24-4.83a2.38,2.38,0,0,1-.3-1.55,48.85,48.85,0,0,1,1.1-4.89,1.22,1.22,0,0,1,1.5-.79l4.42,1.25c.93.15,1.82,6.71,1.82,6.71a2.28,2.28,0,0,1-.06,1.32L262.27,188l-.79,10.22Z" style="fill:#ffc3bd"></path><path d="M236.24,186.35a51.42,51.42,0,0,1,15.67,16.84c.56-1.93,3.23-10.07,2.76-12.36a3.16,3.16,0,0,1-.11-1.46c.13-.47.7-.86,1.12-.61,3.28-.36,6,.23,9.24.66-.89,7.39-2.37,31.11-14.52,26.29-9.05-3.58-15.63-12-19.12-21.11a11.34,11.34,0,0,1-.92-4.51,5.17,5.17,0,0,1,2-4C233.6,185.19,235,185.49,236.24,186.35Z" style="fill:#60A3AB"></path><path d="M236.24,186.35a51.42,51.42,0,0,1,15.67,16.84c.56-1.93,3.23-10.07,2.76-12.36a3.16,3.16,0,0,1-.11-1.46c.13-.47.7-.86,1.12-.61,3.28-.36,6,.23,9.24.66-.89,7.39-2.37,31.11-14.52,26.29-9.05-3.58-15.63-12-19.12-21.11a11.34,11.34,0,0,1-.92-4.51,5.17,5.17,0,0,1,2-4C233.6,185.19,235,185.49,236.24,186.35Z" style="opacity:0.7000000000000001"></path><path d="M224.07,261a307.88,307.88,0,0,1-.2,40.75s-2.56-21.65-3.88-30.31Z"></path><path d="M216.15,182.55c1.25-4.28.79-10.36.22-14.15l9.45,8.82a11.17,11.17,0,0,0-.44,5.07A1.84,1.84,0,0,0,227,183.8l3.95,1.11.54,3-2.34.68-3.08,3.33-7.75-3L210,185.33a15.31,15.31,0,0,1,3.8-.82A3.32,3.32,0,0,0,216.15,182.55Z" style="fill:#ffc3bd"></path><path d="M220.23,172.7l5.45,5a12,12,0,0,0-.42,3,7.93,7.93,0,0,1-5.63-4.82C219.14,174.39,219.66,172.85,220.23,172.7Z" style="opacity:0.2;isolation:isolate"></path><path d="M214.79,161.56c.59,7,.59,11.08,4.21,14.57,5.43,5.27,14,1.84,15.46-5.15,1.34-6.34.13-16.65-6.77-19.25a9.52,9.52,0,0,0-12.9,9.83Z" style="fill:#ffc3bd"></path><path d="M224.51,161.92c.07.56.42,1,.79.94s.61-.54.54-1.11-.42-1-.79-.93S224.44,161.36,224.51,161.92Z" style="fill:#263238"></path><path d="M231.32,161.09c.07.56.42,1,.79.94s.61-.54.54-1.1-.42-1-.79-.94S231.25,160.52,231.32,161.09Z" style="fill:#263238"></path><path d="M223.73,161a.48.48,0,0,1-.17,0,.35.35,0,0,1-.17-.45,3.39,3.39,0,0,1,2.37-1.92.35.35,0,0,1,.38.29.34.34,0,0,1-.28.38h0a2.65,2.65,0,0,0-1.86,1.54A.32.32,0,0,1,223.73,161Z" style="fill:#263238"></path><path d="M233.88,159.82a.34.34,0,0,1-.3-.1,2.63,2.63,0,0,0-2.21-.91.33.33,0,1,1-.11-.66,3.33,3.33,0,0,1,2.84,1.12.33.33,0,0,1,0,.46h0A.28.28,0,0,1,233.88,159.82Z" style="fill:#263238"></path><path d="M217.11,159.83a8,8,0,0,1,.11,5.41,2.64,2.64,0,0,0-1-.24,1.29,1.29,0,0,0-1.16.52,1.9,1.9,0,0,0,0,1.48q.92,3.3,2,6.54a21.38,21.38,0,0,1-6.46-13C212.61,160.27,215.05,160.08,217.11,159.83Z" style="fill:#263238"></path><path d="M211.54,168.16a6.63,6.63,0,0,0,4.21,2.83c2.29.44,3.24-1.65,2.45-3.71-.71-1.85-2.76-4.32-5-3.84S210.36,166.34,211.54,168.16Z" style="fill:#ffc3bd"></path><path d="M229.78,162.85a19.46,19.46,0,0,0,3.47,4.19,3.3,3.3,0,0,1-2.55,1.07Z" style="fill:#ed893e"></path><polygon points="252.28 387.33 258.71 385.01 262.38 400.52 255.94 402.85 252.28 387.33" style="fill:#ffc3bd"></polygon><polygon points="205.3 389.83 212.13 390.22 210.87 406.01 204.04 405.62 205.3 389.83" style="fill:#ffc3bd"></polygon><path d="M212.92,405.75c1.61,1.61,5.43,3.43,10.68,4.89,1.15.32.62,3.13-2.25,3s-9.12-.74-11.19-.86c-3.37-.19-5.36-.1-8-.26a.85.85,0,0,1-.23,0,1,1,0,0,1-.7-1.24l1.7-6a.59.59,0,0,1,.61-.43l8.32.47A1.66,1.66,0,0,1,212.92,405.75Z" style="fill:#263238"></path><path d="M264,399.47c5.36.91,6.33.48,11.71-.44,1.16-.2,1.5,2.72-1.1,3.77-4.31,1.74-4.45,1.73-8.09,3.22-3.14,1.25-6.69,2.86-9.17,3.91a.86.86,0,0,1-.23.06,1,1,0,0,1-1.14-.82L255,403a.62.62,0,0,1,.37-.66l6.92-2.79A3.2,3.2,0,0,1,264,399.47Z" style="fill:#263238"></path><polygon points="252.27 387.34 254.16 395.34 260.6 393.01 258.71 385.02 252.27 387.34" style="opacity:0.2;isolation:isolate"></polygon><polygon points="204.65 397.97 211.48 398.37 212.13 390.22 205.3 389.83 204.65 397.97" style="opacity:0.2;isolation:isolate"></polygon><path d="M262.37,390.43l-10.73,4.33S238,343.82,234.29,326.07s-16.71-79-16.71-79l24,.19s7.72,54.42,10.13,75.15C254.26,344,262.37,390.43,262.37,390.43Z" style="fill:#263238"></path><path d="M229.91,305.38l-7.32-34.61,3.55-2.87C231,274.69,231.44,293.18,229.91,305.38Z" style="opacity:0.2;isolation:isolate"></path><path d="M205.08,247s-.36,58.87-1.29,83.22c-.85,21.56-1.48,66-1.48,66l12.51.72s5-48.43,7-70.29c1.75-20,9.77-79.48,9.77-79.48Z" style="fill:#263238"></path><polygon points="216.69 392.65 201.21 392.05 201.57 396.48 215.3 397.27 216.69 392.65" style="fill:#60A3AB"></polygon><polygon points="262.51 385.63 248.7 391.23 251 395.34 263.12 390.44 262.51 385.63" style="fill:#60A3AB"></polygon><path d="M214,406.6a2.1,2.1,0,0,0,1.34-.28.94.94,0,0,0,.38-.86.49.49,0,0,0-.25-.48c-.73-.43-3,.79-3.27.94a.14.14,0,0,0-.08.15.16.16,0,0,0,.11.14A7.67,7.67,0,0,0,214,406.6Zm1.1-1.36a.5.5,0,0,1,.21,0,.24.24,0,0,1,.09.2.66.66,0,0,1-.26.58,3.24,3.24,0,0,1-2.43,0,6.51,6.51,0,0,1,2.39-.77Z" style="fill:#60A3AB"></path><path d="M212.3,406.25h.07c.73-.33,2.19-1.75,2.08-2.54a.51.51,0,0,0-.49-.45.88.88,0,0,0-.7.16c-.82.61-1.11,2.6-1.12,2.65a.17.17,0,0,0,.07.15Zm1.53-2.68h.08c.2,0,.22.14.22.19.06.44-.87,1.53-1.61,2a4,4,0,0,1,.93-2.09A.58.58,0,0,1,213.83,403.57Z" style="fill:#60A3AB"></path><path d="M263.25,400.24h0c1.11-.22,3-.72,3.47-1.58a.91.91,0,0,0,0-.89.53.53,0,0,0-.41-.3c-.94-.1-3,2.2-3.2,2.48a.17.17,0,0,0,0,.19A.16.16,0,0,0,263.25,400.24Zm3-2.43h0a.17.17,0,0,1,.15.12.6.6,0,0,1,0,.55c-.26.51-1.28,1-2.74,1.33.83-.9,2-2,2.56-2Z" style="fill:#60A3AB"></path><path d="M263.25,400.24a.13.13,0,0,0,.11-.05c.64-.66,1.59-2.64,1.19-3.32-.1-.15-.3-.31-.73-.19a1.21,1.21,0,0,0-.73.6,4.64,4.64,0,0,0,0,2.84.17.17,0,0,0,.12.11Zm.85-3.28a.18.18,0,0,1,.17.08c.24.41-.35,1.9-.94,2.68a3.7,3.7,0,0,1,.05-2.28.81.81,0,0,1,.53-.44A.58.58,0,0,1,264.1,397Z" style="fill:#60A3AB"></path><path d="M209.37,185s.27-.11.83-.27l1.18-.15,1.78-.47,0,0c.6.39,9.25,6,12,7.08l.85.13a15,15,0,0,0,2.23-7.66l1,0a2.44,2.44,0,0,0,1.14.56l.82.09,2.58,1.81s5.68,11.49,7.8,40.37l1,21.86-41.12,1.17Z" style="fill:#60A3AB"></path><g style="opacity:0.4;isolation:isolate"><path d="M227.24,189a.36.36,0,0,1,0,.09l0-.08Z"></path></g><path d="M227.24,189a.36.36,0,0,1,0,.09l0-.08Z" style="fill:#60A3AB"></path><path d="M228.3,183.64s5.89,2.29,8.48,18,1.92,18.73,2.79,41c.22,5.67.2,11.3,4.45,10.6,0,0,.25,1.09-.84-23.55S243.64,183.66,228.3,183.64Z" style="fill:#60A3AB"></path><g style="opacity:0.6000000000000001"><path d="M228.3,183.64s5.89,2.29,8.48,18,1.92,18.73,2.79,41c.22,5.67.2,11.3,4.45,10.6,0,0,.25,1.09-.84-23.55S243.64,183.66,228.3,183.64Z"></path></g><path d="M210.83,184.14s7.1,3.68,8.58,28.24,6.05,41.11-2.21,42.12-17.45-3.38-17.45-3.38-.77,2.25.45-9.09c1-9.47.5-1.77,1.1-10.74.69-10.37-5.77-38.69-2.23-41.64S210.83,184.14,210.83,184.14Z" style="fill:#60A3AB"></path><g style="opacity:0.6000000000000001"><path d="M210.83,184.14s7.1,3.68,8.58,28.24,6.05,41.11-2.21,42.12-17.45-3.38-17.45-3.38-.77,2.25.45-9.09c1-9.47.5-1.77,1.1-10.74.69-10.37-5.77-38.69-2.23-41.64S210.83,184.14,210.83,184.14Z"></path></g><g style="opacity:0.30000000000000004"><path d="M208.42,233.84h5.1a3.27,3.27,0,0,1,3.27,3.27v.74a0,0,0,0,1,0,0H205.15a0,0,0,0,1,0,0v-.74A3.27,3.27,0,0,1,208.42,233.84Z" transform="translate(393.67 494.21) rotate(-173.45)"></path></g><path d="M230.93,210.19l9.3-1.5,2.87-3.76a2.34,2.34,0,0,1,1.33-.86l3.25-.79a2.4,2.4,0,0,1,2.06.48l1.18,1a2.28,2.28,0,0,1,.8,1.31l.34,1.53a2.37,2.37,0,0,1-.93,2.43l-4.67,3.36a2.28,2.28,0,0,1-1.25.44l-4.09.23L230.31,217Z" style="fill:#ffc3bd"></path><path d="M228.48,170.6a4.77,4.77,0,0,1-3.09-2.1.18.18,0,0,1,.06-.23.18.18,0,0,1,.23.07,4.51,4.51,0,0,0,3.46,2,.17.17,0,0,1,.17.16.17.17,0,0,1-.17.17h0C228.9,170.68,228.69,170.64,228.48,170.6Z" style="fill:#263238"></path><path d="M213.19,184.08l13.29,11.86L227,195a16.71,16.71,0,0,0,1.34-11.37,14.84,14.84,0,0,1-1,5.36l-1.64-3.68a13.62,13.62,0,0,1-.43,3l-.89-.89-2.48,2C218.21,187.34,213.62,184.37,213.19,184.08Z" style="fill:#60A3AB"></path><path d="M213.19,184.08l13.29,11.86L227,195a16.71,16.71,0,0,0,1.34-11.37,14.84,14.84,0,0,1-1,5.36l-1.64-3.68a13.62,13.62,0,0,1-.43,3l-.89-.89-2.48,2C218.21,187.34,213.62,184.37,213.19,184.08Z" style="fill:#fff;opacity:0.2;isolation:isolate"></path><path d="M225.18,188.27a30.92,30.92,0,0,1,5.5,3.69c-.18-1.38-.36-2.75-.53-4.12a13.13,13.13,0,0,0-1.05-4.26,4.38,4.38,0,0,0-3.37-2.55c-.12,0-.37-.24-.49-.24A17,17,0,0,1,225.18,188.27Z" style="fill:#60A3AB"></path><path d="M225.18,188.27a30.92,30.92,0,0,1,5.5,3.69c-.18-1.38-.36-2.75-.53-4.12a13.13,13.13,0,0,0-1.05-4.26,4.38,4.38,0,0,0-3.37-2.55c-.12,0-.37-.24-.49-.24A17,17,0,0,1,225.18,188.27Z" style="fill:#fff;opacity:0.6000000000000001"></path><path d="M225.18,188.27l-4.67,4.9s-7.43-8-7.35-10.27l3.53-3Z" style="fill:#60A3AB"></path><path d="M225.18,188.27l-4.67,4.9s-7.43-8-7.35-10.27l3.53-3Z" style="fill:#fff;opacity:0.6000000000000001"></path><path d="M222.79,190.77l2.34,2.47a1.45,1.45,0,0,0,1.16.47l1.65-.23a.64.64,0,0,0,.49-.56l-.69-3.14-2.57-1.5Z" style="fill:#fff"></path><path d="M226.17,223s3.1,7.95,4.27,7,3.7-6.24,3.7-6.35A109.7,109.7,0,0,0,228,193.3l-1.89.24A246.29,246.29,0,0,1,226.17,223Z" style="fill:#fff"></path><path d="M235.48,208.58c1.13.76,3.13,7.33-.19,8.29-3.34,1.36-18.06,6.6-25.37,5.42-1.92-.3-3.78-.94-4.87-2.55A51.66,51.66,0,0,1,196.19,195c-.19-2.19.14-5,3.67-5.61a9.72,9.72,0,0,1,6.83,4.08c3.91,6.51,4.19,11.73,7.29,18.57Z" style="fill:#60A3AB"></path><g style="opacity:0.6000000000000001"><path d="M235.48,208.58c1.13.76,3.13,7.33-.19,8.29-3.34,1.36-18.06,6.6-25.37,5.42-1.92-.3-3.78-.94-4.87-2.55A51.66,51.66,0,0,1,196.19,195c-.19-2.19.14-5,3.67-5.61a9.72,9.72,0,0,1,6.83,4.08c3.91,6.51,4.19,11.73,7.29,18.57Z"></path></g><path d="M233,165.32a3,3,0,0,1-2.89-2.34l-.75-3.44,7-.72,0,3.52a3,3,0,0,1-2.66,2.93l-.35,0Zm-2.38-4.86.5,2.3a1.92,1.92,0,0,0,2.08,1.51l.35,0a1.93,1.93,0,0,0,1.73-1.91l0-2.36Z" style="fill:#60A3AB"></path><path d="M226.06,166a3,3,0,0,1-2.9-2.34l-.74-3.44,7-.72,0,3.52a3,3,0,0,1-2.66,2.93l-.35,0Zm-2.38-4.87.5,2.31a1.93,1.93,0,0,0,2.08,1.51l.35,0a1.93,1.93,0,0,0,1.73-1.9v-2.36Z" style="fill:#60A3AB"></path><rect x="228.15" y="159.55" width="2.37" height="1.04" transform="translate(-15.33 24.58) rotate(-5.94)" style="fill:#60A3AB"></rect><polygon points="214.57 163.49 214.28 162.5 220.79 160.56 223.29 160.17 223.44 161.19 221.02 161.56 214.57 163.49" style="fill:#60A3AB"></polygon><path d="M234.29,158c1.24-.1,2-1.85,1.47-3s-1.2-1.83-1.66-2.89a21.76,21.76,0,0,0-2.37-4.44,7.33,7.33,0,0,0-4-2.87c-1.63-.39-2.84.7-4.26,1.61a12.45,12.45,0,0,1-4.63,1.43,11.13,11.13,0,0,0-4.59,1.52,4,4,0,0,0-1.77,4.19C223.37,150.62,220.32,159.25,234.29,158Z" style="fill:#263238"></path><path d="M257.93,177c0-1.26,0-2.52.07-3.77,0-.45,0-1-.38-1.21s-1.12,0-1.34.53-.71,4.68-.78,5.31C256.08,178.53,257.92,177.87,257.93,177Z" style="fill:#ffc3bd"></path><path d="M210,160.52a5.4,5.4,0,0,1,6.2-8.15c2.14.73,4.39-.26,6.63-.56-1.53,1.63-1.44,7.3-1.79,7.67a3,3,0,0,1-1.33.7C216.72,161.12,213,161,210,160.52Z" style="fill:#263238"></path></g><g id="freepik--light-bulb--inject-2"><path d="M179.17,84.74a1.54,1.54,0,0,1-1.63-1l-6.06-14.92a1.55,1.55,0,0,1,2.88-1.17l6.06,14.92a1.56,1.56,0,0,1-.85,2A1.47,1.47,0,0,1,179.17,84.74Z" style="fill:#60A3AB"></path><path d="M228.51,126a1.58,1.58,0,0,1-.8-.11l-15.18-6.41a1.56,1.56,0,0,1,1.21-2.87L228.92,123a1.56,1.56,0,0,1-.41,3Z" style="fill:#60A3AB"></path><path d="M164.36,98.91a1.59,1.59,0,0,1-.8-.11L149,92.66a1.55,1.55,0,0,1,1.21-2.86l14.52,6.13a1.56,1.56,0,0,1-.41,3Z" style="fill:#60A3AB"></path><path d="M213.36,99.56a1.55,1.55,0,0,1-.78-3L228,90.34a1.55,1.55,0,1,1,1.17,2.88l-15.38,6.24A1.4,1.4,0,0,1,213.36,99.56Z" style="fill:#60A3AB"></path><path d="M149.61,125.45a1.56,1.56,0,0,1-.77-3l14.46-5.87a1.55,1.55,0,1,1,1.17,2.88L150,125.34A1.4,1.4,0,0,1,149.61,125.45Z" style="fill:#60A3AB"></path><path d="M199.39,85.2a1.5,1.5,0,0,1-.8-.11,1.54,1.54,0,0,1-.82-2l6.4-15.15A1.55,1.55,0,1,1,207,69.12l-6.4,15.15A1.53,1.53,0,0,1,199.39,85.2Z" style="fill:#60A3AB"></path><path d="M172.56,148.73a1.58,1.58,0,0,1-.8-.12,1.55,1.55,0,0,1-.83-2L177.07,132a1.56,1.56,0,0,1,2.87,1.21l-6.14,14.54A1.58,1.58,0,0,1,172.56,148.73Z" style="fill:#60A3AB"></path><path d="M207.22,100.52a20.07,20.07,0,0,0-37.11,15.29c3.06,7.43,11,10,17.21,14.37,1.91,1.35,4.59,8.22,4.59,8.22l15.74-6.48s-2.93-6.77-2.53-9.07C206.44,115.43,210.28,108,207.22,100.52Z" style="fill:#60A3AB"></path><path d="M207.22,100.52a20.07,20.07,0,0,0-37.11,15.29c3.06,7.43,11,10,17.21,14.37,1.91,1.35,4.59,8.22,4.59,8.22l15.74-6.48s-2.93-6.77-2.53-9.07C206.44,115.43,210.28,108,207.22,100.52Z" style="fill:#fff;opacity:0.5"></path><path d="M205.43,139.34l-6.72,2.77a4.89,4.89,0,0,1-6.37-2.66h0L208.08,133h0A4.88,4.88,0,0,1,205.43,139.34Z" style="fill:#263238"></path><path d="M204,145.46h0a4,4,0,0,1-5.19-2.17h0l7.36-3h0A4,4,0,0,1,204,145.46Z" style="fill:#263238"></path><path d="M204,145.46h0a4,4,0,0,1-5.19-2.17h0l7.36-3h0A4,4,0,0,1,204,145.46Z" style="fill:#fff;opacity:0.5"></path><g style="opacity:0.7000000000000001"><path d="M205.43,139.34l-6.72,2.77a4.89,4.89,0,0,1-6.37-2.66h0L208.08,133h0A4.88,4.88,0,0,1,205.43,139.34Z" style="fill:#fff"></path></g><path d="M203.62,98c4.75,11.7,2.81,27.94-6.23,31.62s-22.4-8.19-26.51-18.33c-2.54-6.24,2.74-14.28,11.78-18S201.09,91.74,203.62,98Z" style="fill:#fff;opacity:0.30000000000000004"></path><path d="M202.48,111.72a11.38,11.38,0,1,1-14.82-6.26A11.37,11.37,0,0,1,202.48,111.72Z" style="fill:#fff;opacity:0.4"></path><path d="M200.35,115.69c1.66,4.09-1.15,6.68-5.24,8.34s-7.91,1.76-9.57-2.33,1.17-6.62,5.26-8.28S198.68,111.6,200.35,115.69Z" style="fill:#fff;opacity:0.4"></path><rect x="191.67" y="116.29" width="1.04" height="21.16" transform="translate(-36.23 97.6) rotate(-26.13)" style="fill:#60A3AB"></rect><rect x="198.83" y="113.38" width="1.04" height="21.16" transform="translate(-28.62 67.94) rotate(-18.07)" style="fill:#60A3AB"></rect><polygon points="195 123.45 189.14 120.97 189.54 120.02 194.45 122.09 196.49 117.27 197.44 117.67 195 123.45" style="fill:#60A3AB"></polygon></g><g id="freepik--Icons--inject-2"><path d="M195,177.93a1.48,1.48,0,0,1-1.48-1.48v-9.19a1.49,1.49,0,1,1,3,0v9.19A1.49,1.49,0,0,1,195,177.93Z" style="fill:#60A3AB"></path><path d="M199.61,173.34h-9.19a1.49,1.49,0,1,1,0-3h9.19a1.49,1.49,0,0,1,0,3Z" style="fill:#60A3AB"></path><g style="opacity:0.5"><path d="M195,177.93a1.48,1.48,0,0,1-1.48-1.48v-9.19a1.49,1.49,0,1,1,3,0v9.19A1.49,1.49,0,0,1,195,177.93Z" style="fill:#fff"></path><path d="M199.61,173.34h-9.19a1.49,1.49,0,1,1,0-3h9.19a1.49,1.49,0,0,1,0,3Z" style="fill:#fff"></path></g><path d="M251.66,155.08a2.32,2.32,0,0,1-2.32-2.32V138.44a2.32,2.32,0,0,1,4.63,0v14.32A2.31,2.31,0,0,1,251.66,155.08Z" style="fill:#60A3AB"></path><path d="M258.82,147.92H244.5a2.32,2.32,0,1,1,0-4.63h14.32a2.32,2.32,0,0,1,0,4.63Z" style="fill:#60A3AB"></path><g style="opacity:0.5"><path d="M251.66,155.08a2.32,2.32,0,0,1-2.32-2.32V138.44a2.32,2.32,0,0,1,4.63,0v14.32A2.31,2.31,0,0,1,251.66,155.08Z" style="fill:#fff"></path><path d="M258.82,147.92H244.5a2.32,2.32,0,1,1,0-4.63h14.32a2.32,2.32,0,0,1,0,4.63Z" style="fill:#fff"></path></g></g></svg>
