<?xml version="1.0" encoding="UTF-8" standalone="no"?>
<svg
   viewBox="0 0 420.79001 372.56"
   version="1.1"
   id="svg44004"
   width="420.79001"
   height="372.56"
   xmlns="http://www.w3.org/2000/svg"
   xmlns:svg="http://www.w3.org/2000/svg">
  <defs
     id="defs44008" />
  <g
     id="freepik--background-complete--inject-2"
     transform="translate(-76.419999,-55)">
    <rect
       y="382.39999"
       width="396.26056"
       height="0.25"
       style="fill:#ebebeb;stroke-width:0.890236"
       id="rect43781"
       x="54.885403" />
    <rect
       x="416.78"
       y="398.48999"
       width="33.119999"
       height="0.25"
       style="fill:#ebebeb"
       id="rect43783" />
    <rect
       x="322.53"
       y="401.20999"
       width="8.6899996"
       height="0.25"
       style="fill:#ebebeb"
       id="rect43785" />
    <rect
       x="396.59"
       y="389.20999"
       width="19.190001"
       height="0.25"
       style="fill:#ebebeb"
       id="rect43787" />
    <rect
       x="52.459999"
       y="390.89001"
       width="43.189999"
       height="0.25"
       style="fill:#ebebeb"
       id="rect43789" />
    <rect
       x="104.56"
       y="390.89001"
       width="6.3299999"
       height="0.25"
       style="fill:#ebebeb"
       id="rect43791" />
    <rect
       x="131.47"
       y="395.10999"
       width="93.68"
       height="0.25"
       style="fill:#ebebeb"
       id="rect43793" />
    <path
       d="M 237,337.8 H 43.91 a 5.71,5.71 0 0 1 -5.7,-5.71 V 60.66 A 5.71,5.71 0 0 1 43.91,55 H 237 a 5.71,5.71 0 0 1 5.71,5.71 V 332.09 A 5.71,5.71 0 0 1 237,337.8 Z M 43.91,55.2 a 5.46,5.46 0 0 0 -5.45,5.46 v 271.43 a 5.46,5.46 0 0 0 5.45,5.46 H 237 a 5.47,5.47 0 0 0 5.46,-5.46 V 60.66 A 5.47,5.47 0 0 0 237,55.2 Z"
       style="fill:#ebebeb"
       id="path43795" />
    <path
       d="m 453.31,337.8 h -193.1 a 5.72,5.72 0 0 1 -5.71,-5.71 V 60.66 A 5.72,5.72 0 0 1 260.21,55 h 193.1 a 5.71,5.71 0 0 1 5.69,5.66 v 271.43 a 5.71,5.71 0 0 1 -5.69,5.71 z M 260.21,55.2 a 5.47,5.47 0 0 0 -5.46,5.46 v 271.43 a 5.47,5.47 0 0 0 5.46,5.46 h 193.1 a 5.47,5.47 0 0 0 5.46,-5.46 V 60.66 a 5.47,5.47 0 0 0 -5.46,-5.46 z"
       style="fill:#ebebeb"
       id="path43797" />
    <rect
       x="285.10999"
       y="222.99001"
       width="239.84"
       height="78.970001"
       transform="rotate(90,405.03,262.48)"
       style="fill:#f0f0f0"
       id="rect43799" />
    <rect
       x="369.88"
       y="149.57001"
       width="70.300003"
       height="70.300003"
       transform="rotate(90,405.03,184.72)"
       style="fill:#f5f5f5"
       id="rect43801" />
    <rect
       x="369.88"
       y="226.17999"
       width="70.300003"
       height="70.300003"
       transform="rotate(90,405.03,261.33)"
       style="fill:#f5f5f5"
       id="rect43803" />
    <rect
       x="369.88"
       y="302.79001"
       width="70.300003"
       height="70.300003"
       transform="rotate(90,405.03,337.94)"
       style="fill:#f5f5f5"
       id="rect43805" />
    <path
       d="m 389.47,148.64 h 31.12 a 7.29,7.29 0 0 1 -7.29,7.29 h -16.54 a 7.29,7.29 0 0 1 -7.29,-7.29 z"
       style="fill:#e6e6e6"
       id="path43807" />
    <path
       d="m 389.47,225.25 h 31.12 a 7.29,7.29 0 0 1 -7.29,7.29 h -16.54 a 7.29,7.29 0 0 1 -7.29,-7.29 z"
       style="fill:#e6e6e6"
       id="path43809" />
    <path
       d="m 389.47,301.86 h 31.12 a 7.29,7.29 0 0 1 -7.29,7.29 h -16.54 a 7.29,7.29 0 0 1 -7.29,-7.29 z"
       style="fill:#e6e6e6"
       id="path43811" />
    <rect
       x="225.89999"
       y="242.75999"
       width="239.84"
       height="39.439999"
       transform="rotate(90,345.825,262.475)"
       style="fill:#f5f5f5"
       id="rect43813" />
    <polygon
       points="75.72,226.93 75.72,229.1 77.11,229.1 78.25,246.11 95.15,246.11 96.29,229.1 97.68,229.1 97.68,226.93 "
       style="fill:#e6e6e6"
       id="polygon43815" />
    <path
       d="m 81.28,184.71 c 1.39,-10.14 15.06,-13 32.42,-13.4 16.51,-0.36 21.8,-6.2 21.8,-6.2 0,0 -0.05,23.66 -23.85,32.23 -22.59,8.13 -31.76,-2.48 -30.37,-12.63 z"
       style="fill:#e6e6e6"
       id="path43817" />
    <path
       d="m 89.71,207.68 c -0.29,-4.17 -6.94,-11.83 -22.95,-8.34 -11.57,2.51 -15.87,-3.49 -15.87,-3.49 0,0 1.07,16.94 18.47,22 16.53,4.86 20.86,-2.85 20.35,-10.17 z"
       style="fill:#e6e6e6"
       id="path43819" />
    <path
       d="m 86.06,233.32 a 0.63,0.63 0 0 1 -0.47,-0.22 c -1.16,-1.37 -0.21,-4.66 1.1,-9.2 1.69,-5.84 3.79,-13.1 2,-18.37 a 73.23,73.23 0 0 0 -3.44,-8.14 c -2.52,-5.31 -4.69,-9.9 -2.88,-14.69 a 0.62,0.62 0 0 1 0.8,-0.36 0.61,0.61 0 0 1 0.36,0.79 c -1.63,4.31 0.34,8.47 2.83,13.73 a 76.16,76.16 0 0 1 3.5,8.28 c 1.9,5.63 -0.26,13.1 -2,19.1 -1,3.54 -2.08,7.19 -1.35,8.06 a 0.62,0.62 0 0 1 -0.07,0.87 0.6,0.6 0 0 1 -0.38,0.15 z"
       style="fill:#e6e6e6"
       id="path43821" />
    <rect
       x="278.41"
       y="246.11"
       width="70.07"
       height="136.28999"
       style="fill:#f5f5f5"
       id="rect43823" />
    <rect
       x="342.70001"
       y="246.11"
       width="5.7800002"
       height="136.28999"
       style="fill:#f0f0f0"
       id="rect43825" />
    <rect
       x="122.48"
       y="250"
       width="161.33"
       height="57.669998"
       transform="rotate(180,203.145,278.835)"
       style="fill:#e6e6e6"
       id="rect43827" />
    <path
       d="m 189.76,382.37 h -69.17 a 1,1 0 0 1 0,-2 h 69.17 c 10,0 11.33,-2.91 11.33,-14.5 v -146 a 1,1 0 0 1 2,0 v 146 c 0,12.38 -1.93,16.5 -13.33,16.5 z"
       style="fill:#e6e6e6"
       id="path43829" />
    <rect
       x="130.25999"
       y="246.11"
       width="218.22"
       height="10.22"
       transform="rotate(180,239.37,251.22)"
       style="fill:#f0f0f0"
       id="rect43831" />
    <rect
       x="60.189999"
       y="246.11"
       width="70.07"
       height="136.28999"
       style="fill:#f5f5f5"
       id="rect43833" />
    <rect
       x="124.48"
       y="246.11"
       width="5.7800002"
       height="136.28999"
       style="fill:#f0f0f0"
       id="rect43835" />
    <polygon
       points="209.12,246.11 194.01,246.11 197.68,216.69 212.8,216.69 "
       style="fill:#f0f0f0"
       id="polygon43837" />
    <polygon
       points="212.47,246.11 197.35,246.11 201.03,216.69 216.14,216.69 "
       style="fill:#f5f5f5"
       id="polygon43839" />
    <polygon
       points="214.31,231.4 199.19,231.4 201.03,216.69 216.14,216.69 "
       style="fill:#f0f0f0"
       id="polygon43841" />
    <path
       d="m 158.76,227.88 h 106.93 a 1.48,1.48 0 0 0 1.47,-1.67 l -8.24,-65.92 a 1.47,1.47 0 0 0 -1.47,-1.3 H 150.52 a 1.48,1.48 0 0 0 -1.47,1.66 l 8.24,65.93 a 1.48,1.48 0 0 0 1.47,1.3 z"
       style="fill:#f0f0f0"
       id="path43843" />
    <path
       d="m 160.35,227.88 h 106.93 a 1.48,1.48 0 0 0 1.47,-1.67 l -8.24,-65.92 A 1.48,1.48 0 0 0 259,159 H 152.11 a 1.48,1.48 0 0 0 -1.47,1.66 l 8.24,65.93 a 1.48,1.48 0 0 0 1.47,1.29 z"
       style="fill:#f5f5f5"
       id="path43845" />
    <path
       d="m 265.3,224.23 -7.71,-61.7 a 0.42,0.42 0 0 0 -0.41,-0.36 H 154.5 a 0.4,0.4 0 0 0 -0.41,0.46 l 7.71,61.71 a 0.42,0.42 0 0 0 0.41,0.36 h 102.68 a 0.42,0.42 0 0 0 0.41,-0.47 z"
       style="fill:#e6e6e6"
       id="path43847" />
    <polygon
       points="254.34,224.7 227.2,162.17 203.4,162.17 230.55,224.7 "
       style="fill:#ebebeb"
       id="polygon43849" />
    <polygon
       points="225.96,224.7 198.82,162.17 190.25,162.17 217.39,224.7 "
       style="fill:#ebebeb"
       id="polygon43851" />
    <path
       d="m 201.6,243.35 h 24.62 v 0.31 a 2.45,2.45 0 0 1 -2.45,2.45 h -19.72 a 2.45,2.45 0 0 1 -2.45,-2.45 z"
       transform="rotate(180,213.91,244.73)"
       style="fill:#f5f5f5"
       id="path43853" />
    <path
       d="m 187.75,243.35 h 16.7 v 0.31 a 2.45,2.45 0 0 1 -2.45,2.45 h -11.8 a 2.45,2.45 0 0 1 -2.45,-2.45 z"
       transform="rotate(180,196.1,244.73)"
       style="fill:#f0f0f0"
       id="path43855" />
    <polygon
       points="253.43,246.11 177.31,246.11 175.25,240 243.53,240 "
       style="fill:#f5f5f5"
       id="polygon43857" />
    <polygon
       points="185.69,246.11 173.11,246.11 171.41,240 183.98,240 "
       style="fill:#f0f0f0"
       id="polygon43859" />
    <path
       d="m 272.69,241 h 11.45 a 5.11,5.11 0 0 1 5.11,5.11 h -21.67 a 5.11,5.11 0 0 1 5.11,-5.11 z"
       style="fill:#f0f0f0"
       id="path43861" />
    <rect
       x="86.160004"
       y="83.639999"
       width="111.91"
       height="56.150002"
       style="fill:#e6e6e6"
       id="rect43863" />
    <rect
       x="87.580002"
       y="83.639999"
       width="116.03"
       height="56.150002"
       style="fill:#f0f0f0"
       id="rect43865" />
    <rect
       x="121.94"
       y="58.130001"
       width="47.299999"
       height="107.18"
       transform="rotate(90,145.595,111.715)"
       style="fill:#ffffff"
       id="rect43867" />
    <path
       d="m 96.25,111.71 v 0 a 1.81,1.81 0 0 1 1.81,-1.81 h 95.07 a 1.81,1.81 0 0 1 1.81,1.81 v 0 a 1.81,1.81 0 0 1 -1.81,1.81 H 98.06 a 1.81,1.81 0 0 1 -1.81,-1.81 z"
       style="fill:#f5f5f5"
       id="path43869" />
  </g>
  <g
     id="freepik--Shadow--inject-2"
     transform="translate(-76.419999,-55)">
    <ellipse
       id="freepik--path--inject-2"
       cx="250"
       cy="416.23999"
       rx="193.89"
       ry="11.32"
       style="fill:#f5f5f5" />
  </g>
  <g
     id="freepik--Board--inject-2"
     transform="translate(-76.419999,-55)">
    <rect
       x="81.720001"
       y="78.559998"
       width="259.37"
       height="171.44"
       rx="12"
       transform="rotate(180,211.4,164.28)"
       style="fill:#263238"
       id="rect43874" />
    <path
       d="m 149.77,406.84 56.87,-56.84 1.4,-1.39 V 180 a 2.26,2.26 0 0 1 2.26,-2.26 h 2.2 a 2.26,2.26 0 0 1 2.26,2.26 v 168.58 l 1.39,1.39 56.85,56.87 a 1.93,1.93 0 0 1 0,2.74 l -2,2 a 1.94,1.94 0 0 1 -2.73,0 l -53.51,-53.51 v 51.83 a 2.26,2.26 0 0 1 -2.26,2.26 h -2.2 A 2.26,2.26 0 0 1 208,409.9 v -51.81 l -53.47,53.51 a 2,2 0 0 1 -2.74,0 l -2,-2 a 2,2 0 0 1 -0.02,-2.76 z"
       style="fill:#263238"
       id="path43876" />
    <rect
       x="304"
       y="75.059998"
       width="7.5900002"
       height="1"
       style="fill:#60a3ab"
       id="rect43878" />
    <rect
       x="281.17001"
       y="75.059998"
       width="15.83"
       height="1"
       style="fill:#60a3ab"
       id="rect43880" />
    <rect
       x="84.160004"
       y="78.559998"
       width="259.37"
       height="171.44"
       rx="12"
       transform="rotate(180,213.845,164.28)"
       style="fill:#60a3ab"
       id="rect43882" />
    <rect
       x="135.12"
       y="41.59"
       width="157.44"
       height="245.37"
       rx="5"
       transform="rotate(90,213.845,164.275)"
       style="fill:#fafafa"
       id="rect43884" />
    <rect
       x="201.64999"
       y="335.5"
       width="19.5"
       height="15.33"
       rx="3.1700001"
       transform="rotate(180,211.4,343.165)"
       style="fill:#60a3ab"
       id="rect43886" />
    <path
       d="m 182.49,217.19 a 45,45 0 1 0 -45,-45 45,45 0 0 0 45,45 z m 0,-89.08 a 44.1,44.1 0 1 1 -44.1,44.1 44.15,44.15 0 0 1 44.1,-44.1 z"
       style="opacity:0.1"
       id="path43888" />
    <path
       d="m 128.8,104.82 h 39.61 a 5.32,5.32 0 0 1 5.32,5.32 v 73.2 a 5.32,5.32 0 0 1 -5.32,5.32 h -50.69 a 5.32,5.32 0 0 1 -5.32,-5.32 v -62.12 z"
       style="fill:#60a3ab"
       id="path43890" />
    <path
       d="m 131.13,181.34 h 33 A 2.33,2.33 0 0 0 166.4,179 v 0 a 2.32,2.32 0 0 0 -2.32,-2.32 h -33 A 2.33,2.33 0 0 0 128.8,179 v 0 a 2.34,2.34 0 0 0 2.33,2.34 z"
       style="fill:#ffffff"
       id="path43892" />
    <path
       d="m 146.65,116.79 h 17.43 a 2.32,2.32 0 0 0 2.32,-2.32 v 0 a 2.32,2.32 0 0 0 -2.32,-2.32 h -17.43 a 2.32,2.32 0 0 0 -2.32,2.32 v 0 a 2.32,2.32 0 0 0 2.32,2.32 z"
       style="fill:#ffffff"
       id="path43894" />
    <path
       d="m 135.28,126 h 28.8 a 2.32,2.32 0 0 0 2.32,-2.32 v 0 a 2.32,2.32 0 0 0 -2.32,-2.32 h -28.8 a 2.32,2.32 0 0 0 -2.32,2.32 v 0 a 2.32,2.32 0 0 0 2.32,2.32 z"
       style="fill:#ffffff"
       id="path43896" />
    <path
       d="m 122.05,135.23 h 42 a 2.32,2.32 0 0 0 2.32,-2.32 v 0 a 2.32,2.32 0 0 0 -2.32,-2.32 h -42 a 2.33,2.33 0 0 0 -2.33,2.32 v 0 a 2.33,2.33 0 0 0 2.33,2.32 z"
       style="fill:#ffffff"
       id="path43898" />
    <path
       d="m 122.05,144.45 h 24.43 a 2.33,2.33 0 0 0 2.33,-2.32 v 0 a 2.33,2.33 0 0 0 -2.33,-2.32 h -24.43 a 2.33,2.33 0 0 0 -2.33,2.32 v 0 a 2.33,2.33 0 0 0 2.33,2.32 z"
       style="fill:#ffffff"
       id="path43900" />
    <path
       d="m 157.69,144.45 h 6.39 a 2.32,2.32 0 0 0 2.32,-2.32 v 0 a 2.32,2.32 0 0 0 -2.32,-2.32 h -6.39 a 2.32,2.32 0 0 0 -2.32,2.32 v 0 a 2.32,2.32 0 0 0 2.32,2.32 z"
       style="fill:#ffffff"
       id="path43902" />
    <path
       d="m 122.05,153.67 h 42 a 2.32,2.32 0 0 0 2.32,-2.32 v 0 a 2.32,2.32 0 0 0 -2.32,-2.32 h -42 a 2.33,2.33 0 0 0 -2.33,2.32 v 0 a 2.33,2.33 0 0 0 2.33,2.32 z"
       style="fill:#ffffff"
       id="path43904" />
    <path
       d="m 138.27,162.89 h 25.81 a 2.32,2.32 0 0 0 2.32,-2.32 v 0 a 2.32,2.32 0 0 0 -2.32,-2.32 h -25.81 a 2.33,2.33 0 0 0 -2.33,2.32 v 0 a 2.33,2.33 0 0 0 2.33,2.32 z"
       style="fill:#ffffff"
       id="path43906" />
    <path
       d="m 122.05,162.89 h 6.89 a 2.32,2.32 0 0 0 2.32,-2.32 v 0 a 2.32,2.32 0 0 0 -2.32,-2.32 h -6.89 a 2.33,2.33 0 0 0 -2.33,2.32 v 0 a 2.33,2.33 0 0 0 2.33,2.32 z"
       style="fill:#ffffff"
       id="path43908" />
    <path
       d="m 122.05,172.11 h 42 a 2.32,2.32 0 0 0 2.32,-2.32 v 0 a 2.32,2.32 0 0 0 -2.32,-2.32 h -42 a 2.33,2.33 0 0 0 -2.33,2.32 v 0 a 2.33,2.33 0 0 0 2.33,2.32 z"
       style="fill:#ffffff"
       id="path43910" />
    <path
       d="m 128.8,104.82 v 11.08 a 5.32,5.32 0 0 1 -5.32,5.32 H 112.4 Z"
       style="opacity:0.2"
       id="path43912" />
    <path
       d="M 261.67,111.53 V 95.69 A 60.7,60.7 0 0 0 231.33,209 l 7.92,-13.72 a 44.86,44.86 0 0 1 22.42,-83.72 z"
       style="fill:#263238"
       id="path43914" />
    <path
       d="m 322.37,156.4 a 60.72,60.72 0 0 0 -60.7,-60.71 v 15.84 a 44.88,44.88 0 0 1 44.87,44.87 z"
       style="opacity:0.2"
       id="path43916" />
    <path
       d="m 322.37,156.4 h -15.83 a 44.86,44.86 0 0 1 -67.29,38.85 L 231.33,209 a 60.7,60.7 0 0 0 91,-52.57 z"
       style="fill:#60a3ab"
       id="path43918" />
    <polygon
       points="195.45,175.18 214.64,199.97 205.61,199.97 205.61,232.07 185.29,232.07 185.29,199.97 176.26,199.97 "
       style="fill:#60a3ab"
       id="polygon43920" />
  </g>
  <g
     id="freepik--Character--inject-2"
     transform="translate(-76.419999,-55)">
    <polygon
       points="338,403.73 330.42,401.11 334.48,382.84 342.07,385.47 "
       style="fill:#ff8b7b"
       id="polygon43923" />
    <polygon
       points="334.48,382.85 332.39,392.26 339.97,394.89 342.07,385.48 "
       style="opacity:0.2"
       id="polygon43925" />
    <polygon
       points="410.93,408.04 402.91,408.04 396.65,389.45 404.68,389.45 "
       style="fill:#ff8b7b"
       id="polygon43927" />
    <polygon
       points="404.68,389.46 396.65,389.46 399.88,399.04 407.91,399.04 "
       style="opacity:0.2"
       id="polygon43929" />
    <path
       d="m 401.84,407.11 h 9.78 a 0.7,0.7 0 0 1 0.68,0.55 l 1.59,7.14 a 1.17,1.17 0 0 1 -1.17,1.42 c -3.15,-0.05 -5.45,-0.24 -9.42,-0.24 -2.44,0 -9.79,0.26 -13.16,0.26 -3.37,0 -3.81,-3.33 -2.43,-3.64 6.18,-1.35 10.84,-3.21 12.82,-5 a 2,2 0 0 1 1.31,-0.49 z"
       style="fill:#263238"
       id="path43931" />
    <path
       d="m 330.78,400.25 8.28,2.87 a 0.7,0.7 0 0 1 0.47,0.74 l -0.84,7.26 a 1.17,1.17 0 0 1 -1.56,1 c -3,-1.08 -7.23,-2.75 -11,-4 -4.39,-1.52 -8.27,-2.6 -13.42,-4.38 -3.11,-1.08 -2.89,-4.53 -1.48,-4.36 6.38,0.76 11.27,2.29 17.49,0.91 a 3.72,3.72 0 0 1 2.06,-0.04 z"
       style="fill:#263238"
       id="path43933" />
    <polygon
       points="237.23,138.85 319.15,211.77 317.75,213.34 236.56,139.59 "
       style="fill:#263238"
       id="polygon43935" />
    <path
       d="m 374.39,166.74 c -0.58,1.74 -1.14,3.25 -1.78,4.83 -0.64,1.58 -1.28,3.11 -2,4.65 q -2.06,4.6 -4.55,9.07 a 78.54,78.54 0 0 1 -5.66,8.72 42.83,42.83 0 0 1 -7.63,8 l -1.21,0.9 c -0.41,0.29 -0.87,0.57 -1.31,0.85 a 23.43,23.43 0 0 1 -2.71,1.42 29.82,29.82 0 0 1 -5.5,1.83 45.09,45.09 0 0 1 -10.71,1.06 68.71,68.71 0 0 1 -10.21,-1 c -1.66,-0.27 -3.31,-0.64 -4.94,-1 -1.63,-0.36 -3.22,-0.81 -4.92,-1.37 l 1.34,-5.87 c 1.45,0.12 3.06,0.24 4.59,0.32 1.53,0.08 3.1,0.09 4.64,0.11 a 75.52,75.52 0 0 0 9.09,-0.44 40.81,40.81 0 0 0 8.37,-1.74 20,20 0 0 0 3.53,-1.55 12.32,12.32 0 0 0 1.5,-0.94 c 0.22,-0.18 0.44,-0.33 0.67,-0.52 l 0.7,-0.6 a 36.37,36.37 0 0 0 5.31,-6.27 81.12,81.12 0 0 0 4.52,-7.68 c 1.4,-2.69 2.71,-5.46 3.95,-8.27 q 0.94,-2.12 1.8,-4.25 c 0.56,-1.41 1.16,-2.91 1.64,-4.2 z"
       style="fill:#ff8b7b"
       id="path43937" />
    <path
       d="m 377.65,162.8 c 1.72,7.47 -12.1,28.49 -12.1,28.49 l -17.33,-12.67 a 98.11,98.11 0 0 1 11.7,-17.39 c 6.76,-7.62 15.84,-6.64 17.73,1.57 z"
       style="fill:#263238"
       id="path43939" />
    <path
       d="m 313.62,198.84 -8.56,-1.93 1.25,10.17 a 7.71,7.71 0 0 0 8.51,-3.34 z"
       style="fill:#ff8b7b"
       id="path43941" />
    <polygon
       points="299.47,196.66 302.25,204.35 306.31,207.08 305.06,196.91 "
       style="fill:#ff8b7b"
       id="polygon43943" />
    <path
       d="m 413.56,161.68 c -10.45,29.92 -10.64,62.32 -11.81,68.82 -6.24,-0.83 -29.74,-4 -42.55,-5.73 -2.88,-45.94 9.74,-68.7 9.74,-68.7 0,0 2.78,-0.37 6.54,-0.53 1.18,0 2.45,-0.08 3.77,-0.07 0.73,0 1.47,0 2.22,0.05 a 159.1,159.1 0 0 1 18.09,2.48 c 1.13,0.21 2.28,0.45 3.39,0.7 1.11,0.25 2,0.49 3,0.74 4.3,1.09 7.61,2.24 7.61,2.24 z"
       style="fill:#263238"
       id="path43945" />
    <path
       d="m 405.94,159.4 -3.36,2.54 c -4.27,3.23 -9.18,6.22 -16.23,6.22 -0.8,0 -1.62,0 -2.44,-0.12 -5.84,-0.58 -8.07,-3.42 -8.92,-5.71 a 8.67,8.67 0 0 1 0.49,-6.79 c 1.18,0 2.45,-0.08 3.77,-0.07 0.73,0 1.47,0 2.22,0.05 a 159.1,159.1 0 0 1 18.09,2.48 c 1.13,0.21 2.28,0.45 3.39,0.7 1.11,0.25 2.05,0.45 2.99,0.7 z"
       style="fill:#60a3ab"
       id="path43947" />
    <path
       d="m 400.51,137.35 c -1.92,5.67 -4.5,16.18 -0.95,20.61 -3.59,2.72 -8.21,5.79 -15.16,5.1 -6.95,-0.69 -5.09,-5.28 -2.93,-7.54 6.7,-0.67 7.18,-5.51 6.66,-10.19 z"
       style="fill:#ff8b7b"
       id="path43949" />
    <path
       d="m 395.46,140.61 -7.32,4.72 a 19.13,19.13 0 0 1 0.12,3.28 c 2.53,0 6.3,-2.28 6.91,-4.84 a 8.7,8.7 0 0 0 0.29,-3.16 z"
       style="opacity:0.2"
       id="path43951" />
    <path
       d="m 385.78,114.61 c -6.22,-0.51 -8.37,14.46 -4.49,17.33 3.88,2.87 16.13,-16.38 4.49,-17.33 z"
       style="fill:#263238"
       id="path43953" />
    <path
       d="m 402.38,128.69 c -1.54,7.81 -2.05,12.46 -6.58,16 -6.8,5.28 -16,0.36 -16.86,-7.76 -0.74,-7.31 1.91,-18.86 10.05,-21 a 10.87,10.87 0 0 1 13.39,12.76 z"
       style="fill:#ff8b7b"
       id="path43955" />
    <path
       d="m 400.79,136.33 c -3.85,2.4 -7.56,-18.94 3.13,-18.44 13.08,0.62 5.08,13.35 -3.13,18.44 z"
       style="fill:#263238"
       id="path43957" />
    <path
       d="m 404.12,120.94 c -5.71,1.86 -29.9,-0.59 -32.9,-6.58 a 10.89,10.89 0 0 0 5.08,-0.64 c 0,0 -5.12,-1.39 -5.94,-6.08 9.06,4.63 28.19,-1.4 35,3.74 5.69,4.24 3.2,8.12 -1.24,9.56 z"
       style="fill:#263238"
       id="path43959" />
    <path
       d="m 406.89,119 c 0,0 -0.33,-2.32 6.4,0.34 -5.56,-1 -6.22,0.67 -6.22,0.67 z"
       style="fill:#263238"
       id="path43961" />
    <path
       d="m 404.77,137.85 a 7.54,7.54 0 0 1 -5.12,2.68 c -2.65,0.22 -3.47,-2.26 -2.32,-4.5 1,-2 3.67,-4.55 6.12,-3.72 2.45,0.83 2.88,3.69 1.32,5.54 z"
       style="fill:#ff8b7b"
       id="path43963" />
    <path
       d="M 330.15,389.53 343,394 c 0,0 12.58,-49.59 16.52,-74.29 1.2,-7.51 3.88,-17.91 7.12,-29 4.08,-14 9.05,-29.08 13.08,-40.89 4.26,-12.44 7.45,-21.23 7.45,-21.23 l -28,-3.77 c 0,0 -21.31,65.33 -23.71,89.71 -2.46,25.3 -5.31,75 -5.31,75 z"
       style="fill:#60a3ab"
       id="path43965" />
    <path
       d="m 366.64,290.66 c 4.08,-14 9.05,-29.08 13.08,-40.89 l -2.51,-6.47 c -7.5,7.84 -11.02,33.35 -10.57,47.36 z"
       style="opacity:0.2"
       id="path43967" />
    <path
       d="m 374.29,226.81 c 0,0 -1.38,68.77 0.51,92.21 2.06,25.68 21.3,78.16 21.3,78.16 h 14.71 c 0,0 -9.81,-48 -12.82,-73 -3.43,-28.4 3.76,-93.7 3.76,-93.7 z"
       style="fill:#60a3ab"
       id="path43969" />
    <polygon
       points="394.35,397.5 411.66,397.5 411.66,392.33 392.31,391.99 "
       style="fill:#263238"
       id="polygon43971" />
    <polygon
       points="328.43,389.27 343.74,394.57 345.45,389.62 328.43,383.44 "
       style="fill:#263238"
       id="polygon43973" />
    <path
       d="m 390.13,129.28 c -0.08,0.64 -0.49,1.11 -0.91,1.06 -0.42,-0.05 -0.69,-0.63 -0.6,-1.27 0.09,-0.64 0.49,-1.11 0.91,-1.06 0.42,0.05 0.69,0.63 0.6,1.27 z"
       style="fill:#263238"
       id="path43975" />
    <path
       d="m 382.88,128.3 c -0.08,0.64 -0.49,1.12 -0.91,1.06 -0.42,-0.06 -0.69,-0.62 -0.61,-1.26 0.08,-0.64 0.5,-1.12 0.92,-1.06 0.42,0.06 0.72,0.62 0.6,1.26 z"
       style="fill:#263238"
       id="path43977" />
    <path
       d="m 385.14,128.93 a 23,23 0 0 1 -3.8,5.07 3.71,3.71 0 0 0 3,1 z"
       style="fill:#ff5652"
       id="path43979" />
    <path
       d="m 386.8,137.07 a 5.34,5.34 0 0 0 3.91,-1.61 0.1914419,0.1914419 0 1 0 -0.29,-0.25 5.11,5.11 0 0 1 -4.41,1.43 0.19163768,0.19163768 0 0 0 -0.05,0.38 6.1,6.1 0 0 0 0.84,0.05 z"
       style="fill:#263238"
       id="path43981" />
    <path
       d="m 392.69,127.24 a 0.41,0.41 0 0 0 0.18,0 0.38,0.38 0 0 0 0.15,-0.52 3.82,3.82 0 0 0 -2.86,-2 0.38,0.38 0 0 0 -0.4,0.36 0.37,0.37 0 0 0 0.35,0.4 v 0 a 3,3 0 0 1 2.24,1.58 0.38,0.38 0 0 0 0.34,0.18 z"
       style="fill:#263238"
       id="path43983" />
    <path
       d="m 380.09,125.38 a 0.37,0.37 0 0 0 0.32,-0.17 3,3 0 0 1 2.36,-1.41 0.39,0.39 0 0 0 0.38,-0.38 0.38,0.38 0 0 0 -0.38,-0.38 3.75,3.75 0 0 0 -3,1.75 0.38,0.38 0 0 0 0.1,0.53 0.42,0.42 0 0 0 0.22,0.06 z"
       style="fill:#263238"
       id="path43985" />
    <path
       d="m 399.18,408.52 a 9.76,9.76 0 0 0 2.1,-0.29 0.2,0.2 0 0 0 0.06,-0.35 c -0.3,-0.18 -2.88,-1.77 -3.77,-1.32 a 0.62,0.62 0 0 0 -0.33,0.54 1.17,1.17 0 0 0 0.4,1 2.44,2.44 0 0 0 1.54,0.42 z m 1.55,-0.56 c -1.36,0.27 -2.41,0.22 -2.85,-0.15 a 0.76,0.76 0 0 1 -0.26,-0.68 0.25,0.25 0 0 1 0.12,-0.23 c 0.46,-0.24 1.94,0.45 2.99,1.1 z"
       style="fill:#60a3ab"
       id="path43987" />
    <path
       d="m 401.24,408.23 a 0.19,0.19 0 0 0 0.1,0 0.2,0.2 0 0 0 0.09,-0.17 c 0,-0.1 -0.2,-2.42 -1.14,-3.18 a 1,1 0 0 0 -0.81,-0.24 v 0 a 0.61,0.61 0 0 0 -0.6,0.49 c -0.17,0.9 1.44,2.66 2.27,3.11 z M 399.62,405 a 0.62,0.62 0 0 1 0.43,0.17 4.49,4.49 0 0 1 0.95,2.51 c -0.82,-0.63 -1.85,-2 -1.75,-2.48 0,-0.05 0,-0.17 0.28,-0.2 z"
       style="fill:#60a3ab"
       id="path43989" />
    <path
       d="m 329.67,401 a 0.21,0.21 0 0 0 0.17,-0.1 0.2,0.2 0 0 0 0,-0.22 c -0.28,-0.3 -2.79,-2.9 -3.89,-2.71 a 0.61,0.61 0 0 0 -0.46,0.38 v 0 a 1.08,1.08 0 0 0 0,1 c 0.58,1 2.85,1.48 4.16,1.66 z m -3.62,-2.66 c 0.64,0 2.08,1.2 3.08,2.19 -1.77,-0.3 -3,-0.8 -3.32,-1.38 a 0.68,0.68 0 0 1 0,-0.65 0.2,0.2 0 0 1 0.17,-0.15 z"
       style="fill:#60a3ab"
       id="path43991" />
    <path
       d="m 329.67,401 h 0.05 a 0.17,0.17 0 0 0 0.13,-0.14 c 0,-0.09 0.53,-2.2 -0.16,-3.33 a 1.42,1.42 0 0 0 -0.89,-0.65 v 0 c -0.52,-0.12 -0.74,0.08 -0.85,0.27 -0.43,0.81 0.81,3.08 1.59,3.81 a 0.19,0.19 0 0 0 0.13,0.04 z m -1.16,-3.79 h 0.2 v 0 a 1,1 0 0 1 0.65,0.48 4.42,4.42 0 0 1 0.19,2.69 c -0.74,-0.89 -1.52,-2.6 -1.26,-3.09 0.01,0.04 0.06,-0.04 0.22,-0.04 z m 0.24,-0.15 z"
       style="fill:#60a3ab"
       id="path43993" />
    <path
       d="m 415.07,166.27 c 0.79,1.45 1.44,2.73 2.08,4.11 0.64,1.38 1.26,2.73 1.87,4.1 1.18,2.76 2.28,5.57 3.25,8.43 0.97,2.86 1.83,5.8 2.56,8.79 l 0.51,2.27 0.42,2.31 c 0.15,0.76 0.24,1.56 0.35,2.35 l 0.15,1.18 v 0.29 l 0.05,0.49 c 0,0.38 0,0.71 0,1 a 16.53,16.53 0 0 1 -1.43,6.09 35.23,35.23 0 0 1 -2.29,4.47 69.94,69.94 0 0 1 -5.32,7.55 114.56,114.56 0 0 1 -12.23,13 l -4.48,-4 c 3.21,-4.63 6.39,-9.41 9.25,-14.14 a 76.71,76.71 0 0 0 3.85,-7.12 26.16,26.16 0 0 0 1.33,-3.38 6.52,6.52 0 0 0 0.39,-2.32 c 0,0 0,-0.05 0,0 0,0.05 0,0.06 0,-0.05 l -0.05,-0.23 -0.21,-1 c -0.14,-0.63 -0.26,-1.26 -0.44,-1.9 l -0.5,-1.92 -0.57,-1.92 c -0.8,-2.56 -1.69,-5.13 -2.69,-7.69 -1,-2.56 -2.06,-5.1 -3.18,-7.63 -0.56,-1.27 -1.12,-2.53 -1.71,-3.78 L 404.32,172 Z"
       style="fill:#ff8b7b"
       id="path43995" />
    <path
       d="m 413.56,161.68 c 7.17,2.73 12,20.06 12,20.06 l -14.82,14.8 c 0,0 -6.4,-12.83 -9,-22.4 -2.81,-10.43 3.13,-15.76 11.82,-12.46 z"
       style="fill:#263238"
       id="path43997" />
    <path
       d="m 402.39,227.51 -7.73,2.55 7,7.51 c 0,0 6.1,-3.64 4.54,-7.09 z"
       style="fill:#ff8b7b"
       id="path43999" />
    <polygon
       points="390.9,235.62 396.97,241.55 401.64,237.57 394.65,230.06 "
       style="fill:#ff8b7b"
       id="polygon44001" />
  </g>
</svg>
