<?xml version="1.0" encoding="UTF-8" standalone="no"?>
<svg
   viewBox="0 0 387.78 337.00748"
   version="1.1"
   id="svg37106"
   width="387.78"
   height="337.00748"
   xmlns="http://www.w3.org/2000/svg"
   xmlns:svg="http://www.w3.org/2000/svg">
  <defs
     id="defs37110" />
  <g
     id="freepik--background-simple--inject-2"
     transform="translate(-56.110001,-90.5525)">
    <path
       d="m 95.7,300.53 c 2,71.24 133.21,63.41 195.05,33.27 C 369,295.67 401,236.21 377.82,167.66 354.82,99.74 265.39,85.1 216.55,132.35 c -24.07,23.3 -36.82,55.7 -60.63,79.55 -28.27,28.32 -61.49,44.1 -60.22,88.63 z"
       style="fill:#60a3ab"
       id="path36974" />
    <path
       d="m 95.7,300.53 c 2,71.24 133.21,63.41 195.05,33.27 C 369,295.67 401,236.21 377.82,167.66 354.82,99.74 265.39,85.1 216.55,132.35 c -24.07,23.3 -36.82,55.7 -60.63,79.55 -28.27,28.32 -61.49,44.1 -60.22,88.63 z"
       style="opacity:0.9;fill:#ffffff"
       id="path36976" />
  </g>
  <g
     id="freepik--Shadow--inject-2"
     transform="translate(-56.110001,-90.5525)">
    <ellipse
       id="freepik--path--inject-2"
       cx="250"
       cy="416.23999"
       rx="193.89"
       ry="11.32"
       style="fill:#f5f5f5" />
  </g>
  <g
     id="freepik--Character--inject-2"
     transform="translate(-56.110001,-90.5525)">
    <polygon
       points="242.48,387.42 250.83,386.48 253.91,405.42 245.56,406.36 "
       style="fill:#ffc3bd"
       id="polygon36981" />
    <polygon
       points="280.88,387.93 289.22,387.93 291.29,407.24 282.95,407.24 "
       style="fill:#ffc3bd"
       id="polygon36983" />
    <path
       d="m 282.27,406.27 h 10.16 a 0.73,0.73 0 0 1 0.71,0.57 l 1.65,7.41 a 1.22,1.22 0 0 1 -1.22,1.48 c -3.27,-0.05 -5.66,-0.24 -9.78,-0.24 -2.53,0 -10.17,0.26 -13.67,0.26 -3.5,0 -4,-3.46 -2.52,-3.77 6.42,-1.41 11.26,-3.35 13.32,-5.2 a 2,2 0 0 1 1.35,-0.51 z"
       style="fill:#263238"
       id="path36985" />
    <path
       d="m 245.43,404.93 9,-1 a 0.72,0.72 0 0 1 0.77,0.49 l 2.47,7.17 a 1.21,1.21 0 0 1 -1,1.61 c -3.27,0.32 -8,0.66 -12.11,1.13 -4.8,0.54 -5.6,1.83 -11.25,1.69 -3.43,-0.08 -4.3,-3.56 -2.86,-3.84 6.56,-1.27 7.82,-2.26 13,-6.35 a 3.82,3.82 0 0 1 1.98,-0.9 z"
       style="fill:#263238"
       id="path36987" />
    <path
       d="m 252.79,162.25 c -2.8,2.31 -5.56,4.32 -8.41,6.38 -2.85,2.06 -5.76,4 -8.76,5.83 -3,1.83 -6.07,3.62 -9.3,5.23 A 67.3,67.3 0 0 1 216.06,184 c -0.93,0.29 -1.84,0.54 -2.89,0.79 a 27.87,27.87 0 0 1 -3.11,0.5 c -1.88,0.21 -3.64,0.29 -5.4,0.38 -3.51,0.16 -7,0.15 -10.4,0.13 -6.88,-0.08 -13.7,-0.41 -20.56,-1 l -0.1,-6.26 c 6.73,-0.86 13.49,-1.61 20.18,-2.36 3.34,-0.37 6.68,-0.77 9.93,-1.2 1.63,-0.22 3.24,-0.48 4.72,-0.76 a 19.16,19.16 0 0 0 1.9,-0.44 c 0.58,-0.2 1.3,-0.43 2,-0.7 a 68.21,68.21 0 0 0 8.31,-4.06 c 2.77,-1.59 5.53,-3.3 8.25,-5.11 2.72,-1.81 5.43,-3.69 8.12,-5.6 2.69,-1.91 5.36,-3.94 7.88,-5.86 z"
       style="fill:#ffc3bd"
       id="path36989" />
    <path
       d="m 260.94,155.13 c -1.2,7.88 -17.79,19.93 -17.79,19.93 l -11.91,-14.77 a 197.7,197.7 0 0 1 16.57,-15.76 c 5.35,-4.38 14.43,2.02 13.13,10.6 z"
       style="fill:#60a3ab"
       id="path36991" />
    <path
       d="m 175.9,179.18 -4.73,-3.37 -0.52,10.65 c 0,0 2.62,0 3.63,-1.92 z"
       style="fill:#ffc3bd"
       id="path36993" />
    <polygon
       points="170.65,186.46 171.17,175.81 166.89,172.71 165.92,183.14 "
       style="fill:#ffc3bd"
       id="polygon36995" />
    <polygon
       points="252.42,396.25 250.84,386.49 242.49,387.43 244.07,397.19 "
       style="opacity:0.2"
       id="polygon36997" />
    <polygon
       points="281.95,397.89 290.29,397.89 289.22,387.93 280.88,387.93 "
       style="opacity:0.2"
       id="polygon36999" />
    <path
       d="m 289.34,144.78 a 4.76,4.76 0 0 1 3.58,5.81 195.86,195.86 0 0 0 -4.08,22.79 c -0.79,6.46 -1.26,12.63 -1.55,18.22 -0.7,13.1 -0.41,23.09 -0.8,26.48 L 242,215 c -4.52,-35.4 0.77,-58 3.75,-67.17 a 7.94,7.94 0 0 1 6.5,-5.44 c 1.71,-0.22 3.75,-0.44 5.91,-0.57 0.75,0 1.52,-0.07 2.29,-0.09 a 165.41,165.41 0 0 1 18.93,1.27 c 1.19,0.14 2.39,0.32 3.56,0.5 2.33,0.41 4.56,0.87 6.4,1.28 z"
       style="fill:#263238"
       id="path37001" />
    <path
       d="m 279,121.61 c -1.62,6 -3.59,17.06 0.38,21.42 -10.31,6.94 -16.89,16.7 -18.79,14.58 -1,-1.11 -1.42,-14 -0.12,-15.9 6.9,-1.15 7.08,-6.19 6.23,-11 z"
       style="fill:#ffc3bd"
       id="path37003" />
    <path
       d="m 278.58,140.54 c 0,0 -16.81,7.44 -19,24.06 4.62,-5.36 14.85,-11.19 14.85,-11.19 l -4.51,-1.29 a 46.07,46.07 0 0 1 8.86,-2.39 c -0.5,-2.3 2.17,-6.88 2.17,-6.88 z"
       style="fill:#60a3ab"
       id="path37005" />
    <path
       d="m 263.42,140.27 c 0,0 2.23,9.5 -3.87,24.33 -0.95,-5.66 -4.94,-15.13 -4.94,-15.13 l 4.12,1.11 c 0,0 -0.21,-1.91 -3.54,-4.46 1.24,-2.38 5.12,-5.19 5.12,-5.19 z"
       style="fill:#60a3ab"
       id="path37007" />
    <path
       d="m 274,125.32 -7.28,5.38 a 19,19 0 0 1 0.35,3.4 c 2.62,-0.19 6.38,-2.79 6.84,-5.49 a 9.08,9.08 0 0 0 0.09,-3.29 z"
       style="opacity:0.2"
       id="path37009" />
    <path
       d="m 257.64,104.23 c -4.07,0.17 -6.31,7.18 -2.19,13 4.12,5.82 7.66,-13.23 2.19,-13 z"
       style="fill:#263238"
       id="path37011" />
    <path
       d="m 277.69,110.4 c 0.48,8.26 1.18,13.07 -2.45,17.77 -5.47,7.08 -16.05,4.55 -19,-3.4 -2.64,-7.16 -3,-19.47 4.65,-23.69 a 11.29,11.29 0 0 1 16.8,9.32 z"
       style="fill:#ffc3bd"
       id="path37013" />
    <path
       d="m 278.9,116.74 c -6.26,-4 -8.47,-9.27 -8.95,-11.92 -2.43,0.57 -14.49,6.12 -18.2,0 -3.71,-6.12 1,-9.72 7.9,-5.95 -3.07,-5.42 -0.28,-8.07 9.37,-8.31 9.65,-0.24 8.35,5.36 8.35,5.36 0,0 7.3,-3.18 9.89,2.42 2.99,6.44 -2.53,17.43 -8.36,18.4 z"
       style="fill:#263238"
       id="path37015" />
    <path
       d="m 275.72,94.44 c 0.09,0 3.65,0.86 7.76,-3.27 -0.73,3.52 -7.11,5.87 -7.11,5.87 z"
       style="fill:#263238"
       id="path37017" />
    <path
       d="m 280.51,106.53 c -3.84,-1.33 -8.5,4.37 -6.78,11.25 1.72,6.88 11.97,-9.46 6.78,-11.25 z"
       style="fill:#263238"
       id="path37019" />
    <path
       d="m 282.69,117.27 a 7.82,7.82 0 0 1 -3.2,5.08 c -2.26,1.58 -4.3,-0.22 -4.43,-2.83 -0.12,-2.35 0.92,-6 3.55,-6.54 2.63,-0.54 4.49,1.77 4.08,4.29 z"
       style="fill:#ffc3bd"
       id="path37021" />
    <path
       d="m 254.55,308.91 c 2,-24.38 16.7,-91.89 16.7,-91.89 L 242,215 c 0,0 -11.28,67 -12.14,92.44 -0.9,26.45 9.74,85.22 9.74,85.22 l 14,-1.6 c 0,0 -1.07,-57.66 0.95,-82.15 z"
       style="fill:#60a3ab"
       id="path37023" />
    <path
       d="m 254.55,308.91 c 2,-24.38 16.7,-91.89 16.7,-91.89 L 242,215 c 0,0 -11.28,67 -12.14,92.44 -0.9,26.45 9.74,85.22 9.74,85.22 l 14,-1.6 c 0,0 -1.07,-57.66 0.95,-82.15 z"
       style="opacity:0.5;fill:#ffffff"
       id="path37025" />
    <path
       d="m 260.23,239.88 c -5.9,7.54 -6,34 -3.72,53.58 2.17,-14.12 5.59,-32 8.6,-47 z"
       style="opacity:0.2"
       id="path37027" />
    <path
       d="m 257.78,216.08 c 0,0 3.16,71.38 6.68,95.55 3.85,26.47 13.64,84.37 13.64,84.37 h 15.27 c 0,0 -2.51,-54.49 -4.53,-80.5 -2.29,-29.62 -2.35,-97.38 -2.35,-97.38 z"
       style="fill:#60a3ab"
       id="path37029" />
    <path
       d="m 257.78,216.08 c 0,0 3.16,71.38 6.68,95.55 3.85,26.47 13.64,84.37 13.64,84.37 h 15.27 c 0,0 -2.51,-54.49 -4.53,-80.5 -2.29,-29.62 -2.35,-97.38 -2.35,-97.38 z"
       style="opacity:0.5;fill:#ffffff"
       id="path37031" />
    <polygon
       points="294.25,390.92 274.15,390.57 276.27,396.29 294.25,396.29 "
       style="fill:#60a3ab"
       id="polygon37033" />
    <polygon
       points="255.09,386.92 236.37,388.75 238.98,394.22 255.7,392.32 "
       style="fill:#60a3ab"
       id="polygon37035" />
    <path
       d="m 265.53,114.18 c 0.08,0.67 -0.21,1.26 -0.65,1.31 -0.44,0.05 -0.85,-0.45 -0.94,-1.12 -0.09,-0.67 0.21,-1.25 0.65,-1.3 0.44,-0.05 0.86,0.45 0.94,1.11 z"
       style="fill:#263238"
       id="path37037" />
    <path
       d="m 258,115.09 c 0.08,0.67 -0.21,1.25 -0.65,1.31 -0.44,0.06 -0.85,-0.45 -0.93,-1.12 -0.08,-0.67 0.21,-1.25 0.64,-1.3 0.43,-0.05 0.84,0.44 0.94,1.11 z"
       style="fill:#263238"
       id="path37039" />
    <path
       d="m 260.42,115.14 a 24.11,24.11 0 0 1 -2.51,6.09 3.89,3.89 0 0 0 3.27,0.21 z"
       style="fill:#ed847e"
       id="path37041" />
    <path
       d="m 267.58,111.46 a 0.39,0.39 0 0 1 -0.4,-0.1 3.16,3.16 0 0 0 -2.67,-1 0.4,0.4 0 0 1 -0.51,-0.36 0.38,0.38 0 0 1 0.32,-0.46 3.89,3.89 0 0 1 3.38,1.23 0.39,0.39 0 0 1 0,0.56 0.46,0.46 0 0 1 -0.12,0.13 z"
       style="fill:#263238"
       id="path37043" />
    <path
       d="m 264.68,124.11 v 0 a 6.06,6.06 0 0 0 4.32,-3.55 0.21,0.21 0 0 0 -0.12,-0.27 0.22,0.22 0 0 0 -0.28,0.13 5.73,5.73 0 0 1 -4,3.27 0.23,0.23 0 0 0 -0.16,0.26 0.23,0.23 0 0 0 0.24,0.16 z"
       style="fill:#263238"
       id="path37045" />
    <path
       d="m 254.43,112.88 a 0.33,0.33 0 0 1 -0.24,0 0.4,0.4 0 0 1 -0.25,-0.5 3.94,3.94 0 0 1 2.55,-2.55 0.39,0.39 0 0 1 0.48,0.29 0.38,0.38 0 0 1 -0.28,0.47 v 0 a 3.14,3.14 0 0 0 -2,2 0.36,0.36 0 0 1 -0.26,0.29 z"
       style="fill:#263238"
       id="path37047" />
    <path
       d="m 279.51,407.73 a 2.51,2.51 0 0 1 -1.6,-0.43 1.18,1.18 0 0 1 -0.41,-1 0.61,0.61 0 0 1 0.34,-0.56 c 0.92,-0.48 3.61,1.18 3.91,1.37 a 0.18,0.18 0 0 1 0.09,0.2 0.19,0.19 0 0 1 -0.15,0.16 9.72,9.72 0 0 1 -2.18,0.26 z M 278.27,406 a 0.58,0.58 0 0 0 -0.25,0.05 0.24,0.24 0 0 0 -0.13,0.23 0.81,0.81 0 0 0 0.27,0.72 c 0.46,0.38 1.55,0.44 3,0.15 A 8.07,8.07 0 0 0 278.27,406 Z"
       style="fill:#60a3ab"
       id="path37049" />
    <path
       d="m 281.65,407.43 a 0.18,0.18 0 0 1 -0.1,0 c -0.86,-0.47 -2.53,-2.3 -2.35,-3.22 a 0.65,0.65 0 0 1 0.63,-0.52 1.06,1.06 0 0 1 0.84,0.25 c 1,0.79 1.17,3.2 1.17,3.3 a 0.17,0.17 0 0 1 -0.09,0.18 0.17,0.17 0 0 1 -0.1,0.01 z M 280,404.05 h -0.08 c -0.26,0 -0.28,0.15 -0.29,0.2 -0.11,0.55 1,1.93 1.81,2.58 a 4.68,4.68 0 0 0 -1,-2.61 0.69,0.69 0 0 0 -0.44,-0.17 z"
       style="fill:#60a3ab"
       id="path37051" />
    <path
       d="m 244.75,406.16 v 0 c -1.3,0.42 -3.64,1 -4.64,0.31 a 1.08,1.08 0 0 1 -0.47,-0.91 0.63,0.63 0 0 1 0.26,-0.56 c 0.94,-0.66 4.47,0.64 4.86,0.79 a 0.21,0.21 0 0 1 0.13,0.19 0.19,0.19 0 0 1 -0.14,0.18 z m -4.61,-0.86 v 0 a 0.26,0.26 0 0 0 -0.1,0.23 0.71,0.71 0 0 0 0.31,0.6 c 0.56,0.4 1.93,0.32 3.73,-0.19 -1.45,-0.45 -3.36,-0.94 -3.94,-0.64 z"
       style="fill:#60a3ab"
       id="path37053" />
    <path
       d="m 244.75,406.16 a 0.22,0.22 0 0 1 -0.16,0 c -1.05,-0.33 -3.23,-1.9 -3.18,-2.85 0,-0.23 0.13,-0.52 0.66,-0.63 a 1.42,1.42 0 0 1 1.13,0.21 c 1.15,0.75 1.63,3 1.65,3 a 0.22,0.22 0 0 1 -0.06,0.19 z m -2.81,-3 c -0.13,0.07 -0.14,0.15 -0.14,0.19 0,0.57 1.48,1.82 2.57,2.32 a 4.62,4.62 0 0 0 -1.39,-2.43 1,1 0 0 0 -0.82,-0.16 0.68,0.68 0 0 0 -0.22,0.07 z"
       style="fill:#60a3ab"
       id="path37055" />
    <path
       d="m 296.36,156.8 c -0.21,3.26 -0.59,6.29 -1,9.42 -0.41,3.13 -0.93,6.2 -1.52,9.3 a 109.59,109.59 0 0 1 -5.13,18.58 l -1,2.33 -0.25,0.58 -0.06,0.15 -0.1,0.22 -0.3,0.62 a 10.09,10.09 0 0 1 -1.38,2 12.19,12.19 0 0 1 -3,2.48 17.87,17.87 0 0 1 -2.87,1.39 37.53,37.53 0 0 1 -10.26,2.15 86,86 0 0 1 -19.08,-0.71 l 0.23,-6.26 4.41,-0.5 c 1.48,-0.17 2.95,-0.4 4.41,-0.6 2.92,-0.43 5.81,-0.91 8.57,-1.55 a 32.65,32.65 0 0 0 7.37,-2.44 4.08,4.08 0 0 0 1.61,-1.23 c 0,-0.15 -0.29,0.48 0.08,-0.52 l 0.66,-1.93 a 126,126 0 0 0 3.7,-16.86 c 0.48,-2.9 0.88,-5.83 1.28,-8.77 0.4,-2.94 0.71,-5.93 1,-8.74 z"
       style="fill:#ffc3bd"
       id="path37057" />
    <path
       d="m 297.1,150.76 c 4.08,6.84 0.6,28.36 0.6,28.36 l -21.4,-4 c 0,0 -1.16,-12.32 2.92,-21.78 4.43,-10.26 12.94,-10.88 17.88,-2.58 z"
       style="fill:#60a3ab"
       id="path37059" />
    <path
       d="m 244.68,218.3 -11.35,-52.8 a 10.68,10.68 0 0 0 -9.93,-8.17 h -43.48 a 10.7,10.7 0 0 1 9.93,8.17 l 11.34,52.8 a 10.7,10.7 0 0 0 9.93,8.17 h 43.49 a 10.69,10.69 0 0 1 -9.93,-8.17 z"
       style="fill:#263238"
       id="path37061" />
    <path
       d="m 244.68,218.3 -11.35,-52.8 a 10.68,10.68 0 0 0 -9.93,-8.17 h -43.48 a 10.7,10.7 0 0 1 9.93,8.17 l 11.34,52.8 a 10.7,10.7 0 0 0 9.93,8.17 h 43.49 a 10.69,10.69 0 0 1 -9.93,-8.17 z"
       style="opacity:0.7;fill:#60a3ab"
       id="path37063" />
    <rect
       x="156.02"
       y="227.77"
       width="12.39"
       height="1"
       transform="matrix(0.09,-1,1,0.09,-79.97,368.85)"
       style="fill:#60a3ab"
       id="rect37065" />
    <rect
       x="158.35001"
       y="241.42999"
       width="5.21"
       height="1"
       transform="rotate(-84.73,160.97747,241.93449)"
       style="fill:#60a3ab"
       id="rect37067" />
    <path
       d="m 179.92,157.33 h 43.48 a 9.13,9.13 0 0 0 -8.91,8.17 l -11.28,122.68 a 9.14,9.14 0 0 1 -8.92,8.17 h -27.14 a 7.34,7.34 0 0 1 -7.43,-8.17 L 171,165.5 a 9.14,9.14 0 0 1 8.92,-8.17 z"
       style="fill:#60a3ab"
       id="path37069" />
    <path
       d="m 186.86,288.18 a 7.34,7.34 0 0 0 7.43,8.17 H 150.8 a 7.33,7.33 0 0 1 -7.42,-8.17 z"
       style="fill:#263238"
       id="path37071" />
    <path
       d="m 186.86,288.18 a 7.34,7.34 0 0 0 7.43,8.17 H 150.8 a 7.33,7.33 0 0 1 -7.42,-8.17 z"
       style="opacity:0.7;fill:#60a3ab"
       id="path37073" />
    <g
       style="opacity:0.5"
       id="g37099">
      <path
         d="m 207,171.08 h -29.48 a 1.6,1.6 0 0 1 -1.61,-1.78 v 0 a 2,2 0 0 1 1.94,-1.78 h 29.43 a 1.6,1.6 0 0 1 1.61,1.78 v 0 a 2,2 0 0 1 -1.89,1.78 z"
         style="fill:#ffffff"
         id="path37075" />
      <path
         d="m 206.08,180.7 h -29.43 a 1.6,1.6 0 0 1 -1.62,-1.78 v 0 a 2,2 0 0 1 1.94,-1.78 h 29.43 a 1.6,1.6 0 0 1 1.62,1.78 v 0 a 2,2 0 0 1 -1.94,1.78 z"
         style="fill:#ffffff"
         id="path37077" />
      <path
         d="m 198,190.33 h -22.23 a 1.6,1.6 0 0 1 -1.61,-1.78 v 0 a 2,2 0 0 1 1.94,-1.78 h 22.21 a 1.6,1.6 0 0 1 1.62,1.78 v 0 a 2,2 0 0 1 -1.93,1.78 z"
         style="fill:#ffffff"
         id="path37079" />
      <path
         d="m 182.43,200 h -7.53 a 1.6,1.6 0 0 1 -1.62,-1.77 v 0 a 2,2 0 0 1 1.94,-1.78 h 7.54 a 1.6,1.6 0 0 1 1.61,1.78 v 0 a 2,2 0 0 1 -1.94,1.77 z"
         style="fill:#ffffff"
         id="path37081" />
      <path
         d="M 203.45,209.58 H 174 a 1.6,1.6 0 0 1 -1.61,-1.78 v 0 a 2,2 0 0 1 1.94,-1.78 h 29.42 a 1.6,1.6 0 0 1 1.62,1.78 v 0 a 2,2 0 0 1 -1.92,1.78 z"
         style="fill:#ffffff"
         id="path37083" />
      <path
         d="m 191,219.21 h -17.85 a 1.6,1.6 0 0 1 -1.62,-1.78 v 0 a 2,2 0 0 1 1.94,-1.78 h 17.84 a 1.61,1.61 0 0 1 1.62,1.78 v 0 a 2,2 0 0 1 -1.93,1.78 z"
         style="fill:#ffffff"
         id="path37085" />
      <path
         d="m 201.7,228.83 h -29.43 a 1.6,1.6 0 0 1 -1.61,-1.78 v 0 a 2,2 0 0 1 1.94,-1.78 H 202 a 1.61,1.61 0 0 1 1.62,1.78 v 0 a 2,2 0 0 1 -1.92,1.78 z"
         style="fill:#ffffff"
         id="path37087" />
      <path
         d="M 193.61,238.46 H 171.4 a 1.6,1.6 0 0 1 -1.62,-1.78 v 0 a 2,2 0 0 1 1.94,-1.78 h 22.21 a 1.6,1.6 0 0 1 1.62,1.78 v 0 a 2,2 0 0 1 -1.94,1.78 z"
         style="fill:#ffffff"
         id="path37089" />
      <path
         d="m 178.06,248.09 h -7.54 a 1.61,1.61 0 0 1 -1.62,-1.78 v 0 a 2,2 0 0 1 1.95,-1.78 h 7.53 a 1.6,1.6 0 0 1 1.62,1.78 v 0 a 2,2 0 0 1 -1.94,1.78 z"
         style="fill:#ffffff"
         id="path37091" />
      <path
         d="m 199.07,257.71 h -29.42 a 1.6,1.6 0 0 1 -1.62,-1.78 v 0 a 2,2 0 0 1 1.94,-1.78 h 29.43 a 1.6,1.6 0 0 1 1.61,1.78 v 0 a 2,2 0 0 1 -1.94,1.78 z"
         style="fill:#ffffff"
         id="path37093" />
      <path
         d="m 186.61,267.34 h -17.84 a 1.6,1.6 0 0 1 -1.62,-1.78 v 0 a 2,2 0 0 1 1.94,-1.78 h 17.84 a 1.6,1.6 0 0 1 1.62,1.78 v 0 a 2,2 0 0 1 -1.94,1.78 z"
         style="fill:#ffffff"
         id="path37095" />
      <path
         d="M 197.32,277 H 167.9 a 1.6,1.6 0 0 1 -1.62,-1.78 v 0 a 2,2 0 0 1 1.94,-1.77 h 29.43 a 1.6,1.6 0 0 1 1.61,1.77 v 0 a 2,2 0 0 1 -1.94,1.78 z"
         style="fill:#ffffff"
         id="path37097" />
    </g>
    <path
       d="m 253.23,199.62 -6.39,-5.55 -3,10.22 c 0,0 6.49,3.52 8.73,0.29 z"
       style="fill:#ffc3bd"
       id="path37101" />
    <polygon
       points="243.85,204.29 246.84,194.07 239.89,193.67 237.81,202.24 "
       style="fill:#ffc3bd"
       id="polygon37103" />
  </g>
</svg>
