<?xml version="1.0" encoding="UTF-8" standalone="no"?>
<svg
   viewBox="0 0 426.03128 340.78198"
   version="1.1"
   id="svg1837"
   width="426.03128"
   height="340.78198"
   sodipodi:docname="spolka.svg"
   inkscape:export-filename="spolka.svg"
   inkscape:export-xdpi="96"
   inkscape:export-ydpi="96"
   xmlns:inkscape="http://www.inkscape.org/namespaces/inkscape"
   xmlns:sodipodi="http://sodipodi.sourceforge.net/DTD/sodipodi-0.dtd"
   xmlns="http://www.w3.org/2000/svg"
   xmlns:svg="http://www.w3.org/2000/svg">
  <sodipodi:namedview
     id="namedview7031"
     pagecolor="#ffffff"
     bordercolor="#000000"
     borderopacity="0.25"
     inkscape:showpageshadow="2"
     inkscape:pageopacity="0.0"
     inkscape:pagecheckerboard="0"
     inkscape:deskcolor="#d1d1d1"
     showgrid="false" />
  <defs
     id="defs1841" />
  <g
     id="freepik--background-complete--inject-2"
     transform="translate(-35.591373,-86.77801)">
    <rect
       y="382.39999"
       width="426.03128"
       height="0.25"
       style="fill:#ebebeb;stroke-width:0.923073"
       id="rect1412"
       x="35.591373" />
    <rect
       x="416.78"
       y="398.48999"
       width="33.119999"
       height="0.25"
       style="fill:#ebebeb"
       id="rect1414" />
    <rect
       x="322.53"
       y="401.20999"
       width="8.6899996"
       height="0.25"
       style="fill:#ebebeb"
       id="rect1416" />
    <rect
       x="396.59"
       y="389.20999"
       width="19.190001"
       height="0.25"
       style="fill:#ebebeb"
       id="rect1418" />
    <rect
       x="52.459999"
       y="390.89001"
       width="43.189999"
       height="0.25"
       style="fill:#ebebeb"
       id="rect1420" />
    <rect
       x="104.56"
       y="390.89001"
       width="6.3299999"
       height="0.25"
       style="fill:#ebebeb"
       id="rect1422" />
    <rect
       x="131.47"
       y="395.10999"
       width="93.68"
       height="0.25"
       style="fill:#ebebeb"
       id="rect1424" />
    <path
       d="M 237,337.8 H 43.91 a 5.71,5.0683719 0 0 1 -5.7,-5.06837 V 91.802 a 5.71,5.0683719 0 0 1 5.7,-5.02399 H 237 a 5.71,5.0683719 0 0 1 5.71,5.068372 V 332.73163 A 5.71,5.0683719 0 0 1 237,337.8 Z M 43.91,86.955536 A 5.46,4.8464642 0 0 0 38.46,91.802 v 240.92963 a 5.46,4.8464642 0 0 0 5.45,4.84646 H 237 a 5.47,4.8553405 0 0 0 5.46,-4.84646 V 91.802 A 5.47,4.8553405 0 0 0 237,86.955536 Z"
       style="fill:#ebebeb;stroke-width:0.942142"
       id="path1426" />
    <path
       d="m 453.31,337.8 h -193.1 a 5.72,5.0772482 0 0 1 -5.71,-5.06837 V 91.802 a 5.72,5.0772482 0 0 1 5.71,-5.02399 h 193.1 A 5.71,5.0683719 0 0 1 459,91.802 V 332.73163 A 5.71,5.0683719 0 0 1 453.31,337.8 Z M 260.21,86.955536 A 5.47,4.8553405 0 0 0 254.75,91.802 v 240.92963 a 5.47,4.8553405 0 0 0 5.46,4.84646 h 193.1 a 5.47,4.8553405 0 0 0 5.46,-4.84646 V 91.802 a 5.47,4.8553405 0 0 0 -5.46,-4.846464 z"
       style="fill:#ebebeb;stroke-width:0.942142"
       id="path1428" />
    <polygon
       points="118.94,332.59 112.94,336.95 140.94,336.95 132,333.63 132,319.38 118.94,318.39 "
       style="fill:#e0e0e0"
       id="polygon1430" />
    <path
       d="m 69.47,336.54 v 44.73 h 125 v -44.73 z m 122.75,17.52 H 94.38 v -14.62 h 97.84 z"
       style="fill:#e0e0e0"
       id="path1432" />
    <path
       d="m 91.37,336.54 v 44.73 h 103.1 v -44.73 z m 100.85,17.52 H 94.38 v -14.62 h 97.84 z"
       style="fill:#ebebeb"
       id="path1434" />
    <rect
       x="172.05"
       y="339.44"
       width="20.17"
       height="14.62"
       style="fill:#e0e0e0"
       id="rect1436" />
    <rect
       x="94.379997"
       y="346.75"
       width="24.950001"
       height="7.3099999"
       style="fill:#e0e0e0"
       id="rect1438" />
    <rect
       x="121.17"
       y="349.70999"
       width="18.780001"
       height="4.3400002"
       style="fill:#e0e0e0"
       id="rect1440" />
    <rect
       x="144.28999"
       y="345.17999"
       width="17.889999"
       height="8.8800001"
       style="fill:#e0e0e0"
       id="rect1442" />
    <polygon
       points="111.58,358.99 104.4,358.99 103.86,357.24 94.38,357.24 94.38,376.65 125.85,376.65 125.85,357.24 112.11,357.24 "
       style="fill:#e0e0e0"
       id="polygon1444" />
    <polygon
       points="148.97,358.99 141.79,358.99 141.25,357.24 127.52,357.24 127.52,376.65 158.99,376.65 158.99,357.24 149.51,357.24 "
       style="fill:#e0e0e0"
       id="polygon1446" />
    <polygon
       points="177.86,358.99 170.68,358.99 170.14,357.24 160.66,357.24 160.66,376.65 192.13,376.65 192.13,357.24 178.39,357.24 "
       style="fill:#e0e0e0"
       id="polygon1448" />
    <rect
       x="79.669998"
       y="266.42001"
       width="100.05"
       height="60.450001"
       rx="3.53"
       style="fill:#e0e0e0"
       id="rect1450" />
    <rect
       x="82.019997"
       y="266.42001"
       width="100.05"
       height="60.450001"
       rx="3.53"
       style="fill:#e6e6e6"
       id="rect1452" />
    <rect
       x="104.76"
       y="249.56"
       width="54.580002"
       height="94.169998"
       transform="rotate(90,132.045,296.645)"
       style="fill:#f0f0f0"
       id="rect1454" />
    <path
       d="m 310.87,261.18 h 89.54 A 17.58,17.58 0 0 1 418,278.76 v 69.92 H 293.29 v -69.92 a 17.58,17.58 0 0 1 17.58,-17.58 z"
       style="fill:#e6e6e6"
       id="path1456" />
    <path
       d="m 266.82,313 h 16 a 10.45,10.45 0 0 1 10.45,10.45 v 57.82 h -36.9 V 323.45 A 10.45,10.45 0 0 1 266.82,313 Z"
       style="fill:#e0e0e0"
       id="path1458" />
    <path
       d="m 266.82,313 h 0.33 a 10.45,10.45 0 0 1 10.45,10.45 v 57.82 H 256.37 V 323.45 A 10.45,10.45 0 0 1 266.82,313 Z"
       style="fill:#ebebeb"
       id="path1460" />
    <rect
       x="282.07001"
       y="354.70999"
       width="122.88"
       height="26.559999"
       style="fill:#e6e6e6"
       id="rect1462" />
    <rect
       x="271.28"
       y="330.42001"
       width="139.75"
       height="27.870001"
       rx="10.62"
       style="fill:#f5f5f5"
       id="rect1464" />
    <rect
       x="374.89001"
       y="330.42001"
       width="35.950001"
       height="27.870001"
       rx="10.62"
       style="isolation:isolate;fill:#e0e0e0"
       id="rect1466" />
    <path
       d="m 401.79,313 h 16 a 10.45,10.45 0 0 1 10.45,10.45 v 57.82 h -36.9 V 323.45 A 10.45,10.45 0 0 1 401.79,313 Z"
       style="fill:#e0e0e0"
       id="path1468" />
    <path
       d="m 401.79,313 h 0.34 a 10.45,10.45 0 0 1 10.45,10.45 v 57.82 H 391.34 V 323.45 A 10.45,10.45 0 0 1 401.79,313 Z"
       style="fill:#f0f0f0"
       id="path1470" />
    <rect
       x="306.06"
       y="106.38"
       width="118.63"
       height="122.58"
       transform="rotate(180,365.38,167.67)"
       style="fill:#ebebeb"
       id="rect1472" />
    <rect
       x="301.92001"
       y="106.38"
       width="118.63"
       height="122.58"
       transform="rotate(180,361.235,167.67)"
       style="fill:#f0f0f0"
       id="rect1474" />
    <rect
       x="305.06"
       y="109.28"
       width="112.5"
       height="116.83"
       style="fill:#e0e0e0"
       id="rect1476" />
    <rect
       x="307.87"
       y="109.28"
       width="109.69"
       height="116.83"
       style="fill:#f5f5f5"
       id="rect1478" />
    <rect
       x="361.57999"
       y="109.28"
       width="2.23"
       height="116.83"
       transform="rotate(180,362.695,167.7)"
       style="fill:#ebebeb"
       id="rect1480" />
    <polygon
       points="317.54,226.11 314.54,226.11 345.8,109.28 348.8,109.28 "
       style="fill:#ffffff"
       id="polygon1482" />
    <rect
       x="360.63"
       y="107.48"
       width="1.91"
       height="120.87"
       transform="rotate(180,361.585,167.915)"
       style="fill:#f0f0f0"
       id="rect1484" />
    <polygon
       points="307.87,219.84 307.87,159.07 321.19,109.28 337.45,109.28 "
       style="fill:#ffffff"
       id="polygon1486" />
    <polygon
       points="417.56,131.1 392.13,226.11 389.13,226.11 417.56,119.88 "
       style="fill:#ffffff"
       id="polygon1488" />
    <polygon
       points="417.56,203.3 411.46,226.11 395.2,226.11 417.56,142.53 "
       style="fill:#ffffff"
       id="polygon1490" />
    <rect
       x="97.660004"
       y="113.36"
       width="71.830002"
       height="87.400002"
       transform="rotate(180,133.575,157.065)"
       style="fill:#e6e6e6"
       id="rect1492" />
    <polygon
       points="151.84,142.02 111.01,135.28 114.1,179.12 "
       style="fill:#e0e0e0"
       id="polygon1494" />
    <polygon
       points="152.8,141.87 124.38,148.85 122.32,170.62 150.93,170.32 "
       style="fill:#f0f0f0"
       id="polygon1496" />
    <circle
       cx="113.75"
       cy="130.28999"
       r="11.47"
       transform="rotate(-45,113.75786,130.28995)"
       style="fill:#fafafa"
       id="circle1498" />
    <path
       d="m 147.22,180.46 a 5.57,5.57 0 1 1 5.56,5.57 5.56,5.56 0 0 1 -5.56,-5.57 z"
       style="fill:#e0e0e0"
       id="path1500" />
    <polygon
       points="135.4,180.46 148.9,169.34 151.46,190.24 "
       style="fill:#f5f5f5"
       id="polygon1502" />
    <rect
       x="129.33"
       y="124.48"
       width="3.1600001"
       height="69.790001"
       style="fill:#e0e0e0"
       id="rect1504" />
    <rect
       x="158.66"
       y="124.48"
       width="4.0900002"
       height="66.699997"
       style="fill:#ebebeb"
       id="rect1506" />
    <rect
       x="104.87"
       y="170.62"
       width="20.879999"
       height="20.879999"
       style="fill:#ebebeb"
       id="rect1508" />
  </g>
  <g
     id="freepik--Shadow--inject-2"
     transform="translate(-35.591374,-86.77801)">
    <ellipse
       id="freepik--path--inject-2"
       cx="250"
       cy="416.23999"
       rx="193.89"
       ry="11.32"
       style="fill:#f5f5f5" />
  </g>
  <g
     id="freepik--Device--inject-2"
     transform="translate(-35.591374,-86.77801)">
    <path
       d="m 199.36,236 h 208.36 a 4.27,4.27 0 0 1 4.27,4.27 V 391 H 195.09 V 240.31 a 4.27,4.27 0 0 1 4.27,-4.31 z"
       style="fill:#263238"
       id="path1513" />
    <rect
       x="199.36"
       y="245.61"
       width="208.36"
       height="133.17"
       style="fill:#60a3ab"
       id="rect1515" />
    <circle
       cx="301.64001"
       cy="241.2"
       r="2.0799999"
       style="opacity:0.2;isolation:isolate;fill:#ffffff"
       id="circle1517" />
    <circle
       cx="305.95001"
       cy="241.2"
       r="1.5599999"
       style="opacity:0.2;isolation:isolate;fill:#ffffff"
       id="circle1519" />
    <path
       d="m 304.39,381.51 a 2.66,2.66 0 0 0 -0.85,-0.15 2.73,2.73 0 1 0 2.73,2.73 0.68,0.68 0 0 0 0,-0.15 2.72,2.72 0 0 1 -1.88,-2.43 z"
       style="opacity:0.2;isolation:isolate;fill:#ffffff"
       id="path1521" />
    <path
       d="m 428.16,388.88 v 2 a 2.9,2.9 0 0 1 -2.06,2.76 l -15.1,4.42 a 20.16,20.16 0 0 1 -5.78,0.84 H 201.88 a 20.14,20.14 0 0 1 -5.77,-0.84 L 181,393.6 a 2.9,2.9 0 0 1 -2.07,-2.76 v -2 z"
       style="fill:#263238"
       id="path1523" />
    <path
       d="m 428.16,388.88 v 2 a 2.9,2.9 0 0 1 -2.06,2.76 l -15.1,4.42 a 20.16,20.16 0 0 1 -5.78,0.84 H 201.88 a 20.14,20.14 0 0 1 -5.77,-0.84 L 181,393.6 a 2.9,2.9 0 0 1 -2.07,-2.76 v -2 z"
       style="opacity:0.2;isolation:isolate;fill:#ffffff"
       id="path1525" />
    <path
       d="m 428.16,388.88 v 2 a 2.85,2.85 0 0 1 -0.41,1.47 H 179.34 a 2.85,2.85 0 0 1 -0.41,-1.47 v -2 z"
       style="opacity:0.2;isolation:isolate;fill:#ffffff"
       id="path1527" />
    <path
       d="m 321.08,388.88 v 0.86 a 0.85,0.85 0 0 1 -0.85,0.85 h -33.36 a 0.85,0.85 0 0 1 -0.86,-0.85 v -0.86 z"
       style="opacity:0.2;isolation:isolate"
       id="path1529" />
    <path
       d="m 407.72,245.61 c 0,0 -28.81,114.39 -208.36,133.17 V 245.61 Z"
       style="opacity:0.1;isolation:isolate;fill:#ffffff"
       id="path1531" />
  </g>
  <g
     id="freepik--window-3--inject-2"
     transform="translate(-35.591374,-86.77801)">
    <path
       d="m 388,193.47 v 125.26 l -20.86,20.86 h -82.48 a 3.22,3.22 0 0 1 -3.21,-3.22 v -142.9 a 3.22,3.22 0 0 1 3.21,-3.22 h 100.1 a 3.22,3.22 0 0 1 3.24,3.22 z"
       style="fill:#60a3ab"
       id="path1534" />
    <path
       d="m 388,198.94 v 119.79 l -20.86,20.86 h -82.48 a 3.22,3.22 0 0 1 -3.21,-3.22 V 198.94 Z"
       style="opacity:0.6;isolation:isolate;fill:#ffffff"
       id="path1536" />
    <path
       d="m 385.2,194.23 a 1.56,1.56 0 1 1 -1.56,-1.55 1.55,1.55 0 0 1 1.56,1.55 z"
       style="opacity:0.6;isolation:isolate;fill:#ffffff"
       id="path1538" />
    <path
       d="m 379.26,194.23 a 1.55,1.55 0 1 1 -1.55,-1.55 1.54,1.54 0 0 1 1.55,1.55 z"
       style="opacity:0.6;isolation:isolate;fill:#ffffff"
       id="path1540" />
    <path
       d="m 373.33,194.23 a 1.56,1.56 0 1 1 -1.55,-1.55 1.55,1.55 0 0 1 1.55,1.55 z"
       style="opacity:0.6;isolation:isolate;fill:#ffffff"
       id="path1542" />
    <path
       d="m 346.2,208.59 h -57.1 a 1,1 0 0 1 0,-2 h 57.1 a 1,1 0 0 1 0,2 z"
       style="fill:#60a3ab"
       id="path1544" />
    <path
       d="m 330.06,214.06 h -41 a 1,1 0 0 1 0,-2 h 41 a 1,1 0 0 1 0,2 z"
       style="fill:#60a3ab"
       id="path1546" />
    <path
       d="m 374.33,298.52 h -73 a 1,1 0 1 1 0,-2 h 73 a 1,1 0 0 1 0,2 z"
       style="fill:#60a3ab"
       id="path1548" />
    <path
       d="m 362.12,320.37 h -73 a 1,1 0 0 1 0,-2 h 73 a 1,1 0 0 1 0,2 z"
       style="fill:#60a3ab"
       id="path1550" />
    <path
       d="M 374.33,304 H 289.1 a 1,1 0 0 1 0,-2 h 85.23 a 1,1 0 0 1 0,2 z"
       style="fill:#60a3ab"
       id="path1552" />
    <path
       d="M 374.33,309.45 H 289.1 a 1,1 0 0 1 0,-2 h 85.23 a 1,1 0 0 1 0,2 z"
       style="fill:#60a3ab"
       id="path1554" />
    <path
       d="M 374.33,314.91 H 289.1 a 1,1 0 0 1 0,-2 h 85.23 a 1,1 0 0 1 0,2 z"
       style="fill:#60a3ab"
       id="path1556" />
    <polygon
       points="367.12,339.59 367.12,318.73 387.98,318.73 "
       style="opacity:0.5;fill:#60a3ab"
       id="polygon1558" />
    <rect
       x="382.09"
       y="198.94"
       width="5.8899999"
       height="119.79"
       style="opacity:0.4;isolation:isolate"
       id="rect1560" />
    <path
       d="m 385,261.53 v 0 a 2.17,2.17 0 0 1 -2.17,-2.17 V 247.12 A 2.17,2.17 0 0 1 385,245 v 0 a 2.17,2.17 0 0 1 2.17,2.17 v 12.24 a 2.17,2.17 0 0 1 -2.17,2.12 z"
       style="fill:#60a3ab"
       id="path1562" />
    <path
       d="m 374.33,268.52 h -73 a 1,1 0 1 1 0,-2 h 73 a 1,1 0 0 1 0,2 z"
       style="fill:#60a3ab"
       id="path1564" />
    <path
       d="m 362.12,290.37 h -73 a 1,1 0 0 1 0,-2 h 73 a 1,1 0 0 1 0,2 z"
       style="fill:#60a3ab"
       id="path1566" />
    <path
       d="M 374.33,274 H 289.1 a 1,1 0 0 1 0,-2 h 85.23 a 1,1 0 0 1 0,2 z"
       style="fill:#60a3ab"
       id="path1568" />
    <path
       d="M 374.33,279.45 H 289.1 a 1,1 0 0 1 0,-2 h 85.23 a 1,1 0 0 1 0,2 z"
       style="fill:#60a3ab"
       id="path1570" />
    <path
       d="M 374.33,284.91 H 289.1 a 1,1 0 0 1 0,-2 h 85.23 a 1,1 0 0 1 0,2 z"
       style="fill:#60a3ab"
       id="path1572" />
    <rect
       x="288.84"
       y="220.57001"
       width="85.480003"
       height="31.9"
       style="fill:#60a3ab"
       id="rect1574" />
    <polygon
       points="337.99,239.49 342.69,239.49 342.69,234.81 354.95,234.81 354.95,231.32 357.72,231.32 357.72,225.22 358.71,225.22 358.71,234.81 360.27,234.81 363.8,231.28 367.12,231.28 367.12,228.09 368.8,228.09 368.8,231.32 370.97,231.32 370.97,244.54 373.33,244.54 373.33,237.94 374.33,238 374.33,220.57 288.84,220.57 288.84,247.35 291.17,247.35 291.17,241.55 293.85,241.55 293.85,230.1 297.59,230.1 297.59,237.15 302.73,237.15 302.73,246.52 308.86,246.52 308.86,239.99 313.93,239.99 317.28,236.63 317.28,228.86 319.33,228.86 319.33,239.99 324.49,239.99 324.49,243.95 329.83,243.95 329.83,223.75 331.31,222.27 331.31,227.81 334.72,227.81 334.72,230.3 337.99,233.58 "
       style="opacity:0.2;isolation:isolate"
       id="polygon1576" />
    <path
       d="m 374.33,257.52 h -23 a 1,1 0 1 1 0,-2 h 23 a 1,1 0 1 1 0,2 z"
       style="fill:#60a3ab"
       id="path1578" />
    <path
       d="M 322.7,190.25 V 293.77 L 307,309.51 h -25.55 v -116 a 3.22,3.22 0 0 1 3.21,-3.22 z"
       style="opacity:0.2;isolation:isolate"
       id="path1580" />
    <path
       d="m 385,261.53 v 0 a 2.17,2.17 0 0 1 -2.17,-2.17 V 247.12 A 2.17,2.17 0 0 1 385,245 v 0 a 2.17,2.17 0 0 1 2.17,2.17 v 12.24 a 2.17,2.17 0 0 1 -2.17,2.12 z"
       style="opacity:0.4;isolation:isolate;fill:#ffffff"
       id="path1582" />
  </g>
  <g
     id="freepik--window-1--inject-2"
     transform="translate(-35.591374,-86.77801)">
    <path
       d="m 261.74,209.08 v 125.26 l -20.86,20.86 h -82.46 a 3.22,3.22 0 0 1 -3.21,-3.22 v -142.9 a 3.22,3.22 0 0 1 3.21,-3.22 h 100.1 a 3.22,3.22 0 0 1 3.22,3.22 z"
       style="fill:#60a3ab"
       id="path1585" />
    <path
       d="m 261.74,214.56 v 119.79 l -20.86,20.86 h -82.46 a 3.22,3.22 0 0 1 -3.21,-3.22 V 214.56 Z"
       style="opacity:0.6;isolation:isolate;fill:#ffffff"
       id="path1587" />
    <path
       d="m 259,209.85 a 1.56,1.56 0 1 1 -1.56,-1.55 1.55,1.55 0 0 1 1.56,1.55 z"
       style="opacity:0.6;isolation:isolate;fill:#ffffff"
       id="path1589" />
    <path
       d="m 253,209.85 a 1.56,1.56 0 1 1 -1.55,-1.55 1.54,1.54 0 0 1 1.55,1.55 z"
       style="opacity:0.6;isolation:isolate;fill:#ffffff"
       id="path1591" />
    <path
       d="m 247.09,209.85 a 1.56,1.56 0 1 1 -1.56,-1.55 1.55,1.55 0 0 1 1.56,1.55 z"
       style="opacity:0.6;isolation:isolate;fill:#ffffff"
       id="path1593" />
    <path
       d="m 180.6,224.75 h -17.74 a 1,1 0 0 1 0,-2 h 17.74 a 1,1 0 1 1 0,2 z"
       style="fill:#60a3ab"
       id="path1595" />
    <path
       d="m 189,230.21 h -26.1 a 1,1 0 0 1 0,-2 H 189 a 1,1 0 0 1 0,2 z"
       style="fill:#60a3ab"
       id="path1597" />
    <path
       d="m 180.89,235.67 h -18 a 1,1 0 0 1 0,-2 h 18 a 1,1 0 0 1 0,2 z"
       style="fill:#60a3ab"
       id="path1599" />
    <path
       d="m 248.08,325.14 h -73 a 1,1 0 0 1 0,-2 h 73 a 1,1 0 1 1 0,2 z"
       style="fill:#60a3ab"
       id="path1601" />
    <path
       d="m 208.08,330.6 h -45.22 a 1,1 0 0 1 0,-2 h 45.22 a 1,1 0 1 1 0,2 z"
       style="fill:#60a3ab"
       id="path1603" />
    <polygon
       points="240.88,355.21 240.88,334.35 261.74,334.35 "
       style="opacity:0.5;fill:#60a3ab"
       id="polygon1605" />
    <rect
       x="255.85001"
       y="214.56"
       width="5.8899999"
       height="119.79"
       style="opacity:0.4;isolation:isolate"
       id="rect1607" />
    <path
       d="m 258.79,326.15 v 0 a 2.17,2.17 0 0 1 -2.17,-2.17 v -12.24 a 2.17,2.17 0 0 1 2.17,-2.17 v 0 a 2.17,2.17 0 0 1 2.17,2.17 V 324 a 2.17,2.17 0 0 1 -2.17,2.15 z"
       style="fill:#60a3ab"
       id="path1609" />
    <path
       d="m 248.08,224.75 h -13.73 a 1,1 0 0 1 0,-2 h 13.73 a 1,1 0 1 1 0,2 z"
       style="fill:#60a3ab"
       id="path1611" />
    <path
       d="M 248.08,230.21 H 241 a 1,1 0 0 1 0,-2 h 7.1 a 1,1 0 0 1 0,2 z"
       style="fill:#60a3ab"
       id="path1613" />
    <path
       d="m 248.08,250.14 h -73 a 1,1 0 0 1 0,-2 h 73 a 1,1 0 1 1 0,2 z"
       style="fill:#60a3ab"
       id="path1615" />
    <path
       d="m 248.08,255.6 h -85.22 a 1,1 0 0 1 0,-2 h 85.22 a 1,1 0 0 1 0,2 z"
       style="fill:#60a3ab"
       id="path1617" />
    <path
       d="m 198.08,261.06 h -35.22 a 1,1 0 0 1 0,-2 h 35.22 a 1,1 0 0 1 0,2 z"
       style="fill:#60a3ab"
       id="path1619" />
    <rect
       x="177"
       y="268.31"
       width="33.580002"
       height="9"
       style="opacity:0.7;fill:#60a3ab"
       id="rect1621" />
    <rect
       x="177"
       y="279.31"
       width="15.21"
       height="33.23"
       style="opacity:0.3;fill:#60a3ab"
       id="rect1623" />
    <rect
       x="212.57001"
       y="279.31"
       width="17.469999"
       height="33.23"
       style="opacity:0.3;fill:#60a3ab"
       id="rect1625" />
    <rect
       x="212.57001"
       y="268.31"
       width="35.509998"
       height="9"
       style="opacity:0.7;fill:#60a3ab"
       id="rect1627" />
    <rect
       x="232.05"
       y="279.31"
       width="16.040001"
       height="33.23"
       style="opacity:0.3;fill:#60a3ab"
       id="rect1629" />
    <rect
       x="162.86"
       y="279.31"
       width="12.14"
       height="33.23"
       style="opacity:0.5;fill:#60a3ab"
       id="rect1631" />
    <rect
       x="162.86"
       y="268.31"
       width="12.14"
       height="9"
       style="fill:#60a3ab"
       id="rect1633" />
    <rect
       x="194.21001"
       y="279.31"
       width="16.360001"
       height="33.23"
       style="opacity:0.3;fill:#60a3ab"
       id="rect1635" />
    <path
       d="m 258.79,326.15 v 0 a 2.17,2.17 0 0 1 -2.17,-2.17 v -12.24 a 2.17,2.17 0 0 1 2.17,-2.17 v 0 a 2.17,2.17 0 0 1 2.17,2.17 V 324 a 2.17,2.17 0 0 1 -2.17,2.15 z"
       style="opacity:0.4;isolation:isolate;fill:#ffffff"
       id="path1637" />
    <path
       d="m 261.74,209.08 v 104.2 h -60.33 a 3.22,3.22 0 0 1 -3.21,-3.22 v -104.2 h 60.32 a 3.22,3.22 0 0 1 3.22,3.22 z"
       style="opacity:0.2;isolation:isolate"
       id="path1639" />
  </g>
  <g
     id="freepik--window-2--inject-2"
     transform="translate(-35.591374,-86.77801)">
    <path
       d="m 314.71,152.3 v 125.26 l -20.86,20.86 h -82.46 a 3.22,3.22 0 0 1 -3.21,-3.22 V 152.3 a 3.22,3.22 0 0 1 3.21,-3.22 h 100.1 a 3.22,3.22 0 0 1 3.22,3.22 z"
       style="fill:#60a3ab"
       id="path1642" />
    <path
       d="m 314.71,157.77 v 119.79 l -20.86,20.86 h -82.46 a 3.22,3.22 0 0 1 -3.21,-3.22 V 157.77 Z"
       style="opacity:0.6;isolation:isolate;fill:#ffffff"
       id="path1644" />
    <circle
       cx="310.37"
       cy="153.06"
       r="1.55"
       style="opacity:0.6;isolation:isolate;fill:#ffffff"
       id="circle1646" />
    <circle
       cx="304.42999"
       cy="153.06"
       r="1.55"
       style="opacity:0.6;isolation:isolate;fill:#ffffff"
       id="circle1648" />
    <path
       d="m 300.05,153.06 a 1.56,1.56 0 1 1 -1.55,-1.55 1.54,1.54 0 0 1 1.55,1.55 z"
       style="opacity:0.6;isolation:isolate;fill:#ffffff"
       id="path1650" />
    <path
       d="m 268.62,168 h -20.37 a 1,1 0 0 1 0,-2 h 20.37 a 1,1 0 0 1 0,2 z"
       style="fill:#60a3ab"
       id="path1652" />
    <path
       d="m 277,173.42 h -37.1 a 1,1 0 0 1 0,-2 H 277 a 1,1 0 0 1 0,2 z"
       style="fill:#60a3ab"
       id="path1654" />
    <path
       d="M 268.92,178.89 H 248 a 1,1 0 0 1 0,-2 h 21 a 1,1 0 0 1 0,2 z"
       style="fill:#60a3ab"
       id="path1656" />
    <path
       d="M 301.05,193.35 H 228 a 1,1 0 0 1 0,-2 h 73 a 1,1 0 0 1 0,2 z"
       style="fill:#60a3ab"
       id="path1658" />
    <path
       d="m 288.84,215.2 h -73 a 1,1 0 0 1 0,-2 h 73 a 1,1 0 0 1 0,2 z"
       style="fill:#60a3ab"
       id="path1660" />
    <path
       d="m 301.05,198.81 h -85.23 a 1,1 0 0 1 0,-2 h 85.23 a 1,1 0 0 1 0,2 z"
       style="fill:#60a3ab"
       id="path1662" />
    <path
       d="m 301.05,204.28 h -85.23 a 1,1 0 0 1 0,-2 h 85.23 a 1,1 0 0 1 0,2 z"
       style="fill:#60a3ab"
       id="path1664" />
    <path
       d="m 301.05,209.74 h -85.23 a 1,1 0 0 1 0,-2 h 85.23 a 1,1 0 0 1 0,2 z"
       style="fill:#60a3ab"
       id="path1666" />
    <path
       d="M 301.05,248.35 H 228 a 1,1 0 0 1 0,-2 h 73 a 1,1 0 0 1 0,2 z"
       style="fill:#60a3ab"
       id="path1668" />
    <path
       d="m 288.84,270.2 h -73 a 1,1 0 0 1 0,-2 h 73 a 1,1 0 0 1 0,2 z"
       style="fill:#60a3ab"
       id="path1670" />
    <path
       d="m 301.05,253.81 h -85.23 a 1,1 0 0 1 0,-2 h 85.23 a 1,1 0 0 1 0,2 z"
       style="fill:#60a3ab"
       id="path1672" />
    <path
       d="m 301.05,259.28 h -85.23 a 1,1 0 0 1 0,-2 h 85.23 a 1,1 0 0 1 0,2 z"
       style="fill:#60a3ab"
       id="path1674" />
    <path
       d="m 301.05,264.74 h -85.23 a 1,1 0 0 1 0,-2 h 85.23 a 1,1 0 0 1 0,2 z"
       style="fill:#60a3ab"
       id="path1676" />
    <rect
       x="290.82001"
       y="165.75999"
       width="10.23"
       height="13.62"
       style="fill:#60a3ab"
       id="rect1678" />
    <circle
       cx="221.5"
       cy="171.42999"
       r="5.6700001"
       style="fill:#60a3ab"
       id="circle1680" />
    <path
       d="m 215.5,222.35 a 1.2,1.2 0 0 0 2.39,0 1.2,1.2 0 1 0 -2.39,0 z"
       style="fill:#60a3ab"
       id="path1682" />
    <path
       d="m 215.5,227.81 a 1.2,1.2 0 1 0 1.19,-1.19 1.19,1.19 0 0 0 -1.19,1.19 z"
       style="fill:#60a3ab"
       id="path1684" />
    <path
       d="m 215.5,233.28 a 1.2,1.2 0 0 0 2.39,0 1.2,1.2 0 1 0 -2.39,0 z"
       style="fill:#60a3ab"
       id="path1686" />
    <path
       d="m 215.5,238.74 a 1.2,1.2 0 0 0 2.39,0 1.2,1.2 0 1 0 -2.39,0 z"
       style="fill:#60a3ab"
       id="path1688" />
    <path
       d="m 233.84,223.35 h -13 a 1,1 0 0 1 0,-2 h 13 a 1,1 0 0 1 0,2 z"
       style="fill:#60a3ab"
       id="path1690" />
    <path
       d="m 246.05,228.81 h -25.23 a 1,1 0 0 1 0,-2 h 25.23 a 1,1 0 0 1 0,2 z"
       style="fill:#60a3ab"
       id="path1692" />
    <path
       d="m 231.05,234.28 h -10.23 a 1,1 0 0 1 0,-2 h 10.23 a 1,1 0 0 1 0,2 z"
       style="fill:#60a3ab"
       id="path1694" />
    <path
       d="m 242.05,239.74 h -21.23 a 1,1 0 0 1 0,-2 h 21.23 a 1,1 0 0 1 0,2 z"
       style="fill:#60a3ab"
       id="path1696" />
    <polygon
       points="293.85,298.42 293.85,277.56 314.71,277.56 "
       style="opacity:0.5;fill:#60a3ab"
       id="polygon1698" />
    <polygon
       points="290.82,179.38 301.05,179.38 301.05,165.76 "
       style="opacity:0.2;isolation:isolate"
       id="polygon1700" />
    <rect
       x="218.17999"
       y="168.12"
       width="6.6300001"
       height="6.6300001"
       style="opacity:0.2;isolation:isolate"
       id="rect1702" />
    <rect
       x="308.81"
       y="157.77"
       width="5.8899999"
       height="119.79"
       style="opacity:0.4;isolation:isolate"
       id="rect1704" />
    <path
       d="m 311.76,180.36 v 0 a 2.17,2.17 0 0 1 -2.17,-2.17 V 166 a 2.17,2.17 0 0 1 2.17,-2.17 v 0 a 2.17,2.17 0 0 1 2.17,2.17 v 12.24 a 2.17,2.17 0 0 1 -2.17,2.12 z"
       style="fill:#60a3ab"
       id="path1706" />
    <path
       d="m 311.76,180.36 v 0 a 2.17,2.17 0 0 1 -2.17,-2.17 V 166 a 2.17,2.17 0 0 1 2.17,-2.17 v 0 a 2.17,2.17 0 0 1 2.17,2.17 v 12.24 a 2.17,2.17 0 0 1 -2.17,2.12 z"
       style="opacity:0.4;isolation:isolate;fill:#ffffff"
       id="path1708" />
  </g>
  <g
     id="freepik--speech-bubble--inject-2"
     transform="translate(-35.591374,-86.77801)">
    <path
       d="m 83.83,208.93 h 34.92 a 5.07,5.07 0 0 1 5.06,5.07 v 33.94 a 5.06,5.06 0 0 1 -5.06,5.06 h -14.18 l 1.53,10.23 -7,-10.23 H 83.83 a 5.05,5.05 0 0 1 -5.06,-5.06 V 214 a 5.06,5.06 0 0 1 5.06,-5.07 z"
       style="fill:#60a3ab"
       id="path1711" />
    <path
       d="m 83.83,208.93 h 34.92 a 5.07,5.07 0 0 1 5.06,5.07 v 33.94 a 5.06,5.06 0 0 1 -5.06,5.06 h -14.18 l 1.53,10.23 -7,-10.23 H 83.83 a 5.05,5.05 0 0 1 -5.06,-5.06 V 214 a 5.06,5.06 0 0 1 5.06,-5.07 z"
       style="opacity:0.6;isolation:isolate;fill:#ffffff"
       id="path1713" />
    <path
       d="m 98.41,223.91 v 2.71 l 1.4,0.13 a 7.08,7.08 0 0 0 1,2.5 l -0.89,1.08 1.91,1.91 1.09,-0.89 a 7.2,7.2 0 0 0 2.5,1 l 0.13,1.39 h 2.7 l 0.14,-1.39 a 7.37,7.37 0 0 0 2.5,-1 l 1.08,0.89 1.91,-1.91 -0.89,-1.08 a 7.28,7.28 0 0 0 1,-2.5 l 1.39,-0.13 v -2.71 l -1.39,-0.13 a 7.28,7.28 0 0 0 -1,-2.5 l 0.89,-1.08 -1.88,-1.92 -1.08,0.9 a 7.37,7.37 0 0 0 -2.5,-1 l -0.14,-1.4 h -2.7 l -0.13,1.4 a 7.2,7.2 0 0 0 -2.5,1 l -1.09,-0.9 -1.86,1.92 0.89,1.08 a 7.08,7.08 0 0 0 -1,2.5 z m 8.52,-2.31 a 3.67,3.67 0 1 1 -3.66,3.66 3.67,3.67 0 0 1 3.66,-3.66 z"
       style="fill:#f5f5f5"
       id="path1715" />
    <path
       d="m 100.16,243.66 a 5.85,5.85 0 0 0 2,-0.81 l 0.85,0.7 1.5,-1.5 -0.7,-0.85 a 5.85,5.85 0 0 0 0.81,-2 l 1.09,-0.1 V 237 l -1.09,-0.1 a 5.68,5.68 0 0 0 -0.81,-2 l 0.7,-0.85 -1.5,-1.5 -0.85,0.7 a 5.47,5.47 0 0 0 -2,-0.81 l -0.1,-1.1 h -2.12 l -0.11,1.1 a 5.47,5.47 0 0 0 -2,0.81 l -0.84,-0.7 -1.5,1.5 0.7,0.85 a 5.51,5.51 0 0 0 -0.82,2 l -1.09,0.1 v 2.12 l 1.09,0.1 a 5.67,5.67 0 0 0 0.82,2 l -0.7,0.85 1.5,1.5 0.84,-0.7 a 5.85,5.85 0 0 0 2,0.81 l 0.11,1.09 h 2.12 z m -4,-5.58 A 2.88,2.88 0 1 1 99,241 2.87,2.87 0 0 1 96.12,238.08 Z"
       style="fill:#f5f5f5"
       id="path1717" />
    <path
       d="m 94.64,231.7 0.59,0.71 1.47,-1 -0.45,-0.81 a 4.6,4.6 0 0 0 1,-1.49 l 0.92,0.09 0.33,-1.75 -0.89,-0.26 a 4.83,4.83 0 0 0 -0.36,-1.74 l 0.71,-0.59 -1,-1.47 -0.81,0.44 a 4.57,4.57 0 0 0 -1.49,-1 l 0.09,-0.92 -1.75,-0.31 -0.26,0.88 A 4.63,4.63 0 0 0 91,222.85 l -0.59,-0.71 -1.47,1 0.44,0.81 a 4.79,4.79 0 0 0 -1,1.49 l -0.92,-0.08 -0.33,1.75 0.88,0.25 a 4.73,4.73 0 0 0 0.37,1.75 l -0.71,0.59 1,1.47 0.81,-0.45 a 4.82,4.82 0 0 0 1.49,1 l -0.08,0.92 1.75,0.33 0.25,-0.89 a 4.93,4.93 0 0 0 1.75,-0.38 z m -4.21,-4.87 a 2.4114156,2.4114156 0 1 1 4.74,0.89 2.4114156,2.4114156 0 0 1 -4.74,-0.89 z"
       style="fill:#f5f5f5"
       id="path1719" />
  </g>
  <g
     id="freepik--Character--inject-2"
     transform="translate(-35.591374,-86.77801)">
    <path
       d="m 141.36,333.12 c 0,0 2.46,22.14 3.26,24.78 0.8,2.64 12.07,16.74 12.07,16.74 l -3.19,1.67 c 0,0 -12,-12.34 -13.91,-16 -1.91,-3.66 -4.77,-22.76 -4.77,-22.76 z"
       style="fill:#ebb376"
       id="path1722" />
    <path
       d="m 139.11,323.26 c 4.15,2.2 5.51,32.93 5.51,32.93 l 2.1,3.23 -6.38,4.58 a 57.34,57.34 0 0 1 -4,-7.92 c -1.27,-3.42 -4.28,-20.3 -4.28,-20.3 z"
       style="fill:#263238"
       id="path1724" />
    <path
       d="m 139.11,323.26 c 4.15,2.2 5.51,32.93 5.51,32.93 l 2.1,3.23 -6.38,4.58 a 57.34,57.34 0 0 1 -4,-7.92 c -1.27,-3.42 -4.28,-20.3 -4.28,-20.3 z"
       style="opacity:0.1;isolation:isolate;fill:#ffffff"
       id="path1726" />
    <polygon
       points="146.72,358.17 148.29,361.46 141.54,366.27 139.4,363.97 "
       style="fill:#60a3ab"
       id="polygon1728" />
    <polygon
       points="146.72,358.17 148.29,361.46 141.54,366.27 139.4,363.97 "
       style="opacity:0.4;isolation:isolate;fill:#ffffff"
       id="polygon1730" />
    <path
       d="m 122.75,362.88 7.48,11.83 c 14.83,-3.45 62.36,-10.7 68.19,5.61 7.26,20.26 -45.17,36.42 -74.18,37.41 -29.01,0.99 -52.3,-15.53 -33.95,-57.83 z"
       style="fill:#60a3ab"
       id="path1732" />
    <path
       d="m 122.75,362.88 7.48,11.83 c 14.83,-3.45 62.36,-10.7 68.19,5.61 7.26,20.26 -45.17,36.42 -74.18,37.41 -29.01,0.99 -52.3,-15.53 -33.95,-57.83 z"
       style="opacity:0.2;isolation:isolate"
       id="path1734" />
    <path
       d="m 190,409 a 0.2,0.2 0 0 1 -0.21,0 0.15,0.15 0 0 1 -0.05,-0.18 c 0.09,-0.33 1.05,-3.12 2,-3.41 a 0.6,0.6 0 0 1 0.58,0.17 1,1 0 0 1 0.35,0.94 2.63,2.63 0 0 1 -0.91,1.31 A 11.21,11.21 0 0 1 190,409 Z m 0.25,-0.54 a 4.18,4.18 0 0 0 2.07,-2 0.64,0.64 0 0 0 -0.25,-0.64 0.22,0.22 0 0 0 -0.23,-0.07 1,1 0 0 0 -0.22,0.13 8.17,8.17 0 0 0 -1.35,2.55 z"
       style="fill:#60a3ab"
       id="path1736" />
    <path
       d="m 190,409 a 0.14,0.14 0 0 1 -0.18,-0.05 c -0.09,-0.08 -1.43,-1.77 -1.21,-2.91 a 1.06,1.06 0 0 1 0.46,-0.7 0.62,0.62 0 0 1 0.77,-0.07 c 0.71,0.49 0.62,2.76 0.28,3.61 v 0.09 z m -0.76,-3.31 a 0.71,0.71 0 0 0 -0.23,0.4 3.93,3.93 0 0 0 0.89,2.33 c 0.22,-1 0.15,-2.55 -0.26,-2.84 0,0 -0.13,-0.09 -0.34,0.06 z"
       style="fill:#60a3ab"
       id="path1738" />
    <path
       d="m 139,413.72 a 0.18,0.18 0 0 1 0.19,-0.09 0.15,0.15 0 0 1 0.13,0.13 c 0.07,0.33 0.58,3.24 -0.13,4 a 0.56,0.56 0 0 1 -0.58,0.13 1,1 0 0 1 -0.76,-0.65 2.59,2.59 0 0 1 0.16,-1.58 11.05,11.05 0 0 1 0.99,-1.94 z m 0,0.59 a 4.18,4.18 0 0 0 -0.85,2.74 0.64,0.64 0 0 0 0.53,0.44 0.19,0.19 0 0 0 0.23,-0.05 0.61,0.61 0 0 0 0.13,-0.22 8.13,8.13 0 0 0 0.02,-2.91 z"
       style="fill:#60a3ab"
       id="path1740" />
    <polygon
       points="146.07,403.29 140.34,405.33 141.81,411.61 147.36,410.42 160.92,407.53 158.01,399.04 "
       style="fill:#ebb376"
       id="polygon1742" />
    <path
       d="m 143.37,411.9 -1,-7.4 a 0.74,0.74 0 0 0 -0.86,-0.63 l -3.65,0.61 c 0,0 -5,0.47 -6,1.74 -2.89,3.73 -1.09,20.15 0.84,20.73 0.7,0.21 1.44,-0.75 1.75,-1.42 1,-2.12 2.69,-7.65 3.52,-9.41 1,-2.05 3.64,-3.05 4.84,-3.41 a 0.74,0.74 0 0 0 0.56,-0.81 z"
       style="fill:#263238"
       id="path1744" />
    <path
       d="m 139.05,413.66 a 0.17,0.17 0 0 1 0.18,0 c 0.12,0 2.11,0.86 2.47,2 a 1.11,1.11 0 0 1 -0.07,0.84 0.63,0.63 0 0 1 -0.64,0.44 c -0.85,-0.09 -1.88,-2.12 -2,-3 v -0.09 a 0.18,0.18 0 0 1 0.06,-0.19 z m 2.27,2.54 a 0.76,0.76 0 0 0 0,-0.47 c -0.23,-0.7 -1.34,-1.32 -1.91,-1.6 0.28,0.95 1.11,2.31 1.61,2.36 0,0 0.15,0 0.26,-0.21 v -0.08 z"
       style="fill:#60a3ab"
       id="path1746" />
    <polygon
       points="146.07,403.29 147.36,410.42 160.92,407.53 158.01,399.04 "
       style="opacity:0.2;isolation:isolate"
       id="polygon1748" />
    <polygon
       points="152.91,411.74 150.61,399.93 146.72,402.09 149.47,411.5 "
       style="fill:#60a3ab"
       id="polygon1750" />
    <polygon
       points="152.91,411.74 150.61,399.93 146.72,402.09 149.47,411.5 "
       style="opacity:0.6;isolation:isolate;fill:#ffffff"
       id="polygon1752" />
    <path
       d="m 99.68,365.6 17.88,19.83 c 0,0 19.77,-0.44 43.77,11.29 0,0 25.75,-10.64 28.12,-19.48 3.1,-11.58 -59.22,-2.53 -59.22,-2.53 z"
       style="opacity:0.2;isolation:isolate"
       id="path1754" />
    <path
       d="m 183.54,379.6 v 2.94 c 0,0.75 -0.89,1.06 -1.63,1.06 H 123.2 c -0.75,0 -1.66,-0.31 -1.66,-1.06 v -2.94 z"
       style="fill:#263238"
       id="path1756" />
    <path
       d="m 183.54,379.6 v 2.94 c 0,0.75 -0.89,1.06 -1.63,1.06 H 123.2 c -0.75,0 -1.66,-0.31 -1.66,-1.06 v -2.94 z"
       style="opacity:0.4;isolation:isolate;fill:#ffffff"
       id="path1758" />
    <path
       d="m 183.54,379.6 v 2.94 c 0,0.75 -0.89,1.06 -1.63,1.06 h -38.72 c -0.75,0 -1.65,-0.31 -1.65,-1.06 v -2.94 z"
       style="opacity:0.2;isolation:isolate"
       id="path1760" />
    <path
       d="m 193.36,349.1 -7,31.7 a 2.39,2.39 0 0 1 -2.27,1.8 h -38.16 a 1.53,1.53 0 0 1 -1.43,-2 l 7,-31.46 a 2.17,2.17 0 0 1 2.26,-1.55 h 38.18 c 1.06,0.01 1.65,0.48 1.42,1.51 z"
       style="fill:#263238"
       id="path1762" />
    <path
       d="m 193.36,349.1 -7,31.7 a 2.39,2.39 0 0 1 -2.27,1.8 h -36.86 a 1.55,1.55 0 0 1 -1.45,-2 l 7,-31.46 A 2.19,2.19 0 0 1 155,347.6 h 36.88 c 1.12,0 1.71,0.47 1.48,1.5 z"
       style="opacity:0.4;isolation:isolate;fill:#ffffff"
       id="path1764" />
    <path
       d="m 174.54,365.21 v 0 c 0,2.72 -2.91,4.92 -5,4.92 -2.09,0 -3.4,-2.2 -2.79,-4.92 0.61,-2.72 2.73,-4.83 4.82,-4.91 -0.61,2.72 0.69,4.91 2.82,4.91 a 1,1 0 0 0 0.15,0 z"
       style="opacity:0.2;isolation:isolate"
       id="path1766" />
    <polygon
       points="178.8,414.68 184.8,415.67 186.55,409.47 181.12,407.81 167.86,403.78 166.3,412.62 "
       style="fill:#ebb376"
       id="polygon1768" />
    <path
       d="m 185.33,408.45 -2.7,7 a 0.73,0.73 0 0 0 0.44,1 l 3.49,1.23 c 0,0 4.57,2 6.05,1.36 4.33,-1.86 10.7,-17.11 9.3,-18.54 -0.51,-0.53 -1.63,0 -2.22,0.39 -1.88,1.38 -6.06,5.4 -7.63,6.53 -1.85,1.32 -4.67,0.91 -5.89,0.65 a 0.72,0.72 0 0 0 -0.84,0.38 z"
       style="fill:#263238"
       id="path1770" />
    <polygon
       points="178.8,414.68 181.12,407.81 167.86,403.78 166.3,412.62 "
       style="opacity:0.2;isolation:isolate"
       id="polygon1772" />
    <path
       d="m 179,406.52 c 0,0 -51,-28.66 -68.56,-27.84 -17.56,0.82 -20.13,16.32 -12.87,26 7.26,9.68 20.66,12.06 20.66,12.06 0,0 -9.13,-12.89 -7.81,-16.52 1.32,-3.63 6.48,1.44 6.48,1.44 0,0 32.04,10.34 60.1,12.76 z"
       style="fill:#60a3ab"
       id="path1774" />
    <polygon
       points="176.91,403.79 173.2,415.18 177.65,415.18 179.79,405.73 "
       style="fill:#60a3ab"
       id="polygon1776" />
    <polygon
       points="176.91,403.79 173.2,415.18 177.65,415.18 179.79,405.73 "
       style="opacity:0.6;isolation:isolate;fill:#ffffff"
       id="polygon1778" />
    <path
       d="m 90.29,359.9 32.47,3 c 0,0 5.09,-10.54 9,-14.65 3.91,-4.11 7.36,-25 7.36,-25 a 69.34,69.34 0 0 0 -8.14,-3.32 80.68,80.68 0 0 0 -24.84,-4.18 H 106 c -2.42,0 -3.82,0.12 -3.82,0.12 a 6.9,6.9 0 0 0 -2.31,2.63 c -3.48,6 -6.25,20 -7.89,30.05 -1.11,6.5 -1.69,11.35 -1.69,11.35 z"
       style="fill:#263238"
       id="path1780" />
    <path
       d="m 91.93,348.56 c 7.16,-3.28 16.93,-8.83 16.42,-14.46 -0.55,-6.18 -5.56,-12.4 -8.53,-15.59 -3.48,6 -6.25,20 -7.89,30.05 z"
       style="opacity:0.2;isolation:isolate"
       id="path1782" />
    <path
       d="m 107.72,315.79 c 0,0 3.7,12.18 13.82,13.5 10.12,1.32 11.8,-8.5 11.8,-8.5 0,0 -13.03,-7.15 -25.62,-5 z"
       style="fill:#263238"
       id="path1784" />
    <path
       d="m 107.72,315.79 c 0,0 3.7,12.18 13.82,13.5 10.12,1.32 11.8,-8.5 11.8,-8.5 0,0 -13.03,-7.15 -25.62,-5 z"
       style="opacity:0.1;isolation:isolate;fill:#ffffff"
       id="path1786" />
    <path
       d="m 109.84,316.13 c 0,0 4.77,11.28 13.37,11.28 8.6,0 8.87,-6.33 8.87,-6.33 0,0 -8.6,-5.64 -22.24,-4.95 z"
       style="fill:#60a3ab"
       id="path1788" />
    <path
       d="m 109.84,316.13 c 0,0 4.77,11.28 13.37,11.28 8.6,0 8.87,-6.33 8.87,-6.33 0,0 -8.6,-5.64 -22.24,-4.95 z"
       style="opacity:0.4;isolation:isolate;fill:#ffffff"
       id="path1790" />
    <path
       d="m 125.41,317.89 c 0.06,2 1.21,2.5 1.21,2.5 a 4.1,4.1 0 0 1 -4.45,4.73 c -6.37,-0.65 -8.38,-8.32 -8.38,-8.32 4.63,-1.84 5.67,-6.95 5.87,-10 a 16.8,16.8 0 0 0 0,-2.38 l 8.66,5.45 a 30.32,30.32 0 0 0 -1.93,3.79 10.84,10.84 0 0 0 -0.98,4.23 z"
       style="fill:#ebb376"
       id="path1792" />
    <path
       d="m 127.79,309.2 a 31.44,31.44 0 0 0 -1.54,4 10.74,10.74 0 0 0 -0.54,4.29 c -4.87,0.38 -6.81,-10.37 -6.81,-10.37 v -0.07 a 16.26,16.26 0 0 0 -0.24,-2.37 z"
       style="opacity:0.2;isolation:isolate"
       id="path1794" />
    <path
       d="m 133.33,285.18 c 0,0 6.36,-7.32 -1.25,-13.45 -7.61,-6.13 -22.64,-3.37 -25.41,10.48 -2.77,13.85 1,19.7 1,19.7 0,0 0,-8.82 2.54,-11.39 0,0 -0.76,4.22 0,6.75 0.76,2.53 0,0.93 0,0.93 0,0 2.34,-11.05 13.62,-7.88 11.28,3.17 9.5,-5.14 9.5,-5.14 z"
       style="fill:#263238"
       id="path1796" />
    <path
       d="m 134.85,287.56 c 8.38,2.56 9.71,7.86 7.69,16.68 -2.52,11 -7.25,18 -17,12.46 -13.3,-7.47 -4.6,-33.38 9.31,-29.14 z"
       style="fill:#ebb376"
       id="path1798" />
    <path
       d="m 137.27,302.12 a 18.47,18.47 0 0 0 1.37,4.22 2.4,2.4 0 0 1 -2.49,0.28 z"
       style="fill:#d58745"
       id="path1800" />
    <path
       d="m 132.35,299.88 c -0.2,0.69 -0.73,1.15 -1.19,1 -0.46,-0.15 -0.68,-0.8 -0.49,-1.49 0.19,-0.69 0.73,-1.15 1.19,-1 0.46,0.15 0.68,0.79 0.49,1.49 z"
       style="fill:#263238"
       id="path1802" />
    <path
       d="m 131.66,298.37 1.67,-0.17 c 0,0 -1.1,1.06 -1.67,0.17 z"
       style="fill:#263238"
       id="path1804" />
    <path
       d="m 141,302.14 c -0.19,0.69 -0.72,1.15 -1.18,1 -0.46,-0.15 -0.68,-0.8 -0.49,-1.49 0.19,-0.69 0.73,-1.15 1.19,-1 0.46,0.15 0.68,0.8 0.48,1.49 z"
       style="fill:#263238"
       id="path1806" />
    <path
       d="m 140.32,300.63 1.67,-0.17 c 0,0 -1.11,1.06 -1.67,0.17 z"
       style="fill:#263238"
       id="path1808" />
    <path
       d="m 130,294.59 a 0.37,0.37 0 0 1 -0.2,-0.67 4.85,4.85 0 0 1 4.37,-0.18 0.36,0.36 0 0 1 0.18,0.47 0.36,0.36 0 0 1 -0.48,0.19 4.22,4.22 0 0 0 -3.67,0.12 0.31,0.31 0 0 1 -0.2,0.07 z"
       style="fill:#263238"
       id="path1810" />
    <path
       d="m 143.35,297.64 a 0.39,0.39 0 0 1 -0.28,-0.13 3.69,3.69 0 0 0 -2.83,-1.58 0.37,0.37 0 0 1 -0.38,-0.34 0.36,0.36 0 0 1 0.34,-0.38 4.36,4.36 0 0 1 3.43,1.83 0.37,0.37 0 0 1 0,0.52 0.38,0.38 0 0 1 -0.28,0.08 z"
       style="fill:#263238"
       id="path1812" />
    <path
       d="m 121.39,298.89 c 0,0 6,-5.69 7,-11.18 0,0 18.67,-1.72 14.35,15.38 0,0 6.19,-14.47 -8.11,-19.19 -14.3,-4.72 -20.63,16.36 -15.1,24.9 0,0 -1.87,-6.35 1.86,-9.91 z"
       style="fill:#263238"
       id="path1814" />
    <path
       d="m 134.22,310.39 v 0 a 4.64,4.64 0 0 1 -4.63,-3.93 0.38,0.38 0 0 1 0.32,-0.41 0.37,0.37 0 0 1 0.4,0.32 3.87,3.87 0 0 0 3.93,3.3 0.36,0.36 0 0 1 0,0.72 z"
       style="fill:#263238"
       id="path1816" />
    <path
       d="m 119.94,297.21 a 0.25,0.25 0 0 0 0.13,0.28 h 0.06 l 8.53,2 a 3.7,3.7 0 0 0 2.15,4 4.46,4.46 0 0 0 5.72,-1.55 3.15,3.15 0 0 0 0.26,-0.56 1.46,1.46 0 0 1 1.1,-0.32 0.79,0.79 0 0 1 0.44,0.51 3.72,3.72 0 0 0 2.16,3.93 4.47,4.47 0 0 0 5.72,-1.56 3.63,3.63 0 0 0 -1.72,-5.16 4.46,4.46 0 0 0 -5.72,1.55 3.15,3.15 0 0 0 -0.26,0.56 1.15,1.15 0 0 0 -0.43,-0.28 1.59,1.59 0 0 0 -1.11,0.12 3.71,3.71 0 0 0 -2.16,-4 4.46,4.46 0 0 0 -5.72,1.55 3.73,3.73 0 0 0 -0.33,0.74 l -8.49,-2 a 0.27,0.27 0 0 0 -0.33,0.19 z m 19.3,3.31 a 3.91,3.91 0 0 1 5,-1.36 3.18,3.18 0 0 1 1.5,4.52 3.9,3.9 0 0 1 -5,1.35 3.17,3.17 0 0 1 -1.5,-4.51 z m -9.68,-2 a 3.91,3.91 0 0 1 5,-1.36 3.18,3.18 0 0 1 1.5,4.52 3.9,3.9 0 0 1 -5,1.36 3.19,3.19 0 0 1 -1.5,-4.53 z"
       style="fill:#263238"
       id="path1818" />
    <g
       style="opacity:0.3;isolation:isolate"
       id="g1822">
      <path
         d="m 119.94,297.21 a 0.25,0.25 0 0 0 0.13,0.28 h 0.06 l 8.53,2 a 3.7,3.7 0 0 0 2.15,4 4.46,4.46 0 0 0 5.72,-1.55 3.15,3.15 0 0 0 0.26,-0.56 1.46,1.46 0 0 1 1.1,-0.32 0.79,0.79 0 0 1 0.44,0.51 3.72,3.72 0 0 0 2.16,3.93 4.47,4.47 0 0 0 5.72,-1.56 3.63,3.63 0 0 0 -1.72,-5.16 4.46,4.46 0 0 0 -5.72,1.55 3.15,3.15 0 0 0 -0.26,0.56 1.15,1.15 0 0 0 -0.43,-0.28 1.59,1.59 0 0 0 -1.11,0.12 3.71,3.71 0 0 0 -2.16,-4 4.46,4.46 0 0 0 -5.72,1.55 3.73,3.73 0 0 0 -0.33,0.74 l -8.49,-2 a 0.27,0.27 0 0 0 -0.33,0.19 z m 19.3,3.31 a 3.91,3.91 0 0 1 5,-1.36 3.18,3.18 0 0 1 1.5,4.52 3.9,3.9 0 0 1 -5,1.35 3.17,3.17 0 0 1 -1.5,-4.51 z m -9.68,-2 a 3.91,3.91 0 0 1 5,-1.36 3.18,3.18 0 0 1 1.5,4.52 3.9,3.9 0 0 1 -5,1.36 3.19,3.19 0 0 1 -1.5,-4.53 z"
         style="fill:#ffffff"
         id="path1820" />
    </g>
    <path
       d="m 122.22,301.07 a 3.84,3.84 0 0 0 -2.93,-4.56 c -2.68,-0.51 -5.55,4.44 0.52,7.69 0.87,0.47 1.67,-0.28 2.41,-3.13 z"
       style="fill:#ebb376"
       id="path1824" />
    <path
       d="m 106,326.82 c 0,0 1,21.38 2.81,26.18 1.81,4.8 20.69,22.48 20.69,22.48 0,0 5.27,-1.17 6.14,-0.83 0.87,0.34 5.9,5 5.9,5 H 127 l -1.27,-2.24 c 0,0 -19.54,-14.48 -21.69,-17.93 -1.59,-2.55 -6.7,-28.52 -6.7,-28.52 z"
       style="fill:#ebb376"
       id="path1826" />
    <path
       d="m 102.13,315.88 c 3.39,-1.76 5,3.91 7.07,15.38 a 120.63,120.63 0 0 1 1.69,21.95 l 2.9,5.15 -7.32,6.74 a 31.42,31.42 0 0 1 -7.71,-11.89 c -2.26,-6.9 -8.49,-31.14 3.37,-37.33 z"
       style="fill:#263238"
       id="path1828" />
    <path
       d="m 102.13,315.88 c 3.39,-1.76 5,3.91 7.07,15.38 a 120.63,120.63 0 0 1 1.69,21.95 l 2.9,5.15 -7.32,6.74 a 31.42,31.42 0 0 1 -7.71,-11.89 c -2.26,-6.9 -8.49,-31.14 3.37,-37.33 z"
       style="opacity:0.1;isolation:isolate;fill:#ffffff"
       id="path1830" />
    <polygon
       points="113.79,356.85 115.97,359.9 107.72,368 104.56,365.1 "
       style="fill:#60a3ab"
       id="polygon1832" />
    <polygon
       points="113.79,356.85 115.97,359.9 107.72,368 104.56,365.1 "
       style="opacity:0.4;isolation:isolate;fill:#ffffff"
       id="polygon1834" />
  </g>
</svg>
