<?xml version="1.0" encoding="UTF-8" standalone="no"?>
<svg
   viewBox="0 0 422.1954 372.56"
   version="1.1"
   id="svg36125"
   width="422.1954"
   height="372.56"
   xmlns="http://www.w3.org/2000/svg"
   xmlns:svg="http://www.w3.org/2000/svg">
  <defs
     id="defs36129" />
  <g
     id="freepik--background-complete--inject-35"
     transform="translate(-37.997589,-55)">
    <rect
       y="382.39999"
       width="422.1954"
       height="0.25"
       style="fill:#ebebeb;stroke-width:0.918908"
       id="rect35976"
       x="37.997589" />
    <rect
       x="416.78"
       y="398.48999"
       width="33.119999"
       height="0.25"
       style="fill:#ebebeb"
       id="rect35978" />
    <rect
       x="322.53"
       y="401.20999"
       width="8.6899996"
       height="0.25"
       style="fill:#ebebeb"
       id="rect35980" />
    <rect
       x="396.59"
       y="389.20999"
       width="19.190001"
       height="0.25"
       style="fill:#ebebeb"
       id="rect35982" />
    <rect
       x="52.459999"
       y="390.89001"
       width="43.189999"
       height="0.25"
       style="fill:#ebebeb"
       id="rect35984" />
    <rect
       x="104.56"
       y="390.89001"
       width="6.3299999"
       height="0.25"
       style="fill:#ebebeb"
       id="rect35986" />
    <rect
       x="131.47"
       y="395.10999"
       width="93.68"
       height="0.25"
       style="fill:#ebebeb"
       id="rect35988" />
    <path
       d="M 237,337.8 H 43.91 a 5.71,5.71 0 0 1 -5.7,-5.71 V 60.66 A 5.71,5.71 0 0 1 43.91,55 H 237 a 5.71,5.71 0 0 1 5.71,5.71 V 332.09 A 5.71,5.71 0 0 1 237,337.8 Z M 43.91,55.2 a 5.46,5.46 0 0 0 -5.45,5.46 v 271.43 a 5.46,5.46 0 0 0 5.45,5.46 H 237 a 5.47,5.47 0 0 0 5.46,-5.46 V 60.66 A 5.47,5.47 0 0 0 237,55.2 Z"
       style="fill:#ebebeb"
       id="path35990" />
    <path
       d="m 453.31,337.8 h -193.1 a 5.72,5.72 0 0 1 -5.71,-5.71 V 60.66 A 5.72,5.72 0 0 1 260.21,55 h 193.1 a 5.71,5.71 0 0 1 5.69,5.66 v 271.43 a 5.71,5.71 0 0 1 -5.69,5.71 z M 260.21,55.2 a 5.47,5.47 0 0 0 -5.46,5.46 v 271.43 a 5.47,5.47 0 0 0 5.46,5.46 h 193.1 a 5.47,5.47 0 0 0 5.46,-5.46 V 60.66 a 5.47,5.47 0 0 0 -5.46,-5.46 z"
       style="fill:#ebebeb"
       id="path35992" />
    <circle
       cx="359.32999"
       cy="247.78999"
       r="37.91"
       transform="rotate(-45,359.3285,247.79126)"
       style="fill:#f0f0f0"
       id="circle35994" />
    <path
       d="m 70.7,181 h 103.81 c 0,0 -1.5,-8.22 -20.71,-7.75 3.81,-12 -6.94,-25.1 -31.19,-25.6 -24.25,-0.5 -15.73,19 -15.73,19 0,0 -40.76,-7 -28.43,7.52 -20.2,0.77 -24.19,3.35 -7.75,6.83 z"
       style="fill:#f0f0f0"
       id="path35996" />
    <path
       d="m 340.17,232.41 c 2.36,-11.81 -17.82,-24.75 -55,-25.25 -37.18,-0.5 -18.53,18.77 -18.53,18.77 0,0 -64.21,-7 -41.2,7.41 -30.62,0.69 -36,3.24 -9.87,6.72 H 374 c 0,0 -4.66,-8.06 -33.83,-7.65 z"
       style="fill:#fafafa"
       id="path35998" />
    <path
       d="m 319.57,143.93 h 107.56 c 0,0 24,-13.78 -4.45,-15.56 4.89,-11.78 -7.12,-31.76 -49.11,-32.22 -41.99,-0.46 -20.22,27.11 -20.22,27.11 0,0 -64,-18.45 -41.55,10.89 -9.8,0 -44.67,9.78 7.77,9.78 z"
       style="fill:#f5f5f5"
       id="path36000" />
    <path
       d="m 94.31,286.63 h 48.33 c 0,0 10.79,-6.19 -2,-7 2.2,-5.29 -3.2,-14.27 -22.07,-14.48 -18.87,-0.21 -9.08,12.18 -9.08,12.18 0,0 -28.76,-8.28 -18.68,4.9 -4.39,0.01 -20.07,4.4 3.5,4.4 z"
       style="fill:#f5f5f5"
       id="path36002" />
    <path
       d="m 92.13,97.92 c 0,0 -13.64,-8.74 -23.13,3.69 7.79,-7.72 22.6,0.06 22.6,0.06 0,0 17,-7.7 22.6,0 -6.03,-12.41 -22.07,-3.75 -22.07,-3.75 z"
       style="fill:#f0f0f0"
       id="path36004" />
    <path
       d="m 165.25,213 c 0,0 -8.2,-5.26 -13.92,2.22 4.7,-4.65 13.61,0 13.61,0 0,0 10.2,-4.64 13.61,0 -3.64,-7.4 -13.3,-2.22 -13.3,-2.22 z"
       style="fill:#f0f0f0"
       id="path36006" />
    <path
       d="m 314.77,91.14 c 0,0 -4.1,-2.63 -7,1.11 2.35,-2.33 6.81,0 6.81,0 0,0 5.1,-2.31 6.8,0 -1.78,-3.72 -6.61,-1.11 -6.61,-1.11 z"
       style="fill:#f5f5f5"
       id="path36008" />
    <path
       d="m 415.07,180.92 c 0,0 -4.11,-2.63 -7,1.11 2.34,-2.32 6.8,0 6.8,0 0,0 5.1,-2.32 6.8,0 -1.78,-3.72 -6.6,-1.11 -6.6,-1.11 z"
       style="fill:#f5f5f5"
       id="path36010" />
  </g>
  <g
     id="freepik--Shadow--inject-35"
     transform="translate(-37.997589,-55)">
    <ellipse
       id="freepik--path--inject-35"
       cx="250"
       cy="416.23999"
       rx="193.89"
       ry="11.32"
       style="fill:#f5f5f5" />
  </g>
  <g
     id="freepik--Rocket--inject-35"
     transform="translate(-37.997589,-55)">
    <path
       d="m 184.36,356.77 c 3.41,19.74 -12.51,29.46 -28,24.56 -10.55,-3.35 -21,-0.78 -28.08,2.6 a 1.36,1.36 0 0 1 -1.61,-2.1 48.9,48.9 0 0 1 3.81,-4.07 1.34,1.34 0 0 0 -1.33,-2.25 c -6.16,1.88 -15.24,3.64 -24,1.58 a 1.35,1.35 0 0 1 -0.38,-2.48 c 8.75,-5.18 22.1,-18.79 34.61,-23.21 a 1.35,1.35 0 0 0 -0.53,-2.62 45.62,45.62 0 0 0 -5.88,0.72 1.35,1.35 0 0 1 -1,-2.48 c 17.54,-10.89 48.03,-15.46 52.39,9.75 z"
       style="fill:#60a3ab"
       id="path36015" />
    <path
       d="m 184.36,356.77 c 3.41,19.74 -12.51,29.46 -28,24.56 -10.55,-3.35 -21,-0.78 -28.08,2.6 a 1.36,1.36 0 0 1 -1.61,-2.1 48.9,48.9 0 0 1 3.81,-4.07 1.34,1.34 0 0 0 -1.33,-2.25 c -6.16,1.88 -15.24,3.64 -24,1.58 a 1.35,1.35 0 0 1 -0.38,-2.48 c 8.75,-5.18 22.1,-18.79 34.61,-23.21 a 1.35,1.35 0 0 0 -0.53,-2.62 45.62,45.62 0 0 0 -5.88,0.72 1.35,1.35 0 0 1 -1,-2.48 c 17.54,-10.89 48.03,-15.46 52.39,9.75 z"
       style="opacity:0.7;fill:#ffffff"
       id="path36017" />
    <path
       d="M 162.84,385.58 156.14,334 a 1.91,1.91 0 0 1 2,-2.14 l 32.5,2.32 a 1.9,1.9 0 0 1 1.75,1.65 l 5,38.79 a 1.9,1.9 0 0 1 -1.28,2 l -30.83,10.53 a 1.9,1.9 0 0 1 -2.44,-1.57 z"
       id="path36019" />
    <path
       d="m 156.37,375.9 -4,-30.94 a 1.9,1.9 0 0 1 1.85,-2.14 l 37.32,-0.7 a 1.9,1.9 0 0 1 1.92,1.66 l 3,22.79 a 1.91,1.91 0 0 1 -1.44,2.09 l -36.26,8.84 a 1.91,1.91 0 0 1 -2.39,-1.6 z"
       style="fill:#263238"
       id="path36021" />
    <rect
       x="299.56"
       y="371.94"
       width="19.76"
       height="1.02"
       transform="rotate(-9.35,309.54315,372.588)"
       style="fill:#60a3ab"
       id="rect36023" />
    <rect
       x="288.84"
       y="374.85999"
       width="5.8099999"
       height="1.02"
       transform="rotate(-9.35,291.82858,375.448)"
       style="fill:#60a3ab"
       id="rect36025" />
    <path
       d="m 376.83,331.59 c 0,0 -26.89,-25.19 -65.41,-20.2 l -121.33,11.47 a 16.64,16.64 0 0 0 -14.94,18.71 l 4.12,31.8 a 16.64,16.64 0 0 0 19.22,14.28 L 318.74,367.8 c 38.51,-4.99 58.09,-36.21 58.09,-36.21 z"
       style="fill:#60a3ab"
       id="path36027" />
    <path
       d="m 376.83,331.59 a 86.69,86.69 0 0 1 -21.74,21.83 7.22,7.22 0 0 1 -11.3,-5 l -3.2,-24.75 a 7.21,7.21 0 0 1 9.67,-7.68 86.33,86.33 0 0 1 26.57,15.6 z"
       style="opacity:0.3;fill:#ffffff"
       id="path36029" />
    <circle
       cx="291.89001"
       cy="342.60001"
       r="20.66"
       transform="rotate(-87.44,291.89994,342.60398)"
       style="fill:#ffffff"
       id="circle36031" />
    <path
       d="m 305.8,343.72 a 14,14 0 0 1 -12.12,12.73 c -0.2,0 -0.41,0.05 -0.62,0.06 a 13.88,13.88 0 0 1 -2.66,0 c -0.31,0 -0.63,-0.07 -0.93,-0.12 l -0.67,-0.13 a 14,14 0 0 1 -10.75,-11.83 15,15 0 0 1 -0.11,-2 14,14 0 0 1 27.79,-1.59 13.52,13.52 0 0 1 0.07,2.88 z"
       style="opacity:0.3;fill:#60a3ab"
       id="path36033" />
    <path
       d="m 305.8,343.72 a 14,14 0 0 1 -12.12,12.73 c -0.2,0 -0.41,0.05 -0.62,0.06 a 14.74,14.74 0 0 1 -2.66,0 c -0.31,0 -0.63,-0.07 -0.93,-0.12 l -0.67,-0.13 a 14,14 0 0 1 -10.75,-11.83 15,15 0 0 1 -0.11,-2 13.35,13.35 0 0 1 12.06,-11.91 c 7.65,-0.91 14.66,4.16 15.68,11.32 a 13.35,13.35 0 0 1 0.12,1.88 z"
       style="opacity:0.3;fill:#60a3ab"
       id="path36035" />
  </g>
  <g
     id="freepik--Character--inject-35"
     transform="translate(-37.997589,-55)">
    <polygon
       points="270,296.48 263.75,297.1 262.87,311.38 269.12,310.76 "
       style="fill:#cf7a64"
       id="polygon36038" />
    <polygon
       points="234.45,299.95 228.3,300.56 226.99,315.09 233.14,314.48 "
       style="fill:#cf7a64"
       id="polygon36040" />
    <path
       d="m 233.49,313.1 -6.92,0.69 a 0.53,0.53 0 0 0 -0.47,0.47 l -0.53,5.58 a 0.93,0.93 0 0 0 1,1 c 2.41,-0.28 3.56,-0.54 6.6,-0.84 1.87,-0.19 4.38,-0.36 7,-0.62 2.62,-0.26 2.61,-2.84 1.52,-3 -4.87,-0.56 -5.47,-1.84 -7.16,-3.05 a 1.53,1.53 0 0 0 -1.04,-0.23 z"
       style="fill:#263238"
       id="path36042" />
    <path
       d="m 269.3,309.47 -6.72,0.68 a 0.51,0.51 0 0 0 -0.47,0.47 l -0.53,5.58 a 0.92,0.92 0 0 0 1,1 c 2.42,-0.28 5.9,-0.78 8.95,-1.08 3.57,-0.36 3.59,-0.17 7.77,-0.59 2.52,-0.26 2.9,-2.88 1.82,-3 -4.95,-0.57 -5.81,-0.59 -10.3,-2.73 a 3,3 0 0 0 -1.52,-0.33 z"
       style="fill:#263238"
       id="path36044" />
    <path
       d="m 245.33,110.94 c 1.56,0.14 3.32,0.31 5,0.39 1.68,0.08 3.36,0.14 5,0.14 a 41.78,41.78 0 0 0 4.73,-0.28 12.67,12.67 0 0 0 3.62,-0.93 l -1.84,2.82 c 0,0.33 0.07,0.33 0,0.13 a 4,4 0 0 0 -0.36,-0.88 14.59,14.59 0 0 0 -1.65,-2.4 53.85,53.85 0 0 0 -4.63,-4.89 c -1.68,-1.61 -3.45,-3.17 -5.24,-4.72 -1.79,-1.55 -3.65,-3.09 -5.45,-4.58 l 2.4,-3.74 c 2.23,1.14 4.33,2.38 6.45,3.67 2.12,1.29 4.16,2.69 6.18,4.19 a 51.48,51.48 0 0 1 5.89,5 23.34,23.34 0 0 1 2.75,3.35 11.38,11.38 0 0 1 1.22,2.37 7.66,7.66 0 0 1 0.46,3.68 l -0.22,1.76 -1.64,1.09 a 18,18 0 0 1 -6.48,2.53 38.07,38.07 0 0 1 -6,0.74 c -1.94,0.11 -3.85,0.09 -5.74,0 -1.89,-0.09 -3.72,-0.23 -5.72,-0.53 z"
       style="fill:#ce7a63"
       id="path36046" />
    <path
       d="m 249,94 -3.68,-4.61 -2.76,6.61 c 0,0 3.34,3.93 6.88,2 z"
       style="fill:#cf7a64"
       id="path36048" />
    <polygon
       points="242.56,95.95 245.31,89.37 240.44,86.97 239.82,94.47 "
       style="fill:#cf7a64"
       id="polygon36050" />
    <path
       d="m 235.93,87.93 5.6,-2.32 a 0.71,0.71 0 0 1 1,0.4 l 3.61,11.51 a 0.88,0.88 0 0 1 -0.53,1 l -5.6,2.32 a 0.71,0.71 0 0 1 -1,-0.4 L 235.4,89 a 0.88,0.88 0 0 1 0.53,-1.07 z"
       style="fill:#263238"
       id="path36052" />
    <path
       d="m 239.23,121.92 c 4.07,4.92 20.75,0.31 20.75,0.31 L 258.57,111 c 0,0 -4.21,-1.26 -12.56,-1.52 -8.56,-0.31 -11.24,7.05 -6.78,12.44 z"
       style="fill:#60a3ab"
       id="path36054" />
    <polygon
       points="263.3,304.47 263.75,297.11 270,296.49 269.54,303.85 "
       style="opacity:0.2"
       id="polygon36056" />
    <polygon
       points="233.77,307.44 227.62,308.06 228.29,300.57 234.45,299.95 "
       style="opacity:0.2"
       id="polygon36058" />
    <path
       d="m 252.05,112.57 c 2.42,6.28 8.36,25 6.29,53.26 l -32.92,3.31 c -0.86,-5 -1,-32.49 -8.88,-55.76 a 86.6,86.6 0 0 1 10.85,-2.49 121.57,121.57 0 0 1 14,-1.41 61.39,61.39 0 0 1 7.17,0.41 4.24,4.24 0 0 1 3.49,2.68 z"
       style="fill:#60a3ab"
       id="path36060" />
    <path
       d="m 239.4,117.7 -1.29,0.17 c 0.13,11 0.29,14 -9.64,24.28 a 42.94,42.94 0 0 0 -4.86,5.92 c 0.13,1.3 0.26,2.56 0.38,3.78 2.57,-2.35 6,-5.43 8.56,-7.57 11.55,-9.64 7.18,-26.72 6.85,-26.58 z"
       style="opacity:0.2"
       id="path36062" />
    <path
       d="m 224.43,118.53 c 1,3.85 1,13.33 -1.4,24.51 A 159.64,159.64 0 0 0 217.3,115.7 v 0 c 2.13,-0.49 6.15,-0.78 7.13,2.83 z"
       style="opacity:0.2"
       id="path36064" />
    <path
       d="m 227.58,97.65 c 1.45,4.4 2.59,9.92 -0.19,13.24 0,0 2.38,4.37 10.75,3.53 7.64,-0.77 3.25,-4.94 3.25,-4.94 -5.18,-0.69 -5.69,-6.91 -5.25,-10.49 z"
       style="fill:#cf7a64"
       id="path36066" />
    <path
       d="m 238.5,114 2,1.82 a 0.55,0.55 0 0 1 0.17,0.51 l -0.41,1.83 a 0.49,0.49 0 0 1 -0.42,0.39 l -1.95,0.29 a 0.54,0.54 0 0 1 -0.49,-0.18 l -1.34,-1.6 a 0.53,0.53 0 0 1 0,-0.65 l 1.67,-2.34 A 0.53,0.53 0 0 1 238.5,114 Z"
       style="fill:#263238"
       id="path36068" />
    <path
       d="m 237.88,113.94 a 28.51,28.51 0 0 1 -3.29,6.17 c 0,0 -8.13,-3.7 -8.62,-9 a 0.58,0.58 0 0 1 0.22,-0.51 c 0.31,-0.24 0.87,-0.68 1.4,-1.12 a 0.56,0.56 0 0 1 0.86,0.13 c 0.65,1.15 2.75,3.39 9.43,4.33 z"
       style="fill:#ffffff"
       id="path36070" />
    <path
       d="m 238.17,113.88 a 15.62,15.62 0 0 1 4.17,4.75 10.58,10.58 0 0 0 0.72,-9 0.62,0.62 0 0 0 -0.4,-0.36 c -0.35,-0.09 -1,-0.25 -1.67,-0.38 a 0.58,0.58 0 0 0 -0.67,0.64 4,4 0 0 1 -2.15,4.35 z"
       style="fill:#ffffff"
       id="path36072" />
    <path
       d="m 239.34,117.63 c 0.32,-0.14 3.56,15.16 -7.62,24.45 -4.56,3.79 -11.89,10.56 -11.88,10.55 0.68,-2.69 2.82,-6.84 8.19,-12.28 9.71,-9.83 9.7,-12.5 10.1,-22.5 z"
       style="fill:#263238"
       id="path36074" />
    <path
       d="m 236.14,99 a 13.61,13.61 0 0 0 1,7.37 8,8 0 0 1 -2.33,-0.46 c -3,-1 -4.65,-3 -6.5,-6 -0.21,-0.79 -0.44,-1.55 -0.68,-2.29 z"
       style="opacity:0.2"
       id="path36076" />
    <path
       d="m 232.77,84 c 1.19,-9.41 8.11,0.55 6.19,5.23 -1.18,2.86 -6.48,-2.96 -6.19,-5.23 z"
       style="fill:#263238"
       id="path36078" />
    <path
       d="m 223.25,92.54 c 2.37,5.72 3.47,9.19 7.43,11.23 5.95,3.09 12.16,-1.91 11.52,-8.19 -0.57,-5.65 -4.35,-14.06 -10.81,-14.54 a 8.18,8.18 0 0 0 -8.14,11.5 z"
       style="fill:#cf7a64"
       id="path36080" />
    <path
       d="m 225.92,98.07 a 4,4 0 0 0 3.18,-2.93 9.82,9.82 0 0 1 -4.27,-3.32 c 0,0 2.54,-3.65 2.27,-5.76 3.26,0 10.9,-3.15 9.17,-6.63 -1.73,-3.48 -8.59,-5.21 -12.59,-2.75 a 14.92,14.92 0 0 1 -8.56,2.59 10,10 0 0 0 2.93,1.16 11.23,11.23 0 0 0 -3.37,8.5 c 0.19,4.47 -2.24,6.27 -2.24,6.27 0,0 3,0.45 3.92,-0.87 -0.41,1.46 2.06,6.58 7.49,7.29 6.08,0.79 2.07,-3.55 2.07,-3.55 z"
       style="fill:#263238"
       id="path36082" />
    <path
       d="m 223.43,100.81 c 2.25,1 4,1.34 5.16,0.66 1.16,-0.68 0.83,-3 -0.65,-4.33 -1.33,-1.17 -3.95,-2.28 -5.47,-1 -1.52,1.28 -1.36,3.61 0.96,4.67 z"
       style="fill:#cf7a64"
       id="path36084" />
    <path
       d="m 258.34,165.83 c 0,0 14.16,46.56 15.16,64.17 1.1,19.27 -1.68,70.48 -1.68,70.48 l -11.13,1.13 c 0,0 -2.08,-48.76 -4.9,-67.62 -3.06,-20.47 -18.43,-66 -18.43,-66 z"
       style="fill:#263238"
       id="path36086" />
    <path
       d="M 248.59,187.78 246.84,198 c 2.45,8.27 4.9,17.08 6.69,24.73 a 95.68,95.68 0 0 0 -4.94,-34.95 z"
       style="opacity:0.2"
       id="path36088" />
    <path
       d="m 259.77,298.83 c 0,0 0.36,4.11 0.36,4.11 l 12.45,-1.25 0.36,-4.65 z"
       style="fill:#60a3ab"
       id="path36090" />
    <path
       d="m 246.66,167 c 0,0 4.61,41.63 3,59.6 -1.79,19.67 -13.18,78.51 -13.18,78.51 l -11.27,1.13 c 0,0 6.2,-56.74 6.2,-76 0,-20.95 -6,-61.06 -6,-61.06 z"
       style="fill:#263238"
       id="path36092" />
    <path
       d="m 224.82,302.64 c 0,0 -0.16,3.87 -0.16,3.87 l 12.39,-1.25 1.26,-4.38 z"
       style="fill:#60a3ab"
       id="path36094" />
    <path
       d="m 232.58,91.32 c 0.16,0.48 0.55,0.78 0.85,0.68 0.3,-0.1 0.43,-0.57 0.26,-1 -0.17,-0.43 -0.54,-0.78 -0.85,-0.68 -0.31,0.1 -0.43,0.52 -0.26,1 z"
       style="fill:#263238"
       id="path36096" />
    <path
       d="m 237.9,89.59 c 0.16,0.48 0.55,0.78 0.85,0.68 0.3,-0.1 0.43,-0.57 0.26,-1 -0.17,-0.43 -0.54,-0.78 -0.85,-0.68 -0.31,0.1 -0.42,0.53 -0.26,1 z"
       style="fill:#263238"
       id="path36098" />
    <path
       d="m 236.29,90.38 a 18.65,18.65 0 0 0 3.65,3.33 2.78,2.78 0 0 1 -2.1,1.16 z"
       style="fill:#ba4d3c"
       id="path36100" />
    <path
       d="m 236.66,96.82 a 0.15,0.15 0 0 0 0.08,-0.19 0.16,0.16 0 0 0 -0.19,-0.09 4,4 0 0 1 -3.56,-0.37 0.15,0.15 0 0 0 -0.21,0 0.16,0.16 0 0 0 0,0.21 4.2,4.2 0 0 0 3.88,0.44 z"
       style="fill:#263238"
       id="path36102" />
    <path
       d="m 230.38,90.11 a 0.29,0.29 0 0 0 0.18,-0.18 2.24,2.24 0 0 1 1.44,-1.51 0.28,0.28 0 0 0 0.2,-0.36 0.3,0.3 0 0 0 -0.36,-0.21 2.81,2.81 0 0 0 -1.84,1.88 0.3,0.3 0 0 0 0.38,0.38 z"
       style="fill:#263238"
       id="path36104" />
    <path
       d="m 239.63,86.91 a 0.28,0.28 0 0 0 0.11,-0.08 0.3,0.3 0 0 0 0,-0.41 3,3 0 0 0 -2.58,-0.77 0.29,0.29 0 0 0 -0.2,0.36 0.29,0.29 0 0 0 0.36,0.21 v 0 a 2.37,2.37 0 0 1 2,0.63 0.3,0.3 0 0 0 0.31,0.06 z"
       style="fill:#263238"
       id="path36106" />
    <path
       d="m 212.62,123.53 8.38,3.39 c 0,0 -6.9,20.52 -5.41,23.3 2,3.78 7.41,9.81 10.62,13.82 a 8.68,8.68 0 0 1 -2,4.07 c -6.74,-3.2 -17.36,-13.25 -17.91,-17.1 -1.21,-8.78 6.32,-27.48 6.32,-27.48 z"
       style="fill:#cf7a64"
       id="path36108" />
    <path
       d="m 216.54,113.38 c -6.85,2.22 -7.81,17.45 -7.81,17.45 l 10.6,5.44 a 31.43,31.43 0 0 0 6.4,-12.49 c 1.85,-7.73 -3.17,-12.35 -9.19,-10.4 z"
       style="fill:#60a3ab"
       id="path36110" />
    <path
       d="m 235.66,314 a 1.79,1.79 0 0 0 1.14,-0.43 0.86,0.86 0 0 0 0.21,-0.8 0.48,0.48 0 0 0 -0.3,-0.38 c -0.72,-0.28 -2.56,1.13 -2.77,1.29 a 0.16,0.16 0 0 0 0,0.16 0.13,0.13 0 0 0 0.12,0.1 6.67,6.67 0 0 0 1.6,0.06 z m 0.75,-1.36 a 0.43,0.43 0 0 1 0.2,0 0.19,0.19 0 0 1 0.11,0.16 0.6,0.6 0 0 1 -0.13,0.55 3,3 0 0 1 -2.17,0.33 5.81,5.81 0 0 1 1.99,-1.08 z"
       style="fill:#60a3ab"
       id="path36112" />
    <path
       d="m 234.05,313.91 c 0,0 0,0 0.07,0 0.6,-0.41 1.66,-1.88 1.44,-2.55 a 0.49,0.49 0 0 0 -0.51,-0.33 0.78,0.78 0 0 0 -0.6,0.25 c -0.64,0.65 -0.56,2.44 -0.56,2.51 a 0.13,0.13 0 0 0 0.08,0.13 z m 0.93,-2.62 h 0.07 c 0.19,0 0.22,0.09 0.23,0.12 0.13,0.4 -0.53,1.5 -1.1,2 a 3.41,3.41 0 0 1 0.49,-2 0.49,0.49 0 0 1 0.33,-0.12 z"
       style="fill:#60a3ab"
       id="path36114" />
    <path
       d="m 272,310.29 a 2.24,2.24 0 0 0 1.44,-0.53 0.77,0.77 0 0 0 0.19,-0.73 0.51,0.51 0 0 0 -0.29,-0.37 c -0.8,-0.34 -3.12,1.16 -3.38,1.33 a 0.17,0.17 0 0 0 -0.06,0.16 0.15,0.15 0 0 0 0.13,0.11 10.59,10.59 0 0 0 1.97,0.03 z m 0.95,-1.39 a 0.6,0.6 0 0 1 0.28,0 0.18,0.18 0 0 1 0.11,0.15 0.51,0.51 0 0 1 -0.12,0.48 c -0.33,0.38 -1.34,0.53 -2.73,0.45 A 8,8 0 0 1 273,308.9 Z"
       style="fill:#60a3ab"
       id="path36116" />
    <path
       d="m 270.06,310.26 h 0.06 c 0.7,-0.4 2,-1.88 1.81,-2.56 -0.05,-0.16 -0.19,-0.35 -0.6,-0.35 a 1,1 0 0 0 -0.77,0.33 4,4 0 0 0 -0.66,2.46 0.14,0.14 0 0 0 0.07,0.12 0.1,0.1 0 0 0 0.09,0 z m 1.19,-2.64 h 0.09 c 0.27,0 0.3,0.1 0.31,0.13 0.12,0.41 -0.75,1.56 -1.46,2.09 a 3.41,3.41 0 0 1 0.58,-2 0.79,0.79 0 0 1 0.48,-0.22 z"
       style="fill:#60a3ab"
       id="path36118" />
    <path
       d="m 224.7,163.18 5.89,0.2 -3.59,6.14 c 0,0 -5.15,-0.35 -5.67,-4.37 z"
       style="fill:#cf7a64"
       id="path36120" />
    <polygon
       points="226.95,169.52 230.59,163.38 233.35,165.43 229.78,170.83 "
       style="fill:#cf7a64"
       id="polygon36122" />
  </g>
</svg>
