<svg width="28" height="28" viewBox="0 0 28 28" fill="none" xmlns="http://www.w3.org/2000/svg">
<g clip-path="url(#clip0_313_836)">
<path d="M9.57031 9.57031C10.0844 9.06172 10.9156 9.06172 11.3805 9.57031L13.9508 12.1461L16.5703 9.57031C17.0844 9.06172 17.9156 9.06172 18.3805 9.57031C18.9383 10.0844 18.9383 10.9156 18.3805 11.3805L15.8539 13.9508L18.3805 16.5703C18.9383 17.0844 18.9383 17.9156 18.3805 18.3805C17.9156 18.9383 17.0844 18.9383 16.5703 18.3805L13.9508 15.8539L11.3805 18.3805C10.9156 18.9383 10.0844 18.9383 9.57031 18.3805C9.06172 17.9156 9.06172 17.0844 9.57031 16.5703L12.1461 13.9508L9.57031 11.3805C9.06172 10.9156 9.06172 10.0844 9.57031 9.57031ZM28 14C28 21.7328 21.7328 28 14 28C6.26719 28 0 21.7328 0 14C0 6.26719 6.26719 0 14 0C21.7328 0 28 6.26719 28 14ZM14 2.625C7.71641 2.625 2.625 7.71641 2.625 14C2.625 20.2836 7.71641 25.375 14 25.375C20.2836 25.375 25.375 20.2836 25.375 14C25.375 7.71641 20.2836 2.625 14 2.625Z" fill="white"/>
</g>
<defs>
<clipPath id="clip0_313_836">
<rect width="28" height="28" fill="white"/>
</clipPath>
</defs>
</svg>
