<?xml version="1.0" encoding="UTF-8" standalone="no"?>
<svg
   viewBox="0 0 387.78 332.04913"
   version="1.1"
   id="svg148"
   sodipodi:docname="student.svg"
   width="387.78"
   height="332.04913"
   inkscape:export-filename="student.svg"
   inkscape:export-xdpi="96"
   inkscape:export-ydpi="96"
   xmlns:inkscape="http://www.inkscape.org/namespaces/inkscape"
   xmlns:sodipodi="http://sodipodi.sourceforge.net/DTD/sodipodi-0.dtd"
   xmlns="http://www.w3.org/2000/svg"
   xmlns:svg="http://www.w3.org/2000/svg">
  <defs
     id="defs152" />
  <sodipodi:namedview
     id="namedview150"
     pagecolor="#ffffff"
     bordercolor="#000000"
     borderopacity="0.25"
     inkscape:showpageshadow="2"
     inkscape:pageopacity="0.0"
     inkscape:pagecheckerboard="0"
     inkscape:deskcolor="#d1d1d1"
     showgrid="false" />
  <g
     id="freepik--background-simple--inject-2"
     transform="translate(-56.110001,-95.510852)">
    <path
       d="m 189.59,179 c 68.1,15.12 164,-158.32 222.72,-44.62 C 460.18,227.17 363.52,303.79 287,300.05 209.29,296.25 137.2,419 81.31,303.86 64.21,268.64 56.54,214 82.14,178.11 122.87,121 148.07,169.81 189.59,179 Z"
       style="fill:#60a3ab"
       id="path2" />
    <path
       d="m 189.59,179 c 68.1,15.12 164,-158.32 222.72,-44.62 C 460.18,227.17 363.52,303.79 287,300.05 209.29,296.25 137.2,419 81.31,303.86 64.21,268.64 56.54,214 82.14,178.11 122.87,121 148.07,169.81 189.59,179 Z"
       style="opacity:0.9;fill:#ffffff"
       id="path4" />
  </g>
  <g
     id="freepik--Shadow--inject-2"
     transform="translate(-56.110001,-95.510852)">
    <ellipse
       id="freepik--path--inject-2"
       cx="250"
       cy="416.23999"
       rx="193.89"
       ry="11.32"
       style="fill:#f5f5f5" />
  </g>
  <g
     id="freepik--Bubble--inject-2"
     transform="translate(-56.110001,-95.510852)">
    <path
       d="m 296.32,113.72 a 18.6,18.6 0 0 0 -24.83,-10.18 c -8.52,3.76 -13.14,14.69 -9.93,23.42 a 18.51,18.51 0 0 0 9,10.17 10.45,10.45 0 0 1 4.26,3.75 l 2.64,4.22 a 7,7 0 0 0 8.48,2.8 l 6.66,-2.63 a 7,7 0 0 0 4.28,-7.84 l -1,-5.06 a 9.82,9.82 0 0 1 0.53,-5.33 18.5,18.5 0 0 0 -0.09,-13.32 z"
       style="fill:#60a3ab"
       id="path9" />
    <path
       d="m 286.82,156.32 a 3.13,3.13 0 0 1 -1.24,-0.26 3.06,3.06 0 0 1 -1.66,-1.71 3.11,3.11 0 0 1 1.75,-4 l 8.83,-3.49 a 3.1,3.1 0 0 1 4,1.75 3.07,3.07 0 0 1 0,2.38 3.13,3.13 0 0 1 -1.71,1.66 L 288,156.1 a 3,3 0 0 1 -1.18,0.22 z m 8.82,-8.71 a 2,2 0 0 0 -0.77,0.15 l -8.87,3.49 a 2.1,2.1 0 0 0 -0.07,3.89 2.07,2.07 0 0 0 1.62,0 l 8.83,-3.48 a 2.09,2.09 0 0 0 1.15,-1.13 2,2 0 0 0 0,-1.61 2.13,2.13 0 0 0 -2,-1.34 z"
       style="fill:#263238"
       id="path11" />
    <path
       d="m 291.32,161.7 a 2.09,2.09 0 0 1 -0.78,-0.16 2,2 0 0 1 -1,-1.07 l -0.15,-0.39 a 1.93,1.93 0 0 1 1.09,-2.51 l 5.51,-2.18 a 2,2 0 0 1 2.52,1.09 l 0.15,0.39 a 1.95,1.95 0 0 1 -1.09,2.51 l -5.57,2.18 a 1.9,1.9 0 0 1 -0.68,0.14 z m 5.35,-5.45 a 1,1 0 0 0 -0.34,0.07 l -5.51,2.18 a 0.93,0.93 0 0 0 -0.53,1.21 l 0.15,0.39 a 0.94,0.94 0 0 0 1.22,0.53 l 5.51,-2.18 a 0.94,0.94 0 0 0 0.52,-0.5 0.92,0.92 0 0 0 0,-0.71 l -0.15,-0.39 a 1,1 0 0 0 -0.87,-0.6 z"
       style="fill:#263238"
       id="path13" />
    <path
       d="m 274.91,131.46 a 3.75,3.75 0 1 1 3.48,-5.13 l 1.38,3.49 -3.49,1.37 a 3.67,3.67 0 0 1 -1.37,0.27 z m 0,-6.5 a 2.75,2.75 0 1 0 1,5.3 l 2.56,-1 -1,-2.55 A 2.74,2.74 0 0 0 274.9,125 Z"
       style="fill:#ffffff"
       id="path15" />
    <polygon
       points="279.77,129.82 286.9,147.87 285.97,148.24 278.48,129.25 285.37,126.53 292.86,145.52 291.93,145.89 284.8,127.83 "
       style="fill:#ffffff"
       id="polygon17" />
    <path
       d="m 284.8,127.83 -1.37,-3.49 a 3.75,3.75 0 1 1 4.86,2.11 z m 2.11,-7.62 a 2.79,2.79 0 0 0 -1,0.2 2.74,2.74 0 0 0 -1.54,3.57 l 1,2.55 2.55,-1 a 2.75,2.75 0 0 0 -1,-5.31 z"
       style="fill:#ffffff"
       id="path19" />
    <path
       d="m 300.33,175.49 a 68.37,68.37 0 0 1 -11.21,-0.91 l 0.17,-1 a 67.4,67.4 0 0 0 11,0.9 z"
       style="fill:#60a3ab"
       id="path21" />
    <path
       d="m 321,185.85 0.53,-1.08 a 19.55,19.55 0 0 0 1.05,-13.07 62.46,62.46 0 0 1 -12,3 l -0.15,-1 a 61.45,61.45 0 0 0 12.28,-3.16 l 0.5,-0.18 0.15,0.5 a 21,21 0 0 1 -0.47,13.21 c 12.29,-4.89 25.12,-22.25 25.12,-42.93 0,-18.36 -21.41,-33.3 -47.73,-33.3 -26.32,0 -47.72,14.94 -47.72,33.3 0,13.35 11.37,25.38 29,30.64 l -0.29,1 c -18,-5.39 -29.68,-17.79 -29.68,-31.6 0,-18.91 21.86,-34.3 48.72,-34.3 26.86,0 48.73,15.39 48.73,34.3 0,21.74 -14,39.91 -26.9,44.28 z"
       style="fill:#60a3ab"
       id="path23" />
    <rect
       x="313.32999"
       y="118.1"
       width="42.639999"
       height="28.959999"
       rx="4.4000001"
       transform="rotate(-10.13,334.50567,132.55768)"
       style="fill:#60a3ab"
       id="rect25" />
    <polygon
       points="340.76,131.49 328.96,127.23 331.17,139.57 "
       style="fill:#ffffff"
       id="polygon27" />
  </g>
  <g
     id="freepik--Character--inject-2"
     transform="translate(-56.110001,-95.510852)">
    <rect
       x="127.11"
       y="296.67001"
       width="91.339996"
       height="10.91"
       rx="3.1900001"
       style="fill:#60a3ab"
       id="rect30" />
    <polygon
       points="213.92,307.58 210.41,307.58 214.3,410.24 216.83,410.24 "
       style="fill:#60a3ab"
       id="polygon32" />
    <polygon
       points="213.92,307.58 210.41,307.58 214.3,410.24 216.83,410.24 "
       style="opacity:0.3;fill:#ffffff"
       id="polygon34" />
    <polygon
       points="191.36,307.58 194.86,307.58 190.97,410.24 188.44,410.24 "
       style="fill:#60a3ab"
       id="polygon36" />
    <polygon
       points="191.36,307.58 194.86,307.58 190.97,410.24 188.44,410.24 "
       style="opacity:0.3;fill:#ffffff"
       id="polygon38" />
    <polygon
       points="154.21,307.58 150.7,307.58 154.59,410.24 157.13,410.24 "
       style="fill:#60a3ab"
       id="polygon40" />
    <polygon
       points="154.21,307.58 150.7,307.58 154.59,410.24 157.13,410.24 "
       style="opacity:0.3;fill:#ffffff"
       id="polygon42" />
    <polygon
       points="131.65,307.58 135.15,307.58 131.27,410.24 128.73,410.24 "
       style="fill:#60a3ab"
       id="polygon44" />
    <polygon
       points="131.65,307.58 135.15,307.58 131.27,410.24 128.73,410.24 "
       style="opacity:0.3;fill:#ffffff"
       id="polygon46" />
    <polygon
       points="242.91,360.04 233.9,363.09 241.31,384.15 250.33,381.1 "
       style="fill:#ffc3bd"
       id="polygon48" />
    <path
       d="m 249.66,377.62 -9.88,4.38 a 0.6,0.6 0 0 0 -0.33,0.85 l 3.75,7.62 a 1.93,1.93 0 0 0 2.39,0.81 c 3.41,-1.57 4.94,-2.48 9.29,-4.39 2.68,-1.17 8.07,-3.26 11.41,-5.41 3.34,-2.15 0.72,-5.25 -0.92,-4.63 -3.89,1.48 -10.36,1.42 -13.9,0.66 a 3,3 0 0 0 -1.81,0.11 z"
       style="fill:#263238"
       id="path50" />
    <polygon
       points="247.15,372.09 237.98,374.71 233.9,363.1 242.92,360.04 "
       style="opacity:0.2"
       id="polygon52" />
    <path
       d="m 177.42,268.19 c 0,0 45,8.12 48.63,22.9 7.13,29.22 23.21,74.92 23.21,74.92 l -17.12,5 c 0,0 -24.48,-52.41 -27.56,-70.05 -25.25,0 -56,2 -60,-8.68 -3.51,-9.48 -2.26,-24.05 -2.26,-24.05 z"
       style="fill:#263238"
       id="path54" />
    <polygon
       points="249.49,358.37 227.68,366.05 231.2,374 251.2,367.4 "
       style="fill:#60a3ab"
       id="polygon56" />
    <polygon
       points="206.22,363.53 196.93,365.63 202.11,387.35 212.07,388.11 "
       style="fill:#ffc3bd"
       id="polygon58" />
    <path
       d="m 211.82,385.71 -10.73,-1.19 a 0.61,0.61 0 0 0 -0.72,0.58 l -0.56,8.48 a 2,2 0 0 0 1.67,1.89 c 3.73,0.35 5.52,0.32 10.24,0.84 2.9,0.32 8.62,1.21 12.59,1 3.97,-0.21 3.25,-4.2 1.51,-4.47 -4.11,-0.67 -9.67,-3.95 -12.36,-6.38 a 2.93,2.93 0 0 0 -1.64,-0.75 z"
       style="fill:#263238"
       id="path60" />
    <polygon
       points="209.17,375.96 199.78,377.61 196.93,365.64 206.22,363.54 "
       style="opacity:0.2"
       id="polygon62" />
    <path
       d="m 154,268.19 c 0,0 54.71,8.19 52.2,28.9 -3.61,29.86 5.66,73.05 5.66,73.05 l -17.55,3.14 c 0,0 -12.9,-53.68 -13,-71.59 -17.8,0 -48.9,1.27 -52.88,-9.45 -3.51,-9.48 -2.26,-24.05 -2.26,-24.05 z"
       style="fill:#263238"
       id="path64" />
    <polygon
       points="212.93,362.57 190.43,367.92 193.1,376.2 213.69,371.72 "
       style="fill:#60a3ab"
       id="polygon66" />
    <path
       d="m 182.86,210.64 c 1.46,5.72 2.89,11.49 4.29,17.24 1.4,5.75 2.77,11.51 4.22,17.19 l 1.09,4.23 0.56,2.08 0.29,1 v 0.13 0.06 c 0,0 0,-0.09 -0.05,-0.13 a 3.66,3.66 0 0 0 -0.28,-0.59 l -0.15,-0.23 -0.11,-0.15 -0.2,-0.22 c -0.21,-0.2 -0.24,-0.17 -0.19,-0.12 a 1.89,1.89 0 0 0 0.36,0.29 10.88,10.88 0 0 0 1.38,0.79 c 1.08,0.53 2.34,1 3.63,1.52 5.2,1.93 10.94,3.57 16.52,5.34 l -0.88,6.38 a 90.82,90.82 0 0 1 -9.2,-0.36 81.94,81.94 0 0 1 -9.27,-1.3 40.56,40.56 0 0 1 -4.86,-1.26 21.9,21.9 0 0 1 -2.69,-1.06 12.5,12.5 0 0 1 -1.55,-0.86 10.26,10.26 0 0 1 -1.89,-1.55 c -0.18,-0.2 -0.35,-0.39 -0.55,-0.65 l -0.28,-0.38 -0.28,-0.47 a 7.55,7.55 0 0 1 -0.53,-1.1 l -0.16,-0.46 -0.39,-1.1 -0.75,-2.18 c -0.49,-1.45 -1,-2.9 -1.41,-4.34 -1.81,-5.78 -3.46,-11.53 -5,-17.32 -1.54,-5.79 -3,-11.57 -4.34,-17.43 z"
       style="fill:#ffc3bd"
       id="path68" />
    <path
       d="m 168.8,203.72 c 5.49,-6.12 14.19,-1.84 17.86,11.86 1.78,6.66 1.22,10.14 1.22,10.14 l -18.94,5.84 c -4.07,-9 -7.61,-19.5 -0.14,-27.84 z"
       style="fill:#60a3ab"
       id="path70" />
    <g
       style="opacity:0.2"
       id="g74">
      <path
         d="m 168.8,203.72 c 5.49,-6.12 14.19,-1.84 17.86,11.86 1.78,6.66 1.22,10.14 1.22,10.14 l -18.94,5.84 c -4.07,-9 -7.61,-19.5 -0.14,-27.84 z"
         id="path72" />
    </g>
    <path
       d="m 224.15,256.5 -1.7,-0.52 a 7.93,7.93 0 0 0 -3.18,-0.29 l -3.65,0.43 a 8.59,8.59 0 0 0 -5.57,4.27 l -1.24,2.42 c 0.62,4.46 9.66,3 9.66,3 H 227 l -0.28,-6.06 a 3.61,3.61 0 0 0 -2.57,-3.25 z"
       style="fill:#ffc3bd"
       id="path76" />
    <path
       d="m 230,246.74 a 9,9 0 0 1 -2,4.46 c -0.91,1.33 -1.85,2.65 -2.8,4 -1.91,2.61 -3.86,5.18 -6,7.63 a 0.58,0.58 0 0 1 -0.95,-0.65 c 1.48,-2.9 3.15,-5.66 4.86,-8.4 q 1.29,-2.05 2.64,-4.07 a 9.11,9.11 0 0 1 3.37,-3.56 0.66,0.66 0 0 1 1,0.64 z"
       style="fill:#263238"
       id="path78" />
    <path
       d="m 170.07,197.79 -10.67,-3 -13.73,-0.64 a 9.51,9.51 0 0 0 -9.49,6.56 c -2.62,8 -5,19.52 -6.78,29.49 a 231.8,231.8 0 0 0 -3.21,38 h 51.23 c 1.05,-28.45 4.4,-42.35 6.38,-52.42 a 13.72,13.72 0 0 0 -7.55,-15 z"
       style="fill:#60a3ab"
       id="path80" />
    <path
       d="m 155.76,199.79 c 1.3,3.34 6.33,10.48 12.18,13.27 3.25,-2.35 3.95,-7.48 4.44,-9.88 z"
       style="fill:#ffffff"
       id="path82" />
    <path
       d="m 172.38,203.18 a 5.2,5.2 0 0 0 -0.44,-3.94 c -0.83,-1.3 -0.62,-2.79 0.21,-4.32 a 14.91,14.91 0 0 1 2.45,-3.33 l -6.71,-7.85 -5.47,-6.34 c -0.47,5.93 -0.93,13.28 -5.61,17.88 -1.65,1.63 -2,2.12 -1.05,4.51 1.3,3.34 6,8 11.8,10.79 a 11.37,11.37 0 0 0 4.82,-7.4 z"
       style="fill:#ffc3bd"
       id="path84" />
    <path
       d="m 172.54,190.24 -3.79,-6.15 c -0.07,0.16 -0.16,0.33 -0.25,0.51 a 14.39,14.39 0 0 0 -0.82,2.36 c -0.69,2.73 1.63,6.63 4.17,8.49 0.11,-0.17 0.2,-0.35 0.3,-0.53 a 18.68,18.68 0 0 1 2.29,-3.23 1,1 0 0 1 0.16,-0.1 z"
       style="opacity:0.2"
       id="path86" />
    <path
       d="m 185.78,175.54 c 0.88,5.67 9,-8.92 4.46,-12.12 -5.54,-3.92 -6.12,1.33 -4.46,12.12 z"
       style="fill:#263238"
       id="path88" />
    <path
       d="m 162.67,168.14 c -0.52,9.21 -1.31,14.56 2.92,19.88 6.36,8 18.57,5.36 21.94,-3.45 3,-7.94 3.37,-21.66 -5.48,-26.52 -8.85,-4.86 -18.86,0.89 -19.38,10.09 z"
       style="fill:#ffc3bd"
       id="path90" />
    <path
       d="m 180.82,162.61 c 0,0 5.89,5.78 10.09,3.39 4.2,-2.39 5.05,-8.58 0,-14 -2.43,-2.61 -6.11,-5.16 -13.33,-5 a 5.56,5.56 0 0 0 2,1.25 c 0,0 -9.16,-1.53 -15.54,1.1 a 5.86,5.86 0 0 0 2,1.86 c -6.21,-0.47 -12.25,2 -8,7.83 -5.63,0.55 -6.89,7.75 -3.89,12.5 3,4.75 3.53,8.31 7.54,10.47 0,-6.47 1.49,-8 1.49,-8 2.89,-1.23 6.22,-7.39 5.55,-10.5 6.18,2.49 12.77,3.31 12.09,-0.9 z"
       style="fill:#263238"
       id="path92" />
    <path
       d="m 159.52,158.83 a 12.7,12.7 0 0 1 -4.39,-5.55 c -0.72,3.22 2.61,6.89 2.61,6.89 z"
       style="fill:#263238"
       id="path94" />
    <path
       d="m 158.07,173.17 a 8.76,8.76 0 0 0 2.33,5.67 c 1.91,2 4.51,0.3 5,-2.27 0.4,-2.31 -0.58,-5.84 -3,-6.88 -2.42,-1.04 -4.4,0.9 -4.33,3.48 z"
       style="fill:#ffc3bd"
       id="path96" />
    <path
       d="m 177.75,172.89 c -0.15,0.76 0.12,1.47 0.61,1.59 0.49,0.12 1,-0.4 1.17,-1.16 0.17,-0.76 -0.12,-1.47 -0.61,-1.59 -0.49,-0.12 -1.02,0.41 -1.17,1.16 z"
       style="fill:#263238"
       id="path98" />
    <path
       d="m 186.25,174.92 c -0.16,0.76 0.12,1.46 0.61,1.58 0.49,0.12 1,-0.4 1.17,-1.16 0.17,-0.76 -0.13,-1.47 -0.62,-1.58 -0.49,-0.11 -1.01,0.4 -1.16,1.16 z"
       style="fill:#263238"
       id="path100" />
    <path
       d="m 183.42,174.86 a 24.57,24.57 0 0 0 1.52,6.36 c -1.4,0.71 -3.16,-0.36 -3.16,-0.36 z"
       style="fill:#ed847e"
       id="path102" />
    <path
       d="m 180.21,185.11 a 6.66,6.66 0 0 1 -4.29,-3 0.23,0.23 0 1 1 0.4,-0.22 6.37,6.37 0 0 0 4.82,2.88 0.21,0.21 0 0 1 0.2,0.24 0.22,0.22 0 0 1 -0.24,0.21 7.55,7.55 0 0 1 -0.89,-0.11 z"
       style="fill:#263238"
       id="path104" />
    <path
       d="m 176.63,169.83 a 0.46,0.46 0 0 1 -0.18,-0.13 0.46,0.46 0 0 1 0.06,-0.64 4.35,4.35 0 0 1 4,-0.9 0.4537896,0.4537896 0 1 1 -0.29,0.86 3.48,3.48 0 0 0 -3.13,0.74 0.45,0.45 0 0 1 -0.46,0.07 z"
       style="fill:#263238"
       id="path106" />
    <path
       d="m 187.3,170 a 0.55,0.55 0 0 1 0,-0.22 0.47,0.47 0 0 1 0.56,-0.32 4.37,4.37 0 0 1 3,2.78 0.45,0.45 0 0 1 -0.31,0.56 0.45,0.45 0 0 1 -0.56,-0.31 3.43,3.43 0 0 0 -2.39,-2.15 0.48,0.48 0 0 1 -0.3,-0.34 z"
       style="fill:#263238"
       id="path108" />
    <path
       d="m 147.81,207.88 c -1.92,5.48 -3.84,11.19 -5.55,16.79 -0.87,2.8 -1.66,5.61 -2.37,8.38 a 71.5,71.5 0 0 0 -1.6,8.08 c 0,0.3 -0.08,0.63 -0.09,0.92 v 0.44 c 0,0.14 0,0.35 0,0.28 0,-0.07 -0.08,0.06 0,0.27 a 5.71,5.71 0 0 0 1.21,2.06 30.79,30.79 0 0 0 5.8,5 129.85,129.85 0 0 0 15.05,8.74 l -2.14,6.16 a 79.29,79.29 0 0 1 -9.15,-2.58 73.35,73.35 0 0 1 -8.92,-3.73 36.93,36.93 0 0 1 -8.7,-5.91 16.88,16.88 0 0 1 -3.92,-5.41 11.88,11.88 0 0 1 -1,-4.16 c 0,-0.45 0,-0.61 0,-0.85 v -0.7 c 0,-0.47 0,-0.9 0,-1.35 a 67.72,67.72 0 0 1 1.25,-9.91 c 0.6,-3.16 1.35,-6.22 2.16,-9.26 a 178.07,178.07 0 0 1 5.81,-17.82 z"
       style="fill:#ffc3bd"
       id="path110" />
    <path
       d="m 145,194.09 c 9.78,-0.09 11.63,7.52 6.31,19.58 A 68.82,68.82 0 0 1 143.89,226 l -16.17,-8.59 c 2.16,-9.63 6.11,-23.22 17.28,-23.32 z"
       style="fill:#60a3ab"
       id="path112" />
    <path
       d="m 172,257.88 -3.58,-2 a 3.14,3.14 0 0 0 -1.92,-0.36 l -4.3,0.6 c -2.89,0.3 -5,2.51 -6.57,4.43 l -1.83,2.24 c -0.09,4.52 11.33,3.46 11.33,3.46 l 10,-0.13 -0.31,-3.94 a 5.44,5.44 0 0 0 -2.82,-4.3 z"
       style="fill:#ffc3bd"
       id="path114" />
  </g>
  <g
     id="freepik--Desk--inject-2"
     transform="translate(-56.110001,-95.510852)">
    <rect
       x="114.65"
       y="263.89001"
       width="270.69"
       height="12.67"
       style="fill:#60a3ab"
       id="rect117" />
    <rect
       x="114.65"
       y="263.89001"
       width="87.800003"
       height="12.67"
       style="opacity:0.3;fill:#ffffff"
       id="rect119" />
    <rect
       x="117.76"
       y="276.56"
       width="4.1399999"
       height="139.67999"
       style="fill:#60a3ab"
       id="rect121" />
    <rect
       x="117.76"
       y="276.56"
       width="4.1399999"
       height="139.67999"
       style="opacity:0.7;fill:#ffffff"
       id="rect123" />
    <rect
       x="195.21001"
       y="276.56"
       width="4.1399999"
       height="139.67999"
       style="fill:#60a3ab"
       id="rect125" />
    <rect
       x="195.21001"
       y="276.56"
       width="4.1399999"
       height="139.67999"
       style="opacity:0.7;fill:#ffffff"
       id="rect127" />
    <rect
       x="300.64999"
       y="276.56"
       width="4.1399999"
       height="139.67999"
       style="fill:#60a3ab"
       id="rect129" />
    <rect
       x="300.64999"
       y="276.56"
       width="4.1399999"
       height="139.67999"
       style="opacity:0.7;fill:#ffffff"
       id="rect131" />
    <rect
       x="378.10001"
       y="276.56"
       width="4.1399999"
       height="139.67999"
       style="fill:#60a3ab"
       id="rect133" />
    <rect
       x="378.10001"
       y="276.56"
       width="4.1399999"
       height="139.67999"
       style="opacity:0.7;fill:#ffffff"
       id="rect135" />
    <path
       d="m 356,207.89 h -74 a 5.6,5.6 0 0 0 -5.3,4.55 l -7.72,46.89 a 3.78,3.78 0 0 0 3.8,4.56 h 74 a 5.6,5.6 0 0 0 5.31,-4.56 l 7.72,-46.89 A 3.77,3.77 0 0 0 356,207.89 Z"
       style="fill:#263238"
       id="path137" />
    <rect
       x="238.50999"
       y="260.82999"
       width="71.330002"
       height="3.0599999"
       rx="0.82999998"
       style="fill:#263238"
       id="rect139" />
    <path
       d="m 356,207.89 h -72.38 a 5.6,5.6 0 0 0 -5.3,4.55 l -7.72,46.89 a 3.77,3.77 0 0 0 3.8,4.56 h 72.33 a 5.6,5.6 0 0 0 5.31,-4.56 l 7.72,-46.89 A 3.77,3.77 0 0 0 356,207.89 Z"
       style="opacity:0.2;fill:#ffffff"
       id="path141" />
    <path
       d="m 164.46,260.83 c 0,0 23.83,3.55 35.33,-1.14 5.38,2.59 24.54,3.87 31.21,1.14 -2.06,2.39 -6.9,3.06 -6.9,3.06 h -50.27 c -4.83,0 -8.52,-2.11 -9.37,-3.06 z"
       style="fill:#60a3ab"
       id="path143" />
    <path
       d="m 164.46,260.83 c 0,0 23.83,3.55 35.33,-1.14 5.38,2.59 24.54,3.87 31.21,1.14 -2.06,2.39 -6.9,3.06 -6.9,3.06 h -50.27 c -4.83,0 -8.52,-2.11 -9.37,-3.06 z"
       style="opacity:0.7;fill:#ffffff"
       id="path145" />
  </g>
</svg>
