<svg xmlns="http://www.w3.org/2000/svg" viewBox="0 0 500 500"><g id="freepik--background-complete--inject-191"><rect y="382.4" width="500" height="0.25" style="fill:#ebebeb"></rect><rect x="416.78" y="398.49" width="33.12" height="0.25" style="fill:#ebebeb"></rect><rect x="322.53" y="401.21" width="8.69" height="0.25" style="fill:#ebebeb"></rect><rect x="396.59" y="389.21" width="19.19" height="0.25" style="fill:#ebebeb"></rect><rect x="52.46" y="390.89" width="43.19" height="0.25" style="fill:#ebebeb"></rect><rect x="104.56" y="390.89" width="6.33" height="0.25" style="fill:#ebebeb"></rect><rect x="131.47" y="395.11" width="93.68" height="0.25" style="fill:#ebebeb"></rect><path d="M237,337.8H43.91a5.71,5.71,0,0,1-5.7-5.71V60.66A5.71,5.71,0,0,1,43.91,55H237a5.71,5.71,0,0,1,5.71,5.71V332.09A5.71,5.71,0,0,1,237,337.8ZM43.91,55.2a5.46,5.46,0,0,0-5.45,5.46V332.09a5.46,5.46,0,0,0,5.45,5.46H237a5.47,5.47,0,0,0,5.46-5.46V60.66A5.47,5.47,0,0,0,237,55.2Z" style="fill:#ebebeb"></path><path d="M453.31,337.8H260.21a5.72,5.72,0,0,1-5.71-5.71V60.66A5.72,5.72,0,0,1,260.21,55h193.1A5.71,5.71,0,0,1,459,60.66V332.09A5.71,5.71,0,0,1,453.31,337.8ZM260.21,55.2a5.47,5.47,0,0,0-5.46,5.46V332.09a5.47,5.47,0,0,0,5.46,5.46h193.1a5.47,5.47,0,0,0,5.46-5.46V60.66a5.47,5.47,0,0,0-5.46-5.46Z" style="fill:#ebebeb"></path><polygon points="82.66 89.54 54.64 117.55 66.35 117.55 66.35 131.66 98.96 131.66 98.96 117.55 110.67 117.55 82.66 89.54" style="fill:#e0e0e0"></polygon><rect x="66.35" y="133.56" width="32.61" height="7.18" style="fill:#e0e0e0"></rect><rect x="66.35" y="144.62" width="32.61" height="3.59" style="fill:#e0e0e0"></rect><rect x="66.35" y="153.64" width="32.61" height="1.8" style="fill:#e0e0e0"></rect><path d="M186.67,271.17l3.81-13.39a72,72,0,0,0,26.33-5.65l9,10.71L248,247.57l-6.81-12.19a71.78,71.78,0,0,0,14.69-22.58L269.71,214l4.9-26.47-13.4-3.81a71.88,71.88,0,0,0-5.65-26.34l10.71-9L251,126.27l-12.2,6.8a71.92,71.92,0,0,0-22.58-14.68l1.24-13.87L191,99.62,187.18,113a71.83,71.83,0,0,0-26.33,5.65l-9-10.71L129.7,123.22l6.81,12.2A71.78,71.78,0,0,0,121.82,158L108,156.76l-4.89,26.48,13.39,3.81a72,72,0,0,0,5.65,26.33l-10.71,9,15.27,22.19,12.19-6.81a71.89,71.89,0,0,0,22.58,14.69l-1.23,13.87ZM153,178.78a36.45,36.45,0,1,1,29.22,42.46A36.44,36.44,0,0,1,153,178.78Z" style="fill:#e0e0e0"></path><path d="M390.92,246.35a51.62,51.62,0,0,0-4.05-18.92l7.69-6.44-11-15.94-8.77,4.89a51.72,51.72,0,0,0-16.22-10.56l.89-10-19-3.52-2.73,9.63a51.43,51.43,0,0,0-18.92,4.06l-6.44-7.7-15.94,11,4.89,8.76a51.69,51.69,0,0,0-10.55,16.22l-10-.88-3.52,19,9.63,2.73A51.73,51.73,0,0,0,291,267.64l-7.7,6.43,11,15.94,8.76-4.89a51.65,51.65,0,0,0,16.23,10.56l-.89,10,19,3.52,2.73-9.63A51.48,51.48,0,0,0,359,295.47l6.44,7.7,15.93-11-4.88-8.76a51.69,51.69,0,0,0,10.55-16.22l10,.88,3.52-19Zm-26.24,5.94a26.19,26.19,0,1,1-21-30.51A26.19,26.19,0,0,1,364.68,252.29Z" style="fill:#e0e0e0"></path><path d="M291.08,323.54l9.16-7.66-13.06-19-10.43,5.82a61.45,61.45,0,0,0-19.31-12.56l1.05-11.87-22.65-4.18-3.25,11.46a61.44,61.44,0,0,0-22.53,4.83l-7.66-9.16-19,13.05,5.82,10.44A61.45,61.45,0,0,0,176.68,324L164.81,323l-4.18,22.65,11.46,3.25a61.44,61.44,0,0,0,4.83,22.53l-9.17,7.66,13.06,19,10.44-5.82a61.45,61.45,0,0,0,19.31,12.56l-1.06,11.87,22.65,4.18,3.26-11.46a61.44,61.44,0,0,0,22.53-4.83l7.66,9.16,19-13.05-5.82-10.44a61.51,61.51,0,0,0,12.56-19.31L303.19,372l4.18-22.66-11.46-3.25A61.44,61.44,0,0,0,291.08,323.54Zm-26.42,29.6a31.18,31.18,0,1,1-25-36.32A31.18,31.18,0,0,1,264.66,353.14Z" style="fill:#e0e0e0"></path><path d="M352.6,115.16a30.85,30.85,0,1,0-30.71,31A30.86,30.86,0,0,0,352.6,115.16Zm-19.49,17-11.34-11.23-11.22,11.33-5.64-5.59,11.22-11.33L304.8,104.11l5.59-5.65,11.33,11.23,11.22-11.33,5.65,5.58-11.23,11.34,11.33,11.22Z" style="fill:#e0e0e0"></path><path d="M387.35,286.05l5.39,5.4.8.79a28.18,28.18,0,0,1,4.2-4.79l-.5-.5-5.4-5.39a4.24,4.24,0,1,0-7.56-3.07,4.17,4.17,0,0,0-2.51,1.2,4.24,4.24,0,0,0,5.58,6.36Z" style="fill:#f0f0f0"></path><path d="M440.81,291.45l5.4-5.4a4.24,4.24,0,1,0,3.07-7.56,4.24,4.24,0,1,0-7.56,3.07l-5.4,5.39-.5.5a28.18,28.18,0,0,1,4.2,4.79Z" style="fill:#f0f0f0"></path><path d="M446.21,335.92l-5.4-5.39-5.93-5.94c-.48.21-1,.41-1.5.59v6.9l2.94,2.94,5.4,5.4a4.24,4.24,0,1,0,7.56,3.06,4.23,4.23,0,1,0-3.07-7.56Z" style="fill:#f0f0f0"></path><path d="M392.74,330.53l-5.39,5.39a4.24,4.24,0,0,0-5.58,6.37,4.16,4.16,0,0,0,2.51,1.19,4.23,4.23,0,1,0,7.56-3.06l5.4-5.4,2.94-2.94v-6.9c-.52-.18-1-.38-1.5-.59Z" style="fill:#f0f0f0"></path><path d="M442.38,308.24a25.6,25.6,0,0,0-51.2,0c0,9,4.64,13.14,11.63,15v11.32h4.55v-6.66h1.7v6.66h4v-6.66h1.7v6.66h4v-6.66h1.69v6.66h4v-6.66h1.7v6.66h4.54V323.22C437.74,321.38,442.38,317.22,442.38,308.24Zm-36.16,7a5.4,5.4,0,1,1,0-10.79l5.39,5.4A5.39,5.39,0,0,1,406.22,315.22Zm6.83,6.78,3.73-6.83,3.73,6.83Zm14.29-6.78a5.39,5.39,0,0,1-5.39-5.39l5.39-5.4a5.4,5.4,0,1,1,0,10.79Z" style="fill:#f0f0f0"></path><path d="M434.24,148.72l-19.15-33.17a7.59,7.59,0,0,0-13.16,0l-19.16,33.17a7.6,7.6,0,0,0,6.58,11.4h38.31A7.6,7.6,0,0,0,434.24,148.72Zm-22.82-21.28-1,18.14h-3.84l-.93-18.14Zm-2.87,27.4a3,3,0,1,1,0-6,3,3,0,0,1,3.06,3A3,3,0,0,1,408.55,154.84Z" style="fill:#e0e0e0"></path><polygon points="324.55 411.31 349.75 436.51 374.94 411.31 364.41 411.31 364.41 398.63 335.08 398.63 335.08 411.31 324.55 411.31" style="fill:#e0e0e0"></polygon><rect x="335.08" y="390.46" width="29.33" height="6.46" style="fill:#e0e0e0"></rect><rect x="335.08" y="383.74" width="29.33" height="3.23" style="fill:#e0e0e0"></rect><rect x="335.08" y="377.24" width="29.33" height="1.61" style="fill:#e0e0e0"></rect><polygon points="406.74 212.09 421.95 227.3 437.16 212.09 430.8 212.09 430.8 204.43 413.1 204.43 413.1 212.09 406.74 212.09" style="fill:#f0f0f0"></polygon><rect x="413.09" y="199.49" width="17.71" height="3.9" style="fill:#f0f0f0"></rect><rect x="413.09" y="195.44" width="17.71" height="1.95" style="fill:#f0f0f0"></rect><rect x="413.09" y="191.51" width="17.71" height="0.97" style="fill:#f0f0f0"></rect><rect x="103.61" y="257.65" width="6.14" height="32.46" style="fill:#e0e0e0;opacity:0.75"></rect><rect x="95.6" y="262.79" width="6.14" height="27.33" style="fill:#e0e0e0;opacity:0.75"></rect><rect x="87.6" y="270.17" width="6.14" height="19.95" style="fill:#e0e0e0;opacity:0.75"></rect><rect x="79.59" y="277.28" width="6.14" height="12.84" style="fill:#e0e0e0;opacity:0.75"></rect><rect x="71.58" y="282.85" width="6.14" height="7.26" style="fill:#e0e0e0;opacity:0.75"></rect><rect x="63.58" y="280.33" width="6.14" height="9.79" style="fill:#e0e0e0;opacity:0.75"></rect><rect x="55.57" y="282.73" width="6.14" height="7.39" style="fill:#e0e0e0;opacity:0.75"></rect><polygon points="99.34 252.38 100.24 253.27 72.65 278.33 64.47 271.77 52.79 279.74 52.79 282.88 64.35 275 72.75 281.75 102.08 255.1 102.94 255.95 104.09 251.19 99.34 252.38" style="fill:#e0e0e0;opacity:0.75"></polygon><path d="M104.21,386.54c0,3.9-5.3,7.1-11.9,7.15s-12-3.07-12-7,5.3-7.1,11.9-7.15S104.19,382.64,104.21,386.54Z" style="fill:#e6e6e6"></path><path d="M109.11,373.55a3.46,3.46,0,0,0,1.06-2.33c0-3.83-8.2-6.88-18.25-6.8s-18.17,3.24-18.14,7.07a3.46,3.46,0,0,0,1.09,2.32,2.85,2.85,0,0,0-.3,1.22,3.38,3.38,0,0,0,1.12,2.29,2.62,2.62,0,0,0-.32,1.26,3.24,3.24,0,0,0,1.14,2.27,2.6,2.6,0,0,0-.35,1.28,3.16,3.16,0,0,0,1.18,2.25,2.51,2.51,0,0,0-.39,1.29c0,3.19,6.82,5.72,15.17,5.66s15.11-2.7,15.08-5.88a2.5,2.5,0,0,0-.4-1.29,3.13,3.13,0,0,0,1.14-2.27,2.57,2.57,0,0,0-.36-1.27,3.23,3.23,0,0,0,1.1-2.29,2.71,2.71,0,0,0-.33-1.25,3.32,3.32,0,0,0,1.07-2.31A2.86,2.86,0,0,0,109.11,373.55Z" style="fill:#e0e0e0"></path><path d="M123.57,339.45a32.19,32.19,0,1,0-52.42,25.28,5.28,5.28,0,0,1,2,4.55,1.15,1.15,0,0,0,0,.26c0,3.89,8.32,7,18.52,6.91s18.45-3.29,18.42-7.18a2,2,0,0,0,0-.25,5.34,5.34,0,0,1,2-4.63A32.11,32.11,0,0,0,123.57,339.45Z" style="fill:#fafafa"></path><path d="M97.42,371.59h-.2a.85.85,0,0,1-.72-.94C96.59,370,98.4,357,105,351l-3.52,0a.85.85,0,0,1-.78-.51l-1.23-2.84-3.15,6.71a.83.83,0,0,1-.75.48.84.84,0,0,1-.76-.47l-3.34-6.85-3.17,6a.88.88,0,0,1-.74.44.84.84,0,0,1-.73-.43l-3.22-5.82-1.24,3a.82.82,0,0,1-.76.51l-4.11,0c2.69,3,8.33,10.36,8.4,19.67a.84.84,0,1,1-1.67,0C84.19,359.61,75.1,351.05,75,351a.86.86,0,0,1-.21-.92.84.84,0,0,1,.78-.53l5.5,0,1.69-4.06a.84.84,0,0,1,1.51-.09l3.3,6,3.23-6a.83.83,0,0,1,1.48,0l3.3,6.76,3.19-6.81a.87.87,0,0,1,.77-.48.84.84,0,0,1,.76.51l1.75,4,5.51,0a.83.83,0,0,1,.43,1.55c-7.67,4.56-9.82,19.88-9.84,20A.83.83,0,0,1,97.42,371.59Z" style="fill:#e6e6e6"></path><path d="M76.84,183.68a15.06,15.06,0,0,0-1.18-5.51l2.24-1.87-3.19-4.64-2.55,1.42A15.14,15.14,0,0,0,67.44,170l.25-2.9-5.53-1-.8,2.8a15.11,15.11,0,0,0-5.51,1.18L54,167.83,49.34,171l1.43,2.55a15.1,15.1,0,0,0-3.08,4.73l-2.9-.26-1,5.53,2.8.8a15.06,15.06,0,0,0,1.18,5.51l-2.24,1.87,3.19,4.64L51.25,195A15.08,15.08,0,0,0,56,198l-.26,2.9,5.54,1,.79-2.8A15.06,15.06,0,0,0,67.56,198l1.87,2.24L74.07,197l-1.42-2.55a15.08,15.08,0,0,0,3.07-4.73l2.9.26,1-5.53Zm-7.64,1.73a7.62,7.62,0,1,1-6.11-8.88A7.61,7.61,0,0,1,69.2,185.41Z" style="fill:#f0f0f0"></path><path d="M263.41,88.88a15.06,15.06,0,0,0-1.18-5.51l2.24-1.87-3.2-4.64-2.55,1.42A14.92,14.92,0,0,0,254,75.21l.26-2.9-5.54-1-.79,2.81a14.86,14.86,0,0,0-5.51,1.18L240.55,73l-4.64,3.19,1.42,2.55a15.14,15.14,0,0,0-3.07,4.72l-2.9-.26-1,5.54,2.8.8a15.05,15.05,0,0,0,1.18,5.5L232.08,97l3.19,4.64,2.55-1.43a15,15,0,0,0,4.72,3.07l-.26,2.9,5.54,1,.8-2.8a15,15,0,0,0,5.5-1.19l1.88,2.25,4.64-3.2-1.43-2.55A14.94,14.94,0,0,0,262.29,95l2.9.26,1-5.54Zm-7.64,1.73a7.62,7.62,0,1,1-6.11-8.88A7.63,7.63,0,0,1,255.77,90.61Z" style="fill:#f0f0f0"></path><path d="M159.76,296.44a15.06,15.06,0,0,0-1.18-5.51l2.24-1.88-3.19-4.64-2.55,1.43a14.9,14.9,0,0,0-4.73-3.07l.26-2.9-5.53-1-.8,2.8a15.07,15.07,0,0,0-5.51,1.19l-1.87-2.24-4.64,3.19,1.42,2.55a15.09,15.09,0,0,0-3.07,4.72l-2.9-.26-1,5.54,2.8.79a15.06,15.06,0,0,0,1.18,5.51l-2.24,1.87,3.19,4.64,2.55-1.42a15.08,15.08,0,0,0,4.73,3.07l-.26,2.9,5.53,1,.8-2.81a14.86,14.86,0,0,0,5.51-1.18l1.87,2.24,4.64-3.19-1.42-2.55a15.14,15.14,0,0,0,3.07-4.72l2.9.26,1-5.54Zm-7.64,1.72a7.62,7.62,0,1,1-6.11-8.88A7.61,7.61,0,0,1,152.12,298.16Z" style="fill:#f0f0f0"></path><path d="M155.48,413.37a15.06,15.06,0,0,0-1.18-5.51l2.24-1.87-3.19-4.64-2.55,1.42a15.08,15.08,0,0,0-4.73-3.07l.26-2.9-5.53-1-.8,2.81a15.06,15.06,0,0,0-5.51,1.18l-1.87-2.24L128,400.71l1.42,2.55a15.14,15.14,0,0,0-3.07,4.72l-2.9-.26-1,5.54,2.8.8a15.05,15.05,0,0,0,1.18,5.5l-2.24,1.88,3.19,4.64,2.55-1.43a14.9,14.9,0,0,0,4.73,3.07l-.26,2.91,5.53,1,.8-2.8a15.27,15.27,0,0,0,5.51-1.18l1.87,2.24,4.64-3.2-1.42-2.55a14.92,14.92,0,0,0,3.07-4.72l2.9.26,1-5.54Zm-7.64,1.73a7.62,7.62,0,1,1-6.11-8.88A7.62,7.62,0,0,1,147.84,415.1Z" style="fill:#f0f0f0"></path><path d="M371.49,337.06a21.75,21.75,0,0,0-1.69-7.91l3.21-2.69-4.58-6.66-3.66,2a21.81,21.81,0,0,0-6.78-4.41l.37-4.16-7.95-1.47-1.14,4a21.56,21.56,0,0,0-7.91,1.7l-2.68-3.22L332,318.89l2,3.66a21.4,21.4,0,0,0-4.41,6.78l-4.16-.38L324,336.9l4,1.14a21.75,21.75,0,0,0,1.69,7.91l-3.21,2.69,4.58,6.66,3.66-2a21.81,21.81,0,0,0,6.78,4.41l-.37,4.16,7.95,1.47,1.14-4a21.46,21.46,0,0,0,7.9-1.7l2.69,3.22,6.66-4.59-2-3.66a21.47,21.47,0,0,0,4.41-6.77l4.16.37,1.47-7.95Zm-11,2.48a10.95,10.95,0,1,1-8.78-12.75A10.95,10.95,0,0,1,360.53,339.54Z" style="fill:#f0f0f0"></path></g><g id="freepik--character-4--inject-191"><rect x="253.5" y="258.92" width="154.79" height="154.79" rx="8.89" style="fill:#60A3AB"></rect><rect x="253.5" y="258.92" width="154.79" height="154.79" rx="8.89" style="fill:#fff;opacity:0.7000000000000001"></rect><rect x="340.26" y="270.66" width="56.16" height="42.86" style="fill:#60A3AB"></rect><rect x="340.26" y="270.66" width="56.16" height="42.86" style="fill:#fff;opacity:0.2"></rect><path d="M392.86,273.58a1.17,1.17,0,1,0,1.16-1.16A1.16,1.16,0,0,0,392.86,273.58Z" style="fill:#fff;opacity:0.30000000000000004"></path><path d="M389.63,273.58a1.16,1.16,0,1,0,1.16-1.16A1.16,1.16,0,0,0,389.63,273.58Z" style="fill:#fff;opacity:0.30000000000000004"></path><path d="M386.39,273.58a1.17,1.17,0,1,0,1.17-1.16A1.16,1.16,0,0,0,386.39,273.58Z" style="fill:#fff;opacity:0.30000000000000004"></path><rect x="341.14" y="276.19" width="54.4" height="36.39" style="fill:#fff;opacity:0.5"></rect><rect x="341.14" y="293.74" width="38.57" height="0.64" style="fill:#fff;opacity:0.30000000000000004"></rect><rect x="346.42" y="294.85" width="38.57" height="0.64" style="fill:#fff;opacity:0.30000000000000004"></rect><rect x="351.7" y="300.91" width="43.85" height="0.64" style="fill:#fff;opacity:0.30000000000000004"></rect><rect x="351.74" y="280.43" width="43.85" height="0.64" style="fill:#fff;opacity:0.30000000000000004"></rect><rect x="341.14" y="306.97" width="49.12" height="0.64" style="fill:#fff;opacity:0.30000000000000004"></rect><rect x="363.65" y="294.06" width="29.22" height="0.47" style="fill:#fff;opacity:0.30000000000000004"></rect><rect x="366.05" y="310.99" width="29.22" height="0.47" style="fill:#fff;opacity:0.30000000000000004"></rect><rect x="361.34" y="301.91" width="29.22" height="0.47" style="fill:#fff;opacity:0.30000000000000004"></rect><rect x="341.14" y="279.24" width="29.22" height="0.47" style="fill:#fff;opacity:0.30000000000000004"></rect><rect x="343.93" y="299.64" width="2.83" height="0.47" style="fill:#fff;opacity:0.30000000000000004"></rect><rect x="381.81" y="305.56" width="2.83" height="0.47" style="fill:#fff;opacity:0.30000000000000004"></rect><rect x="360.73" y="310.99" width="2.83" height="0.47" style="fill:#fff;opacity:0.30000000000000004"></rect><rect x="377.49" y="291.85" width="2.83" height="0.47" style="fill:#fff;opacity:0.30000000000000004"></rect><rect x="345" y="286.47" width="2.83" height="0.47" style="fill:#fff;opacity:0.30000000000000004"></rect><rect x="355.88" y="308.12" width="2.83" height="0.47" style="fill:#fff;opacity:0.30000000000000004"></rect><rect x="381.81" y="282.04" width="2.83" height="0.47" style="fill:#fff;opacity:0.30000000000000004"></rect><rect x="357.78" y="288.63" width="2.83" height="0.47" style="fill:#fff;opacity:0.30000000000000004"></rect><rect x="351.02" y="277.26" width="2.83" height="0.47" style="fill:#fff;opacity:0.30000000000000004"></rect><g style="opacity:0.30000000000000004"><path d="M356.58,347.19l3.28,3.27.48.49a17.28,17.28,0,0,1,2.55-2.91l-.3-.31-3.28-3.28a2.57,2.57,0,0,0-3.86-3.38,2.48,2.48,0,0,0-.73,1.52,2.58,2.58,0,1,0,1.86,4.6Z"></path><path d="M386,348a17.28,17.28,0,0,1,2.55,2.91l.48-.49,3.28-3.27a2.58,2.58,0,1,0,1.86-4.6,2.48,2.48,0,0,0-.73-1.52,2.57,2.57,0,0,0-3.86,3.38l-3.28,3.28Z"></path><path d="M392.35,377.49l-3.28-3.28-3.61-3.61c-.29.13-.59.25-.91.36v4.2l1.79,1.78,3.28,3.28a2.57,2.57,0,0,0,3.86,3.39,2.53,2.53,0,0,0,.73-1.53,2.57,2.57,0,1,0-1.86-4.59Z"></path><path d="M364.38,375.16V371c-.32-.11-.62-.23-.91-.36l-3.61,3.61-3.28,3.28a2.58,2.58,0,0,0-3.39.21,2.61,2.61,0,0,0,0,3.66,2.57,2.57,0,0,0,1.53.72,2.53,2.53,0,0,0,.73,1.53,2.57,2.57,0,0,0,3.86-3.39l3.28-3.28Z"></path><path d="M374.47,345.11a15.56,15.56,0,0,0-15.56,15.56c0,5.45,2.82,8,7.07,9.1v6.88h2.76v-4h1v4h2.44v-4h1v4h2.45v-4h1v4h2.44v-4h1v4H383v-6.88c4.25-1.12,7.07-3.65,7.07-9.1A15.56,15.56,0,0,0,374.47,345.11Zm-6.42,19.8a3.28,3.28,0,1,1,0-6.55l3.27,3.27A3.27,3.27,0,0,1,368.05,364.91ZM372.2,369l2.27-4.15,2.26,4.15Zm8.68-4.12a3.27,3.27,0,0,1-3.27-3.28l3.27-3.27a3.28,3.28,0,1,1,0,6.55Z"></path></g><path d="M364.67,284.16l-10,17.39a4,4,0,0,0,3.45,6h20.07a4,4,0,0,0,3.45-6l-10-17.39A4,4,0,0,0,364.67,284.16Z" style="fill:#60A3AB"></path><text transform="translate(365.69 304.61)" style="font-size:20.3045597076416px;fill:#fff;font-family:Montserrat-SemiBold, Montserrat;font-weight:600">!</text><g style="opacity:0.5"><polygon points="264.26 338.26 275.31 349.31 286.36 338.26 281.74 338.26 281.74 332.7 268.88 332.7 268.88 338.26 264.26 338.26" style="fill:#60A3AB"></polygon><rect x="268.88" y="329.12" width="12.86" height="2.83" style="fill:#60A3AB"></rect><rect x="268.88" y="326.17" width="12.86" height="1.42" style="fill:#60A3AB"></rect><rect x="268.88" y="323.32" width="12.86" height="0.71" style="fill:#60A3AB"></rect></g><g style="opacity:0.5"><polygon points="297.25 294.04 308.3 305.09 319.36 294.04 314.74 294.04 314.74 288.47 301.87 288.47 301.87 294.04 297.25 294.04" style="fill:#60A3AB"></polygon><rect x="301.87" y="284.89" width="12.86" height="2.83" style="fill:#60A3AB"></rect><rect x="301.87" y="281.94" width="12.86" height="1.42" style="fill:#60A3AB"></rect><rect x="301.87" y="279.09" width="12.86" height="0.71" style="fill:#60A3AB"></rect></g><path d="M361,356.49l-6.69-.33c-1.18,5.62-2.2,11.33-3.43,16.77-.19.84-.39,1.68-.6,2.5-.59-.86-1.17-1.79-1.71-2.74-1.28-2.24-2.52-4.65-3.65-7.13s-2.23-5-3.28-7.59l-1.53-3.88-1.44-3.81-12.82,4.28c.51,1.56,1,2.93,1.52,4.35s1.08,2.83,1.66,4.22h0c.94,2.33,2,4.61,3.1,6.9.22.46.45.94.68,1.4a88.31,88.31,0,0,0,4.65,8.15,41,41,0,0,0,6.57,8,23.87,23.87,0,0,0,2.45,1.89,15,15,0,0,0,1.49.88c.28.14.53.28.84.4l.45.2.1,0,.39.14a7.26,7.26,0,0,0,.88.25,7.11,7.11,0,0,0,2.07.13,8.68,8.68,0,0,0,1-.18,6.47,6.47,0,0,0,.91-.3,7.08,7.08,0,0,0,1.46-.78,8.8,8.8,0,0,0,1-.79,9.11,9.11,0,0,0,1.71-2.37A14.88,14.88,0,0,0,360,384a41.72,41.72,0,0,0,.93-5c.2-1.57.31-3.1.42-4.62A121.11,121.11,0,0,0,361,356.49Z" style="fill:#263238"></path><path d="M332.17,370c-1.11-2.29-2.16-4.57-3.1-6.9a19.37,19.37,0,0,1,3.17-4S333.28,365.16,332.17,370Z" style="opacity:0.30000000000000004"></path><path d="M354,356.9l4.52,1.42c5.4.86,5.3-6.28,5.3-6.28l1.34-3.45a2.75,2.75,0,0,0-1.38-3.29l-3.15-1.83a2.86,2.86,0,0,0-3.94.73L355.07,347a5.68,5.68,0,0,0-.79,2.66Z" style="fill:#263238"></path><path d="M286.36,307.23s6.24-11.71,17.58-15A65.29,65.29,0,0,0,291,310.12Z" style="fill:#263238"></path><path d="M286.36,307.23s6.24-11.71,17.58-15A65.29,65.29,0,0,0,291,310.12Z" style="fill:#fff;opacity:0.5"></path><path d="M284.73,309.85S277,320.62,279,332.24a65.58,65.58,0,0,1,10.34-19.5Z" style="fill:#263238"></path><path d="M284.73,309.85S277,320.62,279,332.24a65.58,65.58,0,0,1,10.34-19.5Z" style="fill:#fff;opacity:0.5"></path><path d="M371.62,356.15l0,0a2.09,2.09,0,0,1-3,1.07L285.8,311.18l2.23-3.57,82.66,45.95A2.09,2.09,0,0,1,371.62,356.15Z" style="fill:#60A3AB"></path><rect x="285.46" y="306.21" width="5.34" height="7.89" transform="translate(-127.45 390.79) rotate(-58.09)" style="fill:#263238"></rect><rect x="285.46" y="306.21" width="5.34" height="7.89" transform="translate(-127.45 390.79) rotate(-58.09)" style="fill:#fff;opacity:0.30000000000000004"></rect><path d="M339.75,353.28c-7.45,10.63-10.52,14.86-14,23.83-4.06,10.44-6,18.48-7.25,21.2L309,396.6l-10.3-1.86c-8.55-1.55-17.94.62-24.58-.58,1.29-10.5,3.62-23.26,6.28-30.6.19-.53.39-1.06.58-1.57l.8-2.07h0a94.09,94.09,0,0,1,6.31-12.85c0-.07.09-.14.13-.22.89-1.51,2.24-2.66,3.19-4.09,5.45-8.19,20.54-11.36,36.78-2.4C339.75,346.75,339.75,353.28,339.75,353.28Z" style="fill:#263238"></path><path d="M301.06,350.09s-13.09,9.52-19.31,9.83a94.09,94.09,0,0,1,6.31-12.85c0-.07.09-.14.13-.22a20.53,20.53,0,0,1,3.19-4.09Z" style="opacity:0.30000000000000004"></path><path d="M309,396.6l-10.3-1.86c-8.55-1.55-17.94.62-24.58-.58,1.29-10.5,3.62-23.26,6.28-30.6l12.94,11.61s6.36.76,10.56,4.07C306.83,381.57,308.34,391.17,309,396.6Z" style="opacity:0.30000000000000004"></path><path d="M312.48,342.61h12.25c-.78-2.77.63-5.67,2.41-8.31l-7.64-13.47c-1,6.22-3.69,17.26-9.16,19.66C311.08,341.17,311.78,341.88,312.48,342.61Z" style="fill:#ffb573"></path><path d="M322.61,326.33l4.53,8a18.75,18.75,0,0,0-1.72,3c-2.34-1.25-4.76-5.19-4.08-7.88A9.18,9.18,0,0,1,322.61,326.33Z" style="opacity:0.2"></path><path d="M341,305c6,3.43,1.69,17.42-1.3,18.5C334.13,325.49,333.61,300.72,341,305Z" style="fill:#263238"></path><path d="M342.07,324.74v0a27.06,27.06,0,0,1-1.19,4.36c-3,8.05-13.68,10.6-19.21,3.43a8.76,8.76,0,0,1-.58-.82c-3-4.51-2.34-9.29-1.88-17.17a11.42,11.42,0,0,1,17-9.41C342.51,308.67,343.43,317.64,342.07,324.74Z" style="fill:#ffb573"></path><path d="M342.06,324.76a27.06,27.06,0,0,1-1.19,4.36c-3,8.05-13.68,10.6-19.21,3.43a8.76,8.76,0,0,1-.58-.82c.43-2.36,1.56-4.93,1.46-7.48-.17-4.33,1.3-5.25,1.3-5.25s0,3.59,1.19,5.12c0,0,4.29-1.79,6.57-1.41s3,3.6,3,3.6,2.54-.14,3.54,1.72A5.73,5.73,0,0,0,342.06,324.76Z" style="fill:#263238"></path><path d="M342.06,324.76a27.06,27.06,0,0,1-1.19,4.36c-3,8.05-13.68,10.6-19.21,3.43a8.76,8.76,0,0,1-.58-.82c.43-2.36,1.56-4.93,1.46-7.48-.17-4.33,1.3-5.25,1.3-5.25s0,3.59,1.19,5.12c0,0,4.29-1.79,6.57-1.41s3,3.6,3,3.6,2.54-.14,3.54,1.72A5.73,5.73,0,0,0,342.06,324.76Z" style="fill:#fff;opacity:0.4"></path><path d="M313.26,307.29c-.76,4.91,3.15,18.45,6.66,18.56s5.46-7.33,4.54-14.38c3-.51,20.67.92,17.6-7.81Z" style="fill:#263238"></path><path d="M331.5,318.4c-.08.68.21,1.27.65,1.32s.87-.45,1-1.12-.21-1.27-.65-1.32S331.58,317.73,331.5,318.4Z" style="fill:#263238"></path><path d="M339.14,319.33c-.08.68.21,1.27.65,1.32s.86-.45.95-1.12-.21-1.27-.65-1.32S339.22,318.66,339.14,319.33Z" style="fill:#263238"></path><path d="M336.67,319.37a24.29,24.29,0,0,0,2.52,6.17,3.93,3.93,0,0,1-3.3.22Z" style="fill:#ed893e"></path><path d="M329.28,314.42a.41.41,0,0,0,.3.1,3.2,3.2,0,0,1,2.71,1,.41.41,0,0,0,.56.07.4.4,0,0,0,.06-.56,4,4,0,0,0-3.4-1.31.41.41,0,0,0-.37.43A.44.44,0,0,0,329.28,314.42Z" style="fill:#263238"></path><path d="M343.6,315.19a.56.56,0,0,0,0-.12.42.42,0,0,0-.35-.45,4,4,0,0,0-3.44,1.22.4.4,0,1,0,.61.51,3.17,3.17,0,0,1,2.73-.93A.4.4,0,0,0,343.6,315.19Z" style="fill:#263238"></path><path d="M334.63,328.9s-3.79-3.52-4.72-3.59-3.16,2.12-2.87,2.57,5.26,2.74,5.26,2.74S332,329.33,334.63,328.9Z" style="fill:#fff"></path><path d="M313.1,316.3s-2.42-5.51-.41-8.68a1.53,1.53,0,0,1-2.24-1.25c-.38-2.09,4.79-4.51,4.79-4.51s8.12-6.63,12.49-6.25,17.21,3.28,16.12,13.73Z" style="fill:#263238"></path><path d="M313.88,320.21s14.18-10.51,30.08-6.92c0,0,.87-.58,1.05-1.1a6.3,6.3,0,0,0-.31-3.5c-.5-1.07-11.28-4.34-20.92-.52s-11.09,7.47-11.09,8.13S312.87,319.88,313.88,320.21Z" style="fill:#263238"></path><path d="M313.88,320.21s14.18-10.51,30.08-6.92c0,0,.87-.58,1.05-1.1a6.3,6.3,0,0,0-.31-3.5c-.5-1.07-11.28-4.34-20.92-.52s-11.09,7.47-11.09,8.13S312.87,319.88,313.88,320.21Z" style="fill:#fff;opacity:0.2"></path><path d="M314.34,323.25a8,8,0,0,0,4.5,4.08c2.64.93,4.13-1.38,3.55-4-.52-2.33-2.52-5.6-5.24-5.41S313.26,320.9,314.34,323.25Z" style="fill:#ffb573"></path><path d="M316.54,332.25s3.32,5,8.88,5c0,0,.61,3.16,3.2,3.95,0,0-12.21,14.72-20.32-3.95C308.3,337.29,313.76,336,316.54,332.25Z" style="fill:#263238"></path><path d="M304.61,348.93A156,156,0,0,0,287.69,352c-4.44,1.2-9.43,2.4-12.73,5.28-.27.29-.13.09-.11-.13,0-.4-.05-.5,0-.34.59,3,3.3,6,5.52,8.78,3.69,4.35,8,8.6,12.25,12.73l-3.9,5.44A92.3,92.3,0,0,1,273,372.82c-12.52-10.68-15.2-22.15,1.63-30.29,9.21-4.2,18.7-6,28.62-7l1.34,13.45Z" style="fill:#263238"></path><path d="M290.77,377.26,288,381.7c-1,5.37,6.12,5.49,6.12,5.49l3.4,1.45a2.77,2.77,0,0,0,3.34-1.28l1.93-3.09a2.89,2.89,0,0,0-.61-4l-2.73-1.73a5.74,5.74,0,0,0-2.64-.87Z" style="fill:#263238"></path><path d="M408.29,392.92v11.9a8.88,8.88,0,0,1-8.89,8.89h-137a8.88,8.88,0,0,1-8.89-8.89v-11.9Z" style="fill:#60A3AB"></path><path d="M306.12,400.38h-2.69v-1.27h6.88v1.27h-2.68v6.84h-1.51Z" style="fill:#fff"></path><path d="M318.65,399.11v8.11h-1.5v-3.48H313v3.48h-1.5v-8.11H313v3.35h4.2v-3.35Z" style="fill:#fff"></path><path d="M326.13,407.22l-1.65-2.38h-2.15v2.37h-1.5v-8.11h3.33c2.13,0,3.45,1.09,3.45,2.88a2.59,2.59,0,0,1-1.72,2.56l1.86,2.67Zm-2-6.84h-1.76v3.23h1.76c1.32,0,2-.6,2-1.62S325.41,400.38,324.09,400.38Z" style="fill:#fff"></path><path d="M335.37,406v1.27h-6.08v-8.11h5.92v1.26H330.8v2.11h3.91v1.24H330.8V406Z" style="fill:#fff"></path><path d="M342.31,405.34h-4.05l-.8,1.88h-1.55l3.64-8.11H341l3.66,8.11h-1.58Zm-.5-1.18-1.53-3.55-1.51,3.55Z" style="fill:#fff"></path><path d="M347,400.38h-2.69v-1.27h6.88v1.27h-2.69v6.84H347Z" style="fill:#fff"></path><path d="M351.53,406.36l.52-1.17a4.5,4.5,0,0,0,2.67.89c1.27,0,1.8-.45,1.8-1.05,0-1.75-4.82-.61-4.82-3.62,0-1.31,1-2.42,3.27-2.42a5.18,5.18,0,0,1,2.7.72l-.48,1.17a4.5,4.5,0,0,0-2.23-.64c-1.25,0-1.76.49-1.76,1.1,0,1.73,4.8.61,4.8,3.58,0,1.3-1.05,2.41-3.28,2.41A5.2,5.2,0,0,1,351.53,406.36Z" style="fill:#fff"></path></g><g id="freepik--character-3--inject-191"><rect x="253.5" y="94.76" width="154.79" height="154.79" rx="8.89" style="fill:#60A3AB"></rect><rect x="253.5" y="94.76" width="154.79" height="154.79" rx="8.89" style="fill:#fff;opacity:0.7000000000000001"></rect><polygon points="388.52 244.35 387.3 233.5 385.17 235.15 327.63 168.07 307.16 180.68 271.18 148.94 267.35 153.28 306.55 187.86 326.46 175.59 380.58 238.69 378.35 240.4 388.52 244.35" style="fill:#60A3AB;opacity:0.5"></polygon><path d="M357.42,207.53c2.33,4.9,4.75,10.58,8.44,14.39a3.5,3.5,0,0,0-1.29.2c2.06-.84,3.93-2.47,6-4,3.45-2.66,11.6-9.62,15.06-12.49a3,3,0,0,1,4.32,4c-4.27,5.91-16.62,22.39-23.82,23-9.8.73-16.51-13.06-19.65-20.64-2.53-7.3,7.73-11.42,11-4.44Z" style="fill:#e9b376"></path><path d="M362.76,213.67l-10.69,11.46L347,219.67l-7.42-8,7.53-9.33,6-7.43C358.3,200.24,362.76,213.67,362.76,213.67Z" style="fill:#60A3AB"></path><path d="M347,219.67l-7.42-8,7.53-9.33C347.64,205,348.8,212.82,347,219.67Z" style="isolation:isolate;opacity:0.2"></path><path d="M345.44,140.72a18.85,18.85,0,0,0-11.75,1.37c-5.56,2.87-5.58,17.81-9.69,19.07s-5.28,2.9-4.51,5.38-3.33,2.78-3.78,4a24.18,24.18,0,0,0-.78,2.93,4.87,4.87,0,0,1,5.7,2.13c2,3.39,5.92,8.32,10.28,8.31s8.51,2.49,12,4.07,8.59-3.67,11.88-5.64,3.17.76,6.58.19a5,5,0,0,0,4.18-3.08s-3.3-2.41-.93-6.66-4.67-8.73-2.54-14.26S357.94,142.37,345.44,140.72Z" style="fill:#263238"></path><path d="M368.29,177.65h-.05a4.39,4.39,0,0,1-2.52-1.64,2.38,2.38,0,0,1-.23-1.93c.07-.29.16-.57.24-.85.62-2.09,1.1-3.74-1.5-6.39-2.41-2.46-2.37-4.11-2.31-6.85,0-.85,0-1.8,0-2.92a.26.26,0,0,1,.25-.27.24.24,0,0,1,.28.25c.05,1.13,0,2.1,0,2.95-.06,2.69-.09,4.17,2.16,6.46,2.82,2.88,2.27,4.75,1.63,6.92q-.12.41-.24.84a1.9,1.9,0,0,0,.17,1.51,4,4,0,0,0,2.18,1.4.26.26,0,0,1-.06.52Z" style="fill:#263238"></path><path d="M314,170.26a.27.27,0,0,1-.26-.2.27.27,0,0,1,.2-.33s2.37-.6,3.14-1.9a1.59,1.59,0,0,0,.17-1.28c-.75-2.8,1.24-4.93,5.91-6.34,3.35-1,3.78-3.94,4.28-7.34a33.49,33.49,0,0,1,.74-3.91c1.49-5.55,4.88-8,10.07-7.33a.27.27,0,0,1-.07.53c-5-.65-8.06,1.62-9.49,6.94A31.67,31.67,0,0,0,328,153c-.51,3.43-1,6.66-4.66,7.77-4.34,1.31-6.2,3.22-5.54,5.69a2.17,2.17,0,0,1-.23,1.69c-.89,1.5-3.37,2.12-3.47,2.15Z" style="fill:#263238"></path><path d="M384.34,209.69l-1.11-9.95,8.74.43s1.75,6.84-3,10.24Z" style="fill:#ebb376"></path><polygon points="385.85 193.12 392.29 195 391.96 200.17 383.23 199.74 385.85 193.12" style="fill:#ebb376"></polygon><path d="M353.66,203.09c-13.93,21.63-18.81,33.26-21.26,44L295,235.72c1.23-5.84,2.26-10.57,3.2-14.73,1.1-4.75,2.07-8.74,3.12-12.74a107.41,107.41,0,0,1,3-10.4c.63-1.82,1.19-3.23,1.73-4.82,2.21-6.52,9.42-12.63,16.3-11.54,1.9.31,3.89.65,5.78,1a124.25,124.25,0,0,1,17,5.17c1.59.57,4.17,3.12,5.41,4.32C352.58,194,356.89,198.07,353.66,203.09Z" style="fill:#60A3AB"></path><path d="M324.45,179.55a27.74,27.74,0,0,1,7.86-.28c7.86.54,13.35,9.45,13.35,9.45s.61,7.68-2.48,12.6l-5-5.16-7.14,4.35S323,185.9,324.45,179.55Z" style="fill:#60A3AB"></path><path d="M324.45,179.55a27.74,27.74,0,0,1,7.86-.28c7.86.54,13.35,9.45,13.35,9.45s.61,7.68-2.48,12.6l-5-5.16-7.14,4.35S323,185.9,324.45,179.55Z" style="fill:#fff;opacity:0.7000000000000001"></path><path d="M336,165.81c-.85,5.24-3.25,14.42-8.07,15.83,0,0,2.46,6.92,10.3,13.26,4-2.86,3.81-8,3.81-8s-2.84-3.6.71-8.6Z" style="fill:#ebb376"></path><path d="M342.76,178.34a8.79,8.79,0,0,0-1.78,4.75c-4.49-1.8-6.3-5.72-6.91-9.51a47,47,0,0,0,1.94-7.77Z" style="isolation:isolate;opacity:0.1"></path><path d="M336.68,153.38c-2.51,9-3.76,12.8-1,19.09,4.17,9.45,15.47,11.08,20.55,3.11,4.57-7.18,7.9-20.75.72-27.67A12,12,0,0,0,336.68,153.38Z" style="fill:#ebb376"></path><path d="M357.05,163.74l1.87.16S357.59,165,357.05,163.74Z" style="fill:#263238"></path><path d="M352.43,163.85a23.19,23.19,0,0,0,1,5.8,3.16,3.16,0,0,1-2.7-.52Z" style="fill:#d58745"></path><path d="M351.5,156.75a.41.41,0,0,0-.33.11,3.35,3.35,0,0,1-3.07.89.42.42,0,0,0-.53.32.49.49,0,0,0,.34.57,4.19,4.19,0,0,0,3.89-1.08.48.48,0,0,0-.3-.81Z" style="fill:#263238"></path><path d="M357.76,158.48a.4.4,0,0,0-.32,0,.45.45,0,0,0-.28.58A4.8,4.8,0,0,0,360,162.2a.41.41,0,0,0,.54-.31.5.5,0,0,0-.32-.59,3.81,3.81,0,0,1-2.23-2.54A.45.45,0,0,0,357.76,158.48Z" style="fill:#263238"></path><path d="M357.05,163.74l-2.19,0a1.59,1.59,0,0,0,2.79.58Z" style="fill:#263238"></path><path d="M347.89,161.19l1.87.17S348.43,162.42,347.89,161.19Z" style="fill:#263238"></path><path d="M347.89,161.19H345.7a1.59,1.59,0,0,0,2.79.58Z" style="fill:#263238"></path><path d="M336.88,145.47s6.51-10.35,19.52-3.77,6,20,6,20l-2.62-1.85.23-5.22a7.64,7.64,0,0,1-4.43,3.41,12.82,12.82,0,0,0,3.88-4.18s-2.62,2.85-5.8,2.83L347,154.94a14.3,14.3,0,0,0,5.09-2.79s-6,2.88-10.71,3.27l-5,5.68-4.6-4.34S331.87,146.19,336.88,145.47Z" style="fill:#263238"></path><path d="M331.34,159.5a7.56,7.56,0,0,0,3,4.91c2.09,1.45,3.93-.46,4-3.07.08-2.36-.91-6-3.33-6.35S330.94,157,331.34,159.5Z" style="fill:#ebb376"></path><path d="M351.08,175s-1.11.16-2.5.26c-2.5.18-5.95.16-5.8-1.27a1.44,1.44,0,0,1,.55-1c1.32-1.1,4.71-.77,6.93-.45a3.51,3.51,0,0,0,0,1.14A2.89,2.89,0,0,0,351.08,175Z" style="fill:#263238"></path><path d="M348.58,175.3c-2.5.18-5.95.16-5.8-1.27a1.44,1.44,0,0,1,.55-1C345.3,173.38,347.93,174.06,348.58,175.3Z" style="fill:#a02724"></path><path d="M340.2,163.6s1.13,3.13-.09,3.1S340.2,163.6,340.2,163.6Z" style="fill:#fff"></path><path d="M338.13,166.21s1.12,3.13-.09,3.09S338.13,166.21,338.13,166.21Z" style="fill:#fff"></path><path d="M355.13,158.25s.59,3.27-.6,3S355.13,158.25,355.13,158.25Z" style="fill:#fff"></path><path d="M357.93,167.62s1,3.18-.24,3.08S357.93,167.62,357.93,167.62Z" style="fill:#fff"></path><path d="M345.42,164.73a3,3,0,0,1-.77-.1.23.23,0,0,1-.17-.29.24.24,0,0,1,.29-.18c2.09.54,3.81-1.78,3.83-1.8a.23.23,0,0,1,.33-.05.24.24,0,0,1,.06.33C348.92,162.74,347.44,164.73,345.42,164.73Z" style="fill:#ed893e"></path><path d="M356.9,167.2h0c-2,0-2.53-2.77-2.55-2.88a.24.24,0,0,1,.48-.08s.43,2.46,2.08,2.47a.25.25,0,0,1,0,.49Z" style="fill:#ed893e"></path><polygon points="333.05 249.81 332.39 247.11 295.02 235.72 290.34 249.81 333.05 249.81"></polygon><path d="M298.22,221c1.1-4.75,2.07-8.74,3.12-12.74a107.41,107.41,0,0,1,3-10.4,33.29,33.29,0,0,1,17.42,2.25S322.52,224.1,298.22,221Z" style="isolation:isolate;opacity:0.2"></path><path d="M301.13,224.41c0,.27,0,.46.06.79l.13.94c.05.33.12.52.18.79a23.4,23.4,0,0,0,1.8,4.67,73.07,73.07,0,0,0,4.25,7.33c1.5,2.29,3,4.52,4.64,6.69,1,1.42,2.09,2.81,3.16,4.19h8.94L319.42,241c-1.24-2.3-2.47-4.58-3.62-6.86s-2.27-4.57-3.09-6.74a15.22,15.22,0,0,1-.85-2.79,1.05,1.05,0,0,1,0-.18s0,0,0-.05,0-.14,0-.2,0-.17,0-.28c0-.41.13-1,.21-1.49.38-2.22,1-4.71,1.6-7.16,1.27-4.91,2.67-10,4-14.92l0-.08A5.92,5.92,0,0,0,306.35,197a145.29,145.29,0,0,0-4,15.79,78,78,0,0,0-1.19,8.46c0,.78-.09,1.55-.07,2.47C301.11,223.92,301.12,224.15,301.13,224.41Z" style="fill:#e9b376"></path><path d="M323.56,189.62c2.09,6.26-8.79,24.84-8.79,24.84l-15.56-7.76s6.76-17,10-20.52C313.25,181.7,319.69,178.05,323.56,189.62Z" style="fill:#60A3AB"></path><polygon points="299.21 204.26 316.43 213.41 314.93 215.83 298.23 207.26 299.21 204.26" style="fill:#60A3AB"></polygon><polygon points="299.21 204.26 316.43 213.41 314.93 215.83 298.23 207.26 299.21 204.26" style="fill:#fff;opacity:0.7000000000000001"></polygon><rect x="386.12" y="164.15" width="2.94" height="48.86" transform="translate(-12.59 28.44) rotate(-4.13)" style="fill:#263238"></rect><circle cx="385.82" cy="164.21" r="16.13" transform="matrix(0.96, -0.29, 0.29, 0.96, -30.83, 117.07)" style="fill:#60A3AB"></circle><polygon points="395.06 169.45 388.75 164 394.21 157.69 391.07 154.97 385.61 161.28 379.31 155.82 376.59 158.97 382.9 164.42 377.44 170.73 380.58 173.44 386.04 167.14 392.34 172.59 395.06 169.45" style="fill:#fff;opacity:0.7000000000000001"></polygon><polygon points="350.71 224.49 362.76 211.63 364.27 214.46 352.69 226.63 350.71 224.49" style="fill:#60A3AB"></polygon><polygon points="350.71 224.49 362.76 211.63 364.27 214.46 352.69 226.63 350.71 224.49" style="fill:#fff;opacity:0.7000000000000001"></polygon><rect x="268.29" y="134.73" width="28" height="59.67" rx="1.73" style="fill:#fff"></rect><path d="M276.94,128.66h10.69a1.15,1.15,0,0,1,1.15,1.15v3.31a0,0,0,0,1,0,0h-13a0,0,0,0,1,0,0V129.8A1.15,1.15,0,0,1,276.94,128.66Z" style="fill:#fff"></path><rect x="268.29" y="134.73" width="28" height="59.67" rx="1.73" style="opacity:0.4"></rect><rect x="270.45" y="137.06" width="23.67" height="6.92" style="fill:#263238;opacity:0.7000000000000001"></rect><rect x="270.45" y="145.07" width="23.67" height="6.92" style="fill:#263238;opacity:0.7000000000000001"></rect><rect x="270.45" y="153.08" width="23.67" height="6.92" style="fill:#263238;opacity:0.7000000000000001"></rect><rect x="270.45" y="161.09" width="23.67" height="6.92" style="fill:#263238;opacity:0.7000000000000001"></rect><rect x="270.45" y="169.1" width="23.67" height="6.92" style="fill:#263238;opacity:0.7000000000000001"></rect><rect x="270.45" y="177.11" width="23.67" height="6.92" style="fill:#263238;opacity:0.7000000000000001"></rect><rect x="270.45" y="185.12" width="23.67" height="6.92" style="fill:#60A3AB"></rect><rect x="270.45" y="185.12" width="23.67" height="6.92" style="fill:#fff;opacity:0.4"></rect><path d="M276.94,128.66h10.69a1.15,1.15,0,0,1,1.15,1.15v3.31a0,0,0,0,1,0,0h-13a0,0,0,0,1,0,0V129.8A1.15,1.15,0,0,1,276.94,128.66Z" style="opacity:0.4"></path><path d="M408.29,103.64v11.9H253.5v-11.9a8.88,8.88,0,0,1,8.89-8.88h137A8.88,8.88,0,0,1,408.29,103.64Z" style="fill:#60A3AB"></path><path d="M301.48,101.68l-2.68,8.11h-1.6l-2-6-2,6h-1.61l-2.69-8.11h1.56l2,6.16,2.09-6.16h1.39l2.05,6.2,2.08-6.2Z" style="fill:#fff"></path><path d="M308.79,108.53v1.26h-6.08v-8.11h5.92v1.26h-4.41v2.11h3.91v1.24h-3.91v2.24Z" style="fill:#fff"></path><path d="M315.73,107.91h-4.06l-.8,1.88h-1.55l3.65-8.11h1.48l3.66,8.11h-1.57Zm-.5-1.18-1.53-3.54-1.52,3.54Z" style="fill:#fff"></path><path d="M321.93,106.39l-1.28,1.32v2.08h-1.51v-8.11h1.51v4.16l4-4.16h1.69l-3.41,3.63,3.62,4.48h-1.77Z" style="fill:#fff"></path><path d="M334.79,101.68v8.11h-1.24l-4.47-5.49v5.49h-1.49v-8.11h1.23l4.47,5.49v-5.49Z" style="fill:#fff"></path><path d="M343.05,108.53v1.26H337v-8.11h5.91v1.26h-4.41v2.11h3.92v1.24h-3.92v2.24Z" style="fill:#fff"></path><path d="M344,108.93l.52-1.17a4.51,4.51,0,0,0,2.68.89c1.26,0,1.79-.45,1.79-1.05,0-1.75-4.82-.6-4.82-3.61,0-1.31,1.05-2.43,3.27-2.43a5.18,5.18,0,0,1,2.7.72l-.48,1.17a4.45,4.45,0,0,0-2.23-.63c-1.25,0-1.76.48-1.76,1.1,0,1.72,4.81.6,4.81,3.57,0,1.3-1.06,2.41-3.28,2.41A5.23,5.23,0,0,1,344,108.93Z" style="fill:#fff"></path><path d="M358.09,108.53v1.26H352v-8.11h5.92v1.26h-4.42v2.11h3.92v1.24h-3.92v2.24Z" style="fill:#fff"></path><path d="M359.08,108.93l.53-1.17a4.48,4.48,0,0,0,2.67.89c1.26,0,1.8-.45,1.8-1.05,0-1.75-4.82-.6-4.82-3.61,0-1.31,1-2.43,3.26-2.43a5.13,5.13,0,0,1,2.7.72l-.47,1.17a4.49,4.49,0,0,0-2.24-.63c-1.25,0-1.76.48-1.76,1.1,0,1.72,4.81.6,4.81,3.57,0,1.3-1.06,2.41-3.28,2.41A5.25,5.25,0,0,1,359.08,108.93Z" style="fill:#fff"></path><path d="M366.37,108.93l.52-1.17a4.51,4.51,0,0,0,2.68.89c1.26,0,1.79-.45,1.79-1.05,0-1.75-4.82-.6-4.82-3.61,0-1.31,1-2.43,3.27-2.43a5.18,5.18,0,0,1,2.7.72l-.48,1.17a4.48,4.48,0,0,0-2.23-.63c-1.25,0-1.76.48-1.76,1.1,0,1.72,4.8.6,4.8,3.57,0,1.3-1,2.41-3.27,2.41A5.21,5.21,0,0,1,366.37,108.93Z" style="fill:#fff"></path></g><g id="freepik--character-2--inject-191"><rect x="88.25" y="258.92" width="154.79" height="154.79" rx="8.89" style="fill:#60A3AB"></rect><rect x="88.25" y="258.92" width="154.79" height="154.79" rx="8.89" style="fill:#fff;opacity:0.7000000000000001"></rect><rect x="214.32" y="316.95" width="13.68" height="72.4" style="fill:#60A3AB"></rect><rect x="196.47" y="328.4" width="13.68" height="60.95" style="fill:#60A3AB;opacity:0.5"></rect><rect x="178.61" y="344.87" width="13.68" height="44.48" style="fill:#60A3AB;opacity:0.5"></rect><rect x="160.75" y="360.72" width="13.68" height="28.64" style="fill:#60A3AB;opacity:0.5"></rect><rect x="142.9" y="373.16" width="13.68" height="16.2" style="fill:#60A3AB;opacity:0.5"></rect><rect x="125.04" y="367.52" width="13.68" height="21.84" style="fill:#60A3AB;opacity:0.5"></rect><rect x="107.18" y="372.88" width="13.68" height="16.48" style="fill:#60A3AB;opacity:0.5"></rect><polygon points="204.8 305.2 206.8 307.18 145.27 363.08 127.04 348.43 100.98 366.21 100.98 373.22 126.76 355.63 145.5 370.69 210.92 311.26 212.83 313.15 215.39 302.54 204.8 305.2" style="fill:#60A3AB;opacity:0.75"></polygon><path d="M115.77,335.68l4.72-.26c4.54-2,1-7.4,1-7.4l-.68-3.29a2.5,2.5,0,0,0-2.68-1.83l-3.3.15a2.62,2.62,0,0,0-2.65,2.51l.12,2.93a5.19,5.19,0,0,0,.71,2.42Z" style="fill:#eec1bb"></path><path d="M150.51,337.26l-.37,17L150,359.8a86.59,86.59,0,0,1-8.48,5.48c-6.87,3.9-16.26,7.87-21.67,4.43-7.69-4.89-4.93-35.22-4.93-35.22l8.22-.15s2.18,22.91,3,23.18C127.81,358.05,150.51,337.26,150.51,337.26Z" style="fill:#263238"></path><path d="M150.14,354.26,150,359.8a86.59,86.59,0,0,1-8.48,5.48c2.08-6.29,8.2-12.13,8.2-12.13C149.89,353.52,150,353.9,150.14,354.26Z" style="opacity:0.2"></path><path d="M190.4,407.11a21.45,21.45,0,0,0-.62-2.8l.49-4.92-35.85-11.3L153,391.88a115.21,115.21,0,0,0-10,15.23Z" style="fill:#263238"></path><path d="M182.75,334.19s-21,10.39-19.22.88c0,0-7.75-.08-12.85,3,0,0-3,12.65-.05,46.68l-6,12.75,11.72,6.05,7.15-9.73,5.31,11.43,22.75-6.37-4.34-12.68s2.22-29.15,8.82-42.46C196,343.77,195,334.07,182.75,334.19Z" style="fill:#60A3AB"></path><g style="opacity:0.2"><path d="M182.75,334.19s-21,10.39-19.22.88c0,0-7.75-.08-12.85,3,0,0-3,12.65-.05,46.68l-6,12.75,11.72,6.05,7.15-9.73,5.31,11.43,22.75-6.37-4.34-12.68s2.22-29.15,8.82-42.46C196,343.77,195,334.07,182.75,334.19Z"></path></g><path d="M158.76,310.35a37.32,37.32,0,0,1-3,9.62s18.53,8.84,24.37,6.74,14.68-22.74,4.85-28.11S160.45,296.47,158.76,310.35Z" style="fill:#263238"></path><path d="M181.45,316.09c-1.45,5.37-3.25,15.2.24,18.78,0,0,4.76,3.82-9.41,3.38-1.23,2.95-5.9,9.25-5.9,9.25s-2.16-6-1.17-8.13c-9.11-.8-.21-4.51-.21-4.51,6.1-1.43,6.28-5.87,5.55-10Z" style="fill:#eec1bb"></path><path d="M177,319.65l-6.45,5.17a17.46,17.46,0,0,1,.29,3c2.31-.33,5.64-2.84,6.06-5.23A8.14,8.14,0,0,0,177,319.65Z" style="opacity:0.2"></path><path d="M189,310.49c-3.94,7.89-5.43,11.3-11.33,13.95-8.86,4-17.79-2-16.31-10.77,1.33-7.89,7.55-19.47,16.92-19.78A11.3,11.3,0,0,1,189,310.49Z" style="fill:#eec1bb"></path><path d="M183.59,302.42c2.91,7.25-8.48,11.39,1.08,13.68s9.52-12.14,4.77-16.77S183.59,302.42,183.59,302.42Z" style="fill:#263238"></path><path d="M175.44,308.12c-.3.68-.9,1.09-1.34.93s-.56-.84-.26-1.52.91-1.09,1.35-.93S175.74,307.44,175.44,308.12Z" style="fill:#263238"></path><path d="M167.07,305.19c-.3.68-.9,1.1-1.35.94s-.55-.84-.25-1.52.9-1.09,1.35-.93S167.37,304.52,167.07,305.19Z" style="fill:#263238"></path><path d="M167,303.79l-1.42-1.07S165.85,304.3,167,303.79Z" style="fill:#263238"></path><path d="M168.89,307.15a21.46,21.46,0,0,1-4.33,3.44c.52,1.16,2.21,1.33,2.21,1.33Z" style="fill:#d4827d"></path><path d="M178.68,303.35a.41.41,0,0,1-.26-.21,3.14,3.14,0,0,0-2.4-1.8.39.39,0,0,1-.36-.46.45.45,0,0,1,.49-.38,3.93,3.93,0,0,1,3.07,2.24.45.45,0,0,1-.22.57A.41.41,0,0,1,178.68,303.35Z" style="fill:#263238"></path><path d="M166.31,300.6a.39.39,0,0,1-.26-.17.43.43,0,0,1,.15-.59,4.55,4.55,0,0,1,4-.57.41.41,0,0,1,.2.55.47.47,0,0,1-.59.23,3.6,3.6,0,0,0-3.14.48A.47.47,0,0,1,166.31,300.6Z" style="fill:#263238"></path><path d="M175.37,306.71,174,305.65S174.22,307.22,175.37,306.71Z" style="fill:#263238"></path><path d="M181.68,296.89s-1.16,10.29,4.9,13.79,4.1-9.76,4.1-9.76.14-5.71-8.67-8.22-21.55,3.56-22.38,17.24a14.82,14.82,0,0,1,3.65-7.27C166.2,299.84,167.38,303.33,181.68,296.89Z" style="fill:#263238"></path><path d="M188.32,296.09c8.26,6.38,9.91,13.45,7.19,20S182.38,327.45,181,327.32l-4.36-.59s9-7.13,8.62-10.52-1.54-4-1.54-4Z" style="fill:#263238"></path><path d="M187.57,318.76a6.07,6.07,0,0,1-4.43,2.09c-2.09,0-2.3-2.5-1-4.54,1.15-1.83,3.62-4,5.38-3S189.1,317.08,187.57,318.76Z" style="fill:#eec1bb"></path><path d="M167.14,314.46a29.87,29.87,0,0,1,1.25,4c.24,0,.49,0,.74-.05,3.37-.25,4.85-1.48,5.46-2.77a4.64,4.64,0,0,0,.2-3.19c-1.7,1.2-4.82,1.68-6.5,1.87C167.59,314.44,167.14,314.46,167.14,314.46Z" style="fill:#263238"></path><path d="M168.29,314.36l.4,1.18c3.17-.25,5.37-.85,6.29-1.88a4.32,4.32,0,0,0-.19-1.17C173.09,313.69,170,314.17,168.29,314.36Z" style="fill:#fff"></path><path d="M169.13,318.45c3.37-.25,4.85-1.48,5.46-2.77a10.79,10.79,0,0,0-3.68,1A4,4,0,0,0,169.13,318.45Z" style="fill:#de5753"></path><path d="M174.25,378.12c1.11,6.83,4.59,19.22,7.5,29h14.34A112.57,112.57,0,0,0,188,385.67s1-7.63,2.58-16.91c.92-5.51,2-11.61,3.22-17,1.3-5.89,2.69-11,4-13.75,0,0-4.46-1.77-5.84-2.16s-5.78-1.23-5.78-1.23c-4.7,4.35-9.43,18.29-11.41,29.68a65,65,0,0,0-.94,8.44h0a31.49,31.49,0,0,0,.07,3.15C174,376.52,174.11,377.28,174.25,378.12Z" style="fill:#263238"></path><path d="M174.25,378.12c1.11,6.83,4.59,19.22,7.5,29h14.34A112.57,112.57,0,0,0,188,385.67s1-7.63,2.58-16.91c.92-5.51,2-11.61,3.22-17,1.3-5.89,2.69-11,4-13.75,0,0-4.46-1.77-5.84-2.16s-5.78-1.23-5.78-1.23c-4.7,4.35-9.43,18.29-11.41,29.68a65,65,0,0,0-.94,8.44h0a31.49,31.49,0,0,0,.07,3.15C174,376.52,174.11,377.28,174.25,378.12Z" style="fill:#fff;opacity:0.2"></path><path d="M179.35,348.6l2.25,5.75-1.63,4-6,14.78s0-.15-.08-.44h0a43.19,43.19,0,0,1-.54-8c.15-8.07,2.39-20.38,12.89-30.11,0,0-.32,5-1.51,15.7Z" style="fill:#263238"></path><path d="M149.45,378.76c.49,2.92.89,4.67.89,4.67l-11,23.68h4.94l10.2-23.68c-.06-1.73-.11-3.4-.14-5,0-3.55,0-6.83.12-9.89a.94.94,0,0,1,0-.12c0-.29,0-.6,0-.88,1.06-23.09,6.52-32.43,6.52-32.43-.57,0-1.15,0-1.71.07a0,0,0,0,0,0,0,31.25,31.25,0,0,0-8.75,2.06c-3.12,9.7-3.2,21.15-2.47,30.23C148.42,372,149,375.93,149.45,378.76Z" style="fill:#263238"></path><path d="M149.45,378.76c.49,2.92.89,4.67.89,4.67l-11,23.68h4.94l10.2-23.68c-.06-1.73-.11-3.4-.14-5,0-3.55,0-6.83.12-9.89a.94.94,0,0,1,0-.12c0-.29,0-.6,0-.88,1.06-23.09,6.52-32.43,6.52-32.43-.57,0-1.15,0-1.71.07a0,0,0,0,0,0,0,31.25,31.25,0,0,0-8.75,2.06c-3.12,9.7-3.2,21.15-2.47,30.23C148.42,372,149,375.93,149.45,378.76Z" style="fill:#fff;opacity:0.2"></path><path d="M154.44,368.53l-.2-1-3.19-16.4,2.83-2.89-5,2.89s6.59-14.49,9.33-15.59a9.09,9.09,0,0,1,1.08-.36,0,0,0,0,1,0,0,4,4,0,0,1,2.84-.06c-3.46,1.9-6.89,27-7.57,32.42-.06.42-.09.72-.12.88A.94.94,0,0,0,154.44,368.53Z" style="fill:#263238"></path><path d="M169.33,332.69s-4.68,3.26-4.12,6.68l-8,1.95S162,333.25,169.33,332.69Z" style="fill:#60A3AB"></path><path d="M183.55,342.78l-11.16-3.64s5.91-4.76,7.76-7.34l3.68,2.78h0C183.92,334.79,185,337.5,183.55,342.78Z" style="fill:#60A3AB"></path><path d="M169.33,332.69s-4.68,3.26-4.12,6.68l-8,1.95S162,333.25,169.33,332.69Z" style="opacity:0.30000000000000004"></path><path d="M183.55,342.78l-11.16-3.64s5.91-4.76,7.76-7.34l3.68,2.78h0C183.92,334.79,185,337.5,183.55,342.78Z" style="opacity:0.30000000000000004"></path><path d="M166.28,379.12l1.43-4.5c-.26-5-6.58-3.52-6.58-3.52l-3.32-.53a2.52,2.52,0,0,0-2.66,1.86l-1,3.14a2.61,2.61,0,0,0,1.4,3.36l2.78.93a5.22,5.22,0,0,0,2.51.2Z" style="fill:#eec1bb"></path><path d="M197.85,338c6.88,4,14.53,45.07,4.48,47.45s-36.82-5.58-36.82-5.58l1.2-7.37s24.8,2.93,27.13,1.9-1.59-15.33-1.59-15.33a55.87,55.87,0,0,1,2.56-16A14.63,14.63,0,0,1,197.85,338Z" style="fill:#263238"></path><path d="M127.58,323.35c-.53,2.27-4.08,3.39-7.92,2.5s-6.54-3.45-6-5.73,4.07-3.39,7.91-2.5S128.1,321.08,127.58,323.35Z" style="fill:#263238"></path><path d="M132.23,316.48a2,2,0,0,0,.94-1.21c.52-2.23-3.81-5.14-9.66-6.5s-11-.64-11.54,1.59a2.06,2.06,0,0,0,.31,1.5,1.77,1.77,0,0,0-.34.67,2,2,0,0,0,.33,1.49,1.6,1.6,0,0,0-.36.68,1.91,1.91,0,0,0,.35,1.48,1.58,1.58,0,0,0-.39.7,2,2,0,0,0,.37,1.47,1.51,1.51,0,0,0-.4.7c-.43,1.86,3.17,4.27,8,5.4s9.16.54,9.59-1.32a1.48,1.48,0,0,0-.06-.8,1.91,1.91,0,0,0,1-1.16,1.63,1.63,0,0,0,0-.79,2,2,0,0,0,1-1.18,1.55,1.55,0,0,0,0-.77,2,2,0,0,0,.95-1.2A1.73,1.73,0,0,0,132.23,316.48Z" style="fill:#263238"></path><path d="M132.23,316.48a2,2,0,0,0,.94-1.21c.52-2.23-3.81-5.14-9.66-6.5s-11-.64-11.54,1.59a2.06,2.06,0,0,0,.31,1.5,1.77,1.77,0,0,0-.34.67,2,2,0,0,0,.33,1.49,1.6,1.6,0,0,0-.36.68,1.91,1.91,0,0,0,.35,1.48,1.58,1.58,0,0,0-.39.7,2,2,0,0,0,.37,1.47,1.51,1.51,0,0,0-.4.7c-.43,1.86,3.17,4.27,8,5.4s9.16.54,9.59-1.32a1.48,1.48,0,0,0-.06-.8,1.91,1.91,0,0,0,1-1.16,1.63,1.63,0,0,0,0-.79,2,2,0,0,0,1-1.18,1.55,1.55,0,0,0,0-.77,2,2,0,0,0,.95-1.2A1.73,1.73,0,0,0,132.23,316.48Z" style="fill:#fff;opacity:0.30000000000000004"></path><path d="M145.39,298.66a19.25,19.25,0,1,0-34,7.4,3.13,3.13,0,0,1,.52,2.93c0,.05,0,.09,0,.15-.52,2.26,3.87,5.21,9.82,6.59s11.18.66,11.71-1.61l0-.14a3.19,3.19,0,0,1,1.78-2.42A19.24,19.24,0,0,0,145.39,298.66Z" style="fill:#60A3AB"></path><path d="M145.39,298.66a19.25,19.25,0,1,0-34,7.4,3.13,3.13,0,0,1,.52,2.93c0,.05,0,.09,0,.15-.52,2.26,3.87,5.21,9.82,6.59s11.18.66,11.71-1.61l0-.14a3.19,3.19,0,0,1,1.78-2.42A19.24,19.24,0,0,0,145.39,298.66Z" style="fill:#fff;opacity:0.9"></path><path d="M125.77,313.45l-.08,0a.23.23,0,0,1-.13-.3c.13-.35,3.24-8.26,8.24-10.44L131,302a.24.24,0,0,1-.18-.18l-.42-2.41-3.14,3.92a.2.2,0,0,1-.23.08.2.2,0,0,1-.17-.17l-1.11-5-3,3.42a.25.25,0,0,1-.23.07.23.23,0,0,1-.17-.17l-1.21-4.37-1.46,2a.24.24,0,0,1-.24.09l-3-.69c.94,1.62,3.77,7.15,2.42,12.95a.22.22,0,0,1-.27.17.24.24,0,0,1-.18-.28c1.55-6.67-2.61-13-2.65-13.07a.24.24,0,0,1,0-.26.26.26,0,0,1,.25-.09l3.38.79,1.65-2.27a.25.25,0,0,1,.23-.1.23.23,0,0,1,.18.17l1.22,4.42,3-3.43a.22.22,0,0,1,.23-.07.23.23,0,0,1,.16.17l1.1,4.94,3.16-3.95a.22.22,0,0,1,.24-.08.24.24,0,0,1,.17.18l.48,2.77,3.38.78a.22.22,0,0,1,.18.22.23.23,0,0,1-.16.23c-5.22,1.62-8.65,10.35-8.68,10.44A.25.25,0,0,1,125.77,313.45Z" style="fill:#263238"></path><path d="M138.56,285.73c-.81,3.66-5.75,5.69-11,4.53s-8.92-5.07-8.11-8.74,5.74-5.7,11-4.54S139.36,282.06,138.56,285.73Z" style="fill:#fff;opacity:0.2"></path><path d="M131.33,306.25c-.58,2.67-4.19,4.15-8,3.3s-6.51-3.7-5.92-6.37,4.19-4.16,8-3.31S131.92,303.57,131.33,306.25Z" style="fill:#fff;opacity:0.2"></path><path d="M243,392.92v11.9a8.88,8.88,0,0,1-8.89,8.89h-137a8.88,8.88,0,0,1-8.89-8.89v-11.9Z" style="fill:#60A3AB"></path><path d="M116.51,402.82a4.37,4.37,0,1,1,4.37,4.17A4.16,4.16,0,0,1,116.51,402.82Zm7.22,0a2.85,2.85,0,1,0-2.85,2.85A2.77,2.77,0,0,0,123.73,402.82Z" style="fill:#fff"></path><path d="M133.63,401.65c0,1.79-1.32,2.89-3.45,2.89h-1.83v2.34h-1.51v-8.11h3.34C132.31,398.77,133.63,399.86,133.63,401.65Zm-1.52,0c0-1-.68-1.61-2-1.61h-1.76v3.22h1.76C131.43,403.26,132.11,402.67,132.11,401.65Z" style="fill:#fff"></path><path d="M141.92,401.65c0,1.79-1.32,2.89-3.45,2.89h-1.83v2.34h-1.51v-8.11h3.34C140.6,398.77,141.92,399.86,141.92,401.65Zm-1.52,0c0-1-.68-1.61-2-1.61h-1.76v3.22h1.76C139.72,403.26,140.4,402.67,140.4,401.65Z" style="fill:#fff"></path><path d="M143,402.82a4.37,4.37,0,1,1,4.37,4.17A4.16,4.16,0,0,1,143,402.82Zm7.22,0a2.85,2.85,0,1,0-2.85,2.85A2.77,2.77,0,0,0,150.18,402.82Z" style="fill:#fff"></path><path d="M158.6,406.88l-1.66-2.38H154.8v2.37h-1.51v-8.11h3.34c2.13,0,3.45,1.09,3.45,2.88a2.59,2.59,0,0,1-1.73,2.56l1.87,2.67Zm-2-6.84H154.8v3.24h1.76c1.32,0,2-.61,2-1.63S157.88,400,156.56,400Z" style="fill:#fff"></path><path d="M163.29,400H160.6v-1.27h6.88V400h-2.69v6.84h-1.5Z" style="fill:#fff"></path><path d="M168.39,403.34v-4.57h1.51v4.52c0,1.66.75,2.38,2.06,2.38s2-.72,2-2.38v-4.52h1.48v4.57c0,2.37-1.33,3.65-3.54,3.65S168.39,405.71,168.39,403.34Z" style="fill:#fff"></path><path d="M184.8,398.77v8.11h-1.24l-4.47-5.49v5.49H177.6v-8.11h1.24l4.47,5.49v-5.49Z" style="fill:#fff"></path><path d="M187,398.77h1.51v8.11H187Z" style="fill:#fff"></path><path d="M192.32,400h-2.69v-1.27h6.88V400h-2.69v6.84h-1.5Z" style="fill:#fff"></path><path d="M197.65,398.77h1.5v8.11h-1.5Z" style="fill:#fff"></path><path d="M207.42,405.61v1.27h-6.08v-8.11h5.92V400h-4.41v2.11h3.91v1.24h-3.91v2.23Z" style="fill:#fff"></path><path d="M208.42,406l.52-1.17a4.5,4.5,0,0,0,2.67.89c1.27,0,1.8-.45,1.8-1.05,0-1.75-4.82-.6-4.82-3.62,0-1.3,1-2.42,3.27-2.42a5.12,5.12,0,0,1,2.69.72l-.47,1.17a4.49,4.49,0,0,0-2.24-.63c-1.25,0-1.76.48-1.76,1.09,0,1.73,4.81.61,4.81,3.58,0,1.3-1,2.41-3.28,2.41A5.2,5.2,0,0,1,208.42,406Z" style="fill:#fff"></path></g><g id="freepik--character-1--inject-191"><rect x="88.25" y="94.76" width="154.79" height="154.79" rx="8.89" style="fill:#60A3AB"></rect><rect x="88.25" y="94.76" width="154.79" height="154.79" rx="8.89" style="fill:#fff;opacity:0.7000000000000001"></rect><g style="opacity:0.5"><polygon points="231.87 156.91 212.54 137.58 193.22 156.91 201.3 156.91 201.3 166.64 223.79 166.64 223.79 156.91 231.87 156.91" style="fill:#60A3AB"></polygon><rect x="201.3" y="167.95" width="22.5" height="4.95" style="fill:#60A3AB"></rect><rect x="201.3" y="175.58" width="22.5" height="2.48" style="fill:#60A3AB"></rect><rect x="201.3" y="181.8" width="22.5" height="1.24" style="fill:#60A3AB"></rect></g><path d="M97.7,203.3l-2,1.67,2.85,4.14,2.27-1.27a13.43,13.43,0,0,0,4.21,2.74l-.23,2.59,4.94.91.71-2.5a13.53,13.53,0,0,0,4.91-1.05l1.67,2,4.14-2.85-1.27-2.28a13.32,13.32,0,0,0,2.74-4.21l2.58.23.92-4.93-2.5-.71a13.34,13.34,0,0,0-1.06-4.91l2-1.67-2.84-4.14-2.28,1.27a13.43,13.43,0,0,0-4.21-2.74l.23-2.59-4.94-.91-.7,2.5a13.63,13.63,0,0,0-4.92,1l-1.67-2-4.13,2.84,1.27,2.28A13.32,13.32,0,0,0,97.65,193l-2.59-.23-.91,4.93,2.5.71A13.33,13.33,0,0,0,97.7,203.3Zm5.76-6.45a6.8,6.8,0,1,1,5.45,7.92A6.8,6.8,0,0,1,103.46,196.85Z" style="fill:#60A3AB"></path><path d="M134.29,220.51l3.55.65.51-1.79a9.79,9.79,0,0,0,3.53-.76l1.2,1.44,3-2.05-.91-1.63a10,10,0,0,0,2-3l1.85.17.66-3.55-1.79-.51a9.79,9.79,0,0,0-.76-3.53l1.43-1.2-2-3-1.64.91a9.8,9.8,0,0,0-3-2l.17-1.85-3.55-.66-.51,1.79a9.75,9.75,0,0,0-3.53.76l-1.2-1.43-3,2,.91,1.64a9.62,9.62,0,0,0-2,3l-1.86-.17-.65,3.55,1.79.51a9.75,9.75,0,0,0,.76,3.53l-1.44,1.2,2.05,3,1.63-.91a9.67,9.67,0,0,0,3,2Zm-1-11.73a4.88,4.88,0,1,1,3.91,5.69A4.88,4.88,0,0,1,133.33,208.78Z" style="fill:#60A3AB;opacity:0.6000000000000001"></path><path d="M107,228.57a11.45,11.45,0,0,0,.9,4.2l-1.71,1.43,2.44,3.54,1.94-1.09a11.5,11.5,0,0,0,3.6,2.35l-.19,2.21,4.22.78.61-2.14a11.45,11.45,0,0,0,4.2-.9l1.43,1.71,3.54-2.44-1.09-1.94a11.47,11.47,0,0,0,2.34-3.6l2.22.19.78-4.22-2.14-.61a11.45,11.45,0,0,0-.9-4.2l1.71-1.43-2.44-3.53L126.54,220a11.47,11.47,0,0,0-3.6-2.34l.19-2.21-4.22-.78-.61,2.13a11.65,11.65,0,0,0-4.2.9l-1.43-1.7-3.54,2.43,1.09,2a11.36,11.36,0,0,0-2.34,3.6l-2.22-.2-.78,4.22Zm5.83-1.32a5.81,5.81,0,1,1,4.66,6.77A5.81,5.81,0,0,1,112.85,227.25Z" style="fill:#60A3AB;opacity:0.5"></path><g id="freepik--group--inject-191"><path d="M164.87,171.47c.18,1.68.1,3.16-.46,3.91a7.84,7.84,0,0,1-3.07,2.26c1,1.84,3.79,2.72,3.79,2.72h6.76s3.06.68,4.22,0c1-.54,2-1,2.88-1.66.46-.32,1.37.47,1.8.09a10,10,0,0,1-3.65-4.6c-1.18-3.83.08-16.89.08-16.89L163,163.19s.12.32.28.86A44.26,44.26,0,0,1,164.87,171.47Z" style="fill:#e4897b"></path><path d="M175,165.32s-3.07,6.37-10.12,6.15a44.26,44.26,0,0,0-1.64-7.42l.87-.32Z" style="isolation:isolate;opacity:0.2"></path><path d="M201.38,185.31A93.55,93.55,0,0,1,195.64,205a1.19,1.19,0,0,1-.08.2c-.57,1.31-1.19,2.61-1.87,3.86h0a39.12,39.12,0,0,1-2.34,3.88l-.57,10.78-.41,7.67-.51,9.55H141v-30.1s-7.9-20.2,1.07-36.91c0,0,9.8-2,29.35,1.21a99.35,99.35,0,0,1,18.22,5A115,115,0,0,1,201.38,185.31Z" style="fill:#e4897b"></path><path d="M190,249.05c-.06-4.13-.09-7-.1-8.08H141c-.38,2.16-.83,4.88-1.33,8.08Z" style="fill:#60A3AB"></path><path d="M190,249.05c-.06-4.13-.09-7-.1-8.08H141c-.38,2.16-.83,4.88-1.33,8.08Z" style="fill:#fff;opacity:0.2"></path><path d="M163,137.32c-2.57,2.46-2.86,6.61-3.25,9.24s-1.22,6,2.57,2.76S171.17,131.44,163,137.32Z" style="fill:#263238"></path><path d="M182.83,151.84c-2.09,8.7-1.08,10.33-6.32,14-7.89,5.56-19.07,5-19.09-4.23,0-8.28,1.71-23,10.94-24.88A12.34,12.34,0,0,1,182.83,151.84Z" style="fill:#ff8b7b"></path><path d="M180.89,157.64c-4.64-.65-3.79-2.45-3.47-2.85,1.41-1.77.38-4.72-.67-8.5s6.68-7.2,11.8-5.06C193.27,143.19,188.64,158.73,180.89,157.64Z" style="fill:#263238"></path><path d="M160.93,158.17s3.11,1.26,9.7,0c-1,1.91-2.67,3.42-6.32,3.19S160.93,158.17,160.93,158.17Z" style="fill:#fff"></path><path d="M185.82,158.42A8.13,8.13,0,0,1,181,162c-2.53.61-3.44-1.92-2.43-4.47.91-2.29,3.33-5.37,5.72-4.84S187.24,156.18,185.82,158.42Z" style="fill:#ff8b7b"></path><path d="M164.22,149.74a20.59,20.59,0,0,1-3.52,4.51,3.4,3.4,0,0,0,2.69,1Z" style="fill:#ff5652"></path><path d="M189.1,137.42c-1.52-3.18-16.93-7.35-23.39-5.88-3.33.75-4,3.55-3.36,5.28,2.33,6.16,7.61,3.51,7.61,3.51a7.18,7.18,0,0,1,9.67,3.18l9.37-1.22A5.08,5.08,0,0,0,189.1,137.42Z" style="fill:#263238"></path><path d="M171.88,150.21c-.12.74-.6,1.27-1.09,1.19s-.78-.76-.66-1.5.61-1.27,1.09-1.19S172,149.46,171.88,150.21Z" style="fill:#263238"></path><path d="M163.52,148.77c-.12.74-.61,1.27-1.09,1.19s-.78-.75-.66-1.49.6-1.28,1.09-1.19S163.64,148,163.52,148.77Z" style="fill:#263238"></path><path d="M174.9,148a.48.48,0,0,1-.38-.24,3.53,3.53,0,0,0-2.55-1.93.46.46,0,0,1-.4-.49.44.44,0,0,1,.48-.39,4.4,4.4,0,0,1,3.25,2.4.45.45,0,0,1-.18.6A.59.59,0,0,1,174.9,148Z" style="fill:#263238"></path><path d="M160.38,145.27a.41.41,0,0,1-.24-.08.45.45,0,0,1-.11-.62,4.37,4.37,0,0,1,3.52-1.91.44.44,0,0,1,.42.46.44.44,0,0,1-.45.42,3.42,3.42,0,0,0-2.77,1.55A.43.43,0,0,1,160.38,145.27Z" style="fill:#263238"></path><path d="M161.34,173.85s-.86,18.82-20.33,17.42a27.64,27.64,0,0,1-2.88-.37,33.85,33.85,0,0,1-10.68-4.15c-12.74-7.39-21.7-21.19-21.7-21.19,3.44-23.56,33.59-22.9,33.59-22.9l.44,7.08s-5.52,1.66-7.81,5.48c-1.55,2.59-6.84,5.79-9,7,1-.39,3-.76,6.58-.14,5.86,1,9.55,7.34,9.55,7.34s7.5-1.72,10.43-.45C156.1,171.86,161.34,173.85,161.34,173.85Z" style="fill:#e4897b"></path><path d="M137.73,142.67l-1.59,5.44c.47,5.93,8,4,8,4l4,.54a3,3,0,0,0,3.13-2.3l1.14-3.8a3.14,3.14,0,0,0-1.78-4l-3.36-1a6.31,6.31,0,0,0-3-.16Z" style="fill:#e4897b"></path><path d="M226.85,219.64c-8.77,17.28-29.19,13.71-36.48,11.78-1.67-.44-2.65-.79-2.65-.79l1.83-6.85s.47,0,1.23,0c1.88-.12,5.51-.61,7.93-2.67s8.39-3.32,10.8-3.8c-1.09.05-3.12-.22-6.32-1.95-5.22-2.83-6.7-10-6.7-10s-.35,0-.93-.11S194,205,193,204.8c-2.35-.44-5.24-1.2-6.54-2.38-5.31-4.8-9.64-8.37-9.64-8.37s3.35-8.61,11.55-11.18a10,10,0,0,1,1.3-2.66s21.72-4.05,23.82,12.92h0C222.88,204.19,226.85,219.64,226.85,219.64Z" style="fill:#ff8b7b"></path><path d="M193.22,210s-5.95-17.73,0-30.17l-8.06-1.16s-6.38,15.44-19.38,11.05-3.65-15.75-3.65-15.75l-4.71-2.45s-19.13,20.13-19.62,32.24l3.22,9-.31,30.12,49.67.29,1.82-30.41Z" style="fill:#263238"></path><path d="M173,214.25l-4.25.84c-4.81.94-7.74,6.63-6.54,12.7S168.22,238,173,237.08l4.25-.84c4.81-.94,7.73-6.63,6.54-12.7S177.75,213.31,173,214.25Z" style="fill:#263238"></path><path d="M173,214.25l-4.25.84c-4.81.94-7.74,6.63-6.54,12.7S168.22,238,173,237.08l4.25-.84c4.81-.94,7.73-6.63,6.54-12.7S177.75,213.31,173,214.25Z" style="fill:#fff;isolation:isolate;opacity:0.1"></path><path d="M183.81,223.54c1.19,6.07-1.73,11.76-6.54,12.7S167.6,233,166.41,227s1.73-11.77,6.54-12.71S182.62,217.46,183.81,223.54Z" style="fill:#fff;isolation:isolate;opacity:0.2"></path><path d="M191.64,217.56l-15.82,3.11c-1.87.37-3,2.58-2.54,4.94s2.35,4,4.22,3.6l15.82-3.11c1.87-.36,3-2.57,2.54-4.93S193.51,217.19,191.64,217.56Z" style="fill:#263238"></path><path d="M192.67,232l-.18-5.49c1.45-5.77-6.3-6.35-6.3-6.35l-3.62-1.79a3,3,0,0,0-3.7,1.19l-2.29,3.23a3.14,3.14,0,0,0,.42,4.35l2.85,2a6.18,6.18,0,0,0,2.82,1.11Z" style="fill:#e4897b"></path><path d="M195.62,209.79l-4.25.84c-4.81.94-7.73,6.63-6.54,12.71s6.06,10.23,10.86,9.28l4.25-.83c4.81-.95,7.74-6.64,6.54-12.71S200.42,208.85,195.62,209.79Z" style="fill:#263238"></path><path d="M195.62,209.79l-4.25.84c-4.81.94-7.73,6.63-6.54,12.71s6.06,10.23,10.86,9.28l4.25-.83c4.81-.95,7.74-6.64,6.54-12.71S200.42,208.85,195.62,209.79Z" style="fill:#fff;isolation:isolate;opacity:0.1"></path><path d="M206.48,219.08c1.2,6.07-1.73,11.76-6.54,12.71s-9.67-3.22-10.86-9.29,1.73-11.76,6.54-12.71S205.29,213,206.48,219.08Z" style="fill:#fff;isolation:isolate;opacity:0.2"></path><path d="M138.13,190.9a33.85,33.85,0,0,1-10.68-4.15c2.57-2.49,9.88-1.35,9.88-1.35Z" style="isolation:isolate;opacity:0.2"></path><path d="M196.49,205.33s-.35,0-.93-.11c-.57,1.31-1.19,2.61-1.87,3.86-.29-1.26-.52-2.87-.7-4.28-.21-1.79-.32-3.25-.32-3.25a5.89,5.89,0,0,0,3,3.47A4,4,0,0,0,196.49,205.33Z" style="isolation:isolate;opacity:0.2"></path></g><path d="M243,103.64v11.9H88.25v-11.9a8.88,8.88,0,0,1,8.89-8.88h137A8.87,8.87,0,0,1,243,103.64Z" style="fill:#60A3AB"></path><path d="M133.54,108.59l.52-1.17a4.5,4.5,0,0,0,2.67.89c1.26,0,1.8-.45,1.8-1,0-1.75-4.82-.6-4.82-3.61,0-1.31,1-2.42,3.27-2.42a5.11,5.11,0,0,1,2.69.71l-.47,1.17a4.59,4.59,0,0,0-2.24-.63c-1.25,0-1.76.48-1.76,1.1,0,1.72,4.81.6,4.81,3.58,0,1.29-1,2.4-3.28,2.4A5.2,5.2,0,0,1,133.54,108.59Z" style="fill:#fff"></path><path d="M143,102.62h-2.68v-1.28h6.87v1.28h-2.68v6.83H143Z" style="fill:#fff"></path><path d="M153.66,109.45,152,107.08h-2.15v2.36h-1.5v-8.11h3.33c2.14,0,3.46,1.09,3.46,2.89a2.6,2.6,0,0,1-1.73,2.56l1.86,2.66Zm-2-6.83h-1.76v3.23h1.76c1.33,0,2-.6,2-1.62S153,102.62,151.62,102.62Z" style="fill:#fff"></path><path d="M162.9,108.19v1.26h-6.08v-8.11h5.92v1.26h-4.41v2.11h3.91V106h-3.91v2.24Z" style="fill:#fff"></path><path d="M171.79,101.34v8.11h-1.24L166.08,104v5.49h-1.5v-8.11h1.24l4.47,5.49v-5.49Z" style="fill:#fff"></path><path d="M179.5,105.3h1.42v3.23a5.06,5.06,0,0,1-3.17,1,4.17,4.17,0,1,1,0-8.33,4.2,4.2,0,0,1,3.26,1.32l-.95.92a3,3,0,0,0-2.24-.92,2.85,2.85,0,1,0,0,5.69,3.28,3.28,0,0,0,1.67-.41Z" style="fill:#fff"></path><path d="M184.55,102.62h-2.69v-1.28h6.88v1.28h-2.69v6.83h-1.5Z" style="fill:#fff"></path><path d="M197.08,101.34v8.11h-1.51V106h-4.19v3.48h-1.5v-8.11h1.5v3.35h4.19v-3.35Z" style="fill:#fff"></path></g><g id="freepik--Label--inject-191"><circle cx="248.27" cy="254.23" r="52.69" style="fill:#60A3AB"></circle><path d="M248.27,301.86a47.63,47.63,0,1,1,47.62-47.63A47.68,47.68,0,0,1,248.27,301.86Zm0-93.22a45.6,45.6,0,1,0,45.6,45.59A45.64,45.64,0,0,0,248.27,208.64Z" style="fill:#fff"></path><path d="M212.46,259.26l1-2.33a8.91,8.91,0,0,0,5.32,1.78c2.5,0,3.56-.9,3.56-2.1,0-3.47-9.57-1.19-9.57-7.17,0-2.6,2.07-4.81,6.49-4.81a10.21,10.21,0,0,1,5.36,1.43l-1,2.32a8.93,8.93,0,0,0-4.43-1.26c-2.49,0-3.5,1-3.5,2.18,0,3.43,9.54,1.2,9.54,7.11,0,2.57-2.09,4.78-6.5,4.78A10.36,10.36,0,0,1,212.46,259.26Z" style="fill:#fff"></path><path d="M251.8,244.86,246.47,261h-3.18l-4-11.91-4,11.91h-3.2l-5.33-16.1h3.1l4,12.24L238,244.86h2.76l4.07,12.31L249,244.86Z" style="fill:#fff"></path><path d="M252.93,252.91c0-4.76,3.68-8.28,8.67-8.28s8.67,3.5,8.67,8.28-3.68,8.28-8.67,8.28S252.93,257.67,252.93,252.91Zm14.33,0a5.66,5.66,0,1,0-5.66,5.66A5.49,5.49,0,0,0,267.26,252.91Z" style="fill:#fff"></path><path d="M276.48,247.39h-5.34v-2.53H284.8v2.53h-5.33V261h-3Z" style="fill:#fff"></path></g></svg>