<?xml version="1.0" encoding="UTF-8" standalone="no"?>
<svg
   viewBox="0 0 387.78 356.52817"
   version="1.1"
   id="svg1922"
   width="387.78"
   height="356.52817"
   xmlns="http://www.w3.org/2000/svg"
   xmlns:svg="http://www.w3.org/2000/svg">
  <defs
     id="defs1926" />
  <g
     id="freepik--background-simple--inject-7"
     transform="translate(-56.110001,-71.031815)">
    <path
       d="m 85.54,113.63 c 27.92,-59.45 127.06,-51.06 165.32,-9.25 38.26,41.81 50.7,68.6 85.21,53 34.51,-15.6 78.52,-11.44 81,38.16 2.48,49.6 -37.87,108.25 -102.07,125.6 -64.2,17.35 -64.16,78.76 -149.1,66.37 -46.31,-6.76 -47.36,-56.86 -40.82,-98.3 6.54,-41.44 -71.91,-106.63 -39.54,-175.58 z"
       style="fill:#60a3ab"
       id="path1735" />
    <path
       d="m 85.54,113.63 c 27.92,-59.45 127.06,-51.06 165.32,-9.25 38.26,41.81 50.7,68.6 85.21,53 34.51,-15.6 78.52,-11.44 81,38.16 2.48,49.6 -37.87,108.25 -102.07,125.6 -64.2,17.35 -64.16,78.76 -149.1,66.37 -46.31,-6.76 -47.36,-56.86 -40.82,-98.3 6.54,-41.44 -71.91,-106.63 -39.54,-175.58 z"
       style="opacity:0.9;fill:#ffffff"
       id="path1737" />
  </g>
  <g
     id="freepik--Shadow--inject-7"
     transform="translate(-56.110001,-71.031815)">
    <ellipse
       id="freepik--path--inject-7"
       cx="250"
       cy="416.23999"
       rx="193.89"
       ry="11.32"
       style="fill:#f5f5f5" />
  </g>
  <g
     id="freepik--Blackboard--inject-7"
     transform="translate(-56.110001,-71.031815)">
    <path
       d="m 169,410.25 h 5.42 V 263.93 h 6.83 v 146.32 h 5.42 a 1.52,1.52 0 0 1 1.52,1.52 v 2.16 h -20.71 v -2.16 a 1.52,1.52 0 0 1 1.52,-1.52 z"
       style="fill:#263238"
       id="path1742" />
    <path
       d="m 297.08,410.25 h 5.42 V 263.93 h 6.83 v 146.32 h 5.42 a 1.52,1.52 0 0 1 1.52,1.52 v 2.16 h -20.71 v -2.16 a 1.52,1.52 0 0 1 1.52,-1.52 z"
       style="fill:#263238"
       id="path1744" />
    <g
       style="opacity:0.5"
       id="g1750">
      <path
         d="m 169,410.25 h 5.42 V 263.93 h 6.83 v 146.32 h 5.42 a 1.52,1.52 0 0 1 1.52,1.52 v 2.16 h -20.71 v -2.16 a 1.52,1.52 0 0 1 1.52,-1.52 z"
         style="fill:#ffffff"
         id="path1746" />
      <path
         d="m 297.08,410.25 h 5.42 V 263.93 h 6.83 v 146.32 h 5.42 a 1.52,1.52 0 0 1 1.52,1.52 v 2.16 h -20.71 v -2.16 a 1.52,1.52 0 0 1 1.52,-1.52 z"
         style="fill:#ffffff"
         id="path1748" />
    </g>
    <rect
       x="145.10001"
       y="130.60001"
       width="193.55"
       height="142.74001"
       transform="rotate(180,241.875,201.975)"
       style="fill:#263238"
       id="rect1752" />
    <rect
       x="145.10001"
       y="130.60001"
       width="193.55"
       height="142.74001"
       transform="rotate(180,241.875,201.975)"
       style="opacity:0.6;fill:#ffffff"
       id="rect1754" />
    <rect
       x="175.50999"
       y="110.2"
       width="132.74001"
       height="183.55"
       transform="rotate(90,241.875,201.975)"
       style="fill:#60a3ab"
       id="rect1756" />
    <rect
       x="175.50999"
       y="110.2"
       width="132.74001"
       height="183.55"
       transform="rotate(90,241.875,201.975)"
       style="opacity:0.2"
       id="rect1758" />
    <path
       d="m 164.63,202.69 c 1.55,-1.94 2.84,-4.1 4.56,-6 a 3.09,3.09 0 0 0 0.7,-1.25 7.36,7.36 0 0 1 4,0.61 c 4.84,2.17 9.25,5.84 13.08,9.47 0.82,0.77 1.66,1.5 2.5,2.23 -3.78,-4.22 -7.56,-8.45 -11.39,-12.63 a 6.12,6.12 0 0 1 -1.71,-4.41 42.14,42.14 0 0 1 5.83,-5.51 4,4 0 0 0 1,-1 5.71,5.71 0 0 1 3.86,2 c 8.19,8.9 16.3,17.64 25.35,25.62 -0.73,-1 -1.46,-2 -2.16,-3.07 -4.75,-7.05 -9.84,-13.82 -15.15,-20.46 -3.74,-4.67 -10.2,-10.43 -11.39,-16.63 q 0.36,-0.45 0.75,-0.9 c 0.33,-0.4 0.67,-0.78 1,-1.15 a 2.37,2.37 0 0 0 0.94,-0.37 c 1.59,-1 2.6,-3.16 1.33,-4.9 a 4.29,4.29 0 0 0 -1,-1 c -1.93,-2.42 -3.82,-4.88 -5.62,-7.41 a 3.54,3.54 0 0 1 -0.26,-0.41 c 1.29,-3.7 4.37,-6.39 7.37,-8.93 a 5.49,5.49 0 0 1 2.82,1.68 c 3.61,3.92 7.75,7.36 11.09,11.52 3.59,4.45 6.55,9.36 10,13.94 l 0.17,0.22 c 4.12,4.58 8.25,9.15 12.25,13.83 3.48,3.53 7,7 10.44,10.42 5.43,5.5 10.94,11 16.66,16.29 -1.42,-2.1 -2.84,-4.19 -4.3,-6.27 -6.44,-9.17 -13.59,-17.82 -20.48,-26.65 -3.4,-4.35 -6.51,-8.9 -9.8,-13.32 -2.6,-3.48 -6.49,-6.66 -8.53,-10.48 a 7,7 0 0 1 -0.8,-2.47 5,5 0 0 0 0.63,-0.67 18.31,18.31 0 0 1 6.23,-4.76 2.86,2.86 0 0 0 1.26,-1.19 6.8,6.8 0 0 1 2.61,1.42 100.06,100.06 0 0 1 9.13,9 22.22,22.22 0 0 1 -2.21,-4.93 c -1.62,-5.53 4.55,-9.6 9.29,-7.14 l 0.41,0.23 a 7,7 0 0 1 7.92,-4.58 c 1.83,-2.44 5,-3.72 7.91,-1.53 11.86,9.06 23.16,19.1 34.35,29 1,0.89 2,1.8 3,2.71 -1.93,-3 -4,-5.92 -6.26,-8.83 -2.57,-3.25 -6.15,-6.66 -7.52,-10.71 a 2.25,2.25 0 0 0 0.39,-0.3 36,36 0 0 0 7.22,-9.25 0.36,0.36 0 0 1 0,-0.09 c 5,1.12 10.22,4.35 14.44,6.78 a 106.3,106.3 0 0 1 15.46,11.02 4.28,4.28 0 0 0 0.27,1.54 6.76,6.76 0 0 0 0.4,0.81 v 0.89 a 15.19,15.19 0 0 0 -1,2.54 4.64,4.64 0 0 0 -1.9,1.66 5.08,5.08 0 0 0 -0.63,2.64 c 0,0.25 0.06,0.5 0.1,0.75 a 2.85,2.85 0 0 0 -1,1.44 6.42,6.42 0 0 1 -3.09,-1.51 q -2,-1.73 -4,-3.34 c 1.73,2.88 3.38,5.82 5.06,8.64 2.94,4.94 6,9.75 9.39,14.42 2.57,3.56 6,6.66 6.43,10.61 -2.39,2 -4.05,4.57 -6.12,6.91 -0.11,0.13 -0.2,0.27 -0.29,0.4 a 11.91,11.91 0 0 1 -6,-2.21 c 0.55,0.65 1.08,1.31 1.59,2 4.53,6.2 10.93,11.21 15,17.67 a 6.67,6.67 0 0 1 1,2.42 l -1.42,1.79 a 3.45,3.45 0 0 0 -0.69,3.39 l -0.1,0.08 0.5,0.6 v 0 a 7.5,7.5 0 0 1 1.42,2.92 32.77,32.77 0 0 1 -7,7.84 c -3.72,-0.28 -7,-2.7 -10.29,-4.59 q -3.36,-1.94 -6.68,-4 a 21.37,21.37 0 0 1 2.8,4.59 7.51,7.51 0 0 1 0.53,2 4.41,4.41 0 0 0 -0.53,0.35 52.59,52.59 0 0 0 -7.63,6.77 10.21,10.21 0 0 1 -1,-0.46 58.36,58.36 0 0 1 -6.27,-3.94 8.89,8.89 0 0 1 0.49,2.88 3.48,3.48 0 0 0 -2.79,0.85 c -1.8,1.54 -3.25,3.52 -5,5.09 a 5,5 0 0 1 -1.61,-0.71 c -4.71,-3.19 -8.7,-7.39 -13.2,-10.87 l -3.41,-2.6 a 6.75,6.75 0 0 1 0.32,2.78 3.28,3.28 0 0 0 -1.23,0.63 c -2.16,1.74 -4.27,3.53 -6.41,5.3 a 6.19,6.19 0 0 1 -1.53,-0.82 52.54,52.54 0 0 1 -6,-5 8.3,8.3 0 0 1 -0.24,1.1 2.67,2.67 0 0 0 -2.6,0.23 53.1,53.1 0 0 0 -5,4 c -2.49,-0.66 -4.22,-2.48 -6.23,-4 l -1,-0.79 a 5.33,5.33 0 0 1 -0.44,0.72 2.52,2.52 0 0 0 -1.8,0.43 25.3,25.3 0 0 0 -2.44,2.06 l -0.33,0.31 a 6,6 0 0 1 -2.57,-0.07 c -4.62,-1.23 -8.75,-4.42 -12.71,-7.21 0.78,0.91 1.56,1.81 2.32,2.74 2.89,3.55 7.13,7.41 8.6,11.9 a 3.6,3.6 0 0 0 -0.51,0.63 c -0.55,0.91 -1.17,1.82 -1.83,2.72 a 23.37,23.37 0 0 0 -5.81,4.8 8.07,8.07 0 0 1 -0.94,-0.33 c -4.65,-2 -8.12,-5.74 -11.6,-9.28 -2.49,-2.53 -4.88,-5.13 -7.21,-7.8 a 5.59,5.59 0 0 1 -0.52,1 3.43,3.43 0 0 0 -3.33,0.7 c -1,0.82 -2.09,1.58 -3.16,2.35 a 6.57,6.57 0 0 1 -4.86,-2.63 c -5.19,-6.74 -19.75,-25.15 -14.9,-35.55 a 31.29,31.29 0 0 1 -6,-8.06 7.69,7.69 0 0 1 -0.74,-1.91 z"
       style="opacity:0.1;fill:#ffffff"
       id="path1760" />
    <path
       d="m 320.73,202.05 c -1.55,1.95 -2.84,4.11 -4.56,6 a 3.21,3.21 0 0 0 -0.71,1.24 7.16,7.16 0 0 1 -4,-0.61 c -4.84,-2.17 -9.25,-5.84 -13.09,-9.46 -0.81,-0.77 -1.65,-1.5 -2.5,-2.24 3.79,4.22 7.56,8.45 11.39,12.63 a 6.15,6.15 0 0 1 1.72,4.42 42.72,42.72 0 0 1 -5.83,5.51 4.14,4.14 0 0 0 -1,1 5.69,5.69 0 0 1 -3.86,-2 C 290.12,209.69 282,201 273,193 c 0.72,1 1.46,2 2.16,3.07 4.75,7.05 9.84,13.83 15.14,20.46 3.75,4.68 10.21,10.43 11.4,16.63 -0.25,0.31 -0.49,0.61 -0.75,0.91 -0.26,0.3 -0.68,0.77 -1,1.14 a 2.72,2.72 0 0 0 -0.94,0.37 c -1.59,1.05 -2.6,3.16 -1.33,4.9 a 3.76,3.76 0 0 0 1,1 c 1.93,2.43 3.81,4.89 5.62,7.41 0.1,0.14 0.18,0.28 0.26,0.41 -1.3,3.71 -4.37,6.4 -7.37,8.94 a 5.46,5.46 0 0 1 -2.82,-1.68 c -3.62,-3.92 -7.75,-7.37 -11.09,-11.52 -3.59,-4.45 -6.55,-9.36 -10,-14 l -0.17,-0.21 c -4.11,-4.59 -8.24,-9.16 -12.24,-13.84 -3.49,-3.52 -7,-7 -10.44,-10.41 -5.43,-5.5 -10.94,-11 -16.66,-16.3 1.42,2.1 2.84,4.2 4.3,6.27 6.44,9.17 13.59,17.83 20.48,26.65 3.4,4.35 6.51,8.91 9.8,13.33 2.6,3.48 6.49,6.65 8.53,10.48 a 6.86,6.86 0 0 1 0.8,2.47 4.38,4.38 0 0 0 -0.63,0.66 18.28,18.28 0 0 1 -6.24,4.77 2.89,2.89 0 0 0 -1.25,1.19 6.89,6.89 0 0 1 -2.61,-1.43 98.85,98.85 0 0 1 -9.14,-8.95 22.46,22.46 0 0 1 2.22,4.93 c 1.62,5.53 -4.55,9.6 -9.29,7.15 l -0.41,-0.23 a 7,7 0 0 1 -7.92,4.58 c -1.83,2.44 -5,3.72 -7.91,1.52 -11.86,-9.06 -23.16,-19.09 -34.36,-29 l -3,-2.72 a 106.92,106.92 0 0 0 6.26,8.83 c 2.57,3.26 6.15,6.66 7.51,10.71 -0.13,0.1 -0.26,0.18 -0.39,0.3 a 36.39,36.39 0 0 0 -7.21,9.25 c 0,0 0,0.06 0,0.09 -5,-1.12 -10.22,-4.35 -14.45,-6.78 a 106,106 0 0 1 -15.35,-11.09 4.19,4.19 0 0 0 -0.27,-1.53 7.61,7.61 0 0 0 -0.4,-0.81 c 0,-0.3 0,-0.6 0,-0.9 a 13.86,13.86 0 0 0 1,-2.54 4.56,4.56 0 0 0 1.9,-1.66 5.06,5.06 0 0 0 0.63,-2.64 c 0,-0.25 -0.06,-0.49 -0.1,-0.74 a 2.9,2.9 0 0 0 1,-1.45 6.55,6.55 0 0 1 3.1,1.51 c 1.32,1.15 2.66,2.26 4,3.35 -1.72,-2.89 -3.38,-5.83 -5,-8.64 -2.94,-5 -6,-9.75 -9.4,-14.42 -2.56,-3.57 -6,-6.67 -6.42,-10.61 2.39,-2 4,-4.57 6.12,-6.92 a 2.92,2.92 0 0 0 0.29,-0.4 12.1,12.1 0 0 1 6,2.21 c -0.55,-0.65 -1.09,-1.31 -1.59,-2 -4.53,-6.21 -10.93,-11.21 -15,-17.67 a 6.82,6.82 0 0 1 -1,-2.42 l 1.42,-1.8 a 3.46,3.46 0 0 0 0.69,-3.38 0.39,0.39 0 0 1 0.1,-0.08 l -0.5,-0.6 v 0 a 7.7,7.7 0 0 1 -1.43,-2.93 32.78,32.78 0 0 1 7,-7.83 c 3.72,0.27 7,2.69 10.29,4.58 2.24,1.29 4.47,2.61 6.68,4 a 21.2,21.2 0 0 1 -2.8,-4.6 7.35,7.35 0 0 1 -0.53,-2 4.8,4.8 0 0 0 0.52,-0.36 52.07,52.07 0 0 0 7.64,-6.76 7.1,7.1 0 0 1 1,0.46 59.87,59.87 0 0 1 6.27,3.93 8.59,8.59 0 0 1 -0.49,-2.88 3.49,3.49 0 0 0 2.79,-0.84 c 1.8,-1.54 3.25,-3.53 5,-5.1 a 5.25,5.25 0 0 1 1.61,0.71 c 4.71,3.19 8.7,7.39 13.2,10.88 q 1.69,1.31 3.41,2.59 a 6.54,6.54 0 0 1 -0.32,-2.77 3.46,3.46 0 0 0 1.23,-0.64 c 2.16,-1.74 4.27,-3.53 6.4,-5.3 a 6.78,6.78 0 0 1 1.54,0.82 53.68,53.68 0 0 1 6,5 6.85,6.85 0 0 1 0.24,-1.11 2.64,2.64 0 0 0 2.6,-0.22 51.8,51.8 0 0 0 5,-4.06 c 2.5,0.67 4.23,2.48 6.24,4 l 1,0.79 a 4.78,4.78 0 0 1 0.44,-0.72 2.53,2.53 0 0 0 1.8,-0.43 24,24 0 0 0 2.44,-2.07 l 0.33,-0.3 a 6,6 0 0 1 2.57,0.06 c 4.61,1.24 8.74,4.42 12.7,7.22 -0.77,-0.91 -1.55,-1.82 -2.31,-2.74 -2.89,-3.56 -7.13,-7.41 -8.6,-11.91 a 3.68,3.68 0 0 0 0.51,-0.63 c 0.55,-0.9 1.17,-1.82 1.82,-2.71 a 23.46,23.46 0 0 0 5.82,-4.8 6.44,6.44 0 0 1 0.93,0.33 c 4.65,2 8.13,5.74 11.61,9.28 q 3.72,3.8 7.2,7.8 a 5.64,5.64 0 0 1 0.53,-1 3.43,3.43 0 0 0 3.33,-0.7 c 1,-0.82 2.08,-1.59 3.16,-2.36 a 6.57,6.57 0 0 1 4.86,2.63 c 5.19,6.75 19.75,25.16 14.9,35.56 a 31.18,31.18 0 0 1 6,8.06 7.89,7.89 0 0 1 0.52,2 z"
       style="opacity:0.1;fill:#ffffff"
       id="path1762" />
    <g
       style="opacity:0.6"
       id="g1818">
      <path
         d="m 296.27,233.29 a 1.49,1.49 0 0 0 -1.09,0.58 l -0.21,-2.34 -0.67,0.06 0.52,5.6 0.59,-0.06 v -0.47 a 1.52,1.52 0 0 0 1.17,0.44 1.78,1.78 0 0 0 1.52,-2.1 1.76,1.76 0 0 0 -1.83,-1.71 z m 0.22,3.22 c -0.54,0.05 -1.12,-0.29 -1.21,-1.21 a 1.15,1.15 0 0 1 1,-1.4 c 0.64,-0.06 1.09,0.46 1.16,1.2 a 1.16,1.16 0 0 1 -0.95,1.41 z"
         style="fill:#ffffff"
         id="path1764" />
      <path
         d="m 166.32,215.29 a 1.47,1.47 0 0 0 -1.13,0.47 v -2.34 h -0.68 V 219 h 0.6 l 0.08,-0.47 a 1.55,1.55 0 0 0 1.13,0.54 1.78,1.78 0 0 0 1.68,-1.87 1.76,1.76 0 0 0 -1.68,-1.91 z m -0.08,3.22 c -0.54,0 -1.09,-0.39 -1.09,-1.31 a 1.16,1.16 0 0 1 1.09,-1.31 c 0.65,0 1,0.56 1,1.31 0,0.75 -0.35,1.31 -1,1.31 z"
         style="fill:#ffffff"
         id="path1766" />
      <path
         d="m 279.68,234.37 c -0.81,0.08 -1.24,-0.41 -1.32,-1.21 a 1.13,1.13 0 0 1 1.08,-1.41 2.11,2.11 0 0 1 1,0.14 v -0.62 a 2.41,2.41 0 0 0 -1.15,-0.11 1.75,1.75 0 0 0 -1.64,2.07 1.76,1.76 0 0 0 2,1.73 1.88,1.88 0 0 0 1.09,-0.37 l -0.14,-0.53 a 2.14,2.14 0 0 1 -0.92,0.31 z"
         style="fill:#ffffff"
         id="path1768" />
      <path
         d="m 166.2,226.89 a 2.22,2.22 0 0 1 1,0.22 l 0.1,-0.6 a 2.39,2.39 0 0 0 -1.13,-0.22 1.73,1.73 0 0 0 -1.82,1.9 1.77,1.77 0 0 0 1.83,1.92 1.79,1.79 0 0 0 1.11,-0.28 l -0.09,-0.54 a 2.06,2.06 0 0 1 -1,0.23 c -0.81,0 -1.2,-0.53 -1.2,-1.33 0,-0.8 0.39,-1.3 1.2,-1.3 z"
         style="fill:#ffffff"
         id="path1770" />
      <path
         d="m 262.29,232 -0.07,-0.75 c -0.12,-1.32 -0.52,-1.72 -1.45,-1.63 a 2.16,2.16 0 0 0 -1.2,0.5 l 0.15,0.53 a 1.64,1.64 0 0 1 0.93,-0.42 c 0.51,0 0.81,0.08 0.87,0.77 -0.93,0.1 -2.16,0.48 -2.06,1.51 a 1.06,1.06 0 0 0 1.23,1 1.48,1.48 0 0 0 1.06,-0.64 c 0.19,0.32 0.34,0.5 1,0.44 h 0.06 l 0.05,-0.55 h -0.07 c -0.39,-0.01 -0.45,-0.25 -0.5,-0.76 z m -1.53,0.92 a 0.51,0.51 0 0 1 -0.62,-0.51 c -0.05,-0.54 0.36,-0.81 1.43,-0.94 l 0.08,0.87 a 1.21,1.21 0 0 1 -0.89,0.57 z"
         style="fill:#ffffff"
         id="path1772" />
      <path
         d="m 165.37,208.12 a 1.46,1.46 0 0 0 1.13,-0.54 c 0.15,0.34 0.29,0.54 0.94,0.54 h 0.05 l 0.11,-0.54 h -0.07 c -0.39,0 -0.42,-0.25 -0.42,-0.78 v -0.74 c 0,-1.33 -0.37,-1.77 -1.3,-1.77 a 2.08,2.08 0 0 0 -1.24,0.39 l 0.1,0.54 a 1.6,1.6 0 0 1 1,-0.33 c 0.51,0 0.8,0.15 0.8,0.85 -0.94,0 -2.2,0.28 -2.2,1.31 a 1.05,1.05 0 0 0 1.1,1.07 z m 1.07,-1.91 v 0.87 a 1.2,1.2 0 0 1 -0.94,0.5 0.51,0.51 0 0 1 -0.57,-0.57 c 0,-0.54 0.44,-0.77 1.51,-0.8 z"
         style="fill:#ffffff"
         id="path1774" />
      <path
         d="m 202.24,190.5 a 23.13,23.13 0 0 0 2.75,-0.79 21.22,21.22 0 0 0 13.47,-14.29 19.07,19.07 0 0 0 0.34,-8.3 l 1,-0.22 a 0.51195703,0.51195703 0 1 0 -0.22,-1 l -1,0.22 c -2.14,-9.35 -10.72,-16.24 -20.08,-16.07 a 19,19 0 0 0 -3.22,0.33 v -0.06 a 0.49,0.49 0 0 0 -0.59,-0.38 0.5,0.5 0 0 0 -0.38,0.6 v 0.06 a 20.17,20.17 0 0 0 -14.33,14 c -2.74,8.88 0.06,17.86 7.15,22.89 a 18.79,18.79 0 0 0 15.11,3.01 z m 15.38,-24.15 -11.62,2.56 a 15.51,15.51 0 0 0 -1.69,0.51 c -1.69,0.57 -3.6,1.22 -4.75,0.4 -1.33,-0.95 -1.67,-4.34 -1.88,-7 a 0.49,0.49 0 0 0 0.35,0.33 0.41,0.41 0 0 0 0.22,0 0.5,0.5 0 0 0 0.38,-0.37 28.78,28.78 0 0 1 5,-10.5 0.48,0.48 0 0 0 0,-0.58 18.7,18.7 0 0 1 3,1.07 32.76,32.76 0 0 0 -2.14,7.67 v 0.17 c -0.54,3 -1.1,6 -3,8.21 a 0.51,0.51 0 0 0 0,0.71 0.48,0.48 0 0 0 0.44,0.11 0.52,0.52 0 0 0 0.27,-0.15 c 2.13,-2.38 2.71,-5.59 3.28,-8.7 v -0.18 a 32.35,32.35 0 0 1 2,-7.39 20,20 0 0 1 10.14,13.13 z m -18.57,-15.26 v 0 a 18.63,18.63 0 0 1 3.88,0.47 0.47,0.47 0 0 0 -0.15,0.13 29.53,29.53 0 0 0 -5.15,10.87 v 0 c 0,-0.06 0,-0.13 0,-0.19 a 24.51,24.51 0 0 0 -0.34,-3 L 197,158 a 0.53,0.53 0 0 0 0.17,-0.24 46.15,46.15 0 0 1 2.18,-6 0.5,0.5 0 0 0 -0.3,-0.67 z m -0.52,0 h 0.17 a 0.52,0.52 0 0 0 -0.31,0.27 50,50 0 0 0 -1.82,4.92 l -1.07,-4.87 a 19,19 0 0 1 3.03,-0.34 z M 180.93,165 a 19.17,19.17 0 0 1 13.6,-13.37 l 1.75,8 a 27.81,27.81 0 0 1 0.32,2.86 c 0.24,3.08 0.55,6.91 2.33,8.18 a 4.3,4.3 0 0 0 3.43,0.39 c 0.76,-0.17 1.52,-0.43 2.22,-0.66 a 15.93,15.93 0 0 1 1.58,-0.49 l 11.66,-2.55 a 18,18 0 0 1 -0.33,7.83 20.17,20.17 0 0 1 -12.84,13.6 18.16,18.16 0 0 1 -16.94,-2 C 181,182 178.32,173.42 180.93,165 Z"
         style="fill:#ffffff"
         id="path1776" />
      <path
         d="m 253.91,158.15 7.72,-2.56 a 2,2 0 0 1 1.11,-0.16 c 0.42,0.13 0.65,0.63 0.92,1.21 a 2.39,2.39 0 0 0 3.75,1.45 2.28,2.28 0 0 1 1.61,-0.26 2.26,2.26 0 0 1 0.4,0.28 3,3 0 0 0 0.55,0.39 3.21,3.21 0 0 0 1.85,0.17 2.42,2.42 0 0 1 1.27,0.05 2.33,2.33 0 0 1 0.71,0.64 4.58,4.58 0 0 0 0.42,0.46 4.14,4.14 0 0 0 3,1.07 15.5,15.5 0 0 0 3.5,-0.55 l 0.44,-0.1 a 41.36,41.36 0 0 1 8.31,-0.8 l 20.17,-0.58 a 0.5,0.5 0 0 0 0,-1 l -20.17,0.58 a 43,43 0 0 0 -8.51,0.82 l -0.44,0.11 c -2,0.47 -4.26,1 -5.59,-0.27 a 4.25,4.25 0 0 1 -0.35,-0.39 2.57,2.57 0 0 0 -2.85,-1 2.34,2.34 0 0 1 -1.28,-0.06 3,3 0 0 1 -0.38,-0.27 3.26,3.26 0 0 0 -0.61,-0.42 3,3 0 0 0 -2.4,0.24 2.2,2.2 0 0 1 -1.6,0.27 c -0.4,-0.17 -0.63,-0.68 -0.88,-1.21 a 2.73,2.73 0 0 0 -1.53,-1.74 2.83,2.83 0 0 0 -1.71,0.16 l -7.72,2.56 a 0.52,0.52 0 0 0 -0.32,0.64 0.5,0.5 0 0 0 0.61,0.27 z"
         style="fill:#ffffff"
         id="path1778" />
      <path
         d="m 251.34,169.11 12.7,-0.59 a 2.69,2.69 0 0 1 1.39,0.17 0.73,0.73 0 0 1 0.35,0.46 0.3,0.3 0 0 1 0,0.25 0.5,0.5 0 0 0 0.59,0.75 c 3,-1.11 6,-2.13 9,-3.05 a 10.3,10.3 0 0 0 0.8,3.14 0.51,0.51 0 0 0 0.38,0.3 h 0.08 a 0.52,0.52 0 0 0 0.38,-0.17 17.56,17.56 0 0 1 2.59,-2.37 3.07,3.07 0 0 1 0.3,1.18 0.49,0.49 0 0 0 0.26,0.43 0.5,0.5 0 0 0 0.49,0 4.92,4.92 0 0 0 1.55,-1.46 c 1,0.17 2.06,0.34 3.09,0.49 a 90.59,90.59 0 0 0 24.56,0.18 0.5,0.5 0 0 0 0.43,-0.56 0.48,0.48 0 0 0 -0.56,-0.43 89.74,89.74 0 0 1 -24.28,-0.18 c -1.14,-0.17 -2.27,-0.35 -3.4,-0.54 a 0.48,0.48 0 0 0 -0.51,0.24 4.06,4.06 0 0 1 -0.77,0.93 3.9,3.9 0 0 0 -0.6,-1.29 0.46,0.46 0 0 0 -0.32,-0.2 0.56,0.56 0 0 0 -0.38,0.08 18.24,18.24 0 0 0 -2.62,2.27 9.45,9.45 0 0 1 -0.48,-2.68 0.47,0.47 0 0 0 -0.21,-0.39 0.5,0.5 0 0 0 -0.43,-0.08 c -3,0.89 -6,1.89 -9,3 v 0 a 1.73,1.73 0 0 0 -0.83,-1.09 3.52,3.52 0 0 0 -1.93,-0.29 l -12.7,0.58 a 0.50062461,0.50062461 0 0 0 0.05,1 z"
         style="fill:#ffffff"
         id="path1780" />
      <path
         d="m 264.31,182 c 0.95,-0.16 2.07,0 2.29,0.68 0,0.11 0,0.24 0.07,0.36 a 1.54,1.54 0 0 0 0.57,1.16 1.14,1.14 0 0 0 0.65,0.19 2.35,2.35 0 0 0 1,-0.27 l 4.24,-2 a 1.33,1.33 0 0 1 0.59,-0.18 1.2,1.2 0 0 1 0.47,0.28 c 0.12,0.09 0.24,0.18 0.37,0.26 a 3.87,3.87 0 0 0 2.1,0.38 c 3.23,-0.08 6.45,-0.28 9.57,-0.48 4.08,-0.25 8.3,-0.52 12.54,-0.5 v 0 a 0.51,0.51 0 0 0 0.5,-0.5 0.5,0.5 0 0 0 -0.5,-0.5 c -4.28,0 -8.52,0.25 -12.62,0.5 -3.1,0.2 -6.31,0.4 -9.52,0.48 a 2.89,2.89 0 0 1 -1.56,-0.24 1.73,1.73 0 0 1 -0.28,-0.19 1.9,1.9 0 0 0 -0.95,-0.48 2,2 0 0 0 -1.15,0.27 l -4.25,2 c -0.43,0.21 -0.58,0.18 -0.63,0.15 -0.05,-0.03 -0.11,-0.28 -0.15,-0.49 a 2.77,2.77 0 0 0 -0.1,-0.5 c -0.43,-1.36 -2.1,-1.59 -3.41,-1.37 a 69,69 0 0 1 -9.79,0.64 h -0.7 a 0.5,0.5 0 0 0 0,1 h 0.7 a 70,70 0 0 0 9.95,-0.65 z"
         style="fill:#ffffff"
         id="path1782" />
      <path
         d="m 286.52,196 a 83.41,83.41 0 0 1 20.09,-0.68 0.48,0.48 0 0 0 0.54,-0.45 0.5,0.5 0 0 0 -0.45,-0.54 83.83,83.83 0 0 0 -20.33,0.68 c -0.52,0.08 -1.12,0.05 -1.19,-0.21 a 0.47,0.47 0 0 1 0,-0.17 1.48,1.48 0 0 0 -0.14,-0.56 1,1 0 0 0 -0.62,-0.49 2.19,2.19 0 0 0 -1.69,0.52 7.4,7.4 0 0 1 -3.6,0.87 l -8.68,0.6 a 1.77,1.77 0 0 1 -1.3,-0.39 c 0,0 0,0 0,-0.11 a 0.52,0.52 0 0 0 0,-0.47 0.54,0.54 0 0 0 -0.41,-0.24 l -8.64,-0.27 c -2.12,-0.07 -4.7,0.11 -5.81,2.07 a 0.49,0.49 0 0 0 0.19,0.68 0.44,0.44 0 0 0 0.24,0.07 0.49,0.49 0 0 0 0.44,-0.26 c 0.85,-1.49 3.07,-1.62 4.91,-1.56 l 8.11,0.26 a 0.9,0.9 0 0 0 0.17,0.39 2.63,2.63 0 0 0 2.19,0.83 l 8.68,-0.6 a 8.24,8.24 0 0 0 4.09,-1 c 0.54,-0.37 0.83,-0.41 0.86,-0.39 a 0.39,0.39 0 0 1 0,0.18 1.43,1.43 0 0 0 0.06,0.35 c 0.21,0.74 1.05,1.07 2.29,0.89 z"
         style="fill:#ffffff"
         id="path1784" />
      <path
         d="m 173.08,208.25 a 14.69,14.69 0 0 1 5.94,0.34 h 0.19 a 3.58,3.58 0 0 0 3.41,-0.4 4.14,4.14 0 0 1 1.18,-0.51 4.24,4.24 0 0 1 2.25,0.43 c 0.39,0.14 0.8,0.29 1.22,0.4 2.6,0.64 5.11,-0.58 7.48,-2 l 0.6,1.59 a 0.5,0.5 0 0 0 0.52,0.32 0.5,0.5 0 0 0 0.44,-0.42 1.48,1.48 0 0 1 2.49,-0.51 0.5,0.5 0 0 0 0.64,0.18 5.43,5.43 0 0 1 3.46,0.1 51.86,51.86 0 0 0 11.63,1.32 51,51 0 0 0 5.38,-0.28 0.5,0.5 0 0 0 0.44,-0.55 0.49,0.49 0 0 0 -0.55,-0.44 50.62,50.62 0 0 1 -16.72,-1 6.75,6.75 0 0 0 -3.7,-0.16 2.4,2.4 0 0 0 -2.17,-0.56 2.58,2.58 0 0 0 -1.31,0.68 l -0.43,-1.15 a 0.49,0.49 0 0 0 -0.31,-0.29 0.51,0.51 0 0 0 -0.42,0 c -2.34,1.45 -4.82,2.82 -7.23,2.22 a 11.1,11.1 0 0 1 -1.11,-0.37 5,5 0 0 0 -2.79,-0.47 4.81,4.81 0 0 0 -1.47,0.61 3.71,3.71 0 0 1 -1.33,0.53 3.83,3.83 0 0 1 -1.33,-0.21 l -0.2,-0.06 a 15.63,15.63 0 0 0 -6.35,-0.36 0.51,0.51 0 0 0 -0.42,0.57 0.5,0.5 0 0 0 0.57,0.45 z"
         style="fill:#ffffff"
         id="path1786" />
      <path
         d="m 220.26,218.77 -20.82,0.22 a 77.81,77.81 0 0 0 -9.12,0.46 c -0.89,0.12 -1.78,0.27 -2.68,0.42 a 31.59,31.59 0 0 1 -6.36,0.61 1.12,1.12 0 0 1 -0.69,-0.17 1.19,1.19 0 0 1 -0.17,-0.39 2.06,2.06 0 0 0 -0.36,-0.75 2,2 0 0 0 -1.59,-0.52 h -4.29 a 0.5,0.5 0 0 0 -0.5,0.5 0.51,0.51 0 0 0 0.5,0.5 h 4.29 c 0.36,0 0.69,0 0.83,0.18 a 1.19,1.19 0 0 1 0.17,0.39 1.87,1.87 0 0 0 0.38,0.76 1.91,1.91 0 0 0 1.38,0.5 h 0.73 a 35.51,35.51 0 0 0 5.85,-0.65 c 0.88,-0.14 1.76,-0.29 2.64,-0.41 a 77.67,77.67 0 0 1 9,-0.45 l 20.81,-0.22 a 0.49,0.49 0 0 0 0.49,-0.5 0.5,0.5 0 0 0 -0.5,-0.5 z"
         style="fill:#ffffff"
         id="path1788" />
      <path
         d="m 223.7,230.19 a 0.5,0.5 0 0 0 -0.56,-0.44 103.13,103.13 0 0 1 -20.41,0.53 h -0.11 a 9.62,9.62 0 0 0 -2.78,0.07 6.05,6.05 0 0 0 -0.73,0.2 4.07,4.07 0 0 1 -1.33,0.24 4.27,4.27 0 0 1 -1.25,-0.39 3.93,3.93 0 0 0 -1.92,-0.47 4.47,4.47 0 0 0 -1.93,0.83 c -0.63,0.4 -1.17,0.75 -1.7,0.6 a 2.29,2.29 0 0 1 -0.64,-0.38 l -0.35,-0.23 c -1.16,-0.74 -3.75,-1.12 -5.1,-0.22 a 51.59,51.59 0 0 1 -10.23,-0.78 0.5,0.5 0 0 0 -0.58,0.4 0.51,0.51 0 0 0 0.41,0.58 51.36,51.36 0 0 0 10.58,0.79 0.54,0.54 0 0 0 0.3,-0.1 c 0.84,-0.67 3.08,-0.46 4.09,0.17 l 0.29,0.21 a 3.26,3.26 0 0 0 1,0.52 2,2 0 0 0 0.54,0.07 3.79,3.79 0 0 0 2,-0.79 3.62,3.62 0 0 1 1.47,-0.67 3.37,3.37 0 0 1 1.44,0.38 4.74,4.74 0 0 0 1.59,0.48 4.62,4.62 0 0 0 1.67,-0.29 l 0.66,-0.18 a 8.67,8.67 0 0 1 2.5,0 h 0.1 a 105.28,105.28 0 0 0 20.62,-0.53 0.51,0.51 0 0 0 0.36,-0.6 z"
         style="fill:#ffffff"
         id="path1790" />
      <path
         d="m 230.32,245.7 v 0 h -3.92 a 1.75,1.75 0 0 1 -0.75,-0.1 1.48,1.48 0 0 1 -0.37,-0.32 c -0.12,-0.12 -0.25,-0.23 -0.38,-0.34 a 3.51,3.51 0 0 0 -2.46,-0.44 3.62,3.62 0 0 1 -1.6,-0.11 l -0.15,-0.06 a 1.93,1.93 0 0 0 -0.69,-0.2 1.82,1.82 0 0 0 -0.88,0.27 l -0.51,0.31 a 3.81,3.81 0 0 1 -1.45,0.65 1.14,1.14 0 0 1 -0.89,-0.32 0.45,0.45 0 0 1 -0.13,-0.39 0.52,0.52 0 0 0 -0.13,-0.44 0.49,0.49 0 0 0 -0.43,-0.15 14.5,14.5 0 0 0 -3.6,1 0.5,0.5 0 0 0 -0.26,0.65 0.51,0.51 0 0 0 0.66,0.27 13.2,13.2 0 0 1 2.81,-0.85 1.76,1.76 0 0 0 0.35,0.58 2.11,2.11 0 0 0 1.75,0.63 4.72,4.72 0 0 0 1.85,-0.79 l 0.47,-0.29 a 0.82,0.82 0 0 1 0.36,-0.14 1.69,1.69 0 0 1 0.31,0.11 l 0.18,0.08 a 4.62,4.62 0 0 0 2,0.18 2.69,2.69 0 0 1 1.79,0.24 3.2,3.2 0 0 1 0.27,0.25 2.66,2.66 0 0 0 0.62,0.5 2.36,2.36 0 0 0 1.1,0.21 h 0.12 3.91 a 0.5,0.5 0 0 0 0,-1 z"
         style="fill:#ffffff"
         id="path1792" />
      <path
         d="m 225.62,250.86 a 12,12 0 0 0 -4.74,0.88 10.34,10.34 0 0 1 -4.62,0.8 2.44,2.44 0 0 1 -1.81,-1 0.5,0.5 0 0 0 -0.69,-0.17 0.49,0.49 0 0 0 -0.17,0.68 3.44,3.44 0 0 0 2.53,1.49 6.77,6.77 0 0 0 0.89,0.06 13.65,13.65 0 0 0 4.18,-0.9 11.39,11.39 0 0 1 4.35,-0.84 0.50159745,0.50159745 0 1 0 0.08,-1 z"
         style="fill:#ffffff"
         id="path1794" />
      <path
         d="m 171.39,245 a 0.45,0.45 0 0 0 0.16,0 l 4.27,-1.48 c 0.41,-0.14 0.53,-0.08 0.54,-0.08 a 0.64,0.64 0 0 1 0,0.2 1.26,1.26 0 0 0 0.36,0.73 1.28,1.28 0 0 0 1.26,0.13 l 3.64,-1.14 a 1,1 0 0 1 0.36,-0.06 c 0.08,0 0.19,0.16 0.29,0.28 l 0.12,0.15 a 2.81,2.81 0 0 0 3.13,0.74 0.5,0.5 0 0 0 -0.38,-0.92 1.81,1.81 0 0 1 -2,-0.48 l -0.1,-0.12 a 1.61,1.61 0 0 0 -0.8,-0.62 1.63,1.63 0 0 0 -0.93,0.08 l -3.64,1.14 c -0.21,0.07 -0.29,0.06 -0.29,0.08 a 1.67,1.67 0 0 1 -0.05,-0.19 1.39,1.39 0 0 0 -0.24,-0.61 c -0.23,-0.3 -0.7,-0.59 -1.66,-0.26 l -4.2,1.43 a 0.5,0.5 0 0 0 -0.31,0.64 0.49,0.49 0 0 0 0.47,0.36 z"
         style="fill:#ffffff"
         id="path1796" />
      <path
         d="m 170.25,252 a 6.28,6.28 0 0 0 5.42,0 l 0.18,-0.09 a 1.76,1.76 0 0 1 0.86,-0.28 1.72,1.72 0 0 1 0.75,0.49 c 0.12,0.11 0.24,0.22 0.37,0.32 a 2.86,2.86 0 0 0 2.84,0.43 4.37,4.37 0 0 0 0.79,-0.48 5.8,5.8 0 0 1 0.52,-0.34 1.28,1.28 0 0 1 0.53,-0.12 5.53,5.53 0 0 1 -0.83,1.21 0.49,0.49 0 0 0 0,0.7 0.5,0.5 0 0 0 0.34,0.13 0.49,0.49 0 0 0 0.37,-0.16 6.2,6.2 0 0 0 1.2,-1.92 0.49,0.49 0 0 0 -0.09,-0.52 1.66,1.66 0 0 0 -2,-0.21 5.47,5.47 0 0 0 -0.65,0.41 3.77,3.77 0 0 1 -0.61,0.38 1.89,1.89 0 0 1 -1.83,-0.29 l -0.31,-0.28 a 2.44,2.44 0 0 0 -1.29,-0.74 2.56,2.56 0 0 0 -1.44,0.37 l -0.17,0.09 a 5.22,5.22 0 0 1 -4.53,0 0.5,0.5 0 0 0 -0.67,0.23 0.49,0.49 0 0 0 0.25,0.67 z"
         style="fill:#ffffff"
         id="path1798" />
      <path
         d="m 188.15,259.25 c -2.77,-1.09 -5.79,-0.87 -8.71,-0.65 l -1.72,0.12 c -2.5,0.14 -5.05,0.07 -7.52,0 a 0.55,0.55 0 0 0 -0.51,0.49 0.5,0.5 0 0 0 0.49,0.51 c 2.49,0.06 5.06,0.13 7.6,0 l 1.74,-0.12 c 2.8,-0.21 5.71,-0.43 8.27,0.58 h 0.18 a 0.51,0.51 0 0 0 0.47,-0.32 0.5,0.5 0 0 0 -0.29,-0.61 z"
         style="fill:#ffffff"
         id="path1800" />
      <path
         d="m 204.4,168.09 a 0.5,0.5 0 0 0 0.35,0.61 0.65,0.65 0 0 0 0.24,0 0.52,0.52 0 0 0 0.37,-0.36 30,30 0 0 1 5,-10.2 0.5,0.5 0 1 0 -0.79,-0.61 30.88,30.88 0 0 0 -5.17,10.56 z"
         style="fill:#ffffff"
         id="path1802" />
      <path
         d="m 209.21,166.73 a 0.49,0.49 0 0 0 0.29,0 0.52,0.52 0 0 0 0.36,-0.3 47.37,47.37 0 0 1 3.25,-6.44 0.47,0.47 0 0 0 0.39,-0.2 0.54,0.54 0 0 0 0.06,-0.57 0.66,0.66 0 0 0 -0.49,-0.31 0.77,0.77 0 0 0 -0.68,0.34 48.29,48.29 0 0 0 -3.46,6.8 0.5,0.5 0 0 0 0.28,0.68 z"
         style="fill:#ffffff"
         id="path1804" />
      <path
         d="m 213.82,166.06 a 0.53,0.53 0 0 0 0.3,0 0.52,0.52 0 0 0 0.36,-0.3 l 1.45,-3.56 a 0.5,0.5 0 1 0 -0.92,-0.37 l -1.46,3.55 a 0.5,0.5 0 0 0 0.27,0.68 z"
         style="fill:#ffffff"
         id="path1806" />
      <path
         d="m 314.58,223.58 a 20.71,20.71 0 0 0 -16.09,-10.91 26.72,26.72 0 0 0 -18.74,5.33 24.37,24.37 0 0 0 -9.78,-7.47 c -6.06,-2.39 -12.43,-1.45 -18.42,2.73 a 20.67,20.67 0 0 0 -9.12,17.17 c -0.08,8.22 4.33,16.58 11.51,21.79 a 17.24,17.24 0 0 0 10.25,3.21 22.9,22.9 0 0 0 12.41,-3.87 c 0.54,-0.35 1.06,-0.72 1.56,-1.1 a 18,18 0 0 0 12.71,5.72 13.24,13.24 0 0 0 1.54,-0.08 c 10,-1 19,-6.48 22.91,-13.93 3.03,-5.74 2.78,-12.17 -0.74,-18.59 z m -38.52,27.16 c -7.21,4.69 -15.67,5 -21.53,0.7 -6.93,-5 -11.18,-13.07 -11.1,-21 a 19.73,19.73 0 0 1 8.69,-16.36 c 5.7,-4 11.75,-4.88 17.48,-2.62 a 23.59,23.59 0 0 1 9.33,7.17 28.2,28.2 0 0 0 -3.34,3.13 c -5.15,5.69 -5.85,14.56 -1.78,22.61 a 24.63,24.63 0 0 0 3.67,5.36 c -0.48,0.36 -0.93,0.7 -1.42,1.01 z m 3.49,-31.31 A 32,32 0 0 1 285.3,232 c 1.28,6 -1.46,12.51 -7,17.09 a 23.65,23.65 0 0 1 -3.55,-5.19 c -3.89,-7.68 -3.25,-16.11 1.62,-21.49 a 27,27 0 0 1 3.18,-2.98 z m 34.88,22.3 c -3.7,7.05 -12.59,12.43 -22.12,13.4 -4.8,0.49 -9.6,-1.5 -13.36,-5.27 5.83,-4.82 8.68,-11.64 7.33,-18 a 33,33 0 0 0 -5.91,-13 26.16,26.16 0 0 1 15.41,-5.28 22.53,22.53 0 0 1 2.6,0.15 19.74,19.74 0 0 1 15.33,10.39 c 3.34,6.04 3.59,12.15 0.72,17.61 z"
         style="fill:#ffffff"
         id="path1808" />
      <path
         d="m 274,228.23 -0.7,-0.72 A 53.55,53.55 0 0 1 280,222 l 0.58,0.82 a 51.64,51.64 0 0 0 -6.58,5.41 z"
         style="fill:#ffffff"
         id="path1810" />
      <path
         d="m 273.22,233.57 -0.68,-0.73 5,-4.74 a 16.82,16.82 0 0 1 4.11,-3.15 l 0.44,0.9 a 16.35,16.35 0 0 0 -3.87,3 z"
         style="fill:#ffffff"
         id="path1812" />
      <rect
         x="273.89001"
         y="237.3"
         width="10.72"
         height="1"
         transform="rotate(-36.47,279.28853,237.80812)"
         style="fill:#ffffff"
         id="rect1814" />
      <path
         d="m 276.92,245.3 -0.77,-0.64 a 24.16,24.16 0 0 1 5.84,-5.11 l 0.53,0.84 a 23.44,23.44 0 0 0 -5.6,4.91 z"
         style="fill:#ffffff"
         id="path1816" />
    </g>
  </g>
  <g
     id="freepik--character-2--inject-7"
     transform="translate(-56.110001,-71.031815)">
    <path
       d="m 394,164.22 c 0,0 2.49,1.28 2.48,3.13 0,0 5.57,-2.5 7.61,0.94 2.04,3.44 -0.75,4.26 -0.75,4.26 0,0 5.23,2.26 5.95,5.06 0.72,2.8 -3.21,4.65 -3.21,4.65 0,0 0.46,8.7 -5.8,10.08 -6.26,1.38 -12.11,2.77 -15.59,-0.61 -3.48,-3.38 -5.38,-7.5 -3.53,-10.35 a 2.16,2.16 0 0 1 -2,-1.34 c -0.69,-1.43 2.43,-3.37 2.43,-3.37 0,0 -0.64,-0.18 0.46,-4.3 1.1,-4.12 11.95,-8.15 11.95,-8.15 z"
       style="fill:#263238"
       id="path1821" />
    <path
       d="m 371.7,161.39 c -2.28,-1.13 -1.78,-5.15 -1.78,-5.15 0,0 -2.51,1 -2.76,-2 -0.25,-3 3.36,-5.35 3.36,-5.35 0,0 -1.85,0.32 0,-3.31 1.85,-3.63 9.54,-7.11 16.22,-3.69 a 7.32,7.32 0 0 1 5.93,-0.45 c 3.58,1.15 3.14,3.75 3.14,3.75 0,0 3.94,1.26 4.83,7.18 0.89,5.92 -0.64,12.63 -2.54,12.22 0,0 -0.53,4.41 -7.47,8 -6.94,3.59 -13.71,-6.37 -12.74,-12.29 0,-0.03 -3.66,2.36 -6.19,1.09 z"
       style="fill:#263238"
       id="path1823" />
    <path
       d="m 370.77,200.75 a 103.28,103.28 0 0 1 -11.57,7.31 c -4.78,2.44 -9.3,4.83 -15.05,5.33 -8.06,0.44 -18.22,-10.88 -23.11,-16.57 a 2.65,2.65 0 0 1 3.54,-3.86 c 5.8,3.77 11.78,8.66 18.21,10.87 0.32,0.1 0.65,0.07 0.42,0 0.15,0 0.38,-0.06 0.6,-0.12 7.32,-2.28 14.4,-7.48 20.88,-11.66 5.8,-3.7 11.53,4.44 6.08,8.66 z"
       style="fill:#b65b52"
       id="path1825" />
    <path
       d="m 373.6,187.61 c -8.51,-1.53 -11.82,3.33 -21.81,11.81 a 18,18 0 0 0 8,13.31 c 0,0 20.83,-13.55 13.81,-25.12 z"
       style="fill:#60a3ab"
       id="path1827" />
    <path
       d="m 373.2,199.18 c -3.6,6.63 -11.34,12.16 -13,13.32 l -0.34,0.23 a 18,18 0 0 1 -8,-13.32 c 10,-8.47 13.31,-13.34 21.81,-11.8 2.26,3.83 1.53,7.87 -0.47,11.57 z"
       style="opacity:0.6;isolation:isolate;fill:#ffffff"
       id="path1829" />
    <path
       d="m 315.91,187.56 2.61,-0.18 a 3,3 0 0 1 2.55,1.11 L 324,192 a 5.65,5.65 0 0 1 1.08,5.08 l -0.3,1.1 c -4.3,0.59 -9.38,-1.95 -9.38,-1.95 l -1.53,-0.56 a 2.53,2.53 0 0 1 -1.58,-3.23 l 1.07,-3 a 2.93,2.93 0 0 1 2.55,-1.88 z"
       style="fill:#b55b52"
       id="path1831" />
    <path
       d="m 373.2,199.18 c -3.6,6.63 -11.34,12.16 -13,13.32 0.6,-3 2.5,-9.42 8.12,-13.51 a 3.65,3.65 0 0 1 4.88,0.19 z"
       style="opacity:0.2"
       id="path1833" />
    <path
       d="m 403.61,188.4 a 163.08,163.08 0 0 0 -3.32,17.17 c -0.46,3.22 -0.91,6.81 -1.27,10.69 A 201,201 0 0 0 398.16,240 h -33.84 c 0,0 -5.34,-39.58 3.48,-52.34 0,0 17.35,-8.17 35.81,0.74 z"
       style="fill:#60a3ab"
       id="path1835" />
    <path
       d="m 403.61,188.4 a 163.08,163.08 0 0 0 -3.32,17.17 c -0.46,3.22 -0.91,6.81 -1.27,10.69 A 201,201 0 0 0 398.16,240 h -33.84 c 0,0 -5.34,-39.58 3.48,-52.34 0,0 17.35,-8.17 35.81,0.74 z"
       style="opacity:0.6;isolation:isolate;fill:#ffffff"
       id="path1837" />
    <path
       d="m 400.29,205.57 c -0.46,3.22 -0.91,6.81 -1.27,10.69 a 26.35,26.35 0 0 1 -1,-18.25 z"
       style="opacity:0.2"
       id="path1839" />
    <path
       d="m 383.84,218.39 h 2.61 a 3,3 0 0 1 2.46,1.29 l 2.64,3.76 a 5.66,5.66 0 0 1 0.71,5.15 l -0.38,1.07 c -4.34,0.26 -9.22,-2.64 -9.22,-2.64 l -1.48,-0.68 a 2.52,2.52 0 0 1 -1.34,-3.33 l 1.3,-3 a 2.9,2.9 0 0 1 2.7,-1.62 z"
       style="fill:#b55b52"
       id="path1841" />
    <path
       d="m 386.1,181.92 c 10.62,0 11.95,8.73 11.95,8.73 l -5,-2.14 -14.58,9.75 -3.59,-9.84 -4.49,0.83 c 0,0 6.49,-7.33 15.71,-7.33 z"
       style="fill:#60a3ab"
       id="path1843" />
    <path
       d="m 386.1,181.92 c 10.62,0 11.95,8.73 11.95,8.73 l -5,-2.14 -14.58,9.75 -3.59,-9.84 -4.49,0.83 c 0,0 6.49,-7.33 15.71,-7.33 z"
       style="opacity:0.4;isolation:isolate;fill:#ffffff"
       id="path1845" />
    <path
       d="m 379,197.68 13.69,-11.91 c -3.33,-3.41 -1.63,-12.78 -0.25,-17.89 l -10.37,8.33 c 0.69,4 0.53,8.2 -5.28,9.57 -0.02,0 2.21,11.86 2.21,11.9 z"
       style="fill:#b55b52"
       id="path1847" />
    <path
       d="m 388.19,171.28 -6.14,4.92 a 16.15,16.15 0 0 1 0.28,2.83 c 2.2,-0.32 5.37,-2.71 5.78,-5 a 7.5,7.5 0 0 0 0.08,-2.75 z"
       style="opacity:0.2"
       id="path1849" />
    <path
       d="m 394.11,155.49 c 0.15,8.4 0.39,11.94 -3.42,16.77 -5.74,7.27 -15.91,6.15 -18.53,-1.9 -2.35,-7.25 -2.2,-19.77 5.58,-24.17 a 10.77,10.77 0 0 1 16.37,9.3 z"
       style="fill:#b55b52"
       id="path1851" />
    <path
       d="m 386,151.08 c 5.65,4.84 -2.15,13.35 6.94,11.07 9.09,-2.28 2.69,-14.45 -3.36,-16.26 -6.05,-1.81 -3.58,5.19 -3.58,5.19 z"
       style="fill:#263238"
       id="path1853" />
    <path
       d="m 381.58,159.48 c 0,0.7 -0.29,1.32 -0.73,1.38 -0.44,0.06 -0.84,-0.47 -0.88,-1.17 -0.04,-0.7 0.28,-1.32 0.72,-1.38 0.44,-0.06 0.84,0.46 0.89,1.17 z"
       style="fill:#263238"
       id="path1855" />
    <path
       d="m 373.22,160.7 c 0,0.7 -0.29,1.32 -0.73,1.38 -0.44,0.06 -0.84,-0.47 -0.89,-1.17 -0.05,-0.7 0.29,-1.32 0.73,-1.38 0.44,-0.06 0.84,0.47 0.89,1.17 z"
       style="fill:#263238"
       id="path1857" />
    <path
       d="m 372.53,159.54 -1.66,-0.27 c 0,0 0.92,1.21 1.66,0.27 z"
       style="fill:#263238"
       id="path1859" />
    <path
       d="m 375.62,161.55 a 20.78,20.78 0 0 1 -2.15,4.81 2.81,2.81 0 0 0 2.45,0.16 z"
       style="fill:#a02724"
       id="path1861" />
    <path
       d="m 380,168.61 a 6.36,6.36 0 0 1 -1.14,0.25 0.19,0.19 0 0 1 -0.21,-0.18 0.22,0.22 0 0 1 0.19,-0.24 5.87,5.87 0 0 0 4.26,-2.75 0.2,0.2 0 0 1 0.27,-0.1 0.21,0.21 0 0 1 0.08,0.28 6.21,6.21 0 0 1 -3.45,2.74 z"
       style="fill:#263238"
       id="path1863" />
    <path
       d="m 396.5,163.12 a 5.75,5.75 0 0 1 -2.81,3.72 c -1.78,0.89 -3,-1.1 -2.86,-3.38 0.16,-2.06 1.28,-5 3.22,-4.91 1.94,0.09 3.01,2.45 2.45,4.57 z"
       style="fill:#b55b52"
       id="path1865" />
    <path
       d="m 383.12,155.33 a 0.37,0.37 0 0 1 -0.3,-0.07 3,3 0 0 0 -2.83,-0.46 0.38,0.38 0 0 1 -0.51,-0.23 0.44,0.44 0 0 1 0.25,-0.54 3.76,3.76 0 0 1 3.58,0.54 0.43,0.43 0 0 1 0.07,0.58 0.51,0.51 0 0 1 -0.26,0.18 z"
       style="fill:#263238"
       id="path1867" />
    <path
       d="m 370.55,157.15 a 0.39,0.39 0 0 1 -0.3,0 0.4,0.4 0 0 1 -0.13,-0.56 4.28,4.28 0 0 1 3.11,-2.23 0.37,0.37 0 0 1 0.41,0.37 0.44,0.44 0 0 1 -0.39,0.45 3.46,3.46 0 0 0 -2.44,1.8 0.46,0.46 0 0 1 -0.26,0.17 z"
       style="fill:#263238"
       id="path1869" />
    <path
       d="m 380.89,158.32 -1.66,-0.27 c 0,0 0.92,1.21 1.66,0.27 z"
       style="fill:#263238"
       id="path1871" />
    <path
       d="m 380.6,147.56 c 0,0 1.9,6.77 3.72,3.31 0,0 0.13,5.1 1.58,5.61 1.45,0.51 1.58,-1.15 1.58,-1.15 0,0 0.73,4.08 3.33,4.19 1.37,0.06 3.13,-3.76 3.25,-5 0.23,-2.35 -1.73,-6.19 -2.86,-7.93 -1.59,-2.44 -5.6,-3.21 -11.35,-2.7 -5.75,0.51 -10.16,5.72 -9.2,8.36 0.96,2.64 5.76,-3.87 5.76,-3.87 0,0 -0.62,1.38 0.36,1.65 0.98,0.27 3.83,-2.47 3.83,-2.47 z"
       style="fill:#263238"
       id="path1873" />
    <path
       d="m 409.76,197.42 a 129.94,129.94 0 0 1 6.5,26.4 c -1.22,12.43 -20.86,7.42 -28.55,5 a 2.65,2.65 0 0 1 0.91,-5.15 c 4,0.12 8.2,0.24 12.16,0 2.32,-0.2 5.07,-0.31 6.71,-1.36 -0.26,-0.09 -0.82,1 -0.79,1.34 l 0.09,1 c -2,-7.74 -4.61,-16.15 -7,-23.8 -1.87,-6.57 7.43,-9.77 10,-3.46 z"
       style="fill:#b65b52"
       id="path1875" />
    <path
       d="m 401.49,187.63 c 5.69,0.88 8.83,5.32 13.48,16.77 -5.38,9.27 -13.4,10.53 -13.4,10.53 0,0 -7.91,-14.05 -0.08,-27.3 z"
       style="fill:#60a3ab"
       id="path1877" />
    <path
       d="m 401.49,187.63 c 5.69,0.88 8.83,5.32 13.48,16.77 -5.38,9.27 -13.4,10.53 -13.4,10.53 0,0 -7.91,-14.05 -0.08,-27.3 z"
       style="opacity:0.6;isolation:isolate;fill:#ffffff"
       id="path1879" />
    <path
       d="m 378.79,201.21 a 0.67,0.67 0 1 1 -0.67,-0.67 0.67,0.67 0 0 1 0.67,0.67 z"
       style="opacity:0.2"
       id="path1881" />
    <path
       d="m 377.46,211 a 0.67,0.67 0 1 1 -0.67,-0.67 0.67,0.67 0 0 1 0.67,0.67 z"
       style="opacity:0.2"
       id="path1883" />
    <path
       d="m 376.68,221.21 a 0.67,0.67 0 0 1 -0.67,0.67 0.66,0.66 0 0 1 -0.66,-0.67 0.65,0.65 0 0 1 0.66,-0.66 0.66,0.66 0 0 1 0.67,0.66 z"
       style="opacity:0.2"
       id="path1885" />
    <path
       d="m 376.68,232.06 a 0.67,0.67 0 0 1 -0.67,0.67 0.67,0.67 0 1 1 0.67,-0.67 z"
       style="opacity:0.2"
       id="path1887" />
    <path
       d="m 321.8,189.4 -14,6.38 -2.14,0.14 1.51,-1.52 14,-6.37 a 0.56,0.56 0 0 1 0.74,0.27 l 0.16,0.36 a 0.56,0.56 0 0 1 -0.27,0.74 z"
       style="fill:#ffffff"
       id="path1889" />
    <polygon
       points="398.58,237.19 399.85,241.31 363.42,241.91 363.98,237.19 "
       style="fill:#263238"
       id="polygon1891" />
    <path
       d="m 331.83,413.93 c 6.56,0 7.43,-0.11 11.12,-0.23 3.16,-0.11 3.91,0.28 6.45,0.23 2.12,-0.05 2.05,-2.08 1.39,-4.42 -0.33,-1.17 -0.83,-3.65 -1.28,-5.54 l -9.62,-0.7 c -1.35,2.58 -4.41,6.27 -8.11,6.76 -3.53,0.48 -2.57,3.9 0.05,3.9 z"
       style="fill:#60a3ab"
       id="path1893" />
    <path
       d="m 379.4,413.93 c 6.56,0 7.43,-0.11 11.12,-0.23 3.16,-0.11 3.91,0.28 6.45,0.23 2.12,-0.05 2,-2.08 1.39,-4.42 -0.33,-1.17 -0.83,-3.65 -1.28,-5.54 l -9.62,-0.7 c -1.36,2.58 -4.41,6.27 -8.11,6.76 -3.53,0.48 -2.57,3.9 0.05,3.9 z"
       style="fill:#60a3ab"
       id="path1895" />
    <path
       d="m 331.83,413.93 c 6.56,0 7.43,-0.11 11.12,-0.23 3.16,-0.11 3.91,0.28 6.45,0.23 2.12,-0.05 2.05,-2.08 1.39,-4.42 -0.33,-1.17 -0.83,-3.65 -1.28,-5.54 l -9.62,-0.7 c -1.35,2.58 -4.41,6.27 -8.11,6.76 -3.53,0.48 -2.57,3.9 0.05,3.9 z"
       style="opacity:0.4;fill:#ffffff"
       id="path1897" />
    <path
       d="m 379.4,413.93 c 6.56,0 7.43,-0.11 11.12,-0.23 3.16,-0.11 3.91,0.28 6.45,0.23 2.12,-0.05 2,-2.08 1.39,-4.42 -0.33,-1.17 -0.83,-3.65 -1.28,-5.54 l -9.62,-0.7 c -1.36,2.58 -4.41,6.27 -8.11,6.76 -3.53,0.48 -2.57,3.9 0.05,3.9 z"
       style="opacity:0.4;fill:#ffffff"
       id="path1899" />
    <path
       d="M 388.46,238.57 H 364 c -1.48,9.07 -8.37,52.35 -9.62,75.91 -1.52,27.74 -10.38,72.17 -15.11,89.52 1.32,1.19 7.54,1.69 10.48,0.22 0,0 25.66,-51.24 22.33,-83.27 19.41,-54.65 17.01,-78.36 16.38,-82.38 z"
       style="fill:#263238"
       id="path1901" />
    <path
       d="m 378.43,301.73 c 3.05,-10.06 5.25,-18.78 6.81,-26.25 -1.55,-5.85 -3.74,-10.85 -6.71,-13.86 0,0 -4.29,16.28 -0.1,40.11 z"
       style="opacity:0.2"
       id="path1903" />
    <path
       d="M 398.49,238.57 H 373 c 1.75,13.43 7.14,54.42 10.47,76.08 4.22,27.46 4.76,71.51 3.7,89.47 1.54,0.89 7.15,2 10.18,1 0,0 14.32,-55.53 4.81,-87.78 7.99,-58.64 -2.08,-76.4 -3.67,-78.77 z"
       style="fill:#263238"
       id="path1905" />
    <polygon
       points="398.69,237.8 387.94,237.8 387.94,241.06 399.39,241.06 "
       style="fill:#263238"
       id="polygon1907" />
    <polygon
       points="363.42,241.06 367.14,241.06 367.14,237.8 363.71,237.8 "
       style="fill:#263238"
       id="polygon1909" />
    <rect
       x="368.28"
       y="237.8"
       width="18.540001"
       height="3.26"
       style="fill:#263238"
       id="rect1911" />
    <polygon
       points="398.69,237.8 387.94,237.8 387.94,241.06 399.39,241.06 "
       style="opacity:0.6;isolation:isolate;fill:#ffffff"
       id="polygon1913" />
    <polygon
       points="363.42,241.06 367.14,241.06 367.14,237.8 363.71,237.8 "
       style="opacity:0.6;isolation:isolate;fill:#ffffff"
       id="polygon1915" />
    <rect
       x="368.28"
       y="237.8"
       width="18.540001"
       height="3.26"
       style="opacity:0.6;isolation:isolate;fill:#ffffff"
       id="rect1917" />
    <rect
       x="372.88"
       y="237.55"
       width="6.2600002"
       height="3.76"
       rx="0.56"
       style="fill:#ffffff"
       id="rect1919" />
  </g>
</svg>
