<svg xmlns="http://www.w3.org/2000/svg" xmlns:xlink="http://www.w3.org/1999/xlink" viewBox="0 0 500 500"><defs><clipPath id="freepik--clip-path--inject-285"><path d="M202.66,304.85h17.59a4,4,0,0,0,4-4h0a4,4,0,0,0-4-4H202.66a4,4,0,0,0-4,4h0A4,4,0,0,0,202.66,304.85Z" style="fill:none"></path></clipPath></defs><g id="freepik--background-complete--inject-285"><rect x="416.78" y="398.49" width="33.12" height="0.25" style="fill:#ebebeb"></rect><rect x="322.53" y="401.21" width="8.69" height="0.25" style="fill:#ebebeb"></rect><rect x="396.59" y="389.21" width="19.19" height="0.25" style="fill:#ebebeb"></rect><rect x="52.46" y="390.89" width="43.19" height="0.25" style="fill:#ebebeb"></rect><rect x="104.56" y="390.89" width="6.33" height="0.25" style="fill:#ebebeb"></rect><rect x="178.18" y="348.4" width="0.25" height="93.68" transform="translate(-217.74 571.74) rotate(-89.74)" style="fill:#ebebeb"></rect><path d="M238.4,337.8H45.3a5.71,5.71,0,0,1-5.71-5.71V60.66A5.71,5.71,0,0,1,45.3,55H238.4a5.71,5.71,0,0,1,5.71,5.71V332.09A5.71,5.71,0,0,1,238.4,337.8ZM45.3,55.2a5.47,5.47,0,0,0-5.46,5.46V332.09a5.47,5.47,0,0,0,5.46,5.46H238.4a5.47,5.47,0,0,0,5.46-5.46V60.66a5.47,5.47,0,0,0-5.46-5.46Z" style="fill:#ebebeb"></path><path d="M454.7,337.8H261.6a5.71,5.71,0,0,1-5.71-5.71V60.66A5.71,5.71,0,0,1,261.6,55H454.7a5.71,5.71,0,0,1,5.71,5.71V332.09A5.71,5.71,0,0,1,454.7,337.8ZM261.6,55.2a5.47,5.47,0,0,0-5.46,5.46V332.09a5.47,5.47,0,0,0,5.46,5.46H454.7a5.47,5.47,0,0,0,5.46-5.46V60.66a5.47,5.47,0,0,0-5.46-5.46Z" style="fill:#ebebeb"></path><rect y="382.4" width="500" height="0.25" style="fill:#ebebeb"></rect><rect x="255.91" y="300.04" width="182.7" height="82.01" rx="19.67" style="fill:#e0e0e0"></rect><rect x="246.28" y="300.64" width="182.7" height="82.01" rx="19.67" style="fill:#f5f5f5"></rect><path d="M269.47,308.37h137.4a13.74,13.74,0,0,1,13.74,13.74V339a0,0,0,0,1,0,0H255.73a0,0,0,0,1,0,0V322.11A13.74,13.74,0,0,1,269.47,308.37Z" style="fill:#e0e0e0"></path><path d="M255.73,343.11H420.61a0,0,0,0,1,0,0V360a13.74,13.74,0,0,1-13.74,13.74H269.47A13.74,13.74,0,0,1,255.73,360V343.11A0,0,0,0,1,255.73,343.11Z" style="fill:#e0e0e0"></path><rect x="353.45" y="314.3" width="23.37" height="24.87" style="fill:#e6e6e6"></rect><rect x="347.46" y="314.3" width="5.99" height="24.87" style="fill:#f5f5f5"></rect><rect x="365.39" y="310.46" width="17.55" height="28.71" style="fill:#e6e6e6"></rect><rect x="360.32" y="310.46" width="5.08" height="28.71" style="fill:#f5f5f5"></rect><rect x="370.56" y="314.3" width="14.8" height="24.87" style="fill:#ebebeb"></rect><rect x="367.18" y="314.3" width="3.38" height="24.87" style="fill:#f5f5f5"></rect><rect x="382.68" y="318.51" width="19.41" height="20.67" style="fill:#e6e6e6"></rect><rect x="377.7" y="318.51" width="4.97" height="20.67" style="fill:#f5f5f5"></rect><rect x="392.59" y="315.32" width="14.58" height="23.85" style="fill:#e6e6e6"></rect><rect x="388.38" y="315.32" width="4.22" height="23.85" style="fill:#f5f5f5"></rect><rect x="396.89" y="318.51" width="14.17" height="20.67" style="fill:#e6e6e6"></rect><rect x="394.08" y="318.51" width="2.81" height="20.67" style="fill:#f0f0f0"></rect><rect x="280.73" y="347.89" width="23.37" height="24.87" style="fill:#e6e6e6"></rect><rect x="274.75" y="347.89" width="5.99" height="24.87" style="fill:#f5f5f5"></rect><rect x="292.67" y="344.05" width="17.55" height="28.71" style="fill:#e6e6e6"></rect><rect x="287.61" y="344.05" width="5.07" height="28.71" style="fill:#f5f5f5"></rect><rect x="360.45" y="347.89" width="23.37" height="24.87" style="fill:#e6e6e6"></rect><rect x="354.47" y="347.89" width="5.99" height="24.87" style="fill:#f5f5f5"></rect><rect x="372.39" y="344.05" width="17.55" height="28.71" style="fill:#e6e6e6"></rect><rect x="367.32" y="344.05" width="5.08" height="28.71" style="fill:#f5f5f5"></rect><rect x="297.85" y="347.89" width="14.8" height="24.87" style="fill:#ebebeb"></rect><rect x="294.46" y="347.89" width="3.38" height="24.87" style="fill:#f5f5f5"></rect><rect x="309.96" y="352.1" width="19.41" height="20.67" style="fill:#e6e6e6"></rect><rect x="304.99" y="352.1" width="4.97" height="20.67" style="fill:#f5f5f5"></rect><rect x="319.88" y="348.91" width="14.58" height="23.85" style="fill:#e6e6e6"></rect><rect x="315.67" y="348.91" width="4.22" height="23.85" style="fill:#f5f5f5"></rect><rect x="324.18" y="352.1" width="14.17" height="20.67" style="fill:#e6e6e6"></rect><rect x="321.36" y="352.1" width="2.81" height="20.67" style="fill:#f0f0f0"></rect><path d="M303.91,315.06a2.52,2.52,0,0,0-2.67-1.34,2.64,2.64,0,0,0-2,2.31,2.21,2.21,0,0,0-2.53-.07,2.51,2.51,0,0,0-1,2.45A1.87,1.87,0,0,0,293,319a2.09,2.09,0,0,0,.83,2.78,1.34,1.34,0,0,0,.07,2.67,1.43,1.43,0,0,0-1.33,1.27,1.49,1.49,0,0,0,1,1.57,1.22,1.22,0,0,0-.29,1.88,1.1,1.1,0,0,0,1.73-.55.35.35,0,0,0,.56.09.39.39,0,0,0-.1-.59.66.66,0,0,0,1.14-.3,1.65,1.65,0,0,0,2.23,1.76,1,1,0,0,0,.66,1.36,2.34,2.34,0,0,0,1.61-.32,3.54,3.54,0,0,1,1.58-.53,5.11,5.11,0,0,1,1.41.39,4.24,4.24,0,0,0,4.31-1.13,1.84,1.84,0,0,0,3.07-.47,1.37,1.37,0,0,0,1.21,1.09A1.35,1.35,0,0,0,314,329l0,.78a1.63,1.63,0,0,0,1.67-2.18,1.67,1.67,0,0,0,1.59-1.45,1.72,1.72,0,0,0-1.18-1.83,3.24,3.24,0,0,0,.06-6.13,1.53,1.53,0,0,0-1.47.2.92.92,0,0,0,0,1.39,3,3,0,0,0-1.26-3.33,2.65,2.65,0,0,0-3.34.71,1.65,1.65,0,0,0,0-1.84,1.45,1.45,0,0,0-1.66-.56,1.68,1.68,0,0,0-1.8-1.37,1.75,1.75,0,0,0-1.36,1.86.84.84,0,0,0-1.53-.29C303.32,314.82,303.91,315.06,303.91,315.06Z" style="fill:#ebebeb"></path><path d="M304.21,323a1.53,1.53,0,0,0-1.15-.28,1.07,1.07,0,0,0-.83.78.81.81,0,0,0,.56.94c.47.12.95-.27,1.43-.21a4.32,4.32,0,0,1,.51.16,2.47,2.47,0,0,0,2-.7,2.14,2.14,0,0,0,.55-.53.7.7,0,0,0,.06-.72,1,1,0,0,0-.95-.31,3.81,3.81,0,0,0-1.94.81c0-.11,0-.22,0-.33Z" style="fill:#fafafa"></path><path d="M314.34,322.44a1.79,1.79,0,0,0-.61-.32.55.55,0,0,0-.45,1,1.69,1.69,0,0,0,.88.3c.33.05.73.07.89-.22a.56.56,0,0,0-.15-.64,1.62,1.62,0,0,0-.63-.31Z" style="fill:#fafafa"></path><path d="M298.33,317.17a2.24,2.24,0,0,0-1.29,1.55.51.51,0,0,0,.14.57.56.56,0,0,0,.44,0l1.85-.44a2.78,2.78,0,0,0-.83.45.88.88,0,0,0-.32.85.85.85,0,0,0,.86.57,1.85,1.85,0,0,0,1-.4,1.36,1.36,0,0,0,.65-.95c0-.4-.5-.77-.8-.52a6.74,6.74,0,0,0,2-.9,2,2,0,0,0,.57-.54.77.77,0,0,0,.06-.76c-.63-1.15-1.43.54-1.82.69C300.11,317.64,299.27,316.78,298.33,317.17Z" style="fill:#fafafa"></path><path d="M295.45,322.09a.61.61,0,0,0,.16.64.39.39,0,0,0,.59-.12,2.15,2.15,0,0,0-1.11.62.73.73,0,0,0,.22,1.1,1,1,0,0,0,.77-.17,14.39,14.39,0,0,0,1.91-1.27c-.18.43.26.91.72.95a2.19,2.19,0,0,0,1.29-.45c.49-.3,1-.75.92-1.3a1,1,0,0,0-1.2-.55,2.74,2.74,0,0,0-1.17.89c.26-.38-.11-.95-.56-1a1.37,1.37,0,0,0-1.16.54c.51-.28.63-1-.06-1.11C296.32,320.8,295.56,321.71,295.45,322.09Z" style="fill:#fafafa"></path><path d="M309.61,320.43a.75.75,0,1,0-.38,1.44,1.1,1.1,0,0,0-.78.41.6.6,0,0,0-.17.46.56.56,0,0,0,.55.42,1.7,1.7,0,0,0,.73-.2,1.31,1.31,0,0,0-.71.2.46.46,0,0,0-.11.66.59.59,0,0,0,.59.06,2.83,2.83,0,0,0,1.22-.68,1.18,1.18,0,0,0,1,.43.7.7,0,0,0,.58-.83.75.75,0,0,0-.63-.46,1.92,1.92,0,0,0-.81.13,1.51,1.51,0,0,0,.65-.72c.1-.31-.11-.73-.44-.7s-.55.53-.84.71C309.72,321.42,310.39,320.72,309.61,320.43Z" style="fill:#fafafa"></path><path d="M303,318.9a1.5,1.5,0,0,0-.54,1.35,1.57,1.57,0,0,0,.8,1.37,1.27,1.27,0,0,0,1.63-1,1.79,1.79,0,0,0-1-1.79A1,1,0,0,0,303,318.9Z" style="fill:#fafafa"></path><path d="M307.68,318.31l.17.14a.84.84,0,1,0-1.23,1.13.88.88,0,0,0,1.23-.08,1.26,1.26,0,0,0,1.46-.28,1,1,0,0,0-.2-1.39.78.78,0,0,0-1.12.66l-.2-.22Z" style="fill:#fafafa"></path><path d="M312.85,319.14a2.58,2.58,0,0,0-.8,1.12.93.93,0,0,0,.53,1.14c.45.11.87-.26,1.13-.64a1.42,1.42,0,0,0,.27-1.18c-.13-.39-.7-.63-1-.32Z" style="fill:#fafafa"></path><path d="M305.4,316.43a.76.76,0,0,0-1.06-.29.92.92,0,0,0-.32,1.09,1.17,1.17,0,0,0,1,.69c.5.05,1.1-.36,1-.86a1.07,1.07,0,0,0,1,.37,2.49,2.49,0,0,0,1-.38c.43-.24.88-.62.84-1.11a.89.89,0,0,0-.81-.73,1.49,1.49,0,0,0-1.07.4,7.93,7.93,0,0,1-.68.62.87.87,0,0,1-.87.13Z" style="fill:#fafafa"></path><polygon points="311.76 339.17 298.95 339.17 297.7 326.26 313.01 326.26 311.76 339.17" style="fill:#f0f0f0"></polygon><polygon points="314 326.93 296.58 326.93 296.27 325.21 314.32 325.21 314 326.93" style="fill:#fafafa"></polygon><polygon points="414.62 299.73 399.92 299.73 404.53 284.89 405.2 282.72 408.53 282.72 414.62 299.73" style="fill:#e0e0e0"></polygon><polygon points="405.2 282.72 404.53 284.89 399.92 299.73 386.33 299.52 381.96 284.89 381.29 282.72 405.2 282.72" style="fill:#e0e0e0"></polygon><polygon points="405.2 282.72 404.53 284.89 399.92 299.73 372.01 299.31 377.96 282.72 405.2 282.72" style="fill:#fafafa"></polygon><polygon points="405.2 282.72 404.53 284.89 377.19 284.89 377.96 282.72 405.2 282.72" style="fill:#ebebeb"></polygon><path d="M381.39,291.94h-6.13l2.14-6,5.86.06Zm-5.42-.5h5l1.56-5-4.83-.06Z" style="fill:#ebebeb"></path><path d="M388.25,291.94h-6.13l2.14-6,5.86.06Zm-5.42-.5h5.05l1.56-5-4.83-.06Z" style="fill:#ebebeb"></path><path d="M395.1,291.94H389l2.14-6L397,286Zm-5.42-.5h5.06l1.56-5-4.84-.06Z" style="fill:#ebebeb"></path><path d="M402,291.94h-6.13l2.14-6,5.86.06Zm-5.42-.5h5l1.56-5-4.83-.06Z" style="fill:#ebebeb"></path><path d="M379.25,298.34h-6.13l2.14-6,5.86.07Zm-5.42-.5h5.05l1.56-5-4.83-.05Z" style="fill:#ebebeb"></path><path d="M386.11,298.34H380l2.14-6,5.86.07Zm-5.42-.5h5.05l1.56-5-4.83-.05Z" style="fill:#ebebeb"></path><path d="M393,298.34h-6.12l2.13-6,5.87.07Zm-5.42-.5h5.06l1.56-5-4.83-.05Z" style="fill:#ebebeb"></path><path d="M399.82,298.34h-6.13l2.14-6,5.86.07Zm-5.42-.5h5.05l1.56-5-4.83-.05Z" style="fill:#ebebeb"></path><path d="M345,300H327.88V290.2a8.57,8.57,0,0,1,8.58-8.57h0A8.57,8.57,0,0,1,345,290.2Z" style="fill:#f0f0f0"></path><circle cx="336.35" cy="290.65" r="7.23" style="fill:#fff"></circle><path d="M342.06,290.65a5.81,5.81,0,1,1-5.81-5.8A5.81,5.81,0,0,1,342.06,290.65Z" style="fill:#ebebeb"></path><path d="M336.93,290.78a.63.63,0,1,1-.62-.62A.63.63,0,0,1,336.93,290.78Z" style="fill:#fafafa"></path><polygon points="336.24 291.01 333.58 288.52 333.84 288.24 336.24 290.51 340.56 286.7 340.8 286.98 336.24 291.01" style="fill:#fafafa"></polygon><rect x="67.19" y="285.63" width="31.35" height="31.35" rx="7.98" style="fill:#e0e0e0"></rect><rect x="74.83" y="293.49" width="16.39" height="3.18" style="fill:#fafafa"></rect><rect x="74.83" y="299.6" width="16.39" height="3.18" style="fill:#fafafa"></rect><rect x="74.83" y="305.7" width="16.39" height="3.18" style="fill:#fafafa"></rect><path d="M404.6,142.94l-3.77,3.32,2.37,4.11,4.76-1.61a14.89,14.89,0,0,0,7.45,4.31l1,4.92h4.75l1-4.92a14.89,14.89,0,0,0,7.45-4.31l4.76,1.61,2.37-4.11-3.77-3.32a14.77,14.77,0,0,0,0-8.6l3.77-3.31-2.37-4.12-4.76,1.61a14.87,14.87,0,0,0-7.45-4.3l-1-4.92H416.4l-1,4.92a14.87,14.87,0,0,0-7.45,4.3l-4.76-1.61L400.83,131l3.77,3.31a15,15,0,0,0,0,8.6Zm6.48-4a7.69,7.69,0,1,1,7.69,7.7A7.69,7.69,0,0,1,411.08,138.94Z" style="fill:#e0e0e0"></path><path d="M366.86,103.83,363,106a26.56,26.56,0,0,0,1.45,5.42l4.47-.07a21.52,21.52,0,0,0,2,3.45l-2.3,3.83a27.09,27.09,0,0,0,4,4l3.83-2.29a22.72,22.72,0,0,0,3.45,2l-.07,4.47a26.56,26.56,0,0,0,5.42,1.45l2.17-3.91c.66.06,1.32.1,2,.1s1.33,0,2-.1l2.17,3.91a26.56,26.56,0,0,0,5.42-1.45l-.08-4.47a21.88,21.88,0,0,0,3.46-2l3.83,2.29a26.61,26.61,0,0,0,4-4l-2.3-3.83a23.13,23.13,0,0,0,2-3.45l4.47.07a26.56,26.56,0,0,0,1.45-5.42l-3.91-2.17c.06-.65.09-1.32.09-2s0-1.34-.09-2l3.91-2.18a26.29,26.29,0,0,0-1.45-5.41l-4.47.07a23.24,23.24,0,0,0-2-3.46l2.3-3.82a26.14,26.14,0,0,0-4-4l-3.83,2.29a22.74,22.74,0,0,0-3.46-2l.08-4.46a25.93,25.93,0,0,0-5.42-1.45l-2.17,3.9c-.66,0-1.32-.09-2-.09s-1.34,0-2,.09l-2.17-3.9a25.93,25.93,0,0,0-5.42,1.45l.07,4.46a23.65,23.65,0,0,0-3.45,2l-3.83-2.29a26.61,26.61,0,0,0-4,4l2.3,3.82a21.61,21.61,0,0,0-2,3.46l-4.47-.07A26.29,26.29,0,0,0,363,97.67l3.91,2.18c-.06.65-.1,1.31-.1,2S366.8,103.18,366.86,103.83Zm10.2-1.59a12.28,12.28,0,1,1,12.28,12.28A12.27,12.27,0,0,1,377.06,102.24Z" style="fill:#e0e0e0"></path></g><g id="freepik--Shadow--inject-285"><ellipse id="freepik--path--inject-285" cx="250" cy="415.69" rx="193.89" ry="11.32" style="fill:#f5f5f5"></ellipse></g><g id="freepik--Screen--inject-285"><rect x="55.94" y="62.66" width="283.98" height="195.32" style="fill:#60A3AB"></rect><g style="opacity:0.30000000000000004"><rect x="55.94" y="62.66" width="283.98" height="195.32" style="fill:#fff"></rect></g><rect x="55.94" y="62.66" width="283.9" height="15.44" style="fill:#263238"></rect><path d="M201.81,94.55l13-2.3,39.66,147.07-13,2.31a12.3,12.3,0,0,1-13.77-8.77L193.82,107.2A10,10,0,0,1,201.81,94.55Z" style="fill:#60A3AB"></path><g style="opacity:0.5"><path d="M201.81,94.55l13-2.3,39.66,147.07-13,2.31a12.3,12.3,0,0,1-13.77-8.77L193.82,107.2A10,10,0,0,1,201.81,94.55Z"></path></g><path d="M244.13,241.16l53.4-9.51a10,10,0,0,0,8-12.64L271.64,93.35a12.3,12.3,0,0,0-13.77-8.77l-53.4,9.5a10,10,0,0,0-8,12.65l33.88,125.65A12.31,12.31,0,0,0,244.13,241.16Z" style="fill:#60A3AB"></path><path d="M205.13,96.54,219,94.07a2,2,0,0,1,2.21,1.23l.17.42a5,5,0,0,0,5.4,3L240,96.39a4,4,0,0,0,3.35-4.58l-.06-.43a1.67,1.67,0,0,1,1.37-1.88L258.54,87a9.48,9.48,0,0,1,10.6,6.76L303,219.45a7.67,7.67,0,0,1-6.16,9.74l-53.4,9.51a9.48,9.48,0,0,1-10.61-6.76L199,106.28A7.67,7.67,0,0,1,205.13,96.54Z" style="fill:#60A3AB"></path><path d="M205.13,96.54,219,94.07a2,2,0,0,1,2.21,1.23l.17.42a5,5,0,0,0,5.4,3L240,96.39a4,4,0,0,0,3.35-4.58l-.06-.43a1.67,1.67,0,0,1,1.37-1.88L258.54,87a9.48,9.48,0,0,1,10.6,6.76L303,219.45a7.67,7.67,0,0,1-6.16,9.74l-53.4,9.51a9.48,9.48,0,0,1-10.61-6.76L199,106.28A7.67,7.67,0,0,1,205.13,96.54Z" style="fill:#fff;opacity:0.7000000000000001"></path><path d="M235.44,92.6a1.2,1.2,0,0,0,1.34.86,1,1,0,0,0,.78-1.23,1.21,1.21,0,0,0-1.34-.86A1,1,0,0,0,235.44,92.6Z" style="fill:#263238"></path><path d="M227.64,92.9l3.63-.65a1.21,1.21,0,0,1,1.35.86,1,1,0,0,1-.78,1.23L228.2,95a1.2,1.2,0,0,1-1.34-.86A1,1,0,0,1,227.64,92.9Z" style="fill:#263238"></path><polygon points="262.66 92.33 261.53 92.53 261.24 91.42 262.36 91.22 262.66 92.33" style="fill:#60A3AB"></polygon><polygon points="260.11 91.62 260.41 92.73 259.29 92.93 258.99 91.82 258.69 90.72 259.81 90.52 260.11 91.62" style="fill:#60A3AB"></polygon><polygon points="257.27 89.81 257.57 90.92 257.87 92.02 258.16 93.13 257.04 93.33 256.74 92.22 256.44 91.12 256.15 90.01 257.27 89.81" style="fill:#60A3AB"></polygon><path d="M204.05,99.36l.88,3.24,4.94-.88-.22-.81.55-.09-.44-1.63-.55.1-.22-.81Zm3,.32,1.64-.29.44,1.62-1.65.29Z" style="fill:#60A3AB"></path><path d="M213,128.54l11-2a3.37,3.37,0,0,0,2.7-4.27l-2.92-10.81a4.15,4.15,0,0,0-4.65-3l-11,1.95a3.37,3.37,0,0,0-2.7,4.27l2.92,10.81A4.15,4.15,0,0,0,213,128.54Z" style="fill:#60A3AB"></path><path d="M235.21,124.58l11-2a3.36,3.36,0,0,0,2.7-4.27L246,107.54a4.15,4.15,0,0,0-4.65-3l-11,2a3.37,3.37,0,0,0-2.7,4.27l2.91,10.82A4.16,4.16,0,0,0,235.21,124.58Z" style="fill:#60A3AB"></path><path d="M257.46,120.62l11-2a3.36,3.36,0,0,0,2.7-4.27l-2.92-10.81a4.16,4.16,0,0,0-4.65-3l-11,1.95a3.38,3.38,0,0,0-2.7,4.27l2.92,10.82A4.16,4.16,0,0,0,257.46,120.62Z" style="fill:#60A3AB"></path><path d="M221,158.31l11-2a3.36,3.36,0,0,0,2.7-4.27l-2.91-10.81a4.15,4.15,0,0,0-4.65-3l-11,1.95a3.37,3.37,0,0,0-2.69,4.27l2.91,10.82A4.16,4.16,0,0,0,221,158.31Z" style="fill:#60A3AB"></path><path d="M243.24,154.35l11-2a3.36,3.36,0,0,0,2.7-4.27L254,137.31a4.15,4.15,0,0,0-4.65-3l-11,2a3.37,3.37,0,0,0-2.7,4.27l2.92,10.82A4.16,4.16,0,0,0,243.24,154.35Z" style="fill:#60A3AB"></path><path d="M265.48,150.39l11-2a3.36,3.36,0,0,0,2.69-4.27l-2.91-10.81a4.16,4.16,0,0,0-4.65-3l-11,2a3.36,3.36,0,0,0-2.7,4.26l2.92,10.82A4.14,4.14,0,0,0,265.48,150.39Z" style="fill:#60A3AB"></path><path d="M229,188.08l11-2a3.36,3.36,0,0,0,2.7-4.27L239.78,171a4.15,4.15,0,0,0-4.65-3l-11,1.95a3.37,3.37,0,0,0-2.7,4.27l2.92,10.82A4.16,4.16,0,0,0,229,188.08Z" style="fill:#60A3AB"></path><path d="M251.26,184.12l11-2a3.36,3.36,0,0,0,2.69-4.27L262,167.08a4.16,4.16,0,0,0-4.65-3l-11,1.95a3.37,3.37,0,0,0-2.7,4.27l2.91,10.82A4.16,4.16,0,0,0,251.26,184.12Z" style="fill:#60A3AB"></path><path d="M273.51,180.16l11-2a3.36,3.36,0,0,0,2.7-4.27l-2.92-10.81a4.15,4.15,0,0,0-4.64-3l-11,2a3.36,3.36,0,0,0-2.69,4.27l2.91,10.81A4.16,4.16,0,0,0,273.51,180.16Z" style="fill:#60A3AB"></path><path d="M237,217.85l11-2a3.36,3.36,0,0,0,2.7-4.27l-2.91-10.81a4.16,4.16,0,0,0-4.65-3l-11,2a3.36,3.36,0,0,0-2.7,4.26l2.91,10.82A4.16,4.16,0,0,0,237,217.85Z" style="fill:#60A3AB"></path><path d="M259.29,213.89l11-2a3.36,3.36,0,0,0,2.7-4.27l-2.92-10.81a4.16,4.16,0,0,0-4.65-3l-11,2a3.37,3.37,0,0,0-2.7,4.27l2.92,10.81A4.16,4.16,0,0,0,259.29,213.89Z" style="fill:#60A3AB"></path><path d="M281.53,209.93l11-2a3.38,3.38,0,0,0,2.7-4.27l-2.92-10.82a4.16,4.16,0,0,0-4.65-3l-11,2a3.36,3.36,0,0,0-2.7,4.27L276.89,207A4.15,4.15,0,0,0,281.53,209.93Z" style="fill:#60A3AB"></path><g style="opacity:0.4"><path d="M240,96.39l61.26,130.52a7.82,7.82,0,0,1-4.34,2.28l-2.88.52L232.07,97.79Z" style="fill:#fff"></path><path d="M205.13,96.54,219,94.07a2,2,0,0,1,2.21,1.23l.17.42a5,5,0,0,0,5.23,3l61.92,131.92-28.42,5.06L198.74,105A7.63,7.63,0,0,1,205.13,96.54Z" style="fill:#fff"></path></g><path d="M71.22,156.08,70.65,159h5l-.42,2h-5l-.79,4H66.94l2.17-10.86h8.21l-.42,2Z" style="fill:#fff"></path><path d="M77.6,161.31a6.07,6.07,0,0,1,.13-1.17l1.21-6.08h2.53l-1.21,6a4.43,4.43,0,0,0-.1.91c0,1.32.75,2,2.1,2,1.52,0,2.4-.84,2.82-2.87l1.21-6h2.47l-1.23,6.19c-.65,3.21-2.49,4.86-5.55,4.86C79.25,165.11,77.6,163.65,77.6,161.31Z" style="fill:#fff"></path><path d="M101.22,154.06l-2.17,10.86H97l-4-6.8-1.37,6.8H89.09l2.17-10.86h2.08l4,6.81,1.35-6.81Z" style="fill:#fff"></path><path d="M102,160.39a6.39,6.39,0,0,1,6.75-6.52A4.84,4.84,0,0,1,113,155.8l-1.82,1.49a2.93,2.93,0,0,0-2.62-1.28,4,4,0,0,0-4,4.23c0,1.64,1.08,2.73,3,2.73a3.76,3.76,0,0,0,2.88-1.26l1.49,1.52a5.73,5.73,0,0,1-4.59,1.88C104,165.11,102,163.18,102,160.39Z" style="fill:#fff"></path><path d="M116.9,156.11h-3.47l.42-2.05h9.46l-.42,2.05h-3.46l-1.77,8.81h-2.51Z" style="fill:#fff"></path><path d="M124.66,154.06h2.53L125,164.92h-2.53Z" style="fill:#fff"></path><path d="M127.92,160.39a6.38,6.38,0,0,1,6.72-6.52c3.31,0,5.29,1.93,5.29,4.72a6.38,6.38,0,0,1-6.71,6.52C129.91,165.11,127.92,163.18,127.92,160.39Zm9.47-1.66a2.64,2.64,0,0,0-3-2.72,4,4,0,0,0-4,4.24,2.63,2.63,0,0,0,3,2.72A4,4,0,0,0,137.39,158.73Z" style="fill:#fff"></path><path d="M152.82,154.06l-2.18,10.86h-2.06l-4.05-6.8-1.36,6.8h-2.49l2.17-10.86h2.08l4,6.81,1.35-6.81Z" style="fill:#fff"></path><path d="M152.65,163.9l1-1.94a6.17,6.17,0,0,0,3.59,1.13c1.38,0,2.25-.48,2.25-1.27,0-1.74-5.39-.81-5.39-4.27,0-2.23,2-3.68,5-3.68a7.19,7.19,0,0,1,3.76.93l-.95,1.93a5.28,5.28,0,0,0-3-.84c-1.46,0-2.31.56-2.31,1.33,0,1.79,5.38.86,5.38,4.19,0,2.25-2,3.7-5,3.7A7.82,7.82,0,0,1,152.65,163.9Z" style="fill:#fff"></path><path d="M91.17,121.39v26.53h-5L72.9,131.81v16.11H66.84V121.39h5.08l13.19,16.1v-16.1Z" style="fill:#fff"></path><path d="M118,143v4.93H97.46V121.39h20.05v4.92h-14v5.76h12.32v4.78H103.56V143Z" style="fill:#fff"></path><path d="M162.61,121.39l-8.68,26.53h-6.59l-5.84-18-6,18h-6.55l-8.72-26.53h6.37l6,18.64,6.25-18.64h5.68l6.07,18.79,6.18-18.79Z" style="fill:#fff"></path><path d="M72.37,184.58A2.55,2.55,0,1,1,69.83,182,2.54,2.54,0,0,1,72.37,184.58Z" style="fill:#fff"></path><rect x="76.95" y="185.09" width="62.15" height="2.02" style="fill:#fff"></rect><circle cx="69.83" cy="195.03" r="2.54" style="fill:#fff"></circle><rect x="76.95" y="195.55" width="62.15" height="2.02" style="fill:#fff"></rect><path d="M72.37,205.65a2.55,2.55,0,1,1-2.54-2.54A2.54,2.54,0,0,1,72.37,205.65Z" style="fill:#fff"></path><rect x="76.95" y="206.17" width="61.59" height="2.02" style="fill:#fff"></rect><rect x="286.44" y="215.23" width="0.75" height="31.82" transform="translate(-1.47 460.45) rotate(-77.37)" style="fill:#263238"></rect><path d="M326.45,241.12H307a5.19,5.19,0,1,1,0-10.37h19.49a5.19,5.19,0,0,1,0,10.37ZM307,231.5a4.44,4.44,0,1,0,0,8.87h19.49a4.44,4.44,0,0,0,0-8.87Z" style="fill:#263238"></path><path d="M274.05,227.66a2.76,2.76,0,1,1-2.76-2.76A2.76,2.76,0,0,1,274.05,227.66Z" style="fill:#263238"></path><rect x="225.52" y="186.91" width="0.75" height="28.17" transform="translate(-76.45 204.64) rotate(-42.35)" style="fill:#263238"></rect><path d="M211.6,197H192.11a5.19,5.19,0,0,1,0-10.38H211.6a5.19,5.19,0,0,1,0,10.38Zm-19.49-9.63a4.44,4.44,0,0,0,0,8.88H211.6a4.44,4.44,0,0,0,0-8.88Z" style="fill:#263238"></path><path d="M232.63,211.4a2.76,2.76,0,1,0,2.76-2.76A2.76,2.76,0,0,0,232.63,211.4Z" style="fill:#263238"></path><rect x="269.61" y="129.25" width="28.17" height="0.75" transform="translate(-3.13 252.18) rotate(-47.69)" style="fill:#263238"></rect><path d="M317.49,125.62H298a5.19,5.19,0,0,1,0-10.37h19.49a5.19,5.19,0,1,1,0,10.37ZM298,116a4.44,4.44,0,0,0,0,8.87h19.49a4.44,4.44,0,1,0,0-8.87Z" style="fill:#263238"></path><path d="M277,140a2.76,2.76,0,1,1-2.76-2.76A2.76,2.76,0,0,1,277,140Z" style="fill:#263238"></path><rect x="205.1" y="96.8" width="0.75" height="58.6" transform="translate(-33.83 155.3) rotate(-38.5)" style="fill:#263238"></rect><path d="M182.42,108.35H162.93a5.19,5.19,0,0,1,0-10.37h19.49a5.19,5.19,0,1,1,0,10.37Zm-19.49-9.62a4.44,4.44,0,0,0,0,8.87h19.49a4.44,4.44,0,1,0,0-8.87Z" style="fill:#263238"></path><path d="M221,149a2.76,2.76,0,1,0,2.76-2.76A2.75,2.75,0,0,0,221,149Z" style="fill:#263238"></path></g><g id="freepik--Character--inject-285"><path d="M345,207.73l-9.33-.2s-6.41-2.21-7.16-1.76l-3.17.24a3.17,3.17,0,0,0-1.28,3.93l1,2.23a2.65,2.65,0,0,0,2.92,1.61l8.08-1.08,9.93-.12Z" style="fill:#eec1bb"></path><path d="M391.2,185.72s-4-3.6-11.47,1.57c-6.91,4.81-16.5,14.6-20,15l-20.08,4v7.85s14.05-.87,20.12-1.3c7.08-.52,14.31-5.94,17.67-9.84C381.51,198.34,390,190.26,391.2,185.72Z" style="fill:#60A3AB"></path><path d="M391.2,185.72s-4-3.6-11.47,1.57c-6.91,4.81-16.5,14.6-20,15l-20.08,4v7.85s14.05-.87,20.12-1.3c7.08-.52,14.31-5.94,17.67-9.84C381.51,198.34,390,190.26,391.2,185.72Z" style="fill:#fff;opacity:0.7000000000000001"></path><path d="M362.84,212.34c6-1.53,11.77-6,14.65-9.33a37.58,37.58,0,0,0,7.67-14.46S369,205.41,362.84,212.34Z" style="opacity:0.1"></path><polygon points="433.01 399.34 438.6 397.42 438.03 387.77 437.07 378.95 428.3 379.92 430.79 390.2 433.01 399.34" style="fill:#ffc3bd"></polygon><path d="M427.76,412.67a9.75,9.75,0,0,1,2.59-2.41h0s2.43-4.07,1.5-14.22l4-2.21a3.79,3.79,0,0,1,4.28.53,2.47,2.47,0,0,1,.42.49,27.2,27.2,0,0,1,1.24,3,91.48,91.48,0,0,1,2.81,10.7l-.77.22-2-6.65c-.66-2.27-1.77.88-1.64,3.46s-.27,5.48-5.25,6.88C429.13,414.08,426.64,414.47,427.76,412.67Z" style="fill:#263238"></path><path d="M431.71,392.35s.24,4.69.05,10a21.12,21.12,0,0,1-1.41,7.9s3.92-.29,4.9-3.23,1-12.11,4.9-12.64a9.51,9.51,0,0,0-1.55-1.49C437.69,392.19,431.71,392.35,431.71,392.35Z" style="fill:#ffc3bd"></path><polygon points="375.79 400.63 381.69 400.38 383.9 390.97 385.5 382.25 376.82 380.67 376.27 391.23 375.79 400.63" style="fill:#ffc3bd"></polygon><path d="M367,411.9a9.9,9.9,0,0,1,3.17-1.57h0s3.5-3.2,5.5-13.2l4.46-1a3.78,3.78,0,0,1,3.95,1.72,2.12,2.12,0,0,1,.25.6,25.09,25.09,0,0,1,.34,3.23,90.78,90.78,0,0,1-.37,11.06h-.8l0-6.95c0-2.36-1.94.34-2.55,2.84s-1.82,5.18-7,5.1C367.86,413.65,365.36,413.31,367,411.9Z" style="fill:#263238"></path><path d="M376.54,393.56s-1.11,4.56-2.82,9.6a21,21,0,0,1-3.6,7.17s3.84.84,5.62-1.7,4.4-11.32,8.31-10.71a9.58,9.58,0,0,0-1.06-1.87C382.32,395.11,376.54,393.56,376.54,393.56Z" style="fill:#ffc3bd"></path><path d="M375.06,324.81l1.32,63.55,7.82.81s6-22.69,7.34-45.48c.31-5.26-.94-11.38-.36-15.53.51-3.64,2-5.92,4-14.15,1.29-5.24,2.71-11.7,3.89-17.94v0c1.07-5.64,1.92-11.11,2.27-15.36a29.36,29.36,0,0,0,2.4-3.93,36,36,0,0,0,3.74-22.8l-26-11.53Z" style="fill:#263238"></path><path d="M382.5,240.83s-12.32,63.83-12.38,95.92c0,22.2-.1,33.61-.12,38.22a6.07,6.07,0,0,0,1.78,4.33l4.86,4.85h8.77l5.95-3.4a6,6,0,0,0,3.05-5.41c-.24-9.65-.76-35.78.54-43.43,1.61-9.43,7.61-62.23,7.55-67.91S405.33,235.82,382.5,240.83Z" style="fill:#263238"></path><path d="M392.92,244s13.28,69.47,17.42,96c3.43,21.93,9.17,32.33,10.41,36.77a6.06,6.06,0,0,0,2.9,3.67l6,3.32,8.44-2.41,4.78-4.9a6.05,6.05,0,0,0,1.44-6.05c-2.89-9.2-10.59-34.18-11.44-41.89-1.05-9.52-7.67-47.7-8-60.48C424.71,262.37,413.49,232.92,392.92,244Z" style="fill:#263238"></path><path d="M396.64,267c.14.68,1,16.49,1.7,31.38.23-.69.47-1.47.71-2.33v0c1.07-5.64,1.92-11.11,2.27-15.36a29.36,29.36,0,0,0,2.4-3.93c.93-4.17,1.75-7.85,2.27-10Z" style="opacity:0.2"></path><path d="M392.72,250.58l17.95,76.31,19.41,60.52,7.71-1.45s-.73-23.46-5.94-45.69c-1.21-5.12-4.15-10.63-4.78-14.78-.55-3.63.18-6.22-.22-14.7-.5-10.24-.93-20.15-1.64-32.82,0,0,1.88-17.51-3.45-27.74Z" style="fill:#263238"></path><path d="M378.36,196.05a73.86,73.86,0,0,0-.07,15c.28,6.7,1.73,13.75,3.56,24.6,3.67,2.15,22.23,1.26,34.11-.28-.72-9.5.46-20.37,6.9-41.77,1.5-4.95-1.84-9.72-7.15-10.22-1.43-.14-2.94-.26-4.48-.32a119.67,119.67,0,0,0-16.29,0c-1.74.15-3.61.36-5.37.59C383.25,184.47,379.52,189.34,378.36,196.05Z" style="fill:#60A3AB"></path><path d="M378.36,196.05a73.86,73.86,0,0,0-.07,15c.28,6.7,1.73,13.75,3.56,24.6,3.67,2.15,22.23,1.26,34.11-.28-.72-9.5.46-20.37,6.9-41.77,1.5-4.95-1.84-9.72-7.15-10.22-1.43-.14-2.94-.26-4.48-.32a119.67,119.67,0,0,0-16.29,0c-1.74.15-3.61.36-5.37.59C383.25,184.47,379.52,189.34,378.36,196.05Z" style="fill:#fff;opacity:0.7000000000000001"></path><polygon points="381.85 235.65 415.96 235.38 423.22 253.97 396.64 264 380.49 261.37 381.85 235.65" style="fill:#263238"></polygon><path d="M381.77,238a156.41,156.41,0,0,0,35.47-.11.87.87,0,0,0,.65-1,.45.45,0,0,0,0-.11c-.29-.69-.59-1.38-.87-2.07a.74.74,0,0,0-.77-.48,158,158,0,0,1-34.64,0c-.43-.06-.54.22-.59.65a13.07,13.07,0,0,0,.31,3.12Z" style="fill:#60A3AB"></path><path d="M398.05,180.27a6,6,0,0,0-4.33,2,10.7,10.7,0,0,0-2.28,4.33,13.48,13.48,0,0,0,.41,9.31c1.33-1.18,2.38-2.16,3.7-3.34a28,28,0,0,1,4.93,3.87,39.22,39.22,0,0,0,8.3-10.87,4.57,4.57,0,0,0,.63-3.58c-.5-1.31-2-1.9-3.39-2.19C403.52,179.33,400.61,180.28,398.05,180.27Z" style="fill:#60A3AB"></path><path d="M398.05,180.27a6,6,0,0,0-4.33,2,10.7,10.7,0,0,0-2.28,4.33,13.48,13.48,0,0,0,.41,9.31c1.33-1.18,2.38-2.16,3.7-3.34a28,28,0,0,1,4.93,3.87,39.22,39.22,0,0,0,8.3-10.87,4.57,4.57,0,0,0,.63-3.58c-.5-1.31-2-1.9-3.39-2.19C403.52,179.33,400.61,180.28,398.05,180.27Z" style="fill:#fff;opacity:0.5"></path><path d="M395.53,144.35a11.79,11.79,0,0,0-6.39,1.63c-1.84,1.25-3.08,3.62-2.43,5.75a6.11,6.11,0,0,0-2.26,6.05c.51,2.11,1.75,4,2.71,5.91a12.55,12.55,0,0,1,.73,7.67c-.45,1.49-1.59,2.93-1.21,4.44a3.23,3.23,0,0,0,3,2.14,9.36,9.36,0,0,0,3.82-.89c1.36-.53,2.82,1.07,4.27,1.17a3.31,3.31,0,0,0,3.06-2.33,9.65,9.65,0,0,0,.26-4.08c-.42-5.27-.52-11.92-.94-17.18a27.19,27.19,0,0,0-.88-5.77A9.44,9.44,0,0,0,395.53,144.35Z" style="fill:#263238"></path><path d="M407,166.66c-.7,3.75-1.37,9.84-.2,13.92a5.9,5.9,0,0,1-2.55,6.52,66.67,66.67,0,0,1-6.79,3.79,1.63,1.63,0,0,1-2.12-.72v0a4.93,4.93,0,0,1,1.58-6.59c1.23-.78,1.58-5.07.79-8.07Z" style="fill:#ffc3bd"></path><path d="M403.2,170.26l-5.51,5.22a15.36,15.36,0,0,1,.5,2.69c2.09-.48,4.94-3,5.15-5.25A7.44,7.44,0,0,0,403.2,170.26Z" style="opacity:0.2"></path><path d="M410.38,156.45c-.83,8.06-1,11.48-5.26,15.66-6.34,6.26-15.95,4-17.53-4-1.42-7.22.19-19.18,8.16-22.47a10.37,10.37,0,0,1,14.63,10.79Z" style="fill:#ffc3bd"></path><path d="M392.21,159.73a19.63,19.63,0,0,1-3.21,3.94,2.71,2.71,0,0,0,2.25.76Z" style="fill:#ba4d3c"></path><path d="M394.2,167.4a6,6,0,0,1-1.12-.07.19.19,0,0,1-.16-.21h0a.23.23,0,0,1,.24-.17,5.64,5.64,0,0,0,4.66-1.49.19.19,0,0,1,.27,0h0a.18.18,0,0,1,0,.27h0A5.86,5.86,0,0,1,394.2,167.4Z" style="fill:#263238"></path><path d="M408.59,154.42c-2.23,5.54-4.48,11.39-2.27,16.94A22.2,22.2,0,0,0,414.59,155C411.92,155.23,411.07,155.45,408.59,154.42Z" style="fill:#263238"></path><path d="M408.59,154.42c-2.23,5.54-4.48,11.39-2.27,16.94A22.2,22.2,0,0,0,414.59,155C411.92,155.23,411.07,155.45,408.59,154.42Z" style="fill:#263238"></path><path d="M396,142.87a5.53,5.53,0,0,0-.19,6.63,7.42,7.42,0,0,0,6.2,2.95,7.43,7.43,0,0,0-.27,5.52,6.43,6.43,0,0,0,3.65,3.58,13.42,13.42,0,0,1,.2,10.79c-.65,1.48-1.59,3.24-.7,4.59s2.95,1.17,4.39.45,2.75-1.85,4.36-2c.9-.07,1.8.19,2.7,0s4.3-1.24.84-5.88c1.65-3.92,5.33-12.45,1.05-17.18a24.89,24.89,0,0,0-10.05-6.86,19.87,19.87,0,0,0-6.66-1.35C399.25,144.19,397.51,141.17,396,142.87Z" style="fill:#263238"></path><path d="M410.57,164.52a5.51,5.51,0,0,1-3.5,2.83c-1.87.42-2.6-1.73-1.89-3.83.66-1.89,2.37-4.38,4.16-3.84S411.54,162.7,410.57,164.52Z" style="fill:#ffc3bd"></path><path d="M400.25,189.4c9.75-4.9,7.75-9.71,6.11-11-.84,1.64-5.93,4.41-7.85,4.39-.95-.48-.11-3.41-.37-3.65a5.21,5.21,0,0,0-4.22,4.55,12.07,12.07,0,0,0,1.8,6.15c.41.79,1.56.9,2.45.78Z" style="fill:#60A3AB"></path><path d="M398.5,207.43a16,16,0,0,1-7.1,3.84A137.49,137.49,0,0,1,395.46,193a2.5,2.5,0,0,1,1.81-.17l.84.33Z" style="fill:#60A3AB"></path><path d="M400.74,205.5a16.82,16.82,0,0,1-5.18,5.35,130.39,130.39,0,0,1,.09-18.18,5.7,5.7,0,0,1,1.68,0l.89.14Z" style="fill:#60A3AB"></path><path d="M400.74,205.5a16.82,16.82,0,0,1-5.18,5.35,130.39,130.39,0,0,1,.09-18.18,5.7,5.7,0,0,1,1.68,0l.89.14Z" style="fill:#fff;opacity:0.1"></path><path d="M400.71,189.19a5.1,5.1,0,0,0-6-.74,9.62,9.62,0,0,0,.62,4.83c1.07-.06,2,.23,3.11.18C399,191.89,399.41,190.2,400.71,189.19Z" style="fill:#60A3AB"></path><path d="M400.71,189.19a5.1,5.1,0,0,0-6-.74,9.62,9.62,0,0,0,.62,4.83c1.07-.06,2,.23,3.11.18C399,191.89,399.41,190.2,400.71,189.19Z" style="fill:#fff;opacity:0.2"></path><path d="M335.36,216.51a1.13,1.13,0,0,1,.21,1.62h0a1.14,1.14,0,0,1-1.57.18l-48.92-44a.38.38,0,0,1-.08-.52h0a.38.38,0,0,1,.56-.1Z" style="fill:#263238"></path><g style="opacity:0.30000000000000004"><path d="M335.36,216.51a1.13,1.13,0,0,1,.21,1.62h0a1.14,1.14,0,0,1-1.57.18l-48.92-44a.38.38,0,0,1-.08-.52h0a.38.38,0,0,1,.56-.1Z" style="fill:#fff"></path></g><path d="M374.06,205.34l2,18.66a1.48,1.48,0,0,0,1.45,1.28l28.94-.11a1.14,1.14,0,0,0,1.16-1.29l-2-18.66a1.48,1.48,0,0,0-1.45-1.28l-28.94.11A1.14,1.14,0,0,0,374.06,205.34Z" style="fill:#263238"></path><path d="M405.53,204.3l.09.87a1.47,1.47,0,0,0-1.44-1.28l-28.94.11a1.15,1.15,0,0,0-1.16,1.3l-.1-.88a1.15,1.15,0,0,1,1.16-1.3l28.94-.11A1.48,1.48,0,0,1,405.53,204.3Z" style="fill:#263238"></path><path d="M405.53,204.3l.09.87a1.47,1.47,0,0,0-1.44-1.28l-28.94.11a1.15,1.15,0,0,0-1.16,1.3l-.1-.88a1.15,1.15,0,0,1,1.16-1.3l28.94-.11A1.48,1.48,0,0,1,405.53,204.3Z" style="fill:#fff;opacity:0.7000000000000001"></path><circle cx="390" cy="215.01" r="1.92" style="fill:#fff"></circle><path d="M424.69,193.08a13.71,13.71,0,0,1,.33,2.78l.61,26.83c.06,2.58-1.42,5.27-6.13,5.22L399,223.76l-8-.16a2.38,2.38,0,0,1-2.25-2.83l.79-4.12a2.39,2.39,0,0,1,2.25-1.93l2.12-.09a2.4,2.4,0,0,1,1.91.84L400.3,219l17.3-.42c.9.2-6.57-33.81-2.06-34.82C417.13,183.43,422.8,184.62,424.69,193.08Z" style="fill:#eec1bb"></path><path d="M397.08,159c-.05.67-.45,1.22-.88,1.22s-.74-.56-.69-1.24.45-1.23.88-1.22S397.13,158.34,397.08,159Z" style="fill:#263238"></path><path d="M390.12,158.81c-.05.68-.44,1.23-.87,1.22s-.74-.56-.69-1.23.44-1.22.88-1.22S390.18,158.13,390.12,158.81Z" style="fill:#263238"></path><path d="M389.62,157.62l-1.55-.49S388.79,158.42,389.62,157.62Z" style="fill:#263238"></path><path d="M399.52,155.85a.35.35,0,0,1-.25-.16,2.91,2.91,0,0,0-2.39-1.38.36.36,0,0,1-.38-.33v0a.43.43,0,0,1,.41-.41,3.6,3.6,0,0,1,3,1.72.4.4,0,0,1-.14.54A.38.38,0,0,1,399.52,155.85Z" style="fill:#263238"></path><path d="M387.86,155.35a.36.36,0,0,1-.42-.3.38.38,0,0,1,.1-.32A4.17,4.17,0,0,1,390.8,153a.38.38,0,0,1,.35.39v0a.42.42,0,0,1-.43.38,3.32,3.32,0,0,0-2.57,1.38A.45.45,0,0,1,387.86,155.35Z" style="fill:#263238"></path><path d="M396.58,157.82l-1.55-.49S395.75,158.61,396.58,157.82Z" style="fill:#263238"></path><polygon points="410.29 225.26 401.51 222.75 401.51 222.74 410.29 225.26" style="fill:#eec1bb"></polygon><path d="M414.22,192.61,416,225.26s1.14-12.22,3.52-25.94C419.5,199.32,420.47,188,414.22,192.61Z" style="opacity:0.1"></path><path d="M400.3,219l17.3-.42c.9.2-6.57-33.81-2.06-34.82,1.59-.35,7.26.84,9.15,9.3a13.71,13.71,0,0,1,.33,2.78l.61,26.83c.06,2.58-1.42,5.27-6.13,5.22L399,223.76Z" style="fill:#60A3AB"></path><g style="opacity:0.8"><path d="M400.3,219l17.3-.42c.9.2-6.57-33.81-2.06-34.82,1.59-.35,7.26.84,9.15,9.3a13.71,13.71,0,0,1,.33,2.78l.61,26.83c.06,2.58-1.42,5.27-6.13,5.22L399,223.76Z" style="fill:#fff"></path></g></g><g id="freepik--Plant--inject-285"><path d="M92.34,358.63s-10.3-8.11-18.81-.37l3.43.45-5.12,1.34a22,22,0,0,0-1.92,2.75c-.75,1.25-1.43,2.41-2.08,3.51l3.42.71L66,369.48c-5.37,9.47-6.27,12.35-6.27,12.35a49.27,49.27,0,0,0,10.19-1.08l3-7.87.62,6.95a32.18,32.18,0,0,0,10.19-5l-1.34-7,4.09,4.6a20.51,20.51,0,0,0,4.92-8.63l-2.32-2.23,2.73.56A25.16,25.16,0,0,0,92.34,358.63Z" style="fill:#60A3AB"></path><path d="M92.34,358.63s-10.3-8.11-18.81-.37l3.43.45-5.12,1.34a22,22,0,0,0-1.92,2.75c-.75,1.25-1.43,2.41-2.08,3.51l3.42.71L66,369.48c-5.37,9.47-6.27,12.35-6.27,12.35a49.27,49.27,0,0,0,10.19-1.08l3-7.87.62,6.95a32.18,32.18,0,0,0,10.19-5l-1.34-7,4.09,4.6a20.51,20.51,0,0,0,4.92-8.63l-2.32-2.23,2.73.56A25.16,25.16,0,0,0,92.34,358.63Z" style="fill:#fff;opacity:0.2"></path><path d="M112.58,352.55s13.29-10.48,24.29-.47l-4.42.58,6.6,1.73a26.92,26.92,0,0,1,2.49,3.55c1,1.61,1.85,3.12,2.68,4.54l-4.42.92,6.78,3.18c6.94,12.23,8.1,15.95,8.1,15.95a63.61,63.61,0,0,1-13.16-1.4L137.61,371l-.79,9a41.32,41.32,0,0,1-13.17-6.41l1.73-9.08-5.29,5.94a26.44,26.44,0,0,1-6.35-11.15l3-2.87-3.52.72A31.84,31.84,0,0,1,112.58,352.55Z" style="fill:#60A3AB"></path><path d="M112.58,352.55s13.29-10.48,24.29-.47l-4.42.58,6.6,1.73a26.92,26.92,0,0,1,2.49,3.55c1,1.61,1.85,3.12,2.68,4.54l-4.42.92,6.78,3.18c6.94,12.23,8.1,15.95,8.1,15.95a63.61,63.61,0,0,1-13.16-1.4L137.61,371l-.79,9a41.32,41.32,0,0,1-13.17-6.41l1.73-9.08-5.29,5.94a26.44,26.44,0,0,1-6.35-11.15l3-2.87-3.52.72A31.84,31.84,0,0,1,112.58,352.55Z" style="fill:#fff;opacity:0.30000000000000004"></path><path d="M107.13,333.37s-2,16.81-16.84,17.51L93,347.34l-5.89,3.45a27.85,27.85,0,0,1-4.27-.75c-1.82-.46-3.51-.9-5.1-1.32L80.21,345l-7,2.54c-13.55-3.74-17-5.55-17-5.55a64.19,64.19,0,0,1,10.3-8.32l10,4.43-5.79-6.91a41.61,41.61,0,0,1,13.84-4.78L89.67,334l-.47-7.93a26.44,26.44,0,0,1,12.38,3.39l-.08,4.15,2-3A33.15,33.15,0,0,1,107.13,333.37Z" style="fill:#60A3AB"></path><path d="M107.13,333.37s-2,16.81-16.84,17.51L93,347.34l-5.89,3.45a27.85,27.85,0,0,1-4.27-.75c-1.82-.46-3.51-.9-5.1-1.32L80.21,345l-7,2.54c-13.55-3.74-17-5.55-17-5.55a64.19,64.19,0,0,1,10.3-8.32l10,4.43-5.79-6.91a41.61,41.61,0,0,1,13.84-4.78L89.67,334l-.47-7.93a26.44,26.44,0,0,1,12.38,3.39l-.08,4.15,2-3A33.15,33.15,0,0,1,107.13,333.37Z" style="fill:#fff;opacity:0.5"></path><path d="M74.74,366.09s22.75-32,30.05,15.16h-2.61S99.7,359.66,91,358.05,74.74,366.09,74.74,366.09Z" style="fill:#60A3AB"></path><path d="M131.16,360.22s-21.94-44.33-29,21h2.51s2.39-29.94,10.75-32.17S131.16,360.22,131.16,360.22Z" style="fill:#60A3AB"></path><path d="M79.07,340.54s33.28-5.13,28.06,41.36h2.61S116.18,335.58,79.07,340.54Z" style="fill:#60A3AB"></path><path d="M97.37,409.35,91.23,379h30.29l-6.13,30.35c-.37,1.8-2.72,3.15-5.34,3.15H102.7C100.08,412.5,97.73,411.15,97.37,409.35Z" style="fill:#263238"></path></g><g id="freepik--Desk--inject-285"><g id="freepik--monitor-screen--inject-285"><g id="freepik--PC--inject-285"><polygon points="252.19 303.56 292.51 303.73 290.39 278.16 250.07 277.98 252.19 303.56" style="fill:#60A3AB"></polygon><path d="M252.73,305.56l39.74.18a1.85,1.85,0,0,0,1.87-2l-2.11-25.41a2.26,2.26,0,0,0-2.21-2.05l-39.73-.18a1.84,1.84,0,0,0-1.87,2l2.1,25.41A2.29,2.29,0,0,0,252.73,305.56Z" style="fill:#60A3AB"></path><g style="opacity:0.7000000000000001"><polygon points="252.19 303.56 292.51 303.73 290.39 278.16 250.07 277.98 252.19 303.56" style="fill:#60A3AB"></polygon><path d="M254,303.56l36.34.16a2,2,0,0,0,2-2.14L290.54,280a2,2,0,0,0-2-1.82L252.23,278a2,2,0,0,0-2,2.15l1.79,21.6A2,2,0,0,0,254,303.56Z" style="fill:#fff;opacity:0.9"></path></g><polygon points="258.9 276.06 266.65 305.55 264 305.54 256.34 276.05 258.9 276.06" style="fill:#fff;opacity:0.1;isolation:isolate"></polygon><polygon points="254.81 276.04 262.56 305.53 257.3 305.51 249.65 276.02 254.81 276.04" style="fill:#fff;opacity:0.1;isolation:isolate"></polygon></g></g><path d="M265.34,305.41l-13.41.12c-.17,1.56.51,2.12,1.37,2.11l49.08-.07a2,2,0,0,0,2-2h0Z" style="fill:#60A3AB"></path><path d="M251.93,305.53c-.17,1.56.51,2.12,1.37,2.11l17,0c-1.12,0-2.54-1.09-2.54-2.21Z" style="fill:#fff;opacity:0.2"></path><path d="M265.34,305.41l-13.41.12c-.17,1.56.51,2.12,1.37,2.11l49.08-.07a2,2,0,0,0,2-2h0Z" style="fill:#fff;opacity:0.2"></path><rect x="182.74" y="306.19" width="4.46" height="1.77" transform="translate(369.93 614.15) rotate(180)" style="fill:#263238"></rect><path d="M183,307.06l33.69-.36c4.14,0,5.5-7.83,5.5-10.85h0a9.31,9.31,0,0,0-9.29-9.28H180.57a5.51,5.51,0,0,0-5.5,5.49S175.74,307.06,183,307.06Z" style="fill:#60A3AB"></path><g style="opacity:0.5"><g style="opacity:0.7000000000000001"><path d="M183,307.06l33.69-.36c4.14,0,5.5-7.83,5.5-10.85h0a9.31,9.31,0,0,0-9.29-9.28H180.57a5.51,5.51,0,0,0-5.5,5.49S175.74,307.06,183,307.06Z" style="fill:#fff"></path></g></g><path d="M179.64,286.66l32.79-.07a21.21,21.21,0,0,1,12.77,4.23l4,3a1.17,1.17,0,0,1-.73,2.1l-32.84-.81Z" style="fill:#60A3AB"></path><path d="M179.64,286.66l32.07-.07c5.25,0,9.62,1.06,14.07,4.66l4.41,3.3a.76.76,0,0,1-.46,1.37l-33.58-.6Z" style="fill:#fff;opacity:0.5"></path><rect x="223.88" y="306.19" width="4.46" height="1.77" transform="translate(452.22 614.15) rotate(180)" style="fill:#263238"></rect><rect x="194.25" y="306.19" width="4.46" height="1.77" transform="translate(392.95 614.15) rotate(180)" style="fill:#263238"></rect><rect x="211.46" y="306.19" width="4.46" height="1.77" transform="translate(427.37 614.15) rotate(180)" style="fill:#263238"></rect><path d="M196.44,307.06h30a6.87,6.87,0,0,0,6.85-6.85h0a6.87,6.87,0,0,0-6.85-6.85h-30a6.87,6.87,0,0,0-6.85,6.85h0A6.87,6.87,0,0,0,196.44,307.06Z" style="fill:#60A3AB"></path><g style="clip-path:url(#freepik--clip-path--inject-285)"><rect x="196.35" y="297.62" width="29.18" height="1.15" style="fill:#263238"></rect><rect x="196.35" y="299.41" width="29.18" height="1.15" style="fill:#263238"></rect><rect x="196.35" y="301.21" width="29.18" height="1.15" style="fill:#263238"></rect><rect x="196.35" y="303" width="29.18" height="1.15" style="fill:#263238"></rect></g><path d="M187.55,286.47l.19.19,5.4,2.43c5.23,2.42,8.08,2.18,7.2,0,0,0-.94-8.69-6.71-8.69A6.08,6.08,0,0,0,187.55,286.47Z" style="fill:#60A3AB"></path><g style="opacity:0.7000000000000001"><path d="M187.55,286.47l.19.19,5.4,2.43c5.23,2.42,8.08,2.18,7.2,0,0,0-.94-8.69-6.71-8.69A6.08,6.08,0,0,0,187.55,286.47Z" style="fill:#fff"></path></g><g id="freepik--Group--inject-285"><polygon points="302.94 310.67 302.94 413.96 300.26 413.96 296.88 310.67 302.94 310.67" style="fill:#263238"></polygon><polygon points="271.25 314.05 271.25 413.94 268.57 413.94 265.19 314.05 271.25 314.05" style="fill:#263238"></polygon><polygon points="271.25 314.05 271.25 413.94 268.57 413.94 265.19 314.05 271.25 314.05" style="opacity:0.5"></polygon><polygon points="141.95 310.67 141.95 412.54 144.63 412.54 148.01 310.67 141.95 310.67" style="fill:#263238"></polygon><polygon points="141.95 310.67 141.95 412.54 144.63 412.54 148.01 310.67 141.95 310.67" style="opacity:0.5"></polygon><polygon points="173.64 314.05 173.64 413.33 176.32 413.33 179.7 314.05 173.64 314.05" style="fill:#263238"></polygon><rect x="123.4" y="307.56" width="200.04" height="4.33" style="fill:#263238"></rect><polygon points="136.56 316.53 309.28 316.53 316.28 311.89 129.55 311.89 136.56 316.53" style="fill:#263238"></polygon><polygon points="136.56 316.53 309.28 316.53 316.28 311.89 129.55 311.89 136.56 316.53" style="opacity:0.5"></polygon></g></g></svg>