<svg id="Warstwa_1" data-name="Warstwa 1" xmlns="http://www.w3.org/2000/svg" viewBox="0 0 1080 1080"><defs><style>.cls-1{fill:#fff;}</style></defs><polygon class="cls-1" points="233.81 509.94 233.81 566.95 188.25 566.95 188.25 667.28 126.69 667.28 126.69 566.95 36 566.95 36 345.76 97.57 345.76 97.57 509.94 233.81 509.94"/><rect class="cls-1" x="130.63" y="422" width="132.54" height="52.45"/><path class="cls-1" d="M351,469h42v24.72H319V362.22h32Z"/><path class="cls-1" d="M497.53,449.11H425.06q.75,9.75,6.27,14.89a19.15,19.15,0,0,0,13.58,5.15q12,0,16.67-10.11h34.08a46.85,46.85,0,0,1-9.46,18.54,47.43,47.43,0,0,1-17.13,12.92,55.09,55.09,0,0,1-23,4.68,56.06,56.06,0,0,1-27.34-6.55A46.56,46.56,0,0,1,400,469.9q-6.75-12.16-6.74-28.47T399.87,413a46.12,46.12,0,0,1,18.64-18.73q12-6.54,27.52-6.55,15.18,0,27,6.37a45.74,45.74,0,0,1,18.45,18.16q6.65,11.8,6.64,27.53A80.33,80.33,0,0,1,497.53,449.11Zm-32.21-17.79q0-8.24-5.61-13.11a20.72,20.72,0,0,0-14-4.86A20.29,20.29,0,0,0,432.08,418q-5.52,4.68-6.83,13.29Z"/><path class="cls-1" d="M524,490.5a41.61,41.61,0,0,1-16.85-12.83,33.75,33.75,0,0,1-6.93-18.26h31.65a12.15,12.15,0,0,0,5,8.8A17.88,17.88,0,0,0,548,471.58c4,0,7.08-.77,9.27-2.34a7.17,7.17,0,0,0,3.28-6.08c0-3-1.57-5.21-4.68-6.65a95.69,95.69,0,0,0-15.17-4.78A140.47,140.47,0,0,1,522,446.21,32.26,32.26,0,0,1,509,437q-5.43-6.27-5.43-16.94a28.76,28.76,0,0,1,5-16.39q5-7.4,14.61-11.7t22.94-4.31q19.67,0,31,9.74t13,25.84H560.53a12.72,12.72,0,0,0-4.78-8.61q-4-3.2-10.58-3.19c-3.74,0-6.62.72-8.61,2.16a6.86,6.86,0,0,0-3,5.89q0,4.5,4.78,6.75t14.88,4.49a164.58,164.58,0,0,1,18.92,5.9A32.68,32.68,0,0,1,585,446q5.53,6.47,5.72,17.32a27.51,27.51,0,0,1-5.15,16.39,34,34,0,0,1-14.8,11.33,56.69,56.69,0,0,1-22.37,4.12A60.1,60.1,0,0,1,524,490.5Z"/><path class="cls-1" d="M619.55,490.5a41.61,41.61,0,0,1-16.85-12.83,33.75,33.75,0,0,1-6.93-18.26h31.65a12.15,12.15,0,0,0,5.05,8.8,17.88,17.88,0,0,0,11,3.37c4,0,7.09-.77,9.27-2.34a7.17,7.17,0,0,0,3.28-6.08c0-3-1.56-5.21-4.68-6.65a95.34,95.34,0,0,0-15.17-4.78,140.47,140.47,0,0,1-18.73-5.52A32.26,32.26,0,0,1,604.57,437q-5.43-6.27-5.43-16.94a28.76,28.76,0,0,1,5-16.39q5-7.4,14.61-11.7t22.94-4.31q19.67,0,31,9.74t13,25.84H656.07a12.72,12.72,0,0,0-4.78-8.61q-4-3.2-10.58-3.19-5.61,0-8.61,2.16a6.86,6.86,0,0,0-3,5.89q0,4.5,4.78,6.75t14.89,4.49a164.33,164.33,0,0,1,18.91,5.9A32.79,32.79,0,0,1,680.51,446q5.52,6.47,5.71,17.32a27.51,27.51,0,0,1-5.15,16.39,34.07,34.07,0,0,1-14.79,11.33,56.74,56.74,0,0,1-22.38,4.12A60.1,60.1,0,0,1,619.55,490.5Z"/><path class="cls-1" d="M716.78,488.63a48,48,0,0,1-19.29-18.73q-7-12.16-7-28.47,0-16.1,7.11-28.37a48.45,48.45,0,0,1,19.48-18.82,61.91,61.91,0,0,1,55.43,0A48.45,48.45,0,0,1,792,413.06q7.11,12.27,7.11,28.37t-7.21,28.37a48.79,48.79,0,0,1-19.66,18.83,58.76,58.76,0,0,1-27.81,6.55A57.64,57.64,0,0,1,716.78,488.63ZM760,460.72q6.45-6.74,6.46-19.29t-6.28-19.28a21.29,21.29,0,0,0-31-.1q-6.18,6.66-6.18,19.38,0,12.56,6.09,19.29a19.66,19.66,0,0,0,15.26,6.74A20.85,20.85,0,0,0,760,460.72Z"/><path class="cls-1" d="M901.1,400q11,11.9,11,32.67v61.05H880.22V436.94q0-10.49-5.43-16.29t-14.6-5.81q-9.18,0-14.61,5.81t-5.43,16.29v56.74h-32V389.19h32v13.86a33.75,33.75,0,0,1,13.11-11,41.71,41.71,0,0,1,18.54-4Q890.15,388.06,901.1,400Z"/><path class="cls-1" d="M316.56,627.77V601.93l59.18-84.65h35.77v82.77h15.35v27.72H411.51v24.34h-32V627.77Zm65.17-75.28-31.46,47.56h31.46Z"/><path class="cls-1" d="M561.69,520.65v25.66H508.13V574H548.2v24.91H508.13v53.18h-32V520.65Z"/><path class="cls-1" d="M670.73,547.62V652.11h-32V637.88A35.21,35.21,0,0,1,625.51,649a40.32,40.32,0,0,1-18.45,4.22,41.27,41.27,0,0,1-21.16-5.34,36,36,0,0,1-14.23-15.45q-5.05-10.11-5.06-23.78v-61h31.84v56.74q0,10.49,5.43,16.29t14.6,5.81q9.36,0,14.8-5.81t5.43-16.29V547.62Z"/><path class="cls-1" d="M744.55,625v27.15H728.26q-17.41,0-27.16-8.52t-9.73-27.81V574.21H678.63V547.62h12.74V522.15h32v25.47h21v26.59h-21v41.95q0,4.68,2.24,6.74c1.5,1.38,4,2.06,7.49,2.06Z"/><path class="cls-1" d="M857.64,547.62V652.11h-32V637.88A35.05,35.05,0,0,1,812.41,649,40.24,40.24,0,0,1,794,653.24a41.25,41.25,0,0,1-21.16-5.34,36,36,0,0,1-14.24-15.45q-5.05-10.11-5.05-23.78v-61h31.83v56.74q0,10.49,5.43,16.29t14.61,5.81q9.36,0,14.79-5.81t5.43-16.29V547.62Z"/><path class="cls-1" d="M918.78,551.46a36.17,36.17,0,0,1,18.72-5v33.89h-8.8q-12,0-18,5.15t-6,18.07v48.5h-32V547.62h32V565A42.3,42.3,0,0,1,918.78,551.46Z"/><path class="cls-1" d="M1043,607.54H970.54q.74,9.75,6.27,14.89a19.13,19.13,0,0,0,13.57,5.15q12,0,16.67-10.11h34.08a46.83,46.83,0,0,1-9.45,18.54,47.38,47.38,0,0,1-17.14,12.92,55,55,0,0,1-23,4.68,56,56,0,0,1-27.34-6.55,46.64,46.64,0,0,1-18.73-18.73q-6.74-12.17-6.74-28.46t6.65-28.47A46,46,0,0,1,964,552.68q12-6.55,27.53-6.56a56,56,0,0,1,27,6.37,45.71,45.71,0,0,1,18.44,18.16q6.64,11.8,6.65,27.53A82.59,82.59,0,0,1,1043,607.54Zm-32.21-17.79q0-8.24-5.62-13.1a20.68,20.68,0,0,0-14-4.87,20.28,20.28,0,0,0-13.57,4.68q-5.53,4.68-6.84,13.29Z"/></svg>