<svg id="Warstwa_1" data-name="Warstwa 1" xmlns="http://www.w3.org/2000/svg" viewBox="0 0 400 400"><defs><style>.cls-1,.cls-2{fill:#343434;}.cls-2{fill-rule:evenodd;}</style></defs><path class="cls-1" d="M176.13,235l-5.51-15.84H148.29L143,235H129.83l22.42-63.74a19.42,19.42,0,0,1,7.74-1.35q7.14,0,9.08,6L189.85,235ZM159.6,182l-8.8,27.53h17.31Zm59.16,44.72a15.4,15.4,0,0,0,6.19-1.26,12.59,12.59,0,0,0,4.54-3.38,14.34,14.34,0,0,1,2.22,3.48,9,9,0,0,1,1.07,3.67,4.6,4.6,0,0,1-2,3.76c-3.23,2.45-7.83,3.67-13.83,3.67a25.72,25.72,0,0,1-12.47-2.89,19.52,19.52,0,0,1-8-8.4,30.06,30.06,0,0,1-2.7-13.33,26.83,26.83,0,0,1,2.9-13,20,20,0,0,1,8.4-8.11,24.84,24.84,0,0,1,11.89-2.9,29,29,0,0,1,7.25.87,17,17,0,0,1,5.71,2.32,8,8,0,0,1,2.51,2.22,4.11,4.11,0,0,1,.77,2.51,9,9,0,0,1-.87,3.38,15.68,15.68,0,0,1-2.22,3.57,14.56,14.56,0,0,0-5-3.47,14,14,0,0,0-6.18-1.45q-5.81,0-8.8,3.57t-3,10.33q0,7.24,2.9,11.11T218.76,226.68Zm64.67-14.78a29.19,29.19,0,0,1-2.8,13.23,19,19,0,0,1-7.83,8.5,24.64,24.64,0,0,1-12.18,2.8q-10.83,0-16.82-6.47t-5.9-17.77a27.2,27.2,0,0,1,2.9-12.84,20.71,20.71,0,0,1,8.12-8.5A24.51,24.51,0,0,1,261,188q10.83,0,16.63,6.37T283.43,211.9Zm-13.24.1q0-14-9.38-14a8.19,8.19,0,0,0-7.25,3.77q-2.51,3.77-2.51,10.33,0,7,2.41,10.72a8.09,8.09,0,0,0,7.16,3.77Q270.19,226.58,270.19,212Zm36.21-18.16a14.66,14.66,0,0,1,4.64-4.25,12,12,0,0,1,6-1.64,9.63,9.63,0,0,1,5.31,1.26,3.66,3.66,0,0,1,2,3.38,11.27,11.27,0,0,1-.48,2.89,21.5,21.5,0,0,1-1.16,3.48,21,21,0,0,1-1.54,3.19,11.75,11.75,0,0,0-3.48-2.13,9.61,9.61,0,0,0-3.68-.67,7.71,7.71,0,0,0-5,1.73,5.29,5.29,0,0,0-2,4.16V235H293.83V189.3l1.16-.19a25.44,25.44,0,0,1,3.19-.19,10.49,10.49,0,0,1,5.41,1.25A5.59,5.59,0,0,1,306.4,193.84ZM343.79,235H330.55V189.3l1.16-.19a25.44,25.44,0,0,1,3.19-.19q7.16,0,8.22,5,4.44-6,14.2-6,6.19,0,9.77,2.41a11.37,11.37,0,0,1,4.64,7.44,48.26,48.26,0,0,1,.77,9.95V235H359.35V208.33a20.82,20.82,0,0,0-.67-6.38,4.16,4.16,0,0,0-2.13-2.6,7.93,7.93,0,0,0-4.06-.87,11.56,11.56,0,0,0-6.18,1.54q-2.52,1.46-2.52,3.67Z"/><path class="cls-2" d="M71.71,162.37c32.35,1.55,32.18,20.69,32.09,22.53s-2.32,5.61-11.31,5.61H36s-7.4-.1-8.44-5.61c-.36-7.11,6.39-21.35,35.94-22.55a14.86,14.86,0,0,1,1.61-3.92,18.73,18.73,0,0,1,4.45-5.06,19,19,0,0,1,1.75-1.27c.23-.15.56-.34.56-.34l.17-.1.06,0h0s-3.35,2.12,0,0a3.86,3.86,0,0,1,3.69,6.79l0,0-.28.18a12.4,12.4,0,0,0-1.09.78,11.17,11.17,0,0,0-2.62,3ZM39.09,226.86c-6.42-10.18-5.85-25-4.76-31.11H96.62l0,.14c1.11,10.08,2,18.2-4.12,30S73.68,244.1,71.35,245A9.24,9.24,0,0,0,68,247.38a5.34,5.34,0,0,1-1.35,1.12,4,4,0,0,0-.5.24c-.35.19-.36.19-1.27-.24a4.47,4.47,0,0,1-1.28-1.08A9.32,9.32,0,0,0,60.25,245l-.26-.12A44.49,44.49,0,0,1,39.09,226.86Z"/></svg>