<svg id="Warstwa_1" data-name="Warstwa 1" xmlns="http://www.w3.org/2000/svg" viewBox="0 0 1080 1080"><defs><style>.cls-1{fill:#61a3aa;}</style></defs><polygon points="662.11 309.97 662.11 392.62 596.06 392.62 596.06 538.08 506.8 538.08 506.8 392.62 375.32 392.62 375.32 71.95 464.58 71.95 464.58 309.97 662.11 309.97"/><rect class="cls-1" x="512.52" y="182.48" width="192.15" height="76.04"/><path d="M194.72,754.46h56.13v33.08h-99V611.64h42.85Z"/><path d="M390.77,727.9h-97q1,13,8.4,19.92a25.59,25.59,0,0,0,18.16,6.89q16,0,22.3-13.53h45.61A62.68,62.68,0,0,1,375.61,766a63.5,63.5,0,0,1-22.93,17.29,73.59,73.59,0,0,1-30.82,6.26q-20.55,0-36.59-8.77a62.28,62.28,0,0,1-25-25q-9-16.29-9-38.09t8.89-38.09A61.59,61.59,0,0,1,285,654.48q16-8.76,36.84-8.77,20.29,0,36.08,8.52a61.17,61.17,0,0,1,24.68,24.31q8.89,15.78,8.9,36.83A109.6,109.6,0,0,1,390.77,727.9Zm-43.1-23.8q0-11-7.52-17.54T321.36,680q-10.78,0-18.17,6.27T294,704.1Z"/><path d="M426.2,783.28q-14.29-6.27-22.56-17.17a45.16,45.16,0,0,1-9.27-24.43h42.35a16.28,16.28,0,0,0,6.77,11.78A23.9,23.9,0,0,0,458.27,758q8,0,12.4-3.13a9.61,9.61,0,0,0,4.39-8.15q0-6-6.27-8.89t-20.29-6.39A190.3,190.3,0,0,1,423.44,724a43.25,43.25,0,0,1-17.29-12.28q-7.27-8.4-7.27-22.68a38.54,38.54,0,0,1,6.64-21.92q6.64-9.9,19.55-15.66t30.69-5.77q26.31,0,41.47,13t17.42,34.58H475.06a17.07,17.07,0,0,0-6.39-11.52q-5.4-4.26-14.16-4.26-7.51,0-11.52,2.88a9.18,9.18,0,0,0-4,7.89q0,6,6.39,9t19.92,6a217.25,217.25,0,0,1,25.3,7.89,43.59,43.59,0,0,1,17.17,12.53q7.38,8.64,7.64,23.18a36.81,36.81,0,0,1-6.89,21.92q-6.9,9.64-19.8,15.16t-29.94,5.51Q440.49,789.54,426.2,783.28Z"/><path d="M554,783.28q-14.28-6.27-22.55-17.17a45,45,0,0,1-9.27-24.43h42.34a16.28,16.28,0,0,0,6.77,11.78A23.9,23.9,0,0,0,586.11,758q8,0,12.41-3.13a9.6,9.6,0,0,0,4.38-8.15q0-6-6.26-8.89t-20.3-6.39A190.77,190.77,0,0,1,551.28,724,43.32,43.32,0,0,1,534,711.74q-7.26-8.4-7.26-22.68a38.46,38.46,0,0,1,6.64-21.92q6.63-9.9,19.54-15.66t30.7-5.77q26.31,0,41.47,13t17.41,34.58H602.9a17.07,17.07,0,0,0-6.39-11.52q-5.38-4.26-14.16-4.26-7.51,0-11.52,2.88a9.18,9.18,0,0,0-4,7.89q0,6,6.39,9t19.92,6a218.12,218.12,0,0,1,25.31,7.89,43.63,43.63,0,0,1,17.16,12.53q7.39,8.64,7.64,23.18a36.81,36.81,0,0,1-6.89,21.92q-6.89,9.64-19.79,15.16t-29.95,5.51Q568.32,789.54,554,783.28Z"/><path d="M684.14,780.77a64.07,64.07,0,0,1-25.81-25q-9.41-16.29-9.4-38.09,0-21.55,9.52-38a64.71,64.71,0,0,1,26.06-25.19q16.54-8.76,37.09-8.77t37.08,8.77a64.64,64.64,0,0,1,26.06,25.19q9.53,16.41,9.52,38t-9.64,38a65.3,65.3,0,0,1-26.31,25.18,78.68,78.68,0,0,1-37.22,8.77Q700.56,789.54,684.14,780.77ZM742,743.44q8.64-9,8.64-25.81t-8.39-25.81a28.48,28.48,0,0,0-41.47-.13q-8.26,8.89-8.27,25.94,0,16.79,8.14,25.81a26.37,26.37,0,0,0,20.42,9A27.93,27.93,0,0,0,742,743.44Z"/><path d="M930.77,662.13q14.67,15.92,14.66,43.72v81.69H902.84V711.61q0-14-7.27-21.8T876,682.05q-12.27,0-19.54,7.76t-7.27,21.8v75.93H806.36V647.72h42.85v18.54a45.34,45.34,0,0,1,17.54-14.66,55.79,55.79,0,0,1,24.81-5.39Q916.12,646.21,930.77,662.13Z"/><path class="cls-1" d="M55.33,973.47V938.89l79.19-113.25h47.86V936.39h20.54v37.08H182.38v32.58H139.53V973.47Zm87.2-100.73-42.09,63.65h42.09Z"/><path d="M379.87,830.15v34.32H308.2v37.09h53.63v33.32H308.2v71.17H265.36V830.15Z"/><path d="M525.78,866.23v139.82H482.93V987a47,47,0,0,1-17.67,14.91,53.88,53.88,0,0,1-24.68,5.64q-16,0-28.31-7.14a48.13,48.13,0,0,1-19-20.67q-6.77-13.53-6.76-31.82V866.23h42.59v75.92q0,14,7.27,21.8t19.55,7.77q12.53,0,19.79-7.77t7.27-21.8V866.23Z"/><path d="M624.55,969.72v36.33h-21.8q-23.29,0-36.33-11.4t-13-37.21V901.81h-17V866.23h17V832.15h42.85v34.08H624.3v35.58H596.24v56.13q0,6.27,3,9t10,2.76Z"/><path d="M775.87,866.23v139.82H733V987a46.94,46.94,0,0,1-17.66,14.91,53.91,53.91,0,0,1-24.68,5.64q-16,0-28.32-7.14a48.17,48.17,0,0,1-19-20.67q-6.77-13.53-6.77-31.82V866.23h42.6v75.92q0,14,7.27,21.8T706,971.72q12.52,0,19.8-7.77t7.26-21.8V866.23Z"/><path d="M857.68,871.36a48.54,48.54,0,0,1,25.06-6.64v45.36H871q-16.05,0-24.06,6.89t-8,24.18v64.9H796V866.23h42.85v23.3A56.65,56.65,0,0,1,857.68,871.36Z"/><path d="M1023.91,946.41h-97q1,13,8.4,19.92a25.59,25.59,0,0,0,18.16,6.89q16,0,22.3-13.53h45.61a62.57,62.57,0,0,1-12.66,24.81,63.35,63.35,0,0,1-22.92,17.29,73.62,73.62,0,0,1-30.82,6.26q-20.55,0-36.59-8.77a62.36,62.36,0,0,1-25.06-25q-9-16.29-9-38.09t8.9-38.09A61.59,61.59,0,0,1,918.17,873q16-8.76,36.84-8.77,20.29,0,36.08,8.52a61.17,61.17,0,0,1,24.68,24.31q8.89,15.78,8.9,36.83A109.67,109.67,0,0,1,1023.91,946.41Zm-43.1-23.8q0-11-7.51-17.54t-18.8-6.52q-10.77,0-18.16,6.27t-9.15,17.79Z"/></svg>