<svg id="Warstwa_1" data-name="Warstwa 1" xmlns="http://www.w3.org/2000/svg" viewBox="0 0 400 400"><defs><style>.cls-1{fill:#343434;}</style></defs><polygon class="cls-1" points="131.91 299.88 131.91 304.39 139.82 304.39 139.82 307.57 131.91 307.57 131.91 313.79 127.95 313.79 127.95 296.71 140.87 296.71 140.87 299.88 131.91 299.88 131.91 299.88"/><path class="cls-1" d="M152.53,307.23a3.37,3.37,0,1,0-3.34,3.63,3.32,3.32,0,0,0,3.34-3.63m-10.57,0c0-4,3-6.77,7.23-6.77s7.2,2.81,7.2,6.77-3,6.76-7.2,6.76-7.23-2.81-7.23-6.76"/><path class="cls-1" d="M172.16,300.66v13.13h-3.61v-1.56a5.31,5.31,0,0,1-4.08,1.76c-3.29,0-5.61-1.86-5.61-5.91v-7.42h3.81v6.86c0,2.19,1,3.17,2.66,3.17s3-1.12,3-3.54v-6.49Z"/><path class="cls-1" d="M189.13,306.27v7.52h-3.81v-6.93c0-2.12-1-3.1-2.66-3.1s-3.15,1.12-3.15,3.54v6.49H175.7V300.66h3.64v1.54a5.71,5.71,0,0,1,4.34-1.74c3.1,0,5.45,1.81,5.45,5.81"/><path class="cls-1" d="M202.63,307.21a3.37,3.37,0,1,0-3.35,3.64,3.33,3.33,0,0,0,3.35-3.64m3.73-11.54v18.11h-3.64v-1.51a5.06,5.06,0,0,1-4.1,1.7,6.76,6.76,0,0,1,0-13.52,5,5,0,0,1,3.93,1.59v-6.37Z"/><path class="cls-1" d="M217.42,309.64V308.3H214.8c-1.78,0-2.34.66-2.34,1.54s.81,1.58,2.15,1.58a2.8,2.8,0,0,0,2.81-1.78m3.81-3.34v7.49h-3.57v-1.63c-.71,1.19-2.07,1.83-4,1.83-3.08,0-4.91-1.71-4.91-4s1.64-3.93,5.64-3.93h3c0-1.64-1-2.59-3-2.59a6.35,6.35,0,0,0-3.78,1.22l-1.37-2.66a10.13,10.13,0,0,1,5.66-1.59c4,0,6.33,1.86,6.33,5.84"/><path class="cls-1" d="M233.14,313.16a5.45,5.45,0,0,1-3.1.83c-3.1,0-4.91-1.59-4.91-4.71v-5.4h-2V301h2v-3.19h3.81V301h3.27v2.93h-3.27v5.35a1.53,1.53,0,0,0,1.63,1.73,2.55,2.55,0,0,0,1.54-.49l1,2.69Z"/><path class="cls-1" d="M235.29,300.66h3.8v13.13h-3.8V300.66Zm-.47-4a2.18,2.18,0,0,1,2.37-2.13,2.14,2.14,0,0,1,2.37,2.05,2.38,2.38,0,0,1-4.74.08"/><path class="cls-1" d="M252.23,307.23a3.37,3.37,0,1,0-3.35,3.63,3.32,3.32,0,0,0,3.35-3.63m-10.57,0c0-4,3.05-6.77,7.22-6.77s7.2,2.81,7.2,6.77-3,6.76-7.2,6.76-7.22-2.81-7.22-6.76"/><path class="cls-1" d="M272.05,306.27v7.52h-3.81v-6.93c0-2.12-1-3.1-2.66-3.1s-3.15,1.12-3.15,3.54v6.49h-3.81V300.66h3.64v1.54a5.71,5.71,0,0,1,4.34-1.74c3.1,0,5.45,1.81,5.45,5.81"/><polygon class="cls-1" points="151.86 263.89 151.86 289.95 146.91 289.95 133.91 274.13 133.91 289.95 127.95 289.95 127.95 263.89 132.94 263.89 145.9 279.71 145.9 263.89 151.86 263.89 151.86 263.89"/><path class="cls-1" d="M162.1,278.44H172a5,5,0,0,0-9.86,0m15.23,3.39H162.17c.56,2.49,2.68,4,5.73,4a6.77,6.77,0,0,0,5-1.94l3.09,3.35c-1.86,2.13-4.65,3.24-8.26,3.24-6.93,0-11.44-4.35-11.44-10.31s4.58-10.32,10.69-10.32c5.89,0,10.43,3.95,10.43,10.39,0,.45-.08,1.08-.11,1.57"/><path class="cls-1" d="M201.68,270.17v20h-5.51v-2.39A8.12,8.12,0,0,1,190,290.5c-5,0-8.57-2.83-8.57-9V270.17h5.81v10.47c0,3.35,1.49,4.84,4.06,4.84s4.62-1.72,4.62-5.4v-9.91Z"/><path class="cls-1" d="M219.7,269.87v5.37c-.49,0-.86-.08-1.31-.08-3.2,0-5.32,1.75-5.32,5.59v9.46h-5.81v-20h5.55v2.65c1.41-1.94,3.8-2.95,6.89-2.95"/><path class="cls-1" d="M237.79,280.19c0-3.46-2.19-5.55-5.1-5.55s-5.14,2.09-5.14,5.55,2.24,5.55,5.14,5.55,5.1-2.09,5.1-5.55m-16.12,0c0-6,4.65-10.32,11-10.32s11,4.29,11,10.32-4.62,10.32-11,10.32-11-4.29-11-10.32"/><polygon class="cls-1" points="272.05 263.89 272.05 289.95 267.1 289.95 254.1 274.13 254.1 289.95 248.14 289.95 248.14 263.89 253.13 263.89 266.09 279.71 266.09 263.89 272.05 263.89 272.05 263.89"/><path class="cls-1" d="M164.39,179.68c-15.5.77-21.64,1.56-36.78,5.62-17-6.81,1.93-57.63,11-45.08,7.53,10.38,14.57,28.29,25.74,39.46"/><path class="cls-1" d="M195.18,197.64c0,18.11-2.52,52-2.52,52s-24.43,16.49-29.34.44c-8.87-2.56-12-3.52-16.38-17.67,7.63-15,18.42-18.15,18.12-18.49-5.85-2.68-22.94,14.32-22.94,14.32s-21.64-23.95-15.51-34.78c6.27-11.07,64-12,68.57,4.16"/><path class="cls-1" d="M170.7,122.94c-2-4.28-3.62-8.7-3-13.37,3.85-30.43,29.61-29.83,29.25-7.08-.27,17.48-1.33,48.63-1.33,48.63s-17.68-12.48-24.88-28.18"/><path class="cls-1" d="M194.83,186.79s.75-22.09.75-27c-5.65-4.46-10.45-8.68-17.42-15.16-5.82-5.4-10.53,30.78-4.54,34.68,5,3.29,12.7.43,21.21,7.53"/><path class="cls-1" d="M167.51,175.69s-25.39-31.11-25.39-40,5.32-31.76,16.38-33.2c9.13-1.19,3.26,6.88,5,15.37,2.05,10.17,7.26,15.63,9.39,20.53,1.84,4.25-8.65,13.36-5.35,37.33"/><path class="cls-1" d="M235.61,179.68c15.5.77,21.64,1.56,36.78,5.62,17.05-6.81-1.93-57.63-11-45.08-7.53,10.38-14.57,28.29-25.74,39.46"/><path class="cls-1" d="M204.82,197.64c0,18.11,2.52,52,2.52,52s24.43,16.49,29.34.44c8.87-2.56,12-3.52,16.38-17.67-7.63-15-18.42-18.15-18.12-18.49,5.85-2.68,22.94,14.32,22.94,14.32s21.64-23.95,15.51-34.78c-6.28-11.07-63.95-12-68.57,4.16"/><path class="cls-1" d="M229.3,122.94c2-4.28,3.63-8.7,3-13.37-3.84-30.43-29.6-29.83-29.24-7.08.27,17.48,1.34,48.63,1.34,48.63s17.67-12.48,24.87-28.18"/><path class="cls-1" d="M205.17,186.79s-.74-22.09-.74-27c5.64-4.46,10.44-8.68,17.41-15.16,5.82-5.4,10.53,30.78,4.54,34.68-5,3.29-12.7.43-21.21,7.53"/><path class="cls-1" d="M232.49,175.69s25.39-31.11,25.39-40-5.32-31.76-16.38-33.2c-9.13-1.19-3.26,6.88-5,15.37-2.06,10.17-7.26,15.63-9.39,20.53-1.84,4.25,8.65,13.36,5.35,37.33"/></svg>