<svg width="28" height="28" viewBox="0 0 28 28" fill="none" xmlns="http://www.w3.org/2000/svg">
<g clip-path="url(#clip0_313_821)">
<path d="M16.625 2.625C16.625 4.07477 15.4492 5.25 14 5.25C12.5508 5.25 11.375 4.07477 11.375 2.625C11.375 1.17523 12.5508 0 14 0C15.4492 0 16.625 1.17523 16.625 2.625ZM16.625 25.375C16.625 26.8242 15.4492 28 14 28C12.5508 28 11.375 26.8242 11.375 25.375C11.375 23.9258 12.5508 22.75 14 22.75C15.4492 22.75 16.625 23.9258 16.625 25.375ZM0 14C0 12.5508 1.17523 11.375 2.625 11.375C4.07477 11.375 5.25 12.5508 5.25 14C5.25 15.4492 4.07477 16.625 2.625 16.625C1.17523 16.625 0 15.4492 0 14ZM28 14C28 15.4492 26.8242 16.625 25.375 16.625C23.9258 16.625 22.75 15.4492 22.75 14C22.75 12.5508 23.9258 11.375 25.375 11.375C26.8242 11.375 28 12.5508 28 14ZM4.10047 23.8984C3.07508 22.8758 3.07508 21.2133 4.10047 20.1852C5.12586 19.1625 6.78672 19.1625 7.81484 20.1852C8.8375 21.2133 8.8375 22.8758 7.81484 23.8984C6.78672 24.9266 5.12586 24.9266 4.10047 23.8984ZM7.81484 7.81484C6.78672 8.8375 5.12586 8.8375 4.10047 7.81484C3.07563 6.78672 3.07563 5.12586 4.10047 4.10047C5.12586 3.07508 6.78672 3.07508 7.81484 4.10047C8.8375 5.12586 8.8375 6.78672 7.81484 7.81484ZM20.1852 20.1852C21.2133 19.1625 22.8758 19.1625 23.8984 20.1852C24.9266 21.2133 24.9266 22.8758 23.8984 23.8984C22.8758 24.9266 21.2133 24.9266 20.1852 23.8984C19.1625 22.8758 19.1625 21.2133 20.1852 20.1852Z" fill="white"/>
</g>
<defs>
<clipPath id="clip0_313_821">
<rect width="28" height="28" fill="white"/>
</clipPath>
</defs>
</svg>
