<svg width="28" height="28" viewBox="0 0 28 28" fill="none" xmlns="http://www.w3.org/2000/svg">
<path d="M13.3328 18.5828C12.7367 19.1789 11.7633 19.1789 11.1672 18.5828L7.66719 15.0828C7.07109 14.4867 7.07109 13.5133 7.66719 12.9172C8.26328 12.3211 9.23672 12.3211 9.83281 12.9172L12.25 15.3344L18.1672 9.41719C18.7633 8.82109 19.7367 8.82109 20.3328 9.41719C20.9289 10.0133 20.9289 10.9867 20.3328 11.5828L13.3328 18.5828ZM28 14C28 21.7328 21.7328 28 14 28C6.26719 28 0 21.7328 0 14C0 6.26719 6.26719 0 14 0C21.7328 0 28 6.26719 28 14ZM14 2.625C7.71641 2.625 2.625 7.71641 2.625 14C2.625 20.2836 7.71641 25.375 14 25.375C20.2836 25.375 25.375 20.2836 25.375 14C25.375 7.71641 20.2836 2.625 14 2.625Z" fill="white"/>
</svg>
